<svg width="90" height="90" viewBox="0 0 90 90" fill="none" xmlns="http://www.w3.org/2000/svg">
<path d="M20.943 79.582C38.2355 79.582 50.1105 88.5395 58.443 88.5395C66.7755 88.5395 84.2755 83.7495 84.2755 45.417C84.2755 7.08453 60.733 1.45703 51.568 1.45703C8.65049 1.45703 -9.68202 79.582 20.943 79.582Z" fill="white"/>
<path d="M69.1074 6.54102L70.8752 4.77325L74.4107 8.30878L72.6429 10.0765L69.1074 6.54102Z" fill="#A4AFC1"/>
<path d="M79.2705 16.7061L81.0383 14.9383L84.5738 18.4738L82.806 20.2416L79.2705 16.7061Z" fill="#A4AFC1"/>
<path d="M78.8291 8.30957L82.3646 4.77404L84.1324 6.5418L80.5969 10.0773L78.8291 8.30957Z" fill="#A4AFC1"/>
<path d="M61.25 33.125H23.75C19.9525 33.125 16.875 30.0475 16.875 26.25C16.875 22.4525 19.9525 19.375 23.75 19.375H61.25C65.0475 19.375 68.125 22.4525 68.125 26.25C68.125 30.0475 65.0475 33.125 61.25 33.125Z" fill="#F3F3F1"/>
<path d="M61.25 46.875H23.75C19.9525 46.875 16.875 43.7975 16.875 40C16.875 36.2025 19.9525 33.125 23.75 33.125H61.25C65.0475 33.125 68.125 36.2025 68.125 40C68.125 43.7975 65.0475 46.875 61.25 46.875Z" fill="#FEB46D"/>
<path d="M61.25 60.625H23.75C19.9525 60.625 16.875 57.5475 16.875 53.75C16.875 49.9525 19.9525 46.875 23.75 46.875H61.25C65.0475 46.875 68.125 49.9525 68.125 53.75C68.125 57.5475 65.0475 60.625 61.25 60.625Z" fill="#F3F3F1"/>
<path d="M70.625 73.125H56.875C55.495 73.125 54.375 72.005 54.375 70.625V61.875C54.375 60.495 55.495 59.375 56.875 59.375H70.625C72.005 59.375 73.125 60.495 73.125 61.875V70.625C73.125 72.005 72.005 73.125 70.625 73.125Z" fill="#FEB46D"/>
<path d="M60 70.625V61.875C60 60.495 61.12 59.375 62.5 59.375H56.875C55.495 59.375 54.375 60.495 54.375 61.875V70.625C54.375 72.005 55.495 73.125 56.875 73.125H62.5C61.12 73.125 60 72.005 60 70.625Z" fill="#FF6600"/>
<path d="M22.5 40C22.5 36.2025 25.5775 33.125 29.375 33.125H23.75C19.9525 33.125 16.875 36.2025 16.875 40C16.875 43.7975 19.9525 46.875 23.75 46.875H29.375C25.5775 46.875 22.5 43.7975 22.5 40Z" fill="#FF6600"/>
<path d="M22.5 26.25C22.5 22.4525 25.5775 19.375 29.375 19.375H23.75C19.9525 19.375 16.875 22.4525 16.875 26.25C16.875 30.0475 19.9525 33.125 23.75 33.125H29.375C25.5775 33.125 22.5 30.0475 22.5 26.25Z" fill="#D5DBE1"/>
<path d="M22.5 53.75C22.5 49.9525 25.5775 46.875 29.375 46.875H23.75C19.9525 46.875 16.875 49.9525 16.875 53.75C16.875 57.5475 19.9525 60.625 23.75 60.625H29.375C25.5775 60.625 22.5 57.5475 22.5 53.75Z" fill="#D5DBE1"/>
<path d="M61.25 35H23.75C18.925 35 15 31.075 15 26.25C15 21.425 18.925 17.5 23.75 17.5H61.25C66.075 17.5 70 21.425 70 26.25C70 31.075 66.075 35 61.25 35ZM23.75 21.25C20.9925 21.25 18.75 23.4925 18.75 26.25C18.75 29.0075 20.9925 31.25 23.75 31.25H61.25C64.0075 31.25 66.25 29.0075 66.25 26.25C66.25 23.4925 64.0075 21.25 61.25 21.25H23.75Z" fill="black"/>
<path d="M27.5 28.75C28.8807 28.75 30 27.6307 30 26.25C30 24.8693 28.8807 23.75 27.5 23.75C26.1193 23.75 25 24.8693 25 26.25C25 27.6307 26.1193 28.75 27.5 28.75Z" fill="black"/>
<path d="M37.5 28.75C38.8807 28.75 40 27.6307 40 26.25C40 24.8693 38.8807 23.75 37.5 23.75C36.1193 23.75 35 24.8693 35 26.25C35 27.6307 36.1193 28.75 37.5 28.75Z" fill="black"/>
<path d="M53.125 48.75H23.75C18.925 48.75 15 44.825 15 40C15 37.6775 15.9425 35.4225 17.5875 33.81C19.17 32.1925 21.4275 31.25 23.75 31.25H61.25C66.075 31.25 70 35.175 70 40C70 40.8125 69.885 41.6375 69.655 42.455L66.045 41.445C66.18 40.9575 66.25 40.47 66.25 40C66.25 37.2425 64.0075 35 61.25 35H23.75C22.41 35 21.1625 35.52 20.24 36.46C19.27 37.4125 18.75 38.66 18.75 40C18.75 42.7575 20.9925 45 23.75 45H53.125V48.75Z" fill="black"/>
<path d="M27.5 42.5C28.8807 42.5 30 41.3807 30 40C30 38.6193 28.8807 37.5 27.5 37.5C26.1193 37.5 25 38.6193 25 40C25 41.3807 26.1193 42.5 27.5 42.5Z" fill="black"/>
<path d="M37.5 42.5C38.8807 42.5 40 41.3807 40 40C40 38.6193 38.8807 37.5 37.5 37.5C36.1193 37.5 35 38.6193 35 40C35 41.3807 36.1193 42.5 37.5 42.5Z" fill="black"/>
<path d="M45.625 62.5H23.75C18.925 62.5 15 58.575 15 53.75C15 51.4275 15.9425 49.1725 17.5875 47.56C19.17 45.9425 21.4275 45 23.75 45H51.525V48.75H23.75C22.41 48.75 21.1625 49.27 20.24 50.21C19.27 51.1625 18.75 52.41 18.75 53.75C18.75 56.5075 20.9925 58.75 23.75 58.75H45.625V62.5Z" fill="black"/>
<path d="M27.5 56.25C28.8807 56.25 30 55.1307 30 53.75C30 52.3693 28.8807 51.25 27.5 51.25C26.1193 51.25 25 52.3693 25 53.75C25 55.1307 26.1193 56.25 27.5 56.25Z" fill="black"/>
<path d="M37.5 56.25C38.8807 56.25 40 55.1307 40 53.75C40 52.3693 38.8807 51.25 37.5 51.25C36.1193 51.25 35 52.3693 35 53.75C35 55.1307 36.1193 56.25 37.5 56.25Z" fill="black"/>
<path d="M70.625 75H56.875C54.4625 75 52.5 73.0375 52.5 70.625V61.875C52.5 59.4625 54.4625 57.5 56.875 57.5H70.625C73.0375 57.5 75 59.4625 75 61.875V70.625C75 73.0375 73.0375 75 70.625 75ZM56.875 61.25C56.53 61.25 56.25 61.53 56.25 61.875V70.625C56.25 70.97 56.53 71.25 56.875 71.25H70.625C70.97 71.25 71.25 70.97 71.25 70.625V61.875C71.25 61.53 70.97 61.25 70.625 61.25H56.875Z" fill="black"/>
<path d="M70 59.375H66.25V53.75C66.25 52.37 65.1275 51.25 63.75 51.25C62.3725 51.25 61.25 52.37 61.25 53.75V59.375H57.5V53.75C57.5 50.3025 60.305 47.5 63.75 47.5C67.195 47.5 70 50.3025 70 53.75V59.375Z" fill="black"/>
</svg>
