<svg width="30" height="30" viewBox="0 0 30 30" fill="none" xmlns="http://www.w3.org/2000/svg">
<g clip-path="url(#clip0_775_39023)">
<path d="M15.0001 15C11.0453 15 7.82617 18.2179 7.82617 22.1739C7.82617 26.13 11.0453 29.3478 15.0001 29.3478C18.9548 29.3478 22.1739 26.13 22.1739 22.1739C22.1739 18.2179 18.9549 15 15.0001 15ZM15.0001 28.0435C11.764 28.0435 9.1305 25.41 9.1305 22.1739C9.1305 18.9379 11.764 16.3044 15.0001 16.3044C18.2361 16.3044 20.8696 18.9379 20.8696 22.1739C20.8696 25.41 18.2361 28.0435 15.0001 28.0435Z" fill="#3399FF"/>
<path d="M18.7214 19.7572C18.4671 19.5028 18.0536 19.5028 17.7992 19.7572L13.6958 23.8607L11.5475 21.7137C11.2932 21.4593 10.8797 21.4593 10.6253 21.7137C10.371 21.968 10.371 22.3815 10.6253 22.6359L13.234 25.2446C13.3619 25.3711 13.5288 25.4351 13.6958 25.4351C13.8628 25.4351 14.0297 25.3712 14.1562 25.2446L18.7215 20.6794C18.9758 20.425 18.9758 20.0115 18.7214 19.7572Z" fill="#3399FF"/>
<path d="M26.7391 0.652344H3.26085C1.46219 0.652344 0 2.11582 0 3.91319V18.261C0 20.0584 1.46219 21.5219 3.26085 21.5219H5.86956C6.22956 21.5219 6.52176 21.2297 6.52176 20.8697C6.52176 20.5097 6.22956 20.2175 5.86956 20.2175H3.26085C2.18213 20.2175 1.30433 19.3397 1.30433 18.261V3.91319C1.30433 2.83448 2.18213 1.95667 3.26085 1.95667H26.7391C27.8178 1.95667 28.6956 2.83448 28.6956 3.91319V18.261C28.6956 19.3398 27.8178 20.2176 26.7391 20.2176H24.1304C23.7704 20.2176 23.4782 20.5098 23.4782 20.8698C23.4782 21.2298 23.7704 21.5219 24.1304 21.5219H26.7391C28.5378 21.5219 29.9999 20.0585 29.9999 18.2611V3.91319C30 2.11582 28.5378 0.652344 26.7391 0.652344Z" fill="#3399FF"/>
<path d="M27.2685 3.53084C27.0572 3.23865 26.6503 3.17347 26.3581 3.38477L16.2233 10.7034C15.4824 11.2395 14.5185 11.2395 13.7776 10.7034L3.64287 3.38477C3.35067 3.17475 2.94372 3.23736 2.73241 3.53084C2.52111 3.82303 2.58635 4.23127 2.87848 4.44258L13.0133 11.7612C13.608 12.1904 14.3033 12.4043 14.9998 12.4043C15.6963 12.4043 16.3916 12.1891 16.9876 11.7599L27.1224 4.44129C27.4133 4.23127 27.4798 3.82303 27.2685 3.53084Z" fill="#3399FF"/>
<path d="M10.2431 11.2787C9.98876 11.0243 9.57526 11.0243 9.32092 11.2787L2.79916 17.8004C2.54481 18.0548 2.54481 18.4683 2.79916 18.7226C2.92701 18.8491 3.09392 18.9131 3.2609 18.9131C3.42788 18.9131 3.59479 18.8492 3.72135 18.7226L10.2431 12.2008C10.4975 11.9465 10.4975 11.533 10.2431 11.2787Z" fill="#3399FF"/>
<path d="M27.1992 17.8004L20.6774 11.2787C20.4231 11.0243 20.0096 11.0243 19.7552 11.2787C19.5009 11.533 19.5009 11.9465 19.7552 12.2008L26.277 18.7226C26.4048 18.8491 26.5717 18.9131 26.7387 18.9131C26.9057 18.9131 27.0726 18.8492 27.1992 18.7226C27.4535 18.4683 27.4535 18.0548 27.1992 17.8004Z" fill="#3399FF"/>
</g>
<defs>
<clipPath id="clip0_775_39023">
<rect width="30" height="30" fill="white"/>
</clipPath>
</defs>
</svg>
