<svg width="35" height="35" viewBox="0 0 35 35" fill="none" xmlns="http://www.w3.org/2000/svg">
<path d="M28.9844 11.4844H24.6094C24.1743 11.4844 23.757 11.6572 23.4493 11.9649C23.1416 12.2726 22.9688 12.6899 22.9688 13.125V15.3125C22.9688 15.4575 23.0264 15.5966 23.1289 15.6992C23.2315 15.8018 23.3706 15.8594 23.5156 15.8594H30.0781C30.2232 15.8594 30.3623 15.8018 30.4648 15.6992C30.5674 15.5966 30.625 15.4575 30.625 15.3125V13.125C30.625 12.6899 30.4521 12.2726 30.1445 11.9649C29.8368 11.6572 29.4195 11.4844 28.9844 11.4844ZM29.5312 14.7656H24.0625V13.125C24.0625 12.98 24.1201 12.8409 24.2227 12.7383C24.3252 12.6357 24.4643 12.5781 24.6094 12.5781H28.9844C29.1294 12.5781 29.2685 12.6357 29.3711 12.7383C29.4736 12.8409 29.5312 12.98 29.5312 13.125V14.7656Z" fill="#3399FF"/>
<path d="M28.9844 9.29688V8.20312C28.9844 7.62296 28.7539 7.06656 28.3437 6.65633C27.9334 6.24609 27.377 6.01563 26.7969 6.01562C26.2167 6.01563 25.6603 6.24609 25.2501 6.65633C24.8398 7.06656 24.6094 7.62296 24.6094 8.20312V9.29688C24.6094 9.87704 24.8398 10.4334 25.2501 10.8437C25.6603 11.2539 26.2167 11.4844 26.7969 11.4844C27.377 11.4844 27.9334 11.2539 28.3437 10.8437C28.7539 10.4334 28.9844 9.87704 28.9844 9.29688ZM27.8906 9.29688C27.8906 9.58696 27.7754 9.86515 27.5703 10.0703C27.3652 10.2754 27.087 10.3906 26.7969 10.3906C26.5068 10.3906 26.2286 10.2754 26.0235 10.0703C25.8184 9.86515 25.7031 9.58696 25.7031 9.29688V8.20312C25.7031 7.91304 25.8184 7.63485 26.0235 7.42973C26.2286 7.22461 26.5068 7.10938 26.7969 7.10938C27.087 7.10938 27.3652 7.22461 27.5703 7.42973C27.7754 7.63485 27.8906 7.91304 27.8906 8.20312V9.29688Z" fill="#3399FF"/>
<path d="M34.4531 11.4844C34.4531 9.45381 33.6465 7.50641 32.2107 6.07059C30.7748 4.63476 28.8274 3.82813 26.7969 3.82812C24.7663 3.82813 22.8189 4.63476 21.3831 6.07059C19.9473 7.50641 19.1406 9.45381 19.1406 11.4844H1.09375C0.94871 11.4844 0.80961 11.542 0.707051 11.6446C0.604492 11.7471 0.546875 11.8862 0.546875 12.0312V27.8906C0.547744 28.7606 0.893725 29.5947 1.50889 30.2099C2.12406 30.825 2.95815 31.171 3.82812 31.1719H27.8906C28.7606 31.171 29.5947 30.825 30.2099 30.2099C30.825 29.5947 31.171 28.7606 31.1719 27.8906V17.7587C32.184 17.0547 33.0109 16.1165 33.5822 15.0241C34.1536 13.9316 34.4523 12.7172 34.4531 11.4844ZM27.8906 30.0781H3.82812C3.24796 30.0781 2.69156 29.8477 2.28133 29.4374C1.87109 29.0272 1.64062 28.4708 1.64062 27.8906V26.7969H30.0781V27.8906C30.0781 28.4708 29.8477 29.0272 29.4374 29.4374C29.0272 29.8477 28.4708 30.0781 27.8906 30.0781ZM30.0781 25.7031H1.64062V12.5781H19.2281C19.3956 13.7654 19.8406 14.8965 20.527 15.8796C21.2134 16.8627 22.1219 17.6702 23.1788 18.2365C24.2357 18.8027 25.4112 19.1119 26.6099 19.1388C27.8087 19.1657 28.9969 18.9097 30.0781 18.3914V25.7031ZM26.7969 18.0469C25.4989 18.0469 24.2301 17.662 23.1509 16.9409C22.0717 16.2198 21.2306 15.1949 20.7339 13.9957C20.2372 12.7966 20.1073 11.4771 20.3605 10.2041C20.6137 8.93109 21.2387 7.76177 22.1565 6.84399C23.0743 5.9262 24.2436 5.30119 25.5166 5.04797C26.7896 4.79476 28.1091 4.92472 29.3082 5.42142C30.5074 5.91812 31.5323 6.75925 32.2534 7.83845C32.9745 8.91764 33.3594 10.1864 33.3594 11.4844C33.3575 13.2243 32.6655 14.8924 31.4352 16.1227C30.2049 17.353 28.5368 18.045 26.7969 18.0469Z" fill="#3399FF"/>
<path d="M6.5625 20.7812C6.41746 20.7812 6.27836 20.7236 6.1758 20.6211C6.07324 20.5185 6.01562 20.3794 6.01562 20.2344H4.92188C4.92328 20.5725 5.02911 20.9019 5.22489 21.1776C5.42067 21.4532 5.69685 21.6617 6.01562 21.7744V22.4219H7.10938V21.7744C7.47397 21.646 7.78134 21.3926 7.97707 21.0593C8.17279 20.726 8.24423 20.3341 8.17873 19.9532C8.11323 19.5722 7.91501 19.2267 7.61919 18.9779C7.32338 18.7291 6.94905 18.593 6.5625 18.5938C6.45434 18.5938 6.34861 18.5617 6.25867 18.5016C6.16874 18.4415 6.09864 18.3561 6.05725 18.2562C6.01586 18.1562 6.00503 18.0463 6.02613 17.9402C6.04723 17.8341 6.09932 17.7367 6.1758 17.6602C6.25228 17.5837 6.34973 17.5316 6.45581 17.5105C6.56189 17.4894 6.67185 17.5002 6.77178 17.5416C6.87171 17.583 6.95712 17.6531 7.01721 17.743C7.0773 17.833 7.10938 17.9387 7.10938 18.0469H8.20312C8.20172 17.7088 8.09589 17.3793 7.90011 17.1037C7.70432 16.828 7.42815 16.6196 7.10938 16.5069V15.8594H6.01562V16.5069C5.65103 16.6353 5.34366 16.8886 5.14793 17.2219C4.95221 17.5553 4.88077 17.9471 4.94627 18.3281C5.01177 18.709 5.20999 19.0545 5.5058 19.3033C5.80162 19.5521 6.17595 19.6882 6.5625 19.6875C6.70754 19.6875 6.84664 19.7451 6.9492 19.8477C7.05176 19.9502 7.10938 20.0893 7.10938 20.2344C7.10938 20.3794 7.05176 20.5185 6.9492 20.6211C6.84664 20.7236 6.70754 20.7812 6.5625 20.7812Z" fill="#3399FF"/>
<path d="M10.9375 20.7812C10.7925 20.7812 10.6534 20.7236 10.5508 20.6211C10.4482 20.5185 10.3906 20.3794 10.3906 20.2344H9.29688C9.29828 20.5725 9.40411 20.9019 9.59989 21.1776C9.79568 21.4532 10.0718 21.6617 10.3906 21.7744V22.4219H11.4844V21.7744C11.849 21.646 12.1563 21.3926 12.3521 21.0593C12.5478 20.726 12.6192 20.3341 12.5537 19.9532C12.4882 19.5722 12.29 19.2267 11.9942 18.9779C11.6984 18.7291 11.324 18.593 10.9375 18.5938C10.8293 18.5938 10.7236 18.5617 10.6337 18.5016C10.5437 18.4415 10.4736 18.3561 10.4323 18.2562C10.3909 18.1562 10.38 18.0463 10.4011 17.9402C10.4222 17.8341 10.4743 17.7367 10.5508 17.6602C10.6273 17.5837 10.7247 17.5316 10.8308 17.5105C10.9369 17.4894 11.0469 17.5002 11.1468 17.5416C11.2467 17.583 11.3321 17.6531 11.3922 17.743C11.4523 17.833 11.4844 17.9387 11.4844 18.0469H12.5781C12.5767 17.7088 12.4709 17.3793 12.2751 17.1037C12.0793 16.828 11.8032 16.6196 11.4844 16.5069V15.8594H10.3906V16.5069C10.026 16.6353 9.71865 16.8886 9.52293 17.2219C9.32721 17.5553 9.25577 17.9471 9.32127 18.3281C9.38677 18.709 9.58499 19.0545 9.8808 19.3033C10.1766 19.5521 10.551 19.6882 10.9375 19.6875C11.0825 19.6875 11.2216 19.7451 11.3242 19.8477C11.4268 19.9502 11.4844 20.0893 11.4844 20.2344C11.4844 20.3794 11.4268 20.5185 11.3242 20.6211C11.2216 20.7236 11.0825 20.7812 10.9375 20.7812Z" fill="#3399FF"/>
<path d="M15.3125 20.7812C15.1675 20.7812 15.0284 20.7236 14.9258 20.6211C14.8232 20.5185 14.7656 20.3794 14.7656 20.2344H13.6719C13.6733 20.5725 13.7791 20.9019 13.9749 21.1776C14.1707 21.4532 14.4468 21.6617 14.7656 21.7744V22.4219H15.8594V21.7744C16.224 21.646 16.5313 21.3926 16.7271 21.0593C16.9228 20.726 16.9942 20.3341 16.9287 19.9532C16.8632 19.5722 16.665 19.2267 16.3692 18.9779C16.0734 18.7291 15.699 18.593 15.3125 18.5938C15.2043 18.5938 15.0986 18.5617 15.0087 18.5016C14.9187 18.4415 14.8486 18.3561 14.8073 18.2562C14.7659 18.1562 14.755 18.0463 14.7761 17.9402C14.7972 17.8341 14.8493 17.7367 14.9258 17.6602C15.0023 17.5837 15.0997 17.5316 15.2058 17.5105C15.3119 17.4894 15.4219 17.5002 15.5218 17.5416C15.6217 17.583 15.7071 17.6531 15.7672 17.743C15.8273 17.833 15.8594 17.9387 15.8594 18.0469H16.9531C16.9517 17.7088 16.8459 17.3793 16.6501 17.1037C16.4543 16.828 16.1782 16.6196 15.8594 16.5069V15.8594H14.7656V16.5069C14.401 16.6353 14.0937 16.8886 13.8979 17.2219C13.7022 17.5553 13.6308 17.9471 13.6963 18.3281C13.7618 18.709 13.96 19.0545 14.2558 19.3033C14.5516 19.5521 14.926 19.6882 15.3125 19.6875C15.4575 19.6875 15.5966 19.7451 15.6992 19.8477C15.8018 19.9502 15.8594 20.0893 15.8594 20.2344C15.8594 20.3794 15.8018 20.5185 15.6992 20.6211C15.5966 20.7236 15.4575 20.7812 15.3125 20.7812Z" fill="#3399FF"/>
<path d="M18.5938 13.6719H3.28125C3.13621 13.6719 2.99711 13.7295 2.89455 13.8321C2.79199 13.9346 2.73438 14.0737 2.73438 14.2188V24.0625C2.73438 24.2075 2.79199 24.3466 2.89455 24.4492C2.99711 24.5518 3.13621 24.6094 3.28125 24.6094H18.5938C18.7388 24.6094 18.8779 24.5518 18.9804 24.4492C19.083 24.3466 19.1406 24.2075 19.1406 24.0625V14.2188C19.1406 14.0737 19.083 13.9346 18.9804 13.8321C18.8779 13.7295 18.7388 13.6719 18.5938 13.6719ZM18.0469 23.5156H3.82812V14.7656H18.0469V23.5156Z" fill="#3399FF"/>
<path d="M20.2344 23.5156H28.9844V24.6094H20.2344V23.5156Z" fill="#3399FF"/>
<path d="M20.2344 21.3281H24.0625V22.4219H20.2344V21.3281Z" fill="#3399FF"/>
<path d="M25.1562 21.3281H28.9844V22.4219H25.1562V21.3281Z" fill="#3399FF"/>
</svg>
