<svg width="90" height="90" viewBox="0 0 90 90" fill="none" xmlns="http://www.w3.org/2000/svg">
<path d="M79.582 20.943C79.582 38.2355 88.5395 50.1105 88.5395 58.443C88.5395 66.7755 83.7495 84.2755 45.417 84.2755C7.08453 84.2755 1.45703 60.733 1.45703 51.568C1.45703 8.65049 79.582 -9.68202 79.582 20.943Z" fill="white"/>
<path d="M79.04 11.251L82.5756 7.71544L84.3434 9.48321L80.8078 13.0187L79.04 11.251Z" fill="#A4AFC1"/>
<path d="M79.9199 19.2061L81.6877 17.4383L85.2232 20.9738L83.4554 22.7416L79.9199 19.2061Z" fill="#A4AFC1"/>
<path d="M69.7568 9.04102L71.5246 7.27325L75.0601 10.8088L73.2924 12.5765L69.7568 9.04102Z" fill="#A4AFC1"/>
<path d="M68.125 70.625H21.875C19.1125 70.625 16.875 68.3875 16.875 65.625V28.125H73.125V65.625C73.125 68.3875 70.8875 70.625 68.125 70.625Z" fill="#F3F3F1"/>
<path d="M73.125 28.125H16.875V24.375C16.875 21.6125 19.1125 19.375 21.875 19.375H68.125C70.8875 19.375 73.125 21.6125 73.125 24.375V28.125Z" fill="#FEB46D"/>
<path d="M23.125 65.625V28.125H16.875V65.625C16.875 68.3875 19.1125 70.625 21.875 70.625H28.125C25.3625 70.625 23.125 68.3875 23.125 65.625Z" fill="#D5DBE1"/>
<path d="M27.5 19.375H21.875C19.1125 19.375 16.875 21.6125 16.875 24.375V28.125H22.5V24.375C22.5 21.6125 24.7375 19.375 27.5 19.375Z" fill="#FF6600"/>
<path d="M24.0648 53.2725L21.2598 50.785L24.3748 47.2725V42.5H28.1248V47.98C28.1248 48.44 27.9573 48.88 27.6548 49.2225L24.0648 53.2725Z" fill="black"/>
<path d="M28.4346 53.2727L24.8446 49.2252C24.4521 48.7827 24.2921 48.1777 24.4121 47.6002C24.5346 47.0202 24.9221 46.5302 25.4621 46.2827L30.2896 44.0527L31.8621 47.4552L29.3246 48.6252L31.2396 50.7827L28.4346 53.2727Z" fill="black"/>
<path d="M20.6387 47.4395L22.2099 44.0345L28.7384 47.0471L27.1672 50.4521L20.6387 47.4395Z" fill="black"/>
<path d="M36.5648 53.2725L33.7598 50.785L36.8748 47.2725V42.5H40.6248V47.98C40.6248 48.44 40.4573 48.88 40.1548 49.2225L36.5648 53.2725Z" fill="black"/>
<path d="M40.9346 53.2727L37.3446 49.2252C36.9521 48.7827 36.7921 48.1777 36.9121 47.6002C37.0346 47.0202 37.4221 46.5302 37.9621 46.2827L42.7896 44.0527L44.3621 47.4552L41.8246 48.6252L43.7396 50.7827L40.9346 53.2727Z" fill="black"/>
<path d="M33.1338 47.4375L34.705 44.0325L41.2336 47.0451L39.6623 50.4501L33.1338 47.4375Z" fill="black"/>
<path d="M49.0648 53.2725L46.2598 50.785L49.3748 47.2725V42.5H53.1248V47.98C53.1248 48.44 52.9573 48.88 52.6548 49.2225L49.0648 53.2725Z" fill="black"/>
<path d="M53.4346 53.2727L49.8446 49.2252C49.4521 48.7827 49.2921 48.1777 49.4121 47.6002C49.5346 47.0202 49.9221 46.5302 50.4621 46.2827L55.2896 44.0527L56.8621 47.4552L54.3246 48.6252L56.2396 50.7827L53.4346 53.2727Z" fill="black"/>
<path d="M45.6309 47.4346L47.2021 44.0296L53.7306 47.0422L52.1594 50.4472L45.6309 47.4346Z" fill="black"/>
<path d="M61.5648 53.2725L58.7598 50.785L61.8748 47.2725V42.5H65.6248V47.98C65.6248 48.44 65.4573 48.88 65.1548 49.2225L61.5648 53.2725Z" fill="black"/>
<path d="M65.9346 53.2727L62.3446 49.2252C61.9521 48.7827 61.7921 48.1777 61.9121 47.6002C62.0346 47.0202 62.4221 46.5302 62.9621 46.2827L67.7896 44.0527L69.3621 47.4552L66.8246 48.6252L68.7396 50.7827L65.9346 53.2727Z" fill="black"/>
<path d="M58.126 47.4326L59.6972 44.0276L66.2258 47.0402L64.6545 50.4452L58.126 47.4326Z" fill="black"/>
<path d="M68.125 72.5H21.875C18.0825 72.5 15 69.4175 15 65.625V24.375C15 20.5825 18.0825 17.5 21.875 17.5H68.125C71.9175 17.5 75 20.5825 75 24.375V65.625C75 69.4175 71.9175 72.5 68.125 72.5ZM21.875 21.25C20.1525 21.25 18.75 22.6525 18.75 24.375V65.625C18.75 67.3475 20.1525 68.75 21.875 68.75H68.125C69.8475 68.75 71.25 67.3475 71.25 65.625V24.375C71.25 22.6525 69.8475 21.25 68.125 21.25H21.875Z" fill="black"/>
<path d="M16.875 26.25H73.125V30H16.875V26.25Z" fill="black"/>
<path d="M5 68.75H85V72.5H5V68.75Z" fill="black"/>
</svg>
