<svg width="30" height="30" viewBox="0 0 30 30" fill="none" xmlns="http://www.w3.org/2000/svg">
<path d="M10.3912 4.0162C12.2097 2.19747 14.6768 1.175 17.2499 1.175C19.8229 1.175 22.2898 2.19768 24.1085 4.01621C25.9272 5.83473 26.9497 8.30181 26.9497 10.8748C26.9497 13.4479 25.927 15.9148 24.1085 17.7335C22.29 19.5522 19.8229 20.5747 17.2499 20.5747C14.6768 20.5747 12.2099 19.552 10.3912 17.7335C8.57247 15.915 7.55 13.4479 7.55 10.8748C7.55 8.30182 8.57268 5.83494 10.3912 4.0162ZM11.381 16.7439C12.9372 18.3002 15.0487 19.175 17.2499 19.175C19.451 19.175 21.5624 18.3001 23.1187 16.7439C24.675 15.1878 25.5498 13.0763 25.5498 10.8751C25.5498 8.67393 24.6749 6.5625 23.1187 5.00624C21.5625 3.44997 19.451 2.57518 17.2499 2.57518C15.0487 2.57518 12.9373 3.45006 11.381 5.00623C9.82473 6.56241 8.94994 8.67393 8.94994 10.8751C8.94994 13.0763 9.82482 15.1877 11.381 16.7439Z" fill="#3399FF" stroke="#F5F8FB" stroke-width="0.1"/>
<path d="M22.4808 21.8L22.4809 21.8001H22.5001C23.6797 21.8001 24.8119 22.2696 25.6463 23.1039C26.4807 23.9381 26.95 25.0703 26.95 26.25V26.625C26.95 27.8396 25.9646 28.825 24.75 28.825H13.5C13.1139 28.825 12.8 28.511 12.8 28.125C12.8 27.7389 13.1139 27.425 13.5 27.425H24.75C24.9623 27.425 25.1661 27.3413 25.3162 27.1912C25.4663 27.0411 25.55 26.8374 25.55 26.625V26.25C25.55 25.441 25.2283 24.6654 24.6564 24.0936C24.0846 23.5217 23.309 23.2 22.5 23.2H14.625C14.2389 23.2 13.925 22.8861 13.925 22.5C13.925 22.1139 14.2389 21.8 14.625 21.8H22.4808Z" fill="#3399FF" stroke="#F5F8FB" stroke-width="0.1"/>
<path d="M5.46201 21.5693L5.46199 21.5693C4.48087 22.5432 4.1812 24.0119 4.70326 25.2927C5.2198 26.56 6.43954 27.3965 7.80494 27.4244L7.80501 27.4249L7.8488 27.4252C8.76095 27.4324 9.63976 27.0744 10.2879 26.4311C10.9361 25.7888 11.3 24.9135 11.3 24.0002C11.3 22.6171 10.4687 21.3696 9.19145 20.838C7.91536 20.3064 6.4443 20.5954 5.46201 21.5693ZM3.05 23.9999C3.05 22.7207 3.558 21.4936 4.4627 20.5877C5.36851 19.683 6.59563 19.175 7.87494 19.175C9.1542 19.175 10.3813 19.683 11.2872 20.5877C12.1919 21.4935 12.6999 22.7207 12.6999 23.9999C12.6999 25.2792 12.1919 26.5063 11.2872 27.4122C10.3814 28.3169 9.15419 28.8249 7.87494 28.8249C6.5957 28.8249 5.36858 28.3169 4.46272 27.4122C3.558 26.5064 3.05 25.2792 3.05 23.9999Z" fill="#3399FF" stroke="#F5F8FB" stroke-width="0.1"/>
<path d="M7.2933 25.3968C7.16611 25.5286 7.09134 25.7028 7.08514 25.887C7.07693 26.0956 7.15545 26.2983 7.30428 26.446L7.2933 25.3968ZM7.2933 25.3968H7.34529H7.34646V25.3479" fill="#3399FF" stroke="#F5F8FB" stroke-width="0.1"/>
</svg>
