<svg width="90" height="90" viewBox="0 0 90 90" fill="none" xmlns="http://www.w3.org/2000/svg">
<path d="M87.3204 51.6854C78.0879 37.0654 79.3229 22.2404 74.8729 15.1954C70.4229 8.15039 57.0279 -4.08961 24.6154 16.3779C-7.79712 36.8454 0.0153854 59.7529 4.91039 67.5029C27.8254 103.793 103.67 77.5804 87.3204 51.6854Z" fill="white"/>
<path d="M68.9247 55.3248L63.8997 48.2998L63.4497 47.0498C63.4247 46.4998 63.5747 45.9248 63.8997 45.4498L68.9247 38.4248C69.9747 36.9748 69.0997 34.8998 67.3247 34.5998L58.9997 33.2248L58.8247 33.1998C58.7247 33.1748 58.6497 33.1498 58.5497 33.1248C57.6497 32.8748 56.9497 32.0998 56.7997 31.1748L55.8747 25.5248L55.3997 22.6748C55.0997 20.8748 53.0247 20.0248 51.5747 21.0748L44.5497 26.0998C44.3497 26.2498 44.0997 26.3498 43.8747 26.4498C43.3747 26.5998 42.8747 26.5998 42.3747 26.4498C42.1497 26.3498 41.8997 26.2498 41.6997 26.0998L34.6747 21.0748C33.2247 20.0248 31.1497 20.8748 30.8497 22.6748L29.4497 31.1748C29.3747 31.5498 29.2247 31.9248 28.9997 32.2248C28.8747 32.4248 28.6747 32.6248 28.4747 32.7498C28.1747 32.9748 27.7997 33.1248 27.4247 33.1998L18.9247 34.5998C18.2997 34.6998 17.7997 35.0248 17.4247 35.4748C17.2497 35.6748 17.1247 35.9248 17.0247 36.1998C16.8747 36.5998 16.8247 36.9998 16.8997 37.3998C16.9497 37.6498 17.0247 37.8748 17.1247 38.0998C17.1747 38.1998 17.2497 38.3248 17.3247 38.4248L19.0997 40.8998L22.3497 45.4498C22.9497 46.2998 22.9497 47.4498 22.3497 48.2998L17.3247 55.3248C16.2747 56.7748 17.1247 58.8498 18.9247 59.1498L27.4247 60.5498H27.4497L28.6747 61.1498C29.0747 61.4998 29.3497 61.9998 29.4497 62.5498L30.8497 71.0748C31.1497 72.8748 33.1997 73.7248 34.6997 72.6748L41.6997 67.6498C41.7747 67.5998 41.8747 67.5498 41.9497 67.4998C42.7747 67.0498 43.7747 67.0998 44.5497 67.6498L49.1497 70.9498L49.1997 70.9748L51.5747 72.6748C51.6747 72.7498 51.7997 72.8248 51.8997 72.8748C52.1247 72.9748 52.3497 73.0498 52.5997 73.0998C52.9997 73.1748 53.3997 73.1248 53.7997 72.9748C54.0747 72.8748 54.3247 72.7498 54.5247 72.5748C54.9747 72.1998 55.2997 71.6998 55.3997 71.0748L56.7997 62.5748C56.9747 61.5248 57.7747 60.7248 58.8247 60.5498L67.3247 59.1498C69.1247 58.8498 69.9747 56.7748 68.9247 55.3248Z" fill="#FEB46D"/>
<path d="M36.4747 71.0749L35.0747 62.5499C34.9747 61.9999 34.6997 61.4998 34.2997 61.1498L33.0747 60.5498H33.0497L24.5497 59.1498C22.7497 58.8498 21.8997 56.7748 22.9497 55.3248L27.9747 48.2998C28.5747 47.4498 28.5747 46.2998 27.9747 45.4498L24.7247 40.8998L22.9497 38.4248C22.8747 38.3248 22.7997 38.1998 22.7497 38.0998C22.6497 37.8748 22.5747 37.6498 22.5247 37.3998C22.4497 36.9998 22.4997 36.5998 22.6497 36.1998C22.7497 35.9248 22.8747 35.6748 23.0497 35.4748C23.4247 35.0248 23.9247 34.6998 24.5497 34.5998L33.0497 33.1998C33.4247 33.1248 33.7997 32.9748 34.0997 32.7498C34.2997 32.6248 34.4997 32.4248 34.6247 32.2248C34.8497 31.9248 34.9997 31.5498 35.0747 31.1748L36.4747 22.6748C36.4897 22.5823 36.5272 22.5048 36.5522 22.4173L34.6747 21.0748C33.2247 20.0248 31.1497 20.8748 30.8497 22.6748L29.4497 31.1748C29.3747 31.5498 29.2247 31.9248 28.9997 32.2248C28.8747 32.4248 28.6747 32.6248 28.4747 32.7498C28.1747 32.9748 27.7997 33.1248 27.4247 33.1998L18.9247 34.5998C18.2997 34.6998 17.7997 35.0248 17.4247 35.4748C17.2497 35.6748 17.1247 35.9248 17.0247 36.1998C16.8747 36.5998 16.8247 36.9998 16.8997 37.3998C16.9497 37.6498 17.0247 37.8748 17.1247 38.0998C17.1747 38.1998 17.2497 38.3248 17.3247 38.4248L19.0997 40.8998L22.3497 45.4498C22.9497 46.2998 22.9497 47.4498 22.3497 48.2998L17.3247 55.3248C16.2747 56.7748 17.1247 58.8498 18.9247 59.1498L27.4247 60.5498H27.4497L28.6747 61.1498C29.0747 61.4998 29.3497 61.9999 29.4497 62.5499L30.8497 71.0749C31.1497 72.8749 33.1997 73.7248 34.6997 72.6749L36.5547 71.3424C36.5297 71.2524 36.4897 71.1698 36.4747 71.0749Z" fill="#FF6600"/>
<path d="M54.825 70.975L54.775 70.95L50.175 67.65C49.4 67.1 48.4 67.05 47.575 67.5C47.5 67.55 47.4 67.6 47.325 67.65L45.9375 68.645L49.15 70.95L49.2 70.975L51.575 72.675C51.675 72.75 51.8 72.825 51.9 72.875C52.125 72.975 52.35 73.05 52.6 73.1C53 73.175 53.4 73.125 53.8 72.975C54.075 72.875 54.325 72.75 54.525 72.575C54.91 72.255 55.17 71.825 55.31 71.3225L54.825 70.975Z" fill="#FF6600"/>
<path d="M75 18.75C72.9325 18.75 71.25 17.0675 71.25 15C71.25 12.9325 72.9325 11.25 75 11.25C77.0675 11.25 78.75 12.9325 78.75 15C78.75 17.0675 77.0675 18.75 75 18.75ZM75 13.75C74.31 13.75 73.75 14.3125 73.75 15C73.75 15.6875 74.31 16.25 75 16.25C75.69 16.25 76.25 15.6875 76.25 15C76.25 14.3125 75.69 13.75 75 13.75Z" fill="#A4AFC1"/>
<path d="M52.9726 75.0021C52.0876 75.0021 51.2151 74.7271 50.4676 74.1921L43.4601 69.1621C43.2776 69.0371 42.9726 69.0421 42.7576 69.1846L35.7826 74.1921C34.5326 75.0696 32.9726 75.2446 31.5901 74.6621C30.2151 74.0871 29.2476 72.8596 29.0051 71.3846L27.5901 62.8671C27.5501 62.6321 27.3651 62.4471 27.1276 62.4071L18.6076 60.9921C17.1351 60.7496 15.9101 59.7846 15.3326 58.4071C14.7526 57.0221 14.9251 55.4621 15.7951 54.2296L20.8326 47.2071C20.9576 47.0246 20.9576 46.7221 20.8101 46.5046L15.8051 39.5321C14.9276 38.3121 14.7526 36.7521 15.3276 35.3621C15.9026 33.9721 17.1301 32.9996 18.6101 32.7546L27.1276 31.3396C27.3626 31.2996 27.5476 31.1146 27.5876 30.8796L29.0026 22.3596C29.2451 20.8871 30.2101 19.6621 31.5876 19.0846C32.9701 18.5046 34.5326 18.6771 35.7651 19.5471L42.7851 24.5871C42.9851 24.7321 43.2576 24.7321 43.4576 24.5846L50.4601 19.5571C51.6826 18.6821 53.2426 18.5021 54.6301 19.0821C56.0201 19.6571 56.9926 20.8846 57.2376 22.3621L57.7126 25.2246L54.0151 25.8396L53.5401 22.9746C53.5001 22.7071 53.3101 22.5896 53.2001 22.5471C53.0901 22.5046 52.8726 22.4471 52.6526 22.6046L45.6476 27.6346C44.1376 28.7146 42.1151 28.7121 40.6076 27.6371L33.5976 22.6046C33.3751 22.4446 33.1526 22.4971 33.0426 22.5471C32.9126 22.5996 32.7501 22.7171 32.7076 22.9721L31.2901 31.4946C30.9876 33.3121 29.5651 34.7371 27.7476 35.0396L19.2251 36.4571C18.9551 36.5021 18.8401 36.6896 18.7951 36.7996C18.7476 36.9096 18.6951 37.1271 18.8526 37.3496L23.7826 44.2071C24.9251 45.8746 24.9251 47.8771 23.9051 49.3621L18.8526 56.4021C18.6951 56.6271 18.7476 56.8471 18.7926 56.9571C18.8476 57.0871 18.9651 57.2496 19.2201 57.2921L27.7451 58.7071C29.5626 59.0096 30.9851 60.4346 31.2876 62.2521L32.7026 70.7721C32.7451 71.0321 32.9101 71.1471 33.0376 71.2021C33.1451 71.2471 33.3651 71.3021 33.6051 71.1346L40.5976 66.1146C42.1201 65.0721 44.1201 65.0721 45.6076 66.0921L52.6476 71.1446C52.8651 71.3021 53.0826 71.2496 53.1951 71.2021C53.3026 71.1571 53.4951 71.0421 53.5376 70.7746L54.9551 62.2521C55.2576 60.4346 56.6801 59.0096 58.4976 58.7071L67.0201 57.2921C67.2776 57.2496 67.3951 57.0871 67.4501 56.9571C67.4951 56.8471 67.5501 56.6271 67.3826 56.3871L62.3626 49.3946L65.4101 47.2071L70.4401 54.2146C71.3176 55.4621 71.4901 57.0221 70.9101 58.4071C70.3326 59.7846 69.1076 60.7521 67.6326 60.9921L59.1151 62.4071C58.8801 62.4471 58.6951 62.6321 58.6551 62.8671L57.2401 71.3871C56.9976 72.8646 56.0226 74.0896 54.6351 74.6671C54.0976 74.8921 53.5326 75.0021 52.9726 75.0021Z" fill="black"/>
<path d="M45.6248 53.7498C45.1448 53.7498 44.6648 53.5673 44.2998 53.1998L33.0498 41.9498L35.7023 39.2973L45.6273 49.2223L71.7998 23.0498L74.4523 25.7023L46.9523 53.2023C46.5848 53.5673 46.1048 53.7498 45.6248 53.7498Z" fill="black"/>
</svg>
