<svg width="90" height="90" viewBox="0 0 90 90" fill="none" xmlns="http://www.w3.org/2000/svg">
<path d="M20.943 79.582C38.2355 79.582 50.1105 88.5395 58.443 88.5395C66.7755 88.5395 84.2755 83.7495 84.2755 45.417C84.2755 7.08453 60.733 1.45703 51.568 1.45703C8.65049 1.45703 -9.68202 79.582 20.943 79.582Z" fill="white"/>
<path d="M16.875 15.625H21.875V18.125H16.875V15.625Z" fill="#A4AFC1"/>
<path d="M25.625 6.875H28.125V11.875H25.625V6.875Z" fill="#A4AFC1"/>
<path d="M46.875 21.875C46.875 19.125 49.125 16.875 51.875 16.875H68.125C70.875 16.875 73.125 19.125 73.125 21.875V55.625C73.125 58.375 70.875 60.625 68.125 60.625H51.875C49.1125 60.625 46.875 58.3875 46.875 55.625V21.875Z" fill="#FEB46D"/>
<path d="M24.375 56.875H45.625C49.7675 56.875 53.125 60.2325 53.125 64.375V73.125H16.875V64.375C16.875 60.2325 20.2325 56.875 24.375 56.875Z" fill="#F3F3F1"/>
<path d="M35 48.125C40.1777 48.125 44.375 43.9277 44.375 38.75C44.375 33.5723 40.1777 29.375 35 29.375C29.8223 29.375 25.625 33.5723 25.625 38.75C25.625 43.9277 29.8223 48.125 35 48.125Z" fill="#F3F3F1"/>
<path d="M68.125 16.875C66.745 16.875 65.625 17.995 65.625 19.375C65.625 20.755 64.505 21.875 63.125 21.875H56.875C55.495 21.875 54.375 20.755 54.375 19.375C54.375 17.995 53.255 16.875 51.875 16.875H68.125Z" fill="#F3F3F1"/>
<path d="M44.3504 38.25C40.1004 38.9 37.5004 34.375 37.5004 34.375C33.1004 38.475 27.5254 38.375 25.6504 38.2C25.9254 33.275 30.0004 29.375 35.0004 29.375C40.0004 29.375 44.1004 33.3 44.3504 38.25Z" fill="#FEB46D"/>
<path d="M30 56.875H24.375C20.2325 56.875 16.875 60.2325 16.875 64.375V73.125H22.5V64.375C22.5 60.2325 25.8575 56.875 30 56.875Z" fill="#D5DBE1"/>
<path d="M31.25 38.75C31.25 34.56 34.0175 31.0525 37.8125 29.8525C36.92 29.57 35.9875 29.375 35 29.375C29.8225 29.375 25.625 33.5725 25.625 38.75C25.625 43.9275 29.8225 48.125 35 48.125C35.9875 48.125 36.92 47.93 37.8125 47.6475C34.0175 46.4475 31.25 42.94 31.25 38.75Z" fill="#D5DBE1"/>
<path d="M60 19.375C60 17.995 58.88 16.875 57.5 16.875H51.875C53.255 16.875 54.375 17.995 54.375 19.375C54.375 20.755 55.495 21.875 56.875 21.875H62.5C61.12 21.875 60 20.755 60 19.375Z" fill="#D5DBE1"/>
<path d="M37.8079 29.8475C36.9154 29.565 35.9829 29.375 35.0004 29.375C30.0004 29.375 25.9254 33.275 25.6504 38.2C26.6879 38.2975 28.8729 38.3425 31.3529 37.6925C31.7679 33.9725 34.3404 30.945 37.8079 29.8475Z" fill="#FF6600"/>
<path d="M52.5 55.625V21.875C52.5 19.125 54.75 16.875 57.5 16.875H51.875C49.125 16.875 46.875 19.125 46.875 21.875V55.625C46.875 58.3875 49.1125 60.625 51.875 60.625H57.5C54.7375 60.625 52.5 58.3875 52.5 55.625Z" fill="#FF6600"/>
<path d="M43.4946 40.1902C40.5921 40.1902 38.4421 38.4552 37.1771 37.0527C32.4596 40.4002 27.1221 40.2252 25.4746 40.0677L25.8246 36.3352C27.2796 36.4727 32.3296 36.6352 36.2221 33.0052C36.6396 32.6152 37.2046 32.4352 37.7796 32.5227C38.3446 32.6077 38.8396 32.9452 39.1271 33.4427C39.1421 33.4677 41.1571 36.8202 44.0696 36.3977L44.6371 40.1027C44.2421 40.1627 43.8621 40.1902 43.4946 40.1902Z" fill="black"/>
<path d="M35 50C28.7975 50 23.75 44.9525 23.75 38.75C23.75 32.5475 28.7975 27.5 35 27.5C41.2025 27.5 46.25 32.5475 46.25 38.75C46.25 44.9525 41.2025 50 35 50ZM35 31.25C30.865 31.25 27.5 34.615 27.5 38.75C27.5 42.885 30.865 46.25 35 46.25C39.135 46.25 42.5 42.885 42.5 38.75C42.5 34.615 39.135 31.25 35 31.25Z" fill="black"/>
<path d="M53.125 75H16.875C15.84 75 15 74.16 15 73.125V64.375C15 59.205 19.205 55 24.375 55H45.625C50.795 55 55 59.205 55 64.375V73.125C55 74.16 54.16 75 53.125 75ZM18.75 71.25H51.25V64.375C51.25 61.2725 48.7275 58.75 45.625 58.75H24.375C21.2725 58.75 18.75 61.2725 18.75 64.375V71.25Z" fill="black"/>
<path d="M68.125 62.5H60V58.75H68.125C69.8475 58.75 71.25 57.3475 71.25 55.625V21.875C71.25 20.1525 69.8475 18.75 68.125 18.75H51.875C50.1525 18.75 48.75 20.1525 48.75 21.875V27.7H45V21.875C45 18.0825 48.0825 15 51.875 15H68.125C71.9175 15 75 18.0825 75 21.875V55.625C75 59.4175 71.9175 62.5 68.125 62.5Z" fill="black"/>
<path d="M63.125 23.75H56.875C54.4625 23.75 52.5 21.7875 52.5 19.375C52.5 19.03 52.22 18.75 51.875 18.75V15C54.2875 15 56.25 16.9625 56.25 19.375C56.25 19.72 56.53 20 56.875 20H63.125C63.47 20 63.75 19.72 63.75 19.375C63.75 16.9625 65.7125 15 68.125 15V18.75C67.78 18.75 67.5 19.03 67.5 19.375C67.5 21.7875 65.5375 23.75 63.125 23.75Z" fill="black"/>
<path d="M5 71.25H85V75H5V71.25Z" fill="black"/>
</svg>
