<svg width="27" height="30" viewBox="0 0 27 30" fill="none" xmlns="http://www.w3.org/2000/svg">
<path d="M13.5895 0.604985C13.3645 0.6085 13.157 0.722759 13.034 0.907331C11.8017 2.69505 7.89587 4.2138 3.42737 4.24012H3.40101C3.37112 4.23485 3.343 4.23309 3.31312 4.23133C2.99144 4.22957 2.71196 4.45457 2.64689 4.76746C2.64689 4.76746 1.97189 7.80496 1.63264 11.4788C1.29514 15.1526 1.22483 19.4541 2.71016 22.2315C3.82288 24.3128 6.4543 25.9844 8.80451 27.2571C10.9772 28.4348 12.7701 29.1467 13.0531 29.2575V29.2593C13.1797 29.3577 13.3397 29.4069 13.5014 29.3999C13.6649 29.4069 13.8248 29.3559 13.9531 29.2557H13.9567C14.2502 29.1397 16.0344 28.4331 18.2 27.2606C20.5502 25.988 23.1779 24.3145 24.2908 22.235C25.7761 19.4577 25.7058 15.1547 25.3683 11.4823C25.0308 7.80842 24.354 4.77097 24.354 4.77097V4.76921C24.2872 4.44929 23.999 4.22255 23.6703 4.23308C23.6509 4.23132 23.6333 4.23132 23.614 4.23308C19.3214 4.2155 15.5491 2.7776 14.2324 1.04087C14.134 0.773685 13.8756 0.596146 13.5873 0.599661L13.5895 0.604985ZM13.5771 2.35575C15.465 4.34561 19.086 5.46534 23.1293 5.56376C23.2646 6.20361 23.7358 8.49402 24.0223 11.6037C24.3527 15.1826 24.2824 19.3837 23.0959 21.604C22.282 23.1263 19.8158 24.8542 17.5519 26.0811C15.5023 27.1921 13.8359 27.8583 13.5019 27.9901C13.1679 27.8583 11.5033 27.1904 9.45191 26.0811C7.18787 24.8542 4.72151 23.128 3.90791 21.604C2.72139 19.3839 2.65282 15.1825 2.98154 11.6037C3.26806 8.49587 3.7374 6.20726 3.87452 5.56556C7.98779 5.46712 11.6649 4.34916 13.5774 2.3558L13.5771 2.35575Z" fill="#3399FF"/>
<path d="M13.4944 7.80472C12.4871 7.81351 11.5027 8.38481 10.9139 9.4852C10.3795 10.4819 10.086 11.9092 9.99277 13.878C9.42851 14.0414 9.00488 14.5635 9.00488 15.1752V20.8389C9.00488 21.5772 9.61837 22.1924 10.3566 22.1924H16.6391C17.3774 22.1924 17.9926 21.5772 17.9926 20.8389V15.1752C17.9926 14.5881 17.6006 14.0836 17.0697 13.8991C16.9871 11.9989 16.6795 10.5663 16.1311 9.55198C15.5264 8.43049 14.5402 7.79946 13.4944 7.80472ZM13.5014 9.15472C14.0604 9.15472 14.5034 9.37796 14.9428 10.1936C15.3313 10.9126 15.623 12.1254 15.7127 13.8217H11.3498C11.4482 12.0376 11.733 10.8141 12.1039 10.1233C12.5223 9.34277 12.9178 9.15823 13.5014 9.15472ZM10.3566 15.1717H16.6391C16.6514 15.1717 16.6426 15.1611 16.6426 15.1717V20.8354C16.6426 20.8494 16.6532 20.8354 16.6391 20.8354H10.3566C10.3443 20.8354 10.3549 20.8459 10.3549 20.8354V15.1717C10.3549 15.1576 10.3426 15.1717 10.3566 15.1717Z" fill="#3399FF"/>
</svg>
