<svg width="30" height="30" viewBox="0 0 30 30" fill="none" xmlns="http://www.w3.org/2000/svg">
<g clip-path="url(#clip0_775_39009)">
<path d="M21.25 18.75C16.425 18.75 12.5 14.8238 12.5 10C12.5 5.17625 16.425 1.25 21.25 1.25C26.075 1.25 30 5.17625 30 10C30 14.8238 26.075 18.75 21.25 18.75ZM21.25 2.5C17.1138 2.5 13.75 5.86375 13.75 10C13.75 14.1363 17.1138 17.5 21.25 17.5C25.3863 17.5 28.75 14.1363 28.75 10C28.75 5.86375 25.3863 2.5 21.25 2.5Z" fill="#3399FF"/>
<path d="M21.875 14.375H18.75C18.405 14.375 18.125 14.095 18.125 13.75C18.125 13.405 18.405 13.125 18.75 13.125H21.875C22.5638 13.125 23.125 12.565 23.125 11.875C23.125 11.185 22.5638 10.625 21.875 10.625H20.625C19.2463 10.625 18.125 9.50375 18.125 8.125C18.125 6.74625 19.2463 5.625 20.625 5.625H23.75C24.095 5.625 24.375 5.905 24.375 6.25C24.375 6.595 24.095 6.875 23.75 6.875H20.625C19.9363 6.875 19.375 7.435 19.375 8.125C19.375 8.815 19.9363 9.375 20.625 9.375H21.875C23.2538 9.375 24.375 10.4962 24.375 11.875C24.375 13.2537 23.2538 14.375 21.875 14.375Z" fill="#3399FF"/>
<path d="M21.25 16.25C20.905 16.25 20.625 15.97 20.625 15.625V13.75C20.625 13.405 20.905 13.125 21.25 13.125C21.595 13.125 21.875 13.405 21.875 13.75V15.625C21.875 15.97 21.595 16.25 21.25 16.25Z" fill="#3399FF"/>
<path d="M21.25 6.875C20.905 6.875 20.625 6.595 20.625 6.25V4.375C20.625 4.03 20.905 3.75 21.25 3.75C21.595 3.75 21.875 4.03 21.875 4.375V6.25C21.875 6.595 21.595 6.875 21.25 6.875Z" fill="#3399FF"/>
<path d="M29.375 28.75H0.625C0.28 28.75 0 28.47 0 28.125C0 27.78 0.28 27.5 0.625 27.5H29.375C29.72 27.5 30 27.78 30 28.125C30 28.47 29.72 28.75 29.375 28.75Z" fill="#3399FF"/>
<path d="M26.875 28.75C26.53 28.75 26.25 28.47 26.25 28.125V20.625C26.25 20.28 26.53 20 26.875 20C27.22 20 27.5 20.28 27.5 20.625V28.125C27.5 28.47 27.22 28.75 26.875 28.75Z" fill="#3399FF"/>
<path d="M3.125 28.75C2.78 28.75 2.5 28.47 2.5 28.125V13.75C2.5 12.3713 3.62125 11.25 5 11.25H9.375C9.72 11.25 10 11.53 10 11.875C10 12.22 9.72 12.5 9.375 12.5H5C4.31125 12.5 3.75 13.06 3.75 13.75V28.125C3.75 28.47 3.47 28.75 3.125 28.75Z" fill="#3399FF"/>
</g>
<defs>
<clipPath id="clip0_775_39009">
<rect width="30" height="30" fill="white"/>
</clipPath>
</defs>
</svg>
