<svg width="135" height="40" viewBox="0 0 135 40" fill="none" xmlns="http://www.w3.org/2000/svg">
<path d="M130.197 40H4.729C2.122 40 0 37.872 0 35.267V4.726C0 2.12 2.122 0 4.729 0H130.197C132.803 0 135 2.12 135 4.726V35.267C135 37.872 132.803 40 130.197 40Z" fill="#A6A6A6"/>
<path d="M134.033 35.2677C134.033 37.3837 132.319 39.0976 130.199 39.0976H4.72963C2.61063 39.0976 0.890625 37.3837 0.890625 35.2677V4.72465C0.890625 2.60965 2.61063 0.889648 4.72963 0.889648H130.198C132.319 0.889648 134.032 2.60965 134.032 4.72465L134.033 35.2677Z" fill="black"/>
<path d="M30.1271 19.7842C30.0981 16.5612 32.7661 14.9932 32.8881 14.9202C31.3771 12.7172 29.0351 12.4162 28.2121 12.3922C26.2451 12.1852 24.3371 13.5692 23.3351 13.5692C22.3131 13.5692 20.7701 12.4122 19.1071 12.4462C16.9671 12.4792 14.9651 13.7182 13.8671 15.6422C11.6011 19.5652 13.2911 25.3302 15.4621 28.5012C16.5481 30.0542 17.8171 31.7882 19.4781 31.7272C21.1031 31.6602 21.7101 30.6912 23.6711 30.6912C25.6141 30.6912 26.1841 31.7272 27.8781 31.6882C29.6221 31.6602 30.7201 30.1282 31.7681 28.5612C33.0231 26.7812 33.5271 25.0282 33.5471 24.9382C33.5061 24.9242 30.1601 23.6472 30.1271 19.7842Z" fill="white"/>
<path d="M26.9271 10.3058C27.8011 9.2128 28.3991 7.7258 28.2331 6.2168C26.9681 6.2728 25.3861 7.0918 24.4751 8.1608C23.6691 9.1028 22.9491 10.6468 23.1351 12.0988C24.5561 12.2048 26.0151 11.3818 26.9271 10.3058Z" fill="white"/>
<path d="M53.6452 31.5043H51.3742L50.1302 27.5953H45.8062L44.6212 31.5043H42.4102L46.6942 18.1963H49.3402L53.6452 31.5043ZM49.7552 25.9553L48.6302 22.4803C48.5112 22.1253 48.2882 21.2893 47.9592 19.9733H47.9192C47.7882 20.5393 47.5772 21.3753 47.2872 22.4803L46.1822 25.9553H49.7552Z" fill="white"/>
<path d="M64.6629 26.5879C64.6629 28.2199 64.2219 29.5099 63.3399 30.4569C62.5499 31.2999 61.5689 31.7209 60.3979 31.7209C59.1339 31.7209 58.2259 31.2669 57.6729 30.3589H57.6329V35.4139H55.5009V25.0669C55.5009 24.0409 55.4739 22.9879 55.4219 21.9079H57.2969L57.4159 23.4289H57.4559C58.1669 22.2829 59.2459 21.7109 60.6939 21.7109C61.8259 21.7109 62.7709 22.1579 63.5269 23.0529C64.2849 23.9489 64.6629 25.1269 64.6629 26.5879ZM62.4909 26.6659C62.4909 25.7319 62.2809 24.9619 61.8589 24.3559C61.3979 23.7239 60.7789 23.4079 60.0029 23.4079C59.4769 23.4079 58.9989 23.5839 58.5719 23.9309C58.1439 24.2809 57.8639 24.7379 57.7329 25.3039C57.6669 25.5679 57.6339 25.7839 57.6339 25.9539V27.5539C57.6339 28.2519 57.8479 28.8409 58.2759 29.3219C58.7039 29.8029 59.2599 30.0429 59.9439 30.0429C60.7469 30.0429 61.3719 29.7329 61.8189 29.1149C62.2669 28.4959 62.4909 27.6799 62.4909 26.6659Z" fill="white"/>
<path d="M75.699 26.5879C75.699 28.2199 75.258 29.5099 74.375 30.4569C73.586 31.2999 72.605 31.7209 71.434 31.7209C70.17 31.7209 69.262 31.2669 68.71 30.3589H68.67V35.4139H66.538V25.0669C66.538 24.0409 66.511 22.9879 66.459 21.9079H68.334L68.453 23.4289H68.493C69.203 22.2829 70.282 21.7109 71.731 21.7109C72.862 21.7109 73.807 22.1579 74.565 23.0529C75.32 23.9489 75.699 25.1269 75.699 26.5879ZM73.527 26.6659C73.527 25.7319 73.316 24.9619 72.894 24.3559C72.433 23.7239 71.816 23.4079 71.039 23.4079C70.512 23.4079 70.035 23.5839 69.607 23.9309C69.179 24.2809 68.9 24.7379 68.769 25.3039C68.704 25.5679 68.67 25.7839 68.67 25.9539V27.5539C68.67 28.2519 68.884 28.8409 69.31 29.3219C69.738 29.8019 70.294 30.0429 70.98 30.0429C71.783 30.0429 72.408 29.7329 72.855 29.1149C73.303 28.4959 73.527 27.6799 73.527 26.6659Z" fill="white"/>
<path d="M88.0392 27.772C88.0392 28.904 87.6462 29.825 86.8572 30.536C85.9902 31.313 84.7832 31.701 83.2322 31.701C81.8002 31.701 80.6522 31.425 79.7832 30.872L80.2772 29.095C81.2132 29.661 82.2402 29.945 83.3592 29.945C84.1622 29.945 84.7872 29.763 85.2362 29.401C85.6832 29.039 85.9062 28.553 85.9062 27.947C85.9062 27.407 85.7222 26.952 85.3532 26.583C84.9862 26.214 84.3732 25.871 83.5172 25.554C81.1872 24.685 80.0232 23.412 80.0232 21.738C80.0232 20.644 80.4312 19.747 81.2482 19.049C82.0622 18.35 83.1482 18.001 84.5062 18.001C85.7172 18.001 86.7232 18.212 87.5262 18.633L86.9932 20.371C86.2432 19.963 85.3952 19.759 84.4462 19.759C83.6962 19.759 83.1102 19.944 82.6902 20.312C82.3352 20.641 82.1572 21.042 82.1572 21.517C82.1572 22.043 82.3602 22.478 82.7682 22.82C83.1232 23.136 83.7682 23.478 84.7042 23.847C85.8492 24.308 86.6902 24.847 87.2312 25.465C87.7702 26.081 88.0392 26.852 88.0392 27.772Z" fill="white"/>
<path d="M95.0881 23.5086H92.7381V28.1676C92.7381 29.3526 93.1521 29.9446 93.9821 29.9446C94.3631 29.9446 94.6791 29.9116 94.9291 29.8456L94.9881 31.4646C94.5681 31.6216 94.0151 31.7006 93.3301 31.7006C92.4881 31.7006 91.8301 31.4436 91.3551 30.9306C90.8821 30.4166 90.6441 29.5546 90.6441 28.3436V23.5066H89.2441V21.9066H90.6441V20.1496L92.7381 19.5176V21.9066H95.0881V23.5086Z" fill="white"/>
<path d="M105.692 26.6269C105.692 28.1019 105.27 29.3129 104.428 30.2599C103.545 31.2349 102.373 31.7209 100.912 31.7209C99.504 31.7209 98.383 31.2539 97.547 30.3199C96.711 29.3859 96.293 28.2069 96.293 26.7859C96.293 25.2989 96.723 24.0809 97.586 23.1339C98.447 22.1859 99.609 21.7119 101.07 21.7119C102.478 21.7119 103.611 22.1789 104.466 23.1139C105.284 24.0209 105.692 25.1919 105.692 26.6269ZM103.48 26.6959C103.48 25.8109 103.291 25.0519 102.908 24.4189C102.461 23.6529 101.822 23.2709 100.994 23.2709C100.137 23.2709 99.486 23.6539 99.039 24.4189C98.656 25.0529 98.467 25.8239 98.467 26.7359C98.467 27.6209 98.656 28.3799 99.039 29.0119C99.5 29.7779 100.144 30.1599 100.975 30.1599C101.789 30.1599 102.428 29.7699 102.889 28.9919C103.282 28.3469 103.48 27.5799 103.48 26.6959Z" fill="white"/>
<path d="M112.62 23.7829C112.409 23.7439 112.184 23.7239 111.948 23.7239C111.198 23.7239 110.618 24.0069 110.21 24.5739C109.855 25.0739 109.677 25.7059 109.677 26.4689V31.5039H107.546L107.566 24.9299C107.566 23.8239 107.539 22.8169 107.486 21.9089H109.343L109.421 23.7449H109.48C109.705 23.1139 110.06 22.6059 110.546 22.2249C111.021 21.8819 111.534 21.7109 112.087 21.7109C112.284 21.7109 112.462 21.7249 112.62 21.7499V23.7829Z" fill="white"/>
<path d="M122.157 26.2524C122.157 26.6344 122.132 26.9564 122.079 27.2194H115.683C115.708 28.1674 116.017 28.8924 116.611 29.3924C117.15 29.8394 117.847 30.0634 118.703 30.0634C119.65 30.0634 120.514 29.9124 121.291 29.6094L121.625 31.0894C120.717 31.4854 119.645 31.6824 118.408 31.6824C116.92 31.6824 115.752 31.2444 114.902 30.3694C114.054 29.4944 113.629 28.3194 113.629 26.8454C113.629 25.3984 114.024 24.1934 114.815 23.2324C115.643 22.2064 116.762 21.6934 118.17 21.6934C119.553 21.6934 120.6 22.2064 121.311 23.2324C121.874 24.0474 122.157 25.0554 122.157 26.2524ZM120.124 25.6994C120.138 25.0674 119.999 24.5214 119.71 24.0604C119.341 23.4674 118.774 23.1714 118.011 23.1714C117.314 23.1714 116.747 23.4604 116.314 24.0404C115.959 24.5014 115.748 25.0544 115.683 25.6984H120.124V25.6994Z" fill="white"/>
<path d="M49.0498 10.0087C49.0498 11.1857 48.6968 12.0717 47.9918 12.6667C47.3388 13.2157 46.4108 13.4907 45.2088 13.4907C44.6128 13.4907 44.1028 13.4647 43.6758 13.4127V6.9817C44.2328 6.8917 44.8328 6.8457 45.4808 6.8457C46.6258 6.8457 47.4888 7.0947 48.0708 7.5927C48.7228 8.1557 49.0498 8.9607 49.0498 10.0087ZM47.9448 10.0377C47.9448 9.2747 47.7428 8.6897 47.3388 8.2817C46.9348 7.8747 46.3448 7.6707 45.5678 7.6707C45.2378 7.6707 44.9568 7.6927 44.7238 7.7387V12.6277C44.8528 12.6477 45.0888 12.6567 45.4318 12.6567C46.2338 12.6567 46.8528 12.4337 47.2888 11.9877C47.7248 11.5417 47.9448 10.8917 47.9448 10.0377Z" fill="white"/>
<path d="M54.908 11.037C54.908 11.762 54.701 12.356 54.287 12.822C53.853 13.301 53.278 13.54 52.56 13.54C51.868 13.54 51.317 13.311 50.906 12.851C50.496 12.392 50.291 11.813 50.291 11.115C50.291 10.385 50.502 9.78605 50.926 9.32105C51.35 8.85605 51.92 8.62305 52.638 8.62305C53.33 8.62305 53.886 8.85205 54.307 9.31105C54.707 9.75705 54.908 10.333 54.908 11.037ZM53.821 11.071C53.821 10.636 53.727 10.263 53.54 9.95205C53.32 9.57605 53.007 9.38805 52.6 9.38805C52.179 9.38805 51.859 9.57605 51.639 9.95205C51.451 10.263 51.358 10.642 51.358 11.09C51.358 11.525 51.452 11.898 51.639 12.209C51.866 12.585 52.182 12.773 52.59 12.773C52.99 12.773 53.304 12.582 53.53 12.199C53.724 11.882 53.821 11.506 53.821 11.071Z" fill="white"/>
<path d="M62.7655 8.71875L61.2905 13.4327H60.3305L59.7195 11.3857C59.5645 10.8747 59.4385 10.3668 59.3405 9.86275H59.3215C59.2305 10.3808 59.1045 10.8877 58.9425 11.3857L58.2935 13.4327H57.3225L55.9355 8.71875H57.0125L57.5455 10.9598C57.6745 11.4898 57.7805 11.9947 57.8655 12.4727H57.8845C57.9625 12.0787 58.0915 11.5768 58.2735 10.9698L58.9425 8.71975H59.7965L60.4375 10.9218C60.5925 11.4588 60.7185 11.9758 60.8155 12.4738H60.8445C60.9155 11.9887 61.0225 11.4718 61.1645 10.9218L61.7365 8.71975H62.7655V8.71875Z" fill="white"/>
<path d="M68.1984 13.4321H67.1504V10.7321C67.1504 9.90014 66.8344 9.48414 66.2004 9.48414C65.8894 9.48414 65.6384 9.59814 65.4434 9.82714C65.2504 10.0561 65.1524 10.3261 65.1524 10.6351V13.4311H64.1044V10.0651C64.1044 9.65114 64.0914 9.20214 64.0664 8.71614H64.9874L65.0364 9.45314H65.0654C65.1874 9.22414 65.3694 9.03514 65.6084 8.88414C65.8924 8.70814 66.2104 8.61914 66.5584 8.61914C66.9984 8.61914 67.3644 8.76114 67.6554 9.04614C68.0174 9.39514 68.1984 9.91614 68.1984 10.6081V13.4321Z" fill="white"/>
<path d="M71.088 13.4327H70.041V6.55566H71.088V13.4327Z" fill="white"/>
<path d="M77.2576 11.037C77.2576 11.762 77.0506 12.356 76.6366 12.822C76.2026 13.301 75.6266 13.54 74.9096 13.54C74.2166 13.54 73.6656 13.311 73.2556 12.851C72.8456 12.392 72.6406 11.813 72.6406 11.115C72.6406 10.385 72.8516 9.78605 73.2756 9.32105C73.6996 8.85605 74.2696 8.62305 74.9866 8.62305C75.6796 8.62305 76.2346 8.85205 76.6566 9.31105C77.0566 9.75705 77.2576 10.333 77.2576 11.037ZM76.1696 11.071C76.1696 10.636 76.0756 10.263 75.8886 9.95205C75.6696 9.57605 75.3556 9.38805 74.9496 9.38805C74.5276 9.38805 74.2076 9.57605 73.9886 9.95205C73.8006 10.263 73.7076 10.642 73.7076 11.09C73.7076 11.525 73.8016 11.898 73.9886 12.209C74.2156 12.585 74.5316 12.773 74.9396 12.773C75.3396 12.773 75.6526 12.582 75.8786 12.199C76.0736 11.882 76.1696 11.506 76.1696 11.071Z" fill="white"/>
<path d="M82.329 13.433H81.388L81.31 12.89H81.281C80.959 13.323 80.5 13.54 79.904 13.54C79.459 13.54 79.099 13.397 78.828 13.113C78.582 12.855 78.459 12.534 78.459 12.153C78.459 11.577 78.699 11.138 79.182 10.834C79.664 10.53 80.342 10.381 81.215 10.388V10.3C81.215 9.67905 80.889 9.36905 80.236 9.36905C79.771 9.36905 79.361 9.48605 79.007 9.71805L78.794 9.03005C79.232 8.75905 79.773 8.62305 80.411 8.62305C81.643 8.62305 82.261 9.27305 82.261 10.573V12.309C82.261 12.78 82.284 13.155 82.329 13.433ZM81.241 11.813V11.086C80.085 11.066 79.507 11.383 79.507 12.036C79.507 12.282 79.573 12.466 79.708 12.589C79.843 12.712 80.015 12.773 80.22 12.773C80.45 12.773 80.665 12.7 80.861 12.555C81.058 12.409 81.179 12.224 81.224 11.997C81.235 11.946 81.241 11.884 81.241 11.813Z" fill="white"/>
<path d="M88.2852 13.4327H87.3552L87.3062 12.6757H87.2772C86.9802 13.2517 86.4742 13.5397 85.7632 13.5397C85.1952 13.5397 84.7222 13.3167 84.3472 12.8707C83.9722 12.4247 83.7852 11.8457 83.7852 11.1347C83.7852 10.3717 83.9882 9.75366 84.3962 9.28166C84.7912 8.84166 85.2752 8.62166 85.8512 8.62166C86.4842 8.62166 86.9272 8.83466 87.1792 9.26166H87.1992V6.55566H88.2482V12.1627C88.2482 12.6217 88.2602 13.0447 88.2852 13.4327ZM87.1992 11.4447V10.6587C87.1992 10.5227 87.1892 10.4127 87.1702 10.3287C87.1112 10.0767 86.9842 9.86466 86.7912 9.69366C86.5962 9.52266 86.3611 9.43666 86.0901 9.43666C85.6991 9.43666 85.3932 9.59166 85.1682 9.90266C84.9452 10.2137 84.8322 10.6107 84.8322 11.0957C84.8322 11.5617 84.9392 11.9397 85.1542 12.2307C85.3812 12.5407 85.6872 12.6957 86.0702 12.6957C86.4142 12.6957 86.6892 12.5667 86.8982 12.3077C87.1002 12.0687 87.1992 11.7807 87.1992 11.4447Z" fill="white"/>
<path d="M97.2479 11.037C97.2479 11.762 97.0409 12.356 96.6269 12.822C96.1929 13.301 95.6189 13.54 94.8999 13.54C94.2089 13.54 93.6579 13.311 93.2459 12.851C92.8359 12.392 92.6309 11.813 92.6309 11.115C92.6309 10.385 92.8419 9.78605 93.2659 9.32105C93.6899 8.85605 94.2599 8.62305 94.9789 8.62305C95.6699 8.62305 96.2269 8.85205 96.6469 9.31105C97.0469 9.75705 97.2479 10.333 97.2479 11.037ZM96.1619 11.071C96.1619 10.636 96.0679 10.263 95.8809 9.95205C95.6599 9.57605 95.3479 9.38805 94.9399 9.38805C94.5199 9.38805 94.1999 9.57605 93.9789 9.95205C93.7909 10.263 93.6979 10.642 93.6979 11.09C93.6979 11.525 93.7919 11.898 93.9789 12.209C94.2059 12.585 94.5219 12.773 94.9299 12.773C95.3299 12.773 95.6449 12.582 95.8709 12.199C96.0639 11.882 96.1619 11.506 96.1619 11.071Z" fill="white"/>
<path d="M102.883 13.4321H101.836V10.7321C101.836 9.90014 101.52 9.48414 100.885 9.48414C100.574 9.48414 100.323 9.59814 100.129 9.82714C99.935 10.0561 99.838 10.3261 99.838 10.6351V13.4311H98.789V10.0651C98.789 9.65114 98.777 9.20214 98.752 8.71614H99.672L99.721 9.45314H99.75C99.873 9.22414 100.055 9.03514 100.293 8.88414C100.578 8.70814 100.895 8.61914 101.244 8.61914C101.683 8.61914 102.049 8.76114 102.34 9.04614C102.703 9.39514 102.883 9.91614 102.883 10.6081V13.4321Z" fill="white"/>
<path d="M109.935 9.50392H108.781V11.7939C108.781 12.3759 108.986 12.6669 109.392 12.6669C109.58 12.6669 109.736 12.6509 109.859 12.6179L109.886 13.4129C109.679 13.4909 109.407 13.5299 109.072 13.5299C108.658 13.5299 108.336 13.4039 108.103 13.1519C107.869 12.8999 107.753 12.4759 107.753 11.8809V9.50392H107.064V8.71892H107.753V7.85492L108.78 7.54492V8.71792H109.934V9.50392H109.935Z" fill="white"/>
<path d="M115.485 13.4327H114.436V10.7527C114.436 9.90766 114.12 9.48466 113.487 9.48466C113.001 9.48466 112.669 9.72966 112.487 10.2197C112.456 10.3227 112.438 10.4487 112.438 10.5967V13.4317H111.391V6.55566H112.438V9.39666H112.458C112.788 8.87966 113.261 8.62166 113.874 8.62166C114.308 8.62166 114.667 8.76366 114.952 9.04866C115.307 9.40366 115.485 9.93166 115.485 10.6297V13.4327Z" fill="white"/>
<path d="M121.207 10.8523C121.207 11.0403 121.193 11.1983 121.168 11.3273H118.025C118.039 11.7933 118.189 12.1483 118.48 12.3943C118.746 12.6143 119.089 12.7243 119.509 12.7243C119.974 12.7243 120.398 12.6503 120.78 12.5013L120.944 13.2293C120.497 13.4233 119.971 13.5203 119.362 13.5203C118.632 13.5203 118.057 13.3053 117.641 12.8753C117.223 12.4453 117.016 11.8683 117.016 11.1443C117.016 10.4333 117.209 9.84128 117.598 9.36928C118.004 8.86528 118.553 8.61328 119.246 8.61328C119.924 8.61328 120.439 8.86528 120.787 9.36928C121.068 9.76928 121.207 10.2643 121.207 10.8523ZM120.207 10.5813C120.215 10.2703 120.146 10.0023 120.004 9.77628C119.822 9.48528 119.545 9.33928 119.17 9.33928C118.828 9.33928 118.549 9.48128 118.336 9.76628C118.162 9.99328 118.059 10.2643 118.025 10.5813H120.207Z" fill="white"/>
</svg>
