<svg width="41" height="41" viewBox="0 0 41 41" fill="none" xmlns="http://www.w3.org/2000/svg">
<path d="M38.8943 26.884C39.6145 24.8225 40.0074 22.6086 40.0074 20.3043C40.0074 18 39.6145 15.7862 38.8943 13.7246C38.8767 13.6627 38.8559 13.6023 38.8306 13.5442C36.0527 5.83299 28.6642 0.304321 20.0076 0.304321C11.3511 0.304321 3.96232 5.83299 1.18461 13.5442C1.15938 13.6025 1.13836 13.6627 1.12096 13.7246C0.400779 15.7862 0.0078125 18 0.0078125 20.3043C0.0078125 22.6086 0.400779 24.8225 1.12096 26.884C1.13855 26.946 1.15938 27.0063 1.18461 27.0645C3.96251 34.7758 11.3511 40.3043 20.0076 40.3043C28.6642 40.3043 36.0527 34.7757 38.8306 27.0645C38.8559 27.0063 38.8767 26.9461 38.8943 26.884ZM20.0076 37.4375C19.246 37.4375 18.0179 36.0591 16.9916 32.9796C16.4962 31.4935 16.0996 29.7852 15.8106 27.9268H24.2047C23.9157 29.7852 23.5191 31.4934 23.0239 32.9796C21.9973 36.0591 20.7693 37.4375 20.0076 37.4375ZM15.4627 25.0599C15.3249 23.5312 15.2521 21.9364 15.2521 20.3043C15.2521 18.6722 15.3249 17.0774 15.4627 15.5488H24.5523C24.6902 17.0774 24.763 18.6722 24.763 20.3043C24.763 21.9364 24.6902 23.5312 24.5523 25.0599H15.4627ZM2.87459 20.3045C2.87459 18.655 3.10949 17.0595 3.54661 15.549H12.5871C12.4531 17.1092 12.3851 18.7082 12.3851 20.3045C12.3851 21.9008 12.453 23.4998 12.5871 25.0601H3.54661C3.10949 23.5494 2.87459 21.954 2.87459 20.3045ZM20.0076 3.17129C20.7693 3.17129 21.9975 4.54973 23.0239 7.62925C23.5191 9.11529 23.9159 10.8236 24.2047 12.6818H15.8104C16.0994 10.8234 16.496 9.11529 16.9914 7.62925C18.0179 4.54973 19.246 3.17129 20.0076 3.17129ZM27.4279 15.549H36.4684C36.9056 17.0595 37.1405 18.655 37.1405 20.3045C37.1405 21.954 36.9056 23.5495 36.4684 25.0601H27.4279C27.5619 23.4998 27.6299 21.9008 27.6299 20.3045C27.6299 18.7082 27.5619 17.1092 27.4279 15.549ZM35.3482 12.682H27.099C26.589 9.16575 25.7142 6.01113 24.487 3.76686C29.2452 5.05681 33.1873 8.35019 35.3482 12.682ZM15.5281 3.76667C14.3008 6.01093 13.426 9.16556 12.9161 12.682H4.66683C6.82796 8.35019 10.7699 5.05681 15.5281 3.76667ZM4.66683 27.9268H12.9161C13.426 31.4431 14.3008 34.5977 15.5281 36.8422C10.7699 35.552 6.82796 32.2588 4.66683 27.9268ZM24.487 36.8422C25.7142 34.5979 26.589 31.4433 27.099 27.9268H35.3482C33.1873 32.2588 29.2452 35.552 24.487 36.8422Z" fill="#FF6600"/>
</svg>
