<svg width="47" height="48" viewBox="0 0 47 48" fill="none" xmlns="http://www.w3.org/2000/svg">
<path fill-rule="evenodd" clip-rule="evenodd" d="M23.4453 2.56042C11.5367 2.56042 1.88281 12.2143 1.88281 24.1229C1.88281 36.0316 11.5367 45.6854 23.4453 45.6854C35.354 45.6854 45.0078 36.0316 45.0078 24.1229C45.0078 12.2143 35.354 2.56042 23.4453 2.56042ZM0.0078125 24.1229C0.0078125 11.1787 10.5011 0.685425 23.4453 0.685425C36.3896 0.685425 46.8828 11.1787 46.8828 24.1229C46.8828 37.0672 36.3896 47.5604 23.4453 47.5604C10.5011 47.5604 0.0078125 37.0672 0.0078125 24.1229Z" fill="#161616"/>
<path fill-rule="evenodd" clip-rule="evenodd" d="M13.4073 15.9599C13.7735 15.5939 14.3671 15.5939 14.7333 15.9599L22.2333 23.4599C22.5993 23.8261 22.5993 24.4197 22.2333 24.7859L14.7333 32.2859C14.3671 32.6519 13.7735 32.6519 13.4073 32.2859C13.0413 31.9197 13.0413 31.3261 13.4073 30.9599L20.2445 24.1229L13.4073 17.2859C13.0413 16.9197 13.0413 16.3261 13.4073 15.9599Z" fill="#161616"/>
<path fill-rule="evenodd" clip-rule="evenodd" d="M26.5323 15.9599C26.8985 15.5939 27.4921 15.5939 27.8583 15.9599L35.3583 23.4599C35.7243 23.8261 35.7243 24.4197 35.3583 24.7859L27.8583 32.2859C27.4921 32.6519 26.8985 32.6519 26.5323 32.2859C26.1663 31.9197 26.1663 31.3261 26.5323 30.9599L33.3695 24.1229L26.5323 17.2859C26.1663 16.9197 26.1663 16.3261 26.5323 15.9599Z" fill="#161616"/>
</svg>
