<svg width="58" height="42" viewBox="0 0 58 42" fill="none" xmlns="http://www.w3.org/2000/svg">
<path d="M0.863281 17.4578L13.1447 3.0337H23.5129L11.2314 17.4578H0.863281ZM8.73878 29.5925L26.6995 8.49364C28.0214 6.8677 29.4968 5.37024 31.1054 4.02156C32.9907 2.46816 35.1992 1.34676 37.5729 0.737581C40.6574 -0.0681883 43.9095 0.0105094 46.9507 0.96452C49.962 1.90454 52.5899 3.77601 54.4489 6.30432C56.8106 9.61848 57.8036 13.702 57.2246 17.7182C56.9577 19.6976 56.2969 21.6048 55.2804 23.3292C54.2638 25.0537 52.9118 26.5609 51.3028 27.7637C49.4619 29.1149 47.332 30.0284 45.0778 30.4336C43.8035 30.6993 42.5062 30.8423 41.2041 30.8608H36.1379L26.9622 41.6605H16.6277L31.3143 24.3862L32.5134 22.9712H39.338C41.7363 22.9712 44.2694 22.9712 46.3444 21.6362H46.3848C47.3584 20.9697 48.1588 20.0842 48.7204 19.0522C49.282 18.0201 49.5889 16.8709 49.6158 15.6988C49.6428 14.5266 49.3891 13.3647 48.8755 12.3084C48.3619 11.2521 47.603 10.3314 46.661 9.62168L46.56 9.54825L46.5061 9.50821L46.432 9.45481C45.2455 8.62737 43.84 8.1632 42.3898 8.11986H42.309C41.3722 8.07697 40.4343 8.17371 39.5266 8.40687C38.2572 8.74399 37.0775 9.35229 36.0706 10.189C34.8451 11.2389 33.7177 12.3961 32.7021 13.6466L19.053 29.666L8.73878 29.5925Z" fill="#FF6600"/>
</svg>
