<svg width="135" height="40" viewBox="0 0 135 40" fill="none" xmlns="http://www.w3.org/2000/svg">
<path d="M130 40H5C2.2 40 0 37.8 0 35V5C0 2.2 2.2 0 5 0H130C132.8 0 135 2.2 135 5V35C135 37.8 132.8 40 130 40Z" fill="black"/>
<path d="M130 0.8C132.3 0.8 134.2 2.7 134.2 5V35C134.2 37.3 132.3 39.2 130 39.2H5C2.7 39.2 0.8 37.3 0.8 35V5C0.8 2.7 2.7 0.8 5 0.8H130ZM130 0H5C2.2 0 0 2.3 0 5V35C0 37.8 2.2 40 5 40H130C132.8 40 135 37.8 135 35V5C135 2.3 132.8 0 130 0Z" fill="#A6A6A6"/>
<path d="M47.4004 10.2004C47.4004 11.0004 47.2004 11.7004 46.7004 12.2004C46.1004 12.8004 45.4004 13.1004 44.5004 13.1004C43.6004 13.1004 42.9004 12.8004 42.3004 12.2004C41.7004 11.6004 41.4004 10.9004 41.4004 10.0004C41.4004 9.10039 41.7004 8.40039 42.3004 7.80039C42.9004 7.20039 43.6004 6.90039 44.5004 6.90039C44.9004 6.90039 45.3004 7.00039 45.7004 7.20039C46.1004 7.40039 46.4004 7.60039 46.6004 7.90039L46.1004 8.40039C45.7004 7.90039 45.2004 7.70039 44.5004 7.70039C43.9004 7.70039 43.3004 7.90039 42.9004 8.40039C42.4004 8.80039 42.2004 9.40039 42.2004 10.1004C42.2004 10.8004 42.4004 11.4004 42.9004 11.8004C43.4004 12.2004 43.9004 12.5004 44.5004 12.5004C45.2004 12.5004 45.7004 12.3004 46.2004 11.8004C46.5004 11.5004 46.7004 11.1004 46.7004 10.6004H44.5004V9.80039H47.4004C47.4004 9.90039 47.4004 10.1004 47.4004 10.2004Z" fill="white" stroke="white" stroke-width="0.2" stroke-miterlimit="10"/>
<path d="M52 7.7H49.3V9.6H51.8V10.3H49.3V12.2H52V13H48.5V7H52V7.7Z" fill="white" stroke="white" stroke-width="0.2" stroke-miterlimit="10"/>
<path d="M55.3008 13H54.5008V7.7H52.8008V7H57.0008V7.7H55.3008V13Z" fill="white" stroke="white" stroke-width="0.2" stroke-miterlimit="10"/>
<path d="M59.9004 13V7H60.7004V13H59.9004Z" fill="white" stroke="white" stroke-width="0.2" stroke-miterlimit="10"/>
<path d="M64.0996 13H63.2996V7.7H61.5996V7H65.6996V7.7H63.9996V13H64.0996Z" fill="white" stroke="white" stroke-width="0.2" stroke-miterlimit="10"/>
<path d="M73.6008 12.2004C73.0008 12.8004 72.3008 13.1004 71.4008 13.1004C70.5008 13.1004 69.8008 12.8004 69.2008 12.2004C68.6008 11.6004 68.3008 10.9004 68.3008 10.0004C68.3008 9.10039 68.6008 8.40039 69.2008 7.80039C69.8008 7.20039 70.5008 6.90039 71.4008 6.90039C72.3008 6.90039 73.0008 7.20039 73.6008 7.80039C74.2008 8.40039 74.5008 9.10039 74.5008 10.0004C74.5008 10.9004 74.2008 11.6004 73.6008 12.2004ZM69.8008 11.7004C70.2008 12.1004 70.8008 12.4004 71.4008 12.4004C72.0008 12.4004 72.6008 12.2004 73.0008 11.7004C73.4008 11.3004 73.7008 10.7004 73.7008 10.0004C73.7008 9.30039 73.5008 8.70039 73.0008 8.30039C72.6008 7.90039 72.0008 7.60039 71.4008 7.60039C70.8008 7.60039 70.2008 7.80039 69.8008 8.30039C69.4008 8.70039 69.1008 9.30039 69.1008 10.0004C69.1008 10.7004 69.3008 11.3004 69.8008 11.7004Z" fill="white" stroke="white" stroke-width="0.2" stroke-miterlimit="10"/>
<path d="M75.5996 13V7H76.4996L79.3996 11.7V10.5V7H80.1996V13H79.3996L76.2996 8.1V9.3V13H75.5996Z" fill="white" stroke="white" stroke-width="0.2" stroke-miterlimit="10"/>
<path d="M68.0996 21.7996C65.6996 21.7996 63.7996 23.5996 63.7996 26.0996C63.7996 28.4996 65.6996 30.3996 68.0996 30.3996C70.4996 30.3996 72.3996 28.5996 72.3996 26.0996C72.3996 23.4996 70.4996 21.7996 68.0996 21.7996ZM68.0996 28.5996C66.7996 28.5996 65.6996 27.4996 65.6996 25.9996C65.6996 24.4996 66.7996 23.3996 68.0996 23.3996C69.3996 23.3996 70.4996 24.3996 70.4996 25.9996C70.4996 27.4996 69.3996 28.5996 68.0996 28.5996ZM58.7996 21.7996C56.3996 21.7996 54.4996 23.5996 54.4996 26.0996C54.4996 28.4996 56.3996 30.3996 58.7996 30.3996C61.1996 30.3996 63.0996 28.5996 63.0996 26.0996C63.0996 23.4996 61.1996 21.7996 58.7996 21.7996ZM58.7996 28.5996C57.4996 28.5996 56.3996 27.4996 56.3996 25.9996C56.3996 24.4996 57.4996 23.3996 58.7996 23.3996C60.0996 23.3996 61.1996 24.3996 61.1996 25.9996C61.1996 27.4996 60.0996 28.5996 58.7996 28.5996ZM47.6996 23.0996V24.8996H51.9996C51.8996 25.8996 51.4996 26.6996 50.9996 27.1996C50.3996 27.7996 49.3996 28.4996 47.6996 28.4996C44.9996 28.4996 42.9996 26.3996 42.9996 23.6996C42.9996 20.9996 45.0996 18.8996 47.6996 18.8996C49.0996 18.8996 50.1996 19.4996 50.9996 20.1996L52.2996 18.8996C51.1996 17.8996 49.7996 17.0996 47.7996 17.0996C44.1996 17.0996 41.0996 20.0996 41.0996 23.6996C41.0996 27.2996 44.1996 30.2996 47.7996 30.2996C49.7996 30.2996 51.1996 29.6996 52.3996 28.3996C53.5996 27.1996 53.9996 25.4996 53.9996 24.1996C53.9996 23.7996 53.9996 23.3996 53.8996 23.0996H47.6996ZM93.0996 24.4996C92.6996 23.4996 91.6996 21.7996 89.4996 21.7996C87.2996 21.7996 85.4996 23.4996 85.4996 26.0996C85.4996 28.4996 87.2996 30.3996 89.6996 30.3996C91.5996 30.3996 92.7996 29.1996 93.1996 28.4996L91.7996 27.4996C91.2996 28.1996 90.6996 28.6996 89.6996 28.6996C88.6996 28.6996 88.0996 28.2996 87.5996 27.3996L93.2996 24.9996L93.0996 24.4996ZM87.2996 25.8996C87.2996 24.2996 88.5996 23.3996 89.4996 23.3996C90.1996 23.3996 90.8996 23.7996 91.0996 24.2996L87.2996 25.8996ZM82.5996 29.9996H84.4996V17.4996H82.5996V29.9996ZM79.5996 22.6996C79.0996 22.1996 78.2996 21.6996 77.2996 21.6996C75.1996 21.6996 73.1996 23.5996 73.1996 25.9996C73.1996 28.3996 75.0996 30.1996 77.2996 30.1996C78.2996 30.1996 79.0996 29.6996 79.4996 29.1996H79.5996V29.7996C79.5996 31.3996 78.6996 32.2996 77.2996 32.2996C76.1996 32.2996 75.3996 31.4996 75.1996 30.7996L73.5996 31.4996C74.0996 32.5996 75.2996 33.9996 77.3996 33.9996C79.5996 33.9996 81.3996 32.6996 81.3996 29.5996V21.9996H79.5996V22.6996ZM77.3996 28.5996C76.0996 28.5996 74.9996 27.4996 74.9996 25.9996C74.9996 24.4996 76.0996 23.3996 77.3996 23.3996C78.6996 23.3996 79.6996 24.4996 79.6996 25.9996C79.6996 27.4996 78.6996 28.5996 77.3996 28.5996ZM101.8 17.4996H97.2996V29.9996H99.1996V25.2996H101.8C103.9 25.2996 105.9 23.7996 105.9 21.3996C105.9 18.9996 103.9 17.4996 101.8 17.4996ZM101.9 23.4996H99.1996V19.1996H101.9C103.3 19.1996 104.1 20.3996 104.1 21.2996C104 22.3996 103.2 23.4996 101.9 23.4996ZM113.4 21.6996C112 21.6996 110.6 22.2996 110.1 23.5996L111.8 24.2996C112.2 23.5996 112.8 23.3996 113.5 23.3996C114.5 23.3996 115.4 23.9996 115.5 24.9996V25.0996C115.2 24.8996 114.4 24.5996 113.6 24.5996C111.8 24.5996 110 25.5996 110 27.3996C110 29.0996 111.5 30.1996 113.1 30.1996C114.4 30.1996 115 29.5996 115.5 28.9996H115.6V29.9996H117.4V25.1996C117.2 22.9996 115.5 21.6996 113.4 21.6996ZM113.2 28.5996C112.6 28.5996 111.7 28.2996 111.7 27.4996C111.7 26.4996 112.8 26.1996 113.7 26.1996C114.5 26.1996 114.9 26.3996 115.4 26.5996C115.2 27.7996 114.2 28.5996 113.2 28.5996ZM123.7 21.9996L121.6 27.3996H121.5L119.3 21.9996H117.3L120.6 29.5996L118.7 33.7996H120.6L125.7 21.9996H123.7ZM106.9 29.9996H108.8V17.4996H106.9V29.9996Z" fill="white"/>
<path d="M10.4 7.5C10.1 7.8 10 8.3 10 8.9V31C10 31.6 10.2 32.1 10.5 32.4L10.6 32.5L23 20.1V20V19.9L10.4 7.5Z" fill="url(#paint0_linear_746_32982)"/>
<path d="M27.0004 24.3008L22.9004 20.2008V20.0008V19.9008L27.0004 15.8008L27.1004 15.9008L32.0004 18.7008C33.4004 19.5008 33.4004 20.8008 32.0004 21.6008L27.0004 24.3008Z" fill="url(#paint1_linear_746_32982)"/>
<path d="M27.1004 24.2L22.9004 20L10.4004 32.5C10.9004 33 11.6004 33 12.5004 32.6L27.1004 24.2Z" fill="url(#paint2_linear_746_32982)"/>
<path d="M27.1004 15.8006L12.5004 7.5006C11.6004 7.0006 10.9004 7.1006 10.4004 7.6006L22.9004 20.0006L27.1004 15.8006Z" fill="url(#paint3_linear_746_32982)"/>
<path opacity="0.2" d="M27.0004 24.1006L12.5004 32.3006C11.7004 32.8006 11.0004 32.7006 10.5004 32.3006L10.4004 32.4006L10.5004 32.5006C11.0004 32.9006 11.7004 33.0006 12.5004 32.5006L27.0004 24.1006Z" fill="black"/>
<path opacity="0.12" d="M10.4 32.3004C10.1 32.0004 10 31.5004 10 30.9004V31.0004C10 31.6004 10.2 32.1004 10.5 32.4004V32.3004H10.4Z" fill="black"/>
<path opacity="0.12" d="M32 21.3L27 24.1L27.1 24.2L32 21.4C32.7 21 33 20.5 33 20C33 20.5 32.6 20.9 32 21.3Z" fill="black"/>
<path opacity="0.25" d="M12.5 7.60027L32 18.7003C32.6 19.1003 33 19.5003 33 20.0003C33 19.5003 32.7 19.0003 32 18.6003L12.5 7.50027C11.1 6.70027 10 7.30027 10 8.90027V9.00027C10 7.50027 11.1 6.80027 12.5 7.60027Z" fill="white"/>
<defs>
<linearGradient id="paint0_linear_746_32982" x1="21.7996" y1="8.7098" x2="5.0172" y2="25.4922" gradientUnits="userSpaceOnUse">
<stop stop-color="#00A0FF"/>
<stop offset="0.00657445" stop-color="#00A1FF"/>
<stop offset="0.2601" stop-color="#00BEFF"/>
<stop offset="0.5122" stop-color="#00D2FF"/>
<stop offset="0.7604" stop-color="#00DFFF"/>
<stop offset="1" stop-color="#00E3FF"/>
</linearGradient>
<linearGradient id="paint1_linear_746_32982" x1="33.8347" y1="20.0023" x2="9.63779" y2="20.0023" gradientUnits="userSpaceOnUse">
<stop stop-color="#FFE000"/>
<stop offset="0.4087" stop-color="#FFBD00"/>
<stop offset="0.7754" stop-color="#FFA500"/>
<stop offset="1" stop-color="#FF9C00"/>
</linearGradient>
<linearGradient id="paint2_linear_746_32982" x1="24.8273" y1="22.2962" x2="2.06899" y2="45.0544" gradientUnits="userSpaceOnUse">
<stop stop-color="#FF3A44"/>
<stop offset="1" stop-color="#C31162"/>
</linearGradient>
<linearGradient id="paint3_linear_746_32982" x1="7.29759" y1="0.1768" x2="17.4602" y2="10.3394" gradientUnits="userSpaceOnUse">
<stop stop-color="#32A071"/>
<stop offset="0.0685" stop-color="#2DA771"/>
<stop offset="0.4762" stop-color="#15CF74"/>
<stop offset="0.8009" stop-color="#06E775"/>
<stop offset="1" stop-color="#00F076"/>
</linearGradient>
</defs>
</svg>
