<svg width="120" height="40" viewBox="0 0 120 40" fill="none" xmlns="http://www.w3.org/2000/svg">
<path d="M110.293 0.0362545H9.64475C9.27787 0.0362545 8.9154 0.0362545 8.54949 0.0382441C8.24319 0.0402359 7.93934 0.0460173 7.6301 0.0508854C6.95829 0.0587472 6.28806 0.117543 5.62523 0.226762C4.96334 0.338362 4.32217 0.548759 3.72343 0.850838C3.12542 1.15547 2.57901 1.55131 2.104 2.02399C1.6265 2.49534 1.22847 3.04016 0.925214 3.6375C0.621117 4.23365 0.410256 4.87248 0.299912 5.53193C0.18852 6.19054 0.128579 6.85675 0.120627 7.52457C0.111342 7.82973 0.110362 8.13591 0.105469 8.44113V31.4473C0.110362 31.7564 0.111342 32.0558 0.120627 32.3649C0.128582 33.0327 0.188523 33.6989 0.299912 34.3574C0.409952 35.0173 0.620826 35.6565 0.925214 36.2528C1.22833 36.8482 1.62642 37.3909 2.104 37.8596C2.5772 38.3344 3.12397 38.7305 3.72343 39.0328C4.32217 39.3357 4.96326 39.5473 5.62523 39.6606C6.28817 39.769 6.95833 39.8278 7.63009 39.8366C7.93933 39.8434 8.24319 39.8473 8.54949 39.8473C8.91538 39.8493 9.27789 39.8493 9.64474 39.8493H110.293C110.653 39.8493 111.018 39.8493 111.378 39.8473C111.683 39.8473 111.995 39.8434 112.3 39.8366C112.971 39.8283 113.64 39.7695 114.301 39.6606C114.965 39.5465 115.609 39.3349 116.21 39.0328C116.809 38.7303 117.355 38.3342 117.828 37.8596C118.305 37.389 118.704 36.8468 119.01 36.2528C119.313 35.656 119.521 35.0169 119.63 34.3574C119.741 33.6988 119.803 33.0328 119.816 32.3649C119.819 32.0558 119.819 31.7564 119.819 31.4473C119.827 31.0857 119.827 30.7261 119.827 30.3586V9.5278C119.827 9.1633 119.827 8.80172 119.819 8.44112C119.819 8.13591 119.819 7.82973 119.816 7.52452C119.803 6.85664 119.741 6.19058 119.63 5.53188C119.521 4.87282 119.312 4.23404 119.01 3.63746C118.393 2.44016 117.414 1.46556 116.21 0.850747C115.609 0.549414 114.965 0.339078 114.301 0.226687C113.64 0.116986 112.971 0.0581675 112.3 0.0507534C111.995 0.0458978 111.683 0.0400648 111.378 0.0381225C111.018 0.0361328 110.653 0.0361328 110.293 0.0361328V0.0362545Z" fill="#A6A6A6"/>
<path d="M8.55398 38.9784C8.24916 38.9784 7.95169 38.9745 7.64926 38.9678C7.02274 38.9596 6.39768 38.9054 5.77922 38.8054C5.20253 38.7066 4.64387 38.5228 4.12168 38.2601C3.60427 37.9995 3.13235 37.6579 2.72401 37.2482C2.30975 36.8434 1.96486 36.3739 1.703 35.8583C1.43826 35.3393 1.25505 34.783 1.15974 34.2088C1.05682 33.5918 1.00113 32.9679 0.993162 32.3426C0.986818 32.1327 0.978516 31.4337 0.978516 31.4337V8.44119C0.978516 8.44119 0.987359 7.75301 0.993212 7.55083C1.00084 6.92645 1.0562 6.30354 1.15882 5.68751C1.25431 5.11174 1.43766 4.55386 1.70254 4.03318C1.96343 3.51792 2.30641 3.04804 2.71817 2.64177C3.12947 2.23164 3.6029 1.88823 4.12119 1.62407C4.64218 1.36219 5.19978 1.17969 5.7753 1.08268C6.3958 0.981716 7.02303 0.927131 7.65172 0.919379L8.55447 0.907227H111.373L112.286 0.919866C112.909 0.92723 113.531 0.981328 114.145 1.0817C114.727 1.17992 115.29 1.3637 115.817 1.62699C116.855 2.15933 117.7 3.00155 118.233 4.0356C118.494 4.55268 118.674 5.10601 118.769 5.67681C118.873 6.2979 118.931 6.92569 118.943 7.5552C118.945 7.83708 118.946 8.13985 118.946 8.44118C118.953 8.81443 118.953 9.16969 118.953 9.52787V30.3587C118.953 30.7203 118.953 31.0731 118.946 31.4289C118.946 31.7525 118.945 32.0491 118.942 32.3542C118.93 32.9725 118.873 33.5891 118.771 34.1991C118.677 34.7774 118.495 35.338 118.23 35.8613C117.967 36.3713 117.624 36.8367 117.214 37.2405C116.806 37.6523 116.333 37.996 115.814 38.2582C115.289 38.5229 114.726 38.7074 114.145 38.8054C113.527 38.9059 112.902 38.9602 112.275 38.9678C111.982 38.9745 111.675 38.9784 111.377 38.9784L110.293 38.9804L8.55398 38.9784Z" fill="black"/>
<path d="M35.3047 8.38658C35.9139 8.29499 36.5292 8.24868 37.1453 8.24805C38.3888 8.24805 39.2743 8.53518 39.8612 9.07943C40.4583 9.62389 40.8064 10.3959 40.8064 11.4747C40.8064 12.5634 40.4682 13.4542 39.8414 14.068C39.2146 14.6916 38.1799 15.028 36.8767 15.028C36.3516 15.0311 35.8268 15.0046 35.3047 14.9489L35.3047 8.38658ZM36.1701 14.2856C36.4602 14.3255 36.753 14.342 37.0457 14.3352C38.8962 14.3352 39.9011 13.3058 39.9011 11.5045C39.911 9.93076 39.0156 8.93104 37.185 8.93104C36.8445 8.92577 36.5044 8.95559 36.1701 9.02003V14.2856Z" fill="white"/>
<path d="M46.2977 12.5339C46.2977 14.3056 45.0639 15.0776 43.8999 15.0776C42.5967 15.0776 41.5918 14.1274 41.5918 12.613C41.5918 11.0097 42.6465 10.0693 43.9795 10.0693C45.3624 10.0693 46.2977 11.0691 46.2977 12.5339ZM42.4773 12.5834C42.4773 13.6325 43.0841 14.4244 43.9398 14.4244C44.7755 14.4244 45.4023 13.6423 45.4023 12.5635C45.4023 11.7518 44.9943 10.7225 43.9596 10.7225C42.925 10.7225 42.4773 11.6727 42.4773 12.5834Z" fill="white"/>
<path d="M47.6806 10.1787L48.3173 12.6135C48.4565 13.1479 48.5859 13.6428 48.6753 14.1377H48.7053C48.8148 13.6527 48.9739 13.138 49.1332 12.6234L49.9191 10.1787H50.6554L51.4014 12.5738C51.5805 13.1479 51.7198 13.6527 51.8293 14.1377H51.859C51.9529 13.6134 52.0758 13.0947 52.2272 12.5839L52.9137 10.1787H53.7794L52.2272 14.9691H51.4314L50.695 12.6827C50.5256 12.1657 50.3829 11.6405 50.2674 11.109H50.2473C50.1323 11.6448 49.9862 12.1736 49.8096 12.6926L49.0336 14.9691H48.2378L46.7852 10.1787L47.6806 10.1787Z" fill="white"/>
<path d="M54.653 11.4744C54.653 10.9795 54.643 10.5738 54.6133 10.1779H55.3893L55.4391 10.9696H55.4589C55.6165 10.6894 55.8482 10.4574 56.1287 10.2987C56.4093 10.14 56.7281 10.0605 57.0507 10.069C57.7174 10.069 58.7521 10.4648 58.7521 12.1079V14.9683H57.8765V12.2069C57.8765 11.4347 57.5879 10.7914 56.7623 10.7914C56.4967 10.7957 56.2393 10.8845 56.0281 11.0448C55.8168 11.2051 55.6626 11.4284 55.5882 11.6822C55.546 11.8133 55.5258 11.9505 55.5285 12.0881V14.9683H54.653V11.4744Z" fill="white"/>
<path d="M60.1758 7.94141H61.0513V14.9688H60.1758V7.94141Z" fill="white"/>
<path d="M66.8797 12.5339C66.8797 14.3056 65.6459 15.0776 64.482 15.0776C63.1787 15.0776 62.1738 14.1274 62.1738 12.613C62.1738 11.0097 63.2283 10.0693 64.5615 10.0693C65.9445 10.0693 66.8797 11.0691 66.8797 12.5339ZM63.0593 12.5834C63.0593 13.6325 63.6661 14.4244 64.5218 14.4244C65.3575 14.4244 65.9843 13.6423 65.9843 12.5635C65.9843 11.7518 65.5763 10.7225 64.5417 10.7225C63.507 10.7225 63.0593 11.6727 63.0593 12.5834H63.0593Z" fill="white"/>
<path d="M70.6499 14.9689L70.5803 14.3653H70.5505C70.3796 14.5918 70.1569 14.7746 69.9008 14.8985C69.6448 15.0224 69.3628 15.0839 69.0781 15.0779C68.103 15.0779 67.6055 14.3949 67.6055 13.702C67.6055 12.544 68.6403 11.9106 70.5008 11.9205V11.8216C70.5008 11.4255 70.3913 10.7129 69.4064 10.7129C68.9634 10.7143 68.5295 10.8376 68.1527 11.0693L67.9538 10.4953C68.4309 10.2095 68.9788 10.0621 69.5357 10.0696C71.0082 10.0696 71.3664 11.0693 71.3664 12.0294V13.8208C71.36 14.2051 71.3866 14.5892 71.4459 14.9689L70.6499 14.9689ZM70.5206 12.5243C69.5655 12.5044 68.481 12.6727 68.481 13.6032C68.472 13.7138 68.4871 13.825 68.5252 13.9293C68.5634 14.0336 68.6237 14.1284 68.7021 14.2074C68.7805 14.2863 68.8752 14.3475 68.9795 14.3867C69.0839 14.4259 69.1955 14.4422 69.3068 14.4346C69.5613 14.4413 69.8113 14.3672 70.0206 14.2231C70.2299 14.0789 70.3876 13.8721 70.4708 13.6328C70.5018 13.5436 70.5186 13.4501 70.5206 13.3557V12.5243Z" fill="white"/>
<path d="M76.9367 7.94141V13.7317C76.9367 14.1572 76.9466 14.6422 76.9764 14.9688H76.1905L76.1506 14.1374H76.1308C75.9738 14.432 75.7365 14.6764 75.4461 14.8428C75.1557 15.0091 74.824 15.0905 74.4891 15.0778C73.3252 15.0778 72.4298 14.0978 72.4298 12.643C72.4198 11.0493 73.4146 10.0695 74.5887 10.0695C75.3248 10.0695 75.8223 10.4158 76.0413 10.8018H76.0612V7.94141H76.9367ZM76.0612 12.1281C76.0627 12.005 76.0493 11.8821 76.0213 11.7621C75.9588 11.4753 75.7993 11.2185 75.5693 11.0347C75.3393 10.851 75.0529 10.7513 74.7579 10.7525C73.8524 10.7525 73.3152 11.5442 73.3152 12.6033C73.3152 13.5733 73.7927 14.375 74.7379 14.375C75.0391 14.374 75.3308 14.2703 75.5644 14.0811C75.7979 13.892 75.9592 13.6289 76.0213 13.3357C76.0504 13.2125 76.0638 13.0862 76.0612 12.9597V12.1281Z" fill="white"/>
<path d="M35.4219 30.5953V23.7799H34.3047V22.6847H35.4219V22.3088C35.4219 21.1973 35.6684 20.1841 36.342 19.5466C36.8678 19.0606 37.5629 18.7968 38.2806 18.8111C38.7021 18.8097 39.1201 18.8874 39.5127 19.04L39.3156 20.1513C39.0258 20.0251 38.7117 19.9638 38.3955 19.9717C37.1633 19.9717 36.8512 21.0503 36.8512 22.2599V22.6847H38.7734V23.7799H36.8512V30.5953H35.4219Z" fill="white"/>
<path d="M46.3978 26.5746C46.3978 29.5003 44.3606 30.7751 42.4383 30.7751C40.2862 30.7751 38.627 29.2061 38.627 26.7053C38.627 24.0575 40.3684 22.5049 42.5698 22.5049C44.8535 22.5049 46.3978 24.1558 46.3978 26.5746ZM40.0891 26.6564C40.0891 28.3888 41.0911 29.6964 42.5041 29.6964C43.8842 29.6964 44.9191 28.4051 44.9191 26.6236C44.9191 25.2834 44.2455 23.5837 42.5368 23.5837C40.8284 23.5837 40.0891 25.1527 40.0891 26.6564Z" fill="white"/>
<path d="M47.5638 25.1528C47.5638 24.2212 47.5472 23.4204 47.498 22.6848H48.763L48.8124 24.2375H48.878C49.2395 23.1751 50.1102 22.505 51.0794 22.505C51.218 22.5032 51.3562 22.5197 51.4903 22.5542V23.9107C51.3284 23.8757 51.163 23.8592 50.9973 23.8615C49.9788 23.8615 49.2559 24.6299 49.0587 25.7085C49.0182 25.9297 48.9963 26.1539 48.9931 26.3787V30.5954H47.5638V25.1528Z" fill="white"/>
<path d="M56.3698 30.5951L53.5605 19.5791H55.0718L56.3862 25.1526C56.7149 26.5254 57.0106 27.8984 57.2077 28.9607H57.2405C57.4213 27.8658 57.7663 26.5582 58.1442 25.1362L59.6227 19.5791H61.1178L62.465 25.1689C62.7771 26.4764 63.0728 27.784 63.2371 28.9444H63.2699C63.5 27.7349 63.8121 26.5091 64.157 25.1362L65.6193 19.5791H67.0814L63.9435 30.5951H62.4486L61.0521 24.8584C60.7446 23.674 60.5033 22.4735 60.3291 21.2626H60.2963C60.0765 22.4756 59.7913 23.6759 59.442 24.8584L57.8649 30.5951H56.3698Z" fill="white"/>
<path d="M69.1034 20.4621C69.1013 20.6969 69.006 20.9214 68.8384 21.0867C68.6707 21.252 68.4442 21.3448 68.2081 21.3448C67.972 21.3448 67.7455 21.252 67.5779 21.0867C67.4102 20.9214 67.3149 20.6969 67.3128 20.4621C67.3097 20.3432 67.3309 20.2249 67.3752 20.1144C67.4195 20.0039 67.4859 19.9036 67.5704 19.8195C67.655 19.7354 67.7558 19.6693 67.8669 19.6252C67.9779 19.5811 68.0968 19.5599 68.2163 19.563C68.3354 19.5589 68.454 19.5794 68.5646 19.6233C68.6752 19.6672 68.7755 19.7336 68.8589 19.8181C68.9424 19.9027 69.0072 20.0036 69.0493 20.1145C69.0914 20.2254 69.1098 20.3437 69.1034 20.4621ZM67.4935 30.5954V22.6848H68.9393V30.5954H67.4935Z" fill="white"/>
<path d="M70.681 24.8259C70.681 24.0086 70.6644 23.3385 70.6152 22.6847H71.8966L71.9788 23.9923H72.0116C72.2719 23.5296 72.6544 23.1465 73.1177 22.8843C73.581 22.6222 74.1075 22.491 74.6403 22.5049C75.7409 22.5049 77.4495 23.1587 77.4495 25.8719V30.5953H76.0038V26.0352C76.0038 24.7605 75.5274 23.6981 74.1639 23.6981C73.7252 23.7052 73.3003 23.8518 72.9515 24.1165C72.6026 24.3811 72.3481 24.75 72.2253 25.169C72.1556 25.3855 72.1223 25.6119 72.1267 25.8391V30.5953H70.681V24.8259Z" fill="white"/>
<path d="M86.0106 18.9912V28.5527C86.0106 29.2554 86.0272 30.0564 86.0764 30.5956H84.7784L84.7128 29.2228H84.6798C84.2364 30.1053 83.2671 30.7754 81.9691 30.7754C80.047 30.7754 78.5685 29.1573 78.5685 26.7548C78.5519 24.1233 80.1949 22.5052 82.1335 22.5052C83.3493 22.5052 84.1706 23.0773 84.5321 23.7147H84.5649V18.9912H86.0106ZM84.5649 25.9049C84.5674 25.7014 84.5454 25.4984 84.4993 25.3002C84.3961 24.8266 84.1325 24.4026 83.7527 24.0991C83.3729 23.7957 82.8999 23.6311 82.4128 23.633C80.9177 23.633 80.0306 24.9406 80.0306 26.6893C80.0306 28.2911 80.8191 29.615 82.3798 29.615C82.8771 29.6134 83.3589 29.4421 83.7446 29.1298C84.1303 28.8175 84.3967 28.383 84.4993 27.8989C84.5471 27.6953 84.5692 27.4867 84.5649 27.2777L84.5649 25.9049Z" fill="white"/>
<path d="M94.9485 26.5746C94.9485 29.5003 92.9114 30.7751 90.9891 30.7751C88.837 30.7751 87.1777 29.2061 87.1777 26.7053C87.1777 24.0575 88.9192 22.5049 91.1206 22.5049C93.4043 22.5049 94.9485 24.1558 94.9485 26.5746ZM88.6398 26.6564C88.6398 28.3888 89.6419 29.6964 91.0548 29.6964C92.435 29.6964 93.4698 28.4051 93.4698 26.6236C93.4698 25.2834 92.7963 23.5837 91.0876 23.5837C89.3792 23.5837 88.6398 25.1527 88.6398 26.6564Z" fill="white"/>
<path d="M96.5744 22.6846L97.6259 26.7052C97.8558 27.5879 98.0693 28.405 98.2173 29.2223H98.2664C98.4472 28.4213 98.7101 27.5714 98.973 26.7217L100.271 22.6846H101.487L102.719 26.64C103.014 27.5879 103.244 28.4213 103.425 29.2223H103.475C103.629 28.3564 103.832 27.4998 104.082 26.6563L105.216 22.6846H106.645L104.082 30.5951H102.768L101.552 26.8198C101.272 25.966 101.037 25.0986 100.846 24.2209H100.813C100.623 25.1058 100.382 25.979 100.09 26.8361L98.8087 30.5951H97.4943L95.0957 22.6846L96.5744 22.6846Z" fill="white"/>
<path d="M107.141 29.1246C107.713 29.4808 108.371 29.6783 109.046 29.6966C110.098 29.6966 110.591 29.1735 110.591 28.5197C110.591 27.8333 110.18 27.4574 109.112 27.0651C107.683 26.5585 107.009 25.774 107.009 24.8261C107.009 23.5511 108.044 22.5051 109.753 22.5051C110.436 22.4984 111.109 22.6673 111.708 22.9954L111.346 24.0414C110.857 23.7417 110.294 23.5833 109.72 23.5839C108.866 23.5839 108.389 24.0742 108.389 24.6626C108.389 25.3164 108.866 25.6105 109.901 26.0028C111.281 26.5257 111.987 27.2123 111.987 28.389C111.987 29.7783 110.903 30.7589 109.014 30.7589C108.235 30.7731 107.465 30.5873 106.779 30.2195L107.141 29.1246Z" fill="white"/>
<path d="M18.4614 11.7148H10.6035V19.5322H18.4614V11.7148Z" fill="#F25022"/>
<path d="M27.1617 11.7148H19.2891V19.5322H27.1617V11.7148Z" fill="#7FBA00"/>
<path d="M18.4614 20.3398H10.6035V28.1719H18.4614V20.3398Z" fill="#00A4EF"/>
<path d="M27.1617 20.3398H19.2891V28.1719H27.1617V20.3398Z" fill="#FFB900"/>
</svg>
