<svg width="36" height="36" viewBox="0 0 36 36" fill="none" xmlns="http://www.w3.org/2000/svg">
<path fill-rule="evenodd" clip-rule="evenodd" d="M2.6046 15.86H33.7157C34.7852 15.86 35.6602 16.735 35.6602 17.8045C35.6602 18.8739 34.7852 19.7489 33.7157 19.7489H2.6046C1.53516 19.7489 0.660156 18.8739 0.660156 17.8045C0.660156 16.735 1.53516 15.86 2.6046 15.86Z" fill="#FF6600"/>
<path fill-rule="evenodd" clip-rule="evenodd" d="M20.1055 2.24877L20.1055 33.3599C20.1055 34.4293 19.2305 35.3043 18.161 35.3043C17.0916 35.3043 16.2166 34.4293 16.2166 33.3599L16.2166 2.24877C16.2166 1.17932 17.0916 0.304321 18.161 0.304321C19.2305 0.304321 20.1055 1.17932 20.1055 2.24877Z" fill="#FF6600"/>
</svg>
