<svg width="120" height="40" viewBox="0 0 120 40" fill="none" xmlns="http://www.w3.org/2000/svg">
<path d="M110.293 0.0362545H9.64475C9.27787 0.0362545 8.9154 0.0362545 8.54949 0.0382441C8.24319 0.0402359 7.93934 0.0460173 7.6301 0.0508854C6.95829 0.0587472 6.28806 0.117543 5.62523 0.226762C4.96334 0.338362 4.32217 0.548759 3.72343 0.850838C3.12542 1.15547 2.57901 1.55131 2.104 2.02399C1.6265 2.49534 1.22847 3.04016 0.925214 3.6375C0.621117 4.23365 0.410256 4.87248 0.299912 5.53193C0.18852 6.19054 0.128579 6.85675 0.120627 7.52457C0.111342 7.82973 0.110362 8.13591 0.105469 8.44113V31.4473C0.110362 31.7564 0.111342 32.0558 0.120627 32.3649C0.128582 33.0327 0.188523 33.6989 0.299912 34.3574C0.409952 35.0173 0.620826 35.6565 0.925214 36.2528C1.22833 36.8482 1.62642 37.3909 2.104 37.8596C2.5772 38.3344 3.12397 38.7305 3.72343 39.0328C4.32217 39.3357 4.96326 39.5473 5.62523 39.6606C6.28817 39.769 6.95833 39.8278 7.63009 39.8366C7.93933 39.8434 8.24319 39.8473 8.54949 39.8473C8.91538 39.8493 9.27789 39.8493 9.64474 39.8493H110.293C110.653 39.8493 111.018 39.8493 111.378 39.8473C111.683 39.8473 111.995 39.8434 112.3 39.8366C112.971 39.8283 113.64 39.7695 114.301 39.6606C114.965 39.5465 115.609 39.3349 116.21 39.0328C116.809 38.7303 117.355 38.3342 117.828 37.8596C118.305 37.389 118.704 36.8468 119.01 36.2528C119.313 35.656 119.521 35.0169 119.63 34.3574C119.741 33.6988 119.803 33.0328 119.816 32.3649C119.819 32.0558 119.819 31.7564 119.819 31.4473C119.827 31.0857 119.827 30.7261 119.827 30.3586V9.5278C119.827 9.1633 119.827 8.80172 119.819 8.44112C119.819 8.13591 119.819 7.82973 119.816 7.52452C119.803 6.85664 119.741 6.19058 119.63 5.53188C119.521 4.87282 119.312 4.23404 119.01 3.63746C118.393 2.44016 117.414 1.46556 116.21 0.850747C115.609 0.549414 114.965 0.339078 114.301 0.226687C113.64 0.116986 112.971 0.0581675 112.3 0.0507534C111.995 0.0458978 111.683 0.0400648 111.378 0.0381225C111.018 0.0361328 110.653 0.0361328 110.293 0.0361328V0.0362545Z" fill="#A6A6A6"/>
<path d="M8.55398 38.9784C8.24916 38.9784 7.95169 38.9745 7.64926 38.9678C7.02274 38.9596 6.39768 38.9054 5.77922 38.8054C5.20253 38.7066 4.64387 38.5228 4.12168 38.2601C3.60427 37.9995 3.13235 37.6579 2.72401 37.2482C2.30975 36.8434 1.96486 36.3739 1.703 35.8583C1.43826 35.3393 1.25505 34.783 1.15974 34.2088C1.05682 33.5918 1.00113 32.9679 0.993162 32.3426C0.986818 32.1327 0.978516 31.4337 0.978516 31.4337V8.44119C0.978516 8.44119 0.987359 7.75301 0.993212 7.55083C1.00084 6.92645 1.0562 6.30354 1.15882 5.68751C1.25431 5.11174 1.43766 4.55386 1.70254 4.03318C1.96343 3.51792 2.30641 3.04804 2.71817 2.64177C3.12947 2.23164 3.6029 1.88823 4.12119 1.62407C4.64218 1.36219 5.19978 1.17969 5.7753 1.08268C6.3958 0.981716 7.02303 0.927131 7.65172 0.919379L8.55447 0.907227H111.373L112.286 0.919866C112.909 0.92723 113.531 0.981328 114.145 1.0817C114.727 1.17992 115.29 1.3637 115.817 1.62699C116.855 2.15933 117.7 3.00155 118.233 4.0356C118.494 4.55268 118.674 5.10601 118.769 5.67681C118.873 6.2979 118.931 6.92569 118.943 7.5552C118.945 7.83708 118.946 8.13985 118.946 8.44118C118.953 8.81443 118.953 9.16969 118.953 9.52787V30.3587C118.953 30.7203 118.953 31.0731 118.946 31.4289C118.946 31.7525 118.945 32.0491 118.942 32.3542C118.93 32.9725 118.873 33.5891 118.771 34.1991C118.677 34.7774 118.495 35.338 118.23 35.8613C117.967 36.3713 117.624 36.8367 117.214 37.2405C116.806 37.6523 116.333 37.996 115.814 38.2582C115.289 38.5229 114.726 38.7074 114.145 38.8054C113.527 38.9059 112.902 38.9602 112.275 38.9678C111.982 38.9745 111.675 38.9784 111.377 38.9784L110.293 38.9804L8.55398 38.9784Z" fill="black"/>
<path d="M35.3047 8.38658C35.9139 8.29499 36.5292 8.24868 37.1453 8.24805C38.3888 8.24805 39.2743 8.53518 39.8612 9.07943C40.4583 9.62389 40.8064 10.3959 40.8064 11.4747C40.8064 12.5634 40.4682 13.4542 39.8414 14.068C39.2146 14.6916 38.1799 15.028 36.8767 15.028C36.3516 15.0311 35.8268 15.0046 35.3047 14.9489L35.3047 8.38658ZM36.1701 14.2856C36.4602 14.3255 36.753 14.342 37.0457 14.3352C38.8962 14.3352 39.9011 13.3058 39.9011 11.5045C39.911 9.93076 39.0156 8.93104 37.185 8.93104C36.8445 8.92577 36.5044 8.95559 36.1701 9.02003V14.2856Z" fill="white"/>
<path d="M46.2977 12.5339C46.2977 14.3056 45.0639 15.0776 43.8999 15.0776C42.5967 15.0776 41.5918 14.1274 41.5918 12.613C41.5918 11.0097 42.6465 10.0693 43.9795 10.0693C45.3624 10.0693 46.2977 11.0691 46.2977 12.5339ZM42.4773 12.5834C42.4773 13.6325 43.0841 14.4244 43.9398 14.4244C44.7755 14.4244 45.4023 13.6423 45.4023 12.5635C45.4023 11.7518 44.9943 10.7225 43.9596 10.7225C42.925 10.7225 42.4773 11.6727 42.4773 12.5834Z" fill="white"/>
<path d="M47.6806 10.1787L48.3173 12.6135C48.4565 13.1479 48.5859 13.6428 48.6753 14.1377H48.7053C48.8148 13.6527 48.9739 13.138 49.1332 12.6234L49.9191 10.1787H50.6554L51.4014 12.5738C51.5805 13.1479 51.7198 13.6527 51.8293 14.1377H51.859C51.9529 13.6134 52.0758 13.0947 52.2272 12.5839L52.9137 10.1787H53.7794L52.2272 14.9691H51.4314L50.695 12.6827C50.5256 12.1657 50.3829 11.6405 50.2674 11.109H50.2473C50.1323 11.6448 49.9862 12.1736 49.8096 12.6926L49.0336 14.9691H48.2378L46.7852 10.1787L47.6806 10.1787Z" fill="white"/>
<path d="M54.653 11.4744C54.653 10.9795 54.643 10.5738 54.6133 10.1779H55.3893L55.4391 10.9696H55.4589C55.6165 10.6894 55.8482 10.4574 56.1287 10.2987C56.4093 10.14 56.7281 10.0605 57.0507 10.069C57.7174 10.069 58.7521 10.4648 58.7521 12.1079V14.9683H57.8765V12.2069C57.8765 11.4347 57.5879 10.7914 56.7623 10.7914C56.4967 10.7957 56.2393 10.8845 56.0281 11.0448C55.8168 11.2051 55.6626 11.4284 55.5882 11.6822C55.546 11.8133 55.5258 11.9505 55.5285 12.0881V14.9683H54.653V11.4744Z" fill="white"/>
<path d="M60.1758 7.94141H61.0513V14.9688H60.1758V7.94141Z" fill="white"/>
<path d="M66.8797 12.5339C66.8797 14.3056 65.6459 15.0776 64.482 15.0776C63.1787 15.0776 62.1738 14.1274 62.1738 12.613C62.1738 11.0097 63.2283 10.0693 64.5615 10.0693C65.9445 10.0693 66.8797 11.0691 66.8797 12.5339ZM63.0593 12.5834C63.0593 13.6325 63.6661 14.4244 64.5218 14.4244C65.3575 14.4244 65.9843 13.6423 65.9843 12.5635C65.9843 11.7518 65.5763 10.7225 64.5417 10.7225C63.507 10.7225 63.0593 11.6727 63.0593 12.5834H63.0593Z" fill="white"/>
<path d="M70.6499 14.9689L70.5803 14.3653H70.5505C70.3796 14.5918 70.1569 14.7746 69.9008 14.8985C69.6448 15.0224 69.3628 15.0839 69.0781 15.0779C68.103 15.0779 67.6055 14.3949 67.6055 13.702C67.6055 12.544 68.6403 11.9106 70.5008 11.9205V11.8216C70.5008 11.4255 70.3913 10.7129 69.4064 10.7129C68.9634 10.7143 68.5295 10.8376 68.1527 11.0693L67.9538 10.4953C68.4309 10.2095 68.9788 10.0621 69.5357 10.0696C71.0082 10.0696 71.3664 11.0693 71.3664 12.0294V13.8208C71.36 14.2051 71.3866 14.5892 71.4459 14.9689L70.6499 14.9689ZM70.5206 12.5243C69.5655 12.5044 68.481 12.6727 68.481 13.6032C68.472 13.7138 68.4871 13.825 68.5252 13.9293C68.5634 14.0336 68.6237 14.1284 68.7021 14.2074C68.7805 14.2863 68.8752 14.3475 68.9795 14.3867C69.0839 14.4259 69.1955 14.4422 69.3068 14.4346C69.5613 14.4413 69.8113 14.3672 70.0206 14.2231C70.2299 14.0789 70.3876 13.8721 70.4708 13.6328C70.5018 13.5436 70.5186 13.4501 70.5206 13.3557V12.5243Z" fill="white"/>
<path d="M76.9367 7.94141V13.7317C76.9367 14.1572 76.9466 14.6422 76.9764 14.9688H76.1905L76.1506 14.1374H76.1308C75.9738 14.432 75.7365 14.6764 75.4461 14.8428C75.1557 15.0091 74.824 15.0905 74.4891 15.0778C73.3252 15.0778 72.4298 14.0978 72.4298 12.643C72.4198 11.0493 73.4146 10.0695 74.5887 10.0695C75.3248 10.0695 75.8223 10.4158 76.0413 10.8018H76.0612V7.94141H76.9367ZM76.0612 12.1281C76.0627 12.005 76.0493 11.8821 76.0213 11.7621C75.9588 11.4753 75.7993 11.2185 75.5693 11.0347C75.3393 10.851 75.0529 10.7513 74.7579 10.7525C73.8524 10.7525 73.3152 11.5442 73.3152 12.6033C73.3152 13.5733 73.7927 14.375 74.7379 14.375C75.0391 14.374 75.3308 14.2703 75.5644 14.0811C75.7979 13.892 75.9592 13.6289 76.0213 13.3357C76.0504 13.2125 76.0638 13.0862 76.0612 12.9597V12.1281Z" fill="white"/>
<path d="M15.3066 16.1121L15.3629 17.4059L14.4629 19.0934L13.0566 21.8496L12.7754 24.1559L13.7879 27.4184L16.0941 28.7121H19.5816L22.8441 26.2371L24.3066 22.3559L20.9316 18.2496L19.9754 15.9434L15.3066 16.1121Z" fill="#ECEFF1"/>
<path d="M23.2941 19.3187C22.3941 18.025 21.6629 17.2375 21.2691 15.6062C20.8754 13.975 21.3816 14.425 21.0441 13.0187C20.8754 12.2875 20.5941 11.7812 20.3129 11.3875C19.9754 10.9937 19.5816 10.7687 19.3566 10.7125C18.8504 10.4312 17.6691 9.98122 16.2066 10.7687C14.6879 11.5562 14.8566 13.2437 15.1379 16.675C15.1379 16.9 15.0816 17.1812 14.9691 17.4062C14.7441 17.9125 14.3504 18.3625 14.0129 18.7562C13.6191 19.3187 13.2254 19.8812 12.9441 20.5C12.2691 21.7937 11.6504 23.425 11.8191 24.0437C12.1004 23.9875 15.6441 29.3875 15.6441 29.5C15.8691 29.4437 16.8254 29.4437 17.6691 29.4437C18.8504 29.3875 19.5254 29.3312 20.4816 29.5562C20.4816 29.3875 20.4254 29.2187 20.4254 29.05C20.4254 28.7125 20.4816 28.4312 20.5379 28.0375C20.5941 27.7562 20.6504 27.475 20.7066 27.1375C20.1441 27.6437 19.1316 28.2062 18.1754 28.375C17.3316 28.5437 15.9254 28.2625 15.2504 27.4187C15.3066 27.4187 15.4191 27.4187 15.4754 27.3625C15.6441 27.3062 15.8129 27.25 15.8691 27.1375C16.0379 26.8562 15.9254 26.575 15.8129 26.4062C15.7004 26.2375 14.8566 25.6187 14.4629 25.2812C14.0691 24.9437 13.8441 24.775 13.6191 24.55C13.6191 24.55 13.2816 24.2125 13.1691 24.1C13.0566 23.9875 13.0004 23.875 12.9441 23.8187C12.8316 23.5375 12.7754 23.2 12.8316 22.75C12.8879 22.1312 13.1129 21.625 13.3941 21.0625C13.5066 20.8375 13.7879 20.3875 13.7879 20.3875C13.7879 20.3875 12.8316 22.75 13.3379 23.4812C13.3379 23.4812 13.3941 22.75 13.6191 22.0187C13.7879 21.5125 14.0691 20.7812 14.4066 20.3875C14.7441 19.9937 15.5879 18.5312 15.6441 17.6312C15.6441 17.2375 15.7004 16.8437 15.7004 16.5625C15.4754 16.3375 19.4129 15.775 19.6379 16.3937C19.6941 16.6187 20.4816 18.6437 20.9316 19.7125C21.1566 20.2187 21.4379 20.6687 21.6066 21.2312C21.7754 21.85 21.8879 22.6937 21.8879 23.5375C21.8879 23.7062 21.8879 23.9875 21.8316 24.2687C21.9441 24.2687 24.1379 21.9062 21.5504 19.9375C21.5504 19.9375 23.1254 20.6687 23.1816 22.1312C23.2379 23.3125 22.7316 24.2687 22.6191 24.4375C22.6754 24.4375 23.8004 24.9437 23.8566 24.9437C24.0816 24.9437 24.5316 24.775 24.5316 24.775C24.5879 24.6062 24.7566 24.1562 24.7566 23.9875C25.1504 22.6937 24.1941 20.6125 23.2941 19.3187Z" fill="#263238"/>
<path d="M16.1502 15.6055C16.5541 15.6055 16.8814 15.1018 16.8814 14.4805C16.8814 13.8591 16.5541 13.3555 16.1502 13.3555C15.7463 13.3555 15.4189 13.8591 15.4189 14.4805C15.4189 15.1018 15.7463 15.6055 16.1502 15.6055Z" fill="#ECEFF1"/>
<path d="M18.6818 15.7184C19.21 15.7184 19.6381 15.1391 19.6381 14.4246C19.6381 13.7101 19.21 13.1309 18.6818 13.1309C18.1537 13.1309 17.7256 13.7101 17.7256 14.4246C17.7256 15.1391 18.1537 15.7184 18.6818 15.7184Z" fill="#ECEFF1"/>
<path d="M16.558 14.5587C16.5112 14.1889 16.2984 13.9112 16.0827 13.9384C15.8669 13.9657 15.7299 14.2876 15.7767 14.6575C15.8234 15.0273 16.0362 15.305 16.252 15.2778C16.4677 15.2505 16.6047 14.9286 16.558 14.5587Z" fill="#212121"/>
<path d="M18.625 15.3814C18.9357 15.3814 19.1875 15.0541 19.1875 14.6502C19.1875 14.2463 18.9357 13.9189 18.625 13.9189C18.3143 13.9189 18.0625 14.2463 18.0625 14.6502C18.0625 15.0541 18.3143 15.3814 18.625 15.3814Z" fill="#212121"/>
<path d="M26.1063 27.025C25.8813 26.9125 25.4875 26.7438 25.15 26.2375C24.9813 25.9563 25.0375 25.1688 24.7563 24.8313C24.5875 24.6063 24.3625 24.7188 24.3063 24.7188C23.8 24.8313 22.6188 25.6187 21.8313 24.7188C21.7188 24.6063 21.55 24.4375 21.2688 24.4375C20.9875 24.4375 20.875 24.55 20.7625 24.775C20.65 25 20.65 25.1687 20.65 25.7312C20.65 26.1812 20.65 26.6875 20.5938 27.0813C20.4813 28.0375 20.3125 28.6 20.3125 29.1625C20.3125 29.7813 20.4813 30.175 20.7063 30.3438C20.875 30.5125 21.1563 30.625 21.775 30.625C22.3938 30.625 22.7875 30.4 23.1813 30.0063C23.4625 29.725 23.6875 29.6125 24.475 29.05C25.0938 28.6563 26.05 28.15 26.2188 27.9812C26.3313 27.8687 26.5 27.8125 26.5 27.475C26.5 27.1938 26.275 27.0812 26.1063 27.025Z" fill="#FFC107"/>
<path d="M14.7995 27.1941C14.237 26.2941 14.1808 26.1254 13.787 25.5629C13.4495 25.0004 12.7183 23.9316 12.2683 23.9316C11.9308 23.9316 11.762 24.1004 11.537 24.3254C11.312 24.5504 11.087 25.0566 10.6933 25.3379C10.3558 25.6191 9.39952 25.5629 9.17452 25.9004C8.94952 26.2379 9.39952 26.7441 9.39952 27.5879C9.39952 27.9254 9.11827 28.1504 9.06202 28.3754C9.00577 28.6566 8.94952 28.8254 9.06202 29.0504C9.28702 29.3879 9.56827 29.5004 11.4808 29.8941C12.4933 30.1191 13.4495 30.6816 14.0683 30.7379C14.687 30.7941 15.7558 30.7379 15.7558 29.2191C15.812 28.3191 15.3058 28.0941 14.7995 27.1941Z" fill="#FFC107"/>
<path d="M15.8688 17.0125C15.5313 16.7875 15.25 16.5625 15.25 16.225C15.25 15.8875 15.475 15.775 15.8125 15.4938C15.8687 15.4375 16.4875 14.875 17.1062 14.875C17.725 14.875 18.4562 15.2687 18.7375 15.3812C19.2437 15.4937 19.75 15.6063 19.6937 16C19.6375 16.5625 19.5812 16.675 19.0187 16.9563C18.625 17.0688 17.8937 17.6875 17.3875 17.6875C17.1625 17.6875 16.825 17.6875 16.6 17.6313C16.4312 17.575 16.15 17.2938 15.8688 17.0125Z" fill="#FFC107"/>
<path d="M15.7566 16.5621C15.8691 16.6746 16.0378 16.7871 16.2066 16.8433C16.3191 16.8996 16.4878 16.9558 16.4878 16.9558C16.7128 16.9558 16.8816 16.9558 16.9941 16.9558C17.2753 16.9558 17.6691 16.8433 18.0628 16.6183C18.4566 16.4496 18.5128 16.3371 18.7941 16.2246C19.0753 16.0558 19.3566 15.8871 19.2441 15.8308C19.1316 15.7746 19.0191 15.8308 18.6253 16.0558C18.2878 16.2808 18.0066 16.3933 17.6691 16.5621C17.5003 16.6183 17.2753 16.7308 17.1066 16.7308C16.9378 16.7308 16.7691 16.7308 16.6003 16.7308C16.4316 16.7308 16.3191 16.6746 16.1503 16.6183C16.0378 16.5621 15.9816 16.5058 15.9253 16.5058C15.8128 16.4496 15.5878 16.2246 15.4753 16.1683C15.4753 16.1683 15.3628 16.1683 15.4191 16.2246C15.5878 16.3933 15.6441 16.4496 15.7566 16.5621Z" fill="#634703"/>
<path d="M17.4443 15.325C17.5006 15.4375 17.6131 15.4375 17.6693 15.4938C17.7256 15.55 17.7818 15.55 17.7818 15.55C17.8381 15.4938 17.7818 15.3813 17.7256 15.3813C17.7256 15.2688 17.4443 15.2688 17.4443 15.325Z" fill="#634703"/>
<path d="M16.5439 15.4373C16.5439 15.4936 16.6564 15.5498 16.6564 15.4936C16.7127 15.4373 16.7689 15.3811 16.8252 15.3811C16.9377 15.3248 16.8814 15.2686 16.7127 15.2686C16.6002 15.3248 16.6002 15.3811 16.5439 15.4373Z" fill="#634703"/>
<path d="M22.0004 25.3937C22.0004 25.4499 22.0004 25.5062 22.0004 25.5624C22.1129 25.7874 22.3941 25.8437 22.6191 25.8437C22.9566 25.8437 23.2941 25.6187 23.4629 25.3937C23.4629 25.3374 23.5191 25.2812 23.5754 25.2249C23.6879 25.0562 23.7441 24.9436 23.8004 24.8874C23.8004 24.8874 23.7441 24.8311 23.7441 24.7749C23.6879 24.6624 23.5191 24.5499 23.2941 24.4936C23.1254 24.4374 22.8441 24.3812 22.7316 24.3812C22.2254 24.3249 21.9441 24.4937 21.7754 24.6624C21.7754 24.6624 21.8316 24.6624 21.8316 24.7187C21.9441 24.8312 22.0004 24.9437 22.0004 25.1124C22.0566 25.2249 22.0004 25.2812 22.0004 25.3937Z" fill="#455A64"/>
<path d="M35.7096 25.4049H34.5996V24.1149H35.7096V22.6299C35.7096 21.7299 35.9246 21.0349 36.3546 20.5449C36.7946 20.0449 37.4346 19.7949 38.2746 19.7949C38.6146 19.7949 38.9996 19.8899 39.4296 20.0799L39.1146 21.6099C39.0446 21.5299 38.9346 21.4549 38.7846 21.3849C38.6446 21.3049 38.4896 21.2649 38.3196 21.2649C37.6496 21.2649 37.3096 21.6999 37.2996 22.5699V24.1149H38.9196V25.4049H37.2996V30.9999H35.7096V25.4049Z" fill="white"/>
<path d="M43.7092 31.1499C42.9992 31.1499 42.3692 30.9899 41.8192 30.6699C41.2692 30.3499 40.8442 29.9149 40.5442 29.3649C40.2442 28.8149 40.0942 28.2049 40.0942 27.5349C40.0942 26.8749 40.2392 26.2699 40.5292 25.7199C40.8292 25.1699 41.2542 24.7349 41.8042 24.4149C42.3542 24.0949 42.9892 23.9349 43.7092 23.9349C44.4292 23.9349 45.0592 24.0949 45.5992 24.4149C46.1492 24.7349 46.5692 25.1699 46.8592 25.7199C47.1592 26.2699 47.3092 26.8749 47.3092 27.5349C47.3092 28.2049 47.1592 28.8149 46.8592 29.3649C46.5592 29.9149 46.1342 30.3499 45.5842 30.6699C45.0442 30.9899 44.4192 31.1499 43.7092 31.1499ZM43.7542 29.8299C44.3342 29.8299 44.7892 29.6149 45.1192 29.1849C45.4592 28.7549 45.6292 28.2149 45.6292 27.5649C45.6292 26.9149 45.4492 26.3699 45.0892 25.9299C44.7292 25.4799 44.2542 25.2549 43.6642 25.2549C43.0942 25.2549 42.6342 25.4749 42.2842 25.9149C41.9442 26.3549 41.7742 26.9049 41.7742 27.5649C41.7742 28.2049 41.9592 28.7449 42.3292 29.1849C42.6992 29.6149 43.1742 29.8299 43.7542 29.8299Z" fill="white"/>
<path d="M48.9942 24.1149H50.6142V25.4649C50.7742 25.0049 51.0342 24.6349 51.3942 24.3549C51.7542 24.0749 52.1642 23.9349 52.6242 23.9349C52.9442 23.9349 53.1642 23.9649 53.2842 24.0249L53.0592 25.6599C52.9692 25.5999 52.7742 25.5699 52.4742 25.5699C52.0042 25.5699 51.5742 25.7199 51.1842 26.0199C50.8042 26.3199 50.6142 26.7999 50.6142 27.4599V30.9999H48.9942V24.1149Z" fill="white"/>
<path d="M58.2116 19.9749H59.9066V29.4999H63.0716V30.9999H58.2116V19.9749Z" fill="white"/>
<path d="M64.7012 24.1149H66.3812V30.9999H64.7012V24.1149ZM65.5262 22.8249C65.2162 22.8249 64.9562 22.7199 64.7462 22.5099C64.5362 22.2999 64.4312 22.0399 64.4312 21.7299C64.4312 21.4499 64.5362 21.2099 64.7462 21.0099C64.9562 20.8099 65.2162 20.7099 65.5262 20.7099C65.8262 20.7099 66.0812 20.8099 66.2912 21.0099C66.5012 21.2099 66.6062 21.4499 66.6062 21.7299C66.6062 22.0399 66.5012 22.2999 66.2912 22.5099C66.0912 22.7199 65.8362 22.8249 65.5262 22.8249Z" fill="white"/>
<path d="M68.6242 24.1149H70.2142L70.2292 25.3749C70.4192 24.9549 70.7192 24.6099 71.1292 24.3399C71.5392 24.0699 72.0192 23.9349 72.5692 23.9349C73.2792 23.9349 73.8242 24.0849 74.2042 24.3849C74.5842 24.6749 74.8392 25.0849 74.9692 25.6149C75.0992 26.1449 75.1642 26.8349 75.1642 27.6849V30.9999H73.5442V27.7299C73.5442 26.8599 73.4592 26.2349 73.2892 25.8549C73.1192 25.4649 72.7692 25.2699 72.2392 25.2699C71.9392 25.2699 71.6342 25.3649 71.3242 25.5549C71.0142 25.7349 70.7542 25.9999 70.5442 26.3499C70.3442 26.6999 70.2442 27.1099 70.2442 27.5799V30.9999H68.6242V24.1149Z" fill="white"/>
<path d="M79.6371 31.1499C78.6871 31.1499 78.0321 30.8699 77.6721 30.3099C77.3221 29.7499 77.1471 28.9699 77.1471 27.9699V24.1149H78.7671V27.5649C78.7671 28.1349 78.7971 28.5799 78.8571 28.8999C78.9271 29.2099 79.0571 29.4399 79.2471 29.5899C79.4471 29.7399 79.7421 29.8149 80.1321 29.8149C80.4121 29.8149 80.6821 29.7349 80.9421 29.5749C81.2021 29.4149 81.4121 29.1999 81.5721 28.9299C81.7421 28.6499 81.8271 28.3449 81.8271 28.0149V24.1149H83.4321V30.9999H82.1121L81.9321 29.9949C81.6821 30.3849 81.3671 30.6749 80.9871 30.8649C80.6171 31.0549 80.1671 31.1499 79.6371 31.1499Z" fill="white"/>
<path d="M87.2671 27.4299L84.8521 24.1149H86.7721L88.1821 26.2449L89.5171 24.1149H91.4821L89.0521 27.3399L91.6921 30.9999H89.8321L88.1971 28.5699L86.6371 30.9999H84.6871L87.2671 27.4299Z" fill="white"/>
</svg>
