<svg width="51" height="51" viewBox="0 0 51 51" fill="none" xmlns="http://www.w3.org/2000/svg">
<path d="M36.4708 17.3238H32.4677C31.6581 17.3238 31.001 17.9799 31.001 18.7905C31.001 19.6011 31.6581 20.2572 32.4677 20.2572H36.4717C37.2804 20.2572 37.9384 20.9153 37.9384 21.7239V40.9043C37.9384 41.7129 37.2804 42.3709 36.4717 42.3709H14.4235C13.6149 42.3709 12.9568 41.7129 12.9568 40.9043V21.7239C12.9568 20.9153 13.6149 20.2572 14.4235 20.2572H18.4276C19.2381 20.2572 19.8942 19.6011 19.8942 18.7905C19.8942 17.9799 19.2381 17.3238 18.4276 17.3238H14.4235C11.9976 17.3238 10.0234 19.298 10.0234 21.7239V40.9043C10.0234 43.3302 11.9976 45.3043 14.4235 45.3043H36.4717C38.8976 45.3043 40.8718 43.3302 40.8718 40.9043V21.7239C40.8708 19.297 38.8976 17.3238 36.4708 17.3238ZM19.9783 14.3631L24.0293 10.3121V29.6215C24.0293 30.4311 24.6854 31.0882 25.496 31.0882C26.3066 31.0882 26.9627 30.4311 26.9627 29.6215V10.3121L31.0137 14.3631C31.3002 14.6496 31.6757 14.7923 32.0511 14.7923C32.4266 14.7923 32.8021 14.6496 33.0886 14.3631C33.6616 13.7911 33.6616 12.8612 33.0886 12.2892L26.5344 5.73406C25.9605 5.16107 25.0325 5.16107 24.4596 5.73406L17.9044 12.2892C17.3315 12.8612 17.3315 13.7911 17.9044 14.3631C18.4774 14.9361 19.4054 14.9361 19.9783 14.3631Z" fill="#FF6600"/>
</svg>
