<svg width="18" height="10" viewBox="0 0 18 10" fill="none" xmlns="http://www.w3.org/2000/svg">
<path d="M17.0406 1.70711C17.4311 1.31658 17.4311 0.683417 17.0406 0.292893C16.6501 -0.0976311 16.0169 -0.0976311 15.6264 0.292893L17.0406 1.70711ZM8.66683 8.66667L7.95972 9.37377C8.14726 9.56131 8.40161 9.66667 8.66683 9.66667C8.93205 9.66667 9.1864 9.56131 9.37394 9.37377L8.66683 8.66667ZM1.70727 0.292893C1.31675 -0.0976318 0.68358 -0.0976318 0.293057 0.292892C-0.0974674 0.683417 -0.0974674 1.31658 0.293056 1.70711L1.70727 0.292893ZM15.6264 0.292893L7.95972 7.95956L9.37394 9.37377L17.0406 1.70711L15.6264 0.292893ZM9.37394 7.95956L1.70727 0.292893L0.293056 1.70711L7.95972 9.37377L9.37394 7.95956Z" fill="#3399FF"/>
</svg>
