<svg width="20" height="20" viewBox="0 0 20 20" fill="none" xmlns="http://www.w3.org/2000/svg">
<rect y="20" width="20" height="20" rx="10" transform="rotate(-90 0 20)" fill="white"/>
<path d="M9.70711 5.6259C9.31658 5.23538 8.68342 5.23538 8.29289 5.6259C7.90237 6.01643 7.90237 6.64959 8.29289 7.04011L9.70711 5.6259ZM12.8333 10.1663L13.5404 10.8734C13.728 10.6859 13.8333 10.4316 13.8333 10.1663C13.8333 9.90112 13.728 9.64677 13.5404 9.45923L12.8333 10.1663ZM8.29289 13.2926C7.90237 13.6831 7.90237 14.3163 8.29289 14.7068C8.68342 15.0973 9.31658 15.0973 9.70711 14.7068L8.29289 13.2926ZM8.29289 7.04011L12.1262 10.8734L13.5404 9.45923L9.70711 5.6259L8.29289 7.04011ZM12.1262 9.45923L8.29289 13.2926L9.70711 14.7068L13.5404 10.8734L12.1262 9.45923Z" fill="#3399FF"/>
</svg>
