<svg width="10" height="17" viewBox="0 0 10 17" fill="none" xmlns="http://www.w3.org/2000/svg">
<path d="M4.99998 16.5C4.82076 16.5 4.64156 16.428 4.50493 16.2842L0.205142 11.7583C-0.0683806 11.4704 -0.0683806 11.0036 0.205142 10.7158C0.478554 10.4281 0.921935 10.4281 1.19548 10.7158L4.99998 14.7206L8.80451 10.716C9.07803 10.4282 9.52137 10.4282 9.79476 10.716C10.0684 11.0038 10.0684 11.4706 9.79476 11.7585L5.49504 16.2844C5.35834 16.4281 5.17914 16.5 4.99998 16.5Z" fill="#9FA8B1"/>
<path d="M5.00002 0.5C5.17924 0.5 5.35844 0.572028 5.49507 0.715782L9.79486 5.24168C10.0684 5.52959 10.0684 5.99637 9.79486 6.28416C9.52145 6.57195 9.07807 6.57195 8.80452 6.28416L5.00002 2.27939L1.19549 6.28402C0.921968 6.57181 0.478632 6.57181 0.205242 6.28402C-0.0684128 5.99623 -0.0684128 5.52945 0.205242 5.24154L4.50496 0.715642C4.64166 0.571865 4.82086 0.5 5.00002 0.5Z" fill="#9FA8B1"/>
</svg>
