<svg width="35" height="35" viewBox="0 0 35 35" fill="none" xmlns="http://www.w3.org/2000/svg">
<path d="M17.4998 2.91699C9.44546 2.91699 2.9165 9.44595 2.9165 17.5003C2.9165 25.5547 9.44546 32.0837 17.4998 32.0837C25.5542 32.0837 32.0832 25.5547 32.0832 17.5003C32.0832 9.44595 25.5542 2.91699 17.4998 2.91699Z" fill="url(#paint0_linear_2409_58065)"/>
<path d="M19.4739 21.365H23.2481L23.8409 17.5311H19.4739V15.4354C19.4739 13.8429 19.9945 12.4305 21.4842 12.4305H23.8781V9.08513C23.4573 9.02826 22.5677 8.9043 20.887 8.9043C17.3768 8.9043 15.3191 10.7578 15.3191 14.9812V17.5318H11.7104V21.3658H15.3184V31.9037C16.0329 32.0101 16.757 32.083 17.5 32.083C18.1716 32.083 18.8271 32.0218 19.4739 31.9343V21.365Z" fill="white"/>
<defs>
<linearGradient id="paint0_linear_2409_58065" x1="7.2864" y1="7.28689" x2="29.6149" y2="29.6154" gradientUnits="userSpaceOnUse">
<stop stop-color="#2AA4F4"/>
<stop offset="1" stop-color="#007AD9"/>
</linearGradient>
</defs>
</svg>
