<svg width="35" height="35" viewBox="0 0 35 35" fill="none" xmlns="http://www.w3.org/2000/svg">
<path d="M33.6185 8.03574C32.4875 8.53668 31.2713 8.87064 29.9879 9.02887C31.2924 8.25449 32.2965 7.01928 32.7675 5.55949C31.5469 6.2748 30.1943 6.80053 28.7556 7.07762C27.6065 5.85991 25.9673 5.10449 24.1517 5.10449C20.6641 5.10449 17.8364 7.90668 17.8364 11.3622C17.8364 11.8515 17.894 12.3276 18.0012 12.7899C12.7541 12.5267 8.0998 10.0322 4.98626 6.24637C4.43939 7.17168 4.13168 8.25449 4.13168 9.39783C4.13168 11.57 5.24366 13.4826 6.9397 14.6092C5.90428 14.5778 4.93012 14.2898 4.07699 13.8275C4.07699 13.8465 4.07699 13.8742 4.07699 13.9012C4.07699 16.9367 6.25428 19.4647 9.14033 20.04C8.61314 20.1844 8.05533 20.2646 7.48074 20.2646C7.07314 20.2646 6.67574 20.2187 6.29074 20.1494C7.09428 22.63 9.42543 24.4435 12.1875 24.4974C10.0263 26.173 7.30428 27.1764 4.3446 27.1764C3.83345 27.1764 3.33324 27.1472 2.83887 27.0874C5.63668 28.8586 8.95658 29.8962 12.5207 29.8962C24.1342 29.8962 30.4881 20.3594 30.4881 12.0855C30.4881 11.8143 30.4794 11.5445 30.467 11.2776C31.7066 10.4019 32.7748 9.29793 33.6185 8.03574Z" fill="url(#paint0_linear_2409_59120)"/>
<defs>
<linearGradient id="paint0_linear_2409_59120" x1="7.54053" y1="6.06116" x2="29.7488" y2="28.2694" gradientUnits="userSpaceOnUse">
<stop stop-color="#2AA4F4"/>
<stop offset="1" stop-color="#007AD9"/>
</linearGradient>
</defs>
</svg>
