<svg width="35" height="35" viewBox="0 0 35 35" fill="none" xmlns="http://www.w3.org/2000/svg">
<path fill-rule="evenodd" clip-rule="evenodd" d="M28.2603 6.15641C28.5852 6.01659 28.94 5.96931 29.2882 6.01942C29.6364 6.06952 29.9655 6.21521 30.2419 6.44155C30.5183 6.66789 30.732 6.96676 30.8611 7.30752C30.9903 7.64829 31.0301 8.0187 30.9767 8.38082C30.2065 13.6019 28.7944 23.1691 28.0448 28.2476C27.9929 28.599 27.8549 28.9305 27.6442 29.2101C27.4334 29.4897 27.157 29.7079 26.8417 29.8436C26.5264 29.9793 26.1829 30.0279 25.8443 29.9847C25.5057 29.9415 25.1835 29.808 24.9089 29.5971C22.2572 27.5608 18.2815 24.5076 16.263 22.957C16.1072 22.8373 15.9786 22.6835 15.8861 22.5063C15.7936 22.3291 15.7396 22.133 15.7278 21.9317C15.716 21.7304 15.7468 21.5288 15.8179 21.3412C15.8891 21.1537 15.9989 20.9847 16.1395 20.8462C17.9891 19.0255 21.6729 15.3992 24.2075 12.904C24.2672 12.8449 24.3035 12.7647 24.3094 12.679C24.3153 12.5934 24.2903 12.5086 24.2393 12.4412C24.1884 12.3737 24.1151 12.3286 24.0338 12.3146C23.9525 12.3005 23.8692 12.3186 23.8001 12.3653C20.5503 14.5746 15.5732 17.9577 13.1339 19.6159C12.6767 19.9266 12.163 20.1357 11.6247 20.2299C11.0865 20.3242 10.5354 20.3015 10.0059 20.1635C8.66271 19.8136 6.7253 19.3086 5.00117 18.8595C4.73123 18.7892 4.48946 18.6319 4.3103 18.41C4.13113 18.1881 4.0237 17.913 4.00331 17.6237C3.98292 17.3345 4.05061 17.046 4.19674 16.7992C4.34288 16.5524 4.55999 16.3599 4.81717 16.2493C10.8191 13.6653 22.5648 8.60884 28.2603 6.15641Z" fill="#32B4FF"/>
</svg>
