<svg width="28" height="24" viewBox="0 0 28 24" fill="none" xmlns="http://www.w3.org/2000/svg">
<path fill-rule="evenodd" clip-rule="evenodd" d="M15.4048 15.9106C15.4048 15.9106 19.5504 4.67151 20.8026 1.27845C20.9061 0.997474 21.0948 0.754749 21.343 0.583245C21.5912 0.41174 21.8869 0.319769 22.1899 0.319824H27.1122C27.2582 0.319855 27.4009 0.362594 27.5223 0.442637C27.6437 0.522681 27.7383 0.636437 27.7942 0.769522C27.85 0.902608 27.8646 1.04905 27.8362 1.19033C27.8077 1.33161 27.7374 1.46139 27.6342 1.56327L25.9412 3.23357V20.7161L27.6342 22.3864C27.7374 22.4883 27.8077 22.618 27.8362 22.7593C27.8646 22.9006 27.85 23.047 27.7942 23.1801C27.7383 23.3132 27.6437 23.427 27.5223 23.507C27.4009 23.5871 27.2582 23.6298 27.1122 23.6298H18.8638C18.7178 23.6298 18.5751 23.5871 18.4537 23.507C18.3323 23.427 18.2377 23.3132 18.1818 23.1801C18.1259 23.047 18.1113 22.9006 18.1398 22.7593C18.1683 22.618 18.2386 22.4883 18.3418 22.3864L20.0347 20.7161V7.61877C20.0347 7.61877 15.5045 19.8995 14.3793 22.9502C14.3057 23.1494 14.1718 23.3214 13.9957 23.443C13.8197 23.5646 13.61 23.6298 13.3951 23.6298H13.3944C13.1729 23.6299 12.9561 23.567 12.7699 23.4487C12.5837 23.3304 12.436 23.1616 12.3445 22.9626L5.26852 7.6042V17.8023C5.26852 17.8023 7.18222 20.8239 8.25425 22.5153C8.3241 22.6256 8.36276 22.7523 8.36622 22.8823C8.36968 23.0123 8.33781 23.1408 8.27392 23.2545C8.21003 23.3682 8.11645 23.463 8.0029 23.529C7.88934 23.595 7.75995 23.6298 7.62816 23.6298H0.838653C0.70154 23.6298 0.567136 23.5922 0.4505 23.521C0.333865 23.4499 0.239606 23.3482 0.178288 23.2272C0.116969 23.1062 0.0910119 22.9707 0.103325 22.836C0.115639 22.7012 0.165736 22.5725 0.248004 22.4643C1.54079 20.7634 3.7919 17.8023 3.7919 17.8023V4.69045C3.7919 4.69045 2.20231 2.80889 1.10961 1.51446C1.01983 1.40811 0.962613 1.27872 0.944667 1.14144C0.926722 1.00416 0.948789 0.864685 1.00828 0.739335C1.06778 0.613985 1.16224 0.507954 1.28061 0.433658C1.39898 0.359362 1.53635 0.319876 1.67664 0.319824H7.27082C7.55432 0.319834 7.83184 0.400334 8.07024 0.551715C8.30863 0.703097 8.49785 0.918966 8.61528 1.17355C10.117 4.43331 15.4048 15.9106 15.4048 15.9106Z" fill="#161616"/>
</svg>
