<svg width="35" height="35" viewBox="0 0 35 35" fill="none" xmlns="http://www.w3.org/2000/svg">
<path d="M31.169 24.3252C30.4143 26.0014 30.0506 26.7506 29.0799 28.2299C27.7209 30.2971 25.8041 32.8783 23.4361 32.8947C21.3279 32.9139 20.7838 31.5193 17.9209 31.5439C15.0608 31.5576 14.4647 32.9221 12.3537 32.9002C9.98302 32.8783 8.17013 30.5541 6.81114 28.4896C3.01036 22.701 2.60841 15.9143 4.95724 12.3049C6.61974 9.74551 9.24747 8.2416 11.7166 8.2416C14.2322 8.2416 15.8127 9.62246 17.8908 9.62246C19.9088 9.62246 21.1365 8.23887 24.0459 8.23887C26.2443 8.23887 28.5686 9.43652 30.2311 11.5037C24.7951 14.4842 25.6783 22.2471 31.169 24.3252ZM21.8365 5.92832C22.8947 4.56934 23.6986 2.65254 23.4061 0.700195C21.6807 0.817774 19.6627 1.91973 18.4842 3.34707C17.415 4.64863 16.5291 6.5791 16.8736 8.44668C18.7576 8.50684 20.7072 7.38301 21.8365 5.92832Z" fill="black"/>
</svg>
