<svg width="29" height="29" viewBox="0 0 29 29" fill="none" xmlns="http://www.w3.org/2000/svg">
<g clip-path="url(#clip0_2409_58058)">
<path fill-rule="evenodd" clip-rule="evenodd" d="M10.0533 0H18.9467C27.0667 0 29 1.93333 29 10.0533V18.9467C29 27.0667 27.0667 29 18.9467 29H10.0533C1.93333 29 0 27.0667 0 18.9467V10.0533C0 1.93333 1.93333 0 10.0533 0Z" fill="#2787F5"/>
<path fill-rule="evenodd" clip-rule="evenodd" d="M23.7491 9.99116C23.8834 9.5431 23.7491 9.21387 23.1096 9.21387H20.995C20.4574 9.21387 20.2095 9.49828 20.0751 9.8119C20.0751 9.8119 18.9997 12.433 17.4764 14.1356C16.9835 14.6284 16.7595 14.7852 16.4906 14.7852C16.3562 14.7852 16.1617 14.6284 16.1617 14.1804V9.99116C16.1617 9.45349 16.0056 9.21387 15.5575 9.21387H12.2346C11.8986 9.21387 11.6965 9.46341 11.6965 9.69992C11.6965 10.2096 12.4582 10.3272 12.5367 11.7609V14.8749C12.5367 15.5576 12.4134 15.6814 12.1446 15.6814C11.4277 15.6814 9.68396 13.0486 8.64975 10.0359C8.44707 9.4504 8.24379 9.21387 7.70336 9.21387H5.58878C4.98461 9.21387 4.86377 9.49828 4.86377 9.8119C4.86377 10.372 5.58066 13.1499 8.20173 16.8239C9.9491 19.3329 12.411 20.693 14.6513 20.693C15.9954 20.693 16.1617 20.391 16.1617 19.8706V17.9743C16.1617 17.3701 16.289 17.2495 16.7147 17.2495C17.0283 17.2495 17.566 17.4064 18.8205 18.6161C20.2543 20.0498 20.4906 20.693 21.2971 20.693H23.4117C24.0159 20.693 24.3179 20.391 24.1437 19.7948C23.953 19.2007 23.2684 18.3386 22.3601 17.3167C21.8672 16.7343 21.128 16.107 20.9039 15.7933C20.5903 15.3902 20.6799 15.2109 20.9039 14.8525C20.9039 14.8525 23.4803 11.2233 23.7491 9.99116Z" fill="white"/>
</g>
<defs>
<clipPath id="clip0_2409_58058">
<rect width="29" height="29" fill="white"/>
</clipPath>
</defs>
</svg>
