<svg width="35" height="35" viewBox="0 0 35 35" fill="none" xmlns="http://www.w3.org/2000/svg">
<path d="M17.9235 13.2469C17.2852 13.247 16.6612 13.0713 16.1304 12.742C15.5996 12.4128 15.1859 11.9447 14.9415 11.3971C14.6972 10.8496 14.6332 10.247 14.7577 9.66562C14.8821 9.08427 15.1895 8.55024 15.6408 8.13107C16.0921 7.7119 16.6672 7.42642 17.2932 7.31073C17.9193 7.19503 18.5682 7.25432 19.158 7.4811C19.7477 7.70787 20.2518 8.09194 20.6065 8.58475C20.9612 9.07756 21.1506 9.65696 21.1506 10.2497C21.1507 10.6433 21.0672 11.033 20.9051 11.3966C20.7429 11.7602 20.5052 12.0906 20.2056 12.3689C19.9059 12.6473 19.5501 12.868 19.1586 13.0187C18.767 13.1693 18.3473 13.2469 17.9235 13.2469ZM17.9235 3C16.3793 2.99994 14.8697 3.4251 13.5857 4.22172C12.3016 5.01834 11.3009 6.15063 10.7099 7.4754C10.1189 8.80018 9.96424 10.2579 10.2655 11.6643C10.5667 13.0707 11.3104 14.3626 12.4023 15.3765C13.4942 16.3905 14.8855 17.081 16.4 17.3607C17.9146 17.6404 19.4845 17.4968 20.9112 16.9481C22.3379 16.3993 23.5573 15.47 24.4152 14.2777C25.2731 13.0854 25.7309 11.6836 25.7309 10.2497C25.7308 8.32698 24.9082 6.48303 23.4441 5.12346C21.9799 3.76389 19.9941 3.00006 17.9235 3Z" fill="#FF7800"/>
<path d="M20.8547 23.5693C22.7259 23.2165 24.4959 22.4547 26.0379 21.3386C26.4845 20.9808 26.7706 20.4605 26.8332 19.892C26.8958 19.3236 26.7297 18.7536 26.3716 18.3074C26.0135 17.8612 25.4926 17.5754 24.9235 17.5129C24.3544 17.4504 23.7838 17.6163 23.3371 17.974C21.743 19.0375 19.8607 19.5871 17.9442 19.5486C16.0152 19.5815 14.1211 19.0328 12.509 17.974C12.0624 17.6163 11.4917 17.4504 10.9227 17.5129C10.3536 17.5754 9.83269 17.8612 9.47455 18.3074C9.1164 18.7536 8.95036 19.3236 9.01294 19.892C9.07553 20.4605 9.36161 20.9808 9.80827 21.3386C11.4026 22.4779 13.2308 23.2484 15.1603 23.5943L10.607 28.3477C10.2118 28.7597 9.99637 29.3115 10.0077 29.8819C10.0191 30.4524 10.2564 30.9951 10.6676 31.3912C11.0788 31.7872 11.6305 32.0043 12.2016 31.9948C12.7727 31.9853 13.3168 31.7501 13.7146 31.3406L17.9448 26.8396L22.6018 31.3696C23.0069 31.7737 23.5561 32.0004 24.1285 32C24.701 31.9996 25.2499 31.772 25.6544 31.3673C26.0589 30.9626 26.2859 30.414 26.2854 29.8422C26.285 29.2703 26.0572 28.7221 25.6521 28.318L20.8547 23.5693Z" fill="#FF7800"/>
</svg>
