<svg width="35" height="35" viewBox="0 0 35 35" fill="none" xmlns="http://www.w3.org/2000/svg">
<path d="M31.7995 14.6442H30.6248V14.5837H17.4998V20.417H25.7416C24.5392 23.8127 21.3083 26.2503 17.4998 26.2503C12.6677 26.2503 8.74984 22.3325 8.74984 17.5003C8.74984 12.6681 12.6677 8.75033 17.4998 8.75033C19.7304 8.75033 21.7596 9.59178 23.3047 10.9663L27.4296 6.84137C24.825 4.41397 21.3411 2.91699 17.4998 2.91699C9.44619 2.91699 2.9165 9.44668 2.9165 17.5003C2.9165 25.554 9.44619 32.0837 17.4998 32.0837C25.5535 32.0837 32.0832 25.554 32.0832 17.5003C32.0832 16.5225 31.9825 15.568 31.7995 14.6442Z" fill="#FBC02D"/>
<path d="M4.59814 10.7125L9.3895 14.2264C10.686 11.0166 13.8257 8.75033 17.5 8.75033C19.7305 8.75033 21.7598 9.59178 23.3049 10.9663L27.4298 6.84137C24.8252 4.41397 21.3413 2.91699 17.5 2.91699C11.8986 2.91699 7.04085 6.07939 4.59814 10.7125Z" fill="#E53935"/>
<path d="M17.4999 32.0833C21.2668 32.0833 24.6895 30.6418 27.2773 28.2975L22.7638 24.4781C21.2996 25.5872 19.4796 26.25 17.4999 26.25C13.7068 26.25 10.486 23.8314 9.27271 20.4561L4.51709 24.1201C6.93063 28.8429 11.8321 32.0833 17.4999 32.0833Z" fill="#4CAF50"/>
<path d="M31.7997 14.6435L31.788 14.583H30.625H17.5V20.4163H25.7418C25.1643 22.0475 24.115 23.454 22.7617 24.4785C22.7624 24.4778 22.7631 24.4778 22.7639 24.4771L27.2774 28.2964C26.958 28.5867 32.0833 24.7913 32.0833 17.4997C32.0833 16.5219 31.9827 15.5674 31.7997 14.6435Z" fill="#1565C0"/>
</svg>
