<svg width="30" height="30" viewBox="0 0 30 30" fill="none" xmlns="http://www.w3.org/2000/svg">
<path d="M15 30C23.2843 30 30 23.2843 30 15C30 6.71573 23.2843 0 15 0C6.71573 0 0 6.71573 0 15C0 23.2843 6.71573 30 15 30Z" fill="#FF4500"/>
<path d="M25.0059 15.0002C25.0059 13.783 24.0214 12.8164 22.8221 12.8164C22.2315 12.8164 21.6945 13.0491 21.3007 13.425C19.7971 12.351 17.7386 11.6529 15.4474 11.5634L16.4498 6.87366L19.7076 7.57175C19.7434 8.39514 20.4236 9.05743 21.2649 9.05743C22.1241 9.05743 22.8221 8.35934 22.8221 7.50015C22.8221 6.64096 22.1241 5.94287 21.2649 5.94287C20.6563 5.94287 20.1193 6.30087 19.8687 6.81996L16.235 6.05027C16.1276 6.03237 16.0202 6.05027 15.9486 6.10397C15.8591 6.15767 15.8054 6.24717 15.7875 6.35457L14.6778 11.5813C12.3508 11.6529 10.2565 12.351 8.73504 13.4429C8.34124 13.067 7.80425 12.8343 7.21356 12.8343C5.99637 12.8343 5.02979 13.8188 5.02979 15.018C5.02979 15.913 5.56678 16.6648 6.31857 17.0049C6.28277 17.2197 6.26487 17.4345 6.26487 17.6672C6.26487 21.0324 10.1849 23.771 15.0179 23.771C19.8508 23.771 23.7708 21.0503 23.7708 17.6672C23.7708 17.4524 23.7529 17.2197 23.7171 17.0049C24.4689 16.6648 25.0059 15.8951 25.0059 15.0002ZM10.0059 16.5574C10.0059 15.6982 10.704 15.0002 11.5632 15.0002C12.4224 15.0002 13.1205 15.6982 13.1205 16.5574C13.1205 17.4166 12.4224 18.1147 11.5632 18.1147C10.704 18.1326 10.0059 17.4166 10.0059 16.5574ZM18.7231 20.6923C17.6491 21.7663 15.6085 21.8379 15.0179 21.8379C14.4093 21.8379 12.3687 21.7484 11.3126 20.6923C11.1515 20.5312 11.1515 20.2806 11.3126 20.1195C11.4737 19.9584 11.7243 19.9584 11.8854 20.1195C12.5656 20.7997 13.9976 21.0324 15.0179 21.0324C16.0381 21.0324 17.488 20.7997 18.1503 20.1195C18.3114 19.9584 18.562 19.9584 18.7231 20.1195C18.8663 20.2806 18.8663 20.5312 18.7231 20.6923ZM18.4367 18.1326C17.5775 18.1326 16.8794 17.4345 16.8794 16.5753C16.8794 15.7161 17.5775 15.018 18.4367 15.018C19.2959 15.018 19.994 15.7161 19.994 16.5753C19.994 17.4166 19.2959 18.1326 18.4367 18.1326Z" fill="white"/>
</svg>
