<svg width="36" height="35" viewBox="0 0 36 35" fill="none" xmlns="http://www.w3.org/2000/svg">
<path fill-rule="evenodd" clip-rule="evenodd" d="M13.3797 31.5839C13.3798 31.8179 13.324 32.0483 13.2174 32.2544C13.1108 32.4606 12.9567 32.636 12.7689 32.7651C12.5811 32.8942 12.3654 32.9729 12.1411 32.9941C11.9169 33.0154 11.691 32.9786 11.4838 32.8869C8.32064 31.4612 5.7267 28.9467 4.13858 25.7665C2.55046 22.5864 2.06513 18.9348 2.76428 15.4264C3.46344 11.9179 5.30438 8.76693 7.97726 6.50367C10.6501 4.24042 13.9918 3.00311 17.4397 3.00001C20.8876 2.9969 24.2312 4.2282 26.9079 6.48665C29.5845 8.74509 31.4307 11.8928 32.1357 15.3999C32.8407 18.9071 32.3615 22.5595 30.7786 25.7426C29.1958 28.9256 26.6061 31.4448 23.4453 32.8761C23.2397 32.967 23.0158 33.0036 22.7933 32.9825C22.5709 32.9614 22.357 32.8834 22.1706 32.7554C21.9843 32.6273 21.8315 32.4533 21.7257 32.2489C21.6199 32.0445 21.5646 31.816 21.5645 31.5839C21.5539 29.9118 21.5539 27.7962 21.5539 27.7962C21.5538 26.6698 21.1232 25.5896 20.3568 24.7932C20.2716 24.7047 20.1833 24.6206 20.0916 24.5409C20.0673 24.5198 20.0498 24.4914 20.0415 24.4596C20.0332 24.4278 20.0345 24.3941 20.0454 24.3631C20.0562 24.3321 20.0759 24.3054 20.1019 24.2864C20.1278 24.2675 20.1588 24.2574 20.1905 24.2574L20.1915 24.257C21.9981 24.257 23.7307 23.5113 25.0081 22.1838C26.2856 20.8564 27.0033 19.056 27.0033 17.1787C27.0056 15.6421 26.5245 14.1468 25.6333 12.9205C25.8653 11.8437 25.8429 10.7245 25.568 9.65863L25.4522 9.20929C25.4055 9.02797 25.2913 8.87337 25.1349 8.77951C24.9784 8.68564 24.7925 8.6602 24.618 8.70878L24.1856 8.82911C23.2309 9.09494 22.3461 9.58098 21.5971 10.2511C21.1348 10.1505 20.6638 10.1 20.1915 10.1003H14.7421C14.2699 10.1 13.799 10.1506 13.3368 10.2512C12.5878 9.58105 11.703 9.09501 10.7483 8.82918L10.3159 8.70885C10.1414 8.66027 9.95552 8.68571 9.79907 8.77958C9.64262 8.87344 9.52846 9.02804 9.4817 9.20936L9.3659 9.6587C9.09104 10.7246 9.06862 11.8438 9.30058 12.9206C8.40929 14.1468 7.92811 15.642 7.93032 17.1787C7.93032 19.056 8.64799 20.8564 9.92544 22.1838C11.2029 23.5113 12.9355 24.257 14.7421 24.257H14.7431C14.7748 24.2572 14.8056 24.2675 14.8315 24.2864C14.8574 24.3054 14.877 24.3321 14.8878 24.3631C14.8985 24.394 14.8999 24.4277 14.8917 24.4594C14.8835 24.4912 14.8661 24.5196 14.8418 24.5407C14.7504 24.6206 14.6621 24.7047 14.5768 24.7932C13.9768 25.4167 13.5783 26.2189 13.4369 27.0884H12.6986C12.0641 27.0884 11.4383 26.9349 10.8708 26.64C10.3033 26.3451 9.80961 25.917 9.42891 25.3896L9.4285 25.389C9.17483 25.0375 8.8459 24.7523 8.46774 24.5558C8.08959 24.3593 7.67261 24.257 7.24983 24.257H7.24915C7.06849 24.257 6.89523 24.3316 6.76748 24.4644C6.63974 24.5971 6.56797 24.7771 6.56797 24.9649C6.56797 25.1526 6.63974 25.3326 6.76748 25.4654C6.89523 25.5981 7.06849 25.6727 7.24915 25.6727C7.45688 25.6727 7.66107 25.7286 7.84183 25.835C8.0226 25.9413 8.17378 26.0945 8.28065 26.2796L8.38637 26.4627C8.87057 27.3012 9.55549 27.9952 10.3745 28.477C11.1934 28.9588 12.1185 29.212 13.0596 29.2119H13.3797V31.5839Z" fill="#2D2D2D"/>
</svg>
