<svg width="10" height="18" viewBox="0 0 10 18" fill="none" xmlns="http://www.w3.org/2000/svg">
<path d="M2.04036 0.625901C1.64983 0.235377 1.01667 0.235377 0.626145 0.625901C0.235621 1.01643 0.235621 1.64959 0.626145 2.04011L2.04036 0.625901ZM8.99992 8.99967L9.70703 9.70678C9.89456 9.51925 9.99992 9.26489 9.99992 8.99967C9.99992 8.73446 9.89456 8.4801 9.70703 8.29257L8.99992 8.99967ZM0.626145 15.9592C0.235621 16.3498 0.235621 16.9829 0.626145 17.3734C1.01667 17.764 1.64983 17.764 2.04036 17.3734L0.626145 15.9592ZM0.626145 2.04011L8.29281 9.70678L9.70703 8.29257L2.04036 0.625901L0.626145 2.04011ZM8.29281 8.29257L0.626145 15.9592L2.04036 17.3734L9.70703 9.70678L8.29281 8.29257Z" fill="#1843BF"/>
</svg>
