<svg width="154" height="146" viewBox="0 0 154 146" fill="none" xmlns="http://www.w3.org/2000/svg">
<path d="M34.1606 19.1106C26.3389 48.0442 5.97655 63.8609 2.20655 77.8056C-1.56345 91.7502 -1.46378 123.197 62.6782 140.539C126.82 157.881 146.884 121.035 151.026 105.695C170.444 33.8829 48.0142 -32.1354 34.1606 19.1106Z" fill="#F5F8FB"/>
<path d="M117.083 121.75H36.9167C32.1283 121.75 28.25 117.872 28.25 113.083V32.9167C28.25 28.1283 32.1283 24.25 36.9167 24.25H117.083C121.872 24.25 125.75 28.1283 125.75 32.9167V113.083C125.75 117.872 121.872 121.75 117.083 121.75Z" fill="#F3F3F1"/>
<path d="M38 113.083V32.9167C38 28.1283 41.8783 24.25 46.6667 24.25H36.9167C32.1283 24.25 28.25 28.1283 28.25 32.9167V113.083C28.25 117.872 32.1283 121.75 36.9167 121.75H46.6667C41.8783 121.75 38 117.872 38 113.083Z" fill="#D5DBE1"/>
<path d="M99.7499 63.25H88.9165H65.0832H54.2498C51.8578 63.25 49.9165 65.1913 49.9165 67.5833V104.417C49.9165 106.809 51.8578 108.75 54.2498 108.75H99.7499C102.142 108.75 104.083 106.809 104.083 104.417V67.5833C104.083 65.1913 102.142 63.25 99.7499 63.25Z" fill="#FEB46D"/>
<path d="M59.6665 104.417V67.5833C59.6665 65.1913 61.6078 63.25 63.9999 63.25H54.2498C51.8578 63.25 49.9165 65.1913 49.9165 67.5833V104.417C49.9165 106.809 51.8578 108.75 54.2498 108.75H63.9999C61.6078 108.75 59.6665 106.809 59.6665 104.417Z" fill="#FF7F2E"/>
<path d="M121.776 8.39844H126.109V17.0651H121.776V8.39844Z" fill="#A4AFC1"/>
<path d="M132.61 22.4824H141.276V26.8158H132.61V22.4824Z" fill="#A4AFC1"/>
<path d="M84.9429 18.6904C81.3592 18.6904 78.4429 15.7741 78.4429 12.1904C78.4429 8.60676 81.3592 5.69043 84.9429 5.69043C88.5265 5.69043 91.4429 8.60676 91.4429 12.1904C91.4429 15.7741 88.5309 18.6904 84.9429 18.6904ZM84.9429 10.0238C83.7469 10.0238 82.7762 10.9988 82.7762 12.1904C82.7762 13.3821 83.7469 14.3571 84.9429 14.3571C86.1389 14.3571 87.1095 13.3821 87.1095 12.1904C87.1095 10.9988 86.1389 10.0238 84.9429 10.0238Z" fill="#A4AFC1"/>
<path d="M73.75 37.25H80.25V95.75H73.75V37.25Z" fill="black"/>
<path d="M88.7865 53.6299L76.9999 41.8476L65.2132 53.6342L60.6199 49.0366L74.7032 34.9532C75.9729 33.6836 78.0312 33.6836 79.3009 34.9532L93.3842 49.0366L88.7865 53.6299Z" fill="black"/>
<path d="M99.7499 112H54.2498C50.0682 112 46.6665 108.598 46.6665 104.417V67.5833C46.6665 63.4017 50.0682 60 54.2498 60H65.0832V66.5H54.2498C53.6518 66.5 53.1665 66.9853 53.1665 67.5833V104.417C53.1665 105.015 53.6518 105.5 54.2498 105.5H99.7499C100.348 105.5 100.833 105.015 100.833 104.417V67.5833C100.833 66.9853 100.348 66.5 99.7499 66.5H88.9165V60H99.7499C103.932 60 107.333 63.4017 107.333 67.5833V104.417C107.333 108.598 103.932 112 99.7499 112Z" fill="black"/>
<path d="M117.083 125H36.9167C30.343 125 25 119.657 25 113.083V32.9167C25 26.343 30.343 21 36.9167 21H117.083C123.657 21 129 26.343 129 32.9167V113.083C129 119.657 123.657 125 117.083 125ZM36.9167 27.5C33.931 27.5 31.5 29.931 31.5 32.9167V113.083C31.5 116.069 33.931 118.5 36.9167 118.5H117.083C120.069 118.5 122.5 116.069 122.5 113.083V32.9167C122.5 29.931 120.069 27.5 117.083 27.5H36.9167Z" fill="black"/>
<path d="M7.6665 118.5H146.333V125H7.6665V118.5Z" fill="black"/>
</svg>
