<svg width="14" height="14" viewBox="0 0 14 14" fill="none" xmlns="http://www.w3.org/2000/svg">
<path fill-rule="evenodd" clip-rule="evenodd" d="M8.49306 7L13.6917 1.80138C14.104 1.38904 14.104 0.720746 13.6917 0.308417C13.2793 -0.103911 12.6111 -0.103925 12.1987 0.308417L7.0001 5.50704L1.80148 0.308417C1.38914 -0.103925 0.720852 -0.103925 0.308524 0.308417C-0.103804 0.72076 -0.103818 1.38905 0.308524 1.80138L5.50714 7L0.308524 12.1986C-0.103818 12.611 -0.103818 13.2793 0.308524 13.6916C0.514156 13.8983 0.7843 14.0006 1.055 14.0006C1.32516 14.0006 1.59477 13.8972 1.80148 13.6916L7.0001 8.49296L12.1987 13.6916C12.4054 13.8983 12.6745 14.0006 12.9452 14.0006C13.2154 14.0006 13.485 13.8972 13.6917 13.6916C14.104 13.2792 14.104 12.611 13.6917 12.1986L8.49306 7" fill="#3399FF"/>
</svg>
