<svg width="30" height="30" viewBox="0 0 30 30" fill="none" xmlns="http://www.w3.org/2000/svg">
<path fill-rule="evenodd" clip-rule="evenodd" d="M11.25 2.49949H6.24957C5.25465 2.49949 4.30074 2.89441 3.5988 3.59872C2.89449 4.30066 2.49957 5.25457 2.49957 6.24949V11.2499C2.49957 11.9401 3.05973 12.5003 3.74997 12.5003C4.44021 12.5003 5.00037 11.9401 5.00037 11.2499V6.24949C5.00037 5.91784 5.13162 5.59909 5.36718 5.3659C5.60038 5.13035 5.91912 4.99909 6.25077 4.99909H11.2512C11.9414 4.99909 12.5016 4.43893 12.5016 3.74869C12.5016 3.05845 11.9414 2.49829 11.2512 2.49829L11.25 2.49949Z" fill="#9FA8B1"/>
<path fill-rule="evenodd" clip-rule="evenodd" d="M2.49961 17.4994V23.749C2.49961 24.7439 2.89453 25.6978 3.59884 26.3998C4.30078 27.1041 5.25469 27.499 6.24961 27.499H9.99962C10.6899 27.499 11.25 26.9388 11.25 26.2486C11.25 25.5584 10.6899 24.9982 9.99962 24.9982H6.24961C5.91796 24.9982 5.59921 24.867 5.36602 24.6314C5.13048 24.3982 4.99921 24.0795 4.99921 23.7478V17.4982C4.99921 16.808 4.43905 16.2478 3.74881 16.2478C3.05857 16.2478 2.49841 16.808 2.49841 17.4982L2.49961 17.4994Z" fill="#9FA8B1"/>
<path fill-rule="evenodd" clip-rule="evenodd" d="M18.75 27.5003H23.7504C24.7453 27.5003 25.6992 27.1054 26.4012 26.4011C27.1055 25.6991 27.5004 24.7452 27.5004 23.7503V18.7499C27.5004 18.0597 26.9403 17.4995 26.25 17.4995C25.5598 17.4995 24.9996 18.0597 24.9996 18.7499V23.7503C24.9996 24.082 24.8684 24.4007 24.6328 24.6339C24.3996 24.8694 24.0809 25.0007 23.7492 25.0007H18.7488C18.0586 25.0007 17.4984 25.5609 17.4984 26.2511C17.4984 26.9413 18.0586 27.5015 18.7488 27.5015L18.75 27.5003Z" fill="#9FA8B1"/>
<path fill-rule="evenodd" clip-rule="evenodd" d="M27.5004 11.2499V6.24951C27.5004 5.25459 27.1055 4.30068 26.4012 3.59874C25.6993 2.89443 24.7454 2.49951 23.7504 2.49951H18.75C18.0598 2.49951 17.4996 3.05967 17.4996 3.74991C17.4996 4.44015 18.0598 5.00031 18.75 5.00031H23.7504C24.0821 5.00031 24.4008 5.13156 24.634 5.36712C24.8696 5.60032 25.0008 5.91906 25.0008 6.25071V11.2511C25.0008 11.9414 25.561 12.5015 26.2512 12.5015C26.9415 12.5015 27.5016 11.9414 27.5016 11.2511L27.5004 11.2499Z" fill="#9FA8B1"/>
<path fill-rule="evenodd" clip-rule="evenodd" d="M8.7504 16.2503H21.2508C21.941 16.2503 22.5012 15.6902 22.5012 14.9999C22.5012 14.3097 21.941 13.7495 21.2508 13.7495H8.7504C8.06016 13.7495 7.5 14.3097 7.5 14.9999C7.5 15.6902 8.06016 16.2503 8.7504 16.2503Z" fill="#9FA8B1"/>
</svg>
