<svg width="25" height="25" viewBox="0 0 25 25" fill="none" xmlns="http://www.w3.org/2000/svg">
<path d="M16.0713 8.53799L13.6719 10.9374V4.74316H11.2725V10.9374L8.92871 8.53799L7.25488 10.2118L12.4999 15.4578L17.7449 10.2118L16.0713 8.53799Z" fill="#1843BF"/>
<path d="M12.5 2.34375C18.08 2.34375 22.6005 6.86425 22.6005 12.4443C22.6005 18.0243 18.08 22.5448 12.5 22.5448C6.92 22.5448 2.3995 18.0243 2.3995 12.4443C2.3995 6.86425 6.92 2.34375 12.5 2.34375ZM12.5 0C5.58 0 0 5.58 0 12.5C0 19.42 5.58 25 12.5 25C19.42 25 25 19.42 25 12.5C25 5.58 19.3643 0 12.5 0Z" fill="#1843BF"/>
<path d="M12.5001 17.8574C10.9933 17.8574 9.65433 17.2432 8.70508 16.2949L7.03125 17.9687C8.42675 19.3642 10.38 20.2568 12.5 20.2568C14.62 20.2568 16.5733 19.3642 17.9688 17.9687L16.2949 16.2949C15.29 17.2432 13.9512 17.8574 12.4999 17.8574H12.5001Z" fill="#1843BF"/>
</svg>
