<svg width="26" height="28" viewBox="0 0 26 28" fill="none" xmlns="http://www.w3.org/2000/svg">
<path d="M11.2508 28C13.2882 28 14.9926 26.5475 15.384 24.625H7.11749C7.50909 26.5475 9.21348 28 11.2508 28V28Z" fill="#9FA8B1"/>
<path d="M19.1392 14.499C19.1346 14.499 19.1301 14.5 19.1256 14.5C14.7842 14.5 11.2506 10.9674 11.2506 6.62506C11.2506 5.43133 11.5252 4.30289 12.0033 3.28817C11.7557 3.26469 11.5048 3.25006 11.2506 3.25006C6.90149 3.25006 3.3757 6.77564 3.3757 11.125V14.2615C3.3757 16.4878 2.40032 18.5894 0.689131 20.0361C0.118735 20.5232 -0.134431 21.2994 0.0703263 22.0567C0.308867 22.9375 1.1796 23.5001 2.09318 23.5001H20.4025C21.361 23.5001 22.2645 22.879 22.4589 21.9397C22.6097 21.2129 22.351 20.4872 21.7874 20.0136C20.1516 18.6423 19.2055 16.6273 19.1392 14.499V14.499Z" fill="#9FA8B1"/>
</svg>
