<svg width="28" height="29" viewBox="0 0 28 29" fill="none" xmlns="http://www.w3.org/2000/svg">
<g clip-path="url(#clip0_825_519)">
<path d="M21.4846 25.259C16.1047 25.259 12.4102 28.0458 9.81791 28.0458C7.22557 28.0458 1.78113 26.5555 1.78113 14.6299C1.78113 2.70421 9.10546 0.95343 11.9568 0.95343C25.3089 0.95343 31.0124 25.259 21.4846 25.259Z" fill="white"/>
<path d="M20.7084 6.13885H21.4861V7.69441H20.7084V6.13885Z" fill="#A4AFC1"/>
<path d="M22.4584 8.47223H24.0139V9.25H22.4584V8.47223Z" fill="#A4AFC1"/>
<path d="M6.80556 15.8611C5.94611 15.8611 5.25 16.5572 5.25 17.4166V21.6944C5.25 22.5539 5.94611 23.25 6.80556 23.25H21.1944C22.0539 23.25 22.75 22.5539 22.75 21.6944V17.4166C22.75 16.5572 22.0539 15.8611 21.1944 15.8611H6.80556Z" fill="#F3F3F1"/>
<path d="M18.0833 14.3055L14 18.5833L9.91669 14.3055H12.6389V9.24997C12.6389 9.03531 12.8131 8.86108 13.0278 8.86108H14.9722C15.1869 8.86108 15.3611 9.03531 15.3611 9.24997V14.3055H18.0833Z" fill="#FEB46D"/>
<path d="M7 21.6944V17.4166C7 16.5572 7.69611 15.8611 8.55556 15.8611H6.80556C5.94611 15.8611 5.25 16.5572 5.25 17.4166V21.6944C5.25 22.5539 5.94611 23.25 6.80556 23.25H8.55556C7.69611 23.25 7 22.5539 7 21.6944Z" fill="#D5DBE1"/>
<path d="M14.3889 9.24997C14.3889 9.03531 14.5631 8.86108 14.7778 8.86108H13.0278C12.8131 8.86108 12.6389 9.03531 12.6389 9.24997V14.3055H14.3889V9.24997Z" fill="#FF7F2E"/>
<path d="M11.6667 14.3055H9.91669L14 18.5833L14.875 17.6663L11.6667 14.3055Z" fill="#FF7F2E"/>
<path d="M21.1945 23.8333H6.80557C5.62569 23.8333 4.66669 22.8743 4.66669 21.6944V17.4167C4.66669 16.2368 5.62569 15.2778 6.80557 15.2778H7.97224V16.4444H6.80557C6.26969 16.4444 5.83335 16.8808 5.83335 17.4167V21.6944C5.83335 22.2303 6.26969 22.6667 6.80557 22.6667H21.1945C21.7303 22.6667 22.1667 22.2303 22.1667 21.6944V17.4167C22.1667 16.8808 21.7303 16.4444 21.1945 16.4444H20.0278V15.2778H21.1945C22.3743 15.2778 23.3333 16.2368 23.3333 17.4167V21.6944C23.3333 22.8743 22.3743 23.8333 21.1945 23.8333Z" fill="black"/>
<path d="M14 19.1667C13.8406 19.1667 13.6881 19.1013 13.5784 18.9862L9.49511 14.7084C9.33333 14.5397 9.289 14.2908 9.38077 14.0761C9.47255 13.8614 9.68333 13.7222 9.91666 13.7222H12.0556V9.24999C12.0556 8.7141 12.4919 8.27777 13.0278 8.27777H14.9722C15.5081 8.27777 15.9444 8.7141 15.9444 9.24999V13.7222H18.0833C18.3167 13.7222 18.5274 13.8614 18.6192 14.0761C18.711 14.29 18.6667 14.5397 18.5049 14.7084L14.4216 18.9862C14.3119 19.1013 14.1594 19.1667 14 19.1667ZM11.2801 14.8889L14 17.7387L16.7199 14.8889H15.3611C15.0391 14.8889 14.7778 14.6275 14.7778 14.3055V9.44444H13.2222V14.3055C13.2222 14.6275 12.9609 14.8889 12.6389 14.8889H11.2801Z" fill="black"/>
</g>
<defs>
<clipPath id="clip0_825_519">
<rect width="28" height="28" fill="white" transform="translate(0 0.5)"/>
</clipPath>
</defs>
</svg>
