<svg width="50" height="50" viewBox="0 0 50 50" fill="none" xmlns="http://www.w3.org/2000/svg">
<path d="M48.4777 28.271C43.2249 20.228 43.7833 11.9835 41.2513 8.10714C38.7194 4.23075 31.1736 -2.45259 13.3444 9.19325C-4.48477 20.8391 0.0499527 33.4988 2.83606 37.7613C15.875 57.7224 57.7819 42.5155 48.4777 28.271Z" fill="#EFEFEF"/>
<path d="M7.60006 44.3903C6.45145 44.3903 5.51672 43.4556 5.51672 42.307C5.51672 41.1584 6.45145 40.2236 7.60006 40.2236C8.74867 40.2236 9.68339 41.1584 9.68339 42.307C9.68339 43.4556 8.74867 44.3903 7.60006 44.3903ZM7.60006 41.6125C7.21672 41.6125 6.90561 41.9236 6.90561 42.307C6.90561 42.6903 7.21672 43.0014 7.60006 43.0014C7.98339 43.0014 8.2945 42.6903 8.2945 42.307C8.2945 41.9236 7.98339 41.6125 7.60006 41.6125Z" fill="#A4AFC1"/>
<path d="M40.4904 4.1665H41.8792V6.94428H40.4904V4.1665Z" fill="#A4AFC1"/>
<path d="M40.4904 12.1528H41.8792V14.9306H40.4904V12.1528Z" fill="#A4AFC1"/>
<path d="M35.6293 8.68018H38.407V10.0691H35.6293V8.68018Z" fill="#A4AFC1"/>
<path d="M43.6154 8.68018H46.3931V10.0691H43.6154V8.68018Z" fill="#A4AFC1"/>
<path d="M9.375 21.5278L25 26.7362L40.625 21.5278H9.375Z" fill="#FEB46D"/>
<path d="M37.8472 37.8471H12.1528C10.6181 37.8471 9.375 36.6041 9.375 35.0693V19.0971C9.375 17.5624 10.6181 16.3193 12.1528 16.3193H37.8472C39.3819 16.3193 40.625 17.5624 40.625 19.0971V35.0693C40.625 36.6041 39.3819 37.8471 37.8472 37.8471Z" fill="#FEB46D"/>
<path d="M20.4861 16.3195V13.5417C20.4861 12.7751 21.1083 12.1528 21.875 12.1528H28.125C28.8916 12.1528 29.5139 12.7751 29.5139 13.5417V16.3195H20.4861Z" fill="#F3F3F1"/>
<path d="M24.9999 27.7779C24.8888 27.7779 24.7777 27.7599 24.6708 27.7238L9.04578 22.5155L9.7055 20.5391L24.9999 25.6377L40.2958 20.5391L40.9555 22.5155L25.3305 27.7238C25.2222 27.7599 25.1111 27.7779 24.9999 27.7779Z" fill="black"/>
<path d="M37.8473 38.8889H12.1528C10.0459 38.8889 8.33337 37.1764 8.33337 35.0695V19.0973C8.33337 16.9903 10.0459 15.2778 12.1528 15.2778H37.8473C39.9542 15.2778 41.6667 16.9903 41.6667 19.0973V27.0834H39.5834V19.0973C39.5834 18.1403 38.8042 17.3612 37.8473 17.3612H12.1528C11.1959 17.3612 10.4167 18.1403 10.4167 19.0973V35.0695C10.4167 36.0264 11.1959 36.8056 12.1528 36.8056H37.8473C38.8042 36.8056 39.5834 36.0264 39.5834 35.0695V30.6876H41.6667V35.0695C41.6667 37.1764 39.9542 38.8889 37.8473 38.8889Z" fill="black"/>
<path d="M30.5556 16.3197H28.4722V13.5419C28.4722 13.3502 28.3167 13.1947 28.125 13.1947H21.875C21.6833 13.1947 21.5278 13.3502 21.5278 13.5419V16.3197H19.4445V13.5419C19.4445 12.2016 20.5347 11.1113 21.875 11.1113H28.125C29.4653 11.1113 30.5556 12.2016 30.5556 13.5419V16.3197Z" fill="black"/>
</svg>
