<svg width="20" height="21" viewBox="0 0 20 21" fill="none" xmlns="http://www.w3.org/2000/svg">
<path d="M17.9325 1.61523H8.71978C8.06318 1.61523 7.52905 2.13297 7.52905 2.76932V5.47804H8.61601V2.76932C8.61601 2.71387 8.66257 2.66875 8.71978 2.66875H17.9325C17.9897 2.66875 18.0363 2.71387 18.0363 2.76932V11.6986C18.0363 11.7541 17.9897 11.7992 17.9325 11.7992H15.225V12.8527H17.9325C18.5891 12.8527 19.1233 12.335 19.1233 11.6986V2.76932C19.1232 2.13297 18.5891 1.61523 17.9325 1.61523Z" fill="#156AE8" stroke="#156AE8"/>
<path d="M12.1138 7.33887H2.90109C2.24449 7.33887 1.71033 7.8566 1.71033 8.49299V17.4223C1.71036 18.0587 2.24449 18.5764 2.90109 18.5764H12.1138C12.7704 18.5764 13.3046 18.0587 13.3046 17.4223V8.49299C13.3046 7.8566 12.7704 7.33887 12.1138 7.33887ZM12.1139 17.5229H2.90109C2.84384 17.5229 2.79728 17.4778 2.79728 17.4223V8.49299C2.79728 8.4375 2.84384 8.39238 2.90109 8.39238H12.1138C12.1711 8.39238 12.2176 8.4375 12.2176 8.49299V17.4223H12.2177C12.2177 17.4778 12.1711 17.5229 12.1139 17.5229Z" fill="#156AE8" stroke="#156AE8"/>
</svg>
