<svg width="20" height="20" viewBox="0 0 20 20" fill="none" xmlns="http://www.w3.org/2000/svg">
<g clip-path="url(#clip0_2879_62663)">
<path d="M15.892 7.05226C15.7587 6.82288 15.5656 6.63403 15.3333 6.50593V4.66659C15.3387 4.41183 15.2914 4.15869 15.1943 3.9231C15.0972 3.68751 14.9524 3.47454 14.769 3.29759L12.0357 0.564261C11.8587 0.380891 11.6458 0.236099 11.4102 0.138982C11.1746 0.0418655 10.9214 -0.00547769 10.6667 -7.2468e-05H1C0.734784 -7.2468e-05 0.48043 0.105284 0.292893 0.292821C0.105357 0.480357 0 0.734711 0 0.999928L0 11.1499C7.61671e-05 11.2613 0.0280657 11.3709 0.0814115 11.4687C0.134757 11.5665 0.211758 11.6494 0.30538 11.7098C0.399001 11.7701 0.506258 11.8061 0.61735 11.8143C0.728443 11.8226 0.83983 11.8028 0.941333 11.7569L3.26667 10.6999L5.92467 11.9053C6.01151 11.9453 6.10603 11.966 6.20167 11.9659C6.29616 11.966 6.38954 11.9455 6.47533 11.9059L9.12933 10.6999L10.8477 11.4769L10.4143 12.2179L9.40667 11.7609C9.3203 11.7208 9.22622 11.7001 9.131 11.7001C9.03578 11.7001 8.9417 11.7208 8.85533 11.7609L6.2 12.9666L3.54333 11.7609C3.457 11.7209 3.36299 11.7002 3.26783 11.7002C3.17268 11.7002 3.07866 11.7209 2.99233 11.7609L0.387667 12.9419C0.272069 12.9952 0.174135 13.0804 0.105439 13.1876C0.0367424 13.2947 0.000154917 13.4193 0 13.5466L0 18.9999C0 19.2651 0.105357 19.5195 0.292893 19.707C0.48043 19.8946 0.734784 19.9999 1 19.9999H14.3333C14.5986 19.9999 14.8529 19.8946 15.0404 19.707C15.228 19.5195 15.3333 19.2651 15.3333 18.9999V15.9999H18.559C18.811 15.9991 19.0583 15.9309 19.2751 15.8025C19.492 15.674 19.6705 15.4899 19.7923 15.2693C19.9296 15.0291 20.0012 14.7571 19.9999 14.4805C19.9987 14.2039 19.9247 13.9325 19.7853 13.6936L15.892 7.05226ZM14.1953 3.66659H12.3333C12.1565 3.66659 11.987 3.59636 11.8619 3.47133C11.7369 3.34631 11.6667 3.17674 11.6667 2.99993V1.13793L14.1953 3.66659ZM9.40667 10.0943C9.32032 10.0541 9.22624 10.0333 9.131 10.0333C9.03576 10.0333 8.94168 10.0541 8.85533 10.0943L6.2 11.2999L3.54333 10.0943C3.457 10.0542 3.36299 10.0335 3.26783 10.0335C3.17268 10.0335 3.07866 10.0542 2.99233 10.0943L0.666667 11.1499V0.999928C0.666667 0.911522 0.701786 0.826737 0.764298 0.764225C0.82681 0.701713 0.911595 0.666594 1 0.666594H10.6667C10.7551 0.666594 10.8399 0.701713 10.9024 0.764225C10.9649 0.826737 11 0.911522 11 0.999928V2.99993C11 3.35355 11.1405 3.69269 11.3905 3.94274C11.6406 4.19279 11.9797 4.33326 12.3333 4.33326H14.3333C14.4217 4.33326 14.5065 4.36838 14.569 4.43089C14.6315 4.4934 14.6667 4.57819 14.6667 4.66659V6.33326C14.4172 6.33454 14.1725 6.40171 13.9573 6.52797C13.7421 6.65423 13.5641 6.83509 13.4413 7.05226L11.1867 10.8999L9.40667 10.0943ZM14.6667 18.9999C14.6667 19.0883 14.6315 19.1731 14.569 19.2356C14.5065 19.2981 14.4217 19.3333 14.3333 19.3333H1C0.911595 19.3333 0.82681 19.2981 0.764298 19.2356C0.701786 19.1731 0.666667 19.0883 0.666667 18.9999V13.5469L3.26667 12.3666L5.92467 13.5719C6.01098 13.6118 6.10492 13.6324 6.2 13.6324C6.29508 13.6324 6.38902 13.6118 6.47533 13.5719L9.12867 12.3666L10.0747 12.7963L9.549 13.6933C9.40964 13.9321 9.33562 14.2035 9.33439 14.48C9.33316 14.7565 9.40477 15.0285 9.542 15.2686C9.66366 15.4892 9.84204 15.6733 10.0587 15.8019C10.2753 15.9305 10.5224 15.9988 10.7743 15.9999H14.6667V18.9999ZM19.213 14.9376C19.1498 15.0564 19.0557 15.1559 18.9405 15.2256C18.8254 15.2952 18.6936 15.3324 18.559 15.3333H10.7743C10.6398 15.3325 10.5079 15.2953 10.3928 15.2256C10.2776 15.1559 10.1835 15.0564 10.1203 14.9376C10.0413 14.7994 10 14.6429 10.0007 14.4837C10.0014 14.3246 10.0441 14.1684 10.1243 14.0309L14.0163 7.38959C14.0794 7.27207 14.1732 7.17383 14.2876 7.10536C14.4021 7.03688 14.533 7.00071 14.6663 7.00071C14.7997 7.00071 14.9306 7.03688 15.0451 7.10536C15.1595 7.17383 15.2533 7.27207 15.3163 7.38959L19.2093 14.0309C19.2894 14.1685 19.3319 14.3246 19.3325 14.4838C19.3332 14.6429 19.292 14.7994 19.213 14.9376Z" fill="#FF3B2E"/>
<path d="M14.6666 8.33325C14.5782 8.33325 14.4934 8.36837 14.4309 8.43088C14.3684 8.49339 14.3333 8.57818 14.3333 8.66659V12.6666C14.3333 12.755 14.3684 12.8398 14.4309 12.9023C14.4934 12.9648 14.5782 12.9999 14.6666 12.9999C14.755 12.9999 14.8398 12.9648 14.9023 12.9023C14.9648 12.8398 14.9999 12.755 14.9999 12.6666V8.66659C14.9999 8.57818 14.9648 8.49339 14.9023 8.43088C14.8398 8.36837 14.755 8.33325 14.6666 8.33325Z" fill="#FF3B2E"/>
<path d="M14.6666 13.6597C14.5782 13.6597 14.4934 13.6948 14.4309 13.7573C14.3684 13.8198 14.3333 13.9046 14.3333 13.993V14C14.3333 14.0436 14.342 14.0867 14.3588 14.127C14.3756 14.1672 14.4002 14.2037 14.4312 14.2343C14.4622 14.265 14.499 14.2892 14.5394 14.3055C14.5798 14.3219 14.623 14.3301 14.6666 14.3297C14.7554 14.3297 14.8406 14.2944 14.9035 14.2315C14.9663 14.1687 15.0016 14.0835 15.0016 13.9947C15.0016 13.9058 14.9663 13.8206 14.9035 13.7578C14.8406 13.695 14.7554 13.6597 14.6666 13.6597Z" fill="#FF3B2E"/>
</g>
<defs>
<clipPath id="clip0_2879_62663">
<rect width="20" height="20" fill="white"/>
</clipPath>
</defs>
</svg>
