<svg width="92" height="92" viewBox="0 0 92 92" fill="none" xmlns="http://www.w3.org/2000/svg">
<path d="M1.8083 51.5406C2.1823 49.5305 3.7816 47.97 5.799 47.6381C19.1973 45.4338 27.695 45.48 40.202 47.6207C42.1984 47.9624 43.7767 49.5103 44.152 51.5006C46.7068 65.051 46.5262 73.6581 44.1435 86.4871C43.7714 88.4903 42.1864 90.0532 40.1776 90.3933C27.2471 92.5826 18.7461 92.4931 5.8258 90.3777C3.7953 90.0453 2.1879 88.4697 1.8194 86.4455C-0.571999 73.3078 -0.6369 64.6848 1.8083 51.5406Z" fill="white"/>
<path d="M2.0541 51.5863C2.4087 49.6801 3.9256 48.1996 5.8396 47.8848C19.2113 45.6849 27.681 45.7312 40.1598 47.8671C42.0535 48.1912 43.5504 49.6596 43.9063 51.5469C46.4551 65.065 46.2752 73.6409 43.8977 86.4414C43.5447 88.3417 42.041 89.8243 40.1358 90.1468C27.2342 92.3312 18.7611 92.2422 5.8662 90.131C3.9397 89.8156 2.4149 88.3207 2.0654 86.4007C-0.320801 73.2917 -0.3854 64.6994 2.0541 51.5863Z" stroke="#E4E4E4" stroke-width="0.5"/>
<path d="M26 67.25H29C29.5967 67.25 30.169 67.0129 30.591 66.591C31.0129 66.169 31.25 65.5967 31.25 65V62C31.25 61.4033 31.0129 60.831 30.591 60.409C30.169 59.9871 29.5967 59.75 29 59.75H26C25.4033 59.75 24.831 59.9871 24.409 60.409C23.9871 60.831 23.75 61.4033 23.75 62V65C23.75 65.5967 23.9871 66.169 24.409 66.591C24.831 67.0129 25.4033 67.25 26 67.25ZM29 61.25C29.1989 61.25 29.3897 61.329 29.5303 61.4697C29.671 61.6103 29.75 61.8011 29.75 62V65C29.75 65.1989 29.671 65.3897 29.5303 65.5303C29.3897 65.671 29.1989 65.75 29 65.75H26C25.8011 65.75 25.6103 65.671 25.4697 65.5303C25.329 65.3897 25.25 65.1989 25.25 65V62C25.25 61.8011 25.329 61.6103 25.4697 61.4697C25.6103 61.329 25.8011 61.25 26 61.25H29ZM17 67.25H20C20.5967 67.25 21.169 67.0129 21.591 66.591C22.0129 66.169 22.25 65.5967 22.25 65V62C22.25 61.4033 22.0129 60.831 21.591 60.409C21.169 59.9871 20.5967 59.75 20 59.75H17C16.4033 59.75 15.831 59.9871 15.409 60.409C14.987 60.831 14.75 61.4033 14.75 62V65C14.75 65.5967 14.987 66.169 15.409 66.591C15.831 67.0129 16.4033 67.25 17 67.25ZM20 61.25C20.1989 61.25 20.3897 61.329 20.5303 61.4697C20.671 61.6103 20.75 61.8011 20.75 62V65C20.75 65.1989 20.671 65.3897 20.5303 65.5303C20.3897 65.671 20.1989 65.75 20 65.75H17C16.8011 65.75 16.6103 65.671 16.4697 65.5303C16.329 65.3897 16.25 65.1989 16.25 65V62C16.25 61.8011 16.329 61.6103 16.4697 61.4697C16.6103 61.329 16.8011 61.25 17 61.25H20ZM26 76.25H29C29.5967 76.25 30.169 76.013 30.591 75.591C31.0129 75.169 31.25 74.5967 31.25 74V71C31.25 70.4033 31.0129 69.831 30.591 69.409C30.169 68.9871 29.5967 68.75 29 68.75H26C25.4033 68.75 24.831 68.9871 24.409 69.409C23.9871 69.831 23.75 70.4033 23.75 71V74C23.75 74.5967 23.9871 75.169 24.409 75.591C24.831 76.013 25.4033 76.25 26 76.25ZM29 70.25C29.1989 70.25 29.3897 70.329 29.5303 70.4697C29.671 70.6103 29.75 70.8011 29.75 71V74C29.75 74.1989 29.671 74.3897 29.5303 74.5303C29.3897 74.671 29.1989 74.75 29 74.75H26C25.8011 74.75 25.6103 74.671 25.4697 74.5303C25.329 74.3897 25.25 74.1989 25.25 74V71C25.25 70.8011 25.329 70.6103 25.4697 70.4697C25.6103 70.329 25.8011 70.25 26 70.25H29ZM17 76.25H20C20.5967 76.25 21.169 76.013 21.591 75.591C22.0129 75.169 22.25 74.5967 22.25 74V71C22.25 70.4033 22.0129 69.831 21.591 69.409C21.169 68.9871 20.5967 68.75 20 68.75H17C16.4033 68.75 15.831 68.9871 15.409 69.409C14.987 69.831 14.75 70.4033 14.75 71V74C14.75 74.5967 14.987 75.169 15.409 75.591C15.831 76.013 16.4033 76.25 17 76.25ZM20 70.25C20.1989 70.25 20.3897 70.329 20.5303 70.4697C20.671 70.6103 20.75 70.8011 20.75 71V74C20.75 74.1989 20.671 74.3897 20.5303 74.5303C20.3897 74.671 20.1989 74.75 20 74.75H17C16.8011 74.75 16.6103 74.671 16.4697 74.5303C16.329 74.3897 16.25 74.1989 16.25 74V71C16.25 70.8011 16.329 70.6103 16.4697 70.4697C16.6103 70.329 16.8011 70.25 17 70.25H20Z" fill="url(#paint0_linear_2_57)"/>
<path fill-rule="evenodd" clip-rule="evenodd" d="M29 76.25H26C25.4033 76.25 24.831 76.0129 24.409 75.591C23.987 75.169 23.75 74.5967 23.75 74V71C23.75 70.4033 23.987 69.831 24.409 69.409C24.6648 69.1533 24.9758 68.9654 25.3139 68.8571H29.686C30.0242 68.9654 30.3352 69.1533 30.591 69.409C30.8467 69.6648 31.0346 69.9758 31.1429 70.3139V74.6861C31.0346 75.0242 30.8467 75.3352 30.591 75.591C30.169 76.0129 29.5967 76.25 29 76.25ZM29.5303 70.4697C29.3897 70.329 29.1989 70.25 29 70.25H26C25.8011 70.25 25.6103 70.329 25.4697 70.4697C25.329 70.6103 25.25 70.8011 25.25 71V74C25.25 74.1989 25.329 74.3897 25.4697 74.5303C25.6103 74.671 25.8011 74.75 26 74.75H29C29.1989 74.75 29.3897 74.671 29.5303 74.5303C29.671 74.3897 29.75 74.1989 29.75 74V71C29.75 70.8011 29.671 70.6103 29.5303 70.4697Z" fill="url(#paint1_linear_2_57)"/>
<path d="M2.05413 5.5863C2.40874 3.68013 3.92563 2.19965 5.83963 1.88476C19.2113 -0.315122 27.681 -0.268784 40.1598 1.8671C42.0535 2.19122 43.5504 3.65956 43.9063 5.54693C46.4551 19.065 46.2752 27.6409 43.8977 40.4414C43.5447 42.3417 42.041 43.8243 40.1358 44.1468C27.2342 46.3312 18.7611 46.2422 5.86616 44.131C3.93971 43.8156 2.41487 42.3207 2.06537 40.4007C-0.320839 27.2917 -0.385364 18.6994 2.05413 5.5863Z" fill="white" stroke="#E4E4E4" stroke-width="0.5"/>
<path d="M26 21.25H29C29.5967 21.25 30.169 21.0129 30.591 20.591C31.0129 20.169 31.25 19.5967 31.25 19V16C31.25 15.4033 31.0129 14.831 30.591 14.409C30.169 13.9871 29.5967 13.75 29 13.75H26C25.4033 13.75 24.831 13.9871 24.409 14.409C23.9871 14.831 23.75 15.4033 23.75 16V19C23.75 19.5967 23.9871 20.169 24.409 20.591C24.831 21.0129 25.4033 21.25 26 21.25ZM29 15.25C29.1989 15.25 29.3897 15.329 29.5303 15.4697C29.671 15.6103 29.75 15.8011 29.75 16V19C29.75 19.1989 29.671 19.3897 29.5303 19.5303C29.3897 19.671 29.1989 19.75 29 19.75H26C25.8011 19.75 25.6103 19.671 25.4697 19.5303C25.329 19.3897 25.25 19.1989 25.25 19V16C25.25 15.8011 25.329 15.6103 25.4697 15.4697C25.6103 15.329 25.8011 15.25 26 15.25H29ZM17 21.25H20C20.5967 21.25 21.169 21.0129 21.591 20.591C22.0129 20.169 22.25 19.5967 22.25 19V16C22.25 15.4033 22.0129 14.831 21.591 14.409C21.169 13.9871 20.5967 13.75 20 13.75H17C16.4033 13.75 15.831 13.9871 15.409 14.409C14.987 14.831 14.75 15.4033 14.75 16V19C14.75 19.5967 14.987 20.169 15.409 20.591C15.831 21.0129 16.4033 21.25 17 21.25ZM20 15.25C20.1989 15.25 20.3897 15.329 20.5303 15.4697C20.671 15.6103 20.75 15.8011 20.75 16V19C20.75 19.1989 20.671 19.3897 20.5303 19.5303C20.3897 19.671 20.1989 19.75 20 19.75H17C16.8011 19.75 16.6103 19.671 16.4697 19.5303C16.329 19.3897 16.25 19.1989 16.25 19V16C16.25 15.8011 16.329 15.6103 16.4697 15.4697C16.6103 15.329 16.8011 15.25 17 15.25H20ZM26 30.25H29C29.5967 30.25 30.169 30.013 30.591 29.591C31.0129 29.169 31.25 28.5967 31.25 28V25C31.25 24.4033 31.0129 23.831 30.591 23.409C30.169 22.9871 29.5967 22.75 29 22.75H26C25.4033 22.75 24.831 22.9871 24.409 23.409C23.9871 23.831 23.75 24.4033 23.75 25V28C23.75 28.5967 23.9871 29.169 24.409 29.591C24.831 30.013 25.4033 30.25 26 30.25ZM29 24.25C29.1989 24.25 29.3897 24.329 29.5303 24.4697C29.671 24.6103 29.75 24.8011 29.75 25V28C29.75 28.1989 29.671 28.3897 29.5303 28.5303C29.3897 28.671 29.1989 28.75 29 28.75H26C25.8011 28.75 25.6103 28.671 25.4697 28.5303C25.329 28.3897 25.25 28.1989 25.25 28V25C25.25 24.8011 25.329 24.6103 25.4697 24.4697C25.6103 24.329 25.8011 24.25 26 24.25H29ZM17 30.25H20C20.5967 30.25 21.169 30.013 21.591 29.591C22.0129 29.169 22.25 28.5967 22.25 28V25C22.25 24.4033 22.0129 23.831 21.591 23.409C21.169 22.9871 20.5967 22.75 20 22.75H17C16.4033 22.75 15.831 22.9871 15.409 23.409C14.987 23.831 14.75 24.4033 14.75 25V28C14.75 28.5967 14.987 29.169 15.409 29.591C15.831 30.013 16.4033 30.25 17 30.25ZM20 24.25C20.1989 24.25 20.3897 24.329 20.5303 24.4697C20.671 24.6103 20.75 24.8011 20.75 25V28C20.75 28.1989 20.671 28.3897 20.5303 28.5303C20.3897 28.671 20.1989 28.75 20 28.75H17C16.8011 28.75 16.6103 28.671 16.4697 28.5303C16.329 28.3897 16.25 28.1989 16.25 28V25C16.25 24.8011 16.329 24.6103 16.4697 24.4697C16.6103 24.329 16.8011 24.25 17 24.25H20Z" fill="#9FA8B1"/>
<path fill-rule="evenodd" clip-rule="evenodd" d="M29 30.25H26C25.4032 30.25 24.8309 30.0129 24.409 29.591C23.987 29.169 23.75 28.5967 23.75 28V25C23.75 24.4033 23.987 23.831 24.409 23.409C24.6647 23.1533 24.9757 22.9654 25.3139 22.8571H29.686C30.0242 22.9654 30.3352 23.1533 30.591 23.409C30.8467 23.6648 31.0345 23.9758 31.1428 24.3139V28.6861C31.0345 29.0242 30.8467 29.3352 30.591 29.591C30.169 30.0129 29.5967 30.25 29 30.25ZM29.5303 24.4697C29.3896 24.329 29.1989 24.25 29 24.25H26C25.8011 24.25 25.6103 24.329 25.4696 24.4697C25.329 24.6103 25.25 24.8011 25.25 25V28C25.25 28.1989 25.329 28.3897 25.4696 28.5303C25.6103 28.671 25.8011 28.75 26 28.75H29C29.1989 28.75 29.3896 28.671 29.5303 28.5303C29.6709 28.3897 29.75 28.1989 29.75 28V25C29.75 24.8011 29.6709 24.6103 29.5303 24.4697Z" fill="#9FA8B1"/>
<path d="M51.8396 1.88476C65.2113 -0.315122 73.681 -0.268784 86.1598 1.8671C88.0535 2.19122 89.5504 3.65956 89.9063 5.54693C92.4551 19.065 92.2752 27.6409 89.8977 40.4414C89.5447 42.3417 88.041 43.8243 86.1358 44.1468C73.2342 46.3312 64.7611 46.2422 51.8662 44.131C49.9397 43.8156 48.4149 42.3207 48.0654 40.4007C45.6792 27.2917 45.6146 18.6994 48.0541 5.5863C48.4087 3.68013 49.9256 2.19965 51.8396 1.88476Z" fill="white" stroke="#E4E4E4" stroke-width="0.5"/>
<path d="M60.25 14.75H78.75" stroke="#9FA8B1" stroke-width="2.5" stroke-linecap="round"/>
<path d="M60.25 21.75H78.75" stroke="#9FA8B1" stroke-width="2.5" stroke-linecap="round"/>
<path d="M60.25 28.75H78.75" stroke="#9FA8B1" stroke-width="2.5" stroke-linecap="round"/>
<path d="M51.8396 47.8848C65.2113 45.6849 73.681 45.7312 86.1598 47.8671C88.0535 48.1912 89.5504 49.6596 89.9063 51.5469C92.4551 65.065 92.2752 73.6409 89.8977 86.4414C89.5447 88.3417 88.041 89.8243 86.1358 90.1468C73.2342 92.3312 64.7611 92.2422 51.8662 90.131C49.9397 89.8156 48.4149 88.3207 48.0654 86.4007C45.6792 73.2917 45.6146 64.6994 48.0541 51.5863C48.4087 49.6801 49.9256 48.1997 51.8396 47.8848Z" fill="white" stroke="#E4E4E4" stroke-width="0.5"/>

<path d="M60.25 60.75H78.75" stroke="#9FA8B1" stroke-width="2.5" stroke-linecap="round"/>
<path d="M60.25 67.75H78.75" stroke="#9FA8B1" stroke-width="2.5" stroke-linecap="round"/>
<path d="M60.25 74.75H78.75" stroke="#9FA8B1" stroke-width="2.5" stroke-linecap="round"/>

<line x1="60.25" y1="60.75" x2="78.75" y2="60.75" stroke="url(#paint0_linear_139_4076)" stroke-width="2.5" stroke-linecap="round"/>
<line x1="60.25" y1="67.75" x2="78.75" y2="67.75" stroke="url(#paint1_linear_139_4076)" stroke-width="2.5" stroke-linecap="round"/>
<line x1="60.25" y1="74.75" x2="78.75" y2="74.75" stroke="url(#paint2_linear_139_4076)" stroke-width="2.5" stroke-linecap="round"/>

<defs>
<linearGradient id="paint0_linear_2_57" x1="31.25" y1="72.0244" x2="14.75" y2="72.0244" gradientUnits="userSpaceOnUse">
<stop stop-color="#FF7F2E"/>
<stop offset="1" stop-color="#1843BF"/>
</linearGradient>
<linearGradient id="paint1_linear_2_57" x1="31.1429" y1="74.3567" x2="23.75" y2="74.3567" gradientUnits="userSpaceOnUse">
<stop stop-color="#FF7F2E"/>
<stop offset="1" stop-color="#1843BF"/>
</linearGradient>

<linearGradient id="paint0_linear_139_4076" x1="60" y1="60.759" x2="79" y2="60.75" gradientUnits="userSpaceOnUse">
<stop stop-color="#FF7F2E"/>
<stop offset="1" stop-color="#1843BF"/>
</linearGradient>
<linearGradient id="paint1_linear_139_4076" x1="60" y1="67.75" x2="79" y2="67.75" gradientUnits="userSpaceOnUse">
<stop stop-color="#FF7F2E"/>
<stop offset="1" stop-color="#1843BF"/>
</linearGradient>
<linearGradient id="paint2_linear_139_4076" x1="60" y1="74.75" x2="79" y2="74.75" gradientUnits="userSpaceOnUse">
<stop stop-color="#FF7F2E"/>
<stop offset="1" stop-color="#1843BF"/>
</linearGradient>

</defs>
</svg>
