<svg width="156" height="156" viewBox="0 0 156 156" fill="none" xmlns="http://www.w3.org/2000/svg">
<path d="M36.3007 18.0566C66.2743 18.0566 86.8577 2.53027 101.301 2.53027C115.744 2.53027 146.077 10.8329 146.077 77.2759C146.077 143.719 105.27 153.469 89.384 153.469C14.9937 153.473 -16.7827 18.0566 36.3007 18.0566Z" fill="#EFEFEF"/>
<path d="M134.334 30.8613C130.75 30.8613 127.834 27.945 127.834 24.3613C127.834 20.7777 130.75 17.8613 134.334 17.8613C137.918 17.8613 140.834 20.7777 140.834 24.3613C140.834 27.945 137.918 30.8613 134.334 30.8613ZM134.334 22.1947C133.142 22.1947 132.167 23.1653 132.167 24.3613C132.167 25.5573 133.142 26.528 134.334 26.528C135.526 26.528 136.501 25.5573 136.501 24.3613C136.501 23.1653 135.526 22.1947 134.334 22.1947Z" fill="#A4AFC1"/>
<path d="M22.1582 111.564L25.2223 108.5L31.3506 114.629L28.2865 117.693L22.1582 111.564Z" fill="#A4AFC1"/>
<path d="M39.7578 129.198L42.8219 126.134L48.9533 132.265L45.8891 135.33L39.7578 129.198Z" fill="#A4AFC1"/>
<path d="M21.3887 132.242L27.5169 126.114L30.5811 129.178L24.4528 135.306L21.3887 132.242Z" fill="#A4AFC1"/>
<path d="M39.0078 114.63L45.1361 108.502L48.2002 111.566L42.0719 117.694L39.0078 114.63Z" fill="#A4AFC1"/>
<path d="M118.083 44.2861V79.0828C118.083 83.8495 114.183 87.7495 109.417 87.7495H35.75C32.1533 87.7495 29.25 84.8461 29.25 81.2495V44.2861L70.0267 64.4795C72.28 65.6061 75.0533 65.6061 77.3067 64.4795L118.083 44.2861Z" fill="#F3F3F1"/>
<path d="M118.083 40.083V44.2863L77.3067 64.4797C75.0533 65.6063 72.28 65.6063 70.0267 64.4797L29.25 44.2863V40.083C29.25 36.4863 32.1533 33.583 35.75 33.583H111.583C115.18 33.583 118.083 36.4863 118.083 40.083Z" fill="#FEB46D"/>
<path d="M39 81.2495V49.1135L29.25 44.2861V81.2495C29.25 84.8461 32.1533 87.7495 35.75 87.7495H45.5C41.9033 87.7495 39 84.8461 39 81.2495Z" fill="#D5DBE1"/>
<path d="M39 42.1673V40.083C39 36.4863 41.9033 33.583 45.5 33.583H35.75C32.1533 33.583 29.25 36.4863 29.25 40.083V44.2863L70.0267 64.4797C72.28 65.6063 75.0534 65.6063 77.3067 64.4797L78.5417 61.7497L39 42.1673Z" fill="#FF7F2E"/>
<path d="M101.835 116.999C93.4713 116.999 86.668 110.196 86.668 101.833C86.668 93.4694 93.4713 86.666 101.835 86.666C110.198 86.666 117.001 93.4694 117.001 101.833C117.001 110.196 110.198 116.999 101.835 116.999ZM101.835 93.166C97.055 93.166 93.168 97.053 93.168 101.833C93.168 106.612 97.055 110.499 101.835 110.499C106.614 110.499 110.501 106.612 110.501 101.833C110.501 97.053 106.614 93.166 101.835 93.166Z" fill="black"/>
<path d="M101.834 130C93.315 130 85.3461 126.208 79.9684 119.591C74.5907 112.974 72.5237 104.307 74.2917 95.8098C76.5147 85.1585 85.1597 76.5135 95.8067 74.2948C104.296 72.5311 112.975 74.5938 119.588 79.9715C126.205 85.3448 130.001 93.3181 130.001 101.833V107.25C130.001 112.627 125.624 117 120.251 117C114.878 117 110.501 112.627 110.501 107.25V89.9165H117.001V107.25C117.001 109.044 118.461 110.5 120.251 110.5C122.041 110.5 123.501 109.044 123.501 107.25V101.833C123.501 95.2811 120.58 89.1495 115.489 85.0111C110.397 80.8685 103.706 79.2781 97.137 80.6561C88.9817 82.3548 82.3604 88.9761 80.6574 97.1358C79.2881 103.714 80.8741 110.404 85.0124 115.492C89.1507 120.579 95.2824 123.5 101.834 123.5V130Z" fill="black"/>
<path d="M66.0833 90.9997H35.75C30.3767 90.9997 26 86.6274 26 81.2497V40.083C26 34.7053 30.3767 30.333 35.75 30.333H111.583C116.957 30.333 121.333 34.7053 121.333 40.083V66.083H114.833V40.083C114.833 38.289 113.373 36.833 111.583 36.833H35.75C33.9603 36.833 32.5 38.289 32.5 40.083V81.2497C32.5 83.0437 33.9603 84.4997 35.75 84.4997H66.0833V90.9997Z" fill="black"/>
<path d="M73.6706 68.583C71.92 68.583 70.165 68.1844 68.5703 67.3827L27.8066 47.198L30.6926 41.374L71.4693 61.5674C72.817 62.239 74.5286 62.239 75.8503 61.5717L116.64 41.374L119.526 47.198L78.7493 67.3914C77.1633 68.1844 75.417 68.583 73.6706 68.583Z" fill="black"/>
</svg>
