<svg width="18" height="18" viewBox="0 0 18 18" fill="none" xmlns="http://www.w3.org/2000/svg">
<path d="M9.00009 0.0416565C7.22829 0.0416565 5.49629 0.567054 4.0231 1.55141C2.54991 2.53576 1.4017 3.93486 0.723665 5.57178C0.0456296 7.20871 -0.131775 9.00993 0.213884 10.7477C0.559543 12.4854 1.41274 14.0816 2.66559 15.3345C3.91843 16.5873 5.51465 17.4405 7.2524 17.7862C8.99015 18.1319 10.7914 17.9544 12.4283 17.2764C14.0652 16.5984 15.4643 15.4502 16.4487 13.977C17.433 12.5038 17.9584 10.7718 17.9584 8.99999C17.9558 6.6249 17.0111 4.34786 15.3317 2.66842C13.6522 0.988975 11.3752 0.0443033 9.00009 0.0416565ZM1.29175 8.99999C1.29327 8.13695 1.44091 7.2804 1.72842 6.46666C2.24509 10.225 5.54175 10.5425 5.68342 11.1417C5.76155 11.8165 5.78107 12.4968 5.74175 13.175C5.80009 14.3333 7.40009 14.35 8.01675 15.2667C8.23349 15.7008 8.31782 16.1891 8.25925 16.6708C6.3531 16.4847 4.58425 15.5965 3.29654 14.1788C2.00883 12.7611 1.29427 10.9152 1.29175 8.99999ZM11.0918 16.4167C11.6593 14.6392 13.3634 14.0367 13.5368 13.0092C13.6759 12.185 12.5926 11.7592 11.6201 11.6433C10.6476 11.5275 10.7968 10.5225 10.1109 9.80999C9.42509 9.09749 8.97842 9.13666 8.01509 9.25749C7.05175 9.37832 6.22759 9.29916 5.95842 8.70666C5.68925 8.11416 6.03259 7.83082 5.32425 7.09666C5.22863 7.00502 5.15993 6.88895 5.12561 6.76103C5.0913 6.63311 5.09268 6.49823 5.12961 6.37104C5.16654 6.24385 5.23761 6.12921 5.33509 6.03955C5.43257 5.9499 5.55276 5.88866 5.68259 5.86249C6.18259 5.74166 7.07175 6.61249 7.59259 6.50999C9.16092 6.18666 7.28092 3.11499 9.63759 2.34332C10.0702 2.19555 10.4269 1.88286 10.6301 1.47332C11.952 1.76193 13.1742 2.39434 14.1734 3.30666C14.4642 3.9747 14.5682 4.70915 14.4743 5.43166C14.1601 6.40416 13.3684 7.10416 14.2318 8.69499C15.1326 10.3567 15.6884 10.5825 16.0934 10.125C16.2518 9.95109 16.45 9.81814 16.6709 9.73749C16.5204 11.2827 15.9075 12.7466 14.9122 13.9382C13.9169 15.1297 12.5855 15.9934 11.0918 16.4167Z" fill="white"/>
</svg>
