<svg width="125" height="32" viewBox="0 0 125 32" fill="none" xmlns="http://www.w3.org/2000/svg">
<g clip-path="url(#clip0_3473_6446)">
<path d="M50.4037 22.5458H47.2566V17.3047C47.2566 16.0906 47.1003 15.0384 45.7903 15.0384C44.4804 15.0384 44.07 16.1715 44.07 17.647V22.5438H40.9446V8.58321H44.07V11.9004C44.07 12.9121 44.0503 14.0048 44.0503 14.0048C44.5388 13.1144 45.4581 12.386 46.8849 12.386C49.6801 12.386 50.4037 14.2277 50.4037 16.6559V22.5458ZM63.8335 20.8866C63.1493 21.6163 61.7225 22.7886 58.966 22.7886C54.9974 22.7886 51.889 20.0772 51.889 15.5844C51.889 11.0731 55.0361 8.38086 58.9653 8.38086C61.7415 8.38086 63.2458 9.57504 63.5984 9.95916L62.6241 12.6713C62.37 12.327 60.9255 11.2117 59.144 11.2117C56.857 11.2117 55.0973 12.79 55.0973 15.524C55.0973 18.258 56.9318 19.8138 59.144 19.8138C60.8249 19.8138 62.037 19.1258 62.7804 18.3363L63.8335 20.8866ZM73.7254 22.5458H70.7359L70.6754 21.4949C70.2678 21.9202 69.483 22.77 67.9189 22.77C66.2203 22.77 64.4198 21.8187 64.4198 19.5929C64.4198 17.3671 66.3943 16.618 68.173 16.5371L70.5973 16.4363V16.214C70.5973 15.1618 69.8737 14.6151 68.6228 14.6151C67.391 14.6151 66.1599 15.1817 65.6707 15.5055L64.8499 13.4011C65.6707 12.9765 67.1763 12.3893 68.9748 12.3893C70.7733 12.3893 71.8094 12.8139 72.5717 13.543C73.3144 14.2728 73.7268 15.2427 73.7268 16.9226L73.7254 22.5458ZM70.617 18.1545L69.0726 18.2554C68.1146 18.2959 67.548 18.7198 67.548 19.4695C67.548 20.2384 68.154 20.7041 69.0142 20.7041C69.8547 20.7041 70.4213 20.1375 70.617 19.7939V18.1545ZM81.8766 22.7681C80.4498 22.7681 79.4307 22.2214 78.8273 21.2906V26.2053H75.7019V12.5698H78.6738L78.6541 13.8449H78.6935C79.3974 12.9745 80.4335 12.3853 81.8997 12.3853C84.6759 12.3853 86.435 14.6317 86.435 17.5654C86.435 20.4991 84.6725 22.7681 81.8766 22.7681ZM80.9777 14.9396C79.6481 14.9396 78.7295 15.9918 78.7295 17.5269C78.7295 19.0621 79.6481 20.1143 80.9777 20.1143C82.3264 20.1143 83.2457 19.0621 83.2457 17.5269C83.2457 15.9918 82.3278 14.9369 80.9777 14.9369V14.9396ZM93.6839 15.0384H91.5532V18.6209C91.5532 19.4708 91.6707 19.6731 91.825 19.8556C91.9608 20.0175 92.1572 20.0984 92.5676 20.0984C92.8888 20.0911 93.2063 20.0294 93.5059 19.916L93.6622 22.4456C92.9386 22.6553 92.1884 22.7643 91.4336 22.7694C90.3193 22.7694 89.5767 22.4251 89.0875 21.8406C88.5983 21.2561 88.4033 20.4241 88.4033 18.9062V15.0384H87.0349V12.5897H88.4033V9.87823H91.5505V12.5897H93.6812L93.6839 15.0384ZM102.931 21.5745C102.833 21.6555 101.817 22.7687 99.256 22.7687C96.6164 22.7687 94.1731 20.9071 94.1731 17.5886C94.1731 14.2496 96.6558 12.388 99.2947 12.388C101.758 12.388 102.872 13.4402 102.872 13.4402L102.188 15.8889C101.494 15.3142 100.615 14.9987 99.7051 14.9986C98.3761 14.9986 97.3203 15.95 97.3203 17.5283C97.3203 19.1066 98.2783 20.0984 99.7445 20.0984C101.211 20.0984 102.19 19.1271 102.19 19.1271L102.931 21.5745ZM113.702 22.5458H110.555V17.3047C110.555 16.0906 110.399 15.0384 109.089 15.0384C107.779 15.0384 107.368 16.1715 107.368 17.649V22.5458H104.243V8.58321H107.368V11.9004C107.368 12.9121 107.349 14.0048 107.349 14.0048C107.837 13.1144 108.757 12.386 110.183 12.386C112.979 12.386 113.702 14.2277 113.702 16.6559V22.5458ZM124.317 22.5458H121.328L121.269 21.4936C120.861 21.9189 120.077 22.7687 118.513 22.7687C116.814 22.7687 115.013 21.8174 115.013 19.5915C115.013 17.3657 116.988 16.6167 118.767 16.5358L121.191 16.4349V16.2127C121.191 15.1605 120.467 14.6138 119.216 14.6138C117.985 14.6138 116.754 15.1804 116.264 15.5041L115.442 13.4011C116.262 12.9765 117.768 12.3893 119.566 12.3893C121.365 12.3893 122.401 12.8139 123.163 13.543C123.906 14.2728 124.318 15.2427 124.318 16.9226L124.317 22.5458ZM121.209 18.1545L119.664 18.2554C118.706 18.2959 118.14 18.7198 118.14 19.4695C118.14 20.2384 118.746 20.7041 119.606 20.7041C120.446 20.7041 121.013 20.1375 121.209 19.7939V18.1545Z" fill="#4D4D4D"/>
<path opacity="0.5" d="M21.2778 28.0005H25.3742V32.0003H21.2778V28.0005Z" fill="#0074BF"/>
<path opacity="0.7" d="M17.1813 28.0005H21.2776V32.0003H17.1813V28.0005ZM13.085 28.0005H17.1813V32.0003H13.085V28.0005Z" fill="#0074BF"/>
<path opacity="0.5" d="M8.98853 28.0005H13.0849V32.0003H8.98853V28.0005Z" fill="#0074BF"/>
<path opacity="0.7" d="M25.3745 24.0005H29.4708V28.0003H25.3745V24.0005Z" fill="#0082BF"/>
<path opacity="0.8" d="M21.2773 24.0005H25.3737V28.0003H21.2773V24.0005Z" fill="#0082BF"/>
<path d="M17.181 24.0005H21.2774V28.0003H17.181V24.0005ZM13.0847 24.0005H17.181V28.0003H13.0847V24.0005Z" fill="#0082BF"/>
<path opacity="0.8" d="M8.98853 24.0005H13.0849V28.0003H8.98853V24.0005Z" fill="#0082BF"/>
<path opacity="0.7" d="M4.8916 24.001H8.98793V28.0008H4.8916V24.001Z" fill="#0082BF"/>
<path opacity="0.5" d="M29.4712 20.0005H33.5675V24.0003H29.4712V20.0005Z" fill="#008FBF"/>
<path opacity="0.8" d="M25.3748 20.0005H29.4711V24.0003H25.3748V20.0005Z" fill="#008FBF"/>
<path d="M21.2775 20.0005H25.3738V24.0003H21.2775V20.0005ZM17.1812 20.0005H21.2775V24.0003H17.1812V20.0005ZM13.0849 20.0005H17.1812V24.0003H13.0849V20.0005ZM8.98853 20.0005H13.0849V24.0003H8.98853V20.0005Z" fill="#008FBF"/>
<path opacity="0.8" d="M4.8916 20.0005H8.98793V24.0003H4.8916V20.0005Z" fill="#008FBF"/>
<path opacity="0.5" d="M0.795166 20.0005H4.8915V24.0003H0.795166V20.0005Z" fill="#008FBF"/>
<path opacity="0.7" d="M29.4712 16H33.5675V19.9998H29.4712V16Z" fill="#009DBF"/>
<path d="M25.3746 16H29.4709V19.9998H25.3746V16ZM21.2776 16H25.3739V19.9998H21.2776V16ZM17.1813 16H21.2776V19.9998H17.1813V16ZM13.0849 16H17.1813V19.9998H13.0849V16ZM8.98861 16H13.0849V19.9998H8.98861V16ZM4.8916 16H8.98793V19.9998H4.8916V16Z" fill="#009DBF"/>
<path opacity="0.7" d="M0.795166 16H4.8915V19.9998H0.795166V16Z" fill="#009DBF"/>
<path opacity="0.7" d="M29.4712 12H33.5675V15.9998H29.4712V12Z" fill="#00ABBF"/>
<path d="M25.3746 12H29.4709V15.9998H25.3746V12ZM21.2776 12H25.3739V15.9998H21.2776V12ZM17.1813 12H21.2776V15.9998H17.1813V12ZM13.0849 12H17.1813V15.9998H13.0849V12ZM8.98861 12H13.0849V15.9998H8.98861V12ZM4.8916 12H8.98793V15.9998H4.8916V12Z" fill="#00ABBF"/>
<path opacity="0.7" d="M0.795166 12H4.8915V15.9998H0.795166V12Z" fill="#00ABBF"/>
<path opacity="0.5" d="M29.4712 8.00049H33.5675V12.0003H29.4712V8.00049Z" fill="#00B9BF"/>
<path opacity="0.8" d="M25.3748 8.00049H29.4711V12.0003H25.3748V8.00049Z" fill="#00B9BF"/>
<path d="M21.2775 8.00049H25.3738V12.0003H21.2775V8.00049ZM17.1812 8.00049H21.2775V12.0003H17.1812V8.00049ZM13.0849 8.00049H17.1812V12.0003H13.0849V8.00049ZM8.98853 8.00049H13.0849V12.0003H8.98853V8.00049Z" fill="#00B9BF"/>
<path opacity="0.8" d="M4.8916 8.00049H8.98793V12.0003H4.8916V8.00049Z" fill="#00B9BF"/>
<path opacity="0.5" d="M0.795166 8.00049H4.8915V12.0003H0.795166V8.00049Z" fill="#00B9BF"/>
<path opacity="0.7" d="M25.3748 4H29.4711V7.99983H25.3748V4Z" fill="#00C6BF"/>
<path opacity="0.8" d="M21.2778 4H25.3742V7.99983H21.2778V4Z" fill="#00C6BF"/>
<path d="M17.1813 4H21.2776V7.99983H17.1813V4ZM13.085 4H17.1813V7.99983H13.085V4Z" fill="#00C6BF"/>
<path opacity="0.8" d="M8.98853 4H13.0849V7.99983H8.98853V4Z" fill="#00C6BF"/>
<path opacity="0.7" d="M4.8916 4H8.98793V7.99983H4.8916V4Z" fill="#00C6BF"/>
<path opacity="0.5" d="M21.2778 0H25.3742V3.99983H21.2778V0Z" fill="#00D4BF"/>
<path opacity="0.7" d="M17.1813 0H21.2776V3.99983H17.1813V0ZM13.085 0H17.1813V3.99983H13.085V0Z" fill="#00D4BF"/>
<path opacity="0.5" d="M8.98853 0H13.0849V3.99983H8.98853V0Z" fill="#00D4BF"/>
<path d="M11.5813 14.7384L12.7228 12.2439C13.1386 11.6044 13.0836 10.8209 12.6284 10.3764C12.5676 10.3171 12.5004 10.2646 12.4279 10.2198C12.2717 10.1262 12.0966 10.067 11.9146 10.0463C11.7326 10.0255 11.5482 10.0438 11.3741 10.0997C10.9789 10.2197 10.6412 10.4748 10.4229 10.8182C10.4229 10.8182 8.86019 14.3782 8.27859 15.9784C7.697 17.5786 7.92936 20.5129 10.1715 22.7069C12.5495 25.0289 15.9929 25.5597 18.1889 23.9502C18.2807 23.9051 18.3671 23.8501 18.4464 23.7863L25.2136 18.2685C25.5424 18.0032 26.0289 17.4565 25.592 16.8329C25.166 16.2245 24.3589 16.6385 24.0293 16.8442L20.1348 19.6093C20.1166 19.6241 20.0955 19.635 20.0728 19.6416C20.0501 19.6481 20.0263 19.6501 20.0029 19.6474C19.9794 19.6448 19.9567 19.6375 19.9362 19.6261C19.9156 19.6146 19.8977 19.5992 19.8834 19.5808C19.7842 19.4621 19.7665 19.1476 19.9221 19.0229L25.8923 14.0757C26.408 13.6219 26.4801 12.9624 26.0622 12.5106C25.6545 12.0681 25.007 12.0814 24.4866 12.5391L19.1116 16.6425C19.0864 16.6625 19.0573 16.6773 19.0261 16.686C18.9949 16.6947 18.9622 16.697 18.93 16.6929C18.8978 16.6888 18.8668 16.6783 18.8389 16.6621C18.811 16.6459 18.7868 16.6243 18.7678 16.5987C18.6618 16.4826 18.621 16.2842 18.7406 16.1681L24.8283 10.3996C25.0589 10.1895 25.1947 9.89872 25.2059 9.59099C25.2172 9.28326 25.1029 8.98376 24.8881 8.75824C24.7816 8.64873 24.6534 8.5616 24.5112 8.50216C24.369 8.44273 24.2159 8.41225 24.0613 8.4126C23.7428 8.40922 23.4357 8.52839 23.2065 8.74431L16.9863 14.4498C16.8375 14.5951 16.546 14.4498 16.5107 14.28C16.5042 14.2496 16.5057 14.2181 16.5149 14.1885C16.5242 14.1588 16.541 14.1319 16.5637 14.1102L21.3252 8.81663C21.4402 8.71182 21.5326 8.58548 21.5966 8.44513C21.6607 8.30477 21.6952 8.15327 21.698 7.99963C21.7009 7.846 21.6721 7.69337 21.6133 7.55083C21.5545 7.40829 21.467 7.27875 21.3559 7.16992C21.2448 7.06109 21.1124 6.97519 20.9666 6.91733C20.8209 6.85947 20.6646 6.83084 20.5073 6.83314C20.3499 6.83543 20.1947 6.86861 20.0507 6.9307C19.9068 6.99278 19.7771 7.08251 19.6694 7.19453L12.449 14.9892C12.1901 15.242 11.809 15.2546 11.6275 15.108C11.5717 15.0646 11.5356 15.0016 11.527 14.9324C11.5183 14.8633 11.5378 14.7936 11.5813 14.7384Z" fill="white"/>
</g>
<defs>
<clipPath id="clip0_3473_6446">
<rect width="123.575" height="32" fill="white" transform="translate(0.769531)"/>
</clipPath>
</defs>
</svg>
