<svg width="250" height="266" viewBox="0 0 250 266" fill="none" xmlns="http://www.w3.org/2000/svg">
<g clip-path="url(#clip0_1874_50788)">
<path d="M67.4697 145.755C67.4697 145.755 12.3127 134.943 20.8656 82.7838C29.4184 30.6245 94.0164 -10.9452 115.54 23.7064C137.064 58.358 177.669 15.3144 212.198 35.1919C246.727 55.0694 248.852 227.623 139.614 243.178C30.3755 258.733 67.4697 145.755 67.4697 145.755Z" fill="#EBEBEB"/>
<path d="M212.198 35.1733C177.669 15.3149 137.06 58.3586 115.54 23.707C106.646 9.38845 90.3983 8.08677 73.8094 15.1656C64.8431 23.06 58.0284 32.5967 61.7957 41.7315C70.5323 62.9145 99.9006 44.2583 92.6379 77.7882C85.3753 111.318 69.1732 136.199 117.883 141.173C166.593 146.146 158.763 220.702 188.63 220.977C247.014 169.905 240.448 51.4214 212.198 35.1733Z" fill="url(#paint0_linear_1874_50788)"/>
<path d="M181.554 30.296C155.93 33.6268 130.884 48.4124 115.54 23.7072C104.59 6.09613 82.4922 8.17883 62.297 21.3603V144.373C65.4708 145.365 67.4693 145.755 67.4693 145.755C65.0055 153.868 63.2744 162.185 62.297 170.606V198.523C66.1599 225.487 83.7595 251.127 139.613 243.179C156.014 240.843 169.908 234.963 181.554 226.594V30.296Z" fill="url(#paint1_linear_1874_50788)"/>
<path opacity="0.56" d="M76.4375 14.1094C76.4375 14.1094 71.9773 35.8437 81.3839 29.833C90.7905 23.8222 97.8464 22.5588 99.6994 46.3529C101.552 70.1469 112.766 55.9968 122.552 47.8843C132.337 39.7717 132.28 66.261 147.314 68.3896C162.349 70.5183 169.431 41.1844 178.67 54.2931C187.908 67.4019 198.111 94.3314 222.85 47.8843" stroke="#6A91D6" stroke-width="0.382848" stroke-miterlimit="10"/>
<path d="M202.576 206.027C209.85 196.551 215.669 185.835 220.187 174.492V43.2895C217.779 39.6218 215.095 36.85 212.178 35.1731C209.158 33.4324 205.924 32.0951 202.557 31.1953L202.576 206.027Z" fill="url(#paint2_linear_1874_50788)"/>
<path d="M202.576 206.023C209.85 196.548 215.669 185.832 220.187 174.492V43.2895C217.779 39.6218 215.095 36.85 212.178 35.1731C209.158 33.4324 205.924 32.0951 202.557 31.1953L202.576 206.023Z" fill="url(#paint3_linear_1874_50788)"/>
<path d="M197.708 30.1922C193.702 29.6348 189.647 29.5282 185.617 29.8745V211.521H197.708V30.1922Z" fill="url(#paint4_linear_1874_50788)"/>
<path d="M197.708 30.1922C193.702 29.6348 189.647 29.5282 185.617 29.8745V211.521H197.708V30.1922Z" fill="url(#paint5_linear_1874_50788)"/>
<path d="M224.782 119.449L204.64 91.884L187.171 116.463L171.053 98.4461L160.578 118.086L146.968 95.0043L142.615 102.42L132.611 80.9805L123.496 100.334L106.268 57.9177L89.9697 99.9851L66.3786 20.4062L43.645 111.367L21.2101 80.8695C21.0876 81.505 20.9728 82.1444 20.8656 82.7837C12.3127 134.943 67.4697 145.755 67.4697 145.755C67.4697 145.755 30.3564 258.729 139.614 243.178C208.27 233.404 232.925 161.639 233.216 104.713L224.782 119.449Z" fill="url(#paint6_linear_1874_50788)"/>
<path d="M158.695 164.175C140.418 163.026 142.615 77.3063 103.032 111.966C63.4498 146.625 92.4161 71.2114 70.2951 47.1111C55.4789 30.9702 34.4988 57.1341 22.263 76.1693C21.7002 78.3515 21.2293 80.5606 20.8656 82.7849C12.3127 134.944 67.4697 145.756 67.4697 145.756C67.4697 145.756 30.3564 258.731 139.614 243.179C177.179 237.819 201.578 213.914 216.015 184.025C189.97 124.669 175.651 165.247 158.695 164.175Z" fill="url(#paint7_linear_1874_50788)"/>
<path d="M227.101 166.746C201.068 107.405 207.151 136.884 190.195 135.808C171.918 134.659 169.827 79.9505 130.225 114.606C90.6237 149.261 103.499 53.9283 81.3817 29.8318C66.5655 13.6909 45.5854 39.8548 33.3457 58.89" stroke="url(#paint8_linear_1874_50788)" stroke-width="1.14855" stroke-miterlimit="10"/>
<path d="M228.553 109.737L220.119 124.488L199.977 96.9343L182.508 121.513L166.39 103.496L155.915 123.136L142.305 100.054L137.952 107.466L127.948 86.0307L118.832 105.384L101.616 62.9641L85.3178 105.012L61.7152 23.8906L38.9626 116.394L16.543 85.8967" stroke="url(#paint9_linear_1874_50788)" stroke-width="0.765697" stroke-miterlimit="10"/>
<path d="M46.6252 163.329C38.3863 203.355 72.6167 237.521 72.6167 237.521L39.4506 248.581C6.66726 207.234 7.88473 158.934 7.88473 158.934L46.6252 163.329Z" fill="url(#paint10_linear_1874_50788)"/>
<path d="M15.5297 159.799C15.5297 159.799 13.7992 210.97 48.7265 249.003" stroke="url(#paint11_linear_1874_50788)" stroke-width="1.14855" stroke-miterlimit="10"/>
<path d="M23.6566 158.715C23.6566 158.715 21.9299 209.886 56.8533 247.919" stroke="url(#paint12_linear_1874_50788)" stroke-width="1.14855" stroke-miterlimit="10"/>
<path d="M32.1351 157.379C32.1351 157.379 30.4084 208.55 65.3319 246.583" stroke="url(#paint13_linear_1874_50788)" stroke-width="1.14855" stroke-miterlimit="10"/>
<path d="M40.9654 156.857C40.9654 156.857 39.2349 208.029 74.1621 246.061" stroke="url(#paint14_linear_1874_50788)" stroke-width="1.14855" stroke-miterlimit="10"/>
<path d="M81.8027 206.596V12.4043" stroke="url(#paint15_linear_1874_50788)" stroke-width="0.382848" stroke-miterlimit="10"/>
<path d="M216.014 184.025C189.98 124.684 175.65 165.266 158.694 164.175C140.416 163.026 142.614 77.3063 103.031 111.966C63.4485 146.625 92.4149 71.2114 70.2939 47.1111C55.4776 30.9702 34.4976 57.1341 22.2617 76.1693" stroke="url(#paint16_linear_1874_50788)" stroke-width="1.14855" stroke-miterlimit="10"/>
<path d="M190.445 203.382C201.225 203.382 209.963 202.06 209.963 200.43C209.963 198.8 201.225 197.479 190.445 197.479C179.666 197.479 170.928 198.8 170.928 200.43C170.928 202.06 179.666 203.382 190.445 203.382Z" fill="url(#paint17_linear_1874_50788)"/>
<path d="M190.445 203.382C201.225 203.382 209.963 202.06 209.963 200.43C209.963 198.8 201.225 197.479 190.445 197.479C179.666 197.479 170.928 198.8 170.928 200.43C170.928 202.06 179.666 203.382 190.445 203.382Z" stroke="#9FBDFF" stroke-width="0.382848" stroke-linejoin="round"/>
<path d="M189.41 204.684C189.41 204.684 176.079 199.576 163.859 190.2C151.638 180.824 159.544 180.246 165.524 174.619C171.504 168.991 155.329 170.407 148.062 161.602C140.796 152.796 146.052 148.941 148.931 148.083C152.982 146.877 155.329 147.505 156.784 145.334C158.905 142.168 150.409 134.017 148.062 130.625C146.11 127.808 140.382 117.011 149.701 117.011C160.421 117.011 154.406 102.589 159.196 99.607C161.554 98.1331 163.46 100.537 166.003 107.494C167.151 110.641 168.713 117.011 173.843 115.266C179.689 113.275 182.519 115.844 180.945 124.879C179.705 132.027 175.666 143.049 179.961 141.387C190.849 137.176 184.973 159.691 185.704 161.74C186.787 164.718 189.463 159.083 194.1 161.249C204.356 166.039 189.41 204.684 189.41 204.684Z" fill="#F9B471"/>
<path d="M189.473 204.515C189.473 204.515 191.039 179.557 208.313 167.819C222.015 158.501 239.499 157.429 246.169 157.383C246.246 157.398 246.317 157.436 246.372 157.493C246.427 157.55 246.463 157.622 246.475 157.7C246.487 157.778 246.475 157.857 246.44 157.928C246.405 157.999 246.349 158.057 246.28 158.095C240.759 159.883 227.597 166.135 217.566 186.854C212.34 197.635 198.056 202.165 189.473 204.515Z" fill="#6B90D6"/>
<path d="M190.447 202.862C191.213 201.686 207.729 165.343 245.122 157.977" stroke="#113291" stroke-width="0.382848" stroke-linecap="round" stroke-linejoin="round"/>
<path d="M159.705 99.3613C159.705 99.3613 168.622 121.509 171.053 146.953C174.058 178.431 188.311 201.984 188.311 201.984" stroke="white" stroke-width="0.382848" stroke-miterlimit="10"/>
<path opacity="0.51" d="M185.992 262.084C193.219 262.084 199.078 261.197 199.078 260.104C199.078 259.011 193.219 258.125 185.992 258.125C178.765 258.125 172.906 259.011 172.906 260.104C172.906 261.197 178.765 262.084 185.992 262.084Z" fill="url(#paint18_linear_1874_50788)"/>
<path d="M190.449 203.385C179.668 203.385 170.924 202.061 170.924 200.43C170.924 256.888 182.199 260.395 182.199 260.395H182.425C183.29 260.943 186.548 261.352 190.441 261.352C194.335 261.352 197.589 260.943 198.454 260.395H198.699C198.699 260.395 209.974 256.888 209.974 200.43C209.963 202.061 201.226 203.385 190.449 203.385Z" fill="url(#paint19_linear_1874_50788)"/>
<path d="M157.455 182.443C157.455 182.443 177.229 185.751 181.574 188.186" stroke="white" stroke-width="0.382848" stroke-miterlimit="10"/>
<path d="M195.253 161.992C195.253 161.992 183.622 170.702 182.045 189.236" stroke="white" stroke-width="0.382848" stroke-miterlimit="10"/>
<path d="M144.465 152.865C144.465 152.865 169.526 156.349 174.365 166.736" stroke="white" stroke-width="0.382848" stroke-miterlimit="10"/>
<path d="M191.705 261.337C186.613 237.681 185.166 215.135 184.76 203.255C176.755 202.872 170.928 201.762 170.928 200.43C170.928 256.888 182.203 260.395 182.203 260.395H182.429C183.294 260.943 186.552 261.352 190.445 261.352C190.874 261.352 191.291 261.345 191.705 261.337Z" fill="url(#paint20_linear_1874_50788)"/>
<path d="M190.449 203.385C179.668 203.385 170.924 202.061 170.924 200.43C170.924 256.888 182.199 260.395 182.199 260.395H182.425C183.29 260.943 186.548 261.352 190.441 261.352C194.335 261.352 197.589 260.943 198.454 260.395H198.699C198.699 260.395 209.974 256.888 209.974 200.43C209.963 202.061 201.226 203.385 190.449 203.385Z" stroke="#9FBDFF" stroke-width="0.382848" stroke-linejoin="round"/>
<path d="M209.961 200.43C209.961 202.061 201.224 203.385 190.435 203.385C179.647 203.385 170.91 202.061 170.91 200.43" stroke="#9FBDFF" stroke-width="0.382848" stroke-linejoin="round"/>
<path d="M144.791 119.668C144.791 119.668 165.159 129.132 170.503 145.024" stroke="white" stroke-width="0.382848" stroke-miterlimit="10"/>
<path d="M189.41 204.684C189.41 204.684 176.079 199.576 163.859 190.2C151.638 180.824 159.544 180.246 165.524 174.619C171.504 168.991 155.329 170.407 148.062 161.602C140.796 152.796 146.052 148.941 148.931 148.083C152.982 146.877 155.329 147.505 156.784 145.334C158.905 142.168 150.409 134.017 148.062 130.625C146.11 127.808 140.382 117.011 149.701 117.011C160.421 117.011 154.406 102.589 159.196 99.607C161.554 98.1331 163.46 100.537 166.003 107.494C167.151 110.641 168.713 117.011 173.843 115.266C179.689 113.275 182.519 115.844 180.945 124.879C179.705 132.027 175.666 143.049 179.961 141.387C190.849 137.176 184.973 159.691 185.704 161.74C186.787 164.718 189.463 159.083 194.1 161.249C204.356 166.039 189.41 204.684 189.41 204.684Z" stroke="#ED6921" stroke-width="0.382848" stroke-linecap="round" stroke-linejoin="round"/>
<path d="M248.581 134.714L163.742 149.415L164.749 83.1018L249.592 68.4043L248.581 134.714Z" fill="url(#paint21_linear_1874_50788)"/>
<path d="M197.225 55.6741L129.457 67.4122L130.265 14.449L198.029 2.70703L197.225 55.6741Z" fill="url(#paint22_linear_1874_50788)"/>
<path d="M194.277 56.1834C194.277 56.1834 198.029 26.5854 193.247 22.0295C191.631 20.4981 178.668 22.5999 178.668 22.5999L168.768 60.6053L194.277 56.1834Z" fill="#B5CBFA"/>
<path d="M214.869 40.9576L234.693 37.332V64.6061" stroke="#6A91D6" stroke-width="0.382848" stroke-miterlimit="10"/>
<path d="M178.666 22.5896C178.666 22.5896 191.629 20.4801 193.245 22.0191C198.027 26.575 194.275 56.173 194.275 56.173" stroke="#9FBDFF" stroke-width="0.382848" stroke-linejoin="round"/>
<path d="M190.277 56.8807C190.277 56.8807 194.033 27.2826 189.251 22.7267C187.631 21.1954 174.668 23.2972 174.668 23.2972L164.768 61.2987L190.277 56.8807Z" fill="#B5CBFA"/>
<path d="M174.65 23.2966C174.65 23.2966 187.614 21.1871 189.233 22.7261C194.015 27.282 190.259 56.88 190.259 56.88" stroke="#9FBDFF" stroke-width="0.382848" stroke-linejoin="round"/>
<path d="M240.851 136.053C240.851 136.053 244.607 106.455 239.825 101.903C238.206 100.372 225.242 102.47 225.242 102.47L215.342 140.475L240.851 136.053Z" fill="#B5CBFA"/>
<path d="M214.834 103.901C214.834 103.901 238.188 100.36 239.822 101.903C244.604 106.455 240.849 136.053 240.849 136.053" stroke="#9FBDFF" stroke-width="0.382848" stroke-linejoin="round"/>
<path d="M236.834 136.75C236.834 136.75 240.589 107.152 235.808 102.6C234.188 101.068 214.314 104.319 214.314 104.319L211.332 141.172L236.834 136.75Z" fill="#B5CBFA"/>
<path d="M214.834 104.19C214.834 104.19 234.187 101.074 235.806 102.605C240.588 107.157 236.832 136.755 236.832 136.755" stroke="#9FBDFF" stroke-width="0.382848" stroke-linejoin="round"/>
<path d="M176.111 9.73633C176.111 9.73633 177.891 14.1582 178.205 16.1261C178.519 18.0939 181.9 31.0036 182.838 33.4232C183.776 35.8428 182.838 43.4347 182.838 43.4347C182.838 43.4347 169.955 32.8336 170.139 32.3856C170.322 31.9377 176.111 9.73633 176.111 9.73633Z" fill="#3A66C9"/>
<path d="M147.316 35.5834C147.316 35.5834 147.067 29.9938 150.022 27.2143C152.978 24.4349 153.851 17.6431 153.851 17.6431C153.851 17.6431 152.584 8.30163 156.73 6.81618C160.876 5.33073 167.002 6.2687 167.002 6.2687L166.481 34.9823L147.316 35.5834Z" fill="#0A46BE"/>
<path d="M96.8708 12.4043V206.596" stroke="url(#paint23_linear_1874_50788)" stroke-width="0.382848" stroke-miterlimit="10"/>
<path d="M157.027 21.4752C155.725 21.7623 153.581 22.4017 152.846 16.8236C152.111 11.2455 154.14 10.5449 154.14 10.5449C154.14 10.5449 158.884 8.40091 159.534 11.1038C160.185 13.8067 162.482 20.2922 157.027 21.4752Z" fill="#0A46BE"/>
<path d="M112.014 12.4043V206.596" stroke="url(#paint24_linear_1874_50788)" stroke-width="0.382848" stroke-miterlimit="10"/>
<path d="M41.73 144.637C39.0042 145.303 35.861 145.985 28.7132 145.46C22.3656 144.997 19.6895 143.488 19.6895 143.488C19.6895 143.488 25.1412 146.463 27.4306 162.041C29.7201 177.619 37.3043 200.418 41.3127 205.686C45.3212 210.954 51.6688 213.504 54.2377 209.702C56.8066 205.9 57.3196 192.646 74.0156 193.056C74.0156 193.056 85.1527 192.405 92.8097 196.934C100.467 201.463 110.715 205.927 118.131 206.689C120.305 206.906 122.5 206.632 124.554 205.888C126.608 205.144 128.469 203.948 130 202.39C130 202.39 134.762 193.301 134.674 190.659C134.586 188.017 105.773 200.066 91.4123 183.274C77.0516 166.482 52.3617 135.801 52.3617 135.801C52.3617 135.801 51.24 142.309 41.73 144.637Z" fill="url(#paint25_linear_1874_50788)"/>
<path d="M34.8383 146.147C34.8383 146.147 30.9792 152.716 30.3551 155.741C29.7311 158.765 33.0657 205.511 44.3827 202.467C55.6997 199.424 57.5565 195.381 57.5565 195.381C57.5565 195.381 60.447 216.131 62.2962 216.131C64.1453 216.131 88.6668 188.072 88.6668 188.072L55.7648 135.572C55.7648 135.572 53.2992 145.519 34.8383 146.147Z" fill="url(#paint26_linear_1874_50788)"/>
<path d="M89.1237 122.895C89.1237 122.895 89.8013 123.561 90.5479 126.23C90.8848 127.444 101.547 131.207 101.547 131.207L88.6145 174.025L88.8097 177.983C88.8097 177.983 81.1528 191.15 78.4077 191.307C76.8764 191.398 71.6926 189.009 64.8396 193.01C64.8396 193.01 65.0463 178.68 64.2653 170.422C64.005 167.662 61.8189 162.857 61.5318 162.153C61.0877 161.061 59.2041 171.919 58.714 171.919C52.1673 171.919 41.103 179.316 38.6681 172.359C38.0402 170.568 38.1091 168.47 38.6681 166.452C38.9233 165.497 39.1786 164.565 39.4338 163.653C39.6673 162.754 41.1451 163.114 41.348 162.256C42.3588 158.251 44.6941 155.529 44.6635 152.206C44.5869 144.48 44.5908 140.491 45.4292 138.217C46.9185 134.22 61.1987 130.177 65.8618 122.451C66.0609 122.122 65.3297 121.456 65.7125 120.862C67.0295 118.829 67.1903 117.558 67.1903 116.908C67.2056 113.133 82.8373 118.726 89.1237 122.895Z" fill="#F9B471"/>
<path d="M66.863 161.459C67.3837 161.876 71.595 164.208 72.6746 164.832C78.0843 167.948 88.9725 174.506 97.1769 170.873C100.852 169.246 70.0674 191.08 70.0674 191.08C70.0674 191.08 66.036 191.62 64.9526 192.611L63.7122 171.424C63.7122 171.424 61.9855 165.502 61.3461 162.764C60.7068 160.027 63.3408 156.838 63.3408 156.838L66.863 161.459Z" fill="url(#paint27_linear_1874_50788)"/>
<path d="M8.62051 137.504C8.23766 136.738 6.82495 134.143 9.38621 134.15C11.9475 134.158 28.5286 139.261 31.9321 157.83C35.3357 176.398 37.2614 207.217 46.3387 209.717C55.4161 212.217 55.9099 205.98 57.8931 201.294C59.8762 196.608 65.7147 186.524 85.3395 194.104C104.964 201.685 120.477 214.602 132.319 198.293L136.147 197.408C136.147 197.408 135.205 206.98 122.977 220.173C110.749 233.366 90.619 237.883 70.6343 231.781C50.6496 225.678 43.1113 214.499 39.0148 206.995C34.9184 199.491 17.9926 156 8.62051 137.504Z" fill="#6B91D8"/>
<path d="M134.148 201.379C134.148 201.379 135.205 205.046 125.14 217.294C115.075 229.541 95.9821 239.361 69.2938 231.459C42.6054 223.557 34.5426 199.197 29.4086 186.149C25.4155 176.004 14.6345 150.027 9.11768 139.028C8.33284 137.462 7.93085 134.641 10.404 136.371C14.6154 139.315 21.7785 146.023 23.6889 153.144C26.7938 164.706 34.087 202.148 42.5403 209.009C50.9936 215.87 56.6445 213.063 58.7157 204.966C60.7869 196.869 68.7425 189.223 86.4684 197.435C104.194 205.648 123.076 213.783 132.521 200.678L134.148 201.379Z" fill="#577CCD"/>
<path opacity="0.47" d="M47.0209 212.948C47.0209 212.948 60.4972 232.661 93.2729 233.756C93.2729 233.756 83.269 236.202 60.5431 228.094C37.8173 219.985 17.8555 160.077 15.1603 151.225C12.465 142.374 5.85707 136.711 9.7315 136.241C13.6059 135.77 23.514 149.257 25.8915 158.262C28.269 167.267 30.2062 198.293 47.0209 212.948Z" fill="url(#paint28_linear_1874_50788)"/>
<path d="M134.025 199.464C131.065 203.718 117.643 214.709 97.3748 202.255C77.1068 189.801 63.5348 191.8 60.5371 199.192C57.5394 206.585 57.727 215.517 48.3587 211.486C38.9904 207.454 30.5524 183.538 26.5708 161.248C24.3847 148.997 15.5754 140.352 10.6252 136.516C9.34644 135.525 7.34032 135.605 9.51489 139.365C14.1282 147.339 21.2377 166.375 30.0892 187.887C42.2025 217.328 50.7285 228.905 80.9123 233.882C111.096 238.859 131.908 215.628 134.836 198.94" stroke="#113291" stroke-width="0.382848" stroke-linecap="round"/>
<path d="M8.62073 137.505C8.62073 137.505 6.34661 133.979 9.58934 134.163C12.8321 134.347 28.0618 139.305 31.5074 155.821C34.953 172.337 37.1085 199.623 44.6621 207.651C47.6598 210.836 53.8504 210.419 57.901 201.299C61.9515 192.18 71.3696 185.649 91.5648 196.254C111.76 206.858 123.441 209.619 131.492 200.036" stroke="#113291" stroke-width="0.382848" stroke-linecap="round"/>
<path d="M26.9395 145.296C26.9395 145.296 36.7901 146.667 44.3782 143.814" stroke="#113291" stroke-width="0.382848" stroke-linecap="round"/>
<path d="M83.3886 117.535C83.3886 117.535 79.8511 122.704 79.25 127.432L83.3886 117.535Z" fill="white"/>
<path d="M83.3886 117.535C83.3886 117.535 79.8511 122.704 79.25 127.432" stroke="#C4C4C4" stroke-width="0.382848" stroke-linecap="round" stroke-linejoin="round"/>
<path d="M84.2261 116.184C84.2032 116.299 83.5753 126.116 83.5753 126.116C83.5753 126.116 86.4007 128.114 86.5807 130.128C86.7797 132.383 85.3747 137.325 85.0493 138.206C85.0493 138.206 83.8318 135.832 82.2162 134.354C80.6675 132.942 79.3258 131.318 78.2307 129.531C76.2667 125.962 75.8915 124.01 75.436 123.562C75.436 123.562 69.5439 120.56 69.253 119.174C68.962 117.789 71.8601 109.879 71.8601 109.879L84.2261 116.184Z" fill="white"/>
<path d="M68.5301 103.347C68.5301 103.347 67.1634 110.901 74.5179 118.079C81.8724 125.258 84.0891 122.574 87.2591 120.105C90.4291 117.635 91.8226 111.716 92.3624 110.078C93.2621 107.344 94.8395 102.153 95.0079 100.755C95.1764 99.358 98.1205 93.4813 88.9589 88.2057C79.7974 82.93 73.4153 81.7929 68.3923 86.9882C63.3693 92.1835 65.9038 95.7363 68.5301 103.347Z" fill="white" stroke="#C4C4C4" stroke-width="0.382848" stroke-linecap="round" stroke-linejoin="round"/>
<path d="M80.1492 99.1973C80.4861 99.5227 81.7342 101.908 82.2817 102.26C82.8292 102.612 80.4057 102.846 79.6247 105.369C78.8437 107.892 80.0076 110.396 80.1492 111.023C80.2909 111.651 81.1638 125.334 77.9134 120.759C77.7526 120.537 72.4118 119.565 69.686 111.05C69.0581 109.09 68.7442 107.333 69.4486 105.897C71.8069 101.108 80.1492 99.1973 80.1492 99.1973Z" fill="url(#paint29_linear_1874_50788)"/>
<path d="M69.0829 119.001C68.9987 119.177 74.8027 125.276 80.1511 122.243C80.1511 122.243 75.9819 119.533 74.8333 118.453C73.501 117.194 70.2391 112.879 70.2391 112.879C70.2391 112.879 70.0822 116.849 69.0829 119.001Z" fill="url(#paint30_linear_1874_50788)"/>
<path d="M69.2453 109.878C69.3142 105.778 67.5225 102.06 70.2943 101.264C71.3357 100.965 71.4429 100.996 71.5003 102.501C71.5271 103.155 71.6573 105.18 71.864 105.089C75.3786 103.247 80.9911 93.986 80.9911 93.986C80.9911 93.986 90.39 99.9852 96.8602 98.8903C96.8602 98.8903 97.1626 95.862 95.5891 90.2609C94.6014 86.7425 93.694 87.1981 91.6037 85.8543C91.6037 85.8543 93.0394 86.4975 89.743 83.963C84.1305 79.6407 76.1979 80.3719 73.3686 81.6468C61.9865 86.7808 65.5508 92.6001 63.9314 95.9845C61.217 101.689 69.2109 111.827 69.2453 109.878Z" fill="#0D2265"/>
<path d="M135.245 158.65C135.245 158.65 91.7345 173.964 90.1303 174.4C88.5262 174.837 89.3187 172.172 89.3187 172.172C89.3187 172.172 93.7291 146.759 95.4442 136.602C95.8271 134.305 95.9841 133.267 98.4305 132.536C100.877 131.805 137.512 125.128 139.395 124.921C140.781 124.768 140.927 125.687 140.781 126.671C139.839 133.279 136.788 155.687 136.788 155.687C136.788 155.687 136.761 158.118 135.245 158.65Z" fill="#0D5DB5" stroke="#113291" stroke-width="0.765697"/>
<path d="M136.513 158.826C136.513 158.826 93.0022 174.14 91.398 174.58C89.7939 175.02 90.5864 172.348 90.5864 172.348C90.5864 172.348 95.0006 146.938 96.7119 136.781C97.0948 134.484 97.2556 133.447 99.6982 132.716C102.141 131.984 138.779 125.308 140.663 125.101C142.049 124.948 142.194 125.866 142.049 126.85C141.107 133.458 138.056 155.866 138.056 155.866C138.056 155.866 138.029 158.294 136.513 158.826Z" fill="#9FBDFF"/>
<path d="M63.0938 180.292L88.668 172.818" stroke="#113291" stroke-width="0.382848" stroke-linecap="round"/>
<path d="M63.7688 181.302L64.6187 182.102L88.9143 175.563C88.9143 175.563 91.4219 174.671 91.4219 173.837C91.4219 173.002 91.0046 172.818 91.0046 172.818L62.291 180.927L63.7688 181.302Z" fill="#0D5DB5" stroke="#113291" stroke-width="0.765697"/>
<path d="M152.296 223.492C152.151 224.109 152.874 233.668 152.139 234.017C151.404 234.365 146.014 234.637 146.014 234.637" stroke="#113291" stroke-width="0.382848" stroke-linecap="round" stroke-linejoin="round"/>
<path d="M145.777 235.563C145.777 235.563 147.956 243.603 147.734 245.808C147.512 248.013 144.855 254.23 148.53 255.632C152.205 257.033 156.348 255.092 159.464 255.835C162.581 256.577 168.304 258.817 171.264 257.469C174.223 256.122 176.742 254.177 175.115 253.201C173.488 252.224 168.725 251.704 166.252 250.176C163.779 248.649 153.809 242.071 153.687 241.371C153.564 240.67 153.281 234.039 153.281 234.039" fill="white"/>
<path d="M145.777 235.563C145.777 235.563 147.956 243.603 147.734 245.808C147.512 248.013 144.855 254.23 148.53 255.632C152.205 257.033 156.348 255.092 159.464 255.835C162.581 256.577 168.304 258.817 171.264 257.469C174.223 256.122 176.742 254.177 175.115 253.201C173.488 252.224 168.725 251.704 166.252 250.176C163.779 248.649 153.809 242.071 153.687 241.371C153.564 240.67 153.281 234.039 153.281 234.039" stroke="#C4C4C4" stroke-width="0.382848" stroke-linecap="round" stroke-linejoin="round"/>
<path d="M175.301 227.076C175.301 227.076 180.278 231.387 184.29 233.129C188.303 234.871 200.531 238.558 202.445 239.013C204.359 239.469 208.054 240.085 205.761 243.99C203.467 247.895 198.069 249.201 195.385 248.692C192.702 248.183 190.577 245.07 187.759 244.595C184.941 244.121 182.981 245.219 179.279 242.968C175.577 240.717 175.604 237.608 173.452 234.871C171.3 232.134 168.877 231.624 168.877 231.624" fill="white"/>
<path d="M175.301 227.076C175.301 227.076 180.278 231.387 184.29 233.129C188.303 234.871 200.531 238.558 202.445 239.013C204.359 239.469 208.054 240.085 205.761 243.99C203.467 247.895 198.069 249.201 195.385 248.692C192.702 248.183 190.577 245.07 187.759 244.595C184.941 244.121 182.981 245.219 179.279 242.968C175.577 240.717 175.604 237.608 173.452 234.871C171.3 232.134 168.877 231.624 168.877 231.624" stroke="#C4C4C4" stroke-width="0.382848" stroke-linecap="round" stroke-linejoin="round"/>
<path d="M98.5669 65.8654L85.3242 68.1586L85.4812 53.2658L98.7239 50.9688L98.5669 65.8654Z" fill="white"/>
<path d="M220.546 58.5031L213.506 59.7205L213.59 51.7994L220.631 50.5781L220.546 58.5031Z" fill="url(#paint31_linear_1874_50788)"/>
<path d="M79.3228 51.089L72.6191 52.2529L72.6957 44.7069L79.4032 43.5469L79.3228 51.089Z" fill="white"/>
<path d="M87.1348 64.6139L94.9104 63.3926" stroke="#849BD6" stroke-width="0.382848" stroke-miterlimit="10"/>
<path d="M87.1348 61.8963L93.3101 60.9238" stroke="#849BD6" stroke-width="0.382848" stroke-miterlimit="10"/>
<path d="M87.1348 57.0564L93.3101 56.084" stroke="#849BD6" stroke-width="0.382848" stroke-miterlimit="10"/>
<path d="M87.1348 59.526L94.9104 58.3047" stroke="#849BD6" stroke-width="0.382848" stroke-miterlimit="10"/>
<path d="M149.029 34.9979C149.795 34.8256 156.097 30.1127 161.12 29.6916C161.12 29.6916 167.13 28.7727 167.751 29.6916C168.371 30.6104 170.989 29.0637 174.217 29.7949C175.078 29.9902 178.015 30.1242 181.556 35.0629C182.146 35.8784 182.804 41.8087 186.15 46.0928C188.602 49.1794 190.043 52.9465 190.277 56.8815L157.574 62.5476L149.029 34.9979Z" fill="#6C92D9"/>
<path d="M167.305 11.6816C167.688 12.5277 166.922 23.906 172.99 28.2475" stroke="#324BB0" stroke-width="0.382848" stroke-miterlimit="10"/>
<path d="M173.748 30.7712C173.748 30.7712 171.589 35.1854 168.389 36.1502C165.188 37.115 162.47 33.9756 163.094 32.1609C163.452 31.159 163.629 30.101 163.614 29.0369C163.614 29.0369 163.58 24.9825 163.232 23.4779C162.883 21.9733 172.255 18.432 172.665 19.5269C173.075 20.6219 171.589 25.7444 173.748 30.7712Z" fill="#B5CDFD"/>
<path d="M136.848 75.5326L164.413 70.7891V76.7692L136.848 81.5088V75.5326Z" fill="#FF996C"/>
<path d="M139.418 79.2584L141.612 76.6665L144.694 78.3357L147.098 75.6635L150.13 77.4131L152.645 74.6221L155.685 76.3794L158.086 73.7109L160.93 75.3572" stroke="url(#paint32_linear_1874_50788)" stroke-width="0.382848" stroke-linejoin="round"/>
<path d="M94.0801 31.4413L118.131 27.3027V32.5171L94.0801 36.6557V31.4413Z" fill="#FF996C"/>
<path d="M96.2637 34.6212L97.8984 32.6916L100.192 33.9359L101.983 31.9451L104.238 33.2506L106.111 31.1679L108.377 32.4772L110.161 30.4902L112.282 31.7153" stroke="url(#paint33_linear_1874_50788)" stroke-width="0.382848" stroke-linejoin="round"/>
<path d="M94.0801 37.6123L106.105 35.5449V40.7593L94.0801 42.8267V37.6123Z" fill="#FF996C"/>
<path d="M96.2637 40.4105L97.8984 38.4809L100.192 39.7252L101.983 37.7344L104.238 39.0399" stroke="url(#paint34_linear_1874_50788)" stroke-width="0.382848" stroke-linejoin="round"/>
<path d="M175.219 237.914C176.708 240.594 185.479 239.385 187.558 237.405C189.637 235.426 186.168 233.868 186.168 233.868L184.533 233.221C184.782 233.348 185.058 233.415 185.337 233.416C185.847 233.416 193.144 235.514 195.024 236.123C196.903 236.731 205.487 237.164 207.003 239.132C208.519 241.1 207.987 244.676 204.047 247.275C200.108 249.875 197.156 248.806 191.053 247.13C184.951 245.453 179.438 243.684 179.059 243.481C177.992 242.708 177.074 241.748 176.348 240.648C175.795 239.82 175.412 238.891 175.219 237.914Z" fill="#6B91D8"/>
<path d="M175.219 237.914C176.708 240.594 185.479 239.385 187.558 237.405C189.637 235.426 186.168 233.868 186.168 233.868L184.533 233.221C184.533 233.221 184.851 233.221 185.357 233.221C185.862 233.221 193.144 235.518 195.024 236.111C196.903 236.705 205.487 237.153 207.003 239.12C208.519 241.088 207.987 244.664 204.047 247.264C200.108 249.863 197.156 248.795 191.053 247.118C184.951 245.441 179.438 243.672 179.059 243.47C177.992 242.696 177.074 241.736 176.348 240.636C175.797 239.812 175.413 238.887 175.219 237.914V237.914Z" stroke="#113291" stroke-width="0.382848" stroke-linecap="round"/>
<path d="M147.053 247.01C147.053 247.01 147.922 248.423 150.978 248.427C154.033 248.431 157.685 247.611 158.439 247.144C158.928 246.789 159.275 246.272 159.419 245.686C159.419 245.686 166.498 249.771 167.164 250.019C167.831 250.268 176.406 252.466 177.011 252.933C177.616 253.4 177.689 254.621 177.689 254.621C177.689 254.621 176.954 259.215 168.546 257.883C160.139 256.551 152.907 256.202 149.477 256.432C146.046 256.662 146.506 255.724 146.506 255.724C146.193 254.334 146.113 252.902 146.268 251.486C146.506 248.97 147.069 248.3 147.053 247.01Z" fill="#6B91D8"/>
<path d="M177.668 242.298C177.668 242.298 179.632 245.491 180.482 245.743C181.332 245.996 187.634 247.179 189.513 248.324C191.393 249.468 196.577 250.862 200.712 250.621C204.847 250.38 208.239 247.374 208.798 245.261C209.126 243.798 209.082 242.277 208.671 240.835C208.618 240.609 206.451 238.68 206.451 238.68" stroke="#113291" stroke-width="0.382848" stroke-linecap="round"/>
<path d="M147.053 247.01C147.053 247.01 147.922 248.423 150.978 248.427C154.033 248.431 157.685 247.611 158.439 247.144C158.928 246.789 159.275 246.272 159.419 245.686C159.419 245.686 166.498 249.771 167.164 250.019C167.831 250.268 176.406 252.466 177.011 252.933C177.616 253.4 177.689 254.621 177.689 254.621C177.689 254.621 176.954 259.215 168.546 257.883C160.139 256.551 152.907 256.202 149.477 256.432C146.046 256.662 146.506 255.724 146.506 255.724C146.193 254.334 146.113 252.902 146.268 251.486C146.506 248.97 147.069 248.3 147.053 247.01Z" stroke="#113291" stroke-width="0.382848" stroke-linecap="round" stroke-linejoin="round"/>
<path d="M146.409 255.287L146.248 258.231C146.248 258.231 145.754 259.12 149.112 259.196C152.469 259.273 159.518 259.058 164.939 260.107C170.36 261.156 175.559 260.107 176.669 258.986C177.779 257.864 177.929 256.979 177.963 256.612C177.918 255.944 177.831 255.279 177.703 254.621" stroke="#113291" stroke-width="0.382848" stroke-linecap="round" stroke-linejoin="round"/>
<path d="M81.3195 97.1562C81.3195 97.1562 85.8065 97.922 85.73 98.4694C85.6534 99.0169 84.9911 100.384 86.0401 99.438C87.0891 98.4924 87.0087 99.036 86.8326 99.35C86.6565 99.6639 86.1817 101.13 85.8754 101.038C85.5692 100.946 81.7369 99.2351 79.4551 99.1241" fill="#0D2265"/>
<path d="M91.0681 106.659C91.0681 106.659 90.7886 109.09 89.6018 108.872C88.415 108.653 88.8361 106.448 89.9387 105.928C91.0413 105.407 91.0681 106.659 91.0681 106.659Z" fill="#0D2265"/>
<path d="M82.0244 104.136C81.7122 104.36 81.4874 104.686 81.3882 105.057C81.2891 105.429 81.3218 105.823 81.4808 106.173C82.0014 107.452 83.3146 106.449 83.506 105.614C83.6975 104.779 83.3338 103.631 82.6025 103.815C81.8713 103.998 82.0244 104.136 82.0244 104.136Z" fill="#0D2265"/>
<path d="M90.8201 100.578C90.4481 101.139 90.1192 101.728 89.8362 102.339C89.7941 102.611 92.3209 102.661 94.0858 104.062C94.0858 104.062 94.3921 102.864 94.1586 102.531C93.925 102.197 92.1869 101.022 91.9036 100.999C91.6203 100.976 91.0384 102.029 90.778 102.063C90.5177 102.098 91.6892 99.9234 90.8201 100.578Z" fill="#0D2265"/>
<path d="M82.8457 111.62C83.6868 111.568 84.5241 111.467 85.3534 111.317C86.2416 111.122 87.3671 112.27 87.5815 112.661C87.7959 113.051 86.433 113.197 85.0011 112.852C84.1714 112.677 83.4176 112.246 82.8457 111.62Z" fill="#C4C4C4"/>
<path d="M78.8359 113.229C79.7467 113.838 80.621 114.5 81.4546 115.212C82.5228 116.165 84.7586 117.091 86.8413 116.039" stroke="#C4C4C4" stroke-width="0.382848" stroke-miterlimit="10"/>
<path d="M81.2148 117.742C81.2148 117.742 82.9721 119.446 85.0242 118.19" stroke="#C4C4C4" stroke-width="0.382848" stroke-miterlimit="10"/>
<path d="M86.0765 116.471C86.3369 116.471 86.2297 115.384 85.1577 115.322C84.0857 115.261 83.4847 114.583 83.0061 114.679C82.3385 114.77 81.666 114.82 80.9923 114.828C80.9923 114.828 82.2749 116.67 86.0765 116.471Z" fill="#C4C4C4"/>
<path d="M192.67 237.75C192.67 237.75 192.601 239.392 190.576 240.813" stroke="#113291" stroke-width="0.382848" stroke-linecap="round" stroke-linejoin="round"/>
<path d="M195.108 238.344C195.108 238.344 194.606 240.798 193.109 241.851" stroke="#113291" stroke-width="0.382848" stroke-linecap="round" stroke-linejoin="round"/>
<path d="M189.834 237.519C189.834 237.519 185.041 229.728 190.6 227.998C196.159 226.267 191.488 236.983 191.488 236.983" stroke="#113291" stroke-width="0.382848" stroke-linecap="round" stroke-linejoin="round"/>
<path d="M188.189 238.358C188.189 238.358 183.594 236.996 184.693 241.119C185.792 245.242 189.391 239.396 189.391 239.396" stroke="#113291" stroke-width="0.382848" stroke-linecap="round" stroke-linejoin="round"/>
<path d="M163.029 247.57C163.029 247.57 163.466 248.772 162.064 249.592" stroke="#113291" stroke-width="0.382848" stroke-linecap="round" stroke-linejoin="round"/>
<path d="M164.802 248.752C164.802 248.752 165.667 249.992 163.902 251.099" stroke="#113291" stroke-width="0.382848" stroke-linecap="round" stroke-linejoin="round"/>
<path d="M160.921 247.069C160.921 247.069 155.975 240.817 161.346 238.294C166.718 235.771 162.445 247.992 162.445 247.992" stroke="#113291" stroke-width="0.382848" stroke-linecap="round" stroke-linejoin="round"/>
<path d="M159.951 247.964C159.951 247.964 156.298 246.903 156.218 249.269C156.137 251.635 161.172 249.169 161.172 249.169" stroke="#113291" stroke-width="0.382848" stroke-linecap="round" stroke-linejoin="round"/>
<path d="M74.1689 123.163C74.1689 123.163 68.7056 119.147 67.4614 117.217C66.2171 115.288 69.9078 115.931 69.9078 115.931" stroke="#113291" stroke-width="0.382848" stroke-linecap="round"/>
<path d="M67.0839 116.896C67.0839 116.896 67.4668 118.834 65.7746 120.725C65.7746 120.725 64.7333 124.232 72.3481 132.869C72.8305 133.416 72.5625 125.568 74.7141 123.681C75.7861 122.743 76.2455 126.659 77.93 129.071C78.9398 130.58 80.0758 132 81.3259 133.317C83.6843 135.947 84.1743 136.736 84.8673 138.229C85.5602 139.722 89.1245 170.859 89.1245 170.859" stroke="#113291" stroke-width="0.382848" stroke-linecap="round"/>
<path d="M83.5898 126.115C83.5898 126.115 85.7644 127.432 86.4957 129.637C86.7445 130.403 85.9482 134.844 85.4007 136.238C84.8532 137.631 85.0944 140.258 85.0944 140.258" stroke="#113291" stroke-width="0.382848" stroke-linecap="round"/>
<path d="M86.1954 121.199C86.1954 121.199 88.8103 122.731 89.1242 122.884C89.4382 123.037 91.0385 126.743 91.2873 129.718" stroke="#113291" stroke-width="0.382848" stroke-linecap="round"/>
<path d="M86.8418 130.128C86.8992 129.99 88.3426 122.413 89.1389 122.884" stroke="#113291" stroke-width="0.382848" stroke-linecap="round"/>
<path d="M90.627 126.494C90.627 126.494 98.6438 130.127 102.021 131.471" stroke="#113291" stroke-width="0.382848" stroke-linecap="round"/>
<path d="M50.3521 259.894C50.31 258.087 55.2181 256.364 63.0818 254.58C83.4787 249.815 104.643 249.34 125.233 253.182C132.89 254.58 137.649 256.042 137.691 257.811C137.776 261.429 118.296 264.825 94.1767 265.403C70.0573 265.981 50.4401 263.512 50.3521 259.894Z" fill="#577CCD"/>
<path d="M50.3521 259.894C50.31 258.156 54.7051 256.449 61.9945 254.826C64.8889 254.175 71.1063 252.689 76.0068 251.858C81.1829 250.982 87.8177 252.448 93.8667 252.306C100.394 252.149 106.589 252.215 112.159 252.467C113.576 252.532 113.767 251.403 115.088 251.587C128.625 253.47 137.634 255.415 137.676 257.812C137.76 261.43 118.281 264.826 94.1615 265.404C70.042 265.982 50.4402 263.512 50.3521 259.894Z" stroke="#113291" stroke-width="0.382848" stroke-linecap="round"/>
<path d="M93.9821 256.244C106.906 255.934 117.351 254.373 117.313 252.756C117.274 251.139 106.766 250.079 93.8421 250.388C80.9182 250.697 70.4728 252.258 70.5114 253.875C70.5501 255.492 81.0583 256.553 93.9821 256.244Z" fill="#577CCD"/>
<path d="M93.9821 256.244C106.906 255.934 117.351 254.373 117.313 252.756C117.274 251.139 106.766 250.079 93.8421 250.388C80.9182 250.697 70.4728 252.258 70.5114 253.875C70.5501 255.492 81.0583 256.553 93.9821 256.244Z" stroke="#113291" stroke-width="0.382848" stroke-linecap="round"/>
<path d="M97.3468 229.518L96.8338 253.189C93.1508 255.268 91.0107 252.929 91.0107 252.929L87.8828 233.675L97.3468 229.518Z" fill="#577BD1"/>
<path d="M87.8828 233.676L90.9188 250.682C90.9188 250.682 90.7236 251.558 93.7902 251.849C96.8568 252.14 96.5352 251.137 96.5352 251.137L97.3545 232.895" stroke="#113291" stroke-width="0.382848" stroke-linecap="round"/>
<path d="M92.0374 231.463L93.0328 251.084C93.0328 251.084 94.1277 251.819 96.1606 251.084L97.1905 232.152C97.1905 232.152 96.8919 231.659 95.1959 231.463C94.1469 231.335 93.0863 231.335 92.0374 231.463Z" fill="#6B91D8"/>
<path d="M98.4355 257.145L102.111 264.499C102.111 264.499 115.411 264.117 125.893 262.072C136.376 260.028 137.976 258.244 135.71 256.636C133.443 255.028 118.03 252.451 118.03 252.451C118.03 252.451 119.829 254.055 115.84 254.878C111.851 255.702 98.4355 257.145 98.4355 257.145Z" fill="#6B91D8"/>
<path d="M86.4707 232.896C86.4707 232.896 88.6223 231.253 92.7877 231.02C96.9531 230.786 98.9784 231.644 97.692 232.272" stroke="#113291" stroke-width="0.382848" stroke-linecap="round"/>
<path d="M98.4609 233.228C122.814 227.486 130.735 208.726 130.735 208.726C129.897 208.692 128.093 205.908 128.093 205.908L119.165 209.45C119.165 209.45 115.854 224.698 98.8744 232.386L98.4609 233.228Z" fill="#6B91D8"/>
<path opacity="0.1" d="M91.3982 174.579C93.0023 174.147 136.513 158.825 136.513 158.825C138.044 158.293 138.044 155.866 138.044 155.866C138.044 155.866 139.763 143.232 141.019 134.154C141.019 134.154 135.181 145.935 124.021 149.415C112.861 152.895 120.682 142.703 113.381 142.252C106.08 141.8 94.2963 155.219 93.4923 155.586C91.961 164.392 90.5904 172.347 90.5904 172.347C90.5904 172.347 89.794 175.008 91.3982 174.579Z" fill="white"/>
<path d="M121.738 150.927C122.851 148.998 122.781 146.874 121.582 146.181C120.382 145.489 118.508 146.491 117.394 148.419C116.281 150.347 116.351 152.472 117.55 153.164C118.75 153.856 120.625 152.855 121.738 150.927Z" fill="#EBF1FF" fill-opacity="0.42"/>
<path d="M136.169 158.882C136.169 158.882 92.6472 174.196 91.0583 174.633C89.4695 175.069 90.2467 172.401 90.2467 172.401C90.2467 172.401 94.6571 146.991 96.3723 136.834C96.7551 134.537 96.9121 133.5 99.3585 132.765C101.805 132.029 138.44 125.356 140.323 125.154C141.709 125 141.855 125.919 141.709 126.903C140.764 133.507 137.712 155.919 137.712 155.919C137.712 155.919 137.685 158.346 136.169 158.882Z" stroke="#113291" stroke-width="0.382848" stroke-linecap="round" stroke-linejoin="round"/>
<path d="M109.928 171.901C109.928 171.901 124.916 159.757 133.22 157.433C138.821 155.863 145.636 158.348 146.804 169.148C147.971 179.948 152.596 212.544 152.814 218.803C153.033 225.063 153.795 233.922 153.795 233.922C153.795 233.922 141.44 237.023 140.422 236.828C140.422 236.828 131.647 207.226 131.36 194.121C131.072 181.016 131.869 186.464 131.869 186.464C131.869 186.464 125.705 193.972 120.295 189.144C114.886 184.316 117.581 180.277 109.928 171.901Z" fill="#0D2265"/>
<path d="M70.0608 191.08C70.0608 191.08 95.0187 173.729 102.848 168.17C110.677 162.611 117.779 164.472 126.366 173.002C134.954 181.532 164.069 213.863 168.637 219.127C173.204 224.391 174.666 225.976 174.666 225.976C174.666 225.976 165.478 238.12 164.444 238.664C164.444 238.664 137.867 217.772 128.189 206.846C120.371 198.009 120.597 197.73 120.597 197.73C120.597 197.73 113.349 204.093 109.739 204.15C98.3533 204.338 82.7675 189.012 70.0608 191.08Z" fill="#0D2265"/>
<path d="M70.3438 191.043C70.3438 191.043 101.91 168.072 106.278 166.196C110.198 164.527 117.285 162.659 126.362 172.575C136.699 183.846 174.678 225.978 174.678 225.978C174.678 225.978 166.393 238.003 164.456 238.666" stroke="#113291" stroke-width="0.382848" stroke-linecap="round"/>
<path d="M109.494 185.1C112.917 187.986 128.02 206.673 129.402 208.174C135.666 214.954 164.444 238.664 164.444 238.664" stroke="#113291" stroke-width="0.382848" stroke-linecap="round"/>
<path d="M118.847 165.391C118.847 165.391 133.71 152.869 140.811 158.117C148.633 163.883 150.597 199.036 150.597 199.036" stroke="#113291" stroke-width="0.382848" stroke-linecap="round"/>
<path d="M63.0943 157.379C62.4204 158.225 59.2466 170.633 59.0897 171.571C58.9327 172.509 56.6433 171.533 53.8944 172.819" stroke="#113291" stroke-width="0.382848" stroke-linecap="round"/>
<path d="M61.416 162.551C61.416 162.551 62.8555 167.428 63.7131 171.444L64.8348 193.01" stroke="#113291" stroke-width="0.382848" stroke-linecap="round"/>
<path d="M71.2098 101.16C71.2098 101.16 68.6639 96.5123 66.5735 98.863C64.4832 101.214 65.9265 106.773 67.9096 107.362C68.4393 107.539 69.0158 107.512 69.5268 107.287C70.0377 107.062 70.4466 106.655 70.6738 106.145" fill="white"/>
<path d="M71.2098 101.16C71.2098 101.16 68.6639 96.5123 66.5735 98.863C64.4832 101.214 65.9265 106.773 67.9096 107.362C68.4393 107.539 69.0158 107.512 69.5268 107.287C70.0377 107.062 70.4466 106.655 70.6738 106.145" stroke="#C4C4C4" stroke-width="0.382848" stroke-linecap="round" stroke-linejoin="round"/>
<path d="M68.1146 101.399C68.1146 101.399 67.4905 104.561 69.3474 104.952C71.2042 105.342 70.8366 102.854 69.3818 101.533C67.927 100.212 66.7363 102.333 66.7363 102.333" fill="white"/>
<path d="M68.1146 101.399C68.1146 101.399 67.4905 104.561 69.3474 104.952C71.2042 105.342 70.8366 102.854 69.3818 101.533C67.927 100.212 66.7363 102.333 66.7363 102.333" stroke="#C4C4C4" stroke-width="0.382848" stroke-linecap="round" stroke-linejoin="round"/>
<path d="M106.279 203.32C112.148 199.963 115.95 189.848 115.95 189.848" stroke="#113291" stroke-width="0.382848" stroke-linecap="round"/>
<path d="M78.6639 105.032C79.3728 104.5 80.1575 104.078 80.9917 103.78C82.0177 103.5 83.1165 103.78 84.1272 104.323" stroke="#113291" stroke-width="0.382848" stroke-linecap="round" stroke-linejoin="round"/>
<path d="M89.1484 105.77C89.2518 105.846 90.9899 106.018 91.4915 106.574" stroke="#113291" stroke-width="0.382848" stroke-linecap="round" stroke-linejoin="round"/>
<path d="M56.3128 170.56C56.3128 170.56 55.7615 172.348 54.0501 177.452C54.0501 177.452 59.6818 175.656 61.9789 174.504C61.9789 174.504 71.6918 169.017 71.6918 173.386C71.6918 173.707 73.0662 174.121 72.5685 174.829C72.0708 175.537 69.7125 176.521 68.9391 177.41C66.0831 180.71 62.021 184.684 62.021 184.684C62.021 184.684 51.4161 194.033 46.5731 196.571C41.7301 199.109 39.4559 190.48 40.2484 184.217C41.5348 174.075 41.3549 171.529 42.0172 169.205L49.3296 169.416L56.3128 170.56Z" fill="white"/>
<path d="M84.6343 173.967C84.6343 173.967 82.5938 170.59 81.1887 170.491C79.7837 170.391 74.2132 169.997 72.923 170.077C71.6328 170.158 66.8549 172.428 65.9552 173.171C65.4498 173.592 68.1948 176.356 70.7714 177.118C72.4712 177.619 74.9062 176.635 74.9062 176.635L84.6343 173.967Z" fill="white"/>
<path d="M84.6354 173.967C84.3827 173.289 83.0504 170.873 81.6415 170.613C80.0144 170.307 74.8919 170.158 73.1691 170.081C71.8444 170.024 66.0098 172.761 60.4738 175.081C54.5856 177.527 50.6652 178.622 50.0871 179.323C48.5963 180.503 47.5634 182.165 47.166 184.024" stroke="#113291" stroke-width="0.382848" stroke-linecap="round"/>
<path d="M68.8203 177.352C69.2032 177.241 71.9712 174.933 72.3349 175.09C72.6986 175.247 75.5738 174.929 75.6771 175.293L75.7537 176.556" stroke="#113291" stroke-width="0.382848" stroke-linecap="round"/>
<path d="M74.7363 172.586C75.8319 172.683 76.9169 172.875 77.9791 173.16C78.4001 173.339 78.7341 173.676 78.9094 174.098C78.9094 174.255 78.2585 175.744 78.2585 175.744" stroke="#113291" stroke-width="0.382848" stroke-linecap="round"/>
<path d="M78.9102 171.9C79.0633 171.9 81.1498 172.318 81.1498 172.578C81.1498 172.838 81.5327 174.756 81.5327 174.756" stroke="#113291" stroke-width="0.382848" stroke-linecap="round"/>
<path opacity="0.1" d="M90.3887 194.955C90.3887 194.955 109.784 175.946 111.112 175.701C112.441 175.456 109.412 181.946 111.71 178.645C114.007 175.345 114.918 172.183 116.231 175.851C117.544 179.518 117.299 182.018 122.893 189.893C128.486 197.769 161.078 218.224 162.571 219.572C164.064 220.92 172.996 228.982 172.996 228.982L174.589 226.142C174.589 226.142 136.419 182.141 129.118 174.675C121.817 167.21 117.062 163.956 110.209 165.016C103.356 166.076 71.3535 190.774 71.3535 190.774C71.3535 190.774 78.976 190.008 82.4867 192.631C85.9975 195.253 89.7609 196.207 89.8068 196C89.9743 195.637 90.1688 195.288 90.3887 194.955Z" fill="white"/>
<path opacity="0.1" d="M123.311 169.534C123.694 169.917 132.465 165.323 132.389 166.089C132.312 166.854 131.056 171.207 133.403 169.197C135.75 167.187 134.169 181.165 134.169 181.165L150.631 199.373C150.631 199.373 148.2 164.657 143.541 160.353C138.882 156.05 133.997 156.349 129.835 158.5C125.673 160.652 117.863 166.104 117.863 166.104C117.863 166.104 121.879 168.129 123.311 169.534Z" fill="white"/>
<path d="M54.5118 64.5917C58.2854 53.1143 54.5104 41.5632 46.0802 38.7915C37.6499 36.0198 27.7568 43.0771 23.9833 54.5544C20.2097 66.0317 23.9847 77.5829 32.4149 80.3546C40.8452 83.1263 50.7383 76.069 54.5118 64.5917Z" fill="#F9B471"/>
<path d="M52.1815 63.826C55.9551 52.3487 52.1801 40.7976 43.7499 38.0259C35.3196 35.2541 25.4265 42.3114 21.6529 53.7888C17.8794 65.2661 21.6544 76.8172 30.0846 79.589C38.5148 82.3607 48.408 75.3034 52.1815 63.826Z" fill="#FF8F41"/>
<path d="M49.2777 62.8712C52.334 53.5753 49.277 44.2197 42.4497 41.975C35.6223 39.7303 27.61 45.4464 24.5537 54.7424C21.4973 64.0384 24.5543 73.3939 31.3817 75.6386C38.209 77.8834 46.2213 72.1672 49.2777 62.8712Z" fill="#FDFFFE"/>
<path d="M48.5285 62.262C51.1265 54.36 48.5268 46.407 42.7218 44.4984C36.9169 42.5899 30.1049 47.4485 27.5069 55.3504C24.9089 63.2524 27.5086 71.2054 33.3135 73.114C39.1185 75.0225 45.9304 70.1639 48.5285 62.262Z" fill="#F4F7FF"/>
<path opacity="0.57" d="M49.8339 62.6902C52.8757 53.4384 50.0512 44.199 43.5251 42.0533C36.9991 39.9077 29.2428 45.6683 26.201 54.9201C23.1591 64.1718 25.9836 73.4113 32.5097 75.5569C39.0357 77.7026 46.792 71.9419 49.8339 62.6902Z" fill="#F4F7FF"/>
<path d="M44.4944 59.3114L37.6146 60.8964L31.8145 48.1475L32.2547 47.7188L37.9668 58.672L44.4944 58.4385V59.3114Z" fill="#FF8F41"/>
<path d="M40.1691 60.0427C40.7008 58.4258 40.1678 56.798 38.9787 56.4071C37.7895 56.0161 36.3946 57.01 35.863 58.6269C35.3314 60.2439 35.8644 61.8716 37.0535 62.2626C38.2426 62.6535 39.6375 61.6597 40.1691 60.0427Z" fill="#849BD6"/>
<path d="M43.7485 38.0182C35.3258 35.2464 25.4254 42.3061 21.6543 53.7839C17.8833 65.2617 21.6543 76.8123 30.077 79.5841C38.4996 82.3559 48.4001 75.2962 52.1712 63.8184C55.9422 52.3406 52.1788 40.7901 43.7485 38.0182ZM49.2768 62.8651C46.214 72.1607 38.2087 77.8766 31.3825 75.6331C24.5563 73.3896 21.4974 64.0328 24.5563 54.7372C27.6153 45.4417 35.6206 39.7257 42.4506 41.9692C49.2807 44.2127 52.332 53.5695 49.2768 62.8651Z" fill="#FF8F41"/>
<path d="M43.7485 38.0182C35.3258 35.2464 25.4254 42.3061 21.6543 53.7839C17.8833 65.2617 21.6543 76.8123 30.077 79.5841C38.4996 82.3559 48.4001 75.2962 52.1712 63.8184C55.9422 52.3406 52.1788 40.7901 43.7485 38.0182ZM49.2768 62.8651C46.214 72.1607 38.2087 77.8766 31.3825 75.6331C24.5563 73.3896 21.4974 64.0328 24.5563 54.7372C27.6153 45.4417 35.6206 39.7257 42.4506 41.9692C49.2807 44.2127 52.332 53.5695 49.2768 62.8651V62.8651Z" stroke="#ED6921" stroke-width="0.382848" stroke-linecap="round"/>
<path d="M186.551 129.055C186.551 129.055 189.407 124.844 192.186 119.963C194.966 115.081 203.978 112.225 203.978 112.225C203.978 112.225 204.434 110.786 207.718 109.224C211.003 107.662 212.159 106.877 214.319 106.72C216.478 106.563 218.404 107.306 218.262 108.772C218.262 108.772 228.599 112.409 231.558 117.486C235.291 123.891 236.834 136.751 236.834 136.751L188.388 145.146L186.551 129.055Z" fill="#6C92D9"/>
<path d="M213.891 98.7754C214.148 98.986 216.728 110.15 216.728 110.15C216.728 110.15 216.012 114.775 211.211 116.195C206.41 117.615 206.51 114.422 206.51 114.422L206.426 110.284V106.31L213.891 98.7754Z" fill="#B5CDFD"/>
<path d="M221.177 125.76C220.932 126.143 219.182 134.515 219.24 139.803" stroke="#9FBDFF" stroke-width="0.382848" stroke-linejoin="round"/>
<path d="M196.607 125.625C196.757 125.95 194.754 136.685 194.578 141.961" stroke="#9FBDFF" stroke-width="0.382848" stroke-linejoin="round"/>
<path d="M212.672 102.248L208.461 104.277L206.447 106.31V109.56C206.685 109.807 206.978 109.995 207.302 110.108C207.626 110.221 207.972 110.256 208.312 110.211C211.784 110.005 212.672 102.248 212.672 102.248Z" fill="#9FBDFF"/>
<path d="M164.15 122.78L184.851 118.726C184.851 118.726 186.834 118.094 188.189 120.445C189.545 122.795 199.675 143.167 199.675 143.167L163.764 149.415L164.15 122.78Z" fill="#9FBDFF"/>
<path opacity="0.1" d="M164.148 122.78L183.884 118.921C183.884 118.921 185.863 118.289 187.222 120.64C188.581 122.991 198.708 143.358 198.708 143.358L163.742 149.415L164.148 122.78Z" fill="white"/>
<path d="M199.223 102.742C197.936 103.087 195.815 103.814 194.851 98.2746C193.886 92.7348 195.869 91.9461 195.869 91.9461C195.869 91.9461 200.501 89.5993 201.282 92.2601C202.063 94.9209 204.625 101.303 199.223 102.742Z" fill="#0A46BE"/>
<path d="M214.038 100.974C214.038 100.974 211.086 105.419 208.325 107.532C205.565 109.646 202.491 109.737 199.267 104.879C196.044 100.021 196.587 88.4855 196.587 88.4855C196.587 88.4855 196.92 81.311 205.37 83.5774C213.819 85.8439 217.108 95.9817 214.038 100.974Z" fill="#B5CDFD"/>
<path d="M201.52 88.0793C201.52 88.0793 202.091 96.8351 200.755 98.7416C200.299 99.3848 200.873 100.028 201.448 100.457C201.872 100.775 203.442 100.514 203.442 100.514C203.442 100.514 202.42 101.487 202.451 101.663C202.921 104.454 203.572 108.171 205.804 108.669C208.657 109.316 215.016 100.92 215.433 97.5663C215.85 94.2125 211.333 83.5502 208.151 83.4622C204.97 83.3741 201.52 88.0793 201.52 88.0793Z" fill="url(#paint35_linear_1874_50788)"/>
<path d="M214.551 82.3127C214.551 82.3127 219.712 85.1496 218.475 88.2047C217.239 91.2599 218.648 91.1795 218.648 91.1795C218.648 91.1795 218.418 99.9046 217.583 100.843C216.749 101.781 210.309 96.9299 210.309 96.9299C206.454 95.3104 206.917 89.8625 206.799 89.5332L205.891 88.1818C205.891 88.1818 202.553 93.9819 197.235 91.9337C191.917 89.8854 194.027 82.9827 197.235 81.8495C200.443 80.7162 206.944 81.2943 206.944 81.2943C206.944 81.2943 209.593 79.6328 214.551 82.3127Z" fill="#3A66C9"/>
<path d="M213.333 91.4293C212.422 81.7126 205.6 81.2149 205.6 81.2149L207.747 80.832C210.703 81.3948 213.107 83.1291 213.758 85.6942C214.317 87.9607 215.159 91.0541 215.102 90.8244L213.333 91.4293Z" fill="#0A46BE"/>
<path d="M214.937 102.248C214.937 102.248 216.664 109.614 216.729 110.146C216.794 110.678 214.696 117.302 208.754 116.547" stroke="#9FBDFF" stroke-width="0.382848" stroke-linejoin="round"/>
<path d="M218.262 108.771C218.262 108.771 228.369 112.899 230.716 116.145C233.063 119.392 236.145 128.71 236.841 136.75" stroke="#9FBDFF" stroke-width="0.382848" stroke-linejoin="round"/>
<path opacity="0.1" d="M164.071 127.814C164.071 127.814 172.41 127.742 173.168 135.808C173.926 143.875 191.453 144.614 191.453 144.614L163.742 149.415L164.071 127.814Z" fill="white"/>
<path d="M170.769 21.9765C170.769 21.9765 163.154 30.1427 159.376 25.7322C155.597 21.3218 155.777 12.7958 155.777 12.7958C155.777 12.7958 156.324 7.53162 158.556 6.95735C163.334 5.72458 172.124 3.22841 172.986 9.13193C173.847 15.0355 173.246 19.8632 170.769 21.9765Z" fill="#B5CDFD"/>
<path d="M160.433 6.2573C160.433 6.2573 160.383 15.1968 158.802 16.9158C158.266 17.4977 158.702 17.8538 159.219 18.3515C159.602 18.7343 160.341 18.4817 160.341 18.4817C160.065 18.8528 159.829 19.2519 159.636 19.6723C159.755 22.4977 159.946 26.4296 162.098 27.2144C164.847 28.2137 172.205 20.6754 173.032 17.4173C173.859 14.1593 170.716 2.98778 167.588 2.48625C164.46 1.98472 160.433 6.2573 160.433 6.2573Z" fill="url(#paint36_linear_1874_50788)"/>
<path d="M180.467 33.4779C164.246 25.239 168.369 11.6823 168.369 11.6823C168.369 11.6823 166.455 11.6019 160.284 9.97098C155.605 8.73438 156.455 12.1149 155.774 10.7137C154.771 8.62336 155.046 5.98553 157.581 3.48936C163.048 -1.89731 171.976 0.617998 175.104 5.08584C176.03 6.41432 176.838 9.17848 177.516 12.4059C179.112 20.0322 179.973 30.2466 179.973 30.2466L180.467 33.4779Z" fill="#3A66C9"/>
<path d="M167.561 16.3862C167.702 22.7989 172.698 24.1159 175.252 20.6243C177.806 17.1327 176.692 10.9153 172.955 9.96965C169.218 9.02401 168.112 11.1182 167.794 12.5118C167.61 13.7946 167.531 15.0905 167.561 16.3862Z" fill="#0A46BE"/>
<path d="M170.198 11.4174C169.708 1.67006 161.795 0.9503 161.795 0.9503C162.116 0.655977 162.482 0.414346 162.878 0.234375C163.448 0.260598 164.015 0.328415 164.574 0.437284C167.507 1.13024 170.348 3.09425 170.872 5.70145C171.335 7.99854 172.021 11.1188 171.994 10.8852L170.198 11.4174Z" fill="#0A46BE"/>
<path d="M168.77 16.3901C168.911 22.8028 173.907 24.1198 176.461 20.6282C179.015 17.1366 177.901 10.9192 174.164 9.97355C170.427 9.02792 169.321 11.1221 169.003 12.5157C168.819 13.7985 168.74 15.0944 168.77 16.3901Z" fill="#6B91D8"/>
<path d="M129.895 38.6688L157.885 33.4812C157.885 33.4812 159.608 33.0371 160.079 34.7561C160.55 36.4751 166.97 60.9161 166.97 60.9161L129.451 67.4246L129.895 38.6688Z" fill="#9FBDFF"/>
<path opacity="0.1" d="M129.895 38.6694L156.373 33.7996C156.373 33.7996 158.096 33.3555 158.567 35.0745C159.038 36.7935 165.458 61.1809 165.458 61.1809L129.451 67.4213L129.895 38.6694Z" fill="white"/>
<path d="M175.384 30.8926C175.384 30.8926 174.335 37.6728 169.641 38.5495C168.315 38.8195 166.941 38.7331 165.659 38.2994C164.378 37.8656 163.234 37.0999 162.344 36.0802" stroke="#9FBDFF" stroke-width="0.382848" stroke-linejoin="round"/>
<path d="M174.984 46.3516C174.984 46.3516 177.312 50.5629 176.634 54.2574C175.957 57.9519 176.7 59.2344 176.7 59.2344" stroke="#9FBDFF" stroke-width="0.382848" stroke-linejoin="round"/>
<path opacity="0.1" d="M139.476 36.8887C139.476 36.8887 130.353 44.894 135.908 50.5793C141.463 56.2646 150.609 51.6896 155.774 62.8535L129.457 67.417L129.897 38.6651L139.476 36.8887Z" fill="white"/>
<path d="M210.911 96.5063C211.328 102.908 216.374 104.006 218.779 100.411C221.183 96.8164 219.797 90.6487 216.007 89.8639C212.217 89.079 211.213 91.2115 210.961 92.6242C210.834 93.9145 210.818 95.2132 210.911 96.5063Z" fill="#0A46BE"/>
<path d="M212.12 96.4565C212.537 102.858 217.583 103.96 219.984 100.362C222.384 96.7628 221.006 90.5989 217.212 89.8179C213.418 89.0369 212.423 91.1617 212.166 92.5783C212.043 93.8675 212.028 95.1647 212.12 96.4565Z" fill="#6B91D8"/>
<path d="M56.2791 170.686C56.2791 170.686 55.5134 173.637 54.0586 177.458" stroke="#113291" stroke-width="0.382848" stroke-linecap="round"/>
<path d="M175.873 6.56231L198.029 2.70703V55.6741L129.457 67.4122L130.265 14.449L154.12 10.3142" stroke="#6A91D6" stroke-width="0.382848" stroke-miterlimit="10"/>
<path d="M248.581 134.714L163.742 149.415L164.749 83.1018L249.592 68.4043L248.581 134.714Z" stroke="#6A91D6" stroke-width="0.382848" stroke-miterlimit="10"/>
<path d="M137.965 30.5527L124.21 33.0067C123.988 33.0456 123.76 33.035 123.542 32.9757C123.325 32.9164 123.123 32.8098 122.951 32.6635C122.78 32.5172 122.643 32.3349 122.55 32.1295C122.457 31.9241 122.411 31.7007 122.414 31.4753L122.563 21.5864C122.572 20.9556 122.801 20.3477 123.211 19.8681C123.621 19.3884 124.185 19.0672 124.807 18.96L138.54 16.5825C138.764 16.5443 138.995 16.556 139.215 16.6168C139.434 16.6776 139.638 16.7861 139.811 16.9344C139.984 17.0827 140.123 17.2674 140.217 17.4752C140.311 17.683 140.357 17.9089 140.354 18.1369L140.209 27.9225C140.199 28.5535 139.97 29.1615 139.561 29.6417C139.151 30.1218 138.587 30.444 137.965 30.5527Z" fill="#B5CBFA"/>
<path d="M241.27 79.1849L227.518 81.639C227.296 81.6785 227.068 81.6684 226.85 81.6094C226.632 81.5503 226.43 81.4438 226.258 81.2975C226.086 81.1511 225.948 80.9685 225.855 80.7628C225.762 80.5571 225.715 80.3334 225.719 80.1076L225.868 70.2224C225.878 69.5921 226.108 68.985 226.517 68.5056C226.927 68.0263 227.491 67.7047 228.112 67.5961L241.845 65.2186C242.068 65.1759 242.299 65.1836 242.519 65.2411C242.739 65.2987 242.944 65.4047 243.118 65.5514C243.293 65.6981 243.432 65.8818 243.526 66.0892C243.62 66.2965 243.667 66.5223 243.663 66.75L243.514 76.5701C243.502 77.1988 243.272 77.804 242.863 78.2813C242.453 78.7586 241.89 79.0781 241.27 79.1849Z" fill="#FF996C"/>
<path d="M187.794 113.92L174.042 116.386C173.82 116.425 173.592 116.414 173.374 116.355C173.157 116.296 172.955 116.189 172.784 116.043C172.612 115.896 172.475 115.714 172.382 115.509C172.289 115.303 172.243 115.08 172.246 114.855L172.395 92.8714C172.405 92.2418 172.634 91.6353 173.043 91.1565C173.452 90.6777 174.015 90.3567 174.635 90.2489L188.36 87.8599C188.585 87.8217 188.815 87.8334 189.035 87.8942C189.255 87.955 189.459 88.0634 189.632 88.2117C189.805 88.3601 189.943 88.5447 190.037 88.7525C190.131 88.9603 190.178 89.1862 190.175 89.4142L190.026 111.298C190.017 111.926 189.789 112.532 189.381 113.011C188.974 113.489 188.413 113.811 187.794 113.92Z" fill="#849BD6"/>
<path d="M125.021 21.796V24.5449L127.682 24.0817V21.3711L125.021 21.796Z" stroke="white" stroke-width="0.382848" stroke-miterlimit="10"/>
<path d="M129.219 21.3709L132.611 20.7852" stroke="white" stroke-width="0.382848" stroke-miterlimit="10"/>
<path d="M129.219 23.0753L136.688 21.7812" stroke="white" stroke-width="0.382848" stroke-miterlimit="10"/>
<path d="M129.219 25.5214L135.321 24.4609" stroke="white" stroke-width="0.382848" stroke-miterlimit="10"/>
<path d="M129.219 27.3944L137.573 25.9473" stroke="white" stroke-width="0.382848" stroke-miterlimit="10"/>
<path d="M129.219 29.3692L135.321 28.3125" stroke="white" stroke-width="0.382848" stroke-miterlimit="10"/>
<path d="M174.984 94.1516L180.176 93.252" stroke="white" stroke-width="0.382848" stroke-miterlimit="10"/>
<path d="M174.984 96.1082L186.409 94.1289" stroke="white" stroke-width="0.382848" stroke-miterlimit="10"/>
<path d="M174.984 100.012L184.314 98.3965" stroke="white" stroke-width="0.382848" stroke-miterlimit="10"/>
<path d="M174.984 103.922L187.76 101.705" stroke="white" stroke-width="0.382848" stroke-miterlimit="10"/>
<path d="M174.984 107.827L184.314 106.211" stroke="white" stroke-width="0.382848" stroke-miterlimit="10"/>
<path d="M174.984 98.0599L180.176 97.1602" stroke="white" stroke-width="0.382848" stroke-miterlimit="10"/>
<path d="M174.984 101.966L186.409 99.9863" stroke="white" stroke-width="0.382848" stroke-miterlimit="10"/>
<path d="M174.984 105.873L184.314 104.258" stroke="white" stroke-width="0.382848" stroke-miterlimit="10"/>
<path d="M174.984 109.779L187.76 107.566" stroke="white" stroke-width="0.382848" stroke-miterlimit="10"/>
<path d="M174.984 111.735L184.314 110.115" stroke="white" stroke-width="0.382848" stroke-miterlimit="10"/>
<path d="M89.7969 47.8998V30.2926L111.596 25.9473" stroke="#6A91D6" stroke-width="0.382848" stroke-miterlimit="10"/>
<path d="M69.8887 176.713C69.8887 176.713 70.528 177.479 73.185 177.13" stroke="#113291" stroke-width="0.382848" stroke-linecap="round"/>
<path d="M70.2325 112.879C70.2325 112.879 70.6881 114.598 69.084 119.004" stroke="#C4C4C4" stroke-width="0.382848" stroke-linecap="round" stroke-linejoin="round"/>
<path d="M74.1684 123.162C74.1684 123.162 68.7052 119.146 67.4609 117.217" stroke="#113291" stroke-width="0.382848" stroke-linecap="round"/>
<path d="M210.854 39.5215V63.3921" stroke="#FF996C" stroke-width="0.382848" stroke-miterlimit="10"/>
<path d="M166.895 71.2069L231.404 59.5645" stroke="#FF996C" stroke-width="0.382848" stroke-miterlimit="10"/>
<path d="M119.341 112.145C119.578 111.384 119.903 110.653 120.309 109.967C120.684 109.354 121.172 108.637 121.772 107.815C122.235 107.18 122.602 106.667 122.863 106.249C123.128 105.83 123.349 105.383 123.521 104.917C123.698 104.44 123.794 103.937 123.805 103.428C123.805 102.601 123.625 102 123.211 101.617C122.969 101.421 122.684 101.285 122.38 101.219C122.075 101.152 121.76 101.157 121.458 101.234C121.023 101.284 120.61 101.454 120.265 101.724C119.921 101.995 119.658 102.355 119.505 102.766C118.173 105.625 116.55 106.896 115.401 105.235C114.605 104.086 115.367 102.697 115.906 101.625C116.423 100.582 117.191 99.6842 118.142 99.0136C119.147 98.3222 120.297 97.8716 121.504 97.6966C122.647 97.4704 123.828 97.5189 124.949 97.8383C125.851 98.1068 126.619 98.702 127.105 99.5075C127.62 100.442 127.858 101.505 127.79 102.57C127.777 103.308 127.648 104.04 127.407 104.737C127.198 105.356 126.92 105.95 126.576 106.506C126.251 107.023 125.811 107.655 125.275 108.374C124.739 109.094 124.295 109.733 123.965 110.258C123.617 110.827 123.336 111.435 123.127 112.069C123.033 112.347 122.957 112.631 122.901 112.919C122.828 113.326 122.632 113.701 122.339 113.993C122.046 114.285 121.67 114.479 121.262 114.55H121.178C120.893 114.595 120.6 114.567 120.329 114.469C120.057 114.371 119.814 114.206 119.623 113.989C119.432 113.772 119.299 113.51 119.236 113.228C119.173 112.946 119.183 112.652 119.264 112.375C119.291 112.306 119.318 112.226 119.341 112.145ZM121.151 117.076L121.274 117.057C121.455 117.028 121.641 117.039 121.817 117.089C121.994 117.14 122.157 117.228 122.295 117.349C122.434 117.47 122.544 117.619 122.618 117.787C122.693 117.955 122.729 118.137 122.725 118.321C122.711 118.984 122.465 119.622 122.029 120.123C121.593 120.624 120.995 120.956 120.34 121.062L120.217 121.081C120.036 121.11 119.851 121.099 119.674 121.049C119.498 120.998 119.334 120.91 119.196 120.789C119.057 120.669 118.947 120.519 118.873 120.351C118.799 120.183 118.762 120.001 118.766 119.818C118.779 119.154 119.026 118.515 119.462 118.014C119.897 117.513 120.496 117.181 121.151 117.076Z" fill="white" stroke="#113291" stroke-width="0.382848" stroke-linecap="round"/>
<path opacity="0.56" d="M205.29 31.9159L205.447 31.8929C205.734 31.8468 206.028 31.8644 206.308 31.9444C206.587 32.0244 206.846 32.165 207.065 32.356C207.284 32.5471 207.458 32.784 207.576 33.05C207.693 33.3159 207.751 33.6045 207.744 33.8952V33.8952C207.733 34.4753 207.518 35.0331 207.137 35.4711C206.757 35.9091 206.235 36.1996 205.662 36.2918L205.501 36.3186C205.214 36.3641 204.92 36.3459 204.64 36.2654C204.361 36.1849 204.102 36.044 203.883 35.8526C203.664 35.6613 203.49 35.4242 203.372 35.1581C203.255 34.8919 203.197 34.6033 203.204 34.3125V34.3125C203.216 33.732 203.432 33.1742 203.813 32.7363C204.194 32.2983 204.717 32.008 205.29 31.9159V31.9159ZM205.819 9.84082H205.865C206.151 9.79541 206.445 9.8135 206.724 9.8938C207.003 9.97409 207.262 10.1147 207.481 10.3056C207.7 10.4965 207.874 10.7331 207.992 10.9988C208.109 11.2644 208.167 11.5526 208.162 11.8431L207.848 26.5636C207.835 27.1439 207.619 27.7013 207.238 28.1391C206.856 28.5769 206.334 28.8674 205.761 28.9603H205.715C205.428 29.005 205.134 28.9864 204.855 28.9056C204.576 28.8248 204.318 28.6839 204.099 28.4927C203.88 28.3015 203.706 28.0647 203.588 27.7989C203.47 27.5331 203.412 27.2447 203.418 26.9541L203.736 12.2375C203.748 11.6575 203.963 11.1002 204.344 10.6623C204.724 10.2245 205.246 9.93379 205.819 9.84082V9.84082Z" stroke="#6A91D6" stroke-width="0.382848" stroke-miterlimit="10"/>
<path d="M128.943 87.6389L105.498 91.7009L102.106 95.985L102.412 72.1986C102.427 71.1132 102.822 70.0674 103.528 69.2423C104.233 68.4173 105.205 67.865 106.275 67.681L129.935 63.5807C130.322 63.515 130.72 63.5353 131.098 63.6402C131.477 63.7451 131.828 63.9321 132.127 64.1878C132.425 64.4435 132.664 64.7618 132.826 65.12C132.987 65.4782 133.068 65.8676 133.063 66.2607L132.806 83.106C132.793 84.1939 132.4 85.2429 131.694 86.071C130.989 86.899 130.015 87.4538 128.943 87.6389Z" fill="white" stroke="#9FBDFF" stroke-width="0.382848" stroke-linejoin="round"/>
<path d="M129.727 70.2801L105.439 74.4876V72.3169L129.727 68.1094V70.2801Z" fill="#6A91D6"/>
<path d="M124.337 75.5985L105.439 78.8718V76.6973L124.337 73.4277V75.5985Z" fill="#6A91D6"/>
<path d="M241.127 70.9496L228.428 73.151V72.0178L241.127 69.8164V70.9496Z" fill="white"/>
<path d="M238.309 73.7328L228.428 75.4403V74.307L238.309 72.5957V73.7328Z" fill="white"/>
<path d="M129.727 79.0711L105.439 83.2786V81.1079L129.727 76.9004V79.0711Z" fill="#6A91D6"/>
<path d="M117.583 85.4519L105.439 87.5538V85.383L117.583 83.2773V85.4519Z" fill="#6A91D6"/>
<path d="M30.3105 138.592V127.122L47.0219 124.488V98.209L42.4468 99.1967" stroke="#6A91D6" stroke-width="0.382848" stroke-miterlimit="10"/>
<path d="M43.6297 111.368L4.71704 118.11L5.17646 92.5974L44.093 85.8555L43.6297 111.368Z" fill="#849BD6"/>
<path d="M38.9889 115.245L0.0761719 121.987L0.539421 96.4744L39.4521 89.7324L38.9889 115.245Z" fill="url(#paint37_linear_1874_50788)"/>
<path d="M38.5769 95.2039L25.0547 97.547V96.3372L38.5769 93.9941V95.2039Z" fill="#6A91D6"/>
<path d="M35.5715 98.163L25.0547 99.9854V98.7756L35.5715 96.957V98.163Z" fill="#6A91D6"/>
<path d="M38.5769 99.9735L25.0547 102.317V101.107L38.5769 98.7637V99.9735Z" fill="#6A91D6"/>
<path d="M35.5715 102.933L25.0547 104.755V103.545L35.5715 101.727V102.933Z" fill="#6A91D6"/>
<path d="M38.5769 104.745L25.0547 107.088V105.878L38.5769 103.535V104.745Z" fill="#6A91D6"/>
<path d="M35.5715 107.704L25.0547 109.526V108.317L35.5715 106.498V107.704Z" fill="#6A91D6"/>
<path d="M19.5325 106.122C20.965 102.528 19.9864 98.7609 17.3465 97.7088C14.7067 96.6567 11.4054 98.7176 9.97281 102.312C8.54024 105.906 9.51891 109.673 12.1587 110.725C14.7986 111.777 18.0999 109.717 19.5325 106.122Z" fill="white"/>
<path d="M176.249 89.9375C177.008 87.6276 176.25 85.3032 174.554 84.7458C172.859 84.1884 170.869 85.6091 170.11 87.9191C169.35 90.229 170.109 92.5534 171.804 93.1108C173.499 93.6682 175.489 92.2475 176.249 89.9375Z" fill="#FF8F41"/>
<path d="M46.3242 138.209C46.3242 138.209 49.7354 135.766 55.2599 138.592C60.7844 141.417 63.0777 156.992 63.0777 156.992" stroke="#113291" stroke-width="0.382848" stroke-linecap="round"/>
<path d="M44.7935 141.001C44.7935 141.001 44.4872 137.896 47.0293 140.258C49.5715 142.62 53.0592 155.955 52.8142 156.858C52.5692 157.762 47.0485 159.324 45.1266 160.449C43.2047 161.575 50.8387 161.154 54.4719 163.818C58.1052 166.483 53.7062 163.968 49.6442 163.435C46.9269 163.11 44.1918 162.955 41.4551 162.972C41.9098 160.472 42.6483 158.031 43.6565 155.698C44.0717 154.401 44.4205 153.084 44.7016 151.751C45.1955 148.164 44.5944 141.709 44.7935 141.001Z" fill="url(#paint38_linear_1874_50788)"/>
<path d="M65.8748 122.439C59.0295 132.183 47.4368 132.884 45.4422 138.205C44.0793 141.835 44.7646 148.312 44.6765 151.758C44.6114 154.698 42.2071 157.903 41.0701 162.979" stroke="#113291" stroke-width="0.382848" stroke-linecap="round"/>
<path d="M48.5518 163.477C47.9177 163.68 47.2963 163.922 46.6911 164.2C45.2899 164.797 43.9423 169.116 43.7202 169.177C43.4982 169.238 41.1398 168.748 39.7041 169.212C38.2685 169.675 38.368 170.651 38.2225 170.276C38.077 169.901 38.7126 166.306 38.9882 165.322C39.2639 164.338 39.6314 163.09 40.2478 162.971C41.604 162.761 42.9797 162.708 44.3481 162.81C45.7687 162.885 47.1777 163.108 48.5518 163.477Z" fill="url(#paint39_linear_1874_50788)"/>
<path d="M57.8391 165.617C57.8391 165.617 54.6844 164.246 49.2595 163.396C43.8345 162.546 41.3115 162.699 40.228 162.979C39.1446 163.258 39.4432 164.039 38.9608 165.617C38.4784 167.194 38.0573 170.004 38.3598 171.175" stroke="#113291" stroke-width="0.382848" stroke-linecap="round"/>
<path d="M46.2887 169.366C46.2887 169.366 45.7642 170.725 44.9181 173.666C44.072 176.606 42.4449 187.016 42.9426 189.064C43.4403 191.112 47.108 193.807 48.046 194.106C48.984 194.404 51.4265 193.623 51.4265 193.623C51.4265 193.623 45.4656 198.294 43.3867 196.713C41.3078 195.132 40.1134 191.123 40.1172 187.341C40.121 183.558 42.0314 169.221 42.0314 169.221L46.2887 169.366Z" fill="url(#paint40_linear_1874_50788)"/>
<path d="M41.9612 169.361C41.9612 169.361 40.3532 177.681 40.1273 185.139C39.9014 192.596 41.6166 196.452 44.3846 197.145C47.1526 197.838 62.2789 186.092 68.8218 177.459" stroke="#113291" stroke-width="0.382848" stroke-linecap="round"/>
<path d="M40.6004 174.794C38.556 173.665 36.9863 169.052 40.1946 169.201C44.226 169.377 50.1946 168.397 58.7436 171.498" stroke="#113291" stroke-width="0.382848" stroke-linecap="round"/>
<path d="M134.246 212.842L140.421 236.812C140.421 236.812 151.807 234.729 153.794 233.906C153.794 233.906 153.768 230.702 153.45 229.484" stroke="#113291" stroke-width="0.382848" stroke-linecap="round" stroke-linejoin="round"/>
</g>
<defs>
<linearGradient id="paint0_linear_1874_50788" x1="101.114" y1="172.857" x2="188.503" y2="21.4941" gradientUnits="userSpaceOnUse">
<stop stop-color="#94C8FF"/>
<stop offset="1" stop-color="white" stop-opacity="0"/>
</linearGradient>
<linearGradient id="paint1_linear_1874_50788" x1="209.877" y1="177.536" x2="31.5657" y2="74.5877" gradientUnits="userSpaceOnUse">
<stop stop-color="#94C8FF"/>
<stop offset="1" stop-color="white" stop-opacity="0"/>
</linearGradient>
<linearGradient id="paint2_linear_1874_50788" x1="165.16" y1="184.423" x2="241.546" y2="52.118" gradientUnits="userSpaceOnUse">
<stop stop-color="#94C8FF"/>
<stop offset="1" stop-color="white" stop-opacity="0"/>
</linearGradient>
<linearGradient id="paint3_linear_1874_50788" x1="165.16" y1="184.419" x2="241.546" y2="52.118" gradientUnits="userSpaceOnUse">
<stop stop-color="#94C8FF"/>
<stop offset="1" stop-color="white" stop-opacity="0"/>
</linearGradient>
<linearGradient id="paint4_linear_1874_50788" x1="150.824" y1="191.433" x2="232.363" y2="50.2" gradientUnits="userSpaceOnUse">
<stop stop-color="white" stop-opacity="0"/>
<stop offset="1" stop-color="#94C8FF"/>
</linearGradient>
<linearGradient id="paint5_linear_1874_50788" x1="150.824" y1="191.433" x2="232.363" y2="50.2" gradientUnits="userSpaceOnUse">
<stop stop-color="#94C8FF"/>
<stop offset="1" stop-color="white" stop-opacity="0"/>
</linearGradient>
<linearGradient id="paint6_linear_1874_50788" x1="19.9659" y1="132.527" x2="233.216" y2="132.527" gradientUnits="userSpaceOnUse">
<stop stop-color="#197CE1"/>
<stop offset="1" stop-color="#197CE1" stop-opacity="0"/>
</linearGradient>
<linearGradient id="paint7_linear_1874_50788" x1="51.9873" y1="44.033" x2="163.66" y2="237.456" gradientUnits="userSpaceOnUse">
<stop offset="0.01" stop-color="#F1F6FF" stop-opacity="0.8"/>
<stop offset="1" stop-color="#F1F6FF" stop-opacity="0"/>
</linearGradient>
<linearGradient id="paint8_linear_1874_50788" x1="121.539" y1="127.63" x2="154.555" y2="70.4405" gradientUnits="userSpaceOnUse">
<stop offset="0.01" stop-color="#F1F6FF"/>
<stop offset="1" stop-color="#F1F6FF" stop-opacity="0"/>
</linearGradient>
<linearGradient id="paint9_linear_1874_50788" x1="16.2367" y1="73.8026" x2="228.886" y2="73.8026" gradientUnits="userSpaceOnUse">
<stop offset="0.01" stop-color="#F1F6FF"/>
<stop offset="1" stop-color="#F1F6FF" stop-opacity="0"/>
</linearGradient>
<linearGradient id="paint10_linear_1874_50788" x1="7.87707" y1="203.757" x2="72.6167" y2="203.757" gradientUnits="userSpaceOnUse">
<stop stop-color="#DFE9FF"/>
<stop offset="1" stop-color="#EBEBEB"/>
</linearGradient>
<linearGradient id="paint11_linear_1874_50788" x1="14.9401" y1="204.592" x2="49.1476" y2="204.592" gradientUnits="userSpaceOnUse">
<stop offset="0.01" stop-color="#F1F6FF"/>
<stop offset="1" stop-color="#F1F6FF" stop-opacity="0"/>
</linearGradient>
<linearGradient id="paint12_linear_1874_50788" x1="23.0708" y1="203.508" x2="57.2783" y2="203.508" gradientUnits="userSpaceOnUse">
<stop offset="0.01" stop-color="#F1F6FF"/>
<stop offset="1" stop-color="#F1F6FF" stop-opacity="0"/>
</linearGradient>
<linearGradient id="paint13_linear_1874_50788" x1="31.5455" y1="202.168" x2="65.7568" y2="202.168" gradientUnits="userSpaceOnUse">
<stop offset="0.01" stop-color="#F1F6FF"/>
<stop offset="1" stop-color="#F1F6FF" stop-opacity="0"/>
</linearGradient>
<linearGradient id="paint14_linear_1874_50788" x1="40.3758" y1="201.647" x2="74.5833" y2="201.647" gradientUnits="userSpaceOnUse">
<stop offset="0.01" stop-color="#F1F6FF"/>
<stop offset="1" stop-color="#F1F6FF" stop-opacity="0"/>
</linearGradient>
<linearGradient id="paint15_linear_1874_50788" x1="-nan" y1="-nan" x2="-nan" y2="-nan" gradientUnits="userSpaceOnUse">
<stop offset="0.01" stop-color="#F1F6FF"/>
<stop offset="1" stop-color="#F1F6FF" stop-opacity="0"/>
</linearGradient>
<linearGradient id="paint16_linear_1874_50788" x1="113.571" y1="139.504" x2="143.468" y2="87.7198" gradientUnits="userSpaceOnUse">
<stop offset="0.01" stop-color="#F1F6FF"/>
<stop offset="1" stop-color="#F1F6FF" stop-opacity="0"/>
</linearGradient>
<linearGradient id="paint17_linear_1874_50788" x1="170.928" y1="200.43" x2="209.959" y2="200.43" gradientUnits="userSpaceOnUse">
<stop stop-color="#94C8FF"/>
<stop offset="1" stop-color="white" stop-opacity="0"/>
</linearGradient>
<linearGradient id="paint18_linear_1874_50788" x1="172.906" y1="260.104" x2="199.078" y2="260.104" gradientUnits="userSpaceOnUse">
<stop stop-color="#1B44C0" stop-opacity="0"/>
<stop offset="0.02" stop-color="#1B46C1" stop-opacity="0.03"/>
<stop offset="0.23" stop-color="#1A56CB" stop-opacity="0.32"/>
<stop offset="0.42" stop-color="#1A64D3" stop-opacity="0.56"/>
<stop offset="0.6" stop-color="#196ED9" stop-opacity="0.75"/>
<stop offset="0.76" stop-color="#1976DD" stop-opacity="0.89"/>
<stop offset="0.9" stop-color="#197AE0" stop-opacity="0.97"/>
<stop offset="1" stop-color="#197CE1"/>
</linearGradient>
<linearGradient id="paint19_linear_1874_50788" x1="170.931" y1="230.893" x2="209.963" y2="230.893" gradientUnits="userSpaceOnUse">
<stop stop-color="#DFE9FF"/>
<stop offset="1" stop-color="#EBEBEB"/>
</linearGradient>
<linearGradient id="paint20_linear_1874_50788" x1="166.295" y1="203.106" x2="197.861" y2="257.78" gradientUnits="userSpaceOnUse">
<stop stop-color="#94C8FF"/>
<stop offset="1" stop-color="white" stop-opacity="0"/>
</linearGradient>
<linearGradient id="paint21_linear_1874_50788" x1="163.742" y1="108.91" x2="249.592" y2="108.91" gradientUnits="userSpaceOnUse">
<stop stop-color="white"/>
<stop offset="1" stop-color="#F4F7FF"/>
</linearGradient>
<linearGradient id="paint22_linear_1874_50788" x1="129.457" y1="35.0615" x2="198.029" y2="35.0615" gradientUnits="userSpaceOnUse">
<stop stop-color="white"/>
<stop offset="1" stop-color="#F4F7FF"/>
</linearGradient>
<linearGradient id="paint23_linear_1874_50788" x1="-nan" y1="-nan" x2="-nan" y2="-nan" gradientUnits="userSpaceOnUse">
<stop offset="0.01" stop-color="#F1F6FF"/>
<stop offset="1" stop-color="#F1F6FF" stop-opacity="0"/>
</linearGradient>
<linearGradient id="paint24_linear_1874_50788" x1="-nan" y1="-nan" x2="-nan" y2="-nan" gradientUnits="userSpaceOnUse">
<stop offset="0.01" stop-color="#F1F6FF"/>
<stop offset="1" stop-color="#F1F6FF" stop-opacity="0"/>
</linearGradient>
<linearGradient id="paint25_linear_1874_50788" x1="19.6818" y1="173.664" x2="134.674" y2="173.664" gradientUnits="userSpaceOnUse">
<stop stop-color="#197DDF"/>
<stop offset="0.44" stop-color="#1661BE"/>
</linearGradient>
<linearGradient id="paint26_linear_1874_50788" x1="30.2824" y1="175.852" x2="88.6668" y2="175.852" gradientUnits="userSpaceOnUse">
<stop stop-color="#1B44C0"/>
<stop offset="0.01" stop-color="#1B44C0"/>
<stop offset="0.41" stop-color="#1A63D2"/>
<stop offset="0.76" stop-color="#1975DD"/>
<stop offset="1" stop-color="#197CE1"/>
</linearGradient>
<linearGradient id="paint27_linear_1874_50788" x1="61.2504" y1="174.744" x2="97.4832" y2="174.744" gradientUnits="userSpaceOnUse">
<stop stop-color="#FF7D2B"/>
<stop offset="1" stop-color="#FF7D2B" stop-opacity="0"/>
</linearGradient>
<linearGradient id="paint28_linear_1874_50788" x1="8.54467" y1="185.169" x2="93.2729" y2="185.169" gradientUnits="userSpaceOnUse">
<stop stop-color="#1B44C0"/>
<stop offset="0.01" stop-color="#1B44C0"/>
<stop offset="0.41" stop-color="#1A63D2"/>
<stop offset="0.76" stop-color="#1975DD"/>
<stop offset="1" stop-color="#197CE1"/>
</linearGradient>
<linearGradient id="paint29_linear_1874_50788" x1="69.0466" y1="110.445" x2="82.3621" y2="110.445" gradientUnits="userSpaceOnUse">
<stop stop-color="#CED6DD"/>
<stop offset="0.14" stop-color="#CED6DD" stop-opacity="0.83"/>
<stop offset="0.35" stop-color="#CED6DD" stop-opacity="0.61"/>
<stop offset="0.54" stop-color="#CED6DD" stop-opacity="0.43"/>
<stop offset="0.72" stop-color="#CED6DD" stop-opacity="0.3"/>
<stop offset="0.88" stop-color="#CED6DD" stop-opacity="0.23"/>
<stop offset="1" stop-color="#CED6DD" stop-opacity="0.2"/>
</linearGradient>
<linearGradient id="paint30_linear_1874_50788" x1="69.0791" y1="117.982" x2="80.1511" y2="117.982" gradientUnits="userSpaceOnUse">
<stop stop-color="#CED6DD"/>
<stop offset="0.14" stop-color="#CED6DD" stop-opacity="0.83"/>
<stop offset="0.35" stop-color="#CED6DD" stop-opacity="0.61"/>
<stop offset="0.54" stop-color="#CED6DD" stop-opacity="0.43"/>
<stop offset="0.72" stop-color="#CED6DD" stop-opacity="0.3"/>
<stop offset="0.88" stop-color="#CED6DD" stop-opacity="0.23"/>
<stop offset="1" stop-color="#CED6DD" stop-opacity="0.2"/>
</linearGradient>
<linearGradient id="paint31_linear_1874_50788" x1="214.199" y1="60.1225" x2="219.938" y2="50.18" gradientUnits="userSpaceOnUse">
<stop stop-color="#197CE1" stop-opacity="0.4"/>
<stop offset="1" stop-color="#197CE1" stop-opacity="0"/>
</linearGradient>
<linearGradient id="paint32_linear_1874_50788" x1="139.556" y1="77.7982" x2="161.675" y2="76.0287" gradientUnits="userSpaceOnUse">
<stop offset="0.01" stop-color="#F1F6FF"/>
<stop offset="1" stop-color="#F1F6FF" stop-opacity="0"/>
</linearGradient>
<linearGradient id="paint33_linear_1874_50788" x1="96.2051" y1="33.6078" x2="112.759" y2="32.2835" gradientUnits="userSpaceOnUse">
<stop offset="0.01" stop-color="#F1F6FF"/>
<stop offset="1" stop-color="#F1F6FF" stop-opacity="0"/>
</linearGradient>
<linearGradient id="paint34_linear_1874_50788" x1="96.2448" y1="39.824" x2="104.653" y2="39.1513" gradientUnits="userSpaceOnUse">
<stop offset="0.01" stop-color="#F1F6FF"/>
<stop offset="1" stop-color="#F1F6FF" stop-opacity="0"/>
</linearGradient>
<linearGradient id="paint35_linear_1874_50788" x1="201.792" y1="86.4292" x2="212.68" y2="105.288" gradientUnits="userSpaceOnUse">
<stop stop-color="white" stop-opacity="0.4"/>
<stop offset="1" stop-color="#F4F7FF" stop-opacity="0.1"/>
</linearGradient>
<linearGradient id="paint36_linear_1874_50788" x1="160.918" y1="4.65256" x2="169.37" y2="24.7255" gradientUnits="userSpaceOnUse">
<stop stop-color="white" stop-opacity="0.4"/>
<stop offset="1" stop-color="#F4F7FF" stop-opacity="0.1"/>
</linearGradient>
<linearGradient id="paint37_linear_1874_50788" x1="0.0761719" y1="105.858" x2="39.4521" y2="105.858" gradientUnits="userSpaceOnUse">
<stop offset="0.01" stop-color="#F1F6FF" stop-opacity="0.8"/>
<stop offset="1" stop-color="#F1F6FF" stop-opacity="0"/>
</linearGradient>
<linearGradient id="paint38_linear_1874_50788" x1="41.4474" y1="152.195" x2="55.8119" y2="152.195" gradientUnits="userSpaceOnUse">
<stop stop-color="#FF7D2B"/>
<stop offset="1" stop-color="#FF7D2B" stop-opacity="0"/>
</linearGradient>
<linearGradient id="paint39_linear_1874_50788" x1="38.1996" y1="166.578" x2="48.5518" y2="166.578" gradientUnits="userSpaceOnUse">
<stop stop-color="#FF7D2B"/>
<stop offset="1" stop-color="#FF7D2B" stop-opacity="0"/>
</linearGradient>
<linearGradient id="paint40_linear_1874_50788" x1="40.1057" y1="183.13" x2="51.4265" y2="183.13" gradientUnits="userSpaceOnUse">
<stop stop-color="#CED6DD"/>
<stop offset="0.14" stop-color="#CED6DD" stop-opacity="0.83"/>
<stop offset="0.35" stop-color="#CED6DD" stop-opacity="0.61"/>
<stop offset="0.54" stop-color="#CED6DD" stop-opacity="0.43"/>
<stop offset="0.72" stop-color="#CED6DD" stop-opacity="0.3"/>
<stop offset="0.88" stop-color="#CED6DD" stop-opacity="0.23"/>
<stop offset="1" stop-color="#CED6DD" stop-opacity="0.2"/>
</linearGradient>
<clipPath id="clip0_1874_50788">
<rect width="250" height="265.697" fill="white"/>
</clipPath>
</defs>
</svg>
