<svg width="20" height="20" viewBox="0 0 20 20" fill="none" xmlns="http://www.w3.org/2000/svg">
<path d="M10 0C15.5226 0 20 4.4774 20 10C20 12.761 18.8805 15.2618 17.071 17.071C15.2615 18.8802 12.7608 20 10 20C4.4774 20 0 15.5226 0 10C0 4.4774 4.4774 0 10 0V0ZM10 1.2125C5.1468 1.2125 1.2124 5.1469 1.2124 10.0001C1.2124 14.8533 5.1468 18.7877 10 18.7877C14.8532 18.7877 18.7876 14.8533 18.7876 10.0001C18.7876 5.1469 14.8532 1.2125 10 1.2125Z" fill="#9FA8B1"/>
<path d="M6.48199 6.48056C6.97575 5.04462 8.42495 4.16016 9.911 4.16016C11.7915 4.16016 13.5188 5.57188 13.5188 7.52036C13.5188 8.85082 12.6915 9.98836 11.5008 10.5352C10.9172 10.8008 10.5758 11.3406 10.5758 11.9805V12.6922H9.24533V11.9805C9.24533 10.8188 9.89377 9.81328 10.95 9.32968C11.6649 9.00234 12.1883 8.32422 12.1883 7.5203C12.1883 6.30076 11.0625 5.4907 9.9109 5.4907C8.94293 5.4907 8.08512 6.00398 7.7313 6.92274L6.48199 6.48056Z" fill="#9FA8B1"/>
<path fill-rule="evenodd" clip-rule="evenodd" d="M9.91103 13.8042C10.4727 13.8042 10.929 14.2604 10.929 14.8222C10.929 15.3839 10.4727 15.8401 9.91103 15.8401C9.34931 15.8401 8.89307 15.3839 8.89307 14.8222C8.89307 14.2604 9.34931 13.8042 9.91103 13.8042Z" fill="#9FA8B1"/>
</svg>
