<svg width="20" height="20" viewBox="0 0 20 20" fill="none" xmlns="http://www.w3.org/2000/svg">
<path d="M10 0.229004C12.6984 0.229004 15.1414 1.32276 16.9094 3.0908C18.6774 4.85884 19.7712 7.3026 19.7712 10.0002C19.7712 12.6986 18.6775 15.1416 16.9094 16.9096C15.1414 18.6776 12.6976 19.7714 10 19.7714C7.30162 19.7714 4.85862 18.6776 3.09062 16.9096C1.32262 15.1416 0.228821 12.6978 0.228821 10.0002C0.228821 7.3018 1.32258 4.8588 3.09062 3.0908C4.85866 1.3228 7.30242 0.229004 10 0.229004V0.229004ZM5.50622 9.7322C5.30934 9.52596 5.31794 9.19782 5.52419 9.00174C5.73123 8.80487 6.05857 8.81346 6.25465 9.01971L9.06945 11.9907L14.678 6.56571C14.8827 6.36806 15.2093 6.37352 15.4069 6.57743C15.6046 6.78211 15.5991 7.10867 15.3952 7.30555L9.44063 13.0658C9.43125 13.0775 9.4211 13.0876 9.41016 13.0978C9.20392 13.2947 8.87578 13.2861 8.6797 13.0798L5.5079 9.73221L5.50622 9.7322ZM16.1766 3.8236C14.5962 2.24236 12.4126 1.265 10 1.265C7.58822 1.265 5.40402 2.24312 3.82342 3.8236C2.24218 5.40406 1.26482 7.5876 1.26482 10.0002C1.26482 12.412 2.24294 14.5962 3.82342 16.1768C5.40388 17.758 7.58742 18.7354 10 18.7354C12.4118 18.7354 14.596 17.7573 16.1766 16.1768C17.7579 14.5963 18.7352 12.4128 18.7352 10.0002C18.7352 7.5884 17.7571 5.4042 16.1766 3.8236V3.8236Z" fill="#33CC66"/>
</svg>
