<svg width="20" height="20" viewBox="0 0 20 20" fill="none" xmlns="http://www.w3.org/2000/svg">
<path d="M10 0.239746C7.41181 0.239746 4.92901 1.26787 3.09841 3.09835C1.26795 4.92881 0.239807 7.41155 0.239807 9.99995C0.239807 12.5883 1.26793 15.0709 3.09841 16.9015C4.92887 18.732 7.41161 19.7601 10 19.7601C12.5884 19.7601 15.071 18.732 16.9016 16.9015C18.7321 15.0711 19.7602 12.5883 19.7602 9.99995C19.7571 7.41235 18.7282 4.93115 16.8984 3.10155C15.0687 1.27187 12.5874 0.242946 10 0.239746ZM10 18.5405V18.5398C7.73521 18.5398 5.56241 17.6405 3.96101 16.039C2.35945 14.4374 1.46021 12.2648 1.46021 9.99997C1.46021 7.73517 2.35943 5.56237 3.96101 3.96097C5.56257 2.35941 7.73521 1.46017 10 1.46017C12.2648 1.46017 14.4376 2.35939 16.039 3.96097C17.6406 5.56253 18.5398 7.73517 18.5398 9.99997C18.5375 12.264 17.6375 14.4352 16.0358 16.036C14.435 17.6375 12.264 18.5376 9.99981 18.54L10 18.5405ZM10.6891 3.80375L10.6109 10.0077H10.6102C10.6078 10.1921 10.5227 10.3656 10.3781 10.4796L6.57812 13.4656C6.45078 13.568 6.28828 13.6156 6.12578 13.5977C5.96328 13.5789 5.81484 13.4969 5.71406 13.368C5.61328 13.2399 5.56797 13.0766 5.58906 12.9141C5.60937 12.7524 5.69375 12.6055 5.82422 12.5063L9.39382 9.70086L9.46882 3.78846C9.47273 3.45408 9.7446 3.18612 10.0782 3.18612H10.086C10.2485 3.18768 10.4024 3.25409 10.5157 3.36971C10.629 3.48612 10.6907 3.64159 10.6891 3.80409L10.6891 3.80375Z" fill="#3399FF"/>
</svg>
