<svg width="20" height="20" viewBox="0 0 20 20" fill="none" xmlns="http://www.w3.org/2000/svg">
<path d="M17.0737 2.9279C15.1983 1.05287 12.6538 0 10.0012 0C7.34848 0 4.80492 1.05405 2.92857 2.92905C1.05312 4.80408 0 7.348 0 10C0 12.652 1.05317 15.1959 2.92857 17.0709C4.80516 18.946 7.34854 20 10.0012 20C12.6538 20 15.1982 18.9471 17.0737 17.0721C18.9481 15.196 20 12.652 20 10C20 7.348 18.948 4.80411 17.0737 2.9279ZM16.1185 3.88287C17.6549 5.42457 18.5538 7.48768 18.6383 9.66227C18.7217 11.8369 17.9828 13.963 16.5691 15.6172L4.38133 3.42794C6.03714 2.01465 8.16373 1.27702 10.3388 1.36146C12.5139 1.44592 14.5774 2.34572 16.1184 3.8829L16.1185 3.88287ZM3.88117 16.1174C2.35151 14.5768 1.45601 12.5184 1.37268 10.3493C1.28932 8.18033 2.02373 6.05861 3.43061 4.40554L15.6184 16.5723C13.9626 17.9856 11.836 18.7233 9.66089 18.6388C7.4858 18.5544 5.4223 17.6546 3.88131 16.1174L3.88117 16.1174Z" fill="#FF3B2E"/>
</svg>
