<svg width="12" height="14" viewBox="0 0 12 14" fill="none" xmlns="http://www.w3.org/2000/svg">
<path d="M5.73468 6.72378C6.6584 6.72378 7.45827 6.39248 8.11182 5.73882C8.76537 5.08527 9.09667 4.28561 9.09667 3.36178C9.09667 2.43827 8.76537 1.63851 8.11171 0.984744C7.45806 0.331301 6.65829 0 5.73468 0C4.81085 0 4.01119 0.331301 3.35764 0.984851C2.70409 1.6384 2.37268 2.43817 2.37268 3.36178C2.37268 4.28561 2.70409 5.08538 3.35774 5.73893C4.0114 6.39237 4.81117 6.72378 5.73468 6.72378V6.72378Z" fill="#33CC66"/>
<path d="M11.6172 10.733C11.5984 10.461 11.5602 10.1643 11.5041 9.85104C11.4475 9.53539 11.3745 9.237 11.2872 8.96427C11.197 8.68238 11.0743 8.40401 10.9227 8.13725C10.7653 7.86036 10.5804 7.61926 10.3729 7.42087C10.156 7.21331 9.89043 7.04644 9.5833 6.92472C9.27724 6.80363 8.93806 6.74229 8.57524 6.74229C8.43275 6.74229 8.29495 6.80076 8.02883 6.97402C7.86504 7.08084 7.67346 7.20437 7.45962 7.341C7.27677 7.4575 7.02907 7.56666 6.72311 7.66548C6.42462 7.76207 6.12154 7.81106 5.8224 7.81106C5.52326 7.81106 5.22029 7.76207 4.92147 7.66548C4.61583 7.56676 4.36813 7.45761 4.18549 7.3411C3.97368 7.20575 3.78199 7.08222 3.61576 6.97392C3.34995 6.80065 3.21204 6.74219 3.06955 6.74219C2.70663 6.74219 2.36755 6.80363 2.0616 6.92482C1.75468 7.04633 1.48898 7.21321 1.27185 7.42097C1.0645 7.61948 0.879526 7.86047 0.722342 8.13725C0.570802 8.40401 0.448122 8.68228 0.357816 8.96438C0.270599 9.2371 0.197651 9.53539 0.140997 9.85104C0.0848749 10.1639 0.0467504 10.4607 0.0279012 10.7333C0.00937138 11.0004 0 11.2776 0 11.5576C0 12.2862 0.231622 12.8761 0.688371 13.3111C1.13947 13.7404 1.73637 13.9582 2.46222 13.9582H9.18321C9.90907 13.9582 10.5057 13.7405 10.957 13.3111C11.4138 12.8764 11.6454 12.2864 11.6454 11.5575C11.6453 11.2762 11.6358 10.9988 11.6172 10.733V10.733Z" fill="#33CC66"/>
</svg>
