<svg width="38" height="37" viewBox="0 0 38 37" fill="none" xmlns="http://www.w3.org/2000/svg">
<path d="M2.05922 4.41074C2.35691 2.81053 3.63007 1.56826 5.23614 1.30403C15.9022 -0.450727 22.667 -0.413995 32.6236 1.29018C34.2129 1.5622 35.4694 2.79445 35.7682 4.37892C37.802 15.1661 37.6583 22.018 35.7614 32.231C35.4652 33.8257 34.2034 35.0699 32.6042 35.3407C22.3105 37.0835 15.543 37.0123 5.2574 35.3282C3.64095 35.0636 2.36137 33.8093 2.06803 32.1978C0.164257 21.7392 0.112577 14.8746 2.05922 4.41074Z" fill="white"/>
<path d="M14.9499 26.2706C22.7836 26.2706 27.1284 19.8926 26.8644 14.3216C27.4448 13.9195 27.9694 13.4482 28.4257 12.919C28.4603 12.8781 28.4801 12.8275 28.4822 12.7749C28.4843 12.7222 28.4686 12.6704 28.4373 12.627C28.4061 12.5837 28.3611 12.5512 28.309 12.5345C28.2569 12.5177 28.2005 12.5176 28.1484 12.5341C27.8039 12.6402 27.4529 12.7254 27.0973 12.7893C27.0692 12.794 27.0402 12.7896 27.015 12.7767C26.9898 12.7637 26.9699 12.7431 26.9584 12.718C26.947 12.6929 26.9447 12.6648 26.9519 12.6383C26.9591 12.6118 26.9754 12.5884 26.9982 12.5718C27.4559 12.2246 27.8332 11.7898 28.106 11.2951C28.1296 11.2501 28.1378 11.199 28.1295 11.1492C28.1211 11.0994 28.0967 11.0534 28.0596 11.0176C28.0226 10.9818 27.9747 10.9581 27.9228 10.9498C27.8709 10.9415 27.8176 10.9491 27.7704 10.9714C27.1208 11.2683 26.4347 11.4856 25.7285 11.6184C25.1535 11.0306 24.4075 10.6222 23.5874 10.4461C22.7672 10.27 21.9108 10.3344 21.1293 10.6309C20.3478 10.9275 19.6773 11.4424 19.2049 12.1089C18.7325 12.7754 18.48 13.5627 18.4801 14.3686C18.4813 14.6247 18.5064 14.8802 18.5552 15.1321C18.5588 15.1504 18.558 15.1692 18.5529 15.1872C18.5478 15.2052 18.5384 15.2218 18.5255 15.2358C18.5127 15.2498 18.4967 15.2607 18.4787 15.2679C18.4607 15.275 18.4413 15.2782 18.4219 15.277C15.3895 15.0911 12.5465 13.7987 10.4769 11.6654C10.4171 11.6017 10.3409 11.5544 10.2558 11.5281C10.1708 11.5017 10.0801 11.4974 9.99277 11.5155C9.90545 11.5336 9.82466 11.5734 9.75856 11.6311C9.69246 11.6887 9.6434 11.762 9.61632 11.8436C9.33035 12.6066 9.29929 13.4361 9.52747 14.2168C9.75564 14.9975 10.2317 15.6907 10.8896 16.2001C10.9109 16.2165 10.9261 16.2391 10.9327 16.2645C10.9394 16.29 10.9371 16.3168 10.9263 16.3408C10.9155 16.3649 10.8968 16.3849 10.873 16.3978C10.8492 16.4107 10.8217 16.4157 10.7946 16.4122C10.5551 16.3809 10.3191 16.3291 10.0893 16.2574C10.0054 16.2305 9.91561 16.2252 9.82894 16.2421C9.74226 16.2589 9.66172 16.2973 9.59538 16.3534C9.52734 16.4082 9.47634 16.4799 9.44796 16.5607C9.41959 16.6415 9.41493 16.7282 9.4345 16.8113C10.3222 20.0884 12.7262 19.6707 12.7262 19.919C12.7262 20.087 12.2507 20.087 11.6133 20.0884C11.527 20.0888 11.4423 20.1105 11.3673 20.1513C11.2922 20.1921 11.2294 20.2507 11.1848 20.3215C11.1402 20.3923 11.1153 20.4729 11.1125 20.5556C11.1098 20.6383 11.1292 20.7202 11.169 20.7936C11.5044 21.3467 11.9716 21.8158 12.5324 22.1625C13.0931 22.5093 13.7315 22.7239 14.3953 22.7887C14.4211 22.7906 14.4457 22.8001 14.4657 22.8158C14.4857 22.8315 14.5002 22.8527 14.5072 22.8766C14.5142 22.9005 14.5134 22.9259 14.5049 22.9493C14.4964 22.9727 14.4806 22.9931 14.4596 23.0076C13.3001 23.8117 11.9448 24.3171 10.5234 24.4753C10.4133 24.4837 10.3094 24.5271 10.228 24.5986C10.1467 24.6702 10.0926 24.7657 10.0745 24.8701C10.0563 24.9745 10.0751 25.0818 10.1279 25.1747C10.1806 25.2677 10.2643 25.3411 10.3656 25.3832C11.816 25.9713 13.3752 26.2731 14.9499 26.2706Z" fill="#2EC5F4"/>
</svg>
