<svg width="69" height="69" viewBox="0 0 69 69" fill="none" xmlns="http://www.w3.org/2000/svg">
<mask id="mask0_405_20266" style="mask-type:alpha" maskUnits="userSpaceOnUse" x="0" y="0" width="69" height="69">
<path d="M0 0H69V69H0V0Z" fill="white"/>
</mask>
<g mask="url(#mask0_405_20266)">
<path d="M62.5669 24.502C57.5554 37.0308 67.9006 47.9936 61.0008 55.8241C50.6734 73.0513 42.8428 54.258 35.0123 58.9563C28.1648 63.0649 13.7223 59.7023 5.8918 42.4751C-1.93875 25.2479 14.653 14.2852 20.9174 15.8513C27.1818 17.4174 26.5465 14.2852 37.5092 8.02072C48.472 1.75629 68.8314 8.8409 62.567 24.5019L62.5669 24.502Z" fill="white"/>
<path fill-rule="evenodd" clip-rule="evenodd" d="M11.3439 13.2103L8.02417 11.2937L8.9825 9.63379L12.3023 11.5505L11.3439 13.2103Z" fill="#90A4AD"/>
<path fill-rule="evenodd" clip-rule="evenodd" d="M14.9191 10.8491L16.8357 7.5293L18.4956 8.48763L16.5789 11.8074L14.9191 10.8491Z" fill="#90A4AD"/>
<path fill-rule="evenodd" clip-rule="evenodd" d="M44.8663 26.5584C43.5894 27.1719 42.0569 26.6343 41.4433 25.3573C40.8298 24.0804 41.3674 22.5478 42.6445 21.9343C43.9214 21.3208 45.454 21.8586 46.0675 23.1355C46.681 24.4123 46.1432 25.9449 44.8663 26.5584Z" fill="#FEB46D"/>
<path fill-rule="evenodd" clip-rule="evenodd" d="M15.8125 17.2503C15.8125 14.3393 18.1723 11.9795 21.0833 11.9795C23.9943 11.9795 26.3541 14.3393 26.3541 17.2503C26.3541 20.1614 23.9943 22.5212 21.0833 22.5212C18.1723 22.5212 15.8125 20.1614 15.8125 17.2503ZM11.9791 28.7503C11.9791 25.8393 14.339 23.4795 17.25 23.4795H24.9166C27.8277 23.4795 30.1875 25.8393 30.1875 28.7503V39.2356C30.1875 41.0881 28.6858 42.5898 26.8333 42.5898H26.3541V53.667C26.3541 55.5194 24.8524 57.0212 23 57.0212H19.1666C17.3142 57.0212 15.8125 55.5194 15.8125 53.667V42.5898H15.3333C13.4808 42.5898 11.9791 41.0881 11.9791 39.2356V28.7503Z" fill="#F3F3F1"/>
<path fill-rule="evenodd" clip-rule="evenodd" d="M21.0833 11.9795C18.1723 11.9795 15.8125 14.3393 15.8125 17.2503C15.8125 20.1614 18.1723 22.5212 21.0833 22.5212C21.7595 22.5212 22.406 22.3939 23 22.1618C21.0367 21.3951 19.6458 19.4852 19.6458 17.2503C19.6458 15.0155 21.0367 13.1056 23 12.3388C22.406 12.1068 21.7595 11.9795 21.0833 11.9795ZM17.25 23.4795C14.339 23.4795 11.9791 25.8393 11.9791 28.7503V39.2356C11.9791 41.0881 13.4808 42.5898 15.3333 42.5898H15.8125V53.667C15.8125 55.5194 17.3142 57.0212 19.1666 57.0212H23C21.1475 57.0212 19.6458 55.5194 19.6458 53.667V42.5898H19.1666C17.3142 42.5898 15.8125 41.0881 15.8125 39.2356V28.7503C15.8125 25.8393 18.1723 23.4795 21.0833 23.4795H17.25Z" fill="#D6DBE1"/>
<path fill-rule="evenodd" clip-rule="evenodd" d="M21.0833 14.8535C19.7601 14.8535 18.6875 15.9262 18.6875 17.2493C18.6875 18.5725 19.7601 19.6451 21.0833 19.6451C22.4066 19.6451 23.4792 18.5725 23.4792 17.2493C23.4792 15.9262 22.4066 14.8535 21.0833 14.8535ZM15.8125 17.2493C15.8125 14.3383 18.1723 11.9785 21.0833 11.9785C23.9944 11.9785 26.3542 14.3383 26.3542 17.2493C26.3542 20.1603 23.9944 22.5201 21.0833 22.5201C18.1723 22.5201 15.8125 20.1603 15.8125 17.2493Z" fill="black"/>
<path fill-rule="evenodd" clip-rule="evenodd" d="M17.25 26.3535C15.9268 26.3535 14.8541 27.4263 14.8541 28.7493V39.2347C14.8541 39.4994 15.0687 39.7138 15.3333 39.7138H17.25C17.6312 39.7138 17.9968 39.8652 18.2664 40.1349C18.536 40.4044 18.6875 40.7701 18.6875 41.1513V53.666C18.6875 53.9307 18.902 54.1452 19.1666 54.1452H23C23.2647 54.1452 23.4791 53.9307 23.4791 53.666V41.1513C23.4791 40.7701 23.6305 40.4044 23.9002 40.1349C24.1697 39.8652 24.5354 39.7138 24.9166 39.7138H26.8333C27.098 39.7138 27.3125 39.4994 27.3125 39.2347V28.7493C27.3125 27.4263 26.2399 26.3535 24.9166 26.3535H17.25ZM11.9791 28.7493C11.9791 25.8383 14.339 23.4785 17.25 23.4785H24.9166C27.8277 23.4785 30.1875 25.8383 30.1875 28.7493V39.2347C30.1875 41.0871 28.6858 42.5888 26.8333 42.5888H26.3541V53.666C26.3541 55.5185 24.8524 57.0202 23 57.0202H19.1666C17.3142 57.0202 15.8125 55.5185 15.8125 53.666V42.5888H15.3333C13.4808 42.5888 11.9791 41.0871 11.9791 39.2347V28.7493Z" fill="black"/>
<path d="M50.9584 20.7852C52.8699 24.7634 51.1946 29.538 47.2163 31.4495C43.2381 33.361 38.4637 31.6856 36.5522 27.7074C34.6407 23.7292 36.316 18.9546 40.2943 17.0431C44.2723 15.1316 49.0469 16.8071 50.9584 20.7852Z" fill="#FEB46D"/>
<path fill-rule="evenodd" clip-rule="evenodd" d="M45.1967 32.1088C42.7679 31.664 40.5783 30.1032 39.4272 27.7074C37.5157 23.7292 39.191 18.9546 43.1693 17.0431C43.8261 16.7275 44.5048 16.5096 45.1887 16.3838C43.5848 16.09 41.8765 16.2829 40.2943 17.0431C36.316 18.9546 34.6407 23.7292 36.5522 27.7074C38.148 31.0286 41.7393 32.7448 45.1967 32.1088Z" fill="#FF7F2E"/>
<path fill-rule="evenodd" clip-rule="evenodd" d="M40.917 18.3382C37.6544 19.9059 36.2804 23.8215 37.848 27.0842C39.4156 30.3468 43.3312 31.7208 46.5939 30.1532C49.8565 28.5855 51.2306 24.6698 49.6629 21.4072C48.0953 18.1445 44.1795 16.7705 40.917 18.3382ZM35.2565 28.3293C33.0013 23.6356 34.978 18.0021 39.6717 15.7468C44.3656 13.4915 49.9989 15.4682 52.2542 20.162C54.5096 24.8559 52.5327 30.4892 47.839 32.7445C43.1453 34.9999 37.5118 33.023 35.2565 28.3293Z" fill="black"/>
<path d="M44.7717 23.7577C44.5021 23.1963 43.8284 22.96 43.2672 23.2297C42.7058 23.4993 42.4693 24.173 42.7391 24.7344C43.0088 25.2958 43.6825 25.5321 44.2439 25.2625C44.8051 24.9928 45.0416 24.3191 44.7717 23.7577Z" fill="#F3F3F1"/>
<path fill-rule="evenodd" clip-rule="evenodd" d="M43.6215 23.9671C43.7756 23.8929 43.9608 23.9579 44.0349 24.1122C44.1091 24.2665 44.0441 24.4514 43.8898 24.5256C43.7355 24.5998 43.5504 24.5348 43.4762 24.3805C43.4022 24.2262 43.4672 24.0411 43.6215 23.9671ZM41.4436 25.3573C42.0571 26.6341 43.5897 27.172 44.8666 26.5584C46.1435 25.9449 46.6813 24.4123 46.0678 23.1355C45.4542 21.8586 43.9217 21.3208 42.6448 21.9343C41.3677 22.5478 40.8301 24.0804 41.4436 25.3573Z" fill="black"/>
<path fill-rule="evenodd" clip-rule="evenodd" d="M39.6696 12.4229L42.2126 17.7154L39.6213 18.9605L37.0782 13.668L39.6696 12.4229Z" fill="black"/>
<path fill-rule="evenodd" clip-rule="evenodd" d="M49.2266 12.9969L47.2823 18.5375L44.5695 17.5855L46.5137 12.0449L49.2266 12.9969Z" fill="black"/>
<path fill-rule="evenodd" clip-rule="evenodd" d="M55.578 20.1597L50.2855 22.7027L49.0403 20.1114L54.333 17.5684L55.578 20.1597Z" fill="black"/>
<path fill-rule="evenodd" clip-rule="evenodd" d="M50.4326 34.8237L47.8896 29.5312L45.2982 30.7763L47.8412 36.069L50.4326 34.8237Z" fill="black"/>
<path fill-rule="evenodd" clip-rule="evenodd" d="M40.9974 36.4466L42.9417 30.9061L40.2288 29.9541L38.2845 35.4948L40.9974 36.4466Z" fill="black"/>
<path fill-rule="evenodd" clip-rule="evenodd" d="M55.0042 29.7165L49.4637 27.7722L50.4156 25.0596L55.9563 27.0036L55.0042 29.7165Z" fill="black"/>
<path fill-rule="evenodd" clip-rule="evenodd" d="M31.5546 21.4882L37.0951 23.4325L38.0471 20.7197L32.5066 18.7754L31.5546 21.4882Z" fill="black"/>
<path fill-rule="evenodd" clip-rule="evenodd" d="M33.178 30.9234L38.4705 28.3804L37.2254 25.7891L31.9327 28.3321L33.178 30.9234Z" fill="black"/>
</g>
</svg>
