<svg width="44" height="44" viewBox="0 0 44 44" fill="none" xmlns="http://www.w3.org/2000/svg">
<path d="M16.3909 42.7767C24.0884 39.2824 31.1859 40.8713 34.8953 39.1883C38.6048 37.504 45.4272 31.8354 37.682 14.7707C29.9368 -2.29397 18.3208 -0.0426337 14.2398 1.80903C-4.86599 10.4807 2.75701 48.9648 16.3909 42.7767Z" fill="#F5F8FB"/>
<path d="M30.2494 35.75H13.7493C12.7373 35.75 11.916 34.9287 11.916 33.9167V21.0833C11.916 20.0713 12.7373 19.25 13.7493 19.25H30.2494C31.2614 19.25 32.0827 20.0713 32.0827 21.0833V33.9167C32.0827 34.9287 31.2614 35.75 30.2494 35.75Z" fill="#FEB46D"/>
<path d="M14.666 33.9167V21.0833C14.666 20.0713 15.4874 19.25 16.4994 19.25H13.7494C12.7373 19.25 11.916 20.0713 11.916 21.0833V33.9167C11.916 34.9287 12.7373 35.75 13.7494 35.75H16.4994C15.4874 35.75 14.666 34.9287 14.666 33.9167Z" fill="#FF7F2E"/>
<path d="M37.2776 16.818C36.2669 16.818 35.4443 15.9955 35.4443 14.9847C35.4443 13.9739 36.2669 13.1514 37.2776 13.1514C38.2884 13.1514 39.111 13.9739 39.111 14.9847C39.111 15.9955 38.2884 16.818 37.2776 16.818ZM37.2776 14.3736C36.9403 14.3736 36.6665 14.6474 36.6665 14.9847C36.6665 15.322 36.9403 15.5958 37.2776 15.5958C37.615 15.5958 37.8888 15.322 37.8888 14.9847C37.8888 14.6474 37.615 14.3736 37.2776 14.3736Z" fill="#A4AFC1"/>
<path d="M5.7959 16.6387L6.66014 15.7744L8.38862 17.5029L7.52438 18.3672L5.7959 16.6387Z" fill="#A4AFC1"/>
<path d="M5.5791 22.4717L7.30758 20.7432L8.17182 21.6074L6.44334 23.3359L5.5791 22.4717Z" fill="#A4AFC1"/>
<path d="M30.25 36.6673H13.75C12.2332 36.6673 11 35.4341 11 33.9173V21.084C11 19.5672 12.2332 18.334 13.75 18.334H30.25C31.7668 18.334 33 19.5672 33 21.084V33.9173C33 35.4341 31.7668 36.6673 30.25 36.6673ZM13.75 20.1673C13.244 20.1673 12.8333 20.578 12.8333 21.084V33.9173C12.8333 34.4233 13.244 34.834 13.75 34.834H30.25C30.756 34.834 31.1667 34.4233 31.1667 33.9173V21.084C31.1667 20.578 30.756 20.1673 30.25 20.1673H13.75Z" fill="black"/>
<path d="M29.3327 19.2497H27.4993V14.6663C27.4993 11.634 25.0317 9.16634 21.9993 9.16634C18.967 9.16634 16.4993 11.634 16.4993 14.6663V19.2497H14.666V14.6663C14.666 10.622 17.955 7.33301 21.9993 7.33301C26.0437 7.33301 29.3327 10.622 29.3327 14.6663V19.2497Z" fill="black"/>
</svg>
