<svg width="44" height="44" viewBox="0 0 44 44" fill="none" xmlns="http://www.w3.org/2000/svg">
<path d="M16.3909 42.7767C24.0884 39.2824 31.1859 40.8713 34.8953 39.1883C38.6048 37.504 45.4272 31.8354 37.682 14.7707C29.9368 -2.29397 18.3208 -0.0426337 14.2398 1.80903C-4.86599 10.4807 2.75701 48.9648 16.3909 42.7767Z" fill="#F5F8FB"/>
<path d="M33.3056 32.6946H10.6944C9.34389 32.6946 8.25 31.6007 8.25 30.2501V13.7501C8.25 12.3996 9.34389 11.3057 10.6944 11.3057H33.3056C34.6561 11.3057 35.75 12.3996 35.75 13.7501V30.2501C35.75 31.6007 34.6561 32.6946 33.3056 32.6946Z" fill="#FEB46D"/>
<path d="M11 30.2501V13.7501C11 12.3996 12.0939 11.3057 13.4444 11.3057H10.6944C9.34389 11.3057 8.25 12.3996 8.25 13.7501V30.2501C8.25 31.6007 9.34389 32.6946 10.6944 32.6946H13.4444C12.0939 32.6946 11 31.6007 11 30.2501Z" fill="#FF7F2E"/>
<path d="M7.59017 8.76042C6.57939 8.76042 5.75684 7.93786 5.75684 6.92708C5.75684 5.91631 6.57939 5.09375 7.59017 5.09375C8.60095 5.09375 9.4235 5.91631 9.4235 6.92708C9.4235 7.93786 8.60095 8.76042 7.59017 8.76042ZM7.59017 6.31597C7.25406 6.31597 6.97906 6.58975 6.97906 6.92708C6.97906 7.26442 7.25406 7.5382 7.59017 7.5382C7.92628 7.5382 8.20128 7.26442 8.20128 6.92708C8.20128 6.58975 7.92628 6.31597 7.59017 6.31597Z" fill="#A4AFC1"/>
<path d="M37.8887 8.75977H40.3331V9.98199H37.8887V8.75977Z" fill="#A4AFC1"/>
<path d="M35.1387 4.48242H36.3609V6.92687H35.1387V4.48242Z" fill="#A4AFC1"/>
<path d="M33.3052 33.6109H10.6941C8.84001 33.6109 7.33301 32.1039 7.33301 30.2498V13.7498C7.33301 11.8957 8.84001 10.3887 10.6941 10.3887H33.3052C35.1593 10.3887 36.6663 11.8957 36.6663 13.7498V30.2498C36.6663 32.1039 35.1593 33.6109 33.3052 33.6109ZM10.6941 12.222C9.85201 12.222 9.16634 12.9077 9.16634 13.7498V30.2498C9.16634 31.0919 9.85201 31.7776 10.6941 31.7776H33.3052C34.1473 31.7776 34.833 31.0919 34.833 30.2498V13.7498C34.833 12.9077 34.1473 12.222 33.3052 12.222H10.6941Z" fill="black"/>
<path d="M21.9995 26.2782C19.6406 26.2782 17.7217 24.3593 17.7217 22.0004C17.7217 19.6415 19.6406 17.7227 21.9995 17.7227C24.3584 17.7227 26.2772 19.6415 26.2772 22.0004C26.2772 24.3593 24.3584 26.2782 21.9995 26.2782ZM21.9995 19.556C20.6514 19.556 19.555 20.6523 19.555 22.0004C19.555 23.3485 20.6514 24.4449 21.9995 24.4449C23.3476 24.4449 24.4439 23.3485 24.4439 22.0004C24.4439 20.6523 23.3476 19.556 21.9995 19.556Z" fill="black"/>
<path d="M22.0003 29.9442C19.5974 29.9442 17.3498 28.8748 15.833 27.0084C14.3162 25.1421 13.7332 22.6977 14.2319 20.3009C14.8589 17.2967 17.2972 14.8583 20.3002 14.2326C22.6946 13.7327 25.1427 14.3157 27.0078 15.8337C28.8729 17.3517 29.9448 19.5981 29.9448 21.9998V23.5276C29.9448 25.0443 28.7103 26.2776 27.1948 26.2776C25.6792 26.2776 24.4448 25.0443 24.4448 23.5276V18.6387H26.2781V23.5276C26.2781 24.0336 26.69 24.4442 27.1948 24.4442C27.6996 24.4442 28.1115 24.0336 28.1115 23.5276V21.9998C28.1115 20.1518 27.2877 18.4223 25.8516 17.2551C24.4154 16.0879 22.5271 15.6381 20.6754 16.0268C18.3752 16.5059 16.5077 18.3734 16.0273 20.6749C15.6411 22.5302 16.0884 24.4173 17.2557 25.8522C18.4229 27.2871 20.1523 28.1109 22.0003 28.1109V29.9442Z" fill="black"/>
<path d="M2.44434 31.7783H41.5555V33.6116H2.44434V31.7783Z" fill="black"/>
</svg>
