<svg width="22" height="22" viewBox="0 0 22 22" fill="none" xmlns="http://www.w3.org/2000/svg">
<circle cx="11" cy="11" r="11" transform="rotate(-180 11 11)" fill="#33CC66"/>
<path d="M11.6355 8.67206C11.4403 8.4768 11.1237 8.4768 10.9284 8.67206L7.74645 11.854C7.55119 12.0493 7.55119 12.3659 7.74645 12.5611C7.94171 12.7564 8.25829 12.7564 8.45356 12.5611L11.282 9.73272L14.1104 12.5611C14.3057 12.7564 14.6223 12.7564 14.8175 12.5611C15.0128 12.3659 15.0128 12.0493 14.8175 11.854L11.6355 8.67206ZM11.782 16.3589L11.782 9.02561L10.782 9.02561L10.782 16.3589L11.782 16.3589Z" fill="white"/>
<path d="M15.7949 6.78333L6.26159 6.78333" stroke="white"/>
</svg>
