<svg width="44" height="44" viewBox="0 0 44 44" fill="none" xmlns="http://www.w3.org/2000/svg">
<path d="M14.0947 42.5361C22.2163 40.1907 29.0095 42.7879 32.923 41.6573C36.8366 40.5268 44.407 35.9031 39.2077 17.8973C34.0083 -0.108451 22.1895 0.443995 17.8836 1.68699C-2.27454 7.50844 -0.289652 46.6904 14.0947 42.5361Z" fill="#F5F8FB"/>
<path d="M14.3609 33.3056C13.0104 33.3056 11.9165 32.2117 11.9165 30.8611V10.6944C11.9165 9.34389 13.0104 8.25 14.3609 8.25H27.1943C28.5448 8.25 29.6387 9.34389 29.6387 10.6944V30.8611C29.6387 32.2117 28.5448 33.3056 27.1943 33.3056H14.3609Z" fill="#F3F3F1"/>
<path d="M14.6665 30.8611V10.6944C14.6665 9.34389 15.7604 8.25 17.111 8.25H14.3609C13.0104 8.25 11.9165 9.34389 11.9165 10.6944V30.8611C11.9165 32.2117 13.0104 33.3056 14.3609 33.3056H17.111C15.7604 33.3056 14.6665 32.2117 14.6665 30.8611Z" fill="#D5DBE1"/>
<path d="M34.5279 35.7505H27.8057C27.1311 35.7505 26.5835 35.203 26.5835 34.5283V30.2505C26.5835 29.5759 27.1311 29.0283 27.8057 29.0283H34.5279C35.2026 29.0283 35.7502 29.5759 35.7502 30.2505V34.5283C35.7502 35.203 35.2026 35.7505 34.5279 35.7505Z" fill="#FEB46D"/>
<path d="M29.3335 34.5283V30.2505C29.3335 29.5759 29.881 29.0283 30.5557 29.0283H27.8057C27.1311 29.0283 26.5835 29.5759 26.5835 30.2505V34.5283C26.5835 35.203 27.1311 35.7505 27.8057 35.7505H30.5557C29.881 35.7505 29.3335 35.203 29.3335 34.5283Z" fill="#FF7F2E"/>
<path d="M7.33333 9.16666C6.32255 9.16666 5.5 8.34411 5.5 7.33333C5.5 6.32255 6.32255 5.5 7.33333 5.5C8.34411 5.5 9.16666 6.32255 9.16666 7.33333C9.16666 8.34411 8.34411 9.16666 7.33333 9.16666ZM7.33333 6.72222C6.99722 6.72222 6.72222 6.99722 6.72222 7.33333C6.72222 7.66944 6.99722 7.94444 7.33333 7.94444C7.66944 7.94444 7.94444 7.66944 7.94444 7.33333C7.94444 6.99722 7.66944 6.72222 7.33333 6.72222Z" fill="#A4AFC1"/>
<path d="M34.8335 37.8887H36.0557V40.3331H34.8335V37.8887Z" fill="#A4AFC1"/>
<path d="M37.5835 34.833H40.0279V36.0552H37.5835V34.833Z" fill="#A4AFC1"/>
<path d="M22.3056 34.2229H14.3611C12.507 34.2229 11 32.7159 11 30.8618V10.6951C11 8.84099 12.507 7.33398 14.3611 7.33398H27.1945C29.0486 7.33398 30.5556 8.84099 30.5556 10.6951V19.8618H28.7222V10.6951C28.7222 9.85299 28.0366 9.16732 27.1945 9.16732H14.3611C13.519 9.16732 12.8333 9.85299 12.8333 10.6951V30.8618C12.8333 31.7039 13.519 32.3896 14.3611 32.3896H22.3056V34.2229Z" fill="black"/>
<path d="M14.6665 19.25H16.4998V22.3056H14.6665V19.25Z" fill="black"/>
<path d="M34.5276 36.6669H27.8054C26.6259 36.6669 25.6665 35.7074 25.6665 34.528V30.2502C25.6665 29.0708 26.6259 28.1113 27.8054 28.1113H34.5276C35.7071 28.1113 36.6665 29.0708 36.6665 30.2502V34.528C36.6665 35.7074 35.7071 36.6669 34.5276 36.6669ZM27.8054 29.9447C27.6367 29.9447 27.4998 30.0815 27.4998 30.2502V34.528C27.4998 34.6967 27.6367 34.8335 27.8054 34.8335H34.5276C34.6963 34.8335 34.8332 34.6967 34.8332 34.528V30.2502C34.8332 30.0815 34.6963 29.9447 34.5276 29.9447H27.8054Z" fill="black"/>
<path d="M33.3058 29.9449H29.028C28.522 29.9449 28.1113 29.5342 28.1113 29.0282V26.2782C28.1113 24.5928 29.4814 23.2227 31.1669 23.2227C32.8523 23.2227 34.2224 24.5928 34.2224 26.2782V29.0282C34.2224 29.5342 33.8118 29.9449 33.3058 29.9449ZM29.9447 28.1115H32.3891V26.2782C32.3891 25.6035 31.8415 25.056 31.1669 25.056C30.4922 25.056 29.9447 25.6035 29.9447 26.2782V28.1115Z" fill="black"/>
</svg>
