<svg width="64" height="64" viewBox="0 0 64 64" fill="none" xmlns="http://www.w3.org/2000/svg">
<g clip-path="url(#clip0_406_20314)">
<path d="M14.4249 9.89154C11.216 21.7618 2.86224 28.2506 1.31557 33.9715C-0.231095 39.6924 -0.190208 52.5938 26.1245 59.7084C52.4391 66.8231 60.6702 51.7066 62.3698 45.4133C70.336 15.952 20.1085 -11.1325 14.4249 9.89154Z" fill="white"/>
<path d="M56 35.5557H57.7778V39.1112H56V35.5557Z" fill="#A4AFC1"/>
<path d="M56 25.333H57.7778V28.8886H56V25.333Z" fill="#A4AFC1"/>
<path d="M60.4445 31.5557H64V33.3334H60.4445V31.5557Z" fill="#A4AFC1"/>
<path d="M7.37779 59.2366C5.90756 59.2366 4.71112 58.0402 4.71112 56.57C4.71112 55.0998 5.90756 53.9033 7.37779 53.9033C8.84801 53.9033 10.0445 55.0998 10.0445 56.57C10.0445 58.0402 8.84801 59.2366 7.37779 59.2366ZM7.37779 55.6811C6.88712 55.6811 6.4889 56.0811 6.4889 56.57C6.4889 57.0589 6.88712 57.4589 7.37779 57.4589C7.86845 57.4589 8.26668 57.0589 8.26668 56.57C8.26668 56.0811 7.86845 55.6811 7.37779 55.6811Z" fill="#A4AFC1"/>
<path d="M47.1111 18.2222C48.8293 18.2222 50.2222 16.8293 50.2222 15.1111C50.2222 13.3929 48.8293 12 47.1111 12C45.3929 12 44 13.3929 44 15.1111C44 16.8293 45.3929 18.2222 47.1111 18.2222Z" fill="#F3F3F1"/>
<path d="M36 20H13.7778C12.7964 20 12 19.2036 12 18.2222V13.7778C12 12.7964 12.7964 12 13.7778 12H36C36.9813 12 37.7778 12.7964 37.7778 13.7778V18.2222C37.7778 19.2036 36.9813 20 36 20Z" fill="#F3F3F1"/>
<path d="M50.2222 52H13.7778C12.7964 52 12 51.2036 12 50.2222V45.7778C12 44.7964 12.7964 44 13.7778 44H50.2222C51.2036 44 52 44.7964 52 45.7778V50.2222C52 51.2036 51.2036 52 50.2222 52Z" fill="#FEB46D"/>
<path d="M50.2222 36H40.4445C39.4631 36 38.6667 35.2036 38.6667 34.2222V29.7778C38.6667 28.7964 39.4631 28 40.4445 28H50.2222C51.2036 28 52 28.7964 52 29.7778V34.2222C52 35.2036 51.2036 36 50.2222 36Z" fill="#FEB46D"/>
<path d="M16 18.2222V13.7778C16 12.7964 16.7964 12 17.7778 12H13.7778C12.7964 12 12 12.7964 12 13.7778V18.2222C12 19.2036 12.7964 20 13.7778 20H17.7778C16.7964 20 16 19.2036 16 18.2222Z" fill="#D5DBE1"/>
<path d="M16 50.2222V45.7778C16 44.7964 16.7964 44 17.7778 44H13.7778C12.7964 44 12 44.7964 12 45.7778V50.2222C12 51.2036 12.7964 52 13.7778 52H17.7778C16.7964 52 16 51.2036 16 50.2222Z" fill="#FF7F2E"/>
<path d="M42.6667 34.2222V29.7778C42.6667 28.7964 43.4631 28 44.4445 28H40.4445C39.4631 28 38.6667 28.7964 38.6667 29.7778V34.2222C38.6667 35.2036 39.4631 36 40.4445 36H44.4445C43.4631 36 42.6667 35.2036 42.6667 34.2222Z" fill="#FF7F2E"/>
<path d="M47.1111 19.5559C44.6614 19.5559 42.6667 17.563 42.6667 15.1114C42.6667 12.6599 44.6614 10.667 47.1111 10.667C49.5609 10.667 51.5556 12.6599 51.5556 15.1114C51.5556 17.563 49.5609 19.5559 47.1111 19.5559ZM47.1111 13.3337C46.1316 13.3337 45.3334 14.1301 45.3334 15.1114C45.3334 16.0928 46.1316 16.8892 47.1111 16.8892C48.0907 16.8892 48.8889 16.0928 48.8889 15.1114C48.8889 14.1301 48.0907 13.3337 47.1111 13.3337Z" fill="black"/>
<path d="M48.6548 18.5566L50.5404 16.671L52.9402 19.0708L51.0546 20.9564L48.6548 18.5566Z" fill="black"/>
<path d="M36 21.3337H13.7778C12.0622 21.3337 10.6667 19.9381 10.6667 18.2225V13.7781C10.6667 12.0625 12.0622 10.667 13.7778 10.667H36C37.7156 10.667 39.1111 12.0625 39.1111 13.7781V18.2225C39.1111 19.9381 37.7156 21.3337 36 21.3337ZM13.7778 13.3337C13.5325 13.3337 13.3334 13.5328 13.3334 13.7781V18.2225C13.3334 18.4679 13.5325 18.667 13.7778 18.667H36C36.2454 18.667 36.4445 18.4679 36.4445 18.2225V13.7781C36.4445 13.5328 36.2454 13.3337 36 13.3337H13.7778Z" fill="black"/>
<path d="M50.2222 53.3337H13.7778C12.0622 53.3337 10.6667 51.9381 10.6667 50.2225V45.7781C10.6667 44.0625 12.0622 42.667 13.7778 42.667H50.2222C51.9378 42.667 53.3334 44.0625 53.3334 45.7781V50.2225C53.3334 51.9381 51.9378 53.3337 50.2222 53.3337ZM13.7778 45.3337C13.5325 45.3337 13.3334 45.5328 13.3334 45.7781V50.2225C13.3334 50.4679 13.5325 50.667 13.7778 50.667H50.2222C50.4676 50.667 50.6667 50.4679 50.6667 50.2225V45.7781C50.6667 45.5328 50.4676 45.3337 50.2222 45.3337H13.7778Z" fill="black"/>
<path d="M50.2223 37.3337H40.4445C38.7289 37.3337 37.3334 35.9381 37.3334 34.2225V29.7781C37.3334 28.0625 38.7289 26.667 40.4445 26.667H50.2223C51.9378 26.667 53.3334 28.0625 53.3334 29.7781V34.2225C53.3334 35.9381 51.9378 37.3337 50.2223 37.3337ZM40.4445 29.3337C40.1992 29.3337 40 29.5328 40 29.7781V34.2225C40 34.4679 40.1992 34.667 40.4445 34.667H50.2223C50.4676 34.667 50.6667 34.4679 50.6667 34.2225V29.7781C50.6667 29.5328 50.4676 29.3337 50.2223 29.3337H40.4445Z" fill="black"/>
<path d="M12 27.5557H32.4444V30.2223H12V27.5557Z" fill="black"/>
<path d="M12 32.8896H32.4444V35.5563H12V32.8896Z" fill="black"/>
</g>
<defs>
<clipPath id="clip0_406_20314">
<rect width="64" height="64" fill="white"/>
</clipPath>
</defs>
</svg>
