<svg width="69" height="69" viewBox="0 0 69 69" fill="none" xmlns="http://www.w3.org/2000/svg">
<path d="M62.5669 24.502C57.5554 37.0308 67.9006 47.9936 61.0008 55.8241C50.6734 73.0513 42.8428 54.258 35.0123 58.9563C28.1648 63.0649 13.7223 59.7023 5.8918 42.4751C-1.93875 25.2479 14.653 14.2852 20.9174 15.8513C27.1818 17.4174 26.5465 14.2851 37.5092 8.02071C48.472 1.7563 68.8314 8.84089 62.5669 24.5019L62.5669 24.502Z" fill="white"/>
<path fill-rule="evenodd" clip-rule="evenodd" d="M11.3439 13.2103L8.02417 11.2937L8.9825 9.63379L12.3023 11.5505L11.3439 13.2103Z" fill="#90A4AD"/>
<path fill-rule="evenodd" clip-rule="evenodd" d="M14.9191 10.8491L16.8357 7.5293L18.4956 8.48763L16.5789 11.8074L14.9191 10.8491Z" fill="black"/>
<path fill-rule="evenodd" clip-rule="evenodd" d="M15.8125 17.2493C15.8125 14.3384 18.1723 11.9785 21.0833 11.9785C23.9943 11.9785 26.3541 14.3384 26.3541 17.2493C26.3541 20.1604 23.9943 22.5202 21.0833 22.5202C18.1723 22.5202 15.8125 20.1604 15.8125 17.2493ZM11.9791 28.7493C11.9791 25.8383 14.339 23.4785 17.25 23.4785H24.9166C27.8277 23.4785 30.1875 25.8383 30.1875 28.7493V39.2347C30.1875 41.0871 28.6858 42.5888 26.8333 42.5888H26.3541V53.666C26.3541 55.5185 24.8524 57.0202 23 57.0202H19.1666C17.3142 57.0202 15.8125 55.5185 15.8125 53.666V42.5888H15.3333C13.4808 42.5888 11.9791 41.0871 11.9791 39.2347V28.7493Z" fill="#F3F3F1"/>
<path fill-rule="evenodd" clip-rule="evenodd" d="M38.8125 18.2077C38.8125 14.7674 41.6014 11.9785 45.0417 11.9785C48.4819 11.9785 51.2708 14.7674 51.2708 18.2077V22.5202H38.8125V18.2077ZM45.0417 14.8535C43.1892 14.8535 41.6875 16.3552 41.6875 18.2077V19.6452H48.3958V18.2077C48.3958 16.3552 46.8941 14.8535 45.0417 14.8535Z" fill="#F3F3F1"/>
<path fill-rule="evenodd" clip-rule="evenodd" d="M36.4167 19.6455C34.5642 19.6455 33.0625 21.1472 33.0625 22.9997V34.4997C33.0625 36.3521 34.5642 37.8538 36.4167 37.8538H53.6667C55.5191 37.8538 57.0208 36.3521 57.0208 34.4997V22.9997C57.0208 21.1472 55.5191 19.6455 53.6667 19.6455H36.4167Z" fill="#FEB46D"/>
<path fill-rule="evenodd" clip-rule="evenodd" d="M33.0625 22.9997C33.0625 21.1472 34.5642 19.6455 36.4167 19.6455H40.25C38.3975 19.6455 36.8958 21.1472 36.8958 22.9997V34.4997C36.8958 36.3521 38.3975 37.8538 40.25 37.8538H36.4167C34.5642 37.8538 33.0625 36.3521 33.0625 34.4997V22.9997Z" fill="#FF7F2E"/>
<path fill-rule="evenodd" clip-rule="evenodd" d="M45.0416 30.1872C43.7183 30.1872 42.6458 29.1146 42.6458 27.7913C42.6458 26.4681 43.7183 25.3955 45.0416 25.3955C46.3649 25.3955 47.4374 26.4681 47.4374 27.7913C47.4374 29.1146 46.3649 30.1872 45.0416 30.1872Z" fill="#F3F3F1"/>
<path fill-rule="evenodd" clip-rule="evenodd" d="M45.0416 27.3125C45.8355 27.3125 46.4791 27.9561 46.4791 28.75V31.625C46.4791 32.4189 45.8355 33.0625 45.0416 33.0625C44.2477 33.0625 43.6041 32.4189 43.6041 31.625V28.75C43.6041 27.9561 44.2477 27.3125 45.0416 27.3125Z" fill="#F3F3F1"/>
<path fill-rule="evenodd" clip-rule="evenodd" d="M21.0833 11.9785C18.1723 11.9785 15.8125 14.3384 15.8125 17.2493C15.8125 20.1604 18.1723 22.5202 21.0833 22.5202C21.7595 22.5202 22.406 22.3929 23 22.1608C21.0367 21.3941 19.6458 19.4842 19.6458 17.2493C19.6458 15.0145 21.0367 13.1046 23 12.3378C22.406 12.1058 21.7595 11.9785 21.0833 11.9785ZM17.25 23.4785C14.339 23.4785 11.9791 25.8383 11.9791 28.7493V39.2347C11.9791 41.0871 13.4808 42.5888 15.3333 42.5888H15.8125V53.666C15.8125 55.5185 17.3142 57.0202 19.1666 57.0202H23C21.1475 57.0202 19.6458 55.5185 19.6458 53.666V42.5888H19.1666C17.3142 42.5888 15.8125 41.0871 15.8125 39.2347V28.7493C15.8125 25.8383 18.1723 23.4785 21.0833 23.4785H17.25Z" fill="#D6DBE1"/>
<path fill-rule="evenodd" clip-rule="evenodd" d="M21.0833 14.8535C19.7601 14.8535 18.6875 15.9262 18.6875 17.2493C18.6875 18.5725 19.7601 19.6452 21.0833 19.6452C22.4066 19.6452 23.4792 18.5725 23.4792 17.2493C23.4792 15.9262 22.4066 14.8535 21.0833 14.8535ZM15.8125 17.2493C15.8125 14.3384 18.1723 11.9785 21.0833 11.9785C23.9944 11.9785 26.3542 14.3384 26.3542 17.2493C26.3542 20.1604 23.9944 22.5202 21.0833 22.5202C18.1723 22.5202 15.8125 20.1604 15.8125 17.2493Z" fill="black"/>
<path fill-rule="evenodd" clip-rule="evenodd" d="M17.25 26.3535C15.9268 26.3535 14.8541 27.4261 14.8541 28.7493V39.2347C14.8541 39.4994 15.0687 39.7138 15.3333 39.7138H17.25C18.0439 39.7138 18.6875 40.3574 18.6875 41.1513V53.666C18.6875 53.9307 18.902 54.1452 19.1666 54.1452H23C23.2647 54.1452 23.4791 53.9307 23.4791 53.666V41.1513C23.4791 40.3574 24.1227 39.7138 24.9166 39.7138H26.8333C27.098 39.7138 27.3125 39.4994 27.3125 39.2347V28.7493C27.3125 27.4261 26.2399 26.3535 24.9166 26.3535H17.25ZM11.9791 28.7493C11.9791 25.8383 14.339 23.4785 17.25 23.4785H24.9166C27.8277 23.4785 30.1875 25.8383 30.1875 28.7493V39.2347C30.1875 41.0871 28.6858 42.5888 26.8333 42.5888H26.3541V53.666C26.3541 55.5185 24.8524 57.0202 23 57.0202H19.1666C17.3142 57.0202 15.8125 55.5185 15.8125 53.666V42.5888H15.3333C13.4808 42.5888 11.9791 41.0871 11.9791 39.2347V28.7493Z" fill="black"/>
<path fill-rule="evenodd" clip-rule="evenodd" d="M33.0625 22.9997C33.0625 21.1472 34.5642 19.6455 36.4167 19.6455H53.6667C55.5191 19.6455 57.0208 21.1472 57.0208 22.9997V34.4997C57.0208 36.3521 55.5191 37.8538 53.6667 37.8538H36.4167C34.5642 37.8538 33.0625 36.3521 33.0625 34.4997V22.9997ZM36.4167 22.5205C36.152 22.5205 35.9375 22.735 35.9375 22.9997V34.4997C35.9375 34.7644 36.152 34.9788 36.4167 34.9788H53.6667C53.9314 34.9788 54.1458 34.7644 54.1458 34.4997V22.9997C54.1458 22.735 53.9314 22.5205 53.6667 22.5205H36.4167Z" fill="black"/>
<path fill-rule="evenodd" clip-rule="evenodd" d="M38.8125 18.2077C38.8125 14.7674 41.6014 11.9785 45.0417 11.9785C48.4819 11.9785 51.2708 14.7674 51.2708 18.2077V21.0827C51.2708 21.8766 50.6272 22.5202 49.8333 22.5202H40.25C39.4561 22.5202 38.8125 21.8766 38.8125 21.0827V18.2077ZM45.0417 14.8535C43.1892 14.8535 41.6875 16.3552 41.6875 18.2077V19.6452H48.3958V18.2077C48.3958 16.3552 46.8941 14.8535 45.0417 14.8535Z" fill="black"/>
<path fill-rule="evenodd" clip-rule="evenodd" d="M45.0416 27.3122C45.3063 27.3122 45.5208 27.5266 45.5208 27.7913C45.5208 28.056 45.3063 28.2705 45.0416 28.2705C44.7769 28.2705 44.5624 28.056 44.5624 27.7913C44.5624 27.5266 44.7769 27.3122 45.0416 27.3122ZM42.6458 27.7913C42.6458 29.1146 43.7183 30.1872 45.0416 30.1872C46.3649 30.1872 47.4374 29.1146 47.4374 27.7913C47.4374 26.4681 46.3649 25.3955 45.0416 25.3955C43.7183 25.3955 42.6458 26.4681 42.6458 27.7913Z" fill="black"/>
<path fill-rule="evenodd" clip-rule="evenodd" d="M46.4791 27.3115V33.0615H43.6041V27.3115H46.4791Z" fill="black"/>
</svg>
