<svg width="70" height="70" viewBox="0 0 70 70" fill="none" xmlns="http://www.w3.org/2000/svg">
<path d="M6.69278 46.4389C18.4781 52.9198 23.2147 63.4742 28.8925 66.597C34.5722 69.7198 48.2942 73.0117 62.6597 46.8862C77.0253 20.7606 63.0894 8.10421 56.8419 4.66838C27.5936 -11.4122 -14.1789 34.9628 6.69278 46.4389Z" fill="white"/>
<path d="M62.5158 10.5428C60.9077 10.5428 59.5991 9.2342 59.5991 7.62614C59.5991 6.01808 60.9077 4.70947 62.5158 4.70947C64.1238 4.70947 65.4325 6.01808 65.4325 7.62614C65.4325 9.2342 64.1258 10.5428 62.5158 10.5428ZM62.5158 6.65392C61.9791 6.65392 61.5436 7.09142 61.5436 7.62614C61.5436 8.16086 61.9791 8.59836 62.5158 8.59836C63.0525 8.59836 63.488 8.16086 63.488 7.62614C63.488 7.09142 63.0525 6.65392 62.5158 6.65392Z" fill="#A4AFC1"/>
<path d="M52.5 56.875C54.9162 56.875 56.875 54.9162 56.875 52.5C56.875 50.0838 54.9162 48.125 52.5 48.125C50.0838 48.125 48.125 50.0838 48.125 52.5C48.125 54.9162 50.0838 56.875 52.5 56.875Z" fill="#FEB46D"/>
<path d="M25.7641 47.1529H22.8474C20.6988 47.1529 18.9585 45.4127 18.9585 43.2641V22.8474C18.9585 20.6988 20.6988 18.9585 22.8474 18.9585H43.2641C45.4127 18.9585 47.1529 20.6988 47.1529 22.8474V47.1529H25.7641Z" fill="#F3F3F1"/>
<path d="M31.5971 41.3193H26.7359C25.6626 41.3193 24.7915 40.4482 24.7915 39.3748V26.7359C24.7915 25.6626 25.6626 24.7915 26.7359 24.7915H32.7365C33.2518 24.7915 33.7476 24.9957 34.1112 25.3612L40.7496 31.9996C41.1151 32.3651 41.3193 32.859 41.3193 33.3743V39.3748C41.3193 40.4482 40.4482 41.3193 39.3748 41.3193H31.5971Z" fill="#FEB46D"/>
<path d="M26.7363 47.1529H22.8474C20.7085 47.1529 18.9585 45.4029 18.9585 43.2641V22.8474C18.9585 20.7085 20.7085 18.9585 22.8474 18.9585H26.7363C24.5974 18.9585 22.8474 20.7085 22.8474 22.8474V43.2641C22.8474 45.4029 24.5974 47.1529 26.7363 47.1529Z" fill="#D5DBE1"/>
<path d="M30.6248 41.3193H26.7359C25.6665 41.3193 24.7915 40.4443 24.7915 39.3748V26.7359C24.7915 25.6665 25.6665 24.7915 26.7359 24.7915H30.6248C29.5554 24.7915 28.6804 25.6665 28.6804 26.7359V39.3748C28.6804 40.4443 29.5554 41.3193 30.6248 41.3193Z" fill="#FF6600"/>
<path d="M54.1917 56.525C53.6667 56.7583 53.1028 56.875 52.5 56.875C50.0889 56.875 48.125 54.9111 48.125 52.5C48.125 50.0889 50.0889 48.125 52.5 48.125C53.1028 48.125 53.6667 48.2417 54.1917 48.475C52.6167 49.1556 51.5278 50.6917 51.5278 52.5C51.5278 54.3083 52.6167 55.8444 54.1917 56.525Z" fill="#FF6600"/>
<path d="M52.4998 58.3332C49.2837 58.3332 46.6665 55.7159 46.6665 52.4998C46.6665 49.2837 49.2837 46.6665 52.4998 46.6665C55.7159 46.6665 58.3332 49.2837 58.3332 52.4998C58.3332 55.7159 55.7159 58.3332 52.4998 58.3332ZM52.4998 49.5832C50.8918 49.5832 49.5832 50.8918 49.5832 52.4998C49.5832 54.1079 50.8918 55.4165 52.4998 55.4165C54.1079 55.4165 55.4165 54.1079 55.4165 52.4998C55.4165 50.8918 54.1079 49.5832 52.4998 49.5832Z" fill="black"/>
<path d="M35.9723 56.8748H33.0557V53.4721C33.0557 52.1323 34.1465 51.0415 35.4862 51.0415H49.0973V53.9582H35.9723V56.8748Z" fill="black"/>
<path d="M36.9443 51.0415H39.861V56.8748H36.9443V51.0415Z" fill="black"/>
<path d="M29.6528 48.6111H22.8472C19.8975 48.6111 17.5 46.2136 17.5 43.2639V22.8472C17.5 19.8975 19.8975 17.5 22.8472 17.5H43.2639C46.2136 17.5 48.6111 19.8975 48.6111 22.8472V41.3214H45.6944V22.8472C45.6944 21.5075 44.6036 20.4167 43.2639 20.4167H22.8472C21.5075 20.4167 20.4167 21.5075 20.4167 22.8472V43.2639C20.4167 44.6036 21.5075 45.6944 22.8472 45.6944H29.6528V48.6111Z" fill="black"/>
<path d="M39.3752 42.7779H26.7363C24.8599 42.7779 23.3335 41.2516 23.3335 39.3752V26.7363C23.3335 24.8599 24.8599 23.3335 26.7363 23.3335H32.7368C33.6449 23.3335 34.5004 23.6874 35.1421 24.331L41.7804 30.9693C42.4143 31.6032 42.7779 32.4782 42.7779 33.3746V39.3752C42.7779 41.2516 41.2516 42.7779 39.3752 42.7779ZM26.7363 26.2502C26.4679 26.2502 26.2502 26.4679 26.2502 26.7363V39.3752C26.2502 39.6435 26.4679 39.8613 26.7363 39.8613H39.3752C39.6435 39.8613 39.8613 39.6435 39.8613 39.3752V33.3746C39.8613 33.2482 39.8088 33.1218 39.7193 33.0304L33.081 26.3921C32.9896 26.3007 32.8652 26.2502 32.7368 26.2502H26.7363Z" fill="black"/>
<path d="M23.3335 47.6387H26.2502V52.9859H23.3335V47.6387Z" fill="black"/>
<path d="M31.5972 13.125H34.5138V18.4722H31.5972V13.125Z" fill="black"/>
<path d="M23.3335 13.125H26.2502V18.4722H23.3335V13.125Z" fill="black"/>
<path d="M39.8613 13.125H42.778V18.4722H39.8613V13.125Z" fill="black"/>
<path d="M13.125 31.5972H18.4722V34.5138H13.125V31.5972Z" fill="black"/>
<path d="M13.125 23.3335H18.4722V26.2502H13.125V23.3335Z" fill="black"/>
<path d="M13.125 39.8613H18.4722V42.778H13.125V39.8613Z" fill="black"/>
<path d="M47.6387 31.5972H52.9859V34.5138H47.6387V31.5972Z" fill="black"/>
<path d="M47.6387 23.3335H52.9859V26.2502H47.6387V23.3335Z" fill="black"/>
</svg>
