<svg width="37" height="37" viewBox="0 0 37 37" fill="none" xmlns="http://www.w3.org/2000/svg">
<path d="M1.43959 4.41074C1.73728 2.81054 3.01044 1.56827 4.61651 1.30404C15.2826 -0.45072 22.0474 -0.413987 32.004 1.29019C33.5933 1.56221 34.8498 2.79446 35.1485 4.37893C37.1824 15.1661 37.0386 22.018 35.1418 32.231C34.8456 33.8257 33.5838 35.0699 31.9846 35.3407C21.6909 37.0835 14.9234 37.0123 4.63777 35.3282C3.02133 35.0636 1.74174 33.8093 1.4484 32.1978C-0.455372 21.7392 -0.507052 14.8746 1.43959 4.41074Z" fill="white"/>
<path fill-rule="evenodd" clip-rule="evenodd" d="M26.6023 9.6771C26.8627 9.5662 27.1469 9.5287 27.4258 9.56844C27.7048 9.60819 27.9685 9.72374 28.19 9.90328C28.4115 10.0828 28.5827 10.3199 28.6861 10.5902C28.7896 10.8605 28.8215 11.1543 28.7787 11.4415C28.1616 15.5828 27.0302 23.1715 26.4296 27.1997C26.388 27.4785 26.2775 27.7415 26.1087 27.9632C25.9398 28.185 25.7184 28.358 25.4657 28.4657C25.2131 28.5733 24.9379 28.6119 24.6666 28.5776C24.3953 28.5434 24.1372 28.4375 23.9171 28.2702C21.7925 26.655 18.6072 24.2332 16.99 23.0032C16.8652 22.9083 16.7621 22.7863 16.688 22.6458C16.6139 22.5053 16.5706 22.3497 16.5611 22.19C16.5517 22.0303 16.5764 21.8704 16.6334 21.7217C16.6904 21.5729 16.7783 21.4388 16.891 21.329C18.3729 19.8848 21.3244 17.0084 23.3551 15.0293C23.403 14.9824 23.4321 14.9187 23.4368 14.8508C23.4415 14.7829 23.4215 14.7156 23.3807 14.6621C23.3398 14.6087 23.2811 14.5729 23.216 14.5617C23.1509 14.5506 23.0841 14.565 23.0287 14.602C20.425 16.3544 16.4373 19.0378 14.4829 20.3531C14.1166 20.5996 13.705 20.7654 13.2737 20.8402C12.8425 20.9149 12.4009 20.897 11.9767 20.7875C10.9006 20.5099 9.34828 20.1094 7.96689 19.7531C7.75062 19.6974 7.55691 19.5726 7.41336 19.3966C7.26981 19.2206 7.18373 19.0024 7.1674 18.7729C7.15106 18.5435 7.2053 18.3146 7.32238 18.1189C7.43946 17.9231 7.61342 17.7705 7.81947 17.6827C12.6283 15.6331 22.039 11.6224 26.6023 9.6771Z" fill="#32B4FF"/>
</svg>
