<svg width="13" height="13" viewBox="0 0 13 13" fill="none" xmlns="http://www.w3.org/2000/svg">
<path d="M11.6977 6.45968H10.7796C10.5894 6.45968 10.4353 6.61384 10.4353 6.80399V10.9901C10.4353 11.2123 10.2545 11.3931 10.0323 11.3931H2.0096C1.78746 11.3931 1.60676 11.2123 1.60676 10.9901V2.96759C1.60676 2.74536 1.78746 2.56453 2.0096 2.56453H6.41007C6.60022 2.56453 6.75437 2.41037 6.75437 2.22022V1.30207C6.75437 1.11192 6.60022 0.957764 6.41007 0.957764H2.0096C0.901486 0.957764 0 1.85939 0 2.96759V10.9902C0 12.0984 0.901532 12.9999 2.0096 12.9999H10.0322C11.1404 12.9999 12.042 12.0983 12.042 10.9902V6.80404C12.042 6.61384 11.8879 6.45968 11.6977 6.45968Z" fill="#1843BF"/>
<path d="M12.6557 0H9.00361C8.81346 0 8.6593 0.154157 8.6593 0.344306V1.26246C8.6593 1.45261 8.81346 1.60676 9.00361 1.60676H10.2571L5.5403 6.32344C5.40584 6.4579 5.40584 6.67587 5.5403 6.81038L6.18952 7.45965C6.25412 7.52424 6.34166 7.56051 6.43302 7.56051C6.52433 7.56051 6.61192 7.52424 6.67647 7.45965L11.3932 2.74288V3.9963C11.3932 4.18645 11.5474 4.3406 11.7375 4.3406H12.6557C12.8458 4.3406 13 4.18645 13 3.9963V0.344306C13 0.154157 12.8458 0 12.6557 0Z" fill="#1843BF"/>
</svg>
