<svg width="64" height="60" viewBox="0 0 64 60" fill="none" xmlns="http://www.w3.org/2000/svg">
<path d="M14.4244 7.89154C11.2155 19.7618 2.86175 26.2506 1.31508 31.9715C-0.231584 37.6924 -0.190696 50.5938 26.124 57.7084C52.4386 64.8231 60.6698 49.7066 62.3693 43.4133C70.3355 13.952 20.108 -13.1325 14.4244 7.89154Z" fill="#F5F8FB"/>
<path d="M56 33.5557H57.7778V37.1112H56V33.5557Z" fill="#A4AFC1"/>
<path d="M56 23.333H57.7778V26.8886H56V23.333Z" fill="#A4AFC1"/>
<path d="M60.4443 29.5557H63.9999V31.3334H60.4443V29.5557Z" fill="#A4AFC1"/>
<path d="M7.3776 57.2366C5.90738 57.2366 4.71094 56.0402 4.71094 54.57C4.71094 53.0998 5.90738 51.9033 7.3776 51.9033C8.84783 51.9033 10.0443 53.0998 10.0443 54.57C10.0443 56.0402 8.84783 57.2366 7.3776 57.2366ZM7.3776 53.6811C6.88694 53.6811 6.48872 54.0811 6.48872 54.57C6.48872 55.0589 6.88694 55.4589 7.3776 55.4589C7.86827 55.4589 8.26649 55.0589 8.26649 54.57C8.26649 54.0811 7.86827 53.6811 7.3776 53.6811Z" fill="#A4AFC1"/>
<path d="M47.1111 16.2222C48.8293 16.2222 50.2222 14.8293 50.2222 13.1111C50.2222 11.3929 48.8293 10 47.1111 10C45.3929 10 44 11.3929 44 13.1111C44 14.8293 45.3929 16.2222 47.1111 16.2222Z" fill="#F3F3F1"/>
<path d="M36 18H13.7778C12.7964 18 12 17.2036 12 16.2222V11.7778C12 10.7964 12.7964 10 13.7778 10H36C36.9813 10 37.7778 10.7964 37.7778 11.7778V16.2222C37.7778 17.2036 36.9813 18 36 18Z" fill="#F3F3F1"/>
<path d="M50.2222 50H13.7778C12.7964 50 12 49.2036 12 48.2222V43.7778C12 42.7964 12.7964 42 13.7778 42H50.2222C51.2036 42 52 42.7964 52 43.7778V48.2222C52 49.2036 51.2036 50 50.2222 50Z" fill="#FEB46D"/>
<path d="M50.2226 34H40.4448C39.4634 34 38.667 33.2036 38.667 32.2222V27.7778C38.667 26.7964 39.4634 26 40.4448 26H50.2226C51.2039 26 52.0003 26.7964 52.0003 27.7778V32.2222C52.0003 33.2036 51.2039 34 50.2226 34Z" fill="#FEB46D"/>
<path d="M16 16.2222V11.7778C16 10.7964 16.7964 10 17.7778 10H13.7778C12.7964 10 12 10.7964 12 11.7778V16.2222C12 17.2036 12.7964 18 13.7778 18H17.7778C16.7964 18 16 17.2036 16 16.2222Z" fill="#D5DBE1"/>
<path d="M16 48.2222V43.7778C16 42.7964 16.7964 42 17.7778 42H13.7778C12.7964 42 12 42.7964 12 43.7778V48.2222C12 49.2036 12.7964 50 13.7778 50H17.7778C16.7964 50 16 49.2036 16 48.2222Z" fill="#FF7F2E"/>
<path d="M42.667 32.2222V27.7778C42.667 26.7964 43.4634 26 44.4448 26H40.4448C39.4634 26 38.667 26.7964 38.667 27.7778V32.2222C38.667 33.2036 39.4634 34 40.4448 34H44.4448C43.4634 34 42.667 33.2036 42.667 32.2222Z" fill="#FF7F2E"/>
<path d="M47.1105 17.5559C44.6607 17.5559 42.666 15.563 42.666 13.1114C42.666 10.6599 44.6607 8.66699 47.1105 8.66699C49.5602 8.66699 51.5549 10.6599 51.5549 13.1114C51.5549 15.563 49.5602 17.5559 47.1105 17.5559ZM47.1105 11.3337C46.1309 11.3337 45.3327 12.1301 45.3327 13.1114C45.3327 14.0928 46.1309 14.8892 47.1105 14.8892C48.09 14.8892 48.8882 14.0928 48.8882 13.1114C48.8882 12.1301 48.09 11.3337 47.1105 11.3337Z" fill="black"/>
<path d="M48.6543 16.5566L50.5399 14.671L52.9397 17.0708L51.0541 18.9564L48.6543 16.5566Z" fill="black"/>
<path d="M35.9993 19.3337H13.7771C12.0616 19.3337 10.666 17.9381 10.666 16.2225V11.7781C10.666 10.0625 12.0616 8.66699 13.7771 8.66699H35.9993C37.7149 8.66699 39.1105 10.0625 39.1105 11.7781V16.2225C39.1105 17.9381 37.7149 19.3337 35.9993 19.3337ZM13.7771 11.3337C13.5318 11.3337 13.3327 11.5328 13.3327 11.7781V16.2225C13.3327 16.4679 13.5318 16.667 13.7771 16.667H35.9993C36.2447 16.667 36.4438 16.4679 36.4438 16.2225V11.7781C36.4438 11.5328 36.2447 11.3337 35.9993 11.3337H13.7771Z" fill="black"/>
<path d="M50.2216 51.3337H13.7771C12.0616 51.3337 10.666 49.9381 10.666 48.2225V43.7781C10.666 42.0625 12.0616 40.667 13.7771 40.667H50.2216C51.9371 40.667 53.3327 42.0625 53.3327 43.7781V48.2225C53.3327 49.9381 51.9371 51.3337 50.2216 51.3337ZM13.7771 43.3337C13.5318 43.3337 13.3327 43.5328 13.3327 43.7781V48.2225C13.3327 48.4679 13.5318 48.667 13.7771 48.667H50.2216C50.4669 48.667 50.666 48.4679 50.666 48.2225V43.7781C50.666 43.5328 50.4669 43.3337 50.2216 43.3337H13.7771Z" fill="black"/>
<path d="M50.2219 35.3337H40.4441C38.7286 35.3337 37.333 33.9381 37.333 32.2225V27.7781C37.333 26.0625 38.7286 24.667 40.4441 24.667H50.2219C51.9375 24.667 53.333 26.0625 53.333 27.7781V32.2225C53.333 33.9381 51.9375 35.3337 50.2219 35.3337ZM40.4441 27.3337C40.1988 27.3337 39.9997 27.5328 39.9997 27.7781V32.2225C39.9997 32.4679 40.1988 32.667 40.4441 32.667H50.2219C50.4672 32.667 50.6663 32.4679 50.6663 32.2225V27.7781C50.6663 27.5328 50.4672 27.3337 50.2219 27.3337H40.4441Z" fill="black"/>
<path d="M11.999 25.5557H32.4435V28.2223H11.999V25.5557Z" fill="black"/>
<path d="M11.999 30.8896H32.4435V33.5563H11.999V30.8896Z" fill="black"/>
</svg>
