<svg width="44" height="44" viewBox="0 0 44 44" fill="none" xmlns="http://www.w3.org/2000/svg">
<path d="M33.5098 4.78388C25.0581 4.94154 19.1707 0.671099 15.0982 0.748099C11.0258 0.825099 2.51423 3.32577 2.86501 22.0637C3.21579 40.8016 14.7743 43.3352 19.255 43.2521C40.232 42.8598 48.4796 4.50399 33.5098 4.78388Z" fill="#EFEFEF"/>
<path d="M34.2228 8.25H20.4728C19.1222 8.25 18.0283 9.34389 18.0283 10.6944V12.5278V27.8056V29.6389C18.0283 30.9894 19.1222 32.0833 20.4728 32.0833H25.3616H34.2228V8.25Z" fill="#F3F3F1"/>
<path d="M20.7783 29.6389V27.8056V12.5278V10.6944C20.7783 9.34389 21.8722 8.25 23.2228 8.25H20.4728C19.1222 8.25 18.0283 9.34389 18.0283 10.6944V12.5278V27.8056V29.6389C18.0283 30.9894 19.1222 32.0833 20.4728 32.0833H23.2228C21.8722 32.0833 20.7783 30.9894 20.7783 29.6389Z" fill="#D5DBE1"/>
<path d="M25.3613 12.2222V34.2222C25.3613 35.0656 26.0457 35.75 26.889 35.75C27.0602 35.75 27.219 35.7256 27.3779 35.6767L34.7113 33.2322C35.3101 33.0244 35.7501 32.45 35.7501 31.7778V9.77778C35.7501 8.93444 35.0657 8.25 34.2224 8.25C34.0513 8.25 33.8924 8.27444 33.7335 8.32333L26.4002 10.7678C25.8013 10.9756 25.3613 11.55 25.3613 12.2222Z" fill="#FEB46D"/>
<path d="M28.1113 33.9167V11.9167C28.1113 11.2444 28.5513 10.67 29.1502 10.4622L35.018 8.50667C34.7834 8.35756 34.5206 8.25 34.2224 8.25C34.0513 8.25 33.8924 8.27444 33.7335 8.32333L26.4002 10.7678C25.8013 10.9756 25.3613 11.55 25.3613 12.2222V34.2222C25.3613 35.0656 26.0457 35.75 26.889 35.75C27.0602 35.75 27.219 35.7256 27.3779 35.6767L28.8434 35.1878C28.4132 34.9177 28.1113 34.4618 28.1113 33.9167Z" fill="#FF7F2E"/>
<path d="M12.9326 4.41699L13.7969 3.55275L15.5253 5.28123L14.6611 6.14548L12.9326 4.41699Z" fill="#A4AFC1"/>
<path d="M12.7158 10.25L14.4443 8.52152L15.3085 9.38576L13.5801 11.1142L12.7158 10.25Z" fill="#A4AFC1"/>
<path d="M17.6866 5.2832L19.4151 3.55472L20.2793 4.41896L18.5508 6.14744L17.6866 5.2832Z" fill="#A4AFC1"/>
<path d="M36.2025 39.4167C35.1917 39.4167 34.3691 38.5941 34.3691 37.5833C34.3691 36.5726 35.1917 35.75 36.2025 35.75C37.2133 35.75 38.0358 36.5726 38.0358 37.5833C38.0358 38.5941 37.2133 39.4167 36.2025 39.4167ZM36.2025 36.9722C35.8664 36.9722 35.5914 37.2472 35.5914 37.5833C35.5914 37.9195 35.8664 38.1945 36.2025 38.1945C36.5386 38.1945 36.8136 37.9195 36.8136 37.5833C36.8136 37.2472 36.5398 36.9722 36.2025 36.9722Z" fill="#A4AFC1"/>
<path d="M8.25 19.25H19.8611V21.0833H8.25V19.25Z" fill="black"/>
<path d="M15.9254 25.398L14.6299 24.1024L18.5654 20.1669L14.6299 16.2313L15.9267 14.9346L20.51 19.5179C20.8681 19.876 20.8681 20.4566 20.51 20.8147L15.9254 25.398Z" fill="black"/>
<path d="M26.8888 36.6672C25.5407 36.6672 24.4443 35.5708 24.4443 34.2227V12.2227C24.4443 11.179 25.1092 10.2452 26.0992 9.90295L33.4436 7.45362C35.1009 6.94762 36.6666 8.16984 36.6666 9.77828V31.7783C36.6666 32.8208 36.0029 33.7534 35.0129 34.0981L27.6673 36.5474C27.3984 36.6305 27.1503 36.6672 26.8888 36.6672ZM34.2221 9.16717C34.1439 9.16717 34.0754 9.17695 34.0009 9.19895L26.6896 11.6373C26.4524 11.7204 26.2777 11.9624 26.2777 12.2227V34.2227C26.2764 34.6383 26.7164 34.9182 27.11 34.8021L34.4213 32.3637C34.6584 32.2806 34.8332 32.0386 34.8332 31.7783V9.77828C34.8332 9.44217 34.5582 9.16717 34.2221 9.16717Z" fill="black"/>
<path d="M18.9445 12.5275H17.1112V10.6941C17.1112 8.84001 18.6182 7.33301 20.4723 7.33301H34.2223V9.16634H20.4723C19.6302 9.16634 18.9445 9.85201 18.9445 10.6941V12.5275Z" fill="black"/>
<path d="M25.3612 33.0001H20.4723C18.6182 33.0001 17.1112 31.4931 17.1112 29.639V27.8057H18.9445V29.639C18.9445 30.4811 19.6302 31.1668 20.4723 31.1668H25.3612V33.0001Z" fill="black"/>
</svg>
