<svg width="37" height="37" viewBox="0 0 37 37" fill="none" xmlns="http://www.w3.org/2000/svg">
<path d="M1.67884 4.41074C1.97654 2.81054 3.2497 1.56827 4.85577 1.30404C15.5218 -0.45072 22.2867 -0.413987 32.2433 1.29019C33.8326 1.56221 35.089 2.79446 35.3878 4.37893C37.4216 15.1661 37.2779 22.018 35.381 32.231C35.0848 33.8257 33.823 35.0699 32.2238 35.3407C21.9301 37.0835 15.1627 37.0123 4.87703 35.3282C3.26058 35.0636 1.98099 33.8093 1.68766 32.1978C-0.216114 21.7392 -0.267794 14.8746 1.67884 4.41074Z" fill="white"/>
<path fill-rule="evenodd" clip-rule="evenodd" d="M19.5775 21.1741C19.5775 21.1741 22.6138 12.9426 23.5309 10.4576C23.6067 10.2518 23.7449 10.074 23.9266 9.94841C24.1084 9.8228 24.325 9.75544 24.5469 9.75549H28.152C28.2589 9.75551 28.3634 9.78681 28.4523 9.84543C28.5412 9.90406 28.6105 9.98737 28.6514 10.0848C28.6924 10.1823 28.7031 10.2896 28.6822 10.393C28.6614 10.4965 28.6099 10.5916 28.5343 10.6662L27.2944 11.8895V24.6936L28.5343 25.9169C28.6099 25.9915 28.6614 26.0866 28.6822 26.19C28.7031 26.2935 28.6924 26.4008 28.6514 26.4982C28.6105 26.5957 28.5412 26.679 28.4523 26.7376C28.3634 26.7963 28.2589 26.8276 28.152 26.8276H22.1109C22.004 26.8276 21.8994 26.7963 21.8105 26.7376C21.7216 26.679 21.6523 26.5957 21.6114 26.4982C21.5705 26.4008 21.5598 26.2935 21.5806 26.19C21.6015 26.0866 21.653 25.9915 21.7286 25.9169L22.9685 24.6936V15.1012C22.9685 15.1012 19.6505 24.0955 18.8265 26.3298C18.7726 26.4757 18.6745 26.6017 18.5455 26.6908C18.4166 26.7798 18.263 26.8276 18.1057 26.8276H18.1051C17.9429 26.8277 17.7841 26.7816 17.6477 26.6949C17.5114 26.6083 17.4032 26.4847 17.3362 26.3389L12.1538 15.0905V22.5596C12.1538 22.5596 13.5554 24.7725 14.3405 26.0113C14.3917 26.0921 14.42 26.1849 14.4225 26.2801C14.4251 26.3753 14.4017 26.4694 14.3549 26.5527C14.3081 26.636 14.2396 26.7054 14.1564 26.7538C14.0733 26.8021 13.9785 26.8276 13.882 26.8276H8.90939C8.80897 26.8276 8.71053 26.8 8.62511 26.7479C8.53968 26.6958 8.47065 26.6213 8.42574 26.5327C8.38083 26.4441 8.36182 26.3449 8.37084 26.2462C8.37986 26.1475 8.41655 26.0532 8.4768 25.974C9.42363 24.7283 11.0723 22.5596 11.0723 22.5596V12.9565C11.0723 12.9565 9.90812 11.5785 9.10784 10.6304C9.04208 10.5525 9.00017 10.4578 8.98703 10.3572C8.97389 10.2567 8.99005 10.1545 9.03362 10.0627C9.0772 9.97093 9.14638 9.89327 9.23307 9.83886C9.31976 9.78444 9.42037 9.75552 9.52312 9.75549H13.6203C13.8279 9.75549 14.0312 9.81445 14.2058 9.92532C14.3804 10.0362 14.5189 10.1943 14.6049 10.3808C15.7048 12.7682 19.5775 21.1741 19.5775 21.1741Z" fill="#141414"/>
</svg>
