<svg width="45" height="44" viewBox="0 0 45 44" fill="none" xmlns="http://www.w3.org/2000/svg">
<path d="M34.0961 38.9073C25.642 38.9073 19.8364 43.2866 15.7628 43.2866C11.6891 43.2866 3.13354 40.9448 3.13354 22.2044C3.13354 3.46411 14.6432 0.712891 19.1239 0.712891C40.1058 0.712891 49.0683 38.9073 34.0961 38.9073Z" fill="#F5F8FB"/>
<path d="M37.6124 6.111C36.6016 6.111 35.7791 5.28845 35.7791 4.27767C35.7791 3.26689 36.6016 2.44434 37.6124 2.44434C38.6232 2.44434 39.4457 3.26689 39.4457 4.27767C39.4457 5.28845 38.6232 6.111 37.6124 6.111ZM37.6124 3.66656C37.2751 3.66656 37.0013 3.94034 37.0013 4.27767C37.0013 4.615 37.2751 4.88878 37.6124 4.88878C37.9497 4.88878 38.2235 4.615 38.2235 4.27767C38.2235 3.94034 37.9497 3.66656 37.6124 3.66656Z" fill="#A4AFC1"/>
<path d="M8.58472 25.667V28.7225C8.58472 29.3972 9.13227 29.9448 9.80694 29.9448H20.1714C20.1714 29.9448 19.8903 32.0837 18.3625 33.6114H26.2825C24.7731 32.102 24.4736 29.9448 24.4736 29.9448H34.8625C35.5372 29.9448 36.0847 29.3972 36.0847 28.7225V25.667H8.58472Z" fill="#FEB46D"/>
<path d="M36.0847 25.6666H8.58472V11.9166C8.58472 11.2419 9.13227 10.6943 9.80694 10.6943H34.8625C35.5372 10.6943 36.0847 11.2419 36.0847 11.9166V25.6666Z" fill="#F3F3F1"/>
<path d="M11.3347 28.7225V25.667H8.58472V28.7225C8.58472 29.3972 9.13227 29.9448 9.80694 29.9448H12.5569C11.8823 29.9448 11.3347 29.3972 11.3347 28.7225Z" fill="#FF6600"/>
<path d="M20.1714 29.9443C20.1714 29.9443 19.8903 32.0832 18.3625 33.611H21.1125C22.6403 32.0832 22.9214 29.9443 22.9214 29.9443H20.1714Z" fill="#FF6600"/>
<path d="M12.5569 10.6943H9.80694C9.13227 10.6943 8.58472 11.2419 8.58472 11.9166V25.6666H11.3347V11.9166C11.3347 11.2419 11.8823 10.6943 12.5569 10.6943Z" fill="#D5DBE1"/>
<path d="M28.706 34.6013L23.8025 29.3482C23.4737 28.9962 23.4737 28.4498 23.8025 28.0978L28.706 22.8447L30.0468 24.0951L25.7275 28.7224L30.0468 33.3509L28.706 34.6013Z" fill="black"/>
<path d="M24.4736 27.8057H37.0014V29.639H24.4736V27.8057Z" fill="black"/>
<path d="M20.9169 30.5551H9.80686C8.62741 30.5551 7.66797 29.5957 7.66797 28.4162V11.9162C7.66797 10.7368 8.62741 9.77734 9.80686 9.77734H34.8624C36.0419 9.77734 37.0013 10.7368 37.0013 11.9162V25.0551H35.168V11.9162C35.168 11.75 35.0286 11.6107 34.8624 11.6107H9.80686C9.64064 11.6107 9.5013 11.75 9.5013 11.9162V28.4162C9.5013 28.5825 9.64064 28.7218 9.80686 28.7218H20.9169V30.5551Z" fill="black"/>
<path d="M8.58472 24.4443H22.5914V26.2777H8.58472V24.4443Z" fill="black"/>
<path d="M23.7403 34.2224H18.3626C17.9922 34.2224 17.6573 33.9987 17.5156 33.6565C17.3738 33.3143 17.452 32.9195 17.7148 32.658C18.9871 31.3856 19.2609 29.5388 19.2633 29.5205L21.0808 29.7588C21.071 29.831 20.9011 31.0617 20.1714 32.3891H23.7403V34.2224Z" fill="black"/>
<path d="M21.8825 21.4003H16.5414C15.4757 21.4003 14.4771 20.9847 13.7279 20.2294C12.9811 19.4777 12.5741 18.4804 12.5814 17.4219C12.5668 16.383 12.975 15.3845 13.7303 14.6291C14.5064 13.8701 15.5025 13.457 16.5414 13.457H18.0081L18.057 15.2904H16.5414C15.9829 15.2904 15.4427 15.5189 15.0185 15.9333C14.6238 16.3293 14.4062 16.8573 14.4135 17.4158C14.4099 18.0013 14.6274 18.5366 15.0271 18.9387C15.4304 19.3445 15.967 19.5681 16.5402 19.5681H21.8813C22.6648 19.5681 23.3627 19.1611 23.7477 18.4804L23.8234 18.3337C23.9029 18.1626 23.9554 18.0013 23.9921 17.8253L24.1815 16.9281L25.9758 17.307L25.7863 18.2041C25.7191 18.5207 25.6225 18.8153 25.4991 19.078C25.449 19.1954 25.3867 19.3261 25.3109 19.4398C24.6399 20.6266 23.3138 21.4003 21.8825 21.4003Z" fill="black"/>
<path d="M28.1281 21.3751H26.6614V19.5418H28.1281C28.7013 19.5418 29.2379 19.3181 29.6412 18.9123C30.0409 18.5102 30.2584 17.9761 30.2548 17.4102C30.2584 16.8297 30.0409 16.2968 29.6424 15.8947C29.2391 15.4877 28.7013 15.2652 28.1293 15.2652H22.7882C22.2223 15.2652 21.6821 15.4889 21.2653 15.8959C21.1871 15.9741 21.1174 16.0572 21.0649 16.1367C21.0429 16.177 21.0184 16.2161 20.9915 16.2528C20.9121 16.3591 20.8559 16.4618 20.8155 16.573C20.8045 16.6182 20.7899 16.6622 20.774 16.7026C20.7312 16.804 20.7104 16.8749 20.7007 16.9458L20.5711 17.8539L18.7561 17.5948L18.8857 16.6879C18.915 16.485 18.9651 16.2968 19.047 16.0841C19.0494 16.0768 19.0507 16.0707 19.0531 16.0633C19.1497 15.7578 19.2914 15.4779 19.4845 15.209C19.4858 15.2066 19.4882 15.2029 19.4907 15.1992C19.619 14.9914 19.7828 14.7873 19.9771 14.5918C20.7434 13.8413 21.7395 13.4307 22.7882 13.4307H28.1293C29.1951 13.4307 30.1937 13.8462 30.9441 14.6016C31.6909 15.3532 32.0967 16.3506 32.0893 17.409C32.0967 18.454 31.6897 19.4513 30.9441 20.203C30.1924 20.9583 29.1939 21.3751 28.1281 21.3751Z" fill="black"/>
</svg>
