<svg width="49" height="49" viewBox="0 0 49 49" fill="none" xmlns="http://www.w3.org/2000/svg">
<path d="M43.5556 0H5.44444C2.45 0 0 2.45 0 5.44444V43.5556C0 46.55 2.45 49 5.44444 49H43.5556C46.55 49 49 46.55 49 43.5556V5.44444C49 2.45 46.55 0 43.5556 0ZM16.3333 38.1111H10.8889V32.6667H16.3333V38.1111ZM16.3333 27.2222H10.8889V21.7778H16.3333V27.2222ZM16.3333 16.3333H10.8889V10.8889H16.3333V16.3333ZM38.1111 38.1111H19.0556V32.6667H38.1111V38.1111ZM38.1111 27.2222H19.0556V21.7778H38.1111V27.2222ZM38.1111 16.3333H19.0556V10.8889H38.1111V16.3333Z" fill="#1843BF"/>
</svg>
