<svg width="643" height="113" viewBox="0 0 643 113" fill="none" xmlns="http://www.w3.org/2000/svg">
<g clip-path="url(#clip0_3494_7028)">
<path d="M0 47.058L33.4618 7.75834H61.7106L28.2488 47.058H0ZM21.4574 80.1199L70.3926 22.6344C73.9945 18.2044 78.0141 14.1244 82.397 10.4498C87.5336 6.21748 93.5508 3.16215 100.018 1.5024C108.422 -0.692984 117.283 -0.478566 125.569 2.12071C133.773 4.68188 140.933 9.78082 145.998 16.6694C152.433 25.6991 155.138 36.825 153.561 47.7673C152.834 53.1604 151.033 58.3568 148.264 63.0551C145.494 67.7534 141.81 71.8601 137.426 75.137C132.411 78.8184 126.608 81.3074 120.466 82.4113C116.994 83.1353 113.459 83.5251 109.912 83.5753H96.1085L71.1085 113H42.9515L82.9661 65.9349L86.2333 62.0796H104.827C111.362 62.0796 118.263 62.0795 123.917 58.4424H124.027C126.68 56.6265 128.86 54.2137 130.39 51.4019C131.921 48.59 132.757 45.4589 132.83 42.2653C132.904 39.0716 132.212 35.9061 130.813 33.0281C129.414 30.1501 127.346 27.6415 124.779 25.7078L124.504 25.5077L124.357 25.3986L124.155 25.2531C120.923 22.9987 117.093 21.7341 113.142 21.616H112.922C110.37 21.4991 107.814 21.7627 105.341 22.3979C101.882 23.3165 98.6685 24.9738 95.9249 27.2536C92.5861 30.114 89.5144 33.2668 86.7472 36.6739L49.5594 80.32L21.4574 80.1199Z" fill="#FF6600"/>
<path fill-rule="evenodd" clip-rule="evenodd" d="M374.764 58.2748C367.978 66.0248 354.653 64.0742 345.439 64.3026C339.272 64.3026 329.137 61.8247 330.519 53.934C330.519 53.4947 331.175 49.4703 331.192 49.1539H342.515C345.846 49.1539 344.907 50.1381 344.5 53.0202C344.181 56.3944 348.327 57.5894 351.091 57.5367C354.298 57.5367 358.569 57.9936 361.209 55.7793C361.762 55.3767 362.206 54.8456 362.503 54.2328V54.2328C362.892 53.7758 363.707 46.9396 363.867 46.2542V46.1664C363.548 39.8046 352.615 42.0365 348.487 41.6499C345.114 41.7208 341.769 41.0296 338.705 39.6289V39.6289C336.048 38.2933 333.39 35.7275 333.726 32.5993C333.726 32.4763 334.347 25.8158 334.347 25.7104C334.564 24.6576 334.99 23.6577 335.598 22.7681C336.206 21.8785 336.985 21.1166 337.89 20.5261V20.5261C344.712 14.9728 355.929 16.2556 364.168 16.1502C367.994 16.0253 371.778 16.9757 375.083 18.8917V18.8917C375.463 19.1427 375.83 19.4125 376.182 19.7001V19.7001C377 20.347 377.696 21.1323 378.237 22.0199V22.0199C378.703 22.7595 378.969 23.6056 379.009 24.4767C379.049 25.3477 378.863 26.2144 378.468 26.9933H367.039C364.629 26.9933 365.267 26.7121 364.08 25.025C363.387 24.2512 362.521 23.6482 361.553 23.2638C360.584 22.8795 359.538 22.7243 358.498 22.8107C355.273 22.7053 351.304 22.8107 349.089 25.4643C348.079 26.2376 348.008 28.8561 347.796 30.016C347.299 33.2847 350.347 34.2513 354.228 34.181C358.994 34.2864 366.277 33.6538 370.742 35.3936L371.274 35.5869C371.274 35.5869 375.969 37.8539 377.263 40.0858C379.035 42.4231 376.554 51.8603 376.448 54.8654C376.199 56.1607 375.62 57.3709 374.764 58.3802V58.2748ZM257.037 39.3653C256.048 39.7377 255.028 40.0258 253.989 40.2264V40.2264C249.099 41.4917 241.267 39.1192 239.158 45.1998C239.158 46.0609 237.953 53.4244 238.219 54.1273C238.928 56.8337 242.259 57.6421 244.775 57.6421C245.697 57.6421 250.959 57.6421 251.863 57.6421C253.069 57.5184 254.24 57.1727 255.318 56.6228C255.993 56.3082 256.596 55.8596 257.09 55.3048V55.3048C257.561 54.7797 257.874 54.1344 257.994 53.4419C258.118 52.4578 259.907 38.715 259.961 38.2757C259.11 38.3987 257.817 38.9962 257.037 39.2598V39.3653ZM275.678 25.4995L270.486 62.9494V63.5294C266.569 64.4411 262.525 64.6848 258.525 64.2499C257.143 64.0566 256.523 63.5996 256.984 61.5084C251.396 63.8648 245.317 64.8476 239.264 64.3729C235.748 64.4201 232.265 63.6813 229.076 62.2113V62.2113C226.418 60.9109 223.76 58.4154 224.15 55.1818C224.15 55.1818 225.798 44.6374 225.78 44.6374C225.839 44.089 225.952 43.5475 226.117 43.0207V43.0207C226.212 42.7134 226.33 42.4137 226.471 42.1244V42.1244C226.619 41.8188 226.791 41.5251 226.985 41.2457V41.2457C227.133 41.0265 227.293 40.8153 227.463 40.613C228.301 39.5776 229.3 38.6817 230.422 37.9594V37.9594C232.447 36.6505 234.683 35.6937 237.032 35.13C241.09 33.8998 249.559 34.4622 253.83 34.3392C255.952 34.3906 258.027 33.7209 259.713 32.4412V32.4412C260.288 32.0097 260.745 31.4416 261.042 30.7892V30.7892C261.307 29.8073 261.508 28.8093 261.644 27.8017V27.8017C261.698 27.3032 261.643 26.7991 261.484 26.3233C261.325 25.8474 261.066 25.4107 260.723 25.0426C258.454 22.4416 254.042 23.1094 250.959 23.0391C249.711 23.0325 248.473 23.259 247.309 23.707V23.707C244.102 24.7438 244.527 27.3448 241.32 27.0109H229.714V26.6945C229.758 26.1006 229.859 25.5122 230.015 24.9371V24.9371C230.862 22.8343 232.405 21.0802 234.392 19.9637C238.469 17.5137 243.163 16.2585 247.929 16.3435C252.412 16.5017 263.221 15.7987 267.42 17.1168C269.149 17.5526 270.795 18.2649 272.293 19.2256C274.031 20.2554 275.301 21.9113 275.837 23.8476V23.8476C275.869 24.3682 275.815 24.8905 275.678 25.3941V25.4995ZM571.024 39.3829C570.023 39.7369 568.998 40.0246 567.959 40.244V40.244C562.979 41.4917 555.218 39.1895 553.127 45.235C553.127 46.0961 551.94 53.4595 552.188 54.1449C552.915 56.8689 556.246 57.6597 558.744 57.6597C559.684 57.6597 564.946 57.6597 565.832 57.6597C567.067 57.5507 568.269 57.2108 569.376 56.658V56.658C570.046 56.3339 570.647 55.8866 571.148 55.3399V55.3399C571.62 54.8112 571.928 54.1581 572.034 53.4595C572.176 52.4754 573.948 38.7502 574.019 38.2933C573.079 38.3987 571.786 39.0138 571.024 39.2774V39.3829ZM589.665 25.4995L584.508 62.844V63.4415C580.59 64.3432 576.547 64.5868 572.548 64.162C571.148 63.9687 570.528 63.5118 570.989 61.4205C565.398 63.7663 559.32 64.7428 553.269 64.2675C549.748 64.3186 546.261 63.586 543.063 62.1234V62.1234C540.405 60.8054 537.747 58.3275 538.155 55.0939L539.785 44.5496C539.855 44.0014 539.973 43.4604 540.139 42.9328V42.9328C540.228 42.6234 540.347 42.3233 540.494 42.0365V42.0365C540.645 41.7268 540.816 41.4273 541.007 41.1402L541.486 40.49C542.341 39.4715 543.337 38.5781 544.445 37.8363V37.8363C546.48 36.5296 548.719 35.5675 551.072 34.9894V34.9894C555.13 33.7768 563.6 34.3216 567.87 34.2161C569.988 34.2456 572.057 33.5782 573.753 32.3181C574.311 31.8734 574.759 31.3085 575.064 30.6662V30.6662C575.346 29.6823 575.548 28.6773 575.666 27.6611V27.6611C575.718 27.1613 575.661 26.6565 575.499 26.1805C575.337 25.7046 575.074 25.2686 574.727 24.902C572.477 22.3186 568.065 22.9688 564.982 22.8986C563.732 22.8949 562.493 23.1276 561.332 23.584V23.584C558.124 24.6032 558.55 27.2042 555.325 26.8703H543.736V26.5539C543.789 25.961 543.889 25.3733 544.037 24.7965V24.7965C544.879 22.6907 546.424 20.9351 548.414 19.8231V19.8231C552.489 17.3651 557.183 16.1037 561.952 16.1853C566.417 16.3611 577.243 15.6406 581.443 16.9762C583.173 17.4078 584.82 18.1204 586.316 19.085V19.085C587.77 19.9848 588.914 21.3028 589.594 22.8634V22.8634C589.703 23.1348 589.781 23.4179 589.824 23.707C589.866 24.2742 589.812 24.8444 589.665 25.3941V25.4995ZM200.973 22.9161C196.88 22.9161 190.82 22.5119 189.827 27.4502L186.089 53.0905C186.035 53.44 186.035 53.7954 186.089 54.1449C186.201 54.6408 186.417 55.108 186.722 55.5165C187.027 55.925 187.415 56.2659 187.861 56.5174V56.5174C189.268 57.3063 190.87 57.6897 192.485 57.6245C195.675 57.6245 199.874 58.0639 202.514 55.8672C203.067 55.4646 203.511 54.9335 203.808 54.3206V54.3206C203.949 53.9985 204.056 53.6629 204.127 53.3189L207.866 27.6084V27.4151C208.185 23.707 203.773 22.8107 200.973 22.8107V22.9161ZM210.506 16.3962C212.887 16.6668 215.198 17.3634 217.328 18.4524V18.4524C218.032 18.834 218.702 19.275 219.33 19.7704V19.7704C219.871 20.2042 220.359 20.6997 220.783 21.2466C221.363 21.9725 221.769 22.8198 221.97 23.7245V23.7245C222.537 24.2693 217.806 54.8127 217.665 55.7968C217.524 56.2386 217.346 56.6678 217.133 57.0798V57.0798C214.847 60.8933 210.825 62.5101 206.732 63.5996C200.601 64.9704 190.288 65.0758 185.043 61.5611C185.043 62.1586 182.775 76.8503 182.633 77.8521C181.35 78.5114 179.938 78.8874 178.494 78.9541C177.051 79.0209 175.609 78.7768 174.27 78.2387V78.2387C170.194 76.4813 169.397 72.7732 169.964 68.2743L177.264 17.5034V16.9234C180.436 16.4376 183.641 16.1967 186.851 16.2029C189.172 16.3259 191.404 16.2029 191.015 19.2608C196.951 15.8514 203.95 15.746 210.506 16.2908V16.3962ZM514.765 22.9337C510.672 22.9337 504.63 22.5295 503.62 27.4678L499.881 53.1256C499.836 53.4698 499.836 53.8183 499.881 54.1625V54.1625C499.995 54.66 500.212 55.1288 500.517 55.54C500.821 55.9511 501.208 56.2957 501.653 56.5525V56.5525C503.065 57.3268 504.665 57.7035 506.277 57.6421C509.467 57.6421 513.684 58.099 516.307 55.8847C516.86 55.4757 517.304 54.9387 517.6 54.3206V54.3206C517.751 54.0024 517.859 53.6655 517.919 53.3189L521.658 27.6084V27.4151C521.977 23.7245 517.582 22.8283 514.765 22.8283V22.9337ZM524.298 16.4138C526.681 16.6828 528.994 17.3859 531.12 18.4875C531.824 18.8631 532.494 19.2983 533.122 19.788C533.668 20.2236 534.156 20.7255 534.575 21.2818V21.2818C535.153 22.0095 535.558 22.8562 535.762 23.7597V23.7597C536.329 24.3045 531.598 54.8479 531.457 55.8496C531.324 56.2884 531.146 56.7124 530.925 57.1149C528.639 60.9284 524.635 62.5452 520.524 63.6348C516.976 64.3591 513.348 64.6191 509.733 64.4081C505.906 64.5064 502.129 63.5318 498.835 61.5962C498.747 62.1762 496.567 76.8679 496.425 77.8872C495.141 78.5421 493.729 78.9156 492.286 78.9823C490.843 79.049 489.403 78.8074 488.062 78.2738V78.2738C483.987 76.5165 483.189 72.8259 483.756 68.3095L491.057 17.5561L491.145 16.9762C494.316 16.4845 497.521 16.2377 500.731 16.2381C503.053 16.3611 505.285 16.2381 504.895 19.3135C510.743 15.869 517.742 15.7811 524.263 16.3084L524.298 16.4138ZM604.354 64.1444C601.146 63.8396 598.083 62.673 595.494 60.7703V60.7703C594.949 60.341 594.461 59.845 594.041 59.2941V59.2941C593.461 58.5682 593.055 57.7208 592.854 56.8161V56.8161C592.163 57.2028 596.185 31.8964 596.132 31.4746C596.664 27.7314 597.674 20.8248 598.206 17.064C600.496 16.5202 602.854 16.313 605.205 16.4489V16.4489C606 16.4847 606.787 16.6266 607.544 16.8707V16.8707C607.859 16.9782 608.167 17.1074 608.465 17.2574V17.2574C608.984 17.5414 609.446 17.9165 609.829 18.3645V18.3645C610.03 18.5927 610.208 18.84 610.361 19.1026V19.1026C611.146 20.6514 611.353 22.4255 610.946 24.1112C609.865 33.7241 608.359 43.2843 606.977 52.8444C607.402 58.9777 617.36 58.1166 621.506 56.8688C622.618 56.4771 623.607 55.8048 624.377 54.9181V54.9181C624.821 54.3645 625.087 53.6908 625.139 52.985C626.769 41.8081 628.771 28.1883 630.366 17.1343C632.656 16.5895 635.014 16.3822 637.365 16.5193V16.5193C638.12 16.5771 638.865 16.7306 639.58 16.9762V16.9762C639.896 17.0837 640.204 17.2129 640.502 17.3628C641.02 17.6468 641.483 18.022 641.866 18.47V18.47C642.063 18.7013 642.241 18.9482 642.398 19.2081C643.153 20.7912 643.346 22.5809 642.947 24.2869L638.694 55.7266C638.231 60.6385 636.974 65.4447 634.973 69.9614C632.351 74.7766 626.787 76.991 621.648 78.0278C617.714 78.9768 612.221 78.5375 608.181 78.4672C606.055 78.3266 600.739 78.4672 598.702 78.0278C598.188 77.9399 597.709 77.8521 597.284 77.7466C595.036 77.3821 593.016 76.1726 591.643 74.3694C590.27 72.5662 589.651 70.3078 589.913 68.0634L601.838 68.1513C604.531 68.1513 602.99 68.9597 604.035 70.4886C606.835 73.0895 612.895 71.8242 616.226 71.2267C620.674 70.3129 623.314 65.5679 623.881 61.1745C621.781 62.2809 619.548 63.1194 617.236 63.67V63.67C612.979 64.3754 608.645 64.4995 604.354 64.039V64.1444ZM469.687 16.4665C470.717 16.5877 471.736 16.7874 472.735 17.064C473.818 17.3524 474.873 17.7346 475.889 18.2063V18.2063C476.423 18.455 476.939 18.7428 477.43 19.0675V19.0675C477.812 19.3155 478.179 19.5854 478.529 19.8759V19.8759L478.777 20.0867C479.202 20.5103 479.605 20.9561 479.982 21.4224C480.195 21.686 480.372 21.9847 480.549 22.2483C480.706 22.5188 480.842 22.8008 480.956 23.0919C481.064 23.3714 481.147 23.6595 481.205 23.953C481.267 24.242 481.303 24.5362 481.311 24.8317C479.628 38.1351 477.448 51.3858 475.605 64.6541C475.162 64.7947 474.666 64.9528 474.276 65.0407C472.748 65.4233 471.158 65.5009 469.598 65.2692C469 65.1712 468.408 65.0363 467.826 64.865V64.865C466.982 64.5742 466.191 64.1466 465.487 63.5996C464.95 63.1719 464.479 62.6686 464.088 62.1059V62.1059C463.886 61.8221 463.708 61.5223 463.556 61.2096V61.2096C462.92 59.7802 462.735 58.1936 463.024 56.658V56.658C464.395 47.0978 465.777 37.5376 467.171 27.9774C467.163 27.9428 467.163 27.9066 467.171 27.872V27.872C467.207 27.5449 467.207 27.2149 467.171 26.8878C467.017 26.2311 466.693 25.6255 466.232 25.1304V25.1304C465.734 24.5844 465.132 24.1423 464.46 23.83C464.075 23.6416 463.671 23.4944 463.255 23.3906V23.3906C461.593 23.0391 459.88 23.0033 458.205 23.2852V23.2852C457.379 23.4425 456.571 23.684 455.795 24.0057C454.799 24.4185 453.935 25.0929 453.297 25.9564C450.497 38.5042 449.611 51.6846 447.502 64.4608H433.664C435.435 52.2997 437.101 40.1561 438.873 28.0126C438.918 27.6801 438.918 27.3433 438.873 27.0109C438.816 26.6826 438.715 26.3634 438.572 26.0619C438.251 25.4334 437.776 24.8954 437.19 24.4978C436.893 24.276 436.572 24.0874 436.233 23.9354C435.086 23.4255 433.839 23.1734 432.583 23.1973C431.247 23.0373 429.892 23.1751 428.617 23.6008C427.341 24.0264 426.178 24.7292 425.211 25.6577V25.6577C422.11 38.1351 421.668 51.5088 419.399 64.3202H405.118C407.409 48.5388 409.689 32.7634 411.957 16.9938C415.578 16.5546 419.232 16.4487 422.872 16.6774C424.52 16.8356 425.832 17.3452 426.275 19.085C427.421 18.4947 428.605 17.9781 429.818 17.5385C430.676 17.2393 431.552 16.9928 432.441 16.8004C435.614 16.1134 438.888 16.0121 442.098 16.5017C442.683 16.5895 443.285 16.7126 443.87 16.8532C444.455 16.9938 445.022 17.187 445.553 17.3804C446.085 17.5737 446.616 17.7846 447.095 17.9955C448.73 18.7406 450.214 19.777 451.471 21.0533C454.158 18.9395 457.308 17.4826 460.668 16.8004C462.56 16.3965 464.491 16.1961 466.427 16.2029C467.533 16.1826 468.64 16.2354 469.74 16.3611L469.687 16.4665ZM391.385 16.4665C393.137 16.1436 394.923 16.0433 396.701 16.1678V16.1678C397.455 16.2349 398.198 16.3882 398.916 16.6247V16.6247C399.235 16.7302 399.544 16.8655 399.837 17.0289C400.359 17.3011 400.822 17.6711 401.202 18.1185V18.1185C401.399 18.3499 401.576 18.5967 401.733 18.8566V18.8566C401.89 19.1333 402.026 19.4211 402.141 19.7177V19.7177C403.47 23.0743 400.032 38.7151 399.855 42.4759L396.914 63.6524L396.807 64.3202H382.88L383.004 63.4415L386.406 39.6992L389.631 17.3276V16.7829L391.385 16.4665ZM322.28 58.3802C315.475 66.1479 302.168 64.1796 292.936 64.4081C286.788 64.4081 276.635 61.9477 278.034 54.0395C278.034 53.6001 278.672 49.5757 278.69 49.2594H290.013C293.344 49.2594 292.405 50.2435 292.015 53.108C291.678 56.4998 295.842 57.6948 298.607 57.6421C301.796 57.6421 306.066 58.099 308.724 55.8847C309.267 55.4721 309.709 54.9435 310.018 54.3382V54.3382C310.408 53.8813 311.223 47.0451 311.382 46.3597V46.2718C310.992 39.8749 300.166 42.1595 295.984 41.7553C292.611 41.8262 289.267 41.1351 286.203 39.7343C283.545 38.3811 280.887 35.8154 281.242 32.7048C281.242 32.5818 281.844 25.9388 281.844 25.8158C282.062 24.763 282.487 23.7632 283.095 22.8736C283.703 21.984 284.482 21.2221 285.388 20.6315V20.6315C289.666 17.6649 294.788 16.1317 300.006 16.2556C306.616 16.5017 316.84 15.0606 322.581 19.0147C322.971 19.2608 323.36 19.542 323.697 19.8056C324.513 20.4562 325.204 21.2481 325.735 22.1429V22.1429C326.199 22.8796 326.465 23.7215 326.508 24.5888C326.552 25.4562 326.371 26.3201 325.983 27.0987H314.554C312.144 27.0987 312.693 26.8175 311.595 25.1304C310.897 24.3574 310.029 23.7552 309.057 23.371C308.086 22.9868 307.038 22.8311 305.996 22.9161C302.788 22.8107 298.801 22.9161 296.604 25.5698C295.594 26.3606 295.523 28.9615 295.311 30.1214C294.815 33.3902 297.862 34.3567 301.743 34.2864C306.509 34.3919 313.792 33.7592 318.275 35.499L318.789 35.6924C321.242 36.5032 323.351 38.1057 324.778 40.244V40.244C326.55 42.5813 324.052 52.0009 323.945 55.006C323.66 56.2098 323.082 57.326 322.262 58.2572L322.28 58.3802Z" fill="#000099"/>
<path fill-rule="evenodd" clip-rule="evenodd" d="M404.179 9.63048H390.357L391.74 0H405.525L404.179 9.63048Z" fill="#FF6600"/>
<path d="M183.864 93.36V109.44H180.432V96.672H172.992V109.44H169.584V93.36H183.864Z" fill="#1A75E2"/>
<path d="M195.085 93.36C196.669 93.36 197.997 93.888 199.069 94.944C200.141 95.984 200.677 97.296 200.677 98.88C200.677 100.496 200.133 101.824 199.045 102.864C197.973 103.888 196.653 104.4 195.085 104.4H190.429V109.44H187.021V93.36H195.085ZM190.429 101.16H194.821C195.509 101.16 196.077 100.952 196.525 100.536C196.989 100.12 197.221 99.568 197.221 98.88C197.221 98.24 196.989 97.712 196.525 97.296C196.061 96.88 195.493 96.672 194.821 96.672H190.429V101.16Z" fill="#1A75E2"/>
<path d="M216.618 107.376C215.066 108.976 213.026 109.776 210.498 109.776C207.97 109.776 205.922 108.976 204.354 107.376C202.802 105.76 202.026 103.776 202.026 101.424C202.026 99.072 202.81 97.08 204.378 95.448C205.946 93.816 207.986 93 210.498 93C213.01 93 215.05 93.816 216.618 95.448C218.186 97.08 218.97 99.072 218.97 101.424C218.97 103.776 218.186 105.76 216.618 107.376ZM206.874 104.976C207.786 105.952 208.994 106.44 210.498 106.44C212.002 106.44 213.21 105.952 214.122 104.976C215.034 104 215.49 102.808 215.49 101.4C215.49 99.992 215.034 98.8 214.122 97.824C213.21 96.848 212.002 96.36 210.498 96.36C208.994 96.36 207.786 96.848 206.874 97.824C205.962 98.8 205.506 99.992 205.506 101.4C205.506 102.792 205.962 103.984 206.874 104.976Z" fill="#1A75E2"/>
<path d="M233.407 102.936H236.935C236.679 104.92 235.807 106.56 234.319 107.856C232.847 109.136 231.007 109.776 228.799 109.776C226.335 109.776 224.335 108.976 222.799 107.376C221.263 105.76 220.495 103.776 220.495 101.424C220.495 99.056 221.263 97.064 222.799 95.448C224.335 93.816 226.335 93 228.799 93C230.943 93 232.751 93.632 234.223 94.896C235.711 96.16 236.599 97.76 236.887 99.696H233.335C233.063 98.688 232.519 97.88 231.703 97.272C230.903 96.648 229.927 96.344 228.775 96.36C227.335 96.376 226.175 96.872 225.295 97.848C224.415 98.808 223.975 99.992 223.975 101.4C223.975 102.808 224.415 104 225.295 104.976C226.175 105.952 227.351 106.44 228.823 106.44C229.991 106.44 230.983 106.12 231.799 105.48C232.631 104.84 233.167 103.992 233.407 102.936Z" fill="#1A75E2"/>
<path d="M237.202 93.36H251.41V96.672H246.01V109.44H242.578V96.672H237.202V93.36Z" fill="#1A75E2"/>
<path d="M266.329 107.376C264.777 108.976 262.737 109.776 260.209 109.776C257.681 109.776 255.633 108.976 254.065 107.376C252.513 105.76 251.737 103.776 251.737 101.424C251.737 99.072 252.521 97.08 254.089 95.448C255.657 93.816 257.697 93 260.209 93C262.721 93 264.761 93.816 266.329 95.448C267.897 97.08 268.681 99.072 268.681 101.424C268.681 103.776 267.897 105.76 266.329 107.376ZM256.585 104.976C257.497 105.952 258.705 106.44 260.209 106.44C261.713 106.44 262.921 105.952 263.833 104.976C264.745 104 265.201 102.808 265.201 101.4C265.201 99.992 264.745 98.8 263.833 97.824C262.921 96.848 261.713 96.36 260.209 96.36C258.705 96.36 257.497 96.848 256.585 97.824C255.673 98.8 255.217 99.992 255.217 101.4C255.217 102.792 255.673 103.984 256.585 104.976Z" fill="#1A75E2"/>
<path d="M270.829 105.84H274.309L271.957 112.752H269.053L270.829 105.84Z" fill="#1A75E2"/>
<path d="M289.705 102.528L293.305 93.336H296.809L291.697 106.128C290.849 108.336 289.449 109.44 287.497 109.44H283.537V106.152H287.425C287.633 106.152 287.801 106.12 287.929 106.056L281.329 93.36H285.169L289.705 102.528Z" fill="#1A75E2"/>
<path d="M311.314 93.36V106.128H313.45V112.776H310.21V109.44H299.362V112.776H296.098V106.128H296.578C296.866 106.112 297.09 106.088 297.25 106.056C297.41 106.024 297.602 105.872 297.826 105.6C298.066 105.328 298.234 104.928 298.33 104.4C298.41 103.952 298.474 103.184 298.522 102.096C298.57 101.008 298.594 100.008 298.594 99.096C298.61 98.184 298.618 97.056 298.618 95.712C298.634 94.368 298.642 93.584 298.642 93.36H311.314ZM301.306 106.128H307.906V96.672H301.954C301.89 101.104 301.77 103.84 301.594 104.88C301.514 105.36 301.418 105.776 301.306 106.128Z" fill="#1A75E2"/>
<path d="M328.65 107.376C327.098 108.976 325.058 109.776 322.53 109.776C320.002 109.776 317.954 108.976 316.386 107.376C314.834 105.76 314.058 103.776 314.058 101.424C314.058 99.072 314.842 97.08 316.41 95.448C317.978 93.816 320.018 93 322.53 93C325.042 93 327.082 93.816 328.65 95.448C330.218 97.08 331.002 99.072 331.002 101.424C331.002 103.776 330.218 105.76 328.65 107.376ZM318.906 104.976C319.818 105.952 321.026 106.44 322.53 106.44C324.034 106.44 325.242 105.952 326.154 104.976C327.066 104 327.522 102.808 327.522 101.4C327.522 99.992 327.066 98.8 326.154 97.824C325.242 96.848 324.034 96.36 322.53 96.36C321.026 96.36 319.818 96.848 318.906 97.824C317.994 98.8 317.538 99.992 317.538 101.4C317.538 102.792 317.994 103.984 318.906 104.976Z" fill="#1A75E2"/>
<path d="M336.375 99.192H341.007C342.687 99.176 343.999 99.664 344.943 100.656C345.903 101.632 346.383 102.824 346.383 104.232C346.383 105.656 345.895 106.88 344.919 107.904C343.959 108.928 342.655 109.44 341.007 109.44H332.967V93.36H344.943V96.672H336.375V99.192ZM336.375 106.128H340.671C341.343 106.128 341.879 105.944 342.279 105.576C342.695 105.192 342.903 104.728 342.903 104.184C342.903 103.64 342.703 103.184 342.303 102.816C341.903 102.432 341.359 102.24 340.671 102.24H336.375V106.128Z" fill="#1A75E2"/>
<path d="M359.497 99.576V93.36H362.929V109.44H359.497V102.888H351.937V109.44H348.529V93.36H351.937V99.576H359.497Z" fill="#1A75E2"/>
<path d="M379.65 107.376C378.098 108.976 376.058 109.776 373.53 109.776C371.002 109.776 368.954 108.976 367.386 107.376C365.834 105.76 365.058 103.776 365.058 101.424C365.058 99.072 365.842 97.08 367.41 95.448C368.978 93.816 371.018 93 373.53 93C376.042 93 378.082 93.816 379.65 95.448C381.218 97.08 382.002 99.072 382.002 101.424C382.002 103.776 381.218 105.76 379.65 107.376ZM369.906 104.976C370.818 105.952 372.026 106.44 373.53 106.44C375.034 106.44 376.242 105.952 377.154 104.976C378.066 104 378.522 102.808 378.522 101.4C378.522 99.992 378.066 98.8 377.154 97.824C376.242 96.848 375.034 96.36 373.53 96.36C372.026 96.36 370.818 96.848 369.906 97.824C368.994 98.8 368.538 99.992 368.538 101.4C368.538 102.792 368.994 103.984 369.906 104.976Z" fill="#1A75E2"/>
<path d="M384.149 105.84H387.629L385.277 112.752H382.373L384.149 105.84Z" fill="#1A75E2"/>
<path d="M406.841 99.576V93.36H410.273V109.44H406.841V102.888H399.281V109.44H395.873V93.36H399.281V99.576H406.841Z" fill="#1A75E2"/>
<path d="M428.846 109.44H424.982L423.638 106.032H416.894L415.574 109.44H411.83L418.43 93.36H422.222L428.846 109.44ZM420.254 97.464L418.07 103.032H422.438L420.254 97.464Z" fill="#1A75E2"/>
<path d="M444.978 93.36V106.128H447.114V112.776H443.874V109.44H433.026V112.776H429.762V106.128H430.242C430.53 106.112 430.754 106.088 430.914 106.056C431.074 106.024 431.266 105.872 431.49 105.6C431.73 105.328 431.898 104.928 431.994 104.4C432.074 103.952 432.138 103.184 432.186 102.096C432.234 101.008 432.258 100.008 432.258 99.096C432.274 98.184 432.282 97.056 432.282 95.712C432.298 94.368 432.306 93.584 432.306 93.36H444.978ZM434.97 106.128H441.57V96.672H435.618C435.554 101.104 435.434 103.84 435.258 104.88C435.178 105.36 435.082 105.776 434.97 106.128Z" fill="#1A75E2"/>
<path d="M461.365 109.44H449.053V93.36H461.365V96.672H452.461V99.672H460.333V102.84H452.461V106.128H461.365V109.44Z" fill="#1A75E2"/>
<path d="M481.192 99.696H481.216C483.44 99.696 484.552 100.856 484.552 103.176V109.44H481.144V103.872C481.144 103.232 480.816 102.912 480.16 102.912H475.84V109.44H472.408V102.912H468.088C467.432 102.912 467.104 103.232 467.104 103.872V109.44H463.696V103.176C463.696 100.856 464.808 99.696 467.032 99.696H467.056L463.192 93.36H466.936L470.752 99.696H472.408V93.36H475.84V99.696H477.496L481.312 93.36H485.056L481.192 99.696Z" fill="#1A75E2"/>
<path d="M498.458 99.576V93.36H501.89V109.44H498.458V102.888H490.898V109.44H487.49V93.36H490.898V99.576H498.458Z" fill="#1A75E2"/>
<path d="M518.611 107.376C517.059 108.976 515.019 109.776 512.491 109.776C509.963 109.776 507.915 108.976 506.347 107.376C504.795 105.76 504.019 103.776 504.019 101.424C504.019 99.072 504.803 97.08 506.371 95.448C507.939 93.816 509.979 93 512.491 93C515.003 93 517.043 93.816 518.611 95.448C520.179 97.08 520.963 99.072 520.963 101.424C520.963 103.776 520.179 105.76 518.611 107.376ZM508.867 104.976C509.779 105.952 510.987 106.44 512.491 106.44C513.995 106.44 515.203 105.952 516.115 104.976C517.027 104 517.483 102.808 517.483 101.4C517.483 99.992 517.027 98.8 516.115 97.824C515.203 96.848 513.995 96.36 512.491 96.36C510.987 96.36 509.779 96.848 508.867 97.824C507.955 98.8 507.499 99.992 507.499 101.4C507.499 102.792 507.955 103.984 508.867 104.976Z" fill="#1A75E2"/>
</g>
<defs>
<clipPath id="clip0_3494_7028">
<rect width="643" height="113" fill="white"/>
</clipPath>
</defs>
</svg>
