<svg width="27" height="23" viewBox="0 0 27 23" fill="none" xmlns="http://www.w3.org/2000/svg">
<path d="M18.1451 0H2.96755C1.33104 0 0 1.33104 0 2.96755V16.2677C0 16.8976 0.712367 17.2527 1.21521 16.8935L5.44205 13.8778C5.79673 13.6251 6.21393 13.4914 6.64958 13.4914H15.9464C17.5829 13.4914 18.9139 12.1603 18.9139 10.5238V0.768797C18.9139 0.344421 18.5695 0 18.1451 0V0ZM14.4108 9.3132H5.52816C5.10378 9.3132 4.75936 8.96929 4.75936 8.5444C4.75936 8.12003 5.10378 7.77561 5.52816 7.77561H14.4108C14.8352 7.77561 15.1796 8.12003 15.1796 8.5444C15.1796 8.96929 14.8352 9.3132 14.4108 9.3132ZM14.4108 5.72548H5.52816C5.10378 5.72548 4.75936 5.38158 4.75936 4.95669C4.75936 4.53231 5.10378 4.18789 5.52816 4.18789H14.4108C14.8352 4.18789 15.1796 4.53231 15.1796 4.95669C15.1796 5.38158 14.8352 5.72548 14.4108 5.72548Z" fill="#9FA8B1"/>
<path d="M26.2401 8.92998V22.2296C26.2401 22.8553 25.5313 23.2172 25.0249 22.8554L20.7981 19.8402C20.4434 19.5876 20.0262 19.4538 19.5905 19.4538H10.2937C8.65721 19.4538 7.32617 18.1222 7.32617 16.4857V15.0281H15.9449C18.4291 15.0281 20.45 13.0072 20.45 10.5229V5.96191H23.2725C24.9091 5.96191 26.2401 7.29347 26.2401 8.92998V8.92998Z" fill="#9FA8B1"/>
</svg>
