<svg width="25" height="25" viewBox="0 0 25 25" fill="none" xmlns="http://www.w3.org/2000/svg">
<g clip-path="url(#clip0_1362_47705)">
<path d="M25 12.5C25 5.59648 19.4035 -2.4463e-07 12.5 -5.46392e-07C5.59647 -8.48155e-07 -2.4463e-07 5.59647 -5.46392e-07 12.5C-8.48155e-07 19.4035 5.59647 25 12.5 25C19.4035 25 25 19.4035 25 12.5ZM20.8333 12.5C20.8296 12.6502 20.8033 12.793 20.653 12.9407L15.5248 18.3894C15.2895 18.6411 14.8663 18.6574 14.6134 18.4095C14.3742 18.1741 14.363 17.7521 14.5933 17.508L18.71 13.141L4.80775 13.141C4.45343 13.141 4.16673 12.8543 4.16673 12.5C4.16673 12.1457 4.45344 11.859 4.80775 11.859L18.71 11.859L14.5933 7.49199C14.363 7.24785 14.3642 6.80465 14.6134 6.58051C14.8926 6.32886 15.2857 6.36266 15.5248 6.61056L20.653 12.0593C20.7444 12.1544 20.8333 12.3522 20.8333 12.5L20.8333 12.5Z" fill="#9FA8B1"/>
</g>
<defs>
<clipPath id="clip0_1362_47705">
<rect width="25" height="25" fill="white" transform="translate(25) rotate(90)"/>
</clipPath>
</defs>
</svg>
