<svg width="44" height="44" viewBox="0 0 44 44" fill="none" xmlns="http://www.w3.org/2000/svg">
<path d="M10.2386 38.9073C18.6927 38.9073 24.4982 43.2866 28.5719 43.2866C32.6456 43.2866 41.2011 40.9448 41.2011 22.2044C41.2011 3.46411 29.6915 0.712891 25.2108 0.712891C4.2289 0.712891 -4.73366 38.9073 10.2386 38.9073Z" fill="white"/>
<path d="M21.9999 34.5282C28.9188 34.5282 34.5277 28.9193 34.5277 22.0004C34.5277 15.0815 28.9188 9.47266 21.9999 9.47266C15.081 9.47266 9.47217 15.0815 9.47217 22.0004C9.47217 28.9193 15.081 34.5282 21.9999 34.5282Z" fill="#FEB46D"/>
<path d="M12.2222 22.0004C12.2222 15.5471 17.1037 10.2365 23.3749 9.5521C22.9227 9.50199 22.4656 9.47266 21.9999 9.47266C15.0809 9.47266 9.47217 15.0814 9.47217 22.0004C9.47217 28.9194 15.0809 34.5282 21.9999 34.5282C22.4656 34.5282 22.9227 34.4989 23.3749 34.4488C17.1037 33.7643 12.2222 28.4538 12.2222 22.0004Z" fill="#FF6600"/>
<path d="M2.44446 21.2363H4.8889V22.4586H2.44446V21.2363Z" fill="#A4AFC1"/>
<path d="M6.41663 24.291H7.63885V26.7355H6.41663V24.291Z" fill="#A4AFC1"/>
<path d="M6.41663 17.2637H7.63885V19.7081H6.41663V17.2637Z" fill="#A4AFC1"/>
<path d="M8.25 21.083H25.9722V22.9163H8.25V21.083Z" fill="black"/>
<path d="M21.7311 27.5365L20.4355 26.2409L24.6767 21.9998L20.4355 17.7587L21.7323 16.4619L26.6212 21.3508C26.9793 21.7089 26.9793 22.2895 26.6212 22.6476L21.7311 27.5365Z" fill="black"/>
<path d="M22 35.4446C16.4377 35.4446 11.5268 32.0981 9.48694 26.9183L11.1932 26.2473C12.9544 30.7207 17.1967 33.6112 22 33.6112C28.4021 33.6112 33.6112 28.4021 33.6112 22.0001C33.6112 15.5981 28.4021 10.389 22 10.389C17.1967 10.389 12.9544 13.2796 11.1932 17.7517L9.48694 17.0807C11.5268 11.9021 16.4377 8.55566 22 8.55566C29.4128 8.55566 35.4445 14.5873 35.4445 22.0001C35.4445 29.4129 29.4128 35.4446 22 35.4446Z" fill="black"/>
</svg>
