<svg width="44" height="44" viewBox="0 0 44 44" fill="none" xmlns="http://www.w3.org/2000/svg">
<path d="M10.2386 38.9073C18.6927 38.9073 24.4982 43.2866 28.5719 43.2866C32.6456 43.2866 41.2011 40.9448 41.2011 22.2044C41.2011 3.46411 29.6915 0.712891 25.2108 0.712891C4.2289 0.712891 -4.73366 38.9073 10.2386 38.9073Z" fill="white"/>
<path d="M8.52075 4.05859L10.2492 2.33011L11.1135 3.19435L9.38499 4.92284L8.52075 4.05859Z" fill="#A4AFC1"/>
<path d="M3.55115 9.02734L5.27963 7.29886L6.14387 8.1631L4.41539 9.89159L3.55115 9.02734Z" fill="#A4AFC1"/>
<path d="M3.76807 3.19434L4.63231 2.33009L6.36079 4.05858L5.49655 4.92282L3.76807 3.19434Z" fill="#A4AFC1"/>
<path d="M34.5278 30.8609H9.47222C8.79756 30.8609 8.25 30.3133 8.25 29.6387V14.3609C8.25 13.6862 8.79756 13.1387 9.47222 13.1387H34.5278C35.2024 13.1387 35.75 13.6862 35.75 14.3609V29.6387C35.75 30.3133 35.2024 30.8609 34.5278 30.8609Z" fill="#F3F3F1"/>
<path d="M11 29.6387V14.3609C11 13.6862 11.5476 13.1387 12.2222 13.1387H9.47222C8.79756 13.1387 8.25 13.6862 8.25 14.3609V29.6387C8.25 30.3133 8.79756 30.8609 9.47222 30.8609H12.2222C11.5476 30.8609 11 30.3133 11 29.6387Z" fill="#D5DBE1"/>
<path d="M34.5278 31.7782H9.47226C8.29282 31.7782 7.33337 30.8188 7.33337 29.6393V14.3615C7.33337 13.1821 8.29282 12.2227 9.47226 12.2227H11V14.056H9.47226C9.30604 14.056 9.16671 14.1953 9.16671 14.3615V29.6393C9.16671 29.8055 9.30604 29.9449 9.47226 29.9449H34.5278C34.694 29.9449 34.8334 29.8055 34.8334 29.6393V14.3615C34.8334 14.1953 34.694 14.056 34.5278 14.056H30.5556V12.2227H34.5278C35.7073 12.2227 36.6667 13.1821 36.6667 14.3615V29.6393C36.6667 30.8188 35.7073 31.7782 34.5278 31.7782Z" fill="black"/>
<path d="M21.0834 30.8613H22.9167V35.7502H21.0834V30.8613Z" fill="black"/>
<path d="M21.6847 18.8225C20.7008 18.8225 19.723 18.4412 18.975 17.6907L15.1775 13.8701C14.4552 13.1551 14.0555 12.192 14.0555 11.1641C14.0555 10.1362 14.4552 9.17308 15.1824 8.45197C16.5794 7.02197 19.1375 7.00364 20.5883 8.45564L21.2398 9.10953L19.9405 10.4039L19.2891 9.74997C18.5399 8.9983 17.2089 8.99953 16.4829 9.74386C16.0967 10.1276 15.8889 10.6287 15.8889 11.1641C15.8889 11.6994 16.0967 12.2005 16.4743 12.5745L20.2754 16.3989C21.0014 17.1285 22.1479 17.1872 22.9448 16.5333L24.1071 17.9511C23.397 18.5341 22.539 18.8225 21.6847 18.8225Z" fill="black"/>
<path d="M26.1165 23.2224C25.0898 23.2224 24.1279 22.8215 23.4081 22.0906L22.7823 21.4624L24.0815 20.1681L24.7109 20.8C25.4626 21.5614 26.7741 21.5577 27.5196 20.8036C27.9034 20.4223 28.1112 19.9212 28.1112 19.3858C28.1112 18.8505 27.9034 18.3494 27.5257 17.9754L23.7246 14.1511C23.0231 13.4471 21.8082 13.3921 21.0589 14.013L19.8893 12.6025C21.3401 11.4011 23.6769 11.5074 25.0238 12.8592L28.8213 16.6798C29.5436 17.3961 29.9433 18.3592 29.9433 19.3871C29.9433 20.415 29.5436 21.3781 28.8164 22.0992C28.1051 22.8215 27.1432 23.2224 26.1165 23.2224Z" fill="black"/>
<path d="M15.8889 34.833H28.1111V36.6663H15.8889V34.833Z" fill="black"/>
</svg>
