<svg width="50" height="50" viewBox="0 0 50 50" fill="none" xmlns="http://www.w3.org/2000/svg">
<path d="M48.4776 28.2708C43.2248 20.2278 43.7832 11.9833 41.2512 8.10695C38.7193 4.23056 31.1734 -2.45277 13.3443 9.19306C-4.48489 20.8389 0.0498306 33.4986 2.83594 37.7611C15.8748 57.7222 57.7818 42.5153 48.4776 28.2708Z" fill="#D9E3EE"/>
<path d="M41.7529 25.607H43.1418V28.3847H41.7529V25.607Z" fill="#A4AFC1"/>
<path d="M41.7529 33.5931H43.1418V36.3709H41.7529V33.5931Z" fill="#A4AFC1"/>
<path d="M36.8916 30.1208H39.6694V31.5097H36.8916V30.1208Z" fill="#A4AFC1"/>
<path d="M44.8779 30.1208H47.6557V31.5097H44.8779V30.1208Z" fill="#A4AFC1"/>
<path d="M31.9445 21.1806C31.6695 21.1806 31.4028 21.0709 31.2084 20.875L28.7778 18.4445L30.2514 16.9709L31.8876 18.6056L35.3223 14.5986L36.9042 15.9556L32.7376 20.8167C32.5487 21.0361 32.2764 21.1681 31.9862 21.1792C31.9709 21.1806 31.957 21.1806 31.9445 21.1806Z" fill="black"/>
<path d="M18.0552 36.4583C18.0552 38.7639 19.9163 40.625 22.2218 40.625C24.5274 40.625 26.3885 38.7639 26.3885 36.4583H18.0552Z" fill="#FEB46D"/>
<path d="M30.9028 22.2222V26.0945C30.9028 29.1445 32.2458 32.0389 34.575 34.007L34.5764 34.0084L34.5833 34.0139C34.875 34.2639 35.0695 34.6389 35.0695 35.0695C35.0695 35.8334 34.4445 36.4584 33.6806 36.4584H22.5694H10.7639C10 36.4584 9.375 35.8334 9.375 35.0695C9.375 34.6389 9.56944 34.2639 9.86111 34.0139L9.86806 34.0084L9.86944 34.007C12.1986 32.0389 13.5417 29.1431 13.5417 26.0945V22.2222C13.5417 17.4278 17.4278 13.5417 22.2222 13.5417C27.0167 13.5417 30.9028 17.4278 30.9028 22.2222Z" fill="#F3F3F1"/>
<path d="M12.5 35.0695C12.5 34.6389 12.6944 34.2639 12.9861 34.0139L12.9931 34.0084L12.9944 34.007C15.3236 32.0389 16.6667 29.1431 16.6667 26.0945V22.2222C16.6667 17.9625 19.7375 14.4264 23.7847 13.6889C23.2778 13.5972 22.7569 13.5417 22.2222 13.5417C17.4278 13.5417 13.5417 17.4278 13.5417 22.2222V26.0945C13.5417 29.1445 12.1986 32.0389 9.86944 34.007L9.86806 34.0084L9.86111 34.0139C9.56944 34.2639 9.375 34.6389 9.375 35.0695C9.375 35.8334 10 36.4584 10.7639 36.4584H13.8889C13.125 36.4584 12.5 35.8334 12.5 35.0695Z" fill="#D5DBE1"/>
<path d="M22.222 41.6667C19.3512 41.6667 17.0137 39.3306 17.0137 36.4583H19.097C19.097 38.182 20.4998 39.5833 22.222 39.5833C23.9442 39.5833 25.347 38.182 25.347 36.4583H27.4303C27.4303 39.3306 25.0928 41.6667 22.222 41.6667Z" fill="black"/>
<path d="M33.6802 37.5H10.7636C9.42329 37.5 8.33301 36.4097 8.33301 35.0694C8.33301 34.3583 8.64412 33.6861 9.1844 33.2222C9.21773 33.193 9.25384 33.1667 9.28995 33.1417C11.3316 31.3625 12.4997 28.8014 12.4997 26.0972V22.2222C12.4997 17.6986 15.565 13.8153 19.9538 12.7778L20.4344 14.8055C16.9886 15.6194 14.583 18.6694 14.583 22.2222V26.0972C14.583 29.4542 13.1122 32.6292 10.5497 34.8069C10.5316 34.8222 10.5136 34.8375 10.4927 34.8528C10.4538 34.9 10.4163 34.9722 10.4163 35.0694C10.4163 35.2583 10.5747 35.4167 10.7636 35.4167H33.6802C33.8691 35.4167 34.0275 35.2583 34.0275 35.0694C34.0275 34.9708 33.99 34.8986 33.9511 34.8514C33.9316 34.8375 33.9136 34.8222 33.8941 34.8069C32.6525 33.75 31.6705 32.4694 30.9747 31.0014L32.8566 30.1083C33.408 31.275 34.183 32.2958 35.1566 33.1458C35.1913 33.1694 35.2261 33.1944 35.258 33.2222C35.8011 33.6847 36.1108 34.3583 36.1108 35.0694C36.1108 36.4097 35.0205 37.5 33.6802 37.5Z" fill="black"/>
<path d="M32.6386 26.3889C27.6608 26.3889 23.6108 22.3389 23.6108 17.3611C23.6108 12.3833 27.6608 8.33334 32.6386 8.33334C37.6164 8.33334 41.6664 12.3833 41.6664 17.3611C41.6664 22.3389 37.6164 26.3889 32.6386 26.3889ZM32.6386 10.4167C28.8094 10.4167 25.6942 13.532 25.6942 17.3611C25.6942 21.1903 28.8094 24.3056 32.6386 24.3056C36.4678 24.3056 39.5831 21.1903 39.5831 17.3611C39.5831 13.532 36.4678 10.4167 32.6386 10.4167Z" fill="black"/>
<path d="M32.6389 25.3472C37.0495 25.3472 40.625 21.7717 40.625 17.3611C40.625 12.9505 37.0495 9.375 32.6389 9.375C28.2283 9.375 24.6528 12.9505 24.6528 17.3611C24.6528 21.7717 28.2283 25.3472 32.6389 25.3472Z" fill="#FEB46D"/>
<path d="M27.7778 17.3611C27.7778 13.4861 30.5389 10.2569 34.2014 9.53056C33.6959 9.42917 33.1737 9.375 32.6389 9.375C28.2278 9.375 24.6528 12.95 24.6528 17.3611C24.6528 21.7722 28.2278 25.3472 32.6389 25.3472C33.1737 25.3472 33.6959 25.2931 34.2014 25.1917C30.5389 24.4653 27.7778 21.2361 27.7778 17.3611Z" fill="#FF7F2E"/>
<path d="M31.9445 21.1806C31.6695 21.1806 31.4028 21.0709 31.2084 20.875L28.7778 18.4445L30.2514 16.9709L31.8876 18.6056L35.3223 14.5986L36.9042 15.9556L32.7376 20.8167C32.5487 21.0361 32.2764 21.1681 31.9862 21.1792C31.9709 21.1806 31.957 21.1806 31.9445 21.1806Z" fill="black"/>
<path d="M22.222 41.6667C19.3512 41.6667 17.0137 39.3306 17.0137 36.4583H19.097C19.097 38.182 20.4998 39.5833 22.222 39.5833C23.9442 39.5833 25.347 38.182 25.347 36.4583H27.4303C27.4303 39.3306 25.0928 41.6667 22.222 41.6667Z" fill="black"/>
<path d="M33.6802 37.5H10.7636C9.42329 37.5 8.33301 36.4097 8.33301 35.0694C8.33301 34.3583 8.64412 33.6861 9.1844 33.2222C9.21773 33.193 9.25384 33.1667 9.28995 33.1417C11.3316 31.3625 12.4997 28.8014 12.4997 26.0972V22.2222C12.4997 17.6986 15.565 13.8153 19.9538 12.7778L20.4344 14.8055C16.9886 15.6194 14.583 18.6694 14.583 22.2222V26.0972C14.583 29.4542 13.1122 32.6292 10.5497 34.8069C10.5316 34.8222 10.5136 34.8375 10.4927 34.8528C10.4538 34.9 10.4163 34.9722 10.4163 35.0694C10.4163 35.2583 10.5747 35.4167 10.7636 35.4167H33.6802C33.8691 35.4167 34.0275 35.2583 34.0275 35.0694C34.0275 34.9708 33.99 34.8986 33.9511 34.8514C33.9316 34.8375 33.9136 34.8222 33.8941 34.8069C32.6525 33.75 31.6705 32.4694 30.9747 31.0014L32.8566 30.1083C33.408 31.275 34.183 32.2958 35.1566 33.1458C35.1913 33.1694 35.2261 33.1944 35.258 33.2222C35.8011 33.6847 36.1108 34.3583 36.1108 35.0694C36.1108 36.4097 35.0205 37.5 33.6802 37.5Z" fill="black"/>
<path d="M32.6386 26.3889C27.6608 26.3889 23.6108 22.3389 23.6108 17.3611C23.6108 12.3833 27.6608 8.33334 32.6386 8.33334C37.6164 8.33334 41.6664 12.3833 41.6664 17.3611C41.6664 22.3389 37.6164 26.3889 32.6386 26.3889ZM32.6386 10.4167C28.8094 10.4167 25.6942 13.532 25.6942 17.3611C25.6942 21.1903 28.8094 24.3056 32.6386 24.3056C36.4678 24.3056 39.5831 21.1903 39.5831 17.3611C39.5831 13.532 36.4678 10.4167 32.6386 10.4167Z" fill="black"/>
</svg>
