<svg width="319" height="201" viewBox="0 0 319 201" fill="none" xmlns="http://www.w3.org/2000/svg">
<g clip-path="url(#clip0_953_41378)">
<path opacity="0.77" d="M180.306 139.439L318.888 146.005V32.6538L180.306 55.6192V139.439Z" fill="url(#paint0_linear_953_41378)"/>
<path d="M311.619 114.298C311.619 114.298 304.032 99.4132 294.767 108.958C285.502 118.502 279.639 137.064 272.649 126.288C265.659 115.511 264.192 91.5024 255.64 107.449C247.087 123.396 243.477 132.995 237.241 124.664C231.005 116.332 228.923 125.225 220.922 127.822" stroke="url(#paint1_linear_953_41378)" stroke-width="0.320926" stroke-miterlimit="10"/>
<path d="M301.349 184.504C301.349 163.708 269.292 187.302 274.59 163.907C279.889 140.511 276.221 137.048 230.303 132.716C184.385 128.383 220.771 85.9282 186.114 35.6776C151.458 -14.5729 85.607 -3.31162 57.0157 19.2141C28.4245 41.7399 21.5021 77.2664 21.5021 77.2664C21.5021 77.2664 16.2646 111.041 21.5021 147.446C25.9533 178.457 35.5875 181.262 45.7352 186.773C103.922 218.374 301.349 184.504 301.349 184.504Z" fill="url(#paint2_linear_953_41378)"/>
<path d="M177.757 56.8745H170.732L237.042 191.75C239.312 191.521 241.559 191.29 243.781 191.057L177.757 56.8745Z" fill="url(#paint3_linear_953_41378)"/>
<path d="M274.59 163.907C279.892 140.514 276.221 137.048 230.303 132.716C194.199 129.311 208.971 102.34 200.097 66.541L160.257 125.912L137.574 109.115L103.412 155.222L88.6493 143.464L49.3456 188.567C111.66 217.045 301.349 184.504 301.349 184.504C301.349 163.708 269.292 187.302 274.59 163.907Z" fill="url(#paint4_linear_953_41378)"/>
<path d="M139.413 143.463L177.757 56.8745H170.726L128.149 143.463H139.413Z" fill="url(#paint5_linear_953_41378)"/>
<path d="M61.6178 15.8891L128.152 143.454H139.413L86.1397 4.66309C76.8682 7.46156 68.4856 11.364 61.6178 15.8891Z" fill="url(#paint6_linear_953_41378)"/>
<path opacity="0.26" d="M179.06 166.663C218.047 166.663 249.651 135.058 249.651 96.0722C249.651 57.086 218.047 25.4814 179.06 25.4814C140.074 25.4814 108.47 57.086 108.47 96.0722C108.47 135.058 140.074 166.663 179.06 166.663Z" fill="#4F92FD"/>
<path opacity="0.77" d="M179.06 166.663C218.047 166.663 249.651 135.058 249.651 96.0722C249.651 57.086 218.047 25.4814 179.06 25.4814C140.074 25.4814 108.47 57.086 108.47 96.0722C108.47 135.058 140.074 166.663 179.06 166.663Z" stroke="#E8F1FF" stroke-width="0.320926" stroke-miterlimit="10"/>
<path opacity="0.77" d="M196.272 96.0724C196.272 135.062 185.736 166.676 179.06 166.676C169.815 166.676 156.467 140.681 156.467 96.0724C156.467 50.7673 174.086 25.4688 179.06 25.4688C184.086 25.4816 196.272 57.0863 196.272 96.0724Z" stroke="#E8F1FF" stroke-width="0.320926" stroke-miterlimit="10"/>
<path opacity="0.77" d="M229.751 96.0724C229.751 135.062 208.351 166.676 179.06 166.676C149.77 166.676 122.985 135.071 122.985 96.0724C122.985 57.0735 149.773 25.4688 179.06 25.4688C208.348 25.4688 229.751 57.0863 229.751 96.0724Z" stroke="#E8F1FF" stroke-width="0.320926" stroke-miterlimit="10"/>
<path opacity="0.77" d="M249.654 96.0723C245.986 102.122 227.568 114.298 179.051 114.298C133.592 114.298 110.645 102.423 108.447 96.0723" stroke="#E8F1FF" stroke-width="0.320926" stroke-miterlimit="10"/>
<path opacity="0.77" d="M241.458 63.1226C238.91 68.5205 212.995 78.2253 179.061 78.2253C143.152 78.2253 121.271 69.5058 116.663 63.1226" stroke="#E8F1FF" stroke-width="0.320926" stroke-miterlimit="10"/>
<path opacity="0.77" d="M216.484 36.2197C214.956 39.4547 199.414 45.2762 179.06 45.2762C157.526 45.2762 144.4 40.0484 141.637 36.2197" stroke="#E8F1FF" stroke-width="0.320926" stroke-miterlimit="10"/>
<path opacity="0.77" d="M238.502 134.166C238.502 138.794 211.891 149.339 179.06 149.339C146.23 149.339 119.619 138.794 119.619 134.166" stroke="#E8F1FF" stroke-width="0.320926" stroke-miterlimit="10"/>
<g opacity="0.77">
<path opacity="0.77" d="M179.061 178.585C224.631 178.585 261.574 141.643 261.574 96.0722C261.574 50.5015 224.631 13.5591 179.061 13.5591C133.49 13.5591 96.5474 50.5015 96.5474 96.0722C96.5474 141.643 133.49 178.585 179.061 178.585Z" stroke="#E8F1FF" stroke-width="0.641851" stroke-miterlimit="10" stroke-dasharray="3.87 3.87"/>
</g>
<path d="M266.147 41.3931V113.335L295.585 113.665V144.901" stroke="url(#paint7_linear_953_41378)" stroke-width="0.320926" stroke-miterlimit="10" stroke-linecap="round"/>
<path d="M52.6094 22.9397V189.959C68.4631 196.259 91.2424 199.186 116.663 200.004V0.118652C93.2353 0.118652 70.7962 8.3536 57.0157 19.2137C55.4859 20.4204 54.0172 21.6624 52.6094 22.9397Z" fill="url(#paint8_linear_953_41378)"/>
<path d="M229.703 86.0628L253.881 84.3619V40.1865L229.703 44.7597V86.0628Z" stroke="#4F92FD" stroke-width="0.320926" stroke-miterlimit="10"/>
<path d="M255.335 72.8211C255.335 72.8211 263.467 68.739 265.258 72.8211C267.049 76.9033 268.201 80.058 267.864 81.8937C267.527 83.7294 267.013 88.9541 267.065 90.0099C267.116 91.0658 267.325 91.8456 266.962 91.913C265.547 92.1127 264.122 92.2263 262.694 92.2532C260.893 92.2756 260.235 92.2018 260.219 91.836C260.203 91.4701 259.744 88.2737 259.577 88.2641C259.411 88.2544 258.422 89.1145 257.909 88.6845C257.395 88.2544 255.409 85.0067 254.731 80.042C254.054 75.0772 255.335 72.8211 255.335 72.8211Z" fill="#E6F0FF"/>
<path d="M264.096 143.868C264.096 143.868 269.533 143.403 270.598 143.024C271.664 142.645 271.388 141.695 271.352 141.198C271.317 140.7 270.258 133.727 270.338 132.25C270.418 130.774 271.818 121.884 272.835 118.104C273.852 114.323 276.737 106.162 274.844 101.637C272.95 97.1122 268.852 94.2207 268.852 94.2207C268.852 94.2207 266.214 95.0712 263.801 95.636C261.387 96.2008 259.767 96.3677 259.276 96.3035C258.785 96.2393 258.56 96.2008 258.56 96.2008C258.56 96.2008 257.325 98.5853 256.189 100.694C255.052 102.802 254.468 103.335 253.833 103.903C253.197 104.471 251.949 106.846 251.323 111.535C250.697 116.223 250.531 118.149 250.531 118.149C250.531 118.149 249.889 124.567 249.593 125.938C249.298 127.308 248.031 133.524 247.867 134.766C247.703 136.008 247.321 137.491 247.867 139.218C248.412 140.944 248.579 141.519 248.945 141.702C249.311 141.885 254.196 144.417 264.096 143.868Z" fill="#AFCAFF"/>
<path d="M248.868 141.74C251.923 143.05 255.179 143.826 258.496 144.035C263.708 144.285 269.921 143.255 269.921 143.255C269.921 143.255 270.454 146.49 270.746 148.769C271.038 151.047 272.167 157.777 271.863 159.189C271.558 160.601 269.802 179.603 269.488 181.034C269.173 182.466 269.404 183.647 269.359 184.667C269.314 185.688 269.517 188.762 269.517 188.762L248.977 191.403C248.977 191.403 247.443 185.518 247.032 182.954C246.622 180.389 246.391 178.544 246.497 176.715C246.602 174.885 248.868 141.74 248.868 141.74Z" fill="#5094F9"/>
<path opacity="0.77" d="M135.062 94.6408H6.23242V29.3389L135.062 47.5353V94.6408Z" fill="url(#paint9_linear_953_41378)"/>
<path d="M44.06 59.0182L20.549 57.1504V25.5713L44.06 29.339V59.0182Z" fill="#4F92FD"/>
<path d="M44.06 97.6897L20.549 98.0523V62.3076L44.06 63.832V97.6897Z" fill="#FF7F00"/>
<path d="M97.7604 98.28H92.4844V27.4453L97.7604 28.6969V98.28Z" stroke="#4F92FD" stroke-width="0.320926" stroke-miterlimit="10"/>
<path opacity="0.77" d="M51.1748 151.024L6.23242 158.059V106.165L51.1748 104.195V151.024Z" fill="url(#paint10_linear_953_41378)"/>
<path opacity="0.77" d="M125.735 169.869L163.695 175.37V150.7L125.735 148.268V169.869Z" fill="#E8F1FF"/>
<path d="M231.455 57.3141L236.144 51.0271L239.802 50.3853L235.113 56.669L231.455 57.3141ZM233.939 61.4861L240.791 52.3109C241.296 51.6098 241.853 50.9469 242.456 50.3275C243.132 49.6329 243.934 49.0721 244.818 48.6748C245.847 48.1874 246.998 48.0187 248.124 48.1902C248.629 48.2737 249.113 48.459 249.545 48.7348C249.977 49.0106 250.348 49.3712 250.637 49.7948C251.413 51.052 251.665 52.5644 251.336 54.0053C251.187 54.8023 250.91 55.5696 250.515 56.2775C250.114 56.9991 249.604 57.6541 249.003 58.2191C248.354 58.8314 247.591 59.3091 246.757 59.6247C246.311 59.8015 245.85 59.9358 245.38 60.0259L243.592 60.3468L240.088 65.0484L236.442 65.6902L242.049 58.1645L242.504 57.5484L244.914 57.1344C245.758 56.9867 246.654 56.8327 247.418 56.1941H247.434C247.796 55.8743 248.097 55.4902 248.319 55.0612C248.539 54.6445 248.674 54.1887 248.717 53.7197C248.759 53.2923 248.699 52.8611 248.541 52.4617C248.394 52.1004 248.145 51.7895 247.825 51.5663L247.79 51.5438H247.771L247.748 51.5278C247.329 51.2762 246.834 51.1818 246.352 51.2614H246.327C245.984 51.306 245.65 51.4 245.335 51.5406C244.864 51.76 244.436 52.0635 244.074 52.436C243.609 52.9159 243.18 53.4286 242.79 53.97L237.581 60.947L233.939 61.4861Z" fill="#FF7F2E"/>
<path d="M260.126 91.021C260.126 91.021 256.83 92.0993 262.421 92.1634C270.341 92.2533 267.097 90.8605 267.097 90.8605C267.097 90.8605 268.259 90.8444 268.448 91.1589C268.637 91.4735 269.892 93.3573 269.013 94.0473C268.133 94.7373 263.737 95.806 261.603 96.1814C259.468 96.5569 257.71 96.3708 258.464 94.9908C258.997 93.9716 259.245 92.8274 259.183 91.6789" stroke="#3269E0" stroke-width="0.320926" stroke-linecap="round" stroke-linejoin="round"/>
<path d="M258.563 96.0723C258.563 96.0723 255.765 102.337 253.749 103.967C251.734 105.597 250.733 115.909 250.733 115.909" stroke="#3269E0" stroke-width="0.320926" stroke-miterlimit="10"/>
<path d="M250.113 143.454C250.113 143.454 250.239 167.061 251.618 176.73C252.998 186.4 254.494 190.309 254.494 190.309" stroke="#3269E0" stroke-width="0.320926" stroke-miterlimit="10"/>
<path d="M270.033 143.165C270.033 143.165 271.461 154.137 271.837 157.526C272.212 160.915 269.318 180.633 269.321 183.271C269.324 185.909 269.289 183.361 269.526 188.762" stroke="#3269E0" stroke-width="0.320926" stroke-miterlimit="10"/>
<path d="M248.717 141.579C248.717 141.579 246.708 173.226 246.471 177.369C246.233 181.512 248.615 188.893 248.993 191.403" stroke="#3269E0" stroke-width="0.320926" stroke-miterlimit="10"/>
<path d="M260.543 189.779C261.583 182.873 258.653 177.744 257.013 169.079C255.373 160.414 256.862 144.323 257.113 143.944C257.113 143.944 261.779 144.105 263.313 144.021C264.982 143.932 269.924 143.254 269.924 143.254C269.924 143.254 272.212 157.096 271.85 159.188C271.487 161.281 270.056 176.544 269.786 178.588C269.517 180.633 269.465 188.389 269.465 188.389L260.543 189.779Z" fill="url(#paint11_linear_953_41378)"/>
<path d="M269.898 98.7554C269.898 98.7554 263.743 100.829 262.049 104.092C260.354 107.356 260.479 112.822 259.16 114.641C257.841 116.461 257.013 118.091 257.138 119.157" stroke="#3269E0" stroke-width="0.320926" stroke-miterlimit="10"/>
<path d="M227.822 101.092C228.043 101.149 235.652 106.868 237.466 108.219C237.579 108.309 237.719 108.358 237.864 108.358C238.008 108.358 238.148 108.309 238.262 108.219C238.477 108.056 238.66 107.879 238.496 107.879C238.226 107.879 230.117 101.653 227.803 99.856C227.739 99.8083 227.662 99.7806 227.582 99.7764C227.502 99.7723 227.423 99.7919 227.354 99.8327C227.286 99.8736 227.231 99.9339 227.196 100.006C227.162 100.078 227.149 100.159 227.161 100.238C227.166 100.272 227.181 100.304 227.203 100.331C227.321 100.45 227.822 101.092 227.822 101.092Z" fill="url(#paint12_linear_953_41378)"/>
<path d="M260.242 92.0447C260.242 92.0447 259.953 89.0183 259.574 88.2642" stroke="#3269E0" stroke-width="0.320926" stroke-miterlimit="10"/>
<path d="M260.515 123.357C260.515 123.357 258.91 120.95 254.651 118.299C250.393 115.648 245.486 111.804 245.486 111.804C245.023 112.448 244.595 113.117 244.202 113.806C243.692 114.75 242.652 116.528 242.694 116.727C242.735 116.926 245.421 120.151 247.617 122.452C249.812 124.753 252.774 127.76 253.785 128.601C254.796 129.442 260.515 123.357 260.515 123.357Z" fill="#AFCAFF"/>
<path d="M59.9104 34.1948L87.2661 38.4631" stroke="#4F92FD" stroke-width="0.320926" stroke-miterlimit="10"/>
<path d="M59.9104 30.3438L72.8565 32.5613" stroke="#4F92FD" stroke-width="0.320926" stroke-miterlimit="10"/>
<path d="M103.264 56.1299L110.437 56.8744" stroke="#4F92FD" stroke-width="0.320926" stroke-miterlimit="10"/>
<path d="M103.264 52.7729L116.692 54.1208" stroke="#4F92FD" stroke-width="0.320926" stroke-miterlimit="10"/>
<path d="M103.264 62.9814L131.101 65.1284" stroke="#4F92FD" stroke-width="0.320926" stroke-miterlimit="10"/>
<path d="M103.264 59.5698L116.692 60.7958" stroke="#4F92FD" stroke-width="0.320926" stroke-miterlimit="10"/>
<path d="M119.166 61.0239L125.979 61.6465" stroke="#4F92FD" stroke-width="0.320926" stroke-miterlimit="10"/>
<path d="M126.737 61.7168L130.094 62.0249" stroke="#4F92FD" stroke-width="0.320926" stroke-miterlimit="10"/>
<path d="M112.924 57.1313L131.101 59.0184" stroke="#4F92FD" stroke-width="0.320926" stroke-miterlimit="10"/>
<path d="M128.136 153.788L146.836 155.389V153.033L128.136 151.692V153.788Z" fill="url(#paint13_linear_953_41378)"/>
<path d="M128.136 156.82L160.261 159.869V158.742L128.136 155.774V156.82Z" fill="#AFCAFF"/>
<path d="M128.136 162.391L139.426 163.479V162.353L128.136 161.345V162.391Z" fill="#AFCAFF"/>
<path d="M128.136 165.54L145.392 167.578V166.454L128.136 164.49V165.54Z" fill="#AFCAFF"/>
<path d="M198.685 45.8634L218.091 42.4038V26.7427L198.685 32.0187V45.8634Z" fill="#4F92FD"/>
<path d="M147.379 73.2384C146.647 70.9919 144.359 69.5606 142.27 70.0516C141.787 70.164 141.334 70.3767 140.939 70.6759C140.544 70.975 140.217 71.3538 139.978 71.7878C139.699 72.2905 139.531 72.8477 139.487 73.4213L127.347 74.3488C126.4 72.5484 124.4 71.4829 122.558 71.9194C122.077 72.0322 121.624 72.2451 121.23 72.5442C120.835 72.8433 120.509 73.222 120.27 73.6556C119.989 74.1788 119.819 74.7545 119.771 75.3465C119.723 75.9386 119.798 76.5342 119.991 77.0959C120.655 79.1434 122.606 80.5105 124.526 80.3693C124.718 80.3561 124.909 80.3271 125.097 80.2827C125.328 80.228 125.552 80.1506 125.768 80.0516L132.244 87.112C132.163 87.2242 132.089 87.341 132.022 87.4618C131.741 87.985 131.571 88.5607 131.523 89.1528C131.475 89.7448 131.55 90.3404 131.743 90.9021C132.404 92.9496 134.359 94.3168 136.278 94.1756C136.869 94.1347 137.441 93.9464 137.941 93.6281C138.441 93.3097 138.853 92.8712 139.141 92.3527C139.421 91.8292 139.591 91.2536 139.639 90.6616C139.687 90.0697 139.612 89.4742 139.42 88.9124C138.688 86.6659 136.4 85.2314 134.311 85.7256C134.161 85.7644 134.013 85.8115 133.868 85.8668L127.295 78.7102C127.327 78.6588 127.359 78.6139 127.388 78.5625C127.758 77.8922 127.931 77.1316 127.889 76.3674L139.779 75.456C140.508 77.3815 142.385 78.6492 144.234 78.5144C144.427 78.5015 144.619 78.4725 144.808 78.4277C145.29 78.3153 145.744 78.1026 146.139 77.8035C146.533 77.5043 146.861 77.1255 147.1 76.6915C147.381 76.1661 147.551 75.5883 147.599 74.9941C147.647 74.3999 147.572 73.8022 147.379 73.2384ZM124.628 78.3058C123.569 78.5529 122.334 77.7185 121.929 76.4733C121.824 76.1791 121.78 75.8663 121.8 75.5544C121.821 75.2424 121.905 74.9381 122.048 74.6601C122.149 74.4725 122.289 74.3086 122.458 74.1797C122.627 74.0507 122.822 73.9595 123.03 73.9123C123.115 73.8904 123.202 73.8764 123.29 73.8706C124.285 73.8 125.357 74.5991 125.729 75.7448C125.835 76.0385 125.879 76.3508 125.858 76.6622C125.838 76.9736 125.753 77.2775 125.61 77.5548C125.509 77.7425 125.37 77.9065 125.2 78.036C125.031 78.1655 124.836 78.2575 124.628 78.3058ZM135.042 87.664C136.037 87.5934 137.109 88.3925 137.481 89.5382C137.587 89.8319 137.631 90.1441 137.61 90.4556C137.59 90.767 137.506 91.0708 137.363 91.3482C137.263 91.5353 137.126 91.6995 136.959 91.8299C136.792 91.9604 136.599 92.0543 136.393 92.1056C135.334 92.3527 134.099 91.5151 133.694 90.2731C133.589 89.9789 133.545 89.6661 133.566 89.3542C133.586 89.0422 133.67 88.7379 133.813 88.4599C133.914 88.2723 134.054 88.1084 134.223 87.9795C134.393 87.8505 134.588 87.7593 134.795 87.7121C134.876 87.6868 134.959 87.6686 135.042 87.6576V87.664ZM145.312 75.687C145.21 75.8744 145.07 76.0379 144.9 76.1668C144.73 76.2957 144.535 76.3871 144.327 76.4348C143.268 76.6883 142.032 75.8475 141.631 74.6055C141.525 74.3115 141.48 73.9988 141.5 73.6869C141.52 73.375 141.604 73.0704 141.746 72.7923C141.848 72.605 141.988 72.4412 142.157 72.3118C142.326 72.1824 142.521 72.0902 142.729 72.0413C142.815 72.022 142.903 72.0091 142.992 72.0028C143.983 71.9322 145.058 72.7313 145.428 73.8738C145.533 74.1664 145.578 74.4775 145.56 74.7881C145.542 75.0987 145.461 75.4024 145.322 75.6806L145.312 75.687Z" fill="#4F92FD" stroke="#3269E0" stroke-width="0.240694" stroke-miterlimit="10"/>
<path d="M148.537 72.2564C147.806 70.0099 145.517 68.5754 143.428 69.0696C142.946 69.1817 142.493 69.3939 142.098 69.6925C141.703 69.9911 141.376 70.3693 141.137 70.8026C140.857 71.3053 140.69 71.8626 140.646 72.4361L128.505 73.3668C127.558 71.5632 125.559 70.501 123.717 70.9374C123.235 71.0499 122.783 71.2623 122.389 71.5609C121.995 71.8594 121.667 72.2374 121.429 72.6704C121.148 73.1939 120.979 73.7695 120.931 74.3615C120.882 74.9534 120.957 75.5489 121.149 76.1107C121.814 78.1583 123.765 79.5254 125.684 79.3874C125.877 79.3718 126.068 79.3418 126.255 79.2975C126.486 79.2443 126.711 79.1668 126.926 79.0665L133.402 86.1268C133.321 86.2375 133.247 86.3532 133.181 86.4734C132.9 86.9966 132.73 87.5723 132.682 88.1644C132.634 88.7565 132.709 89.3521 132.902 89.9138C133.566 91.9613 135.517 93.3284 137.436 93.1904C137.629 93.1746 137.82 93.1446 138.008 93.1005C138.49 92.9885 138.943 92.7762 139.338 92.4777C139.732 92.1791 140.06 91.8009 140.299 91.3675C140.577 90.844 140.744 90.269 140.789 89.6783C140.835 89.0875 140.759 88.4937 140.565 87.9336C139.837 85.6872 137.546 84.2526 135.456 84.7469C135.306 84.7831 135.158 84.8292 135.013 84.8848L128.441 77.7282C128.473 77.6801 128.505 77.6319 128.534 77.5806C128.904 76.9104 129.077 76.1497 129.035 75.3855L140.938 74.4548C141.666 76.3803 143.544 77.6448 145.392 77.5132C145.586 77.4976 145.778 77.4676 145.967 77.4233C146.449 77.3112 146.902 77.099 147.297 76.8005C147.691 76.5019 148.019 76.1237 148.258 75.6903C148.538 75.1677 148.707 74.5932 148.755 74.0024C148.803 73.4117 148.729 72.8173 148.537 72.2564ZM125.803 77.3142C124.744 77.5613 123.508 76.7269 123.104 75.4817C122.998 75.1881 122.954 74.8758 122.975 74.5644C122.995 74.253 123.08 73.9491 123.223 73.6717C123.324 73.484 123.464 73.32 123.633 73.1905C123.802 73.061 123.997 72.9691 124.205 72.9207C124.29 72.9016 124.377 72.8888 124.465 72.8822C125.46 72.8084 126.531 73.6107 126.904 74.7532C127.009 75.0475 127.053 75.3603 127.033 75.6722C127.012 75.9841 126.928 76.2885 126.785 76.5665C126.684 76.7537 126.544 76.9172 126.374 77.0461C126.205 77.1751 126.01 77.2665 125.803 77.3142ZM136.217 86.6756C137.212 86.6018 138.284 87.4041 138.656 88.5466C138.762 88.8403 138.805 89.1526 138.785 89.464C138.765 89.7754 138.68 90.0793 138.537 90.3566C138.437 90.5447 138.297 90.709 138.128 90.8386C137.958 90.9681 137.763 91.0599 137.555 91.1076C136.496 91.3579 135.261 90.5203 134.856 89.2751C134.751 88.9814 134.707 88.6691 134.727 88.3577C134.748 88.0463 134.832 87.7425 134.975 87.4651C135.076 87.2774 135.216 87.1134 135.385 86.9839C135.554 86.8544 135.749 86.7624 135.957 86.7141C136.037 86.6958 136.119 86.6829 136.201 86.6756H136.217ZM146.487 74.6955C146.384 74.8829 146.244 75.0466 146.074 75.176C145.904 75.3054 145.709 75.3976 145.501 75.4464C144.445 75.6967 143.207 74.8591 142.806 73.6139C142.699 73.3205 142.655 73.0083 142.675 72.6969C142.695 72.3855 142.779 72.0815 142.921 71.8039C143.023 71.6166 143.163 71.4529 143.332 71.3235C143.501 71.194 143.696 71.1019 143.903 71.053C143.99 71.0336 144.078 71.0208 144.166 71.0144C145.158 70.9406 146.233 71.7429 146.602 72.8854C146.707 73.1793 146.751 73.4917 146.73 73.8032C146.709 74.1146 146.624 74.4183 146.48 74.6955H146.487Z" fill="white" stroke="#3269E0" stroke-width="0.240694" stroke-miterlimit="10"/>
<path d="M196.862 44.7335L216.265 41.274V25.6128L196.862 30.8888V44.7335Z" stroke="#E8F1FF" stroke-width="0.320926" stroke-miterlimit="10"/>
<path d="M196.862 30.8888L205.932 35.1732L216.265 25.6128" stroke="#E8F1FF" stroke-width="0.320926" stroke-miterlimit="10"/>
<path d="M19.1689 34.1944C18.8993 34.3613 9.86206 33.1899 9.86206 33.1899V66.5405L19.1689 67.0123" stroke="#4F92FD" stroke-width="0.320926" stroke-miterlimit="10"/>
<path d="M124.734 101.955C124.734 102.195 122.077 105.806 122.009 106.03C121.91 106.916 121.899 107.809 121.977 108.697C122.183 110.222 123.797 112.401 123.797 112.401L129.333 103.98C129.58 104.044 130.232 104.082 131.525 104.265C133.146 104.496 136.239 104.14 136.949 104.169C137.517 104.191 137.706 103.848 137.732 103.688C138.024 103.805 138.339 103.851 138.653 103.822C139.259 103.822 139.936 103.113 140.209 102.754C140.459 102.754 141.082 102.789 141.56 102.834C142.157 102.892 145.167 103.251 145.678 103.261C146.188 103.27 145.95 102.474 144.843 101.855C143.961 101.361 142.873 101.114 142.526 101.213C142.786 100.884 143.125 100.625 143.511 100.462C144.343 100.107 145.201 99.8196 146.079 99.6022C146.297 99.5573 146.531 98.9796 145.203 98.5592C143.874 98.1388 142.812 99.0053 142.44 99.2203C142.141 99.3904 141.406 99.7145 141.079 99.8621C141.209 99.6006 141.424 99.3912 141.689 99.2684C142.208 98.9764 142.33 98.2511 141.624 98.0585C140.918 97.866 139.551 98.6651 139.346 99.0213C139.179 99.2973 138.235 100.039 137.783 100.372L133.447 99.8557C134.073 99.4321 135.408 98.5207 135.742 98.2511C136.159 97.9302 135.947 96.6914 135.37 96.4892C134.792 96.287 132.863 97.0348 131.9 97.7055C130.938 98.3763 129.439 98.7999 128.133 98.9892C126.827 99.1786 125.264 100.199 124.801 100.485C124.339 100.77 124.728 101.714 124.734 101.955Z" fill="#FBFEF9"/>
<path d="M126.64 99.423C126.713 99.3684 126.796 99.3291 126.884 99.3074C127.222 99.1222 127.593 99.0055 127.975 98.964C128.836 98.964 131.23 98.0719 131.663 97.8601C132.096 97.6483 134.747 96.3036 135.264 96.387C135.78 96.4705 136.005 97.5231 135.784 98.0943C135.604 98.5533 134.018 99.4198 133.248 99.7953C133.999 99.8562 135.655 100.02 136.242 100.158C136.981 100.331 137.786 100.354 137.677 100.395C137.568 100.437 136.714 101.133 136.31 101.487C135.939 101.531 135.562 101.501 135.203 101.397C134.542 101.22 133.235 100.405 130.232 100.312C128.094 100.245 127.513 99.1598 126.884 99.3074L126.64 99.423C126.144 99.6784 125.661 99.9591 125.193 100.264C125.004 100.435 124.8 100.588 124.583 100.723C124.765 100.543 124.97 100.389 125.193 100.264C125.767 99.8081 126.557 99.2079 126.64 99.423Z" fill="url(#paint14_linear_953_41378)"/>
<path d="M137.571 100.254C136.143 100.037 134.704 99.8959 133.261 99.8301" stroke="#9C9C9C" stroke-width="0.320926" stroke-linecap="round" stroke-linejoin="round"/>
<path d="M145.241 102.029C144.548 101.522 143.02 101.316 142.353 101.274L140.427 102.802C141.904 102.892 144.994 103.107 145.546 103.248C146.217 103.428 146.108 102.664 145.241 102.029Z" fill="url(#paint15_linear_953_41378)"/>
<path d="M137.76 103.659C137.947 103.739 138.723 103.912 139.131 103.62C139.651 103.258 142.465 101.181 142.94 100.841C143.895 100.3 144.908 99.8694 145.96 99.5575C146.551 99.4419 146.374 98.7937 145.055 98.5048C143.736 98.216 142.69 99.0889 142.446 99.2751C142.202 99.4612 141.124 99.7276 140.697 100.154" stroke="#9C9C9C" stroke-width="0.320926" stroke-linecap="round" stroke-linejoin="round"/>
<path d="M142.427 101.213C142.834 101.265 144.628 101.499 145.315 102.086C146.169 102.824 145.893 103.392 145.357 103.232C144.345 103.034 143.319 102.912 142.289 102.866C142 102.885 140.662 102.693 140.212 102.84" stroke="#9C9C9C" stroke-width="0.320926" stroke-linecap="round" stroke-linejoin="round"/>
<path d="M127.751 103.752C127.802 103.682 127.869 103.625 127.947 103.585C128.022 103.547 128.106 103.527 128.19 103.527C128.33 103.527 128.469 103.544 128.604 103.575C128.861 103.627 129.108 103.691 129.355 103.749C129.853 103.864 130.347 103.98 130.845 104.047C131.852 104.172 132.866 104.228 133.88 104.214C134.894 104.22 135.907 104.151 136.91 104.009C137.029 103.989 137.147 103.963 137.263 103.931C137.307 103.919 137.35 103.899 137.388 103.874C137.419 103.844 137.445 103.809 137.465 103.771C137.592 103.531 137.76 103.314 137.959 103.129C138.327 102.781 138.672 102.41 138.993 102.019C139.654 101.245 140.277 100.44 140.967 99.6696C141.139 99.4669 141.329 99.28 141.535 99.1112C141.729 98.9966 141.886 98.8283 141.987 98.6266C142.003 98.5912 142.01 98.5521 142.007 98.5133C142.003 98.4745 141.99 98.4372 141.968 98.4051C141.907 98.3276 141.824 98.2696 141.73 98.2383C141.629 98.1943 141.52 98.1683 141.409 98.1612C141.295 98.1568 141.181 98.1665 141.069 98.1901C140.593 98.3147 140.147 98.5329 139.757 98.832C139.564 98.9623 139.397 99.1265 139.262 99.3166C139.186 99.4376 139.09 99.5459 138.98 99.6375C138.88 99.7274 138.781 99.8108 138.678 99.891C138.271 100.212 137.854 100.507 137.436 100.806L136.814 101.249L136.493 101.47L136.345 101.586L136.281 101.64L136.255 101.663C136.258 101.652 136.258 101.641 136.255 101.63C136.251 101.653 136.243 101.674 136.23 101.693C136.217 101.711 136.2 101.727 136.181 101.739C136.162 101.751 136.14 101.758 136.118 101.761C136.095 101.764 136.072 101.762 136.051 101.755C136.029 101.749 136.009 101.737 135.992 101.723C135.975 101.708 135.961 101.689 135.952 101.669C135.942 101.648 135.937 101.626 135.937 101.603C135.937 101.581 135.941 101.558 135.95 101.537C135.96 101.511 135.973 101.486 135.989 101.464L136.015 101.435C136.033 101.425 136.052 101.417 136.072 101.412C136.098 101.388 136.124 101.366 136.153 101.345L136.307 101.223L136.628 100.998L137.253 100.555C137.667 100.26 138.085 99.9649 138.479 99.6536C138.579 99.5733 138.675 99.4931 138.765 99.4129C138.849 99.3427 138.923 99.2605 138.983 99.169C139.138 98.9365 139.338 98.7369 139.57 98.5817C139.998 98.2597 140.486 98.0272 141.005 97.8981C141.143 97.87 141.284 97.8582 141.425 97.8628C141.5 97.8664 141.575 97.8783 141.647 97.8981C141.716 97.9162 141.783 97.9387 141.849 97.9655C141.997 98.0208 142.126 98.1164 142.221 98.2415C142.272 98.3149 142.303 98.3994 142.313 98.4878C142.323 98.5762 142.312 98.6657 142.279 98.7485C142.159 99.0141 141.962 99.2376 141.714 99.3904C141.527 99.5474 141.352 99.7191 141.191 99.9039C140.517 100.658 139.888 101.467 139.221 102.243C138.895 102.643 138.543 103.02 138.168 103.373C137.989 103.536 137.839 103.728 137.725 103.941C137.688 104.016 137.635 104.083 137.571 104.137C137.505 104.185 137.431 104.221 137.353 104.243C137.223 104.28 137.091 104.309 136.958 104.329C135.938 104.474 134.908 104.543 133.877 104.535C132.849 104.549 131.82 104.491 130.8 104.362C130.286 104.291 129.782 104.172 129.285 104.041C129.038 103.983 128.787 103.919 128.543 103.867C128.429 103.843 128.313 103.829 128.197 103.826C128.155 103.823 128.113 103.831 128.075 103.849C128.037 103.868 128.005 103.896 127.982 103.931C127.97 103.947 127.955 103.959 127.938 103.969C127.922 103.978 127.903 103.984 127.884 103.986C127.865 103.988 127.845 103.986 127.827 103.981C127.808 103.975 127.791 103.966 127.776 103.954C127.747 103.929 127.729 103.894 127.725 103.855C127.721 103.817 127.733 103.779 127.757 103.749L127.751 103.752Z" fill="#9C9C9C"/>
<path d="M136.817 101.952L135.11 101.438L134.259 101.185C133.969 101.103 133.684 101.004 133.406 100.889C132.87 100.663 132.31 100.499 131.737 100.402C131.174 100.319 130.6 100.381 130.068 100.581C130.048 100.589 130.027 100.593 130.006 100.593C129.985 100.592 129.964 100.588 129.945 100.58C129.926 100.571 129.908 100.559 129.893 100.544C129.879 100.529 129.867 100.511 129.859 100.492C129.851 100.472 129.847 100.451 129.847 100.43C129.847 100.409 129.851 100.388 129.86 100.368C129.868 100.349 129.88 100.331 129.896 100.316C129.911 100.302 129.929 100.29 129.949 100.283C130.24 100.171 130.544 100.097 130.854 100.065C131.162 100.038 131.472 100.046 131.778 100.087C132.377 100.19 132.96 100.364 133.518 100.604C133.789 100.713 134.065 100.809 134.346 100.889L135.196 101.149L136.9 101.669C136.937 101.68 136.969 101.706 136.987 101.74C137.005 101.774 137.009 101.814 136.998 101.851C136.987 101.888 136.962 101.919 136.928 101.937C136.894 101.955 136.854 101.96 136.817 101.949V101.952Z" fill="#9C9C9C"/>
<path d="M129.529 103.945C129.4 104.015 123.913 111.926 123.797 112.401" stroke="#9C9C9C" stroke-width="0.320926" stroke-linecap="round" stroke-linejoin="round"/>
<path d="M132.221 98.0426C132.305 98.0779 133.056 99.0759 133.072 99.5669M122.212 105.703C124.307 103.055 124.875 102.051 124.779 101.74L122.212 105.703ZM124.891 101.964C124.67 101.573 124.346 100.729 124.834 100.466C125.443 100.145 126.236 99.3038 128.601 98.8609C130.967 98.418 131.381 97.9527 131.888 97.7024C132.395 97.452 134.699 96.2261 135.187 96.4443C135.674 96.6626 135.906 97.16 135.899 97.8083C135.893 98.4566 133.425 99.7338 133.252 99.7948L124.891 101.964Z" stroke="#9C9C9C" stroke-width="0.320926" stroke-linecap="round" stroke-linejoin="round"/>
<path d="M80.716 80.2892C81.6971 80.7179 82.5789 81.3451 83.3058 82.1313C84.3328 83.3283 84.3745 83.7905 84.3809 84.2686C84.3874 84.7468 84.3168 84.8591 84.5542 85.1961C84.7917 85.5331 86.361 88.9445 86.1236 89.0312C85.8861 89.1178 84.1435 88.5305 84.1338 88.7103C84.1242 88.89 84.1691 91.1204 83.3668 91.9195C82.5645 92.7186 82.8566 93.0106 81.4092 92.8053C80.1527 92.5639 78.9175 92.2227 77.7153 91.7847C77.7153 91.7847 77.5805 92.6961 77.2564 92.7475C76.9323 92.7988 75.931 92.6608 74.7917 91.5601C73.6524 90.4593 71.4059 88.8803 69.782 87.7731C68.1582 86.666 65.1062 84.933 64.8237 84.6152C64.5413 84.2975 63.7647 83.5433 64.1819 82.5003C64.5991 81.4573 65.5875 80.2539 65.7865 79.3553C65.9517 78.7178 66.0038 78.0563 65.9406 77.4008C65.8764 77.173 65.7544 77.0157 66.0914 76.8938C66.4284 76.7718 67.8854 76.8585 67.8854 76.8585L67.5644 79.1049C67.5644 79.1049 71.2936 83.2545 73.1646 84.3778C75.0356 85.501 79.4387 86.5857 80.0164 87.1313C80.594 87.6769 81.6659 90.2699 81.6659 90.2699L82.9175 87.7314C82.9175 87.7314 81.9547 85.5908 81.7461 85.225C81.2729 83.9622 80.9099 82.6608 80.6614 81.3354C80.6119 80.9864 80.6304 80.6311 80.716 80.2892Z" fill="#AFCAFF"/>
<path d="M83.5979 49.3519C83.5979 49.3519 84.6313 53.5625 85.225 56.4765C85.8187 59.3905 88.4343 68.8482 84.9041 71.1107C81.3739 73.3732 80.9439 73.7776 80.9439 73.7776C80.9439 73.7776 80.4304 80.6614 80.7545 82.0864C81.0787 83.5113 83.0523 87.7924 83.0523 87.7924L81.6435 90.501C81.6435 90.501 80.7417 87.449 79.5607 86.897C78.3797 86.345 74.4259 85.3823 73.6075 84.5928C72.7891 83.8033 67.3527 79.2301 67.5099 78.9862C67.6672 78.7423 68.0459 72.7282 67.8469 71.4124C67.6479 70.0966 67.6543 66.5279 67.6543 66.5279C67.6543 66.5279 65.533 64.9553 65.257 63.6813C64.981 62.4072 64.4611 59.7018 65.1254 59.0118C65.7898 58.3218 66.5054 58.3154 67.2115 58.8513C67.9175 59.3873 68.7262 59.9553 69.1178 59.6761C69.5093 59.3969 69.8687 57.8436 69.612 57.0863C69.3552 56.3289 68.2352 52.1344 67.6864 51.4765C67.1376 50.8186 68.3058 50.1928 68.9701 49.9489C69.6344 49.705 75.7096 48.3828 78.1614 48.4694C79.9973 48.5922 81.8175 48.8877 83.5979 49.3519Z" fill="white"/>
<path d="M78.6427 48.46C78.6427 48.46 75.7287 49.5544 74.0952 50.2315C72.4617 50.9087 72.7345 55.6873 74.0952 59.2784C75.456 62.8696 75.5234 67.4396 76.8841 69.7534C78.2448 72.0673 81.4316 73.3927 81.9515 73.1617C82.4714 72.9306 77.8116 73.7329 77.4585 73.7169C77.1055 73.7008 76.4284 73.075 77.0638 74.2881C77.6992 75.5012 70.5265 81.955 70.5265 81.955C70.5265 81.955 67.6382 79.3491 67.5612 79.1662C67.4842 78.9832 68.4052 72.4749 67.5612 69.0731C66.7172 65.6713 64.6729 65.177 64.5028 62.6192C64.3327 60.0615 64.9457 56.8426 67.4264 58.5242C69.9072 60.2059 68.1902 53.8034 67.0766 51.865C65.963 49.9266 73.0394 47.3721 75.963 47.3721C78.8867 47.3721 78.6427 48.46 78.6427 48.46Z" fill="url(#paint16_linear_953_41378)"/>
<path d="M73.4502 165.883C73.4502 165.883 83.2095 166.336 91.6434 162.995C100.077 159.654 99.7051 158.903 99.535 157.78C99.3649 156.656 97.2629 135.578 96.9997 133.733C96.7365 131.887 96.6563 125.19 97.0639 122.025C97.4715 118.861 101.412 104.769 101.284 102.054C101.156 99.3392 103.261 93.9284 99.535 91.8745C95.8091 89.8205 87.6126 86.5086 86.3289 86.024C85.0452 85.5394 84.6729 85.18 84.8077 85.5875C84.9425 85.9951 86.9836 89.1755 86.4412 89.1177C85.8989 89.0599 84.2782 88.2608 84.3809 88.6716C84.4836 89.0824 83.8 92.5227 82.7089 92.7795C81.6177 93.0362 78.4053 91.698 78.0234 91.7942C77.6415 91.8905 77.7538 92.0349 77.4553 92.5099C77.1569 92.9849 76.0144 92.6639 75.5779 92.1087C75.1415 91.5535 70.2056 88.094 68.7422 87.1216C67.0894 86.024 64.7242 84.5092 64.4867 84.153C64.2492 83.7968 64.291 83.678 63.8449 84.0086C63.3988 84.3391 59.0695 87.006 57.1279 88.4374C55.1863 89.8687 50.8602 94.413 50.4559 95.0548C49.9784 95.7884 49.422 96.4675 48.7967 97.0799C48.1548 97.7057 44.9038 103.136 45.1445 106.496C45.3852 109.856 47.2017 120.877 48.0874 124.227C48.9732 127.577 49.1593 130.931 48.7293 131.608C48.2992 132.285 47.4777 138.669 49.1336 143.348C50.7896 148.027 53.1805 150.302 54.6311 150.19C56.0817 150.078 59.185 148.171 59.2203 148.556C59.2556 148.941 59.6664 153.672 59.1433 155.569C58.6202 157.465 58.1099 158.637 58.8769 159.824C59.644 161.011 62.2146 165.078 73.4502 165.883Z" fill="#EAF4FF"/>
<path d="M61.037 162.302C61.037 162.302 67.295 165.883 71.6018 165.883C75.9087 165.883 83.9382 165.418 87.0961 164.542C90.254 163.666 97.1507 160.793 97.799 160.283C97.799 160.283 99.5994 184.003 99.9299 187.241C100.26 190.479 100.96 197.254 100.167 198.098C99.3747 198.942 97.8311 198.945 96.3484 198.563C94.8657 198.181 85.5461 196.195 85.5461 196.195C85.5461 196.195 84.6571 189.985 84.4613 188.361C84.2656 186.737 83.9382 184.404 83.6686 184.917C83.3991 185.431 83.2097 191.31 82.8535 192.331C82.379 193.453 81.8434 194.548 81.2489 195.611C81.2489 195.611 68.4696 193.566 66.0402 192.443C64.3407 191.707 62.5648 191.161 60.7449 190.816C60.7449 190.816 60.5652 179.455 60.4914 177.697C60.4176 175.938 59.9394 165.501 59.6698 164.426C59.4002 163.351 59.5382 161.265 59.5382 161.265L61.037 162.302Z" fill="#AFCAFF"/>
<path d="M67.4683 76.8328C67.4683 76.8328 65.5427 76.6049 65.9342 77.3302C66.3258 78.0555 72.4137 84.3135 74.6827 85.1961C76.9516 86.0786 79.1981 86.3546 80.0133 87.1024C80.8284 87.8501 81.6435 90.501 81.6435 90.501C81.6435 90.501 84.0248 85.6293 84.2976 84.7243C84.5704 83.8193 84.3746 82.3944 80.5684 80.0901" stroke="#113291" stroke-width="0.320926" stroke-linecap="round"/>
<path d="M79.4579 88.0715C79.4579 88.0715 77.9046 90.7191 77.4971 92.3783C77.0895 94.0375 73.2127 89.9906 70.2859 88.0715C67.359 86.1523 63.8641 84.6761 64.076 82.9527C64.2878 81.2293 66.4315 79.8237 65.9341 77.3301" stroke="#113291" stroke-width="0.320926" stroke-linecap="round"/>
<path d="M84.2976 84.7241C84.8219 86.0596 85.4274 87.3618 86.1108 88.6234C86.8811 89.9071 82.9594 88.0746 82.9594 88.0746" stroke="#113291" stroke-width="0.320926" stroke-linecap="round"/>
<path d="M97.9915 159.927C97.9915 159.927 99.5351 185.28 100.35 191.14C101.165 197 99.7437 198.589 99.7437 198.589" stroke="#113291" stroke-width="0.320926" stroke-linecap="round"/>
<path d="M85.1063 177.944C85.1063 177.944 83.2642 180.431 83.3989 186.689C83.5337 192.947 81.1525 195.434 81.1525 195.434" stroke="#113291" stroke-width="0.320926" stroke-linecap="round"/>
<path d="M83.1198 177.944C84.3018 177.939 85.4769 177.763 86.6082 177.42" stroke="#113291" stroke-width="0.320926" stroke-linecap="round"/>
<path d="M84.5222 165.078C84.5222 165.078 85.2571 173.162 84.5222 177.86" stroke="#113291" stroke-width="0.320926" stroke-linecap="round"/>
<path d="M86.6114 167.992C86.6114 167.992 86.4959 177.128 86.3611 177.42" stroke="#113291" stroke-width="0.320926" stroke-linecap="round"/>
<path d="M83.9349 184.019C83.9349 184.019 85.3855 195.954 85.4369 196.439" stroke="#113291" stroke-width="0.320926" stroke-linecap="round"/>
<path d="M78.447 116.175C78.447 116.175 78.8225 115.533 79.0279 115.552C79.4678 115.695 79.8968 115.87 80.3116 116.075" stroke="#898989" stroke-width="0.320926" stroke-linecap="round"/>
<path d="M61.6401 102.391C61.6401 102.391 66.2069 117.366 65.6613 119.814C65.1158 122.263 65.5265 129.143 65.5265 129.143L61.8616 131.631C61.8616 131.631 63.8609 128.675 63.9572 127.362C64.0535 126.05 64.4932 125.578 63.463 124.721C62.4328 123.864 63.2416 121.239 63.0586 119.882C62.8757 118.524 62.5804 106.627 61.6401 102.391Z" fill="url(#paint17_linear_953_41378)"/>
<path d="M61.2263 99.2754C61.2263 99.2754 63.5691 115.87 62.9818 120.903C62.3945 125.935 64.9394 124.24 63.7584 128.114C63.4696 129.06 61.5472 131.833 61.5472 131.833" stroke="#113291" stroke-width="0.320926" stroke-linecap="round"/>
<path d="M48.0875 97.9913C48.0875 97.9913 50.2248 95.9438 50.9758 98.3925C51.7268 100.841 56.6883 109.227 53.832 113.364C50.9758 117.5 55.2602 119.814 54.9874 125.257C54.7146 130.7 51.4572 137.738 52.6414 139.538C53.8256 141.339 54.3905 140.613 54.7242 139.217C55.058 137.821 56.945 139.189 55.6388 141.307C54.3327 143.425 54.2396 145.556 57.6864 144.785C61.1331 144.015 68.5978 143.232 70.2827 141.759C71.9675 140.286 64.7692 146.153 60.1832 148.097C55.5971 150.042 54.3584 150.61 53.2833 149.734C51.3192 148.163 49.9026 146.011 49.2364 143.585C48.2191 140.103 48.402 138.065 48.0907 137.167C47.7794 136.268 48.4116 133.052 48.5271 132.439C48.9033 130.672 48.9251 128.847 48.5913 127.07C48.0939 124.182 45.9662 113.707 45.7543 112.34C45.5425 110.973 44.6953 105.88 45.4655 103.675C46.2357 101.47 48.0875 97.9913 48.0875 97.9913Z" fill="url(#paint18_linear_953_41378)"/>
<path d="M57.25 134.789C56.7254 135.68 56.4371 136.691 56.4123 137.725C56.4123 139.33 56.0048 141.656 54.644 142.337" stroke="#113291" stroke-width="0.320926" stroke-linecap="round"/>
<path d="M65.3438 145.751C65.3438 145.751 66.3418 150.739 67.9753 154.185C69.6089 157.632 66.5248 158.175 64.0761 158.627C61.6274 159.08 64.2687 163.727 63.6749 163.637C63.0812 163.547 58.5401 160.819 58.5883 159.144C58.6364 157.468 59.811 150.415 59.2301 148.534C59.2333 148.54 65.0613 146.021 65.3438 145.751Z" fill="url(#paint19_linear_953_41378)"/>
<path d="M72.6415 165.781C72.6415 165.781 68.0362 170.79 67.2531 171.467C66.4027 172.199 67.5965 175.639 67.6286 176.824C67.7441 180.996 67.6286 183.329 67.9078 184.632C68.5176 187.488 68.0651 193.03 68.0651 193.03L60.4976 190.803C60.4976 190.803 60.4046 175.11 60.1767 171.705C59.9489 168.3 59.4065 160.688 59.4065 160.688C59.4065 160.688 61.9482 162.899 63.7165 163.836C67.0221 165.598 72.6415 165.781 72.6415 165.781Z" fill="url(#paint20_linear_953_41378)"/>
<path d="M60.4977 190.428C60.6709 180.432 60.2605 170.434 59.2686 160.485" stroke="#113291" stroke-width="0.320926" stroke-linecap="round"/>
<path d="M67.6575 69.1914C67.6575 69.1914 68.4502 75.6741 67.4971 78.9861" stroke="#898989" stroke-width="0.320926" stroke-linecap="round"/>
<path d="M69.1787 126.858C69.1787 126.858 69.0568 126.611 69.5317 126.242C70.0067 125.873 71.0914 124.785 70.9823 125.35C70.8732 125.915 71.6466 128.097 72.7281 129.557C73.8097 131.018 75.1415 132.397 75.6678 132.507C76.1941 132.616 77.2725 132.648 77.1954 132.885C77.1184 133.123 76.4734 135.61 76.1332 135.665C75.3694 135.79 73.2224 134.153 72.327 133.097C71.4316 132.041 69.1787 126.858 69.1787 126.858Z" fill="#AFCAFF"/>
<path d="M71.2134 124.917C71.2134 124.917 71.5343 124.349 72.1473 125.141C72.4978 125.587 72.7821 126.081 72.9913 126.608" stroke="#113291" stroke-width="0.320926" stroke-linecap="round"/>
<path d="M69.0825 126.3C65.2795 129.721 60.7384 132.212 57.9849 134.208C56.5664 135.235 54.644 136.955 54.644 140.357" stroke="#113291" stroke-width="0.320926" stroke-linecap="round"/>
<path d="M77.0029 133.585C77.0029 133.585 78.5658 136.091 75.5234 135.459C72.481 134.827 70.4111 129.821 69.0503 126.544C68.8867 126.149 70.0613 125.53 70.3726 125.581" stroke="#113291" stroke-width="0.320926" stroke-linecap="round"/>
<path d="M54.3713 93.1548C51.4252 94.8782 47.8437 95.8602 45.4624 103.697C43.6941 109.522 49.9746 127.654 48.707 131.708C47.4393 135.761 48.4534 138.553 48.4534 140.074C48.4534 141.595 50.1896 148.675 54.1884 150.215C54.8302 150.466 69.2719 146.178 77.003 135.533" stroke="#113291" stroke-width="0.320926" stroke-linecap="round"/>
<path d="M49.0792 96.5983C49.0792 96.5983 55.9342 88.6137 59.8623 86.4603C61.7333 85.4333 63.0363 84.6727 64.2109 83.71" stroke="#113291" stroke-width="0.320926" stroke-linecap="round"/>
<path d="M80.9792 73.4917C80.9792 73.4917 79.8111 81.4667 81.4061 84.2908C81.6853 84.7819 81.6788 85.6195 82.9593 87.5579" stroke="#898989" stroke-width="0.320926" stroke-linecap="round"/>
<path d="M67.6319 69.7594C67.6319 69.7594 59.5766 63.6458 61.6691 60.4141C63.7615 57.1823 61.2358 53.2735 61.2358 53.2735C61.2358 53.2735 60.7865 45.9532 66.3706 45.2888C71.9547 44.6245 71.1845 36.4473 78.5048 40.8216C85.8251 45.1958 85.1576 49.1849 84.6024 49.3774C84.0472 49.57 82.4779 48.1387 76.7814 48.5302C71.085 48.9217 66.8327 50.2407 67.6319 51.3832C68.431 52.5257 71.0625 59.1464 68.7102 59.8139C68.7102 59.8139 67.0221 58.3537 66.0529 58.5302C65.0837 58.7067 64.8719 59.3197 64.7692 60.6098C64.6665 61.8999 65.0356 64.0662 65.886 64.9327C66.3975 65.4527 66.9659 65.9135 67.5805 66.3063C67.5805 66.3063 68.7262 65.6131 68.1485 69.1497L67.6319 69.7594Z" fill="#0D2265"/>
<path d="M83.5498 49.1558C83.5498 49.1558 87.3335 64.4061 86.759 67.4485C86.3851 69.2282 85.4086 70.8243 83.9942 71.9674C82.5798 73.1104 80.8143 73.7304 78.9958 73.7226C74.6858 73.7226 71.6434 70.3946 71.6434 70.3946" stroke="#898989" stroke-width="0.320926" stroke-linecap="round"/>
<path d="M77.7153 91.6721C78.6332 92.0123 82.2083 93.3056 82.7089 92.7697C83.2369 92.2129 83.6347 91.5458 83.8733 90.8165C84.112 90.0872 84.1856 89.314 84.0889 88.5527" stroke="#113291" stroke-width="0.320926" stroke-linecap="round"/>
<path d="M69.381 60.3725C69.381 60.3725 63.1679 54.6151 65.1865 63.4566C65.6936 65.6838 68.2481 66.7204 68.2481 66.7204" stroke="#113291" stroke-width="0.320926" stroke-linecap="round"/>
<path d="M106.377 120.315C106.377 120.315 106.567 119.317 106.788 118.229C107.009 117.141 107.484 115.36 109.493 114.753" stroke="#113291" stroke-width="0.320926" stroke-linecap="round"/>
<path d="M98.5241 91.3418C98.5241 91.3418 102.074 92.1602 102.902 96.5986C103.73 101.037 104.079 104.898 104.766 106.547C105.453 108.197 108.37 114.336 108.534 114.57C108.697 114.805 108.778 115.023 109.067 114.946C109.355 114.869 113.402 112.452 115.973 110.026C118.543 107.6 121.788 103.928 122.202 103.537C122.616 103.145 123.582 101.955 123.328 102.847C123.165 103.415 124.773 107.982 128.065 107.77C128.778 107.722 130.674 108.454 128.826 110.8C126.977 113.145 122.706 118.332 121.034 120.318C119.362 122.305 114.006 128.983 112.786 129.946C111.567 130.909 109.233 132.995 106.368 133.226C103.502 133.457 102.292 131.044 100.62 128.219C98.9478 125.395 94.933 118.322 94.933 118.322L98.5241 91.3418Z" fill="#EAF4FF"/>
<path d="M129.012 110.543C126.724 113.723 113.21 129.555 113.21 129.555C113.21 129.555 109.468 133.297 105.129 133.329C102.921 133.329 97.218 122.218 97.218 122.218" stroke="#113291" stroke-width="0.320926" stroke-linecap="round"/>
<path d="M97.9914 109.205C97.9914 109.205 97.4908 116.178 97.3143 120.604C97.0993 125.976 96.2392 131.352 96.9934 133.72C97.7475 136.089 99.8464 158.351 99.2976 158.858C90.4112 167.016 64.9586 168.72 59.2622 160.485C57.8051 158.383 59.6697 157.831 59.2622 150.251" stroke="#113291" stroke-width="0.320926" stroke-linecap="round"/>
<path d="M83.4407 117.808C83.4407 117.808 82.08 118.373 81.7558 118.941C81.4317 119.509 82.2148 122.385 82.295 123.142C82.3752 123.9 82.08 127.635 81.7558 127.783C81.4317 127.93 78.4343 128.941 78.001 130.171C77.5678 131.4 77.6993 132.571 76.5119 132.674C75.3245 132.776 72.8951 129.509 72.3078 128.922C71.7205 128.335 71.6499 127.959 72.096 127.507C72.5421 127.054 74.3842 125.398 74.381 124.911C74.3778 124.423 73.5947 122.593 73.9606 121.31C74.3264 120.026 74.9907 117.353 75.3084 116.798C75.6262 116.242 77.1409 114.105 77.7603 113.749C78.3797 113.393 78.7231 113.271 78.4471 114.464C78.1711 115.658 78.0491 116.579 78.216 116.621C78.3829 116.663 82.6191 115.488 82.3014 115.7C81.9837 115.912 81.9837 117.985 83.4407 117.808Z" fill="url(#paint21_linear_953_41378)"/>
<path d="M71.7557 127.844C74.8013 124.901 74.4708 124.615 74.4708 124.615C74.4708 124.615 74.0183 123.877 73.9605 121.31C73.9027 118.742 76.2262 114.317 78.3796 113.392C78.8033 113.21 81.3161 114.115 82.2917 114.31C82.2917 114.31 82.4458 114.952 81.5183 115.594" stroke="#898989" stroke-width="0.320926" stroke-linecap="round"/>
<path d="M77.0029 132.821C77.6448 131.425 77.8438 130.154 78.707 129.391C79.5703 128.627 82.2982 127.523 83.5819 127.093C84.8656 126.663 84.5832 123.781 85.0132 123.046C85.4433 122.311 84.7822 120.43 84.8752 119.782C84.9683 119.134 84.4901 117.857 84.5543 117.857C84.6185 117.857 87.1217 116.284 87.5165 116.088C88.2642 115.703 91.3323 113.543 92.0961 113.072C92.8599 112.6 93.3445 110.427 89.7565 112.211C88.8964 112.645 85.5042 114.667 81.5151 115.591C80.9728 115.716 79.0889 116.743 78.6108 116.65" stroke="#898989" stroke-width="0.320926" stroke-linecap="round"/>
<path d="M69.0825 126.596C69.0825 126.596 71.3611 124.811 71.2135 124.917C70.302 125.559 72.2115 128.794 73.1101 130.155C74.0087 131.515 76.3194 133.136 77.2212 132.773C77.2212 132.773 76.8265 134.574 76.1333 135.533" stroke="#113291" stroke-width="0.320926" stroke-linecap="round" stroke-linejoin="round"/>
<path d="M126.602 110.517L128.078 107.766C127.026 109.188 124.439 105.966 123.643 104.416C122.847 102.866 123.268 103.078 123.268 103.078L122.555 103.768C122.555 103.768 121.913 104.185 122.074 105.494C122.234 106.804 124.875 109.483 125.745 110.09C126.615 110.696 126.602 110.517 126.602 110.517Z" fill="#AFCAFF"/>
<path d="M122.629 103.534L123.341 102.844C123.341 102.844 122.921 102.635 123.717 104.185C124.513 105.735 127.099 108.957 128.152 107.533L126.673 110.286" stroke="#113291" stroke-width="0.320926" stroke-linecap="round" stroke-linejoin="round"/>
<path d="M84.5543 85.3467C89.6153 87.3364 99.5223 89.8749 101.942 93.9379C103.527 96.5983 104.012 104.329 104.509 105.851C105.007 107.372 108.396 114.978 108.903 114.978C109.41 114.978 115.459 111.711 122.77 102.969C122.77 102.969 121.701 104.031 122.128 105.26C123.935 110.356 128.672 111.133 129.006 110.543" stroke="#113291" stroke-width="0.320926" stroke-linecap="round"/>
<path d="M122.963 102.744C122.963 102.744 123.797 102.234 124.041 103.017" stroke="#113291" stroke-width="0.320926" stroke-linecap="round"/>
<path d="M77.2115 66.146C79.4324 67.6319 82.1891 67.7763 84.0729 66.6916" stroke="#9C9C9C" stroke-width="0.320926" stroke-linecap="round"/>
<path d="M80.7674 66.4315C80.3473 66.6837 79.8993 66.8862 79.4324 67.0349C82.0415 67.574 83.5659 66.7813 83.4183 66.7621C83.1413 66.5983 82.8839 66.4034 82.6513 66.1812C82.571 66.1202 82.5004 66.1459 82.0383 66.3224C81.5762 66.4989 81.0274 66.2133 80.7674 66.4315Z" fill="#9C9C9C"/>
<path d="M74.9202 53.5944C73.7841 54.3101 73.2546 54.9135 72.5068 55.52C71.5793 56.2613 72.0671 56.3833 72.6801 56.1458C74.2662 55.5659 75.8936 55.1057 77.5486 54.769C78.5113 54.5476 78.0299 53.7613 77.8695 53.02C77.6224 52.667 77.6545 53.9603 77.4715 53.9828C77.2886 54.0052 77.2533 53.2671 77.1506 53.1259C77.0479 52.9847 75.9536 52.9526 74.9202 53.5944Z" fill="#0E1E66"/>
<path d="M83.476 53.6332C83.9796 53.9275 84.4098 54.3325 84.734 54.8174C84.8431 55.0228 84.3681 55.0356 83.7006 54.7564C83.0427 54.336 81.3161 54.5285 81.1043 54.3456C80.8925 54.1627 80.992 52.8084 81.1653 52.6896C81.3386 52.5709 81.114 53.5529 81.4573 53.5882C81.5921 53.5882 81.4349 52.8084 81.7333 52.7346C82.0318 52.6608 83.0074 53.37 83.476 53.6332Z" fill="#0E1E66"/>
<path d="M80.3469 68.5241C81.2374 68.6221 82.1385 68.5257 82.9881 68.2417" stroke="#9C9C9C" stroke-width="0.320926" stroke-linecap="round"/>
<path d="M82.5999 62.4937C82.2789 62.314 79.2975 63.5271 79.028 63.617C80.3997 63.964 81.8423 63.9094 83.1839 63.4597C83.1454 63.3153 82.8502 62.6381 82.5999 62.4937Z" fill="#9C9C9C"/>
<path d="M74.4131 58.4084C74.4131 58.4084 75.4978 56.0496 77.8855 56.4507" stroke="#113291" stroke-width="0.320926" stroke-linecap="round"/>
<path d="M81.5986 56.6851C81.8764 56.3484 82.2408 56.094 82.6525 55.9492C83.0642 55.8045 83.5076 55.7748 83.935 55.8635" stroke="#113291" stroke-width="0.320926" stroke-linecap="round"/>
<path d="M77.3143 58.5476C77.6965 58.5246 77.9753 57.9911 77.9372 57.3559C77.899 56.7208 77.5582 56.2245 77.1761 56.2475C76.7939 56.2704 76.5151 56.804 76.5533 57.4391C76.5914 58.0743 76.9322 58.5705 77.3143 58.5476Z" fill="#113291"/>
<path d="M83.0745 57.9649C83.4089 57.9448 83.6518 57.4595 83.617 56.881C83.5822 56.3025 83.283 55.8498 82.9486 55.8699C82.6142 55.89 82.3713 56.3752 82.4061 56.9538C82.4409 57.5323 82.7402 57.985 83.0745 57.9649Z" fill="#113291"/>
<path d="M34.5156 114.984L0.272827 118.094V110.501L34.5156 108.248V114.984Z" fill="#4F92FD"/>
<path d="M34.5156 134.638L16.3256 136.981V135.533L34.5156 133.329V134.638Z" fill="#4F92FD"/>
<path d="M34.5156 137.821L11.1458 140.835V139.814L34.5156 136.98V137.821Z" fill="#4F92FD"/>
<path d="M34.5156 140.078L15.5521 142.542V141.525L34.5156 139.237V140.078Z" fill="#4F92FD"/>
<path d="M34.5156 144.333L20.0515 146.567V145.546L34.5156 143.492V144.333Z" fill="#4F92FD"/>
<path d="M34.5156 146.499L14.3165 149.606V148.659L34.5156 145.658V146.499Z" fill="#4F92FD"/>
<path d="M37.6124 163.479V125.578L15.3434 127.914" stroke="url(#paint22_linear_953_41378)" stroke-width="0.320926" stroke-miterlimit="10"/>
<path d="M18.3153 124.15L15.228 127.95L18.3153 130.514" stroke="url(#paint23_linear_953_41378)" stroke-width="0.320926" stroke-miterlimit="10"/>
<path d="M231.464 103.717C231.464 103.717 232.658 106.669 233.034 107.484C233.409 108.3 238.169 111.188 238.489 111.692C238.81 112.196 243.011 115.755 243.011 115.755" stroke="#3269E0" stroke-width="0.320926" stroke-miterlimit="10"/>
<path d="M237.995 108.238C237.995 108.238 238.621 108.88 239.125 108.238C239.629 107.597 239.626 106.165 239.565 106.008C239.504 105.851 236.298 105.726 236.298 105.35C236.298 104.975 235.797 104.22 236.866 104.281C237.934 104.342 240.255 104.025 240.505 104.281C240.755 104.538 243.018 108.492 243.018 109.435C243.018 109.435 242.954 110.626 243.339 111.066C243.724 111.505 244.622 112.991 244.622 112.991" stroke="#3269E0" stroke-width="0.320926" stroke-miterlimit="10"/>
<path d="M275.059 109.403C275.197 108.868 275.283 108.321 275.316 107.77C275.316 107.715 275.28 107.731 275.223 107.799C275.45 104.84 275.377 100.761 273.64 100.183C273.64 100.183 270.752 100.732 270.624 102.802C270.495 104.872 269.494 113.476 266.795 112.109C264.096 110.742 263.342 121.149 262.463 121.778C261.583 122.407 260.582 122.298 259.574 120.783C258.567 119.269 261.744 125.597 257.649 125.735C253.554 125.873 250.267 122.597 248.085 121.152C245.903 119.708 244.378 118.293 245.007 119.596C245.636 120.899 253.21 128.415 254.651 129.333C256.092 130.251 258.104 131.403 260.515 129.975C262.925 128.547 265.027 126.923 267.167 123.389C267.488 122.834 267.922 122.176 268.387 121.464C268.502 121.871 269.783 126.65 266.42 129.137C262.889 131.73 257.312 133.405 261.532 135.581C265.752 137.757 267.591 138.47 266.346 140.793C265.406 142.536 263.615 143.553 261.975 143.928C264.298 143.787 268.165 143.569 269.334 143.287C271.224 142.834 271.131 142.815 271.416 141.74C271.702 140.665 270.2 134.484 270.351 132.25C270.809 127.476 271.639 122.745 272.835 118.1C273.666 115.048 274.395 112.288 274.844 110.369C274.929 110.116 274.994 109.856 275.036 109.593C275.033 109.535 275.053 109.467 275.059 109.403Z" fill="url(#paint24_linear_953_41378)"/>
<path d="M260.412 144.095C260.934 144.104 261.454 144.048 261.962 143.928C260.531 144.012 259.687 144.069 260.412 144.095Z" fill="url(#paint25_linear_953_41378)"/>
<path d="M260.222 121.8C260.222 121.8 260.412 119.917 256.455 118.973C252.498 118.03 245.466 111.682 245.466 111.682C245.466 111.682 242.514 116.203 242.642 116.736C242.771 117.269 253.127 128.761 255.765 130.077C258.403 131.393 261.359 129.891 263.788 127.882C266.217 125.873 272.639 113.88 272.639 113.88" stroke="#3269E0" stroke-width="0.320926" stroke-miterlimit="10"/>
<path d="M268.878 94.1367C268.878 94.1367 271.965 97.3749 272.841 98.6939C273.717 100.013 277.363 102.147 274.35 112.571C271.336 122.994 270.332 129.259 270.332 132.789C270.332 136.319 271.837 140.95 271.211 142.834C271.211 142.834 267.819 144.092 260.412 144.092C253.005 144.092 248.73 141.579 248.73 141.579C248.071 140.338 247.699 138.965 247.639 137.561C247.475 135.048 249.565 126.387 249.825 124.753" stroke="#3269E0" stroke-width="0.320926" stroke-miterlimit="10"/>
<path d="M259.908 74.0148C259.908 74.0148 258.303 73.2606 257.783 75.0803C257.264 76.8999 255.216 82.9718 260.463 87.6284L261.866 86.4025C261.866 86.4025 262.209 87.0444 261.567 88.2639C260.925 89.4834 259.908 89.1785 259.908 89.1785C259.908 89.1785 259.703 88.3281 259.542 88.3377C259.382 88.3473 258.502 89.1978 257.8 88.5752C257.097 87.9526 255.575 85.26 254.969 81.4635C254.362 77.6669 254.542 76.0334 254.648 75.5937C254.754 75.1541 255.887 74.1175 257.215 73.9891C258.112 73.927 259.013 73.9356 259.908 74.0148Z" fill="url(#paint26_linear_953_41378)"/>
<path d="M262 86.2387C261.75 86.2387 260.097 88.4852 258.287 88.7516C256.477 89.0179 254.346 80.6321 254.513 76.9479C254.632 74.3388 255.303 71.0878 260.913 71.2547C266.522 71.4216 269.285 73.0968 267.944 80.9659C266.603 88.835 267.187 91.6784 267.187 91.6784" stroke="#3269E0" stroke-width="0.320926" stroke-miterlimit="10"/>
<path d="M254.048 76.027C254.048 76.027 257.02 72.4262 259.844 74.6855C262.668 76.9448 261.737 79.7112 261.577 80.2953C261.416 80.8794 262.588 78.8736 263.088 79.5411C263.589 80.2086 263.592 82.2209 262.588 82.6413C261.583 83.0617 262.755 83.5623 262.755 83.5623C262.953 83.2262 263.26 82.9676 263.625 82.8289C263.99 82.6901 264.392 82.6794 264.764 82.7985C266.102 83.2157 267.69 83.1194 268.294 82.7151C268.897 82.3107 269.468 80.2022 268.615 79.1143C267.761 78.0264 272.341 77.1053 269.898 74.5924C267.456 72.0796 270.797 71.4955 266.368 70.3241C261.939 69.1528 260.508 65.8023 259.083 67.561C257.658 69.3196 257.158 71.1489 255.316 71.2388C253.473 71.3286 250.784 74.018 254.048 76.027Z" fill="#3A66C9" stroke="#3269E0" stroke-width="0.320926" stroke-miterlimit="10"/>
<path d="M173.537 92.9142L210.864 92.0445V79.8301L173.537 82.6093V92.9142Z" fill="#FF7F00"/>
<path opacity="0.77" d="M181.597 87.9232C181.804 86.0648 180.625 84.4082 178.964 84.2231C177.303 84.0379 175.788 85.3944 175.581 87.2528C175.374 89.1112 176.553 90.7678 178.214 90.9529C179.875 91.1381 181.389 89.7816 181.597 87.9232Z" stroke="#E8F1FF" stroke-width="0.320926" stroke-miterlimit="10"/>
<path d="M184.08 85.9275C184.08 85.9275 187.26 83.9185 187.61 84.5861C187.96 85.2536 188.865 85.6323 189.827 84.6278C190.79 83.6233 191.586 86.7523 193.845 85.1894C196.105 83.6265 196.358 86.2613 198.91 85.0065C201.461 83.7516 201.066 85.6034 203.316 84.4256C205.566 83.2478 204.898 85.5488 206.865 84.7112" stroke="url(#paint27_linear_953_41378)" stroke-width="0.320926" stroke-miterlimit="10"/>
<path d="M184.102 89.0858C184.924 88.5562 186.859 87.571 187.209 88.0203C187.559 88.4696 187.209 89.2751 190.026 88.3412C192.844 87.4073 190.347 88.9606 192.87 88.2481C195.392 87.5357 193.679 88.9863 196.153 88.3123C198.627 87.6384 196.997 88.8643 199.481 88.0267C201.965 87.1891 200.396 89.0569 202.918 88.0877" stroke="url(#paint28_linear_953_41378)" stroke-width="0.320926" stroke-miterlimit="10"/>
<path d="M24.0759 29.6504V31.4091L25.78 31.6465V29.9488L24.0759 29.6504Z" fill="white"/>
<path d="M24.0759 33.7485V35.5072L25.78 35.6677V33.9828L24.0759 33.7485Z" fill="white"/>
<path d="M24.0759 43.9761V54.0018L41.2551 55.7797V45.831L24.0759 43.9761Z" stroke="white" stroke-width="0.320926" stroke-miterlimit="10"/>
<path d="M27.2306 30.2793L38.1132 31.9545" stroke="white" stroke-width="0.320926" stroke-miterlimit="10"/>
<path d="M27.2306 31.9546L33.6555 32.943" stroke="white" stroke-width="0.320926" stroke-miterlimit="10"/>
<path d="M27.2306 34.708L38.1132 36.3832" stroke="white" stroke-width="0.320926" stroke-miterlimit="10"/>
<path d="M27.2306 36.3833L31.6241 37.0605" stroke="white" stroke-width="0.320926" stroke-miterlimit="10"/>
<path d="M27.2306 38.209L40.0804 39.8842" stroke="white" stroke-width="0.320926" stroke-miterlimit="10"/>
<path d="M27.2306 39.8848L36.3064 41.0658" stroke="white" stroke-width="0.320926" stroke-miterlimit="10"/>
<path opacity="0.77" d="M134.843 103.88C148.126 103.88 158.894 93.1125 158.894 79.8299C158.894 66.5474 148.126 55.7798 134.843 55.7798C121.561 55.7798 110.793 66.5474 110.793 79.8299C110.793 93.1125 121.561 103.88 134.843 103.88Z" stroke="#E8F1FF" stroke-width="0.641851" stroke-miterlimit="10" stroke-dasharray="3.85 3.85"/>
<path d="M27.259 73.3858C28.4626 72.6261 28.7956 70.9921 28.0028 69.7361C27.21 68.48 25.5916 68.0777 24.3881 68.8374C23.1845 69.597 22.8515 71.2311 23.6443 72.4871C24.4371 73.7431 26.0555 74.1455 27.259 73.3858Z" stroke="white" stroke-width="0.320926" stroke-miterlimit="10"/>
<path d="M39.9846 76.3658C41.1882 75.6061 41.5212 73.972 40.7284 72.716C39.9356 71.46 38.3172 71.0577 37.1137 71.8173C35.9101 72.577 35.5771 74.2111 36.3699 75.4671C37.1627 76.7231 38.7811 77.1254 39.9846 76.3658Z" stroke="white" stroke-width="0.320926" stroke-miterlimit="10"/>
<path d="M33.9444 83.6749C34.1915 84.1119 34.3051 84.6118 34.2711 85.1127C34.2371 85.6137 34.057 86.0936 33.753 86.4932C33.449 86.8928 33.0345 87.1945 32.5609 87.361C32.0872 87.5274 31.5751 87.5514 31.088 87.4298C30.6008 87.3082 30.16 87.0465 29.8201 86.677C29.4802 86.3075 29.2561 85.8464 29.1755 85.3509C29.0949 84.8553 29.1614 84.347 29.3667 83.8888C29.5721 83.4306 29.9072 83.0427 30.3307 82.7731C30.6272 82.5948 30.9558 82.4766 31.2979 82.4255C31.6401 82.3743 31.9889 82.391 32.3245 82.4748C32.6602 82.5585 32.976 82.7077 33.2539 82.9136C33.5319 83.1195 33.7665 83.3782 33.9444 83.6749Z" stroke="white" stroke-width="0.320926" stroke-miterlimit="10"/>
<path d="M26.6946 73.646L30.5361 82.6608" stroke="white" stroke-width="0.320926" stroke-miterlimit="10"/>
<path d="M28.6169 71.4507L35.9629 73.6458" stroke="white" stroke-width="0.320926" stroke-miterlimit="10"/>
<path d="M36.5245 94.1367H41.547" stroke="white" stroke-width="0.320926" stroke-miterlimit="10"/>
<path d="M32.1183 91.7847L41.5471 91.9708" stroke="white" stroke-width="0.320926" stroke-miterlimit="10"/>
<path d="M2.70215 114.92L5.02565 111.906L8.03914 114.544L9.98395 111.906L12.8113 114.23L14.8203 111.406L17.6444 113.854L19.907 110.966L22.7953 113.54L24.9295 110.966L27.5033 112.943L29.9519 110.212" stroke="url(#paint29_linear_953_41378)" stroke-width="0.320926" stroke-miterlimit="10"/>
<path opacity="0.26" d="M190.11 77.7279L223.971 75.061V54.1206L190.11 59.5699V77.7279Z" fill="#4F92FD"/>
<path opacity="0.26" d="M277.764 101.66L311.625 101.185V40.8765L277.764 46.3258V101.66Z" fill="#4F92FD"/>
<path d="M277.764 73.8575C277.764 73.8575 284 58.7291 287.139 64.249C290.277 69.7689 289.86 84.5796 294.128 84.0822C301.214 83.2574 303.506 46.5018 311.625 45.2759V101.184L277.764 101.659V73.8575Z" fill="url(#paint30_linear_953_41378)"/>
<path d="M282.735 44.6982C282.851 45.2759 282.735 101.685 282.735 101.685" stroke="url(#paint31_linear_953_41378)" stroke-width="0.320926" stroke-miterlimit="10"/>
<path d="M288.669 43.7324C288.785 44.2876 288.669 98.4823 288.669 98.4823" stroke="url(#paint32_linear_953_41378)" stroke-width="0.320926" stroke-miterlimit="10"/>
<path d="M294.722 42.7666C294.838 43.3346 294.722 98.5563 294.722 98.5563" stroke="url(#paint33_linear_953_41378)" stroke-width="0.320926" stroke-miterlimit="10"/>
<path d="M300.672 41.8105C300.788 42.3754 300.672 97.3596 300.672 97.3596" stroke="url(#paint34_linear_953_41378)" stroke-width="0.320926" stroke-miterlimit="10"/>
<path d="M306.622 40.8506C306.737 41.4186 306.622 96.759 306.622 96.759" stroke="url(#paint35_linear_953_41378)" stroke-width="0.320926" stroke-miterlimit="10"/>
<path opacity="0.77" d="M283.475 65.1516C283.533 64.632 283.253 64.1742 282.85 64.1293C282.447 64.0843 282.073 64.4691 282.015 64.9888C281.957 65.5084 282.237 65.9661 282.64 66.0111C283.044 66.0561 283.418 65.6712 283.475 65.1516Z" stroke="#E8F1FF" stroke-width="0.320926" stroke-miterlimit="10"/>
<path opacity="0.77" d="M307.38 51.2746C307.438 50.755 307.158 50.2973 306.755 50.2523C306.351 50.2074 305.977 50.5922 305.919 51.1118C305.861 51.6315 306.141 52.0892 306.545 52.1341C306.948 52.1791 307.322 51.7943 307.38 51.2746Z" stroke="#E8F1FF" stroke-width="0.320926" stroke-miterlimit="10"/>
<path opacity="0.77" d="M301.268 71.9626C301.326 71.443 301.046 70.9853 300.642 70.9403C300.239 70.8954 299.865 71.2802 299.807 71.7998C299.749 72.3195 300.029 72.7772 300.433 72.8221C300.836 72.8671 301.21 72.4823 301.268 71.9626Z" stroke="#E8F1FF" stroke-width="0.320926" stroke-miterlimit="10"/>
<path opacity="0.77" d="M289.421 68.6975C289.479 68.1779 289.199 67.7201 288.795 67.6752C288.392 67.6302 288.018 68.015 287.96 68.5347C287.902 69.0543 288.182 69.512 288.586 69.557C288.989 69.602 289.363 69.2171 289.421 68.6975Z" stroke="#E8F1FF" stroke-width="0.320926" stroke-miterlimit="10"/>
<path opacity="0.77" d="M295.501 84.0203C295.558 83.5006 295.278 83.0429 294.875 82.9979C294.472 82.953 294.098 83.3378 294.04 83.8574C293.982 84.3771 294.262 84.8348 294.665 84.8798C295.069 84.9247 295.443 84.5399 295.501 84.0203Z" stroke="#E8F1FF" stroke-width="0.320926" stroke-miterlimit="10"/>
<path d="M170.135 102.799L227.754 94.1592" stroke="url(#paint36_linear_953_41378)" stroke-width="0.320926" stroke-miterlimit="10"/>
<path d="M168.229 124.664L168.335 104.962" stroke="url(#paint37_linear_953_41378)" stroke-width="0.320926" stroke-miterlimit="10"/>
<path d="M127.982 164.708L165.7 129.509" stroke="url(#paint38_linear_953_41378)" stroke-width="0.320926" stroke-miterlimit="10"/>
<path d="M120.918 181.04C126.298 181.04 130.658 176.679 130.658 171.3C130.658 165.921 126.298 161.56 120.918 161.56C115.539 161.56 111.178 165.921 111.178 171.3C111.178 176.679 115.539 181.04 120.918 181.04Z" stroke="url(#paint39_linear_953_41378)" stroke-width="1.92555" stroke-miterlimit="10"/>
<path opacity="0.26" d="M42.7333 127.88C44.3236 124.221 43.3211 120.259 40.4943 119.03C37.6675 117.802 34.0867 119.772 32.4965 123.431C30.9062 127.09 31.9087 131.053 34.7355 132.281C37.5623 133.51 41.143 131.539 42.7333 127.88Z" fill="#4F92FD"/>
<path d="M198.069 159.965C203.448 159.965 207.809 155.604 207.809 150.225C207.809 144.846 203.448 140.485 198.069 140.485C192.69 140.485 188.329 144.846 188.329 150.225C188.329 155.604 192.69 159.965 198.069 159.965Z" stroke="url(#paint40_linear_953_41378)" stroke-width="0.320926" stroke-miterlimit="10"/>
<path d="M167.905 130.585C169.568 130.585 170.915 129.237 170.915 127.574C170.915 125.912 169.568 124.564 167.905 124.564C166.243 124.564 164.895 125.912 164.895 127.574C164.895 129.237 166.243 130.585 167.905 130.585Z" stroke="url(#paint41_linear_953_41378)" stroke-width="0.641851" stroke-miterlimit="10"/>
<path d="M168.338 105.042C169.315 105.042 170.107 104.25 170.107 103.274C170.107 102.297 169.315 101.505 168.338 101.505C167.362 101.505 166.57 102.297 166.57 103.274C166.57 104.25 167.362 105.042 168.338 105.042Z" stroke="url(#paint42_linear_953_41378)" stroke-width="0.320926" stroke-miterlimit="10"/>
<path d="M170.216 115.462C170.216 115.462 170.11 115.219 170.508 115C170.906 114.782 172.815 113.717 173.075 113.768C173.335 113.819 176.426 117.189 176.426 117.189C176.426 117.189 175.915 117.17 175.915 117.308C175.943 117.51 176.024 117.701 176.15 117.862C176.277 118.022 176.444 118.145 176.634 118.219C177.202 118.437 177.632 118.415 178.12 118.861C178.608 119.307 179.243 119.862 179.083 120.337C178.922 120.812 177.6 122.863 177.35 123.004C177.1 123.145 176.41 122.305 176.134 122.006C175.858 121.708 170.915 116.313 170.633 116.101C170.435 115.933 170.29 115.711 170.216 115.462Z" fill="#3A66C9"/>
<path d="M174.218 118.2C174.218 118.2 173.415 117.632 172.818 117.651C172.221 117.671 172.132 117.915 172.177 118.373C172.221 118.832 173.139 120.094 173.682 120.658C174.224 121.223 175.286 121.519 175.286 121.3C175.286 121.082 175.097 121.031 174.997 120.812C174.898 120.594 174.876 120.392 175.132 120.418C175.389 120.443 176.394 120.01 175.941 119.648C175.488 119.285 174.218 118.2 174.218 118.2Z" fill="#F8FBFF"/>
<path d="M201.121 173.941L201.625 176.509C202.307 178.044 203.068 179.544 203.903 181.002C205.267 183.364 203.939 195.739 203.939 195.739L201.333 195.874C201.333 195.874 200.325 188.033 199.086 183.418C197.847 178.803 195.479 171.307 195.479 171.307L201.121 173.941Z" fill="white"/>
<path d="M209.686 173.941L210.187 176.509C210.187 176.509 211.772 180.093 212.754 182.635C213.371 184.24 210.935 195.27 210.935 195.27L207.726 195.575C207.726 195.575 207.764 187.873 206.91 182.982C206.092 178.274 204.051 171.297 204.051 171.297L209.686 173.941Z" fill="white"/>
<path d="M194.856 139.734C194.856 139.734 196.75 141.775 200.672 142.504C204.593 143.232 208.653 140.854 208.653 140.854C208.653 140.854 211.744 147.446 212.302 150.803C212.86 154.16 212.876 156.686 214.199 160.431C215.521 164.176 219.41 173.024 219.41 173.024C219.41 173.024 216.631 174.035 215.126 174.68C213.621 175.325 212.527 177.411 209.349 178.589C206.172 179.767 205.386 179.426 203.894 178.736C202.401 178.046 198.072 175.489 196.439 173.836C194.805 172.183 194.375 171.926 194.375 171.926C194.375 171.926 193.765 154.077 193.788 151.288C193.81 148.499 194.035 142.215 194.378 141.073C194.493 140.612 194.653 140.164 194.856 139.734Z" fill="#398AEA"/>
<path d="M202.562 142.674C202.562 142.674 204.382 154.57 205.701 157.821C207.02 161.072 207.735 179.169 207.735 179.169C207.735 179.169 210.813 178.37 212.411 176.734C214.009 175.097 218.101 173.329 218.772 173.3C219.443 173.271 219.638 173.158 219.375 172.751C219.112 172.343 214.52 162.321 213.733 158.839C212.947 155.357 212.639 151.191 211.57 148.742C210.502 146.294 208.682 140.848 208.682 140.848C208.682 140.848 204.365 142.812 202.562 142.674Z" fill="url(#paint43_linear_953_41378)"/>
<path d="M198.403 120.232C198.371 120.068 197.6 115.886 196.666 115.973C195.733 116.06 193.874 116.641 192.924 117.536C191.975 118.431 192.52 120.293 192.408 122.051C192.295 123.81 192.106 125.745 191.528 127.093C190.951 128.441 190.363 130.748 190.245 130.752C190.126 130.755 185.62 126.339 184.641 125.245C183.88 124.43 183.182 123.558 182.555 122.635C182.492 122.509 182.385 122.409 182.254 122.355C182.123 122.302 181.977 122.297 181.843 122.343C181.628 122.44 180.412 123.425 180.238 124.137C180.065 124.85 179.324 128.309 179.256 129.545C179.189 130.781 179.166 132.372 179.507 133.075C179.847 133.778 179.869 133.634 180.415 133.678C180.96 133.723 184.266 133.839 186.063 134.147C187.86 134.455 188.701 135.094 189.76 135.591C190.819 136.089 191.294 136.554 192.199 135.864C193.104 135.174 194.481 131.75 194.767 131.259C195.052 130.768 195.116 130.54 195.193 130.768C195.734 132.164 195.911 133.675 195.707 135.158C195.386 137.703 195.226 138.897 195.12 139.221C195.014 139.545 194.856 139.542 195.084 139.863C195.312 140.184 197.283 141.91 200.027 142.43C202.77 142.95 206.744 141.772 207.729 141.307C208.714 140.842 208.765 140.832 208.717 140.71C208.535 138.831 208.592 136.936 208.887 135.071C209.343 132.43 210.12 128.797 210.136 128.598C210.152 128.399 210.235 128.338 210.277 128.502C210.608 129.404 210.866 130.331 211.047 131.275C211.192 132.575 211.267 133.882 211.272 135.19C211.289 136.479 210.94 137.747 210.264 138.845C209.237 140.54 208.188 141.532 207.886 142.151C207.584 142.77 206.756 144.012 206.663 144.198C206.57 144.385 206.663 144.42 206.76 144.452C206.856 144.484 208.265 144.898 208.592 147.202C208.919 149.507 208.73 151.172 208.778 152.459C208.826 153.746 208.919 154.5 209.359 154.555C209.799 154.609 210.235 153.855 210.392 153.563C210.55 153.271 211.711 150.257 212.17 149.173C212.629 148.088 214.33 142.851 214.885 141.098C215.441 139.346 216.355 136.48 216.593 135.277C216.83 134.073 217.064 133.627 216.734 132.809C216.403 131.99 215.45 124.301 214.892 122.292C214.333 120.283 214.33 119.06 213.059 118.069C211.788 117.077 210.264 116.644 209.747 116.836C209.231 117.029 204.686 120.562 203.55 121.519C202.414 122.475 198.563 121.079 198.403 120.232Z" fill="#5094F9"/>
<path d="M182.639 124.589C182.639 124.589 180.832 121.159 180.569 120.905C180.306 120.652 180.797 119.422 179.638 118.418C178.48 117.413 178.252 117.969 177.427 117.648C176.602 117.327 175.957 117.141 175.906 117.308C175.914 117.5 175.98 117.685 176.094 117.839C176.208 117.993 176.366 118.11 176.548 118.174C177.023 118.363 177.873 118.53 178.043 118.716C178.213 118.903 179.221 119.904 179.112 120.093C179.003 120.283 177.668 122.58 177.668 122.58C177.668 122.58 178.335 122.58 178.425 122.702C178.515 122.824 182.08 127.648 182.08 127.648L182.639 124.589Z" fill="#E6F0FF"/>
<path d="M202.052 177.841C202.052 177.841 204.471 181.22 204.471 182.976C204.471 184.731 203.939 195.729 203.939 195.729" stroke="#3269E0" stroke-width="0.320926" stroke-miterlimit="10"/>
<path d="M176.782 117.459L173.252 113.787C173.199 113.731 173.129 113.695 173.053 113.683C172.976 113.672 172.899 113.686 172.831 113.723L170.328 115.106C170.278 115.134 170.234 115.173 170.2 115.22C170.167 115.267 170.144 115.321 170.134 115.378C170.124 115.435 170.126 115.493 170.142 115.549C170.157 115.605 170.184 115.656 170.222 115.7C170.639 116.175 171.387 117.022 172.148 117.86" stroke="#3269E0" stroke-width="0.320926" stroke-miterlimit="10"/>
<path d="M174.815 120.598L175.838 121.727L177.013 122.992C177.047 123.029 177.09 123.058 177.137 123.076C177.185 123.094 177.236 123.1 177.286 123.095C177.336 123.089 177.385 123.072 177.427 123.044C177.469 123.016 177.505 122.978 177.53 122.934L179.134 120.248C179.169 120.189 179.183 120.12 179.176 120.052C179.168 119.984 179.139 119.92 179.093 119.869L177.86 118.518" stroke="#3269E0" stroke-width="0.320926" stroke-miterlimit="10"/>
<path d="M175.562 121.432C175.06 121.35 174.564 121.228 174.08 121.069C173.537 120.524 172.218 119.144 172.238 118.935C172.154 118.577 172.154 118.205 172.238 117.847" stroke="#3269E0" stroke-width="0.320926" stroke-miterlimit="10"/>
<path d="M172.238 117.847C172.238 117.507 173.159 117.581 173.521 117.7C173.884 117.818 174.981 118.983 175.96 119.689C175.96 119.689 176.14 119.843 175.822 120.158C175.505 120.472 174.815 120.315 174.892 120.479" stroke="#3269E0" stroke-width="0.320926" stroke-miterlimit="10"/>
<path d="M211.901 149.946C211.901 149.946 212.154 148.662 213.047 155.53C213.939 162.398 219.542 173.062 219.542 173.062" stroke="#3269E0" stroke-width="0.320926" stroke-miterlimit="10"/>
<path d="M194.933 139.676C194.933 139.676 193.797 139.808 193.797 151.281C193.797 155.845 194.34 171.929 194.34 171.929C194.34 171.929 203.2 180.642 207.735 179.169C212.27 177.696 212.434 176.326 214.433 175.116C216.432 173.906 219.542 173.062 219.542 173.062" stroke="#3269E0" stroke-width="0.320926" stroke-miterlimit="10"/>
<path d="M196.256 173.666C196.256 173.666 199.953 185.302 201.22 195.148" stroke="#3269E0" stroke-width="0.320926" stroke-miterlimit="10"/>
<path d="M206.23 179.32C206.23 179.32 207.709 185.097 207.709 195.578" stroke="#3269E0" stroke-width="0.320926" stroke-miterlimit="10"/>
<path d="M210.864 177.841C210.864 177.841 213.201 182.581 212.96 184.32C212.719 186.06 210.932 195.273 210.932 195.273" stroke="#3269E0" stroke-width="0.320926" stroke-miterlimit="10"/>
<path d="M207.09 144.564C207.09 144.564 206.15 146.515 205.219 147.131C204.288 147.748 203.512 148.2 203.037 148.736C202.562 149.272 201.525 151.332 202.032 151.111C202.539 150.889 203.338 149.49 203.393 149.795C203.448 150.1 202.876 150.931 202.803 151.547C202.729 152.163 202.687 154.269 203.123 154.269C203.56 154.269 204.654 153.768 204.85 153.422C205.046 153.075 205.171 152.279 205.508 151.775C205.845 151.271 208.448 146.887 208.448 146.887C208.448 146.887 208.329 145.273 207.09 144.564Z" fill="#E6F0FF"/>
<path d="M204.494 107.972C204.494 107.972 205.036 113.04 205.559 113.81C206.082 114.58 209.966 116.958 210.527 116.961C211.089 116.965 213.21 115.488 213.342 113.601C213.473 111.714 212.295 110.934 211.458 110.148C210.62 109.362 210.46 109.333 210.716 108.672C210.973 108.011 211.968 105.7 210.396 103.685C208.823 101.669 206.865 101.689 206.252 101.458C205.639 101.226 205.45 100.873 205.235 100.045C205.02 99.2174 203.592 96.358 200.508 96.3516C197.424 96.3452 195.951 98.8965 195.469 99.5287C194.988 100.161 195.068 100.585 195.264 100.938C195.46 101.291 195.707 101.355 195.514 101.794C195.322 102.234 195.598 103.486 195.835 104.587C196.073 105.687 196.721 107.533 195.951 108.053C195.073 108.705 194.229 109.403 193.422 110.142C192.876 110.63 193.053 111.188 193.293 111.647C193.534 112.106 194.064 112.976 193.839 113.515C193.614 114.054 194.038 115.087 194.436 115.514C194.834 115.941 195.132 116.339 195.245 116.307C195.357 116.275 199.86 115.482 200.229 114.68C200.598 113.877 200.312 110.906 200.312 110.906C200.312 110.906 199.221 110.989 198.756 110.569C198.29 110.148 204.494 107.972 204.494 107.972Z" fill="#3A66C9"/>
<path d="M208.515 146.878L207.318 149.022C207.145 149.342 205.948 151.072 205.505 151.775C205.431 151.887 205.027 153.184 204.966 153.267C204.748 153.56 204.466 153.799 204.142 153.966C203.817 154.133 203.459 154.223 203.095 154.23C202.581 154.259 202.873 151.223 202.899 151.162C202.924 151.101 203.659 149.634 203.3 149.744C203.226 149.766 202.109 151.095 202.036 151.117C201.683 151.233 202.145 150.376 202.238 150.183C202.543 149.568 202.891 148.974 203.278 148.405C203.919 147.966 205.595 147.067 206.063 146.358C206.532 145.649 207.206 144.638 207.206 144.638" stroke="#3269E0" stroke-width="0.320926" stroke-miterlimit="10"/>
<path d="M197.212 102.443C197.87 102.328 198.52 102.169 199.157 101.968C199.651 101.759 200.476 101.117 200.874 101.692C201.272 102.266 201.692 102.927 202.417 103.338C203.143 103.749 204.292 104.301 204.568 104.484C204.844 104.667 204.773 104.805 205.094 104.805C205.415 104.805 205.502 104.779 205.575 105.004C205.649 105.228 205.774 107.058 205.039 107.542C204.304 108.027 204.519 108.049 204.526 108.059C204.532 108.068 204.786 112.478 205.322 113.303C205.858 114.128 207.132 115.167 207.809 115.655C208.486 116.143 210.02 116.589 209.754 116.798C209.487 117.006 203.608 121.515 202.183 122.468C200.758 123.422 200.049 124.266 199.33 123.601C198.611 122.937 197.931 120.244 197.549 119.166C197.167 118.088 196.856 115.934 197.042 115.893C198.018 115.632 198.974 115.3 199.901 114.898C200.543 114.538 200.373 114.102 200.383 113.858C200.392 113.614 200.469 110.97 200.405 110.877C200.341 110.784 200.084 110.95 199.664 110.854C199.243 110.758 197.758 111.031 197.234 107.112C196.711 103.194 196.82 102.552 196.82 102.552L197.212 102.443Z" fill="#E6F0FF"/>
<path d="M196.779 102.215C196.779 102.215 196.853 106.897 197.867 109.397C198.881 111.897 201.477 110.681 202.616 109.397" stroke="#3269E0" stroke-width="0.320926" stroke-miterlimit="10"/>
<path d="M194.921 116.018C194.921 116.018 193.431 114.734 193.845 113.515C194.259 112.295 192.167 111.108 193.56 110.029C194.953 108.951 196.448 108.036 196.345 107.086C196.243 106.137 195.174 102.337 195.585 101.608C195.996 100.88 194.256 101.204 195.585 99.3618C196.913 97.5197 199.07 95.8605 201.602 96.4734C204.134 97.0864 205.688 101.159 206.069 101.384C206.451 101.608 210.28 102.109 210.976 104.866C211.673 107.622 210.534 108.633 210.566 109.205C210.598 109.776 213.512 111.104 213.351 113.479C213.191 115.854 210.527 116.958 210.527 116.958" stroke="#3269E0" stroke-width="0.320926" stroke-miterlimit="10"/>
<path d="M194.542 119.911C194.542 120.164 194.657 122.157 194.34 123.691C194.022 125.225 193.149 126.185 194.933 130.11C196.718 134.035 194.933 139.676 194.933 139.676C194.933 139.676 199.616 145.402 208.785 140.79" stroke="#3269E0" stroke-width="0.320926" stroke-miterlimit="10"/>
<path d="M210.271 127.475C210.271 127.475 209.767 130.363 209.452 131.891C208.021 138.848 208.785 140.79 208.785 140.79" stroke="#3269E0" stroke-width="0.320926" stroke-miterlimit="10"/>
<path d="M209.828 123.12C209.828 123.12 209.828 127.712 210.527 129.218C211.227 130.723 211.471 134.4 211.169 136.682C210.867 138.964 208.255 140.931 206.58 144.384C206.58 144.384 209.009 144.484 208.801 150.129C208.592 155.774 209.693 156.83 212.437 148.412C212.831 147.196 217.251 134.795 216.869 133.329C216.487 131.862 215.287 120.851 213.576 118.566C211.865 116.281 210.543 118.887 210.543 118.887" stroke="#3269E0" stroke-width="0.320926" stroke-miterlimit="10"/>
<path d="M196.917 115.921C196.917 115.921 198.066 123.498 199.831 123.903C200.473 124.044 209.86 116.73 209.86 116.73" stroke="#3269E0" stroke-width="0.320926" stroke-miterlimit="10"/>
<path d="M196.506 102.526C196.506 102.526 198.521 102.379 199.831 101.666C200.794 101.137 201.066 101.942 201.666 102.735C202.267 103.527 205.055 104.551 204.959 104.805C204.863 105.058 205.662 104.189 205.707 105.748C205.758 107.587 204.484 107.854 204.484 107.854C204.484 107.854 204.898 112.279 205.213 113.008C205.298 113.287 205.414 113.556 205.559 113.81C207.27 115.822 209.86 116.73 212.462 117.696" stroke="#3269E0" stroke-width="0.320926" stroke-miterlimit="10"/>
<path d="M180.084 125.071C179 129.885 179.083 133.165 179.898 133.553C180.713 133.941 186.368 133.415 189.205 135.215C192.042 137.016 192.514 136.672 195.104 130.482" stroke="#3269E0" stroke-width="0.320926" stroke-miterlimit="10"/>
<path d="M182.639 124.461C182.388 123.912 180.694 121.236 180.569 120.905C180.569 120.905 180.453 120.106 180.325 119.436C180.197 118.765 179.394 117.95 177.995 117.764C176.686 117.587 175.797 116.852 175.838 117.372C175.88 117.892 176.714 118.335 177.141 118.389C177.493 118.435 177.842 118.505 178.184 118.598" stroke="#3269E0" stroke-width="0.320926" stroke-miterlimit="10"/>
<path d="M177.793 122.67C177.976 122.709 178.163 122.729 178.351 122.731C178.646 122.982 181.933 127.494 182.109 127.821" stroke="#3269E0" stroke-width="0.320926" stroke-miterlimit="10"/>
<path d="M181.548 122.594C181.548 122.594 182.716 121.31 182.703 123.755C182.703 126.48 181.031 131.897 181.031 131.897C181.031 131.897 180.229 134.394 179.638 133.3" stroke="#3269E0" stroke-width="0.320926" stroke-miterlimit="10"/>
<path d="M200.402 110.78C200.402 110.78 200.434 114.034 200.402 114.445C200.37 114.856 198.499 115.603 196.917 115.921C195.335 116.239 194.067 116.521 192.924 117.526C191.782 118.53 192.979 121.736 191.962 125.607C191.474 127.445 190.456 130.35 190.328 130.741C190.2 131.133 185.078 125.902 182.645 122.933" stroke="#3269E0" stroke-width="0.320926" stroke-miterlimit="10"/>
<path d="M25.9534 166.454C25.9534 166.454 29.8879 193.158 102.231 198.502C184.215 204.561 313.888 181.563 313.888 181.563" stroke="url(#paint44_linear_953_41378)" stroke-width="2.24648" stroke-linecap="round" stroke-linejoin="round"/>
<path d="M231.464 97.3173C233.513 97.3173 235.174 95.6563 235.174 93.6074C235.174 91.5584 233.513 89.8975 231.464 89.8975C229.415 89.8975 227.755 91.5584 227.755 93.6074C227.755 95.6563 229.415 97.3173 231.464 97.3173Z" stroke="url(#paint45_linear_953_41378)" stroke-width="0.962777" stroke-miterlimit="10"/>
<path opacity="0.77" d="M123.723 168.662H118.11V174.275H123.723V168.662Z" stroke="#E8F1FF" stroke-width="0.320926" stroke-miterlimit="10"/>
<path opacity="0.26" d="M210.351 41.0046L248.961 33.2382V23.6875L210.351 32.5579V41.0046Z" fill="#4F92FD"/>
<path opacity="0.26" d="M199.381 75.3308L205.996 74.8109V64.4546L199.381 65.212V75.3308Z" fill="#4F92FD"/>
<path opacity="0.26" d="M191.917 75.9373L198.534 75.4174V61.3159L191.917 62.3236V75.9373Z" fill="#4F92FD"/>
<path opacity="0.26" d="M214.308 74.118L220.922 73.5981V60.6455L214.308 61.4029V74.118Z" fill="#4F92FD"/>
<path opacity="0.26" d="M206.843 74.7242L213.457 74.2043V67.2627L206.843 67.9174V74.7242Z" fill="#4F92FD"/>
</g>
<defs>
<linearGradient id="paint0_linear_953_41378" x1="180.306" y1="89.3293" x2="318.891" y2="89.3293" gradientUnits="userSpaceOnUse">
<stop stop-color="#F8FBFF"/>
<stop offset="0.07" stop-color="#F8FBFF" stop-opacity="0.99"/>
<stop offset="0.6" stop-color="#F8FBFF" stop-opacity="0.92"/>
<stop offset="1" stop-color="#F8FBFF" stop-opacity="0.9"/>
</linearGradient>
<linearGradient id="paint1_linear_953_41378" x1="220.874" y1="115.841" x2="311.77" y2="115.841" gradientUnits="userSpaceOnUse">
<stop stop-color="#3269E0"/>
<stop offset="0.18" stop-color="#3A7BE2"/>
<stop offset="0.5" stop-color="#4797E5"/>
<stop offset="0.79" stop-color="#4EA8E6"/>
<stop offset="1" stop-color="#51AEE7"/>
</linearGradient>
<linearGradient id="paint2_linear_953_41378" x1="19.169" y1="100.184" x2="301.349" y2="100.184" gradientUnits="userSpaceOnUse">
<stop stop-color="#D4E0FF" stop-opacity="0.8"/>
<stop offset="1" stop-color="#D4E0FF" stop-opacity="0.8"/>
</linearGradient>
<linearGradient id="paint3_linear_953_41378" x1="170.726" y1="124.311" x2="243.772" y2="124.311" gradientUnits="userSpaceOnUse">
<stop stop-color="#1B44C0"/>
<stop offset="0.01" stop-color="#1B44C0"/>
<stop offset="0.41" stop-color="#1A63D2"/>
<stop offset="0.76" stop-color="#1975DD"/>
<stop offset="1" stop-color="#197CE1"/>
</linearGradient>
<linearGradient id="paint4_linear_953_41378" x1="130.341" y1="106.814" x2="206.734" y2="239.128" gradientUnits="userSpaceOnUse">
<stop stop-color="#197CE1" stop-opacity="0.2"/>
<stop offset="1" stop-color="#197CE1" stop-opacity="0"/>
</linearGradient>
<linearGradient id="paint5_linear_953_41378" x1="128.152" y1="100.167" x2="177.757" y2="100.167" gradientUnits="userSpaceOnUse">
<stop stop-color="#1B44C0"/>
<stop offset="0.01" stop-color="#1B44C0"/>
<stop offset="0.41" stop-color="#1A63D2"/>
<stop offset="0.76" stop-color="#1975DD"/>
<stop offset="1" stop-color="#197CE1"/>
</linearGradient>
<linearGradient id="paint6_linear_953_41378" x1="61.6306" y1="74.0664" x2="139.413" y2="74.0664" gradientUnits="userSpaceOnUse">
<stop stop-color="#1B44C0"/>
<stop offset="0.01" stop-color="#1B44C0"/>
<stop offset="0.41" stop-color="#1A63D2"/>
<stop offset="0.76" stop-color="#1975DD"/>
<stop offset="1" stop-color="#197CE1"/>
</linearGradient>
<linearGradient id="paint7_linear_953_41378" x1="265.986" y1="93.1487" x2="295.746" y2="93.1487" gradientUnits="userSpaceOnUse">
<stop stop-color="#3269E0"/>
<stop offset="0.18" stop-color="#3A7BE2"/>
<stop offset="0.5" stop-color="#4797E5"/>
<stop offset="0.79" stop-color="#4EA8E6"/>
<stop offset="1" stop-color="#51AEE7"/>
</linearGradient>
<linearGradient id="paint8_linear_953_41378" x1="44.5445" y1="25.5937" x2="138.094" y2="187.629" gradientUnits="userSpaceOnUse">
<stop stop-color="#197CE1" stop-opacity="0.2"/>
<stop offset="1" stop-color="#197CE1" stop-opacity="0"/>
</linearGradient>
<linearGradient id="paint9_linear_953_41378" x1="70.6454" y1="94.6408" x2="70.6454" y2="29.3389" gradientUnits="userSpaceOnUse">
<stop stop-color="#F8FBFF"/>
<stop offset="0.23" stop-color="#F8FBFF" stop-opacity="0.9"/>
<stop offset="0.53" stop-color="#F8FBFF" stop-opacity="0.79"/>
<stop offset="0.8" stop-color="#F8FBFF" stop-opacity="0.72"/>
<stop offset="1" stop-color="#F8FBFF" stop-opacity="0.7"/>
</linearGradient>
<linearGradient id="paint10_linear_953_41378" x1="28.7036" y1="158.059" x2="28.7036" y2="104.195" gradientUnits="userSpaceOnUse">
<stop stop-color="#F8FBFF"/>
<stop offset="0.23" stop-color="#F8FBFF" stop-opacity="0.9"/>
<stop offset="0.53" stop-color="#F8FBFF" stop-opacity="0.79"/>
<stop offset="0.8" stop-color="#F8FBFF" stop-opacity="0.72"/>
<stop offset="1" stop-color="#F8FBFF" stop-opacity="0.7"/>
</linearGradient>
<linearGradient id="paint11_linear_953_41378" x1="252.395" y1="185.074" x2="274.886" y2="146.117" gradientUnits="userSpaceOnUse">
<stop stop-color="#F1F6FF" stop-opacity="0"/>
<stop offset="0.99" stop-color="#F1F6FF" stop-opacity="0.3"/>
</linearGradient>
<linearGradient id="paint12_linear_953_41378" x1="227.148" y1="104.054" x2="238.56" y2="104.054" gradientUnits="userSpaceOnUse">
<stop stop-color="#3269E0"/>
<stop offset="0.48" stop-color="#336BE0"/>
<stop offset="0.66" stop-color="#3672E1"/>
<stop offset="0.78" stop-color="#3B7DE2"/>
<stop offset="0.88" stop-color="#438EE4"/>
<stop offset="0.97" stop-color="#4DA4E6"/>
<stop offset="1" stop-color="#51AEE7"/>
</linearGradient>
<linearGradient id="paint13_linear_953_41378" x1="128.136" y1="153.54" x2="146.836" y2="153.54" gradientUnits="userSpaceOnUse">
<stop stop-color="#1B44C0"/>
<stop offset="0.01" stop-color="#1B44C0"/>
<stop offset="0.41" stop-color="#1A63D2"/>
<stop offset="0.76" stop-color="#1975DD"/>
<stop offset="1" stop-color="#197CE1"/>
</linearGradient>
<linearGradient id="paint14_linear_953_41378" x1="124.583" y1="98.9448" x2="137.687" y2="98.9448" gradientUnits="userSpaceOnUse">
<stop stop-color="#CED6DD"/>
<stop offset="0.14" stop-color="#CED6DD" stop-opacity="0.83"/>
<stop offset="0.35" stop-color="#CED6DD" stop-opacity="0.61"/>
<stop offset="0.54" stop-color="#CED6DD" stop-opacity="0.43"/>
<stop offset="0.72" stop-color="#CED6DD" stop-opacity="0.3"/>
<stop offset="0.88" stop-color="#CED6DD" stop-opacity="0.23"/>
<stop offset="1" stop-color="#CED6DD" stop-opacity="0.2"/>
</linearGradient>
<linearGradient id="paint15_linear_953_41378" x1="140.405" y1="102.276" x2="145.976" y2="102.276" gradientUnits="userSpaceOnUse">
<stop stop-color="#CED6DD"/>
<stop offset="0.14" stop-color="#CED6DD" stop-opacity="0.83"/>
<stop offset="0.35" stop-color="#CED6DD" stop-opacity="0.61"/>
<stop offset="0.54" stop-color="#CED6DD" stop-opacity="0.43"/>
<stop offset="0.72" stop-color="#CED6DD" stop-opacity="0.3"/>
<stop offset="0.88" stop-color="#CED6DD" stop-opacity="0.23"/>
<stop offset="1" stop-color="#CED6DD" stop-opacity="0.2"/>
</linearGradient>
<linearGradient id="paint16_linear_953_41378" x1="64.4803" y1="64.6732" x2="81.9932" y2="64.6732" gradientUnits="userSpaceOnUse">
<stop stop-color="#CED6DD"/>
<stop offset="0.14" stop-color="#CED6DD" stop-opacity="0.83"/>
<stop offset="0.35" stop-color="#CED6DD" stop-opacity="0.61"/>
<stop offset="0.54" stop-color="#CED6DD" stop-opacity="0.43"/>
<stop offset="0.72" stop-color="#CED6DD" stop-opacity="0.3"/>
<stop offset="0.88" stop-color="#CED6DD" stop-opacity="0.23"/>
<stop offset="1" stop-color="#CED6DD" stop-opacity="0.2"/>
</linearGradient>
<linearGradient id="paint17_linear_953_41378" x1="54.3872" y1="109.811" x2="69.7467" y2="124.824" gradientUnits="userSpaceOnUse">
<stop stop-color="#94C8FF"/>
<stop offset="1" stop-color="white" stop-opacity="0"/>
</linearGradient>
<linearGradient id="paint18_linear_953_41378" x1="41.6978" y1="123.669" x2="64.8558" y2="123.669" gradientUnits="userSpaceOnUse">
<stop stop-color="#94C8FF"/>
<stop offset="1" stop-color="white" stop-opacity="0"/>
</linearGradient>
<linearGradient id="paint19_linear_953_41378" x1="58.2609" y1="149.657" x2="68.2866" y2="158.402" gradientUnits="userSpaceOnUse">
<stop stop-color="#94C8FF"/>
<stop offset="1" stop-color="white" stop-opacity="0"/>
</linearGradient>
<linearGradient id="paint20_linear_953_41378" x1="56.8904" y1="188.72" x2="70.7608" y2="164.696" gradientUnits="userSpaceOnUse">
<stop stop-color="#4D75D5"/>
<stop offset="0.04" stop-color="#4D75D5" stop-opacity="0.94"/>
<stop offset="0.23" stop-color="#4D75D5" stop-opacity="0.66"/>
<stop offset="0.42" stop-color="#4E75D4" stop-opacity="0.42"/>
<stop offset="0.6" stop-color="#4E75D4" stop-opacity="0.24"/>
<stop offset="0.76" stop-color="#4E75D4" stop-opacity="0.11"/>
<stop offset="0.9" stop-color="#4E75D4" stop-opacity="0.03"/>
<stop offset="1" stop-color="#4E75D4" stop-opacity="0"/>
</linearGradient>
<linearGradient id="paint21_linear_953_41378" x1="71.8136" y1="123.088" x2="83.4471" y2="123.088" gradientUnits="userSpaceOnUse">
<stop stop-color="#CED6DD"/>
<stop offset="0.14" stop-color="#CED6DD" stop-opacity="0.83"/>
<stop offset="0.35" stop-color="#CED6DD" stop-opacity="0.61"/>
<stop offset="0.54" stop-color="#CED6DD" stop-opacity="0.43"/>
<stop offset="0.72" stop-color="#CED6DD" stop-opacity="0.3"/>
<stop offset="0.88" stop-color="#CED6DD" stop-opacity="0.23"/>
<stop offset="1" stop-color="#CED6DD" stop-opacity="0.2"/>
</linearGradient>
<linearGradient id="paint22_linear_953_41378" x1="15.3273" y1="144.439" x2="37.7729" y2="144.439" gradientUnits="userSpaceOnUse">
<stop stop-color="#3269E0"/>
<stop offset="0.18" stop-color="#3A7BE2"/>
<stop offset="0.5" stop-color="#4797E5"/>
<stop offset="0.79" stop-color="#4EA8E6"/>
<stop offset="1" stop-color="#51AEE7"/>
</linearGradient>
<linearGradient id="paint23_linear_953_41378" x1="15.0034" y1="127.343" x2="18.4405" y2="127.343" gradientUnits="userSpaceOnUse">
<stop stop-color="#3269E0"/>
<stop offset="0.18" stop-color="#3A7BE2"/>
<stop offset="0.5" stop-color="#4797E5"/>
<stop offset="0.79" stop-color="#4EA8E6"/>
<stop offset="1" stop-color="#51AEE7"/>
</linearGradient>
<linearGradient id="paint24_linear_953_41378" x1="244.86" y1="122.054" x2="275.316" y2="122.054" gradientUnits="userSpaceOnUse">
<stop stop-color="#F1F6FF" stop-opacity="0"/>
<stop offset="0.99" stop-color="#F1F6FF" stop-opacity="0.3"/>
</linearGradient>
<linearGradient id="paint25_linear_953_41378" x1="260.146" y1="144.008" x2="261.962" y2="144.008" gradientUnits="userSpaceOnUse">
<stop stop-color="#F1F6FF" stop-opacity="0"/>
<stop offset="0.99" stop-color="#F1F6FF" stop-opacity="0.3"/>
</linearGradient>
<linearGradient id="paint26_linear_953_41378" x1="254.539" y1="81.5373" x2="261.959" y2="81.5373" gradientUnits="userSpaceOnUse">
<stop stop-color="#CED6DD"/>
<stop offset="0.14" stop-color="#CED6DD" stop-opacity="0.83"/>
<stop offset="0.35" stop-color="#CED6DD" stop-opacity="0.61"/>
<stop offset="0.54" stop-color="#CED6DD" stop-opacity="0.43"/>
<stop offset="0.72" stop-color="#CED6DD" stop-opacity="0.3"/>
<stop offset="0.88" stop-color="#CED6DD" stop-opacity="0.23"/>
<stop offset="1" stop-color="#CED6DD" stop-opacity="0.2"/>
</linearGradient>
<linearGradient id="paint27_linear_953_41378" x1="183.993" y1="84.9904" x2="206.914" y2="84.9904" gradientUnits="userSpaceOnUse">
<stop offset="0.01" stop-color="#F1F6FF"/>
<stop offset="1" stop-color="#F1F6FF" stop-opacity="0"/>
</linearGradient>
<linearGradient id="paint28_linear_953_41378" x1="184.016" y1="88.4343" x2="202.976" y2="88.4343" gradientUnits="userSpaceOnUse">
<stop offset="0.01" stop-color="#F1F6FF"/>
<stop offset="1" stop-color="#F1F6FF" stop-opacity="0"/>
</linearGradient>
<linearGradient id="paint29_linear_953_41378" x1="2.57378" y1="112.561" x2="30.0707" y2="112.561" gradientUnits="userSpaceOnUse">
<stop offset="0.01" stop-color="#F1F6FF"/>
<stop offset="1" stop-color="#F1F6FF" stop-opacity="0"/>
</linearGradient>
<linearGradient id="paint30_linear_953_41378" x1="277.764" y1="73.4692" x2="311.625" y2="73.4692" gradientUnits="userSpaceOnUse">
<stop stop-color="#3269E0"/>
<stop offset="0.18" stop-color="#3A7BE2"/>
<stop offset="0.5" stop-color="#4797E5"/>
<stop offset="0.79" stop-color="#4EA8E6"/>
<stop offset="1" stop-color="#51AEE7"/>
</linearGradient>
<linearGradient id="paint31_linear_953_41378" x1="282.745" y1="44.6661" x2="282.745" y2="101.685" gradientUnits="userSpaceOnUse">
<stop offset="0.01" stop-color="#F1F6FF"/>
<stop offset="1" stop-color="#F1F6FF" stop-opacity="0"/>
</linearGradient>
<linearGradient id="paint32_linear_953_41378" x1="288.695" y1="43.7003" x2="288.695" y2="98.4823" gradientUnits="userSpaceOnUse">
<stop offset="0.01" stop-color="#F1F6FF"/>
<stop offset="1" stop-color="#F1F6FF" stop-opacity="0"/>
</linearGradient>
<linearGradient id="paint33_linear_953_41378" x1="294.748" y1="42.7345" x2="294.748" y2="98.5563" gradientUnits="userSpaceOnUse">
<stop offset="0.01" stop-color="#F1F6FF"/>
<stop offset="1" stop-color="#F1F6FF" stop-opacity="0"/>
</linearGradient>
<linearGradient id="paint34_linear_953_41378" x1="300.698" y1="41.7785" x2="300.698" y2="97.3595" gradientUnits="userSpaceOnUse">
<stop offset="0.01" stop-color="#F1F6FF"/>
<stop offset="1" stop-color="#F1F6FF" stop-opacity="0"/>
</linearGradient>
<linearGradient id="paint35_linear_953_41378" x1="306.648" y1="40.8185" x2="306.648" y2="96.759" gradientUnits="userSpaceOnUse">
<stop offset="0.01" stop-color="#F1F6FF"/>
<stop offset="1" stop-color="#F1F6FF" stop-opacity="0"/>
</linearGradient>
<linearGradient id="paint36_linear_953_41378" x1="170.113" y1="98.4788" x2="227.777" y2="98.4788" gradientUnits="userSpaceOnUse">
<stop stop-color="#3269E0"/>
<stop offset="0.18" stop-color="#3A7BE2"/>
<stop offset="0.5" stop-color="#4797E5"/>
<stop offset="0.79" stop-color="#4EA8E6"/>
<stop offset="1" stop-color="#51AEE7"/>
</linearGradient>
<linearGradient id="paint37_linear_953_41378" x1="168.069" y1="114.814" x2="168.496" y2="114.814" gradientUnits="userSpaceOnUse">
<stop stop-color="#3269E0"/>
<stop offset="0.18" stop-color="#3A7BE2"/>
<stop offset="0.5" stop-color="#4797E5"/>
<stop offset="0.79" stop-color="#4EA8E6"/>
<stop offset="1" stop-color="#51AEE7"/>
</linearGradient>
<linearGradient id="paint38_linear_953_41378" x1="127.873" y1="147.109" x2="165.809" y2="147.109" gradientUnits="userSpaceOnUse">
<stop stop-color="#3269E0"/>
<stop offset="0.18" stop-color="#3A7BE2"/>
<stop offset="0.5" stop-color="#4797E5"/>
<stop offset="0.79" stop-color="#4EA8E6"/>
<stop offset="1" stop-color="#51AEE7"/>
</linearGradient>
<linearGradient id="paint39_linear_953_41378" x1="110.215" y1="171.3" x2="131.621" y2="171.3" gradientUnits="userSpaceOnUse">
<stop stop-color="#3269E0"/>
<stop offset="0.18" stop-color="#3A7BE2"/>
<stop offset="0.5" stop-color="#4797E5"/>
<stop offset="0.79" stop-color="#4EA8E6"/>
<stop offset="1" stop-color="#51AEE7"/>
</linearGradient>
<linearGradient id="paint40_linear_953_41378" x1="188.172" y1="150.225" x2="207.97" y2="150.225" gradientUnits="userSpaceOnUse">
<stop stop-color="#3269E0"/>
<stop offset="0.18" stop-color="#3A7BE2"/>
<stop offset="0.5" stop-color="#4797E5"/>
<stop offset="0.79" stop-color="#4EA8E6"/>
<stop offset="1" stop-color="#51AEE7"/>
</linearGradient>
<linearGradient id="paint41_linear_953_41378" x1="164.574" y1="127.574" x2="171.239" y2="127.574" gradientUnits="userSpaceOnUse">
<stop stop-color="#3269E0"/>
<stop offset="0.18" stop-color="#3A7BE2"/>
<stop offset="0.5" stop-color="#4797E5"/>
<stop offset="0.79" stop-color="#4EA8E6"/>
<stop offset="1" stop-color="#51AEE7"/>
</linearGradient>
<linearGradient id="paint42_linear_953_41378" x1="166.41" y1="103.274" x2="170.267" y2="103.274" gradientUnits="userSpaceOnUse">
<stop stop-color="#3269E0"/>
<stop offset="0.18" stop-color="#3A7BE2"/>
<stop offset="0.5" stop-color="#4797E5"/>
<stop offset="0.79" stop-color="#4EA8E6"/>
<stop offset="1" stop-color="#51AEE7"/>
</linearGradient>
<linearGradient id="paint43_linear_953_41378" x1="202.562" y1="160.004" x2="219.488" y2="160.004" gradientUnits="userSpaceOnUse">
<stop stop-color="#F1F6FF" stop-opacity="0"/>
<stop offset="0.99" stop-color="#F1F6FF" stop-opacity="0.3"/>
</linearGradient>
<linearGradient id="paint44_linear_953_41378" x1="24.8301" y1="182.985" x2="315.011" y2="182.985" gradientUnits="userSpaceOnUse">
<stop stop-color="#3269E0"/>
<stop offset="0.48" stop-color="#336BE0"/>
<stop offset="0.66" stop-color="#3672E1"/>
<stop offset="0.78" stop-color="#3B7DE2"/>
<stop offset="0.88" stop-color="#438EE4"/>
<stop offset="0.97" stop-color="#4DA4E6"/>
<stop offset="1" stop-color="#51AEE7"/>
</linearGradient>
<linearGradient id="paint45_linear_953_41378" x1="227.273" y1="93.6074" x2="235.656" y2="93.6074" gradientUnits="userSpaceOnUse">
<stop stop-color="#3269E0"/>
<stop offset="0.18" stop-color="#3A7BE2"/>
<stop offset="0.5" stop-color="#4797E5"/>
<stop offset="0.79" stop-color="#4EA8E6"/>
<stop offset="1" stop-color="#51AEE7"/>
</linearGradient>
<clipPath id="clip0_953_41378">
<rect width="319" height="200.899" fill="white"/>
</clipPath>
</defs>
</svg>
