<svg width="50" height="50" viewBox="0 0 50 50" fill="none" xmlns="http://www.w3.org/2000/svg">
<path d="M11.6348 5.78742C21.2417 5.78742 27.839 0.811035 32.4681 0.811035C37.0973 0.811035 46.8195 3.47215 46.8195 24.768C46.8195 46.0638 33.7403 49.1888 28.6487 49.1888C4.80561 49.1902 -5.37912 5.78742 11.6348 5.78742V5.78742Z" fill="#EFEFEF"/>
<path d="M37.365 5.02295L38.3471 4.04086L40.3113 6.00504L39.3292 6.98713L37.365 5.02295Z" fill="#A4AFC1"/>
<path d="M43.0112 10.6704L43.9933 9.68832L45.9575 11.6525L44.9754 12.6346L43.0112 10.6704Z" fill="#A4AFC1"/>
<path d="M42.7657 6.00586L44.7299 4.04167L45.712 5.02377L43.7478 6.98795L42.7657 6.00586Z" fill="#A4AFC1"/>
<path d="M29.5139 35.0693H9.375V30.2082C9.375 27.9068 11.2403 26.0415 13.5417 26.0415H25.3472C27.6486 26.0415 29.5139 27.9068 29.5139 30.2082V35.0693Z" fill="#F3F3F1"/>
<path d="M19.4444 21.1803C22.3209 21.1803 24.6528 18.8485 24.6528 15.972C24.6528 13.0955 22.3209 10.7637 19.4444 10.7637C16.5679 10.7637 14.2361 13.0955 14.2361 15.972C14.2361 18.8485 16.5679 21.1803 19.4444 21.1803Z" fill="#F3F3F1"/>
<path d="M24.6389 15.6942C22.2778 16.0553 20.8333 13.5415 20.8333 13.5415C18.3889 15.8192 15.2917 15.7637 14.25 15.6665C14.4028 12.9303 16.6667 10.7637 19.4444 10.7637C22.2222 10.7637 24.5 12.9442 24.6389 15.6942Z" fill="#FEB46D"/>
<path d="M32.6389 40.6251C37.0496 40.6251 40.6251 37.0496 40.6251 32.6389C40.6251 28.2283 37.0496 24.6528 32.6389 24.6528C28.2283 24.6528 24.6528 28.2283 24.6528 32.6389C24.6528 37.0496 28.2283 40.6251 32.6389 40.6251Z" fill="#FEB46D"/>
<path d="M27.7778 32.6389C27.7778 28.7639 30.5389 25.5348 34.2014 24.8084C33.6959 24.7084 33.1737 24.6528 32.6389 24.6528C28.2278 24.6528 24.6528 28.2278 24.6528 32.6389C24.6528 37.0501 28.2278 40.6251 32.6389 40.6251C33.1737 40.6251 33.6959 40.5709 34.2014 40.4695C30.5389 39.7431 27.7778 36.5139 27.7778 32.6389V32.6389Z" fill="#FF6600"/>
<path d="M16.6667 26.0415H13.5417C11.2403 26.0415 9.375 27.9068 9.375 30.2082V35.0693H12.5V30.2082C12.5 27.9068 14.3653 26.0415 16.6667 26.0415Z" fill="#D5DBE1"/>
<path d="M17.3611 15.972C17.3611 13.6442 18.8986 11.6956 21.0069 11.0289C20.5111 10.872 19.993 10.7637 19.4444 10.7637C16.568 10.7637 14.2361 13.0956 14.2361 15.972C14.2361 18.8484 16.568 21.1803 19.4444 21.1803C19.993 21.1803 20.5111 21.072 21.0069 20.9151C18.8986 20.2484 17.3611 18.2998 17.3611 15.972Z" fill="#D5DBE1"/>
<path d="M21.0042 11.0262C20.5097 10.8692 19.9917 10.7637 19.4444 10.7637C16.6667 10.7637 14.4028 12.9303 14.25 15.6664C14.8264 15.7206 16.0403 15.7456 17.418 15.3845C17.6486 13.3178 19.0778 11.6359 21.0042 11.0262V11.0262Z" fill="#FF6600"/>
<path d="M24.1639 16.7723C22.5514 16.7723 21.357 15.8084 20.6542 15.0292C18.0334 16.8876 15.0681 16.789 14.1528 16.7042L14.3473 14.6306C15.1542 14.707 17.9612 14.7973 20.1237 12.7806C20.3556 12.564 20.6723 12.4653 20.9889 12.5126C21.3028 12.5598 21.5778 12.7473 21.7376 13.0237C21.7459 13.0376 22.8653 14.9001 24.4834 14.6653L24.7987 16.7237C24.5792 16.757 24.3681 16.7723 24.1639 16.7723V16.7723Z" fill="black"/>
<path d="M19.4445 22.2222C15.9986 22.2222 13.1945 19.418 13.1945 15.9722C13.1945 12.5263 15.9986 9.72217 19.4445 9.72217C22.8903 9.72217 25.6945 12.5263 25.6945 15.9722C25.6945 19.418 22.8903 22.2222 19.4445 22.2222ZM19.4445 11.8055C17.1472 11.8055 15.2778 13.6749 15.2778 15.9722C15.2778 18.2694 17.1472 20.1388 19.4445 20.1388C21.7417 20.1388 23.6111 18.2694 23.6111 15.9722C23.6111 13.6749 21.7417 11.8055 19.4445 11.8055Z" fill="black"/>
<path d="M32.6389 41.6669C27.6611 41.6669 23.6111 37.6169 23.6111 32.6391C23.6111 27.6613 27.6611 23.6113 32.6389 23.6113C37.6166 23.6113 41.6666 27.6613 41.6666 32.6391C41.6666 37.6169 37.6166 41.6669 32.6389 41.6669ZM32.6389 25.6947C28.8097 25.6947 25.6944 28.8099 25.6944 32.6391C25.6944 36.4683 28.8097 39.5835 32.6389 39.5835C36.468 39.5835 39.5833 36.4683 39.5833 32.6391C39.5833 28.8099 36.468 25.6947 32.6389 25.6947Z" fill="black"/>
<path d="M31.25 36.111C30.9736 36.111 30.7083 36.0012 30.5139 35.8054L27.7361 33.0276L29.2097 31.554L31.2 33.5443L35.3278 28.8276L36.8958 30.1985L32.0347 35.754C31.8444 35.9707 31.5736 36.0999 31.2847 36.1096C31.2736 36.111 31.2611 36.111 31.25 36.111V36.111Z" fill="black"/>
<path d="M20.8334 36.1111H9.37504C8.80004 36.1111 8.33337 35.6445 8.33337 35.0695V30.2083C8.33337 27.3361 10.6695 25 13.5417 25H22.25V27.0833H13.5417C11.8181 27.0833 10.4167 28.4847 10.4167 30.2083V34.0278H20.8334V36.1111Z" fill="black"/>
</svg>
