<svg width="17" height="17" viewBox="0 0 17 17" fill="none" xmlns="http://www.w3.org/2000/svg">
<path fill-rule="evenodd" clip-rule="evenodd" d="M4.06998 2.73342L14.0097 3.72154C14.5662 3.77732 15.0224 4.0456 15.3411 4.5058C15.6586 4.96599 15.7495 5.48794 15.6048 6.02849L14.6273 9.67686C14.4234 10.4385 13.7952 10.9651 13.009 11.0335L5.44924 11.687L5.71884 13.4395H6.85439C7.13263 13.0776 7.57024 12.8445 8.06233 12.8445C8.55441 12.8445 8.99202 13.0776 9.27026 13.4395H12.4258C12.704 13.0776 13.1417 12.8445 13.6337 12.8445C14.1258 12.8445 14.5628 13.0776 14.8417 13.4395H16.276C16.4925 13.4395 16.6685 13.6148 16.6685 13.832C16.6685 14.0485 16.4932 14.2245 16.276 14.2245H15.1511C15.1558 14.2723 15.1578 14.3207 15.1578 14.3699C15.1578 15.2112 14.4751 15.8946 13.6331 15.8946C12.791 15.8946 12.1084 15.2119 12.1084 14.3699C12.1084 14.3207 12.111 14.2723 12.115 14.2245H9.57691C9.58156 14.2723 9.58422 14.3207 9.58422 14.3699C9.58422 15.2112 8.90156 15.8946 8.05952 15.8946C7.21748 15.8946 6.53482 15.2119 6.53482 14.3699C6.53482 14.3207 6.53748 14.2723 6.54213 14.2245H5.37936C5.18878 14.2245 5.02143 14.085 4.99222 13.8911L3.14483 1.89283H0.719611C0.503132 1.89283 0.327148 1.71753 0.327148 1.50037C0.327148 1.28389 0.502452 1.10791 0.719611 1.10791H3.48075C3.68196 1.10791 3.84798 1.25998 3.8699 1.45522L4.06645 2.73354L4.06998 2.73342ZM6.80987 6.09364C6.80987 5.87716 6.98517 5.70117 7.20233 5.70117C7.41881 5.70117 7.59479 5.87648 7.59479 6.09364V8.35277C7.59479 8.56925 7.41949 8.74523 7.20233 8.74523C6.98585 8.74523 6.80987 8.56993 6.80987 8.35277V6.09364ZM11.3082 6.09364C11.3082 5.87716 11.4835 5.70117 11.7007 5.70117C11.9172 5.70117 12.0932 5.87648 12.0932 6.09364V8.35277C12.0932 8.56925 11.9179 8.74523 11.7007 8.74523C11.4842 8.74523 11.3082 8.56993 11.3082 8.35277V6.09364ZM9.05914 5.13606C9.05914 4.91958 9.23444 4.7436 9.4516 4.7436C9.66808 4.7436 9.84406 4.9189 9.84406 5.13606V9.3116C9.84406 9.52808 9.66876 9.70406 9.4516 9.70406C9.23512 9.70406 9.05914 9.52876 9.05914 9.3116V5.13606Z" fill="#9FA8B1"/>
</svg>
