<svg width="30" height="30" viewBox="0 0 30 30" fill="none" xmlns="http://www.w3.org/2000/svg">
<path d="M13.4586 6.77193C13.4586 5.89878 14.1688 5.18708 15.042 5.18708C15.9151 5.18708 16.6253 5.89729 16.6253 6.77193C16.6253 7.64508 15.9151 8.35678 15.042 8.35678C14.1688 8.35678 13.4586 7.64508 13.4586 6.77193ZM23.6721 12.8693L14.3156 21.0266C14.0405 21.2674 13.6398 21.2943 13.3333 21.0939L5.98891 16.2899L0.154907 21.5605V22.9271C0.154907 26.7412 3.25736 29.8435 7.07136 29.8435H22.9275C26.7416 29.8435 29.844 26.7411 29.844 22.9255L29.8455 17.4414L23.6721 12.8693ZM5.36249 14.659L0.15506 19.3627V7.0727C0.15506 3.25859 3.25751 0.15625 7.07151 0.15625H22.9261C26.7402 0.15625 29.8426 3.2587 29.8426 7.0727V15.4126L24.1161 11.1678C23.8081 10.9391 23.3835 10.957 23.0949 11.2082L13.7097 19.3897L6.35498 14.5815C6.04549 14.3781 5.63731 14.411 5.36219 14.6592L5.36249 14.659ZM11.8277 6.77224C11.8277 8.54399 13.2705 9.9868 15.0422 9.9868C16.8155 9.9868 18.2568 8.54399 18.2568 6.77224C18.2568 4.99899 16.814 3.55767 15.0422 3.55767C13.2705 3.55767 11.8277 4.99899 11.8277 6.77224Z" fill="#9FA8B1"/>
</svg>
