<svg width="65" height="65" viewBox="0 0 65 65" fill="none" xmlns="http://www.w3.org/2000/svg">
<path d="M7.52375 15.1251C7.52375 27.6141 1.05444 36.1905 1.05444 42.2084C1.05444 48.2264 4.51389 60.8652 32.1985 60.8652C59.8831 60.8652 63.9456 43.8623 63.9456 37.2432C63.9474 6.24719 7.52375 -6.99295 7.52375 15.1251Z" fill="#EFEFEF"/>
<path d="M57.7777 9.93034C56.2845 9.93034 55.0693 8.7152 55.0693 7.22201C55.0693 5.72881 56.2845 4.51367 57.7777 4.51367C59.2709 4.51367 60.486 5.72881 60.486 7.22201C60.486 8.7152 59.2709 9.93034 57.7777 9.93034ZM57.7777 6.31923C57.2793 6.31923 56.8749 6.72367 56.8749 7.22201C56.8749 7.72034 57.2793 8.12478 57.7777 8.12478C58.276 8.12478 58.6804 7.72034 58.6804 7.22201C58.6804 6.72367 58.276 6.31923 57.7777 6.31923Z" fill="#A4AFC1"/>
<path d="M46.9444 40.1736C48.1909 40.1736 49.2014 39.1631 49.2014 37.9166C49.2014 36.6701 48.1909 35.6597 46.9444 35.6597C45.698 35.6597 44.6875 36.6701 44.6875 37.9166C44.6875 39.1631 45.698 40.1736 46.9444 40.1736Z" fill="#F3F3F1"/>
<path d="M18.0555 40.1736C19.302 40.1736 20.3125 39.1631 20.3125 37.9166C20.3125 36.6701 19.302 35.6597 18.0555 35.6597C16.8091 35.6597 15.7986 36.6701 15.7986 37.9166C15.7986 39.1631 16.8091 40.1736 18.0555 40.1736Z" fill="#F3F3F1"/>
<path d="M32.5 41.0762C34.7437 41.0762 36.5625 39.2573 36.5625 37.0137C36.5625 34.77 34.7437 32.9512 32.5 32.9512C30.2563 32.9512 28.4375 34.77 28.4375 37.0137C28.4375 39.2573 30.2563 41.0762 32.5 41.0762Z" fill="#F3F3F1"/>
<path d="M41.0764 54.1668V50.1043C41.0764 48.1091 39.4604 46.4932 37.4653 46.4932H27.5347C25.5396 46.4932 23.9236 48.1091 23.9236 50.1043V54.1668H41.0764Z" fill="#F3F3F1"/>
<path d="M23.9236 50.5556V48.2986C23.9236 46.3035 22.3076 44.6875 20.3125 44.6875H15.7986C13.8035 44.6875 12.1875 46.3035 12.1875 48.2986V50.5556H23.9236Z" fill="#F3F3F1"/>
<path d="M52.8125 50.5556V48.2986C52.8125 46.3035 51.1966 44.6875 49.2014 44.6875H44.6875C42.6924 44.6875 41.0764 46.3035 41.0764 48.2986V50.5556H52.8125Z" fill="#F3F3F1"/>
<path d="M43.7848 31.1458C45.7709 31.1458 47.3959 29.5208 47.3959 27.5347V12.1875H17.6042V27.5347C17.6042 29.5208 19.2292 31.1458 21.2154 31.1458H43.7848Z" fill="#FEB46D"/>
<path d="M48.75 37.9166C48.75 37.5736 48.8385 37.2576 48.9757 36.9669C48.6146 36.1995 47.8472 35.6597 46.9444 35.6597C45.6986 35.6597 44.6875 36.6708 44.6875 37.9166C44.6875 39.1624 45.6986 40.1736 46.9444 40.1736C47.8472 40.1736 48.6146 39.6337 48.9757 38.8663C48.8385 38.5756 48.75 38.2597 48.75 37.9166Z" fill="#D5DBE1"/>
<path d="M19.8611 37.9166C19.8611 37.5736 19.9496 37.2576 20.0868 36.9669C19.7257 36.1995 18.9583 35.6597 18.0555 35.6597C16.8097 35.6597 15.7986 36.6708 15.7986 37.9166C15.7986 39.1624 16.8097 40.1736 18.0555 40.1736C18.9583 40.1736 19.7257 39.6337 20.0868 38.8663C19.9496 38.5756 19.8611 38.2597 19.8611 37.9166Z" fill="#D5DBE1"/>
<path d="M32.5 37.0137C32.5 35.5133 33.3215 34.2187 34.5312 33.5145C33.9318 33.166 33.2439 32.9512 32.5 32.9512C30.2557 32.9512 28.4375 34.7694 28.4375 37.0137C28.4375 39.258 30.2557 41.0762 32.5 41.0762C33.2439 41.0762 33.9318 40.8613 34.5312 40.5128C33.3215 39.8087 32.5 38.5141 32.5 37.0137Z" fill="#D5DBE1"/>
<path d="M31.5972 46.4932H27.5347C25.5396 46.4932 23.9236 48.1091 23.9236 50.1043V54.1668H27.9861V50.1043C27.9861 48.1091 29.6021 46.4932 31.5972 46.4932Z" fill="#D5DBE1"/>
<path d="M19.8611 44.6875H15.7986C13.8035 44.6875 12.1875 46.3035 12.1875 48.2986V50.5556H16.25V48.2986C16.25 46.3035 17.866 44.6875 19.8611 44.6875Z" fill="#D5DBE1"/>
<path d="M48.75 44.6875H44.6875C42.6924 44.6875 41.0764 46.3035 41.0764 48.2986V50.5556H45.1389V48.2986C45.1389 46.3035 46.7549 44.6875 48.75 44.6875Z" fill="#D5DBE1"/>
<path d="M21.6667 27.5347V12.1875H17.6042V27.5347C17.6042 29.5208 19.2292 31.1458 21.2154 31.1458H25.2779C23.2917 31.1458 21.6667 29.5208 21.6667 27.5347Z" fill="#FF6600"/>
<path d="M13.9932 10.8335H51.0071V13.5418H13.9932V10.8335Z" fill="black"/>
<path d="M43.7847 32.5002H39.7222V29.7918H43.7847C45.0288 29.7918 46.0417 28.7789 46.0417 27.5349V13.5418H18.9583V27.5349C18.9583 28.7789 19.9713 29.7918 21.2153 29.7918H25.2778V32.5002H21.2153C18.4763 32.5002 16.25 30.2739 16.25 27.5349V12.1877C16.25 11.4402 16.8567 10.8335 17.6042 10.8335H47.3958C48.1433 10.8335 48.75 11.4402 48.75 12.1877V27.5349C48.75 30.2739 46.5238 32.5002 43.7847 32.5002Z" fill="black"/>
<path d="M26.6861 26.6863L24.7722 24.7724L29.2861 20.2586C29.7176 19.8252 30.3857 19.7367 30.9147 20.0401L33.2132 21.3545L38.3518 16.6113L40.1899 18.6029L34.3218 24.0195C33.8885 24.4204 33.2457 24.4944 32.7311 24.2001L30.4705 22.9073L26.6861 26.6863Z" fill="black"/>
<path d="M40.6251 23.4722H37.9167V18.9583H33.4028V16.25H39.2709C40.0184 16.25 40.6251 16.8567 40.6251 17.6042V23.4722Z" fill="black"/>
<path d="M46.9444 41.5279C44.9528 41.5279 43.3333 39.9083 43.3333 37.9168C43.3333 35.9252 44.9528 34.3057 46.9444 34.3057C48.9359 34.3057 50.5555 35.9252 50.5555 37.9168C50.5555 39.9083 48.9359 41.5279 46.9444 41.5279ZM46.9444 37.014C46.446 37.014 46.0416 37.4184 46.0416 37.9168C46.0416 38.4151 46.446 38.8196 46.9444 38.8196C47.4427 38.8196 47.8471 38.4151 47.8471 37.9168C47.8471 37.4184 47.4427 37.014 46.9444 37.014Z" fill="black"/>
<path d="M54.1666 50.5557H51.4583V48.2988C51.4583 47.0547 50.4453 46.0418 49.2013 46.0418H43.3333V43.3335H49.2013C51.9403 43.3335 54.1666 45.5597 54.1666 48.2988V50.5557Z" fill="black"/>
<path d="M18.0554 41.5279C16.0639 41.5279 14.4443 39.9083 14.4443 37.9168C14.4443 35.9252 16.0639 34.3057 18.0554 34.3057C20.047 34.3057 21.6666 35.9252 21.6666 37.9168C21.6666 39.9083 20.047 41.5279 18.0554 41.5279ZM18.0554 37.014C17.5571 37.014 17.1527 37.4184 17.1527 37.9168C17.1527 38.4151 17.5571 38.8196 18.0554 38.8196C18.5538 38.8196 18.9582 38.4151 18.9582 37.9168C18.9582 37.4184 18.5538 37.014 18.0554 37.014Z" fill="black"/>
<path d="M13.5416 50.5557H10.8333V48.2988C10.8333 45.5597 13.0595 43.3335 15.7985 43.3335H21.6666V46.0418H15.7985C14.5545 46.0418 13.5416 47.0547 13.5416 48.2988V50.5557Z" fill="black"/>
<path d="M32.4999 42.4305C29.5135 42.4305 27.0833 40.0002 27.0833 37.0138C27.0833 34.0274 29.5135 31.5972 32.4999 31.5972C35.4863 31.5972 37.9166 34.0274 37.9166 37.0138C37.9166 40.0002 35.4863 42.4305 32.4999 42.4305ZM32.4999 34.3055C31.0067 34.3055 29.7916 35.5206 29.7916 37.0138C29.7916 38.507 31.0067 39.7222 32.4999 39.7222C33.9931 39.7222 35.2083 38.507 35.2083 37.0138C35.2083 35.5206 33.9931 34.3055 32.4999 34.3055Z" fill="black"/>
<path d="M42.4304 54.1665H39.7221V50.104C39.7221 48.8599 38.7092 47.847 37.4652 47.847H27.5346C26.2906 47.847 25.2777 48.8599 25.2777 50.104V54.1665H22.5693V50.104C22.5693 47.3649 24.7956 45.1387 27.5346 45.1387H37.4652C40.2042 45.1387 42.4304 47.3649 42.4304 50.104V54.1665Z" fill="black"/>
<path d="M3.61108 51.4585H61.3889V54.1668H3.61108V51.4585Z" fill="black"/>
</svg>
