<svg width="65" height="65" viewBox="0 0 65 65" fill="none" xmlns="http://www.w3.org/2000/svg">
<path d="M15.1251 57.4763C27.6141 57.4763 36.1905 63.9457 42.2084 63.9457C48.2264 63.9457 60.8652 60.4862 60.8652 32.8016C60.8652 5.11704 43.8623 1.05273 37.2432 1.05273C6.24719 1.05273 -6.99295 57.4763 15.1251 57.4763Z" fill="#EFEFEF"/>
<path d="M32.5614 45.8376L20.0308 52.8125L22.3799 38.1207L12.1875 27.7568L26.2167 25.5685L32.4476 12.1875L38.7689 25.5251L52.8125 27.6196L42.6924 38.0521L45.1389 52.7276L32.5614 45.8376Z" fill="#FEB46D"/>
<path d="M24.4906 50.3299L26.4424 38.1207L16.25 27.7568L30.2774 25.5685L34.4969 16.51L32.4476 12.1875L26.2167 25.5685L12.1875 27.7568L22.3799 38.1207L20.0308 52.8125L24.4906 50.3299Z" fill="#FF6600"/>
<path d="M36.6239 45.8374L34.6089 46.9587L45.1389 52.7274L44.7308 50.2773L36.6239 45.8374Z" fill="#FF6600"/>
<path d="M20.031 54.1668C19.7584 54.1668 19.4876 54.0838 19.2547 53.9213C18.8304 53.6252 18.6119 53.1106 18.6931 52.5996L20.9338 38.5831L11.2217 28.7049C10.866 28.3438 10.7415 27.8129 10.9022 27.3309C11.061 26.847 11.4763 26.4967 11.9783 26.4172L25.2942 24.3391L31.2201 11.6153C31.4422 11.1404 31.917 10.8353 32.4424 10.8335H32.446C32.9697 10.8335 33.4463 11.135 33.6702 11.6081L39.6827 24.2921L53.0113 26.28C53.5133 26.3559 53.9304 26.7043 54.0947 27.1864C54.259 27.6685 54.1362 28.1993 53.7841 28.5641L44.1406 38.5054L46.4752 52.5075C46.5601 53.0185 46.347 53.5331 45.9227 53.8328C45.5002 54.1307 44.9441 54.165 44.4891 53.9177L32.567 47.3852L20.6901 53.9971C20.4842 54.1109 20.2585 54.1668 20.031 54.1668ZM15.0026 28.6886L23.3442 37.1729C23.6458 37.4781 23.7848 37.9096 23.7162 38.3357L21.8077 50.2741L31.9026 44.6552C32.3106 44.4277 32.8054 44.4277 33.2116 44.6497L43.3444 50.2018L41.3547 38.2761C41.2842 37.8536 41.4197 37.4185 41.7194 37.1097L50.0033 28.5713L38.5687 26.8668C38.1227 26.8 37.7381 26.5147 37.5449 26.1067L32.4569 15.3745L27.4429 26.141C27.2533 26.5509 26.8705 26.8379 26.4245 26.9084L15.0026 28.6886Z" fill="black"/>
<path d="M36.1112 39.722H34.757C34.0095 39.722 33.4028 39.1153 33.4028 38.3678V30.2428C33.4028 29.4953 34.0095 28.8887 34.757 28.8887H36.1112C39.0976 28.8887 41.5278 31.3189 41.5278 34.3053C41.5278 37.2917 39.0976 39.722 36.1112 39.722ZM36.1112 31.597V37.0137C37.6044 37.0137 38.8195 35.7985 38.8195 34.3053C38.8195 32.8121 37.6044 31.597 36.1112 31.597Z" fill="black"/>
<path d="M32.0484 39.722H29.3401V32.4998C29.3401 32.0033 28.9356 31.597 28.4373 31.597C27.9389 31.597 27.5345 32.0033 27.5345 32.4998V39.722H24.8262V32.4998C24.8262 30.5083 26.4458 28.8887 28.4373 28.8887C30.4288 28.8887 32.0484 30.5083 32.0484 32.4998V39.722Z" fill="black"/>
<path d="M24.8262 34.3057H32.0484V37.014H24.8262V34.3057Z" fill="black"/>
<path d="M47.959 5.75635H49.7645V9.36746H47.959V5.75635Z" fill="#A4AFC1"/>
<path d="M47.959 16.1382H49.7645V19.7493H47.959V16.1382Z" fill="#A4AFC1"/>
<path d="M41.6396 11.6245H45.2508V13.4301H41.6396V11.6245Z" fill="#A4AFC1"/>
<path d="M52.0215 11.6245H55.6326V13.4301H52.0215V11.6245Z" fill="#A4AFC1"/>
<path d="M13.993 20.652C12.4998 20.652 11.2847 19.4369 11.2847 17.9437C11.2847 16.4505 12.4998 15.2354 13.993 15.2354C15.4862 15.2354 16.7013 16.4505 16.7013 17.9437C16.7013 19.4369 15.4862 20.652 13.993 20.652ZM13.993 17.0409C13.4947 17.0409 13.0902 17.4472 13.0902 17.9437C13.0902 18.4402 13.4947 18.8465 13.993 18.8465C14.4913 18.8465 14.8958 18.4402 14.8958 17.9437C14.8958 17.4472 14.4913 17.0409 13.993 17.0409Z" fill="#A4AFC1"/>
</svg>
