<svg width="65" height="65" viewBox="0 0 65 65" fill="none" xmlns="http://www.w3.org/2000/svg">
<path d="M15.1251 57.4763C27.6141 57.4763 36.1905 63.9457 42.2084 63.9457C48.2264 63.9457 60.8652 60.4862 60.8652 32.8016C60.8652 5.11704 43.8623 1.05273 37.2432 1.05273C6.24719 1.05273 -6.99295 57.4763 15.1251 57.4763Z" fill="#F3F3F1"/>
<path d="M55.5232 12.959L56.7999 11.6823L59.3534 14.2357L58.0766 15.5124L55.5232 12.959Z" fill="#A4AFC1"/>
<path d="M48.1843 5.62012L49.461 4.3434L52.0145 6.89684L50.7378 8.17356L48.1843 5.62012Z" fill="#A4AFC1"/>
<path d="M55.5295 7.22363L58.083 4.67019L59.3597 5.94691L56.8063 8.50035L55.5295 7.22363Z" fill="#A4AFC1"/>
<path d="M52.8125 19.4099V22.1183H12.1875V19.4099C12.1875 17.4238 13.8125 15.7988 15.7986 15.7988H49.2014C51.1875 15.7988 52.8125 17.4238 52.8125 19.4099Z" fill="#FEB46D"/>
<path d="M52.8125 22.1182V49.2015C52.8125 51.1876 51.1875 52.8126 49.2014 52.8126H15.7986C13.8125 52.8126 12.1875 51.1876 12.1875 49.2015V22.1182H52.8125Z" fill="#EFEFEF"/>
<path d="M42.4305 32.9514C48.1643 32.9514 52.8125 28.3032 52.8125 22.5694C52.8125 16.8357 48.1643 12.1875 42.4305 12.1875C36.6967 12.1875 32.0486 16.8357 32.0486 22.5694C32.0486 28.3032 36.6967 32.9514 42.4305 32.9514Z" fill="#EFEFEF"/>
<path d="M19.8611 15.7988H15.7986C13.8125 15.7988 12.1875 17.4238 12.1875 19.4099V22.1183H16.25V19.4099C16.25 17.4238 17.875 15.7988 19.8611 15.7988Z" fill="#FF6600"/>
<path d="M16.25 49.2015V22.1182H12.1875V49.2015C12.1875 51.1876 13.8125 52.8126 15.7986 52.8126H19.8611C17.875 52.8126 16.25 51.1876 16.25 49.2015Z" fill="#D5DBE1"/>
<path d="M36.1111 22.5694C36.1111 17.5319 39.7005 13.334 44.4618 12.3897C43.8046 12.2579 43.1257 12.1875 42.4305 12.1875C36.6961 12.1875 32.0486 16.835 32.0486 22.5694C32.0486 28.3039 36.6961 32.9514 42.4305 32.9514C43.1257 32.9514 43.8046 32.881 44.4618 32.7492C39.7005 31.8049 36.1111 27.6069 36.1111 22.5694Z" fill="#D5DBE1"/>
<path d="M42.4304 34.3057C35.9593 34.3057 30.6943 29.0407 30.6943 22.5696C30.6943 16.0985 35.9593 10.8335 42.4304 10.8335C48.9016 10.8335 54.1666 16.0985 54.1666 22.5696C54.1666 29.0407 48.9016 34.3057 42.4304 34.3057ZM42.4304 13.5418C37.4525 13.5418 33.4027 17.5917 33.4027 22.5696C33.4027 27.5475 37.4525 31.5974 42.4304 31.5974C47.4084 31.5974 51.4582 27.5475 51.4582 22.5696C51.4582 17.5917 47.4084 13.5418 42.4304 13.5418Z" fill="black"/>
<path d="M37.9167 12.6748H40.6251V32.4637H37.9167V12.6748Z" fill="black"/>
<path d="M44.2361 12.6748H46.9444V32.4637H44.2361V12.6748Z" fill="black"/>
<path d="M32.5361 18.0557H52.3268V20.764H32.5361V18.0557Z" fill="black"/>
<path d="M32.5361 24.375H52.3268V27.0833H32.5361V24.375Z" fill="black"/>
<path d="M49.2013 54.1666H15.7985C13.0595 54.1666 10.8333 51.9403 10.8333 49.2013V19.4096C10.8333 16.6706 13.0595 14.4443 15.7985 14.4443H28.1666C28.9141 14.4443 29.5208 15.051 29.5208 15.7985C29.5208 16.546 28.9141 17.1527 28.1666 17.1527H15.7985C14.5545 17.1527 13.5416 18.1656 13.5416 19.4096V49.2013C13.5416 50.4453 14.5545 51.4582 15.7985 51.4582H49.2013C50.4453 51.4582 51.4583 50.4453 51.4583 49.2013V34.4318C51.4583 33.6843 52.0649 33.0777 52.8124 33.0777C53.5599 33.0777 54.1666 33.6843 54.1666 34.4318V49.2013C54.1666 51.9403 51.9403 54.1666 49.2013 54.1666Z" fill="black"/>
<path d="M26.6499 23.472H12.1874C11.4399 23.472 10.8333 22.8653 10.8333 22.1178C10.8333 21.3703 11.4399 20.7637 12.1874 20.7637H26.6499C27.3974 20.7637 28.0041 21.3703 28.0041 22.1178C28.0041 22.8653 27.3974 23.472 26.6499 23.472Z" fill="black"/>
<path d="M35.6598 46.0415C35.3475 46.0415 35.0333 45.9332 34.7787 45.7147C34.2118 45.2272 34.145 44.3732 34.6325 43.8045L36.5843 41.5277L34.6325 39.249C34.145 38.6821 34.2118 37.8263 34.7787 37.3388C35.3457 36.8531 36.2015 36.9181 36.689 37.485L39.3973 40.6447C39.8325 41.1521 39.8325 41.8996 39.3973 42.4088L36.689 45.5685C36.42 45.8809 36.0408 46.0415 35.6598 46.0415Z" fill="black"/>
<path d="M23.9236 46.0415C23.5426 46.0415 23.1635 45.8809 22.8963 45.5685L20.1879 42.4088C19.7528 41.9014 19.7528 41.1539 20.1879 40.6447L22.8963 37.485C23.3856 36.9181 24.2396 36.8531 24.8065 37.3388C25.3735 37.8263 25.4403 38.6803 24.9528 39.249L22.9992 41.5277L24.951 43.8063C25.4385 44.3732 25.3717 45.229 24.8047 45.7165C24.5501 45.9332 24.236 46.0415 23.9236 46.0415Z" fill="black"/>
<path d="M28.4393 48.7499C28.3364 48.7499 28.2353 48.7391 28.1323 48.7138C27.4047 48.5459 26.9497 47.8201 27.1176 47.0906L29.826 35.3545C29.9939 34.6251 30.7323 34.1683 31.4491 34.3398C32.1768 34.5077 32.6318 35.2335 32.4639 35.963L29.7555 47.6991C29.6111 48.3274 29.055 48.7499 28.4393 48.7499Z" fill="black"/>
</svg>
