<svg width="65" height="65" viewBox="0 0 65 65" fill="none" xmlns="http://www.w3.org/2000/svg">
<path d="M15.1251 57.4763C27.6141 57.4763 36.1905 63.9457 42.2084 63.9457C48.2264 63.9457 60.8652 60.4862 60.8652 32.8016C60.8652 5.11704 43.8623 1.05273 37.2432 1.05273C6.24719 1.05273 -6.99295 57.4763 15.1251 57.4763Z" fill="#EFEFEF"/>
<path d="M50.3801 4.72461L51.6568 3.44789L54.2103 6.00133L52.9336 7.27805L50.3801 4.72461Z" fill="#A4AFC1"/>
<path d="M57.7202 12.0659L58.9969 10.7892L61.5504 13.3426L60.2737 14.6194L57.7202 12.0659Z" fill="#A4AFC1"/>
<path d="M57.4011 6.00146L59.9546 3.44803L61.2313 4.72475L58.6778 7.27819L57.4011 6.00146Z" fill="#A4AFC1"/>
<path d="M49.2014 51.0069H15.7986C13.8035 51.0069 12.1875 49.391 12.1875 47.3958V20.3125H52.8125V47.3958C52.8125 49.391 51.1965 51.0069 49.2014 51.0069Z" fill="#F3F3F1"/>
<path d="M52.8125 20.3126H12.1875V17.6043C12.1875 15.6091 13.8035 13.9932 15.7986 13.9932H49.2014C51.1965 13.9932 52.8125 15.6091 52.8125 17.6043V20.3126Z" fill="#FEB46D"/>
<path d="M19.8611 13.9932H15.7986C13.8035 13.9932 12.1875 15.6091 12.1875 17.6043V20.3126H16.25V17.6043C16.25 15.6091 17.866 13.9932 19.8611 13.9932Z" fill="#FF6600"/>
<path d="M16.25 47.3958V20.3125H12.1875V47.3958C12.1875 49.391 13.8035 51.0069 15.7986 51.0069H19.8611C17.866 51.0069 16.25 49.391 16.25 47.3958Z" fill="#D5DBE1"/>
<path d="M34.3056 32.5002H31.5972V29.7918H18.9583V32.5002H16.25V28.4377C16.25 27.6902 16.8567 27.0835 17.6042 27.0835H32.9514C33.6989 27.0835 34.3056 27.6902 34.3056 28.4377V32.5002Z" fill="black"/>
<path d="M23.9236 29.3403H26.6319V42.882H23.9236V29.3403Z" fill="black"/>
<path d="M21.6667 42.4307H28.889V45.139H21.6667V42.4307Z" fill="black"/>
<path d="M37.9167 27.0835H48.7501V29.7918H37.9167V27.0835Z" fill="black"/>
<path d="M37.9167 34.3057H48.7501V37.014H37.9167V34.3057Z" fill="black"/>
<path d="M37.9167 41.5278H48.7501V44.2362H37.9167V41.5278Z" fill="black"/>
<path d="M49.2013 52.3609H15.7985C13.0595 52.3609 10.8333 50.1346 10.8333 47.3956V17.6039C10.8333 14.8649 13.0595 12.6387 15.7985 12.6387H49.2013C51.9403 12.6387 54.1666 14.8649 54.1666 17.6039V47.3956C54.1666 50.1346 51.9403 52.3609 49.2013 52.3609ZM15.7985 15.347C14.5545 15.347 13.5416 16.3599 13.5416 17.6039V47.3956C13.5416 48.6396 14.5545 49.6526 15.7985 49.6526H49.2013C50.4453 49.6526 51.4583 48.6396 51.4583 47.3956V17.6039C51.4583 16.3599 50.4453 15.347 49.2013 15.347H15.7985Z" fill="black"/>
<path d="M12.1875 18.9585H52.8125V21.6668H12.1875V18.9585Z" fill="black"/>
<path d="M3.61108 49.6528H61.3889V52.3612H3.61108V49.6528Z" fill="black"/>
</svg>
