<svg width="65" height="65" viewBox="0 0 65 65" fill="none" xmlns="http://www.w3.org/2000/svg">
<path d="M7.52375 49.8749C7.52375 37.3859 1.05444 28.8095 1.05444 22.7916C1.05444 16.7737 4.51389 4.13477 32.1985 4.13477C59.8831 4.13477 63.9456 21.1377 63.9456 27.7568C63.9474 58.7528 7.52375 71.993 7.52375 49.8749Z" fill="#EFEFEF"/>
<path d="M12.1875 29.3403V13.9931C12.1875 12.9964 12.9964 12.1875 13.9931 12.1875H51.0069C52.0036 12.1875 52.8125 12.9964 52.8125 13.9931V29.3403C52.8125 30.3369 52.0036 31.1458 51.0069 31.1458H13.9931C12.9964 31.1458 12.1875 30.3369 12.1875 29.3403Z" fill="#FEB46D"/>
<path d="M16.25 29.3403V13.9931C16.25 12.9964 17.0589 12.1875 18.0556 12.1875H13.9931C12.9964 12.1875 12.1875 12.9964 12.1875 13.9931V29.3403C12.1875 30.3369 12.9964 31.1458 13.9931 31.1458H18.0556C17.0589 31.1458 16.25 30.3369 16.25 29.3403Z" fill="#FF6600"/>
<path d="M51.0069 32.5002H13.993C12.2506 32.5002 10.8333 31.0828 10.8333 29.3404V13.9932C10.8333 12.2509 12.2506 10.8335 13.993 10.8335H51.0069C52.7492 10.8335 54.1666 12.2509 54.1666 13.9932V29.3404C54.1666 31.0828 52.7492 32.5002 51.0069 32.5002ZM13.993 13.5418C13.7438 13.5418 13.5416 13.7441 13.5416 13.9932V29.3404C13.5416 29.5896 13.7438 29.7918 13.993 29.7918H51.0069C51.256 29.7918 51.4583 29.5896 51.4583 29.3404V13.9932C51.4583 13.7441 51.256 13.5418 51.0069 13.5418H13.993Z" fill="black"/>
<path d="M34.3057 35.2085H54.1668V37.9168H34.3057V35.2085Z" fill="black"/>
<path d="M34.3057 40.625H54.1668V43.3333H34.3057V40.625Z" fill="black"/>
<path d="M34.3057 46.0415H54.1668V48.7498H34.3057V46.0415Z" fill="black"/>
<path d="M34.3057 51.4585H54.1668V54.1668H34.3057V51.4585Z" fill="black"/>
<path d="M10.8333 35.2085H30.6944V37.9168H10.8333V35.2085Z" fill="black"/>
<path d="M10.8333 40.625H30.6944V43.3333H10.8333V40.625Z" fill="black"/>
<path d="M10.8333 46.0415H30.6944V48.7498H10.8333V46.0415Z" fill="black"/>
<path d="M10.8333 51.4585H30.6944V54.1668H10.8333V51.4585Z" fill="black"/>
<path d="M31.5972 27.0833H30.2431C29.4956 27.0833 28.8889 26.4767 28.8889 25.7292V17.6042C28.8889 16.8567 29.4956 16.25 30.2431 16.25H31.5972C34.5836 16.25 37.0139 18.6803 37.0139 21.6667C37.0139 24.6531 34.5836 27.0833 31.5972 27.0833ZM31.5972 18.9583V24.375C33.0904 24.375 34.3056 23.1599 34.3056 21.6667C34.3056 20.1735 33.0904 18.9583 31.5972 18.9583Z" fill="black"/>
<path d="M25.2779 27.0833H22.5696V19.8611C22.5696 19.3628 22.1633 18.9583 21.6668 18.9583C21.1702 18.9583 20.764 19.3628 20.764 19.8611V27.0833H18.0557V19.8611C18.0557 17.8696 19.6752 16.25 21.6668 16.25C23.6583 16.25 25.2779 17.8696 25.2779 19.8611V27.0833Z" fill="black"/>
<path d="M18.0557 21.6665H25.2779V24.3748H18.0557V21.6665Z" fill="black"/>
<path d="M43.7088 27.0833H39.7222V24.375H43.7088C43.9941 24.375 44.2361 24.0644 44.2361 23.6979C44.2361 23.3314 43.9941 23.0208 43.7088 23.0208H42.9577C41.1738 23.0208 39.7222 21.5024 39.7222 19.6354C39.7222 17.7685 41.1738 16.25 42.9577 16.25H46.9444V18.9583H42.9577C42.6724 18.9583 42.4305 19.2689 42.4305 19.6354C42.4305 20.0019 42.6724 20.3125 42.9577 20.3125H43.7088C45.4927 20.3125 46.9444 21.831 46.9444 23.6979C46.9444 25.5649 45.4927 27.0833 43.7088 27.0833Z" fill="black"/>
<path d="M0 5.86816H3.61111V7.67372H0V5.86816Z" fill="#A4AFC1"/>
<path d="M10.3818 5.86816H13.9929V7.67372H10.3818V5.86816Z" fill="#A4AFC1"/>
<path d="M5.86816 10.3818H7.67372V13.9929H5.86816V10.3818Z" fill="#A4AFC1"/>
<path d="M5.86816 0H7.67372V3.61111H5.86816V0Z" fill="#A4AFC1"/>
<path d="M62.1419 38.3678C60.6487 38.3678 59.4336 37.1527 59.4336 35.6595C59.4336 34.1663 60.6487 32.9512 62.1419 32.9512C63.6351 32.9512 64.8503 34.1663 64.8503 35.6595C64.8503 37.1527 63.6351 38.3678 62.1419 38.3678ZM62.1419 34.7567C61.6454 34.7567 61.2391 35.1612 61.2391 35.6595C61.2391 36.1578 61.6454 36.5623 62.1419 36.5623C62.6385 36.5623 63.0447 36.1578 63.0447 35.6595C63.0447 35.1612 62.6385 34.7567 62.1419 34.7567Z" fill="#A4AFC1"/>
</svg>
