<svg width="20" height="20" viewBox="0 0 20 20" fill="none" xmlns="http://www.w3.org/2000/svg">
<path fill-rule="evenodd" clip-rule="evenodd" d="M9.585 0C14.8788 0 19.17 4.29121 19.17 9.585C19.17 14.8788 14.8788 19.17 9.585 19.17C4.29121 19.17 0 14.8788 0 9.585C0 4.29121 4.29121 0 9.585 0ZM4.83978 9.70942C4.48604 9.31811 4.51655 8.71389 4.90709 8.36093C5.29841 8.00718 5.90262 8.03769 6.25558 8.42824L8.64342 11.0665L13.8026 5.73746C14.1712 5.35867 14.7762 5.35006 15.155 5.71868C15.5338 6.0873 15.5424 6.69229 15.1737 7.07108L9.30634 13.1318L9.30478 13.1303C9.29069 13.1444 9.27582 13.1592 9.26095 13.1725C8.87042 13.5263 8.26623 13.4965 7.91246 13.1052L4.83901 9.7102L4.83978 9.70942Z" fill="#18B786"/>
</svg>
