<svg width="14" height="14" viewBox="0 0 14 14" fill="none" xmlns="http://www.w3.org/2000/svg">
<path d="M8.28261 6.99996L13.7339 1.54847C14.0887 1.19388 14.0887 0.620544 13.7339 0.265947C13.3793 -0.0886491 12.806 -0.0886491 12.4514 0.265947L6.99992 5.71743L1.5486 0.265947C1.19384 -0.0886491 0.620669 -0.0886491 0.266072 0.265947C-0.0886907 0.620544 -0.0886907 1.19388 0.266072 1.54847L5.71739 6.99996L0.266072 12.4514C-0.0886907 12.806 -0.0886907 13.3794 0.266072 13.734C0.442789 13.9109 0.675145 13.9997 0.907335 13.9997C1.13953 13.9997 1.37172 13.9109 1.5486 13.734L6.99992 8.28249L12.4514 13.734C12.6283 13.9109 12.8605 13.9997 13.0927 13.9997C13.3249 13.9997 13.557 13.9109 13.7339 13.734C14.0887 13.3794 14.0887 12.806 13.7339 12.4514L8.28261 6.99996Z" fill="#FF3B2E"/>
</svg>
