<svg width="72" height="32" viewBox="0 0 72 32" fill="none" xmlns="http://www.w3.org/2000/svg">
<g clip-path="url(#clip0_885_448)">
<path d="M0.913574 32H25.0511V15.7869H0.913574V32ZM9.45216 22.6242L11.7278 24.7921L16.9988 19.7707L18.6909 21.3827L11.7278 28.0162L7.76 24.2362L9.45216 22.6242ZM8.0323 8.59757C8.0323 6.00347 10.2496 3.89114 12.9921 3.89114C15.7151 3.89114 17.9324 6.00347 17.9324 8.59757V13.4708H22.0169V8.59757C21.9975 3.85408 17.9518 0 12.9921 0C8.01285 0 3.96724 3.85408 3.96724 8.59757V13.4708H8.05175V8.59757H8.0323ZM44.8319 14.3787C44.8319 12.044 43.3925 10.7099 41.1169 9.89461L39.0163 9.04227C37.3436 8.46786 36.1766 8.07875 36.1766 7.0967C36.1766 6.13318 37.0518 5.59583 38.355 5.59583C40.0471 5.59583 41.1363 6.07759 42.3422 6.91141L44.3261 4.55819C42.7507 3.14997 40.6695 2.39027 38.5689 2.39027C34.8345 2.39027 32.2282 4.55819 32.2282 7.30052C32.2282 9.70932 33.9787 11.1175 35.9237 11.8031L38.1605 12.7111C39.8137 13.3596 40.8446 13.6746 40.8446 14.8419C40.8446 15.6757 40.0666 16.2872 38.4133 16.2872C36.7406 16.2872 35.1263 15.5831 33.8231 14.564L31.5669 17.121C33.4147 18.696 35.807 19.4928 38.141 19.4928C42.42 19.4928 44.8319 17.1025 44.8319 14.3787ZM54.3818 9.89461L52.2812 9.04227C50.6085 8.46786 49.4415 8.07875 49.4415 7.0967C49.4415 6.13318 50.3168 5.59583 51.6199 5.59583C53.3121 5.59583 54.4013 6.07759 55.6072 6.91141L57.5911 4.55819C56.0156 3.14997 53.9345 2.39027 51.8339 2.39027C48.0995 2.39027 45.4932 4.55819 45.4932 7.30052C45.4932 9.70932 47.2437 11.1175 49.1887 11.8031L51.4254 12.7111C53.0787 13.3596 54.1095 13.6746 54.1095 14.8419C54.1095 15.6757 53.3315 16.2872 51.6783 16.2872C50.0056 16.2872 48.3912 15.5831 47.0881 14.564L44.8319 17.121C46.6796 18.696 49.072 19.4928 51.406 19.4928C55.7044 19.4928 58.1163 17.121 58.1163 14.3787C58.0968 12.044 56.6769 10.7099 54.3818 9.89461Z" fill="#33CC66"/>
<path d="M63.4845 16.0466V2.68701H59.5945V19.178H71.1867V16.0466H63.4845Z" fill="#33CC66"/>
<path d="M35.243 25.0333L34.1927 24.6072C33.5509 24.3477 32.8507 24.1069 32.8507 23.4213C32.8507 22.7728 33.4342 22.3836 34.3094 22.3836C35.0874 22.3836 35.6515 22.6431 36.1572 23.0507L36.6629 22.4578C36.1183 21.9389 35.3014 21.5684 34.3483 21.5684C32.9285 21.5684 31.8976 22.3651 31.8976 23.4583C31.8976 24.496 32.7729 25.0148 33.512 25.2927L34.5817 25.7374C35.3403 26.0524 35.9238 26.2748 35.9238 27.0345C35.9238 27.7015 35.3208 28.1648 34.29 28.1648C33.4342 28.1648 32.6562 27.8127 32.0921 27.2754L31.5281 27.9054C32.2088 28.5539 33.1424 28.9615 34.2511 28.9615C35.9043 28.9615 36.8963 28.0536 36.8963 26.9233C36.8963 25.8671 36.1572 25.3854 35.243 25.0333Z" fill="#B1B4C7"/>
<path d="M39.8722 25.4777H42.9843V24.6995H39.8722V22.4575H43.5483V21.6978H38.9192V28.8315H43.665V28.0533H39.8722V25.4777Z" fill="#B1B4C7"/>
<path d="M48.547 28.1647C47.1077 28.1647 46.1741 27.0345 46.1741 25.2371C46.1741 23.4583 47.1077 22.3466 48.547 22.3466C49.1694 22.3466 49.6751 22.606 50.0446 22.9951L50.5892 22.4207C50.1613 21.9574 49.4417 21.5498 48.547 21.5498C46.602 21.5498 45.1821 22.958 45.1821 25.2557C45.1821 27.5903 46.602 28.9615 48.4497 28.9615C49.4417 28.9615 50.1808 28.5724 50.7643 27.9239L50.2197 27.368C49.7723 27.8868 49.2472 28.1647 48.547 28.1647ZM56.327 26.1636C56.327 27.6459 55.6463 28.1833 54.7321 28.1833C53.8374 28.1833 53.1567 27.6459 53.1567 26.1636V21.698H52.2036V26.1451C52.2036 28.1833 53.2734 28.98 54.7321 28.98C56.1909 28.98 57.2412 28.2018 57.2412 26.1451V21.698H56.3076V26.1636H56.327ZM64.2432 23.6992C64.2432 22.2169 63.154 21.698 61.6369 21.698H59.3029V28.8318H60.2559V25.8115H61.598L63.4068 28.8318H64.4961L62.5899 25.7189C63.5625 25.478 64.2432 24.811 64.2432 23.6992ZM61.4813 25.0704H60.2365V22.4207H61.4813C62.6483 22.4207 63.2902 22.7542 63.2902 23.6992C63.2902 24.6257 62.6483 25.0704 61.4813 25.0704Z" fill="#B1B4C7"/>
<path d="M67.2579 25.4777H70.3699V24.6995H67.2579V22.4575H70.934V21.6978H66.2854V28.8315H71.0507V28.0533H67.2579V25.4777Z" fill="#B1B4C7"/>
</g>
<defs>
<clipPath id="clip0_885_448">
<rect width="70.137" height="32" fill="white" transform="translate(0.913574)"/>
</clipPath>
</defs>
</svg>
