<svg width="17" height="18" viewBox="0 0 17 18" fill="none" xmlns="http://www.w3.org/2000/svg">
<path d="M8.50005 0.924988C4.04622 0.924988 0.425049 4.54616 0.425049 8.99999C0.425049 13.4538 4.04622 17.075 8.50005 17.075C12.9539 17.075 16.5751 13.4538 16.5751 8.99999C16.5751 4.54616 12.9539 0.924988 8.50005 0.924988ZM13.0224 9.76499H11.7985L10.6085 12.145C10.4551 12.4 10.2001 12.57 9.91125 12.57C9.62237 12.57 9.35012 12.4 9.23125 12.145L7.08891 7.91233L6.37505 9.34006C6.23892 9.59506 5.98391 9.76506 5.69505 9.76506H3.99505C3.57005 9.76506 3.23005 9.42506 3.23005 9.00006C3.23005 8.57506 3.57005 8.23506 3.99505 8.23506H5.21891L6.40891 5.85506C6.66391 5.34506 7.51391 5.34506 7.76891 5.85506L9.89391 10.0877L10.625 8.64272C10.7612 8.38772 11.0162 8.21772 11.305 8.21772H13.005C13.43 8.21772 13.7701 8.55772 13.7701 8.98272C13.7701 9.40772 13.4473 9.76499 13.0223 9.76499H13.0224Z" fill="#9FA8B1"/>
</svg>
