<svg width="236" height="236" viewBox="0 0 236 236" fill="none" xmlns="http://www.w3.org/2000/svg">
<path d="M53.1918 36.4752C41.359 80.2467 10.5545 104.174 4.85114 125.27C-0.852194 146.366 -0.701421 193.94 96.3339 220.175C193.369 246.41 223.721 190.668 229.989 167.462C259.364 58.8231 74.1499 -41.0508 53.1918 36.4752Z" fill="white"/>
<path d="M77.0273 158.972C77.0273 166.216 82.8946 172.083 90.1385 172.083H103.25V191.75L121.277 172.083H180.277C187.521 172.083 193.388 166.216 193.388 158.972V103.25C193.388 96.0059 187.521 90.1387 180.277 90.1387H90.1385C82.8946 90.1387 77.0273 96.0059 77.0273 103.25V158.972Z" fill="#F3F3F1"/>
<path d="M90.1385 158.972V103.25C90.1385 96.0059 96.0057 90.1387 103.25 90.1387H90.1385C82.8946 90.1387 77.0273 96.0059 77.0273 103.25V158.972C77.0273 166.216 82.8946 172.083 90.1385 172.083H103.25C96.0057 172.083 90.1385 166.216 90.1385 158.972Z" fill="#D5DBE1"/>
<path d="M116.361 177.445V172.083H103.25V191.75L116.361 177.445Z" fill="#D5DBE1"/>
<path d="M158.972 57.3611V59L104.889 89.9422C102.857 91.0567 100.366 91.0567 98.3333 89.9422L44.25 59V57.3611C44.25 50.15 50.15 44.25 57.3611 44.25H145.861C153.072 44.25 158.972 50.15 158.972 57.3611Z" fill="#FEB46D"/>
<path d="M158.972 59V113.083C158.972 120.294 153.072 126.194 145.861 126.194H57.3611C50.15 126.194 44.25 120.294 44.25 113.083V59L98.3333 89.9422C100.366 91.0567 102.857 91.0567 104.889 89.9422L158.972 59Z" fill="#F3F3F1"/>
<path d="M59 57.3611V55.7222C59 50.7662 61.8254 46.4789 65.9096 44.25H57.3611C50.15 44.25 44.25 50.15 44.25 57.3611V59L98.3333 89.9422C100.366 91.0567 102.857 91.0567 104.889 89.9422L110.422 86.7759L59 57.3611Z" fill="#FF7F2E"/>
<path d="M59 113.083V67.437L44.25 59V113.083C44.25 120.294 50.15 126.194 57.3611 126.194H72.1111C64.9 126.194 59 120.294 59 113.083Z" fill="#D5DBE1"/>
<path d="M170.988 42.3815C165.566 42.3815 161.154 37.9696 161.154 32.5482C161.154 27.1267 165.566 22.7148 170.988 22.7148C176.409 22.7148 180.821 27.1267 180.821 32.5482C180.821 37.9696 176.416 42.3815 170.988 42.3815ZM170.988 29.2704C169.178 29.2704 167.71 30.7388 167.71 32.5482C167.71 34.3575 169.178 35.826 170.988 35.826C172.797 35.826 174.265 34.3575 174.265 32.5482C174.265 30.7388 172.797 29.2704 170.988 29.2704Z" fill="#A4AFC1"/>
<path d="M19.6055 176.089L24.2409 171.453L33.5119 180.724L28.8764 185.36L19.6055 176.089Z" fill="#A4AFC1"/>
<path d="M46.2559 202.744L50.8913 198.109L60.1623 207.38L55.5268 212.015L46.2559 202.744Z" fill="#A4AFC1"/>
<path d="M18.4492 207.377L27.7202 198.106L32.3557 202.741L23.0847 212.012L18.4492 207.377Z" fill="#A4AFC1"/>
<path d="M45.1035 180.727L54.3745 171.456L59.01 176.091L49.739 185.362L45.1035 180.727Z" fill="#A4AFC1"/>
<path d="M101.61 95.6913C99.6437 95.6913 97.6704 95.1865 95.9201 94.19L41.8105 63.2675L46.6879 54.7256L100.797 85.6416C101.296 85.93 101.925 85.93 102.423 85.6416L156.533 54.7256L161.41 63.2675L107.301 94.1835C105.55 95.193 103.577 95.6913 101.61 95.6913Z" fill="black"/>
<path d="M145.862 131.111H57.3618C47.417 131.111 39.334 123.028 39.334 113.083V57.3608C39.334 47.416 47.417 39.333 57.3618 39.333H145.862C155.807 39.333 163.89 47.416 163.89 57.3608V113.083C163.89 123.028 155.807 131.111 145.862 131.111ZM57.3618 49.1663C52.845 49.1663 49.1673 52.844 49.1673 57.3608V113.083C49.1673 117.6 52.845 121.277 57.3618 121.277H145.862C150.379 121.277 154.056 117.6 154.056 113.083V57.3608C154.056 52.844 150.379 49.1663 145.862 49.1663H57.3618Z" fill="black"/>
<path d="M103.25 196.667C102.654 196.667 102.044 196.556 101.467 196.333C99.5791 195.599 98.3336 193.776 98.3336 191.75V177H90.1391C80.1943 177 72.1113 168.917 72.1113 158.973V142.584H81.9447V158.973C81.9447 163.489 85.6223 167.167 90.1391 167.167H103.25C105.964 167.167 108.167 169.37 108.167 172.084V179.111L117.653 168.76C118.584 167.744 119.901 167.167 121.278 167.167H180.278C184.795 167.167 188.472 163.489 188.472 158.973V103.25C188.472 98.7337 184.795 95.056 180.278 95.056H175.361V85.2227H180.278C190.223 85.2227 198.306 93.3057 198.306 103.25V158.973C198.306 168.917 190.223 177 180.278 177H123.441L106.875 195.074C105.925 196.11 104.601 196.667 103.25 196.667Z" fill="black"/>
</svg>
