<svg width="20" height="18" viewBox="0 0 20 18" fill="none" xmlns="http://www.w3.org/2000/svg">
<path fill-rule="evenodd" clip-rule="evenodd" d="M17.9708 0.117306C18.2115 0.0124427 18.4742 -0.023015 18.7322 0.0145637C18.9901 0.0521424 19.2339 0.161407 19.4386 0.331164C19.6434 0.500921 19.8017 0.725068 19.8973 0.980642C19.993 1.23621 20.0225 1.51403 19.9829 1.78561C19.4124 5.70141 18.3664 12.8768 17.8111 16.6857C17.7727 16.9493 17.6705 17.1979 17.5144 17.4076C17.3583 17.6173 17.1535 17.7809 16.92 17.8827C16.6864 17.9845 16.432 18.0209 16.1811 17.9885C15.9303 17.9561 15.6917 17.856 15.4883 17.6978C13.524 16.1706 10.5791 13.8807 9.08388 12.7177C8.96849 12.628 8.87318 12.5126 8.80468 12.3797C8.73618 12.2469 8.69616 12.0997 8.68743 11.9488C8.67871 11.7978 8.7015 11.6466 8.7542 11.5059C8.8069 11.3653 8.88823 11.2385 8.99243 11.1347C10.3625 9.76911 13.0912 7.04939 14.9687 5.17803C15.0129 5.13368 15.0398 5.07349 15.0442 5.00927C15.0486 4.94505 15.0301 4.88143 14.9923 4.83087C14.9545 4.7803 14.9002 4.74644 14.84 4.73592C14.7798 4.7254 14.7181 4.73898 14.6669 4.774C12.2597 6.43094 8.57292 8.96828 6.76602 10.2119C6.42739 10.445 6.04682 10.6018 5.64812 10.6724C5.24942 10.7431 4.84119 10.7262 4.44899 10.6226C3.45404 10.3602 2.01892 9.98146 0.741788 9.6446C0.541836 9.59187 0.362747 9.4739 0.23003 9.3075C0.097313 9.14109 0.0177357 8.93473 0.00263308 8.71781C-0.0124695 8.50089 0.0376729 8.28447 0.145918 8.09937C0.254163 7.91428 0.41499 7.76996 0.605492 7.68695C5.05136 5.74895 13.7519 1.95663 17.9708 0.117306Z" fill="#ffffff"/>
</svg>
