<svg width="64" height="64" viewBox="0 0 64 64" fill="none" xmlns="http://www.w3.org/2000/svg">
<path d="M62.0942 36.6059C55.5289 26.2094 56.4071 15.6672 53.2427 10.6574C50.0782 5.64763 40.5529 -3.05637 17.504 11.4983C-5.54489 26.053 0.0106668 42.3428 3.49156 47.8539C19.7867 73.6583 73.7209 55.0201 62.0942 36.6059Z" fill="#F5F8FB"/>
<path d="M52 20.8886V43.1108C52 45.0752 50.4089 46.6663 48.4444 46.6663H15.5556C13.5911 46.6663 12 45.0752 12 43.1108V20.8886C12 18.9241 13.5911 17.333 15.5556 17.333H48.4444C50.4089 17.333 52 18.9241 52 20.8886Z" fill="#F3F3F1"/>
<path d="M16 43.1108V20.8886C16 18.9241 17.5911 17.333 19.5556 17.333H15.5556C13.5911 17.333 12 18.9241 12 20.8886V43.1108C12 45.0752 13.5911 46.6663 15.5556 46.6663H19.5556C17.5911 46.6663 16 45.0752 16 43.1108Z" fill="#D5DBE1"/>
<path d="M24 30.6665C25.7183 30.6665 27.1112 29.2737 27.1112 27.5554C27.1112 25.8372 25.7183 24.4443 24 24.4443C22.2818 24.4443 20.8889 25.8372 20.8889 27.5554C20.8889 29.2737 22.2818 30.6665 24 30.6665Z" fill="#FEB46D"/>
<path d="M27.1112 35.1104H20.8889C18.9245 35.1104 17.3334 36.7015 17.3334 38.6659V39.5548H30.6667V38.6659C30.6667 36.7015 29.0756 35.1104 27.1112 35.1104Z" fill="#FEB46D"/>
<path d="M24.8889 35.1104H20.8889C18.9245 35.1104 17.3334 36.7015 17.3334 38.6659V39.5548H21.3334V38.6659C21.3334 36.7015 22.9245 35.1104 24.8889 35.1104Z" fill="#FF7F2E"/>
<path d="M24 30.6665C24.7663 30.6665 25.4578 30.3785 26 29.9199C25.3263 29.3492 24.8889 28.5083 24.8889 27.5554C24.8889 26.6026 25.3263 25.7617 26 25.191C25.4578 24.7323 24.7663 24.4443 24 24.4443C22.2827 24.4443 20.8889 25.8381 20.8889 27.5554C20.8889 29.2728 22.2827 30.6665 24 30.6665Z" fill="#FF7F2E"/>
<path d="M53.2776 9.77734L55.7917 7.26319L57.0488 8.52027L54.5347 11.0344L53.2776 9.77734Z" fill="#A4AFC1"/>
<path d="M46.0459 8.19727L47.303 6.94019L49.8171 9.45434L48.5601 10.7114L46.0459 8.19727Z" fill="#A4AFC1"/>
<path d="M53.2732 15.4258L54.5303 14.1687L57.0444 16.6829L55.7874 17.9399L53.2732 15.4258Z" fill="#A4AFC1"/>
<path d="M48.4444 48H15.5555C12.8586 48 10.6666 45.808 10.6666 43.1111V20.8889C10.6666 18.192 12.8586 16 15.5555 16H48.4444C51.1413 16 53.3333 18.192 53.3333 20.8889V43.1111C53.3333 45.808 51.1413 48 48.4444 48ZM15.5555 18.6667C14.3306 18.6667 13.3333 19.664 13.3333 20.8889V43.1111C13.3333 44.336 14.3306 45.3333 15.5555 45.3333H48.4444C49.6693 45.3333 50.6666 44.336 50.6666 43.1111V20.8889C50.6666 19.664 49.6693 18.6667 48.4444 18.6667H15.5555Z" fill="black"/>
<path d="M24 31.9992C21.5502 31.9992 19.5555 30.0046 19.5555 27.5548C19.5555 25.105 21.5502 23.1104 24 23.1104C26.4498 23.1104 28.4444 25.105 28.4444 27.5548C28.4444 30.0046 26.4498 31.9992 24 31.9992ZM24 25.777C23.0204 25.777 22.2222 26.5752 22.2222 27.5548C22.2222 28.5344 23.0204 29.3326 24 29.3326C24.9795 29.3326 25.7778 28.5344 25.7778 27.5548C25.7778 26.5752 24.9795 25.777 24 25.777Z" fill="black"/>
<path d="M32 39.5551H29.3333V38.6662C29.3333 37.4413 28.336 36.444 27.1111 36.444H20.8889C19.664 36.444 18.6667 37.4413 18.6667 38.6662V39.5551H16V38.6662C16 35.9693 18.192 33.7773 20.8889 33.7773H27.1111C29.808 33.7773 32 35.9693 32 38.6662V39.5551Z" fill="black"/>
<path d="M36.8889 24H46.6667V26.6667H36.8889V24Z" fill="black"/>
<path d="M36.8889 31.1104H46.6667V33.777H36.8889V31.1104Z" fill="black"/>
<path d="M36.8889 38.2217H46.6667V40.8883H36.8889V38.2217Z" fill="black"/>
</svg>
