<svg width="69" height="69" viewBox="0 0 69 69" fill="none" xmlns="http://www.w3.org/2000/svg">
<path d="M15.5519 10.664C12.0923 23.4616 3.08586 30.4574 1.41836 36.6253C-0.249142 42.7931 -0.20506 56.7023 28.1654 64.3728C56.5359 72.0433 65.4101 55.7459 67.2424 48.9609C75.831 17.1979 21.6794 -12.0025 15.5519 10.664Z" fill="#F5F8FB"/>
<path d="M52.7084 52.708H12.4584L13.4934 48.5489C13.9342 46.8047 15.2184 45.4247 16.905 44.8689L24.61 42.3005C25.6834 41.8597 26.2967 40.9014 26.6609 39.8664C26.795 39.483 26.8909 39.0997 26.9675 38.7355C27.0059 38.563 27.0442 38.3905 27.0634 38.2372C27.1975 37.3364 27.1975 36.5505 27.1975 36.2247C25.9517 35.1897 24.4184 33.4072 24.4184 31.893C24.4184 30.3788 23.5559 30.1488 23.5559 30.1488C23.5559 30.1488 22.6934 27.983 22.6934 26.6797C22.6934 26.6797 22.6934 26.6605 22.7125 26.6413C22.77 26.4688 23.0575 25.8172 23.6325 25.8172C23.6325 25.8172 23.6325 25.1463 23.6325 24.1688C23.6325 24.1497 23.6325 24.1497 23.6325 24.1305C23.6709 23.2105 23.7284 22.0413 23.7284 20.6038C23.7284 19.4538 24.265 18.0547 25.185 16.7513C25.53 16.5405 25.8175 16.4638 25.8175 16.2722C25.8175 16.138 25.8559 15.9847 25.9134 15.8122C27.5234 13.953 29.9 12.458 32.5834 12.458C35.2667 12.458 37.6434 13.953 39.2534 15.8122C39.3109 15.9847 39.3492 16.138 39.3492 16.2722C39.3492 16.4638 39.6367 16.5405 39.9817 16.7513C40.9017 18.0547 41.4384 19.4538 41.4384 20.6038C41.4384 22.0413 41.4959 23.2105 41.5342 24.1305V24.1688V25.8172C42.1092 25.8172 42.3967 26.4688 42.4542 26.6413C42.4734 26.6605 42.4734 26.6797 42.4734 26.6797C42.4734 27.983 41.6109 30.1488 41.6109 30.1488C41.6109 30.1488 40.7484 30.3788 40.7484 31.893C40.7484 33.4072 39.215 35.1897 37.9692 36.2247C37.9692 36.5313 37.9692 37.3172 38.1034 38.2372C38.1225 38.3905 38.1609 38.563 38.1992 38.7355C38.2759 39.1188 38.3717 39.483 38.5059 39.8664C38.87 40.9014 39.4834 41.8597 40.5567 42.3005L48.2617 44.8689C49.9484 45.4247 51.2325 46.8047 51.6734 48.5489L52.7084 52.708Z" fill="#F3F3F1"/>
<path d="M46 56.5416C46 56.5416 56.5417 52.0931 56.5417 43.194C56.5417 39.6347 56.5417 35.1842 56.5417 35.1842L46 31.625L35.4584 35.1842V43.194C35.4584 52.0931 46 56.5416 46 56.5416Z" fill="#FEB46D"/>
<path d="M31.0309 36.2247C31.0309 36.5505 31.0309 37.3364 30.8967 38.2372C30.8775 38.3905 30.8392 38.563 30.8009 38.7355C30.7242 39.0997 30.6284 39.483 30.4942 39.8664C30.13 40.9014 29.5167 41.8597 28.4434 42.3005L20.7384 44.8689C19.0517 45.4247 17.7675 46.8047 17.3267 48.5489L16.2917 52.708H12.4584L13.4934 48.5489C13.9342 46.8047 15.2184 45.4247 16.905 44.8689L24.61 42.3005C25.6834 41.8597 26.2967 40.9014 26.6609 39.8664C26.795 39.483 26.8909 39.0997 26.9675 38.7355C27.0059 38.563 27.0442 38.3905 27.0634 38.2372C27.1975 37.3364 27.1975 36.5505 27.1975 36.2247C25.9517 35.1897 24.4184 33.4072 24.4184 31.893C24.4184 30.3788 23.5559 30.1488 23.5559 30.1488C23.5559 30.1488 22.6934 27.983 22.6934 26.6797C22.6934 26.6797 22.6934 26.6605 22.7125 26.6413C22.77 26.4688 23.0575 25.8172 23.6325 25.8172C23.6325 25.8172 23.6325 25.1463 23.6325 24.1688C23.6325 24.1497 23.6325 24.1497 23.6325 24.1305C23.6709 23.2105 23.7284 22.0413 23.7284 20.6038C23.7284 19.4538 24.265 18.0547 25.185 16.7513C25.53 16.5405 25.8175 16.4638 25.8175 16.2722C25.8175 16.138 25.8559 15.9847 25.9134 15.8122C27.5234 13.953 29.9 12.458 32.5834 12.458C33.235 12.458 33.8867 12.5538 34.5 12.7263C32.6217 13.2055 30.9542 14.413 29.7467 15.8122C29.6892 15.9847 29.6509 16.138 29.6509 16.2722C29.6509 16.4638 29.3634 16.5405 29.0184 16.7513C28.0984 18.0547 27.5617 19.4538 27.5617 20.6038C27.5617 22.0413 27.5042 23.2105 27.4659 24.1305V24.1688V25.8172C26.8909 25.8172 26.6034 26.4688 26.5459 26.6413C26.5267 26.6605 26.5267 26.6797 26.5267 26.6797C26.5267 27.983 27.3892 30.1488 27.3892 30.1488C27.3892 30.1488 28.2517 30.3788 28.2517 31.893C28.2517 33.4072 29.785 35.1897 31.0309 36.2247Z" fill="#D5DBE1"/>
<path d="M47.9167 55.545C46.7859 56.2158 46 56.5416 46 56.5416C46 56.5416 35.4584 52.095 35.4584 43.2017C35.4584 37.8542 35.4584 35.19 35.4584 35.19L46 31.625L47.9167 32.2767L39.2917 35.19V43.2017C39.2917 49.68 44.8884 53.8008 47.9167 55.545Z" fill="#FF7F2E"/>
<path d="M32.6217 54.1455H12.4584C12.0175 54.1455 11.5978 53.9424 11.3256 53.5935C11.0515 53.2447 10.9576 52.7905 11.063 52.3611L12.098 48.202C12.6596 45.9729 14.2888 44.2172 16.4546 43.5042L24.1539 40.9378C25.0413 40.566 25.647 39.0518 25.7466 36.861C24.7116 35.895 22.9809 33.9669 22.9809 31.895C22.9809 31.6573 22.9464 31.5116 22.9215 31.4407C22.6052 31.2855 22.3541 31.0171 22.2219 30.6836C22.1222 30.4364 21.2559 28.2169 21.2559 26.6816C21.2559 26.5666 21.2693 26.4516 21.2961 26.3385C21.4245 25.8134 21.7159 25.2863 22.1452 24.9106C22.1548 24.74 22.1644 24.556 22.174 24.3605C22.2238 23.4195 22.2909 22.166 22.2909 20.6058C22.2909 16.8357 26.7107 11.0225 32.5834 11.0225C37.536 11.0225 40.0584 13.6234 40.6487 15.4749C41.839 16.1764 42.9717 17.4241 42.9717 20.6058V24.9279C43.3819 25.2767 43.679 25.752 43.8361 26.2255C43.886 26.373 43.9109 26.5264 43.9109 26.6816L42.3488 26.7238L41.1106 27.1378C41.1202 27.1378 41.2965 27.2585 41.5342 27.2585C40.7407 27.2585 40.0967 26.6145 40.0967 25.821V20.6077C40.0967 18.4016 39.4853 18.093 39.079 17.8899C38.7608 17.727 37.9117 17.2995 37.9117 16.2722C37.8389 15.9636 36.5221 13.8955 32.5834 13.8955C28.3725 13.8955 25.1659 18.3671 25.1659 20.6039C25.1659 22.2273 25.0988 23.5306 25.0451 24.51C25.0164 25.0544 24.9934 25.4914 24.9934 25.8172C24.9934 26.3922 24.656 26.8886 24.1673 27.1186C24.2612 27.7415 24.5104 28.5657 24.7289 29.1848C25.3077 29.6525 25.8559 30.5035 25.8559 31.893C25.8559 32.6616 26.8276 34.0493 28.1175 35.1188C28.4453 35.3929 28.637 35.7973 28.637 36.2247C28.637 40.0695 27.4026 42.6992 25.162 43.6288L17.3631 46.2335C16.1307 46.6399 15.2088 47.6365 14.8906 48.9016L14.2984 51.2705H32.6217V54.1455ZM23.1821 31.5365H23.186C23.184 31.5385 23.1821 31.5365 23.1821 31.5365Z" fill="black"/>
<path d="M46 57.9787C45.8084 57.9787 45.6205 57.9404 45.4404 57.8656C44.9746 57.6682 34.0209 52.934 34.0209 43.1935V35.1838C34.0209 34.5666 34.4138 34.0204 34.9984 33.8229L45.54 30.2637C45.839 30.1621 46.161 30.1621 46.46 30.2637L57.0017 33.8229C57.5863 34.0204 57.9792 34.5685 57.9792 35.1838V43.1935C57.9792 52.934 47.0255 57.6701 46.5597 57.8656C46.3795 57.9404 46.1917 57.9787 46 57.9787ZM36.8959 36.2169V43.1935C36.8959 49.9325 43.9358 53.9288 45.9981 54.9542C48.0585 53.923 55.1042 49.9076 55.1042 43.1935V36.2169L46 33.1425L36.8959 36.2169Z" fill="black"/>
<path d="M45.0417 48.3951C45.0149 48.3951 44.99 48.3951 44.9631 48.3932C44.553 48.3702 44.1754 48.1747 43.9185 47.8565L40.0852 43.0648L42.3315 41.267L45.1625 44.8052L50.7342 39.2334L52.7678 41.267L46.0595 47.9753C45.7892 48.2437 45.4212 48.3951 45.0417 48.3951Z" fill="black"/>
<path d="M42.9213 7.90137L44.2766 6.54608L46.9871 9.25665L45.6318 10.6119L42.9213 7.90137Z" fill="#A4AFC1"/>
<path d="M50.7195 15.7109L52.0748 14.3556L54.7853 17.0662L53.4301 18.4215L50.7195 15.7109Z" fill="#A4AFC1"/>
<path d="M50.7135 8.91797L53.4241 6.20739L54.7794 7.56268L52.0688 10.2733L50.7135 8.91797Z" fill="#A4AFC1"/>
</svg>
