<svg width="72" height="32" viewBox="0 0 72 32" fill="none" xmlns="http://www.w3.org/2000/svg">
<g clip-path="url(#clip0_592_74)">
<path d="M19.251 5.99805H26.4399V7.3228H23.6749V14.4765H22.0159V7.3228H19.251V5.99805ZM26.0251 8.25013H27.4076V9.44242C27.4076 9.30994 27.5459 9.17746 27.6841 8.91251C27.8223 8.64756 27.9606 8.64756 28.0988 8.51509C28.2371 8.38261 28.5136 8.25013 28.6518 8.25013C28.7901 8.11766 29.0666 8.11766 29.3431 8.11766C29.4813 8.11766 29.6196 8.11766 29.6196 8.11766H29.7578V9.44242C29.6196 9.44242 29.6196 9.44242 29.4813 9.44242C29.3431 9.44242 29.3431 9.44242 29.2048 9.44242C28.9283 9.44242 28.7901 9.44242 28.5136 9.57489C28.2371 9.70737 28.0988 9.83984 27.9606 9.97232C27.8223 10.1048 27.6841 10.3697 27.5459 10.6347C27.4076 10.8996 27.4076 11.1646 27.4076 11.562V14.4765H26.0251V8.25013ZM36.2555 14.4765H34.873V13.6816C34.7347 13.9466 34.4582 14.2115 34.0435 14.4765C33.767 14.609 33.3523 14.7414 32.9375 14.7414C32.108 14.7414 31.555 14.609 31.1403 14.0791C30.7256 13.5492 30.5873 13.0193 30.5873 12.2244V8.38261H31.9698V12.0919C31.9698 12.6218 32.108 13.0193 32.2463 13.2842C32.5228 13.5492 32.7993 13.6816 33.214 13.6816C33.4905 13.6816 33.767 13.6816 33.9053 13.5492C34.0435 13.4167 34.32 13.2842 34.32 13.1517C34.4582 13.0193 34.5965 12.8868 34.5965 12.6218C34.5965 12.3569 34.7347 12.2244 34.7347 11.9595V8.38261H36.1172V14.4765H36.2555ZM38.6057 12.4894C38.6057 12.8868 38.7439 13.1517 39.0204 13.2842C39.2969 13.4167 39.5734 13.5492 39.9882 13.5492C40.1264 13.5492 40.2647 13.5492 40.4029 13.5492C40.5412 13.5492 40.6794 13.5492 40.8176 13.4167C40.9559 13.4167 41.0941 13.2842 41.2324 13.1517C41.3706 13.0193 41.3706 12.8868 41.3706 12.7543C41.3706 12.6218 41.2324 12.4894 41.2324 12.3569C41.0941 12.2244 40.9559 12.2244 40.8176 12.0919C40.6794 12.0919 40.4029 11.9595 40.1264 11.9595C39.8499 11.9595 39.5734 11.827 39.4352 11.827C39.1587 11.827 38.8822 11.6945 38.7439 11.562C38.6057 11.4296 38.3292 11.4296 38.0527 11.2971C37.9144 11.1646 37.6379 11.0321 37.6379 10.7672C37.4997 10.5022 37.4997 10.2373 37.4997 9.97232C37.4997 9.57489 37.638 9.30994 37.7762 9.17746C37.9144 9.04499 38.1909 8.78004 38.4674 8.64756C38.7439 8.51509 39.0204 8.38261 39.2969 8.38261C39.5734 8.38261 39.9882 8.25013 40.2647 8.25013C40.5412 8.25013 40.9559 8.25013 41.2324 8.38261C41.5089 8.38261 41.7854 8.51509 42.0619 8.64756C42.3384 8.78004 42.4766 9.04499 42.6149 9.17746C42.7531 9.44242 42.8914 9.70737 42.8914 10.1048H41.3706C41.3706 9.83984 41.0941 9.57489 40.9559 9.44242C40.5412 9.30994 40.2647 9.17746 39.9882 9.17746C39.8499 9.17746 39.7117 9.17746 39.5734 9.17746C39.4352 9.17746 39.2969 9.17747 39.1587 9.30994C39.0204 9.30994 38.8822 9.44242 38.8822 9.44242C38.7439 9.57489 38.7439 9.57489 38.7439 9.70737C38.7439 9.83984 38.7439 9.97232 38.8822 10.1048C39.0204 10.2373 39.1587 10.2373 39.2969 10.3697C39.4352 10.3697 39.7117 10.5022 39.9882 10.5022C40.2647 10.5022 40.5412 10.6347 40.8176 10.6347C41.0941 10.6347 41.3706 10.7672 41.5089 10.8996C41.7854 11.0321 41.9236 11.0321 42.2001 11.1646C42.4766 11.2971 42.6149 11.4296 42.6149 11.6945C42.7531 11.9595 42.7531 12.0919 42.7531 12.4894C42.7531 12.8868 42.6149 13.1517 42.4766 13.4167C42.3384 13.6816 42.0619 13.8141 41.7854 14.0791C41.6471 14.344 41.3706 14.4765 41.0941 14.4765C40.8177 14.4765 40.4029 14.609 40.1264 14.609C39.7117 14.609 39.2969 14.609 39.0204 14.4765C38.7439 14.344 38.3292 14.2115 38.1909 14.0791C37.9144 13.9466 37.7762 13.6816 37.6379 13.4167C37.3615 13.1517 37.2232 12.8868 37.2232 12.4894H38.6057ZM43.3061 8.25013H44.4121V6.52795H45.7946V8.38261H47.0388V9.44242H45.7946V12.7543C45.7946 12.8868 45.7946 13.0193 45.7946 13.1517C45.7946 13.2842 45.7946 13.2842 45.9328 13.4167C46.0711 13.5492 46.0711 13.5492 46.0711 13.5492C46.2093 13.5492 46.3476 13.5492 46.4858 13.5492C46.6241 13.5492 46.6241 13.5492 46.7623 13.5492C46.9006 13.5492 46.9006 13.5492 47.0388 13.5492V14.4765C46.9006 14.4765 46.7623 14.4765 46.6241 14.4765C46.4858 14.4765 46.3476 14.4765 46.2093 14.4765C45.7946 14.4765 45.5181 14.4765 45.3798 14.344C45.1033 14.344 44.9651 14.2115 44.8268 14.0791C44.6886 13.9466 44.5503 13.8141 44.5503 13.5492C44.5503 13.4167 44.4121 13.1517 44.4121 12.8868V9.30994H43.3061V8.25013ZM48.0065 8.25013H49.389V9.17746C49.5273 8.78004 49.8038 8.51509 50.2185 8.38261C50.6333 8.25013 50.9098 8.11766 51.3245 8.11766C51.8775 8.11766 52.2922 8.25013 52.707 8.38261C53.1217 8.51509 53.3982 8.78004 53.6747 9.04499C53.9512 9.30994 54.0895 9.70737 54.2277 10.1048C54.3659 10.5022 54.366 10.8997 54.366 11.4296C54.366 11.827 54.3659 12.2244 54.2277 12.6218C54.0895 13.0193 53.9512 13.2842 53.6747 13.6816C53.3982 13.9466 53.1217 14.2115 52.8452 14.344C52.4305 14.4765 52.154 14.609 51.601 14.609C51.4627 14.609 51.1862 14.609 51.048 14.609C50.9098 14.609 50.6333 14.4765 50.495 14.4765C50.3568 14.344 50.0803 14.344 49.942 14.2115C49.8038 14.0791 49.6655 13.9466 49.5273 13.8141V16.8611H48.1448V8.25013H48.0065ZM52.9835 11.4296C52.9835 11.1646 52.9835 10.8996 52.8452 10.6347C52.707 10.3697 52.707 10.1048 52.5687 9.97232C52.4305 9.83984 52.2922 9.57489 52.0157 9.44242C51.7392 9.30994 51.601 9.30994 51.1862 9.30994C50.6333 9.30994 50.0803 9.44242 49.8038 9.83984C49.5273 10.2373 49.389 10.7672 49.389 11.4296C49.389 11.6945 49.389 12.0919 49.5273 12.2244C49.6655 12.4894 49.6655 12.7543 49.942 12.8868C50.0803 13.0193 50.2185 13.2842 50.495 13.2842C50.7715 13.4167 50.9097 13.4167 51.1862 13.4167C51.4627 13.4167 51.7392 13.4167 52.0157 13.2842C52.2922 13.1517 52.4305 13.0193 52.5687 12.7543C52.707 12.4894 52.8452 12.3569 52.8452 12.0919C52.8452 11.9595 52.9835 11.6945 52.9835 11.4296ZM55.4719 5.99805H56.8544V7.3228H55.4719V5.99805ZM55.4719 8.25013H56.8544V14.4765H55.4719V8.25013ZM58.0986 5.99805H59.4811V14.4765H58.0986V5.99805ZM63.7668 14.609C63.2138 14.609 62.7991 14.4765 62.3843 14.344C61.9696 14.2115 61.6931 13.9466 61.4166 13.6816C61.1401 13.4167 60.8636 13.0193 60.7254 12.6218C60.5871 12.2244 60.4489 11.827 60.4489 11.2971C60.4489 10.7672 60.5871 10.3697 60.7254 9.97232C60.8636 9.57489 61.1401 9.17746 61.4166 8.91251C61.6931 8.64756 61.9696 8.38261 62.3843 8.25013C62.7991 8.11766 63.2138 7.98518 63.7668 7.98518C64.3198 7.98518 64.7345 8.11766 65.1493 8.25013C65.564 8.38261 65.8405 8.64756 66.117 8.91251C66.3935 9.17746 66.67 9.57489 66.8083 9.97232C66.9465 10.3697 67.0848 10.7672 67.0848 11.2971C67.0848 11.827 66.9465 12.2244 66.8083 12.6218C66.67 13.0193 66.3935 13.4167 66.117 13.6816C65.8405 13.9466 65.564 14.2115 65.1493 14.344C64.7345 14.4765 64.3198 14.609 63.7668 14.609ZM63.7668 13.5492C64.0433 13.5492 64.3198 13.5492 64.5963 13.4167C64.8728 13.2842 65.011 13.1517 65.1493 12.8868C65.2875 12.6218 65.4258 12.4894 65.4258 12.2244C65.4258 11.9595 65.564 11.6945 65.564 11.4296C65.564 11.1646 65.564 10.8996 65.4258 10.6347C65.4258 10.3697 65.2875 10.1048 65.1493 9.97232C65.011 9.83984 64.8728 9.57489 64.5963 9.44242C64.3198 9.30994 64.0433 9.30994 63.7668 9.30994C63.4903 9.30994 63.2138 9.30994 62.9373 9.44242C62.6608 9.57489 62.5226 9.70737 62.3843 9.97232C62.2461 10.2373 62.1078 10.3697 62.1078 10.6347C62.1078 10.8996 61.9696 11.1646 61.9696 11.4296C61.9696 11.6945 61.9696 11.9595 62.1078 12.2244C62.1078 12.4894 62.2461 12.7543 62.3843 12.8868C62.5226 13.1517 62.6608 13.2842 62.9373 13.4167C63.2138 13.4167 63.4903 13.5492 63.7668 13.5492ZM67.4995 8.25013H68.6055V6.52795H69.988V8.38261H71.2322V9.44242H69.988V12.7543C69.988 12.8868 69.988 13.0193 69.988 13.1517C69.988 13.2842 69.988 13.2842 70.1262 13.4167C70.2645 13.5492 70.2645 13.5492 70.2645 13.5492C70.4027 13.5492 70.541 13.5492 70.6792 13.5492C70.8175 13.5492 70.8175 13.5492 70.9557 13.5492C71.0939 13.5492 71.0939 13.5492 71.2322 13.5492V14.4765C71.0939 14.4765 70.9557 14.4765 70.8174 14.4765C70.6792 14.4765 70.541 14.4765 70.4027 14.4765C69.988 14.4765 69.7115 14.4765 69.5732 14.344C69.2967 14.344 69.1585 14.2115 69.0202 14.0791C68.882 13.9466 68.7437 13.8141 68.7437 13.5492C68.7437 13.4167 68.6055 13.1517 68.6055 12.8868V9.30994H67.4995V8.25013Z" fill="#191919"/>
<path d="M17.5921 5.99803H11.0944L9.15895 0.0366211L7.08523 5.99803H0.72583L5.841 9.57487L3.90553 15.5363L9.15895 11.827L14.2741 15.5363L12.3387 9.57487L17.5921 5.99803Z" fill="#00B67A"/>
<path d="M12.7534 10.8995L12.3386 9.57471L9.15894 11.8268L12.7534 10.8995Z" fill="#005128"/>
<path d="M13.9976 19.2456H0.72583V31.9633H13.9976V19.2456Z" fill="#00B67A"/>
<path d="M28.2371 19.2456H14.9653V31.9633H28.2371V19.2456Z" fill="#00B67A"/>
<path d="M42.6151 19.2456H29.3433V31.9633H42.6151V19.2456Z" fill="#00B67A"/>
<path d="M56.8548 19.2456H43.583V31.9633H56.8548V19.2456Z" fill="#00B67A"/>
<path d="M71.2323 19.2456H57.9604V31.9633H71.2323V19.2456Z" fill="#DCDCE6"/>
<path d="M57.9604 19.2456H64.5963V31.8308H57.9604V19.2456Z" fill="#00B67A"/>
<path d="M7.22356 27.7241L9.29728 27.1942L10.1268 29.7112L7.22356 27.7241ZM11.924 24.5447H8.32954L7.22356 21.3652L6.11757 24.5447H2.66138L5.56458 26.5318L4.4586 29.7112L7.3618 27.7241L9.15903 26.5318L11.924 24.5447Z" fill="white"/>
<path d="M21.6014 27.7241L23.6751 27.1942L24.5046 29.7112L21.6014 27.7241ZM26.1636 24.5447H22.5691L21.4631 21.3652L20.3571 24.5447H16.7627L19.6659 26.5318L18.5599 29.7112L21.4631 27.7241L23.2603 26.5318L26.1636 24.5447Z" fill="white"/>
<path d="M35.9791 27.7241L38.0528 27.1942L38.8823 29.7112L35.9791 27.7241ZM40.5412 24.5447H36.9468L35.8408 21.3652L34.7348 24.5447H31.1404L34.0436 26.5318L33.0759 29.7112L35.9791 27.7241L37.7763 26.5318L40.5412 24.5447Z" fill="white"/>
<path d="M50.2185 27.7241L52.2922 27.1942L53.1217 29.7112L50.2185 27.7241ZM54.9189 24.5447H51.3245L50.2185 21.3652L49.1125 24.5447H45.5181L48.4213 26.5318L47.3153 29.7112L50.2185 27.7241L52.0157 26.5318L54.9189 24.5447Z" fill="white"/>
<path d="M64.5964 27.7241L66.6701 27.1942L67.4996 29.7112L64.5964 27.7241ZM69.1586 24.5447H65.5642L64.4582 21.3652L63.4904 24.5447H59.896L62.7992 26.5318L61.6932 29.7112L64.5964 27.7241L66.3936 26.5318L69.1586 24.5447Z" fill="white"/>
</g>
<defs>
<clipPath id="clip0_592_74">
<rect width="70.9719" height="32" fill="white" transform="translate(0.620117)"/>
</clipPath>
</defs>
</svg>
