<svg width="13" height="11" viewBox="0 0 13 11" fill="none" xmlns="http://www.w3.org/2000/svg">
<path d="M3.79229 11C9.12245 11 12.0787 6.5935 11.8991 2.7446C12.294 2.46678 12.651 2.14117 12.9614 1.7756C12.985 1.74732 12.9984 1.71238 12.9999 1.67601C13.0013 1.63964 12.9906 1.6038 12.9693 1.57386C12.9481 1.54391 12.9174 1.52148 12.882 1.5099C12.8466 1.49833 12.8082 1.49825 12.7727 1.50967C12.5384 1.58297 12.2995 1.64185 12.0575 1.68594C12.0384 1.68925 12.0187 1.68619 12.0015 1.67725C11.9844 1.66831 11.9709 1.65403 11.9631 1.63668C11.9553 1.61934 11.9537 1.59995 11.9586 1.58164C11.9635 1.56332 11.9746 1.54715 11.9901 1.53572C12.3016 1.29585 12.5583 0.995456 12.7439 0.65368C12.7599 0.622529 12.7655 0.587257 12.7599 0.552847C12.7542 0.518437 12.7376 0.486627 12.7123 0.46191C12.6871 0.437194 12.6545 0.42082 12.6192 0.415102C12.5839 0.409383 12.5477 0.414608 12.5156 0.43004C12.0735 0.635104 11.6067 0.785262 11.1262 0.876982C10.735 0.470916 10.2274 0.18874 9.66934 0.0670902C9.11129 -0.05456 8.52858 -0.0100664 7.99683 0.194795C7.46509 0.399656 7.00889 0.755423 6.68745 1.21591C6.36602 1.67639 6.1942 2.22032 6.1943 2.77708C6.19507 2.95403 6.21217 3.13056 6.24538 3.30454C6.24784 3.3172 6.2473 3.33023 6.2438 3.34265C6.2403 3.35507 6.23393 3.36655 6.22518 3.37621C6.21643 3.38587 6.20554 3.39345 6.19332 3.39839C6.1811 3.40332 6.16789 3.40548 6.15468 3.40469C4.09137 3.27622 2.15693 2.38333 0.748763 0.909461C0.708074 0.865499 0.656187 0.832774 0.598344 0.814592C0.540502 0.796409 0.478755 0.793414 0.419343 0.805909C0.359931 0.818405 0.30496 0.845948 0.259985 0.885755C0.215009 0.925562 0.181624 0.976222 0.163202 1.03262C-0.0313806 1.55977 -0.0525122 2.13284 0.102743 2.67222C0.257999 3.2116 0.581933 3.69052 1.02955 4.04245C1.04408 4.05376 1.05439 4.06939 1.05891 4.08695C1.06342 4.10452 1.06189 4.12304 1.05455 4.13967C1.04721 4.15631 1.03447 4.17014 1.01828 4.17904C1.00208 4.18794 0.983338 4.19142 0.964916 4.18895C0.801984 4.16735 0.641369 4.13157 0.485 4.08204C0.427929 4.06346 0.366846 4.05981 0.307869 4.07144C0.248892 4.08308 0.194091 4.1096 0.148954 4.14835C0.102657 4.18623 0.0679551 4.23578 0.0486476 4.29157C0.0293402 4.34737 0.0261714 4.40726 0.0394877 4.46469C0.643466 6.72884 2.27921 6.44024 2.27921 6.61177C2.27921 6.72782 1.95568 6.72782 1.52198 6.72884C1.46328 6.7291 1.40564 6.74405 1.35458 6.77225C1.30353 6.80045 1.26077 6.84095 1.23042 6.88986C1.20006 6.93877 1.18313 6.99446 1.18125 7.05158C1.17936 7.1087 1.19258 7.16533 1.21964 7.21604C1.44789 7.59813 1.76578 7.92221 2.14732 8.16178C2.52886 8.40134 2.96322 8.5496 3.41489 8.59442C3.43244 8.59573 3.44916 8.60226 3.46278 8.61312C3.4764 8.62398 3.48627 8.63865 3.49104 8.65515C3.49582 8.67165 3.49528 8.68917 3.48949 8.70536C3.4837 8.72155 3.47294 8.73561 3.45867 8.74566C2.66974 9.30121 1.74756 9.65034 0.780387 9.75965C0.705511 9.76542 0.634768 9.7954 0.579419 9.84484C0.52407 9.89427 0.487295 9.96031 0.474947 10.0324C0.462599 10.1046 0.475388 10.1786 0.511278 10.2429C0.547169 10.3071 0.604098 10.3578 0.673005 10.3869C1.6599 10.7932 2.72078 11.0017 3.79229 11Z" fill="white"/>
</svg>
