<svg width="156" height="156" viewBox="0 0 156 156" fill="none" xmlns="http://www.w3.org/2000/svg">
<path d="M151.25 88.2046C134.862 63.1102 136.604 37.3876 128.704 25.2932C120.804 13.1989 97.2612 -7.65309 41.6342 28.6819C-13.9928 65.0169 0.15555 104.515 8.84822 117.814C49.5295 180.093 180.279 132.647 151.25 88.2046Z" fill="#EFEFEF"/>
<path d="M125.926 63.2662L120.25 99.5795C119.773 102.743 117.043 105.083 113.836 105.083H55.2496C51.2629 105.083 48.2296 101.53 48.8363 97.5862L54.2963 62.6162L83.6762 79.9495C86.1896 81.4229 89.3096 81.5529 91.9529 80.2095L125.926 63.2662Z" fill="#F3F3F1"/>
<path d="M126.664 58.4137L125.927 63.2237V63.267L91.9535 80.2103C89.3102 81.5537 86.1902 81.4237 83.6769 79.9503L54.2969 62.617L55.2502 56.4203C55.7269 53.257 58.4569 50.917 61.6635 50.917H120.25C124.237 50.917 127.27 54.4703 126.664 58.4137Z" fill="#FEB46D"/>
<path d="M58.5862 97.5862L63.2229 67.8812L54.2962 62.6162L48.8363 97.5862C48.2296 101.53 51.2629 105.083 55.2496 105.083H64.9996C61.0129 105.083 57.9796 101.53 58.5862 97.5862Z" fill="#D5DBE1"/>
<path d="M64.3675 60.9227L65.0002 56.4203C65.4769 53.257 68.2069 50.917 71.4135 50.917H61.6635C58.4569 50.917 55.7269 53.257 55.2502 56.4203L54.2969 62.617L83.6769 79.9503C86.1902 81.4237 89.3102 81.5537 91.9535 80.2103L93.3099 78.0003L64.3675 60.9227Z" fill="#FF7F2E"/>
<path d="M20.8516 115.917C17.2679 115.917 14.3516 113.001 14.3516 109.417C14.3516 105.833 17.2679 102.917 20.8516 102.917C24.4352 102.917 27.3516 105.833 27.3516 109.417C27.3516 113.001 24.4396 115.917 20.8516 115.917ZM20.8516 107.25C19.6599 107.25 18.6849 108.221 18.6849 109.417C18.6849 110.613 19.6599 111.584 20.8516 111.584C22.0432 111.584 23.0182 110.613 23.0182 109.417C23.0182 108.221 22.0476 107.25 20.8516 107.25Z" fill="#A4AFC1"/>
<path d="M37.2002 20.0371L40.2643 16.973L46.3926 23.1012L43.3285 26.1654L37.2002 20.0371Z" fill="#A4AFC1"/>
<path d="M54.8135 37.6553L57.8776 34.5911L64.0059 40.7194L60.9417 43.7835L54.8135 37.6553Z" fill="#A4AFC1"/>
<path d="M36.4307 40.7188L42.5589 34.5905L45.6231 37.6546L39.4948 43.7829L36.4307 40.7188Z" fill="#A4AFC1"/>
<path d="M54.0469 23.1055L60.1751 16.9772L63.2393 20.0413L57.111 26.1696L54.0469 23.1055Z" fill="#A4AFC1"/>
<path d="M113.837 108.334H55.2629C52.4159 108.334 49.7162 107.09 47.8616 104.928C46.0026 102.761 45.1922 99.901 45.6299 97.0843L52.0389 55.9177C52.7929 51.1337 56.8402 47.667 61.6762 47.667H120.25C123.097 47.667 125.797 48.9107 127.651 51.073C129.51 53.2397 130.321 56.0997 129.883 58.9163L123.474 100.083C122.72 104.867 118.673 108.334 113.837 108.334ZM61.6762 54.167C60.0642 54.167 58.7122 55.324 58.4652 56.9187L52.0562 98.0853C51.9089 99.0387 52.1689 99.9703 52.7972 100.703C53.4299 101.435 54.3009 101.838 55.2629 101.838H113.837C115.449 101.838 116.801 100.681 117.048 99.0863L123.457 57.9197C123.604 56.9663 123.344 56.0347 122.716 55.3023C122.083 54.57 121.212 54.167 120.25 54.167H61.6762Z" fill="black"/>
<path d="M88.0703 84.396C85.9816 84.396 83.8929 83.8414 82.0209 82.7407L52.6279 65.416L55.9299 59.8174L85.3229 77.142C86.9133 78.078 88.8416 78.1387 90.4926 77.3197L124.501 60.3157L127.404 66.131L93.3959 83.135C91.7146 83.9757 89.8903 84.396 88.0703 84.396Z" fill="black"/>
<path d="M29.25 56.333H44.4167V62.833H29.25V56.333Z" fill="black"/>
<path d="M29.25 73.667H40.0833V80.167H29.25V73.667Z" fill="black"/>
<path d="M29.25 91H35.75V97.5H29.25V91Z" fill="black"/>
</svg>
