<svg width="17" height="8" viewBox="0 0 17 8" fill="none" xmlns="http://www.w3.org/2000/svg">
<path d="M12.4777 0.327667H4.52219C2.49885 0.327667 0.849854 1.97719 0.849854 4.00001C0.849854 6.02282 2.49872 7.67235 4.52219 7.67235H12.4784C14.501 7.67235 16.15 6.02282 16.15 4.00001C16.15 1.97719 14.5012 0.327667 12.4777 0.327667ZM12.3761 5.54718C11.5261 5.54718 10.8288 4.84991 10.8288 3.99991C10.8288 3.14991 11.5261 2.45263 12.3761 2.45263C13.2261 2.45263 13.9234 3.14991 13.9234 3.99991C13.9227 4.84991 13.2261 5.54718 12.3761 5.54718ZM3.07725 3.99991C3.07725 3.14991 3.77452 2.45263 4.62452 2.45263C5.47452 2.45263 6.17179 3.14991 6.17179 3.99991C6.17179 4.84991 5.47452 5.54718 4.62452 5.54718C3.77386 5.54718 3.07725 4.84991 3.07725 3.99991ZM10.0473 3.99991C10.0473 4.84991 9.34998 5.54718 8.49998 5.54718C7.64998 5.54718 6.95271 4.84991 6.95271 3.99991C6.95271 3.14991 7.64998 2.45263 8.49998 2.45263C9.34998 2.45263 10.0473 3.14991 10.0473 3.99991Z" fill="#9FA8B1"/>
</svg>
