<svg width="70" height="70" viewBox="0 0 70 70" fill="none" xmlns="http://www.w3.org/2000/svg">
<path d="M59.531 10.4695C53.0271 3.96558 44.203 0.313477 35.004 0.313477C25.8048 0.313477 16.984 3.96968 10.477 10.4735C3.97314 16.9774 0.321045 25.8015 0.321045 35.0005C0.321045 44.1995 3.97334 53.0235 10.477 59.5275C16.9848 66.0314 25.805 69.6875 35.004 69.6875C44.2032 69.6875 53.027 66.0352 59.531 59.5315C66.031 53.0237 69.679 44.1995 69.679 35.0005C69.679 25.8015 66.0306 16.9775 59.531 10.4695ZM56.2185 13.782C61.5466 19.1297 64.6638 26.286 64.9568 33.829C65.2459 41.372 62.6834 48.747 57.781 54.485L15.515 12.204C21.2572 7.30168 28.632 4.74308 36.175 5.03598C43.718 5.32895 50.874 8.45008 56.218 13.7821L56.2185 13.782ZM13.7805 56.22C8.47585 50.8762 5.37035 43.736 5.08135 36.212C4.79229 28.6886 7.33915 21.329 12.218 15.595L54.484 57.798C48.7418 62.7003 41.367 65.2589 33.824 64.966C26.281 64.673 19.125 61.5519 13.781 56.2199L13.7805 56.22Z" fill="#FF3B2E"/>
</svg>
