<svg width="82" height="72" viewBox="0 0 82 72" fill="none" xmlns="http://www.w3.org/2000/svg">
<path d="M80.793 62.562L46.313 3.18701C45.1685 1.20651 43.188 0.0620117 40.895 0.0620117C38.602 0.0620117 36.6255 1.20651 35.477 3.18701L0.997047 62.562C-0.147453 64.5425 -0.147453 66.8315 0.997047 68.812C2.14155 70.7925 4.12205 71.937 6.41505 71.937H75.27C77.563 71.937 79.5396 70.7925 80.688 68.812C81.8326 66.8315 81.938 64.5425 80.7935 62.562H80.793ZM77.25 66.73C77.043 67.0425 76.5196 67.773 75.4805 67.773L6.51955 67.7691C5.47655 67.7691 4.85155 67.0386 4.75005 66.7261C4.54302 66.4136 4.23052 65.5816 4.75005 64.6441L39.23 5.2691C39.7496 4.3316 40.687 4.22611 40.9995 4.22611C41.312 4.22611 42.2495 4.33157 42.769 5.2691L77.249 64.6441C77.7686 65.5816 77.4561 66.4175 77.249 66.73H77.25Z" fill="#FF6600"/>
<path d="M41 32.3335C39.8555 32.3335 38.918 33.271 38.918 34.4155V58.3725C38.918 59.517 39.8555 60.4545 41 60.4545C42.1445 60.4545 43.082 59.517 43.082 58.3725V34.4155C43.082 33.271 42.1445 32.3335 41 32.3335Z" fill="#FF6600"/>
<path d="M43.0821 26.0835C43.0821 28.8608 38.918 28.8608 38.918 26.0835C38.918 23.3062 43.0821 23.3062 43.0821 26.0835Z" fill="#FF6600"/>
</svg>
