<svg width="190" height="190" viewBox="0 0 190 190" fill="none" xmlns="http://www.w3.org/2000/svg">
<path d="M18.1659 126.049C50.1545 143.64 63.0112 172.288 78.4223 180.764C93.8387 189.24 131.084 198.175 170.076 127.263C209.068 56.3508 171.243 21.9978 154.285 12.6719C74.8967 -30.9753 -38.4858 94.8997 18.1659 126.049Z" fill="#EFEFEF"/>
<path d="M94.9999 134.583C94.9999 134.583 124.028 122.334 124.028 97.8289C124.028 88.0281 124.028 75.7731 124.028 75.7731L94.9999 65.9722L65.9722 75.7731V97.8289C65.9722 122.334 94.9999 134.583 94.9999 134.583Z" fill="#FEB46D"/>
<path d="M100.278 131.839C97.1638 133.686 94.9999 134.583 94.9999 134.583C94.9999 134.583 65.9722 122.339 65.9722 97.85C65.9722 83.125 65.9722 75.7889 65.9722 75.7889L94.9999 65.9722L100.278 67.7667L76.5277 75.7889V97.85C76.5277 115.689 91.9388 127.036 100.278 131.839Z" fill="#FF7F2E"/>
<path d="M145.139 64.6528H125.347V56.7361H141.18V40.9028H149.097V60.6944C149.097 62.8794 147.324 64.6528 145.139 64.6528Z" fill="black"/>
<path d="M95 159.653C59.3486 159.653 30.3472 130.651 30.3472 95C30.3472 59.3486 59.3486 30.3472 95 30.3472C115.472 30.3472 134.916 40.2061 147.012 56.7203L140.626 61.4017C130.018 46.9142 112.96 38.2639 95 38.2639C63.7133 38.2639 38.2638 63.7133 38.2638 95C38.2638 126.287 63.7133 151.736 95 151.736C126.287 151.736 151.736 126.287 151.736 95C151.736 92.34 151.578 89.9386 151.251 87.6428L159.083 86.5186C159.468 89.1839 159.653 91.96 159.653 94.9947C159.653 130.651 130.651 159.653 95 159.653Z" fill="black"/>
<path d="M94.9998 138.542C94.4773 138.542 93.9548 138.436 93.4587 138.23C92.1709 137.687 62.0137 124.651 62.0137 97.8289V75.7731C62.0137 74.0736 63.0956 72.5695 64.7053 72.0258L93.7331 62.225C94.5512 61.9453 95.4431 61.9453 96.2612 62.225L125.289 72.0258C126.899 72.5695 127.981 74.0789 127.981 75.7731V97.8289C127.981 124.651 97.8181 137.692 96.5356 138.23C96.0448 138.436 95.5223 138.542 94.9998 138.542ZM69.9303 78.6178V97.8289C69.9303 116.386 89.3156 127.39 94.9945 130.213C100.668 127.374 120.069 116.317 120.069 97.8289V78.6178L94.9998 70.1522L69.9303 78.6178Z" fill="black"/>
<path d="M92.3612 112.153C92.2873 112.153 92.2135 112.153 92.1396 112.147C91.0154 112.084 89.9704 111.546 89.2684 110.67L78.7129 97.4753L84.8932 92.5247L92.6885 102.267L108.036 86.925L113.636 92.5247L95.1637 110.997C94.4143 111.736 93.4062 112.153 92.3612 112.153Z" fill="black"/>
<path d="M40.751 21.9507L48.2149 14.4868L51.9468 18.2187L44.4829 25.6826L40.751 21.9507Z" fill="#A4AFC1"/>
<path d="M19.2915 43.4064L26.7554 35.9425L30.4874 39.6745L23.0235 47.1384L19.2915 43.4064Z" fill="#A4AFC1"/>
<path d="M19.2925 17.2825L23.0244 13.5505L30.4883 21.0144L26.7564 24.7464L19.2925 17.2825Z" fill="#A4AFC1"/>
</svg>
