<svg width="156" height="156" viewBox="0 0 156 156" fill="none" xmlns="http://www.w3.org/2000/svg">
<path d="M137.942 36.3007C137.942 66.2743 153.468 86.8577 153.468 101.301C153.468 115.744 145.166 146.077 78.7227 146.077C12.2797 146.077 2.52539 105.27 2.52539 89.384C2.52539 14.9937 137.942 -16.7827 137.942 36.3007Z" fill="#F5F8FB"/>
<path d="M87.75 42.25H79.0833V46.5833C79.0833 48.9753 77.142 50.9167 74.75 50.9167H50.9167C48.5247 50.9167 46.5833 48.9753 46.5833 46.5833V42.25H37.9167C33.15 42.25 29.25 46.15 29.25 50.9167V105.083C29.25 109.85 33.15 113.75 37.9167 113.75H87.75C92.5167 113.75 96.4167 109.85 96.4167 105.083V50.9167C96.4167 46.15 92.5167 42.25 87.75 42.25Z" fill="#F3F3F1"/>
<path d="M79.082 37.9167V46.5833C79.082 48.9753 77.1407 50.9167 74.7487 50.9167H50.9154C48.5234 50.9167 46.582 48.9753 46.582 46.5833V37.9167H54.1654C54.1654 33.15 58.0654 29.25 62.832 29.25C67.5987 29.25 71.4987 33.15 71.4987 37.9167H79.082Z" fill="#FEB46D"/>
<path d="M101.833 126.75C115.594 126.75 126.749 115.595 126.749 101.834C126.749 88.0726 115.594 76.917 101.833 76.917C88.0716 76.917 76.916 88.0726 76.916 101.834C76.916 115.595 88.0716 126.75 101.833 126.75Z" fill="#FEB46D"/>
<path d="M39 105.083V50.9167C39 46.5227 42.328 42.9043 46.5833 42.3583V42.25H37.9167C33.15 42.25 29.25 46.15 29.25 50.9167V105.083C29.25 109.85 33.15 113.75 37.9167 113.75H47.6667C42.9 113.75 39 109.85 39 105.083Z" fill="#D5DBE1"/>
<path d="M88.8333 46.5833V42.3583C88.4737 42.3107 88.1227 42.25 87.75 42.25H79.0833V46.5833C79.0833 48.9753 77.142 50.9167 74.75 50.9167H84.5C86.892 50.9167 88.8333 48.9753 88.8333 46.5833Z" fill="#D5DBE1"/>
<path d="M56.332 46.5833V37.9167H63.9154C63.9154 34.957 65.4234 32.331 67.707 30.7667C66.316 29.8133 64.639 29.25 62.832 29.25C58.0654 29.25 54.1654 33.15 54.1654 37.9167H46.582V46.5833C46.582 48.9753 48.5234 50.9167 50.9154 50.9167H60.6654C58.2734 50.9167 56.332 48.9753 56.332 46.5833Z" fill="#FF7F2E"/>
<path d="M86.666 101.834C86.666 89.7437 95.2807 79.6687 106.708 77.4023C105.13 77.0903 103.501 76.917 101.833 76.917C88.07 76.917 76.916 88.071 76.916 101.834C76.916 115.596 88.07 126.75 101.833 126.75C103.501 126.75 105.13 126.581 106.708 126.265C95.2807 123.999 86.666 113.924 86.666 101.834Z" fill="#FF7F2E"/>
<path d="M101.833 130C86.302 130 73.666 117.364 73.666 101.834C73.666 86.303 86.302 73.667 101.833 73.667C117.363 73.667 129.999 86.303 129.999 101.834C129.999 117.364 117.363 130 101.833 130ZM101.833 80.167C89.8857 80.167 80.166 89.8867 80.166 101.834C80.166 113.781 89.8857 123.5 101.833 123.5C113.78 123.5 123.499 113.781 123.499 101.834C123.499 89.8867 113.78 80.167 101.833 80.167Z" fill="black"/>
<path d="M97.4985 113.75C96.6362 113.75 95.8085 113.408 95.2018 112.797L86.5352 104.13L91.1328 99.5327L97.3425 105.742L110.221 91.0264L115.113 95.3077L99.9468 112.641C99.3532 113.317 98.5082 113.72 97.6068 113.75C97.5722 113.75 97.5332 113.75 97.4985 113.75Z" fill="black"/>
<path d="M65.8233 117H37.9167C31.3473 117 26 111.657 26 105.083V50.9167C26 44.343 31.3473 39 37.9167 39H46.0633V45.5H37.9167C34.931 45.5 32.5 47.931 32.5 50.9167V105.083C32.5 108.069 34.931 110.5 37.9167 110.5H65.8233V117Z" fill="black"/>
<path d="M99.6665 64.3067H93.1665V50.9167C93.1665 47.931 90.7355 45.5 87.7498 45.5H79.6465V39H87.7498C94.3191 39 99.6665 44.343 99.6665 50.9167V64.3067Z" fill="black"/>
<path d="M74.7487 54.1667H50.9154C46.7337 54.1667 43.332 50.765 43.332 46.5833V37.9167C43.332 36.1227 44.788 34.6667 46.582 34.6667H51.366C52.783 29.6703 57.3894 26 62.832 26C68.2747 26 72.881 29.6703 74.298 34.6667H79.082C80.876 34.6667 82.332 36.1227 82.332 37.9167V46.5833C82.332 50.765 78.9304 54.1667 74.7487 54.1667ZM49.832 41.1667V46.5833C49.832 47.1813 50.3174 47.6667 50.9154 47.6667H74.7487C75.3467 47.6667 75.832 47.1813 75.832 46.5833V41.1667H71.4987C69.7047 41.1667 68.2487 39.7107 68.2487 37.9167C68.2487 34.931 65.8177 32.5 62.832 32.5C59.8464 32.5 57.4154 34.931 57.4154 37.9167C57.4154 39.7107 55.9594 41.1667 54.1654 41.1667H49.832Z" fill="black"/>
<path d="M42.25 60.667H83.4167V67.167H42.25V60.667Z" fill="black"/>
<path d="M42.25 73.667H73.32V80.167H42.25V73.667Z" fill="black"/>
<path d="M42.25 86.667H65.8233V93.167H42.25V86.667Z" fill="black"/>
<path d="M135.416 83.417C131.832 83.417 128.916 80.5007 128.916 76.917C128.916 73.3333 131.832 70.417 135.416 70.417C139 70.417 141.916 73.3333 141.916 76.917C141.916 80.5007 139 83.417 135.416 83.417ZM135.416 74.7503C134.22 74.7503 133.249 75.7253 133.249 76.917C133.249 78.1087 134.22 79.0837 135.416 79.0837C136.612 79.0837 137.583 78.1087 137.583 76.917C137.583 75.7253 136.612 74.7503 135.416 74.7503Z" fill="#A4AFC1"/>
<path d="M70.957 14.083H79.6237V18.4163H70.957V14.083Z" fill="#A4AFC1"/>
<path d="M46.041 14.083H54.7077V18.4163H46.041V14.083Z" fill="#A4AFC1"/>
<path d="M61.207 0H65.5404V8.66667H61.207V0Z" fill="#A4AFC1"/>
</svg>
