<svg width="100" height="100" viewBox="0 0 100 100" fill="none" xmlns="http://www.w3.org/2000/svg">
<path d="M50 6.25C25.875 6.25 6.25 25.875 6.25 50C6.25 74.125 25.875 93.75 50 93.75C74.125 93.75 93.75 74.125 93.75 50C93.75 25.875 74.125 6.25 50 6.25ZM50 12.5C70.746 12.5 87.5 29.254 87.5 50C87.5 70.746 70.746 87.5 50 87.5C29.254 87.5 12.5 70.746 12.5 50C12.5 29.254 29.254 12.5 50 12.5Z" fill="#33CC66"/>
<path d="M73.2106 31.0471C72.402 31.0745 71.6325 31.4143 71.07 31.9924L38.629 64.4334L24.176 49.9804C23.5939 49.375 22.7932 49.0273 21.9533 49.0195C21.1134 49.0117 20.3049 49.3398 19.7111 49.9335C19.1173 50.5312 18.7892 51.3358 18.797 52.1757C18.8048 53.0156 19.1525 53.8164 19.758 54.3985L36.422 71.0625H36.418C37.6407 72.2812 39.6172 72.2812 40.8399 71.0625L75.4879 36.4144C76.4137 35.5121 76.691 34.1372 76.1872 32.9497C75.6833 31.7622 74.4997 31.0082 73.2106 31.0473L73.2106 31.0471Z" fill="#33CC66"/>
</svg>
