<svg width="30" height="30" viewBox="0 0 30 30" fill="none" xmlns="http://www.w3.org/2000/svg">
<path d="M29.9725 0.0141602H0V29.9866H29.9725V0.0141602Z" fill="#F5F5F5"/>
<path d="M30 0.0141602H0V2.31924H30V0.0141602Z" fill="#FF4B55"/>
<path d="M30 9.23608H0V11.5412H30V9.23608Z" fill="#FF4B55"/>
<path d="M30 4.625H0V6.93008H30V4.625Z" fill="#FF4B55"/>
<path d="M30 13.8469H0V16.152H30V13.8469Z" fill="#FF4B55"/>
<path d="M30 23.0688H0V25.3739H30V23.0688Z" fill="#FF4B55"/>
<path d="M30 27.6802H0V29.9853H30V27.6802Z" fill="#FF4B55"/>
<path d="M30 18.4583H0V20.7633H30V18.4583Z" fill="#FF4B55"/>
<path d="M16.1391 0.0141602H0V16.1532H16.1391V0.0141602Z" fill="#41479B"/>
<path d="M2.06363 1.21956L2.18797 1.59245L2.58102 1.5955C2.63188 1.59591 2.65303 1.66083 2.61207 1.69106L2.2959 1.92456L2.41444 2.29933C2.42979 2.34784 2.37459 2.38798 2.33311 2.35839L2.0133 2.12981L1.6935 2.35839C1.65213 2.38804 1.59688 2.34784 1.61217 2.29933L1.73071 1.92456L1.41453 1.69106C1.37363 1.66083 1.39467 1.59591 1.44559 1.5955L1.83863 1.59245L1.96297 1.21956C1.97926 1.17128 2.04758 1.17128 2.06363 1.21956Z" fill="#F5F5F5"/>
<path d="M2.06363 4.3302L2.18797 4.70309L2.58102 4.70614C2.63188 4.70655 2.65303 4.77147 2.61207 4.8017L2.2959 5.0352L2.41444 5.40997C2.42979 5.45848 2.37459 5.49862 2.33311 5.46903L2.0133 5.24045L1.6935 5.46903C1.65213 5.49868 1.59688 5.45848 1.61217 5.40997L1.73071 5.0352L1.41453 4.8017C1.37363 4.77147 1.39467 4.70655 1.44559 4.70614L1.83863 4.70309L1.96297 4.3302C1.97926 4.28186 2.04758 4.28186 2.06363 4.3302Z" fill="#F5F5F5"/>
<path d="M2.06363 7.78011L2.18797 8.153L2.58102 8.15605C2.63188 8.15646 2.65303 8.22138 2.61207 8.25167L2.2959 8.48517L2.41444 8.85993C2.42979 8.90845 2.37459 8.94858 2.33311 8.91899L2.0133 8.69042L1.6935 8.91899C1.65213 8.94864 1.59688 8.90845 1.61217 8.85993L1.73071 8.48517L1.41453 8.25167C1.37363 8.22144 1.39467 8.15646 1.44559 8.15605L1.83863 8.153L1.96297 7.78011C1.97926 7.73183 2.04758 7.73183 2.06363 7.78011Z" fill="#F5F5F5"/>
<path d="M2.06363 10.9498L2.18797 11.3227L2.58102 11.3257C2.63188 11.3261 2.65303 11.3911 2.61207 11.4213L2.2959 11.6548L2.41444 12.0296C2.42979 12.0781 2.37459 12.1182 2.33311 12.0886L2.0133 11.86L1.6935 12.0886C1.65213 12.1183 1.59688 12.0781 1.61217 12.0296L1.73071 11.6548L1.41453 11.4213C1.37363 11.3911 1.39467 11.3261 1.44559 11.3257L1.83863 11.3227L1.96297 10.9498C1.97926 10.9015 2.04758 10.9015 2.06363 10.9498Z" fill="#F5F5F5"/>
<path d="M2.06363 13.8341L2.18797 14.207L2.58102 14.21C2.63188 14.2104 2.65303 14.2753 2.61207 14.3056L2.2959 14.5391L2.41444 14.9138C2.42979 14.9623 2.37459 15.0025 2.33311 14.9729L2.0133 14.7443L1.6935 14.9729C1.65213 15.0025 1.59688 14.9623 1.61217 14.9138L1.73071 14.5391L1.41453 14.3056C1.37363 14.2753 1.39467 14.2104 1.44559 14.21L1.83863 14.207L1.96297 13.8341C1.97926 13.7858 2.04758 13.7858 2.06363 13.8341Z" fill="#F5F5F5"/>
<path d="M3.57767 2.69246L3.70201 3.06535L4.09506 3.0684C4.14592 3.06881 4.16707 3.13373 4.12611 3.16396L3.80994 3.39746L3.92847 3.77223C3.94383 3.82074 3.88863 3.86088 3.84715 3.83129L3.52734 3.60271L3.20754 3.83129C3.16617 3.86094 3.11092 3.82074 3.12621 3.77223L3.24474 3.39746L2.92857 3.16396C2.88767 3.13373 2.90871 3.06881 2.95963 3.0684L3.35267 3.06535L3.47701 2.69246C3.4933 2.64418 3.56162 2.64418 3.57767 2.69246Z" fill="#F5F5F5"/>
<path d="M3.57767 6.14241L3.70201 6.5153L4.09506 6.51835C4.14592 6.51876 4.16707 6.58368 4.12611 6.61392L3.80994 6.84741L3.92847 7.22218C3.94383 7.27069 3.88863 7.31083 3.84715 7.28124L3.52734 7.05266L3.20754 7.28124C3.16617 7.31089 3.11092 7.27069 3.12621 7.22218L3.24474 6.84741L2.92857 6.61392C2.88767 6.58368 2.90871 6.51876 2.95963 6.51835L3.35267 6.5153L3.47701 6.14241C3.4933 6.09413 3.56162 6.09413 3.57767 6.14241Z" fill="#F5F5F5"/>
<path d="M3.57767 9.4202L3.70201 9.79309L4.09506 9.79614C4.14592 9.79655 4.16707 9.86147 4.12611 9.8917L3.80994 10.1252L3.92847 10.5C3.94383 10.5485 3.88863 10.5886 3.84715 10.559L3.52734 10.3305L3.20754 10.559C3.16617 10.5887 3.11092 10.5485 3.12621 10.5L3.24474 10.1252L2.92857 9.8917C2.88767 9.86147 2.90871 9.79655 2.95963 9.79614L3.35267 9.79309L3.47701 9.4202C3.4933 9.37198 3.56162 9.37198 3.57767 9.4202Z" fill="#F5F5F5"/>
<path d="M3.57767 12.3636L3.70201 12.7365L4.09506 12.7396C4.14592 12.74 4.16707 12.8049 4.12611 12.8352L3.80994 13.0686L3.92847 13.4434C3.94383 13.4919 3.88863 13.5321 3.84715 13.5025L3.52734 13.2739L3.20754 13.5025C3.16617 13.5321 3.11092 13.4919 3.12621 13.4434L3.24474 13.0686L2.92857 12.8352C2.88767 12.8049 2.90871 12.74 2.95963 12.7396L3.35267 12.7365L3.47701 12.3636C3.4933 12.3153 3.56162 12.3153 3.57767 12.3636Z" fill="#F5F5F5"/>
<path d="M5.09171 1.21956L5.21605 1.59245L5.60909 1.5955C5.65995 1.59591 5.68111 1.66083 5.64015 1.69106L5.32398 1.92456L5.44251 2.29933C5.45786 2.34784 5.40267 2.38798 5.36118 2.35839L5.04138 2.12981L4.72157 2.35839C4.68021 2.38804 4.62495 2.34784 4.64025 2.29933L4.75878 1.92456L4.44261 1.69106C4.40171 1.66083 4.42275 1.59591 4.47366 1.5955L4.86671 1.59245L4.99105 1.21956C5.00734 1.17128 5.0756 1.17128 5.09171 1.21956Z" fill="#F5F5F5"/>
<path d="M5.09171 4.3302L5.21605 4.70309L5.60909 4.70614C5.65995 4.70655 5.68111 4.77147 5.64015 4.8017L5.32398 5.0352L5.44251 5.40997C5.45786 5.45848 5.40267 5.49862 5.36118 5.46903L5.04138 5.24045L4.72157 5.46903C4.68021 5.49868 4.62495 5.45848 4.64025 5.40997L4.75878 5.0352L4.44261 4.8017C4.40171 4.77147 4.42275 4.70655 4.47366 4.70614L4.86671 4.70309L4.99105 4.3302C5.00734 4.28186 5.0756 4.28186 5.09171 4.3302Z" fill="#F5F5F5"/>
<path d="M5.09171 7.78011L5.21605 8.153L5.60909 8.15605C5.65995 8.15646 5.68111 8.22138 5.64015 8.25167L5.32398 8.48517L5.44251 8.85993C5.45786 8.90845 5.40267 8.94858 5.36118 8.91899L5.04138 8.69042L4.72157 8.91899C4.68021 8.94864 4.62495 8.90845 4.64025 8.85993L4.75878 8.48517L4.44261 8.25167C4.40171 8.22144 4.42275 8.15646 4.47366 8.15605L4.86671 8.153L4.99105 7.78011C5.00734 7.73183 5.0756 7.73183 5.09171 7.78011Z" fill="#F5F5F5"/>
<path d="M5.09166 10.9498L5.21599 11.3227L5.60904 11.3257C5.6599 11.3261 5.68105 11.3911 5.64009 11.4213L5.32392 11.6548L5.44246 12.0296C5.45781 12.0781 5.40261 12.1182 5.36113 12.0886L5.04144 11.86L4.72164 12.0886C4.68027 12.1182 4.62501 12.078 4.64031 12.0295L4.75884 11.6547L4.44267 11.4212C4.40177 11.391 4.42281 11.3261 4.47373 11.3257L4.86677 11.3226L4.99111 10.9497C5.00728 10.9015 5.07554 10.9015 5.09166 10.9498Z" fill="#F5F5F5"/>
<path d="M5.09171 13.8341L5.21605 14.207L5.60909 14.21C5.65995 14.2104 5.68111 14.2753 5.64015 14.3056L5.32398 14.5391L5.44251 14.9138C5.45786 14.9623 5.40267 15.0025 5.36118 14.9729L5.04138 14.7443L4.72157 14.9729C4.68021 15.0025 4.62495 14.9623 4.64025 14.9138L4.75878 14.5391L4.44261 14.3056C4.40171 14.2753 4.42275 14.2104 4.47366 14.21L4.86671 14.207L4.99105 13.8341C5.00734 13.7858 5.0756 13.7858 5.09171 13.8341Z" fill="#F5F5F5"/>
<path d="M6.60569 2.69246L6.73002 3.06535L7.12307 3.0684C7.17393 3.06881 7.19508 3.13373 7.15413 3.16396L6.83795 3.39746L6.95649 3.77223C6.97184 3.82074 6.91665 3.86088 6.87516 3.83129L6.55536 3.60271L6.23555 3.83129C6.19418 3.86094 6.13893 3.82074 6.15422 3.77223L6.27276 3.39746L5.95659 3.16396C5.91569 3.13373 5.93672 3.06881 5.98764 3.0684L6.38086 3.06535L6.5052 2.69246C6.52131 2.64418 6.58958 2.64418 6.60569 2.69246Z" fill="#F5F5F5"/>
<path d="M6.60569 6.14241L6.73002 6.5153L7.12307 6.51835C7.17393 6.51876 7.19508 6.58368 7.15413 6.61392L6.83795 6.84741L6.95649 7.22218C6.97184 7.27069 6.91665 7.31083 6.87516 7.28124L6.55536 7.05266L6.23555 7.28124C6.19418 7.31089 6.13893 7.27069 6.15422 7.22218L6.27276 6.84741L5.95659 6.61392C5.91569 6.58368 5.93672 6.51876 5.98764 6.51835L6.38069 6.5153L6.50502 6.14241C6.52131 6.09413 6.58958 6.09413 6.60569 6.14241Z" fill="#F5F5F5"/>
<path d="M6.60569 9.4202L6.73002 9.79309L7.12307 9.79614C7.17393 9.79655 7.19508 9.86147 7.15413 9.8917L6.83795 10.1252L6.95649 10.5C6.97184 10.5485 6.91665 10.5886 6.87516 10.559L6.55536 10.3305L6.23555 10.559C6.19418 10.5887 6.13893 10.5485 6.15422 10.5L6.27276 10.1252L5.95659 9.8917C5.91569 9.86147 5.93672 9.79655 5.98764 9.79614L6.38069 9.79309L6.50502 9.4202C6.52131 9.37198 6.58958 9.37198 6.60569 9.4202Z" fill="#F5F5F5"/>
<path d="M6.60569 12.3636L6.73002 12.7365L7.12307 12.7396C7.17393 12.74 7.19508 12.8049 7.15413 12.8352L6.83795 13.0686L6.95649 13.4434C6.97184 13.4919 6.91665 13.5321 6.87516 13.5025L6.55536 13.2739L6.23555 13.5025C6.19418 13.5321 6.13893 13.4919 6.15422 13.4434L6.27276 13.0686L5.95659 12.8352C5.91569 12.8049 5.93672 12.74 5.98764 12.7396L6.38069 12.7365L6.50502 12.3636C6.52131 12.3153 6.58958 12.3153 6.60569 12.3636Z" fill="#F5F5F5"/>
<path d="M8.11973 1.21956L8.24406 1.59245L8.63711 1.5955C8.68797 1.59591 8.70912 1.66083 8.66816 1.69106L8.35199 1.92456L8.47053 2.29933C8.48588 2.34784 8.43068 2.38798 8.3892 2.35839L8.06939 2.12981L7.74959 2.35839C7.70822 2.38804 7.65297 2.34784 7.66826 2.29933L7.7868 1.92456L7.47062 1.69106C7.42973 1.66083 7.45076 1.59591 7.50168 1.5955L7.89473 1.59245L8.01906 1.21956C8.03535 1.17128 8.10361 1.17128 8.11973 1.21956Z" fill="#F5F5F5"/>
<path d="M8.11973 4.3302L8.24406 4.70309L8.63711 4.70614C8.68797 4.70655 8.70912 4.77147 8.66816 4.8017L8.35199 5.0352L8.47053 5.40997C8.48588 5.45848 8.43068 5.49862 8.3892 5.46903L8.06939 5.24045L7.74959 5.46903C7.70822 5.49868 7.65297 5.45848 7.66826 5.40997L7.7868 5.0352L7.47062 4.8017C7.42973 4.77147 7.45076 4.70655 7.50168 4.70614L7.89473 4.70309L8.01906 4.3302C8.03535 4.28186 8.10361 4.28186 8.11973 4.3302Z" fill="#F5F5F5"/>
<path d="M8.11973 7.78011L8.24406 8.153L8.63711 8.15605C8.68797 8.15646 8.70912 8.22138 8.66816 8.25167L8.35199 8.48517L8.47053 8.85993C8.48588 8.90845 8.43068 8.94858 8.3892 8.91899L8.06939 8.69042L7.74959 8.91899C7.70822 8.94864 7.65297 8.90845 7.66826 8.85993L7.7868 8.48517L7.47062 8.25167C7.42973 8.22144 7.45076 8.15646 7.50168 8.15605L7.89473 8.153L8.01906 7.78011C8.03535 7.73183 8.10361 7.73183 8.11973 7.78011Z" fill="#F5F5F5"/>
<path d="M8.11973 10.9498L8.24406 11.3227L8.63711 11.3257C8.68797 11.3261 8.70912 11.3911 8.66816 11.4213L8.35199 11.6548L8.47053 12.0296C8.48588 12.0781 8.43068 12.1182 8.3892 12.0886L8.06939 11.86L7.74959 12.0886C7.70822 12.1183 7.65297 12.0781 7.66826 12.0296L7.7868 11.6548L7.47062 11.4213C7.42973 11.3911 7.45076 11.3261 7.50168 11.3257L7.89473 11.3227L8.01906 10.9498C8.03535 10.9015 8.10361 10.9015 8.11973 10.9498Z" fill="#F5F5F5"/>
<path d="M8.11973 13.8341L8.24406 14.207L8.63711 14.21C8.68797 14.2104 8.70912 14.2753 8.66816 14.3056L8.35199 14.5391L8.47053 14.9138C8.48588 14.9623 8.43068 15.0025 8.3892 14.9729L8.06939 14.7443L7.74959 14.9729C7.70822 15.0025 7.65297 14.9623 7.66826 14.9138L7.7868 14.5391L7.47062 14.3056C7.42973 14.2753 7.45076 14.2104 7.50168 14.21L7.89473 14.207L8.01906 13.8341C8.03535 13.7858 8.10361 13.7858 8.11973 13.8341Z" fill="#F5F5F5"/>
<path d="M9.6337 2.69246L9.75804 3.06535L10.1511 3.0684C10.2019 3.06881 10.2231 3.13373 10.1821 3.16396L9.86597 3.39746L9.9845 3.77223C9.99986 3.82074 9.94466 3.86088 9.90318 3.83129L9.58337 3.60271L9.26357 3.83129C9.2222 3.86094 9.16695 3.82074 9.18224 3.77223L9.30078 3.39746L8.9846 3.16396C8.94371 3.13373 8.96474 3.06881 9.0156 3.0684L9.40865 3.06535L9.53298 2.69246C9.54933 2.64418 9.61759 2.64418 9.6337 2.69246Z" fill="#F5F5F5"/>
<path d="M9.6337 6.14241L9.75804 6.5153L10.1511 6.51835C10.2019 6.51876 10.2231 6.58368 10.1821 6.61392L9.86597 6.84741L9.9845 7.22218C9.99986 7.27069 9.94466 7.31083 9.90318 7.28124L9.58337 7.05266L9.26357 7.28124C9.2222 7.31089 9.16695 7.27069 9.18224 7.22218L9.30078 6.84741L8.9846 6.61392C8.94371 6.58368 8.96474 6.51876 9.0156 6.51835L9.40865 6.5153L9.53298 6.14241C9.54933 6.09413 9.61759 6.09413 9.6337 6.14241Z" fill="#F5F5F5"/>
<path d="M9.6337 9.4202L9.75804 9.79309L10.1511 9.79614C10.2019 9.79655 10.2231 9.86147 10.1821 9.8917L9.86597 10.1252L9.9845 10.5C9.99986 10.5485 9.94466 10.5886 9.90318 10.559L9.58337 10.3305L9.26357 10.559C9.2222 10.5887 9.16695 10.5485 9.18224 10.5L9.30078 10.1252L8.9846 9.8917C8.94371 9.86147 8.96474 9.79655 9.0156 9.79614L9.40865 9.79309L9.53298 9.4202C9.54933 9.37198 9.61759 9.37198 9.6337 9.4202Z" fill="#F5F5F5"/>
<path d="M9.6337 12.3636L9.75804 12.7365L10.1511 12.7396C10.2019 12.74 10.2231 12.8049 10.1821 12.8352L9.86597 13.0686L9.9845 13.4434C9.99986 13.4919 9.94466 13.5321 9.90318 13.5025L9.58337 13.2739L9.26357 13.5025C9.2222 13.5321 9.16695 13.4919 9.18224 13.4434L9.30078 13.0686L8.9846 12.8352C8.94371 12.8049 8.96474 12.74 9.0156 12.7396L9.40865 12.7365L9.53298 12.3636C9.54933 12.3153 9.61759 12.3153 9.6337 12.3636Z" fill="#F5F5F5"/>
<path d="M11.1477 1.21956L11.2721 1.59245L11.6651 1.5955C11.716 1.59591 11.7371 1.66083 11.6962 1.69106L11.38 1.92456L11.4985 2.29933C11.5139 2.34784 11.4587 2.38798 11.4172 2.35839L11.0974 2.12981L10.7776 2.35839C10.7362 2.38804 10.681 2.34784 10.6963 2.29933L10.8148 1.92456L10.4986 1.69106C10.4577 1.66083 10.4788 1.59591 10.5297 1.5955L10.9227 1.59245L11.0471 1.21956C11.0634 1.17128 11.1316 1.17128 11.1477 1.21956Z" fill="#F5F5F5"/>
<path d="M11.1477 4.3302L11.2721 4.70309L11.6651 4.70614C11.716 4.70655 11.7371 4.77147 11.6962 4.8017L11.38 5.0352L11.4985 5.40997C11.5139 5.45848 11.4587 5.49862 11.4172 5.46903L11.0974 5.24045L10.7776 5.46903C10.7362 5.49868 10.681 5.45848 10.6963 5.40997L10.8148 5.0352L10.4986 4.8017C10.4577 4.77147 10.4788 4.70655 10.5297 4.70614L10.9227 4.70309L11.0471 4.3302C11.0634 4.28186 11.1316 4.28186 11.1477 4.3302Z" fill="#F5F5F5"/>
<path d="M11.1477 7.78011L11.2721 8.153L11.6651 8.15605C11.716 8.15646 11.7371 8.22138 11.6962 8.25167L11.38 8.48517L11.4985 8.85993C11.5139 8.90845 11.4587 8.94858 11.4172 8.91899L11.0974 8.69042L10.7776 8.91899C10.7362 8.94864 10.681 8.90845 10.6963 8.85993L10.8148 8.48517L10.4986 8.25167C10.4577 8.22144 10.4788 8.15646 10.5297 8.15605L10.9227 8.153L11.0471 7.78011C11.0634 7.73183 11.1316 7.73183 11.1477 7.78011Z" fill="#F5F5F5"/>
<path d="M11.1477 10.9498L11.2721 11.3227L11.6651 11.3257C11.716 11.3261 11.7371 11.3911 11.6962 11.4213L11.38 11.6548L11.4985 12.0296C11.5139 12.0781 11.4587 12.1182 11.4172 12.0886L11.0974 11.86L10.7776 12.0886C10.7362 12.1183 10.681 12.0781 10.6963 12.0296L10.8148 11.6548L10.4986 11.4213C10.4577 11.3911 10.4788 11.3261 10.5297 11.3257L10.9227 11.3227L11.0471 10.9498C11.0634 10.9015 11.1316 10.9015 11.1477 10.9498Z" fill="#F5F5F5"/>
<path d="M11.1477 13.8341L11.2721 14.207L11.6651 14.21C11.716 14.2104 11.7371 14.2753 11.6962 14.3056L11.38 14.5391L11.4985 14.9138C11.5139 14.9623 11.4587 15.0025 11.4172 14.9729L11.0974 14.7443L10.7776 14.9729C10.7362 15.0025 10.681 14.9623 10.6963 14.9138L10.8148 14.5391L10.4986 14.3056C10.4577 14.2753 10.4788 14.2104 10.5297 14.21L10.9227 14.207L11.0471 13.8341C11.0634 13.7858 11.1316 13.7858 11.1477 13.8341Z" fill="#F5F5F5"/>
<path d="M12.6618 2.69246L12.7861 3.06535L13.1792 3.0684C13.23 3.06881 13.2512 3.13373 13.2102 3.16396L12.894 3.39746L13.0126 3.77223C13.0279 3.82074 12.9727 3.86088 12.9313 3.83129L12.6114 3.60271L12.2916 3.83129C12.2503 3.86094 12.195 3.82074 12.2103 3.77223L12.3288 3.39746L12.0127 3.16396C11.9718 3.13373 11.9928 3.06881 12.0437 3.0684L12.4368 3.06535L12.5611 2.69246C12.5773 2.64418 12.6457 2.64418 12.6618 2.69246Z" fill="#F5F5F5"/>
<path d="M12.6618 6.14241L12.7861 6.5153L13.1792 6.51835C13.23 6.51876 13.2512 6.58368 13.2102 6.61392L12.894 6.84741L13.0126 7.22218C13.0279 7.27069 12.9727 7.31083 12.9313 7.28124L12.6114 7.05266L12.2916 7.28124C12.2503 7.31089 12.195 7.27069 12.2103 7.22218L12.3288 6.84741L12.0127 6.61392C11.9718 6.58368 11.9928 6.51876 12.0437 6.51835L12.4368 6.5153L12.5611 6.14241C12.5773 6.09413 12.6457 6.09413 12.6618 6.14241Z" fill="#F5F5F5"/>
<path d="M12.6618 9.4202L12.7861 9.79309L13.1792 9.79614C13.23 9.79655 13.2512 9.86147 13.2102 9.8917L12.894 10.1252L13.0126 10.5C13.0279 10.5485 12.9727 10.5886 12.9313 10.559L12.6114 10.3305L12.2916 10.559C12.2503 10.5887 12.195 10.5485 12.2103 10.5L12.3288 10.1252L12.0127 9.8917C11.9718 9.86147 11.9928 9.79655 12.0437 9.79614L12.4368 9.79309L12.5611 9.4202C12.5773 9.37198 12.6457 9.37198 12.6618 9.4202Z" fill="#F5F5F5"/>
<path d="M12.6618 12.3636L12.7861 12.7365L13.1792 12.7396C13.23 12.74 13.2512 12.8049 13.2102 12.8352L12.894 13.0686L13.0126 13.4434C13.0279 13.4919 12.9727 13.5321 12.9313 13.5025L12.6114 13.2739L12.2916 13.5025C12.2503 13.5321 12.195 13.4919 12.2103 13.4434L12.3288 13.0686L12.0127 12.8352C11.9718 12.8049 11.9928 12.74 12.0437 12.7396L12.4368 12.7365L12.5611 12.3636C12.5773 12.3153 12.6457 12.3153 12.6618 12.3636Z" fill="#F5F5F5"/>
<path d="M14.1758 1.21956L14.3001 1.59245L14.6931 1.5955C14.744 1.59591 14.7652 1.66083 14.7242 1.69106L14.408 1.92456L14.5266 2.29933C14.5419 2.34784 14.4867 2.38798 14.4452 2.35839L14.1254 2.12981L13.8056 2.35839C13.7643 2.38804 13.709 2.34784 13.7243 2.29933L13.8428 1.92456L13.5267 1.69106C13.4858 1.66083 13.5068 1.59591 13.5577 1.5955L13.9508 1.59245L14.0751 1.21956C14.0913 1.17128 14.1596 1.17128 14.1758 1.21956Z" fill="#F5F5F5"/>
<path d="M14.1758 4.3302L14.3001 4.70309L14.6931 4.70614C14.744 4.70655 14.7652 4.77147 14.7242 4.8017L14.408 5.0352L14.5266 5.40997C14.5419 5.45848 14.4867 5.49862 14.4452 5.46903L14.1254 5.24045L13.8056 5.46903C13.7643 5.49868 13.709 5.45848 13.7243 5.40997L13.8428 5.0352L13.5267 4.8017C13.4858 4.77147 13.5068 4.70655 13.5577 4.70614L13.9508 4.70309L14.0751 4.3302C14.0913 4.28186 14.1596 4.28186 14.1758 4.3302Z" fill="#F5F5F5"/>
<path d="M14.1758 7.78011L14.3001 8.153L14.6931 8.15605C14.744 8.15646 14.7652 8.22138 14.7242 8.25167L14.408 8.48517L14.5266 8.85993C14.5419 8.90845 14.4867 8.94858 14.4452 8.91899L14.1254 8.69042L13.8056 8.91899C13.7643 8.94864 13.709 8.90845 13.7243 8.85993L13.8428 8.48517L13.5267 8.25167C13.4858 8.22144 13.5068 8.15646 13.5577 8.15605L13.9508 8.153L14.0751 7.78011C14.0913 7.73183 14.1596 7.73183 14.1758 7.78011Z" fill="#F5F5F5"/>
<path d="M14.1758 10.9498L14.3001 11.3227L14.6931 11.3257C14.744 11.3261 14.7652 11.3911 14.7242 11.4213L14.408 11.6548L14.5266 12.0296C14.5419 12.0781 14.4867 12.1182 14.4452 12.0886L14.1254 11.86L13.8056 12.0886C13.7643 12.1183 13.709 12.0781 13.7243 12.0296L13.8428 11.6548L13.5267 11.4213C13.4858 11.3911 13.5068 11.3261 13.5577 11.3257L13.9508 11.3227L14.0751 10.9498C14.0913 10.9015 14.1596 10.9015 14.1758 10.9498Z" fill="#F5F5F5"/>
<path d="M14.1758 13.8341L14.3001 14.207L14.6931 14.21C14.744 14.2104 14.7652 14.2753 14.7242 14.3056L14.408 14.5391L14.5266 14.9138C14.5419 14.9623 14.4867 15.0025 14.4452 14.9729L14.1254 14.7443L13.8056 14.9729C13.7643 15.0025 13.709 14.9623 13.7243 14.9138L13.8428 14.5391L13.5267 14.3056C13.4858 14.2753 13.5068 14.2104 13.5577 14.21L13.9508 14.207L14.0751 13.8341C14.0913 13.7858 14.1596 13.7858 14.1758 13.8341Z" fill="#F5F5F5"/>
</svg>
