<svg width="237" height="41" viewBox="0 0 237 41" fill="none" xmlns="http://www.w3.org/2000/svg">
<g clip-path="url(#clip0_4597_26577)">
<path d="M0 17.0886L14.1732 2.86876H24.4516L11 17.0886H2H0ZM9.80553 29.0442L27.613 8.24679C28.9248 6.64238 30.3874 5.16792 31.9807 3.83841C33.8504 2.30897 36.0367 1.19937 38.394 0.599592C41.4498 -0.195117 44.6766 -0.115146 47.6922 0.82451C50.6777 1.74917 53.2813 3.5985 55.1258 6.08758C57.468 9.35639 58.4531 13.3799 57.8751 17.3385C57.6087 19.2878 56.9553 21.1721 55.9501 22.8714C54.9399 24.5708 53.6029 26.0553 52.0046 27.2448C50.1802 28.5744 48.0692 29.479 45.8326 29.8789C44.571 30.1388 43.2844 30.2837 41.9927 30.2987H36.9716L27.8743 40.9448H17.6261L32.1867 23.9161L33.3779 22.5216H40.143C42.5204 22.5216 45.0334 22.5216 47.0891 21.2071H47.1293C48.0943 20.5523 48.8885 19.6776 49.4464 18.658C50.0043 17.6384 50.3058 16.5088 50.336 15.3542C50.3611 14.1996 50.1098 13.055 49.6022 12.0104C49.0945 10.9708 48.3406 10.0611 47.4058 9.36139L47.3052 9.29141L47.2499 9.25143L47.1746 9.19645C45.9985 8.38174 44.6062 7.92191 43.1688 7.88193H43.0883C42.1585 7.84194 41.2287 7.93691 40.329 8.16682C39.0725 8.4967 37.9014 9.09648 36.9012 9.92618C35.6849 10.9608 34.5691 12.1004 33.5639 13.3349L20.0336 29.1292L9.81055 29.0592L9.80553 29.0442Z" fill="#FF6600"/>
<path fill-rule="evenodd" clip-rule="evenodd" d="M138.618 21.1384C136.15 23.9424 131.3 23.2377 127.948 23.3176C125.706 23.3176 122.017 22.423 122.519 19.564C122.519 19.4041 122.756 17.9496 122.766 17.8346H126.887C128.098 17.8346 127.757 18.1895 127.611 19.2341C127.495 20.4537 129.003 20.8885 130.008 20.8685C131.174 20.8685 132.727 21.0335 133.687 20.2338C133.888 20.0888 134.049 19.8939 134.16 19.674C134.301 19.509 134.597 17.0349 134.657 16.785V16.755C134.542 14.4509 130.561 15.2606 129.063 15.1206C127.837 15.1456 126.621 14.8957 125.505 14.3909C124.54 13.9061 123.57 12.9814 123.695 11.8468C123.695 11.8019 123.922 9.39273 123.922 9.35275C124.002 8.97289 124.158 8.60802 124.379 8.28814C124.6 7.96825 124.882 7.68835 125.213 7.47843C127.696 5.46917 131.777 5.934 134.773 5.89401C136.165 5.84903 137.542 6.1939 138.744 6.88365C138.884 6.97362 139.015 7.07358 139.146 7.17854C139.442 7.41346 139.699 7.69835 139.895 8.01823C140.065 8.28814 140.161 8.59302 140.176 8.90791C140.191 9.22279 140.121 9.53768 139.98 9.81758H135.823C134.949 9.81758 135.18 9.71761 134.748 9.10784C134.497 8.82794 134.18 8.60802 133.828 8.47307C133.476 8.33312 133.094 8.27814 132.717 8.30813C131.546 8.26814 130.099 8.30813 129.295 9.26778C128.928 9.54767 128.902 10.4973 128.822 10.9122C128.641 12.0967 129.752 12.4466 131.164 12.4216C132.898 12.4616 135.547 12.2317 137.17 12.8615L137.366 12.9314C137.366 12.9314 139.075 13.7511 139.548 14.5608C140.191 15.4055 139.291 18.8193 139.251 19.9089C139.161 20.3787 138.95 20.8136 138.638 21.1784V21.1384H138.618ZM95.7855 14.2959C95.4237 14.4309 95.0568 14.5359 94.6748 14.6058C92.8955 15.0657 90.0457 14.206 89.2767 16.4052C89.2767 16.7151 88.8395 19.3791 88.935 19.634C89.1913 20.6136 90.4026 20.9035 91.3224 20.9035H93.9008C94.338 20.8585 94.7652 20.7336 95.1573 20.5337C95.4036 20.4187 95.6247 20.2588 95.8006 20.0588C95.9715 19.8689 96.0871 19.634 96.1273 19.3841C96.1726 19.0292 96.8209 14.056 96.841 13.8961C96.5294 13.9411 96.062 14.156 95.7755 14.251V14.2909L95.7855 14.2959ZM102.566 9.27777L100.676 22.8278V23.0377C99.2485 23.3676 97.7809 23.4576 96.3233 23.2976C95.8207 23.2277 95.5946 23.0627 95.7604 22.308C93.7248 23.1627 91.5134 23.5176 89.3119 23.3426C88.0303 23.3576 86.7637 23.0927 85.6027 22.5629C84.6377 22.0931 83.6676 21.1884 83.8084 20.0188C83.8084 20.0188 84.4065 16.2052 84.4014 16.2052C84.4215 16.0053 84.4617 15.8104 84.5221 15.6205C84.5572 15.5105 84.5975 15.4005 84.6527 15.2956C84.708 15.1856 84.7683 15.0807 84.8387 14.9757C84.894 14.8957 84.9493 14.8207 85.0146 14.7458C85.3212 14.3709 85.6831 14.046 86.0902 13.7861C86.829 13.3113 87.6382 12.9664 88.4927 12.7615C89.9703 12.3167 93.0513 12.5216 94.6044 12.4766C95.3784 12.4966 96.1323 12.2517 96.7455 11.7919C96.9566 11.6369 97.1225 11.432 97.228 11.1921C97.3235 10.8372 97.3989 10.4773 97.4492 10.1125C97.4693 9.93253 97.4492 9.7476 97.3889 9.57766C97.3286 9.40773 97.2381 9.24778 97.1124 9.11283C96.2882 8.17318 94.6798 8.41309 93.559 8.3881C93.1066 8.3881 92.6543 8.46807 92.2321 8.62801C91.066 9.00287 91.2218 9.94253 90.0508 9.82257H85.8288V9.70762C85.8439 9.49269 85.8791 9.27777 85.9394 9.07285C86.246 8.31313 86.8089 7.67836 87.5327 7.27351C89.0154 6.38883 90.7243 5.934 92.4583 5.96399C94.0917 6.01897 98.0222 5.76906 99.5501 6.24388C100.178 6.40382 100.776 6.65873 101.324 7.0086C101.958 7.38347 102.42 7.97825 102.616 8.68299C102.626 8.87292 102.606 9.06285 102.556 9.24279V9.28277L102.566 9.27777ZM210.024 14.3009C209.662 14.4309 209.285 14.5309 208.908 14.6108C207.099 15.0607 204.274 14.231 203.51 16.4152C203.51 16.725 203.078 19.3891 203.168 19.639C203.434 20.6236 204.646 20.9085 205.555 20.9085H208.134C208.581 20.8685 209.018 20.7486 209.426 20.5437C209.672 20.4287 209.888 20.2638 210.069 20.0688C210.24 19.8789 210.35 19.639 210.391 19.3891C210.441 19.0342 211.089 14.066 211.114 13.9011C210.773 13.9411 210.3 14.161 210.024 14.256V14.2959V14.3009ZM216.804 9.27777L214.929 22.7878V23.0028C213.502 23.3276 212.034 23.4176 210.577 23.2627C210.069 23.1927 209.843 23.0277 210.009 22.273C207.973 23.1227 205.762 23.4726 203.56 23.3026C202.278 23.3226 201.012 23.0577 199.846 22.5279C198.881 22.0531 197.911 21.1534 198.062 19.9839L198.655 16.1703C198.68 15.9703 198.725 15.7754 198.785 15.5855C198.815 15.4755 198.861 15.3655 198.916 15.2606C198.971 15.1506 199.032 15.0407 199.102 14.9357L199.278 14.7008C199.59 14.3309 199.951 14.011 200.353 13.7411C201.092 13.2663 201.907 12.9214 202.766 12.7115C204.244 12.2717 207.325 12.4716 208.878 12.4316C209.647 12.4416 210.401 12.2017 211.019 11.7469C211.22 11.5869 211.386 11.382 211.496 11.1471C211.597 10.7922 211.672 10.4274 211.717 10.0575C211.738 9.87755 211.717 9.69262 211.657 9.52268C211.597 9.35275 211.501 9.1928 211.376 9.05785C210.556 8.1232 208.953 8.35811 207.832 8.33312C207.38 8.33312 206.928 8.41809 206.505 8.58303C205.339 8.95289 205.495 9.89255 204.319 9.77259H200.102V9.65763C200.122 9.44271 200.157 9.23279 200.213 9.02287C200.519 8.26314 201.082 7.62338 201.806 7.22352C203.289 6.33385 204.998 5.87902 206.732 5.90901C208.355 5.97398 212.295 5.71408 213.823 6.1939C214.452 6.34884 215.05 6.60875 215.598 6.95862C216.125 7.2835 216.543 7.76333 216.789 8.32812C216.829 8.42808 216.859 8.52805 216.874 8.63301C216.889 8.83793 216.874 9.04286 216.814 9.24279V9.28277L216.804 9.27777ZM75.3846 8.34312C73.8969 8.34312 71.6904 8.19817 71.3286 9.98252L69.9665 19.2591C69.9464 19.3841 69.9464 19.514 69.9665 19.639C70.0067 19.8189 70.0871 19.9889 70.1977 20.1338C70.3083 20.2837 70.449 20.4037 70.6098 20.4937C71.1225 20.7786 71.7055 20.9185 72.2936 20.8935C73.4546 20.8935 74.9825 21.0535 75.9425 20.2588C76.1436 20.1138 76.3044 19.9189 76.415 19.699C76.4652 19.584 76.5054 19.459 76.5306 19.3341L77.8926 10.0325V9.96252C78.0082 8.62301 76.4049 8.29813 75.3846 8.29813V8.33812V8.34312ZM78.8526 5.98398C79.7171 6.08394 80.5615 6.33385 81.3355 6.72871C81.5918 6.86865 81.8331 7.0286 82.0643 7.20353C82.2603 7.35848 82.4362 7.53841 82.592 7.73834C82.8031 8.00324 82.9489 8.30813 83.0243 8.63301C83.2303 8.82794 81.5114 19.8789 81.4561 20.2388C81.4059 20.3987 81.3405 20.5536 81.2601 20.7036C80.4308 22.0831 78.9632 22.6679 77.4755 23.0627C75.2439 23.5575 71.4944 23.5975 69.5845 22.323C69.5845 22.5379 68.7602 27.856 68.71 28.2158C68.2425 28.4558 67.7299 28.5907 67.2021 28.6157C66.6794 28.6407 66.1517 28.5507 65.6641 28.3558C64.1814 27.721 63.8899 26.3765 64.096 24.7521L66.7498 6.38383V6.17391C67.9058 5.99897 69.0718 5.90901 70.2379 5.914C71.0823 5.95899 71.8965 5.914 71.7507 7.0186C73.912 5.78405 76.4552 5.74906 78.8426 5.94399V5.98398H78.8526ZM189.552 8.34811C188.065 8.34811 185.863 8.20317 185.496 9.98751L184.134 19.2691C184.119 19.3941 184.119 19.519 184.134 19.644C184.174 19.8239 184.255 19.9939 184.365 20.1438C184.476 20.2937 184.617 20.4187 184.778 20.5087C185.29 20.7886 185.873 20.9235 186.461 20.9035C187.622 20.9035 189.155 21.0685 190.11 20.2688C190.311 20.1188 190.472 19.9289 190.583 19.704C190.638 19.589 190.678 19.469 190.698 19.3391L192.06 10.0375V9.96752C192.176 8.63301 190.578 8.30813 189.552 8.30813V8.34811ZM193.02 5.98898C193.89 6.08394 194.729 6.33885 195.503 6.7387C195.76 6.87365 196.001 7.03359 196.232 7.20853C196.433 7.36847 196.609 7.54841 196.76 7.74833C196.971 8.01324 197.117 8.31812 197.192 8.64301C197.398 8.83793 195.679 19.8889 195.624 20.2538C195.574 20.4137 195.508 20.5636 195.428 20.7136C194.599 22.0931 193.141 22.6779 191.643 23.0727C190.352 23.3326 189.035 23.4276 187.718 23.3526C186.326 23.3876 184.954 23.0377 183.752 22.333C183.722 22.5429 182.928 27.861 182.878 28.2258C182.41 28.4608 181.898 28.5957 181.37 28.6207C180.847 28.6457 180.319 28.5557 179.832 28.3658C178.349 27.731 178.058 26.3965 178.264 24.7621L180.923 6.39883L180.953 6.1889C182.109 6.00897 183.275 5.924 184.441 5.924C185.285 5.96898 186.099 5.924 185.954 7.03859C188.08 5.79405 190.628 5.75906 193 5.94899L193.015 5.98898H193.02ZM222.147 23.2577C220.981 23.1477 219.865 22.7229 218.925 22.0381C218.729 21.8832 218.548 21.7032 218.397 21.5033C218.186 21.2384 218.04 20.9335 217.965 20.6086C217.714 20.7486 219.176 11.5919 219.156 11.442C219.352 10.0875 219.719 7.58839 219.91 6.22889C220.744 6.03396 221.599 5.95899 222.458 6.00397C222.75 6.01897 223.036 6.06895 223.308 6.15891C223.423 6.1989 223.534 6.24388 223.644 6.29886C223.835 6.40382 224.001 6.53878 224.142 6.69872C224.217 6.78369 224.278 6.86865 224.338 6.96362C224.624 7.52341 224.7 8.16818 224.549 8.77796C224.157 12.2567 223.609 15.7154 223.107 19.1742C223.262 21.3933 226.886 21.0835 228.394 20.6286C228.796 20.4887 229.158 20.2438 229.439 19.9239C229.6 19.724 229.696 19.479 229.716 19.2241C230.309 15.1806 231.038 10.2524 231.616 6.25388C232.45 6.05895 233.305 5.98398 234.164 6.02896C234.44 6.04895 234.712 6.10393 234.968 6.1939C235.084 6.23389 235.194 6.27887 235.305 6.33385C235.491 6.43881 235.662 6.57376 235.803 6.7337C235.873 6.81867 235.938 6.90864 235.999 6.99861C236.275 7.5734 236.345 8.21816 236.2 8.83793L234.652 20.2138C234.481 21.9931 234.023 23.7275 233.3 25.3619C232.345 27.1063 230.319 27.906 228.449 28.2808C227.017 28.6257 225.022 28.4658 223.549 28.4408C222.775 28.3908 220.84 28.4408 220.101 28.2808C219.915 28.2508 219.739 28.2158 219.583 28.1809C218.764 28.0509 218.03 27.6111 217.533 26.9613C217.035 26.3115 216.809 25.4918 216.904 24.6821L221.242 24.7121C222.222 24.7121 221.659 25.007 222.041 25.5568C223.061 26.4965 225.263 26.0416 226.479 25.8217C228.098 25.4918 229.058 23.7725 229.264 22.1831C228.5 22.5829 227.685 22.8878 226.846 23.0877C225.298 23.3426 223.72 23.3876 222.157 23.2227V23.2627L222.147 23.2577ZM173.152 6.01397C173.529 6.05895 173.896 6.12893 174.263 6.22889C174.655 6.33385 175.042 6.4738 175.409 6.64374C175.605 6.7337 175.791 6.83867 175.972 6.95362C176.113 7.04359 176.243 7.13856 176.374 7.24852L176.464 7.32349C176.62 7.47843 176.766 7.63837 176.902 7.80831C176.977 7.90328 177.042 8.01324 177.108 8.1082C177.163 8.20817 177.213 8.30813 177.254 8.41309C177.294 8.51305 177.324 8.61801 177.344 8.72298C177.364 8.82794 177.379 8.9329 177.384 9.04286C176.771 13.8561 175.977 18.6493 175.308 23.4526C175.148 23.5026 174.967 23.5625 174.826 23.5925C174.268 23.7325 173.69 23.7575 173.122 23.6775C172.906 23.6425 172.69 23.5925 172.479 23.5326C172.172 23.4276 171.886 23.2727 171.629 23.0727C171.433 22.9178 171.262 22.7379 171.122 22.5329C171.046 22.428 170.981 22.323 170.926 22.208C170.694 21.6932 170.629 21.1184 170.73 20.5636C171.227 17.1049 171.73 13.6462 172.237 10.1874C172.237 10.1724 172.237 10.1624 172.237 10.1475C172.253 10.0275 172.253 9.90754 172.237 9.79258C172.182 9.55267 172.062 9.33775 171.896 9.15782C171.715 8.95789 171.494 8.79795 171.252 8.68799C171.112 8.61802 170.966 8.56803 170.815 8.52805C170.212 8.40309 169.589 8.3881 168.976 8.48806C168.674 8.54304 168.382 8.63301 168.101 8.74797C167.739 8.89791 167.423 9.14282 167.191 9.45271C166.171 13.991 165.849 18.7593 165.085 23.3826H160.049C160.693 18.9842 161.301 14.5908 161.944 10.1974C161.959 10.0775 161.959 9.95752 161.944 9.83257C161.924 9.71261 161.889 9.59766 161.833 9.4877C161.718 9.26278 161.542 9.06785 161.331 8.9229C161.225 8.84293 161.105 8.77296 160.984 8.71798C160.567 8.53305 160.115 8.44308 159.657 8.45307C159.17 8.3931 158.677 8.44308 158.215 8.59802C157.752 8.75297 157.325 9.00787 156.973 9.34275C155.847 13.8561 155.687 18.6943 154.857 23.3326H149.66C150.495 17.6247 151.324 11.9168 152.148 6.2089C153.465 6.04895 154.797 6.01397 156.119 6.09394C156.717 6.14892 157.194 6.33385 157.355 6.96362C157.772 6.7487 158.205 6.56377 158.642 6.40382C158.954 6.29386 159.275 6.2039 159.597 6.13892C160.753 5.88901 161.944 5.85403 163.11 6.02896C163.321 6.05895 163.542 6.10393 163.753 6.15392C163.965 6.2039 164.171 6.27387 164.367 6.34385C164.563 6.41382 164.754 6.48879 164.93 6.56876C165.523 6.83867 166.065 7.21353 166.523 7.67336C167.503 6.90864 168.649 6.38383 169.87 6.13392C170.559 5.98898 171.262 5.914 171.966 5.919C172.368 5.914 172.77 5.929 173.172 5.97398L173.152 6.01397ZM144.664 6.01397C145.303 5.89901 145.951 5.85902 146.599 5.90401C146.876 5.929 147.142 5.98398 147.404 6.06895C147.519 6.10893 147.63 6.15392 147.74 6.21389C147.931 6.31386 148.097 6.44381 148.238 6.60875C148.308 6.69372 148.374 6.78369 148.429 6.87365C148.484 6.97362 148.534 7.07858 148.58 7.18354C149.062 8.3981 147.811 14.056 147.75 15.4155L146.68 23.0777L146.64 23.3176H141.573L141.619 22.9978L142.855 14.4059L144.026 6.31386V6.11893L144.664 6.00397V6.01397ZM119.524 21.1784C117.046 23.9874 112.206 23.2777 108.848 23.3576C106.612 23.3576 102.918 22.4679 103.425 19.604C103.425 19.4441 103.656 17.9896 103.661 17.8746H107.783C108.994 17.8746 108.652 18.2295 108.512 19.2691C108.391 20.4987 109.904 20.9285 110.909 20.9085C112.07 20.9085 113.623 21.0735 114.588 20.2738C114.784 20.1238 114.945 19.9339 115.061 19.714C115.201 19.549 115.498 17.0749 115.558 16.825V16.795C115.417 14.4809 111.477 15.3056 109.954 15.1606C108.728 15.1856 107.511 14.9357 106.396 14.4309C105.431 13.9411 104.461 13.0114 104.591 11.8868C104.591 11.8418 104.812 9.43772 104.812 9.39273C104.893 9.01287 105.049 8.648 105.27 8.32812C105.491 8.00824 105.772 7.72834 106.104 7.51842C107.662 6.44381 109.522 5.88901 111.422 5.934C113.824 6.02396 117.549 5.49916 119.634 6.93363C119.775 7.0236 119.916 7.12356 120.041 7.21853C120.338 7.45344 120.589 7.73834 120.785 8.06322C120.956 8.32812 121.052 8.63301 121.067 8.94789C121.082 9.26278 121.017 9.57267 120.876 9.85756H116.719C115.845 9.85756 116.041 9.7576 115.644 9.14782C115.387 8.86792 115.076 8.648 114.719 8.51305C114.367 8.3731 113.985 8.31812 113.603 8.34811C112.437 8.30813 110.984 8.34811 110.185 9.30776C109.818 9.59266 109.793 10.5373 109.713 10.9522C109.532 12.1367 110.643 12.4866 112.055 12.4616C113.789 12.5016 116.438 12.2717 118.071 12.9014L118.257 12.9714C119.152 13.2663 119.916 13.8461 120.439 14.6158C121.082 15.4605 120.172 18.8693 120.137 19.9589C120.031 20.3937 119.825 20.7986 119.524 21.1334V21.1784Z" fill="#000099"/>
<path fill-rule="evenodd" clip-rule="evenodd" d="M149.318 3.54037H144.287L144.79 0.0566406H149.806L149.318 3.54037Z" fill="#FF6600"/>
</g>
<defs>
<clipPath id="clip0_4597_26577">
<rect width="236.273" height="40.8882" fill="white" transform="translate(0 0.0566406)"/>
</clipPath>
</defs>
</svg>
