<svg width="86" height="125" viewBox="0 0 86 125" fill="none" xmlns="http://www.w3.org/2000/svg">
<g clip-path="url(#clip0_4597_26571)">
<path d="M42.541 0.328125H0.329102V41.9918H42.6507V0.328125H42.541Z" stroke="#EDEDED" stroke-width="0.548207" stroke-miterlimit="10"/>
<path d="M42.5413 41.8825V0.21875H84.8628V41.8825H42.5413ZM42.5413 41.8825H0.219727V83.5462H42.5413V41.8825Z" stroke="#EDEDED" stroke-width="0.548207" stroke-miterlimit="10"/>
<path d="M42.5413 83.5465V41.8828H84.8628V83.5465H42.5413ZM42.5413 83.5465H0.219727V125.21H42.5413V83.5465Z" stroke="#EDEDED" stroke-width="0.548207" stroke-miterlimit="10"/>
<path d="M84.8628 83.5462H42.5413M84.8628 83.5462V125.21H42.5413M84.8628 83.5462L42.5413 41.8825M84.8628 83.5462L42.5413 125.21M42.5413 83.5462V125.21M42.5413 83.5462L0.219727 41.8825M42.5413 83.5462L84.8628 41.8825L42.5413 0.21875M42.5413 83.5462L0.219727 125.21M42.5413 41.8825L0.329368 0.328391M42.5413 41.8825L84.8628 0.21875M42.5413 41.8825L0.219727 83.5462M42.5413 0.328391L0.219727 41.9921M42.5413 125.1L0.219727 83.4365M84.8628 125.1L42.5413 83.4365M21.3805 0.21875V125.1M63.7021 0.21875V125.1M84.8628 21.0506H0.219727M84.8628 62.7143H0.219727M84.8628 104.268H0.219727" stroke="#EDEDED" stroke-width="0.548207" stroke-miterlimit="10"/>
</g>
<defs>
<clipPath id="clip0_4597_26571">
<rect width="85.0817" height="125.43" fill="white"/>
</clipPath>
</defs>
</svg>
