<svg width="33" height="33" viewBox="0 0 33 33" fill="none" xmlns="http://www.w3.org/2000/svg">
<path d="M32.0174 18.8759C28.6322 13.5152 29.085 8.07939 27.4534 5.49622C25.8217 2.91305 20.9102 -1.57495 9.02561 5.9298C-2.85898 13.4346 0.00560875 21.834 1.80044 24.6756C10.2026 37.9811 38.0124 28.3707 32.0174 18.8759Z" fill="#EDEDED"/>
<path d="M3.30469 11.5547C2.9371 11.5547 2.59152 11.4117 2.3321 11.1523C2.07269 10.8929 1.92969 10.5473 1.92969 10.1797C1.92969 9.81214 2.07269 9.46656 2.3321 9.20714C2.85002 8.68922 3.7566 8.68831 4.27635 9.20714C4.53577 9.46656 4.67877 9.81214 4.67877 10.1797C4.67877 10.5464 4.53577 10.892 4.27635 11.1523C4.01694 11.4126 3.67227 11.5547 3.30469 11.5547ZM3.30469 9.72139C3.18185 9.72139 3.06727 9.76906 2.9811 9.85522C2.89402 9.94231 2.84635 10.0569 2.84635 10.1797C2.84635 10.3016 2.89402 10.4171 2.98019 10.5042C3.15344 10.6784 3.45502 10.6775 3.62827 10.5042C3.71444 10.4171 3.7621 10.3026 3.7621 10.1797C3.7621 10.0569 3.71444 9.94231 3.62827 9.85614C3.5421 9.76997 3.42752 9.72139 3.30469 9.72139Z" fill="#A4AFC1"/>
<path d="M21.0833 24.9792C23.2349 24.9792 24.9792 23.2349 24.9792 21.0833C24.9792 18.9317 23.2349 17.1875 21.0833 17.1875C18.9317 17.1875 17.1875 18.9317 17.1875 21.0833C17.1875 23.2349 18.9317 24.9792 21.0833 24.9792Z" fill="#FEB46D"/>
<path d="M13.75 5.95898H7.5625L6.1875 7.79232V8.70898H8.47917V25.6673C8.47917 26.1733 8.88983 26.584 9.39583 26.584H11.6875C12.1935 26.584 12.6042 26.1733 12.6042 25.6673V8.70898H19.0208L13.75 5.95898Z" fill="#F3F3F1"/>
<path d="M12.8335 14.209H18.5627L15.1252 16.5007H12.8335V14.209Z" fill="#F3F3F1"/>
<path d="M8.47917 14.209H7.10417C6.59817 14.209 6.1875 14.6197 6.1875 15.1257V15.584C6.1875 16.09 6.59817 16.5007 7.10417 16.5007H8.47917V14.209Z" fill="#F3F3F1"/>
<path d="M16.9583 13.7507C18.3506 13.7507 19.4792 12.622 19.4792 11.2298C19.4792 9.8376 18.3506 8.70898 16.9583 8.70898C15.5661 8.70898 14.4375 9.8376 14.4375 11.2298C14.4375 12.622 15.5661 13.7507 16.9583 13.7507Z" fill="#FEB46D"/>
<path d="M19.25 21.0833C19.25 19.2912 20.4673 17.7971 22.1146 17.3433C21.7837 17.2526 21.4427 17.1875 21.0833 17.1875C18.9319 17.1875 17.1875 18.9319 17.1875 21.0833C17.1875 23.2347 18.9319 24.9792 21.0833 24.9792C21.4427 24.9792 21.7837 24.915 22.1146 24.8233C20.4673 24.3696 19.25 22.8754 19.25 21.0833Z" fill="#FF6600"/>
<path d="M10.5415 25.6673V8.70898H8.479V25.6673C8.479 26.1733 8.88967 26.584 9.39567 26.584H11.4582C10.9522 26.584 10.5415 26.1733 10.5415 25.6673Z" fill="#D5DBE1"/>
<path d="M12.8335 14.209H14.896V16.5007H12.8335V14.209Z" fill="#D5DBE1"/>
<path d="M8.25 15.584V15.1257C8.25 14.8974 8.34167 14.6957 8.47917 14.5362V14.209H7.10417C6.59817 14.209 6.1875 14.6197 6.1875 15.1257V15.584C6.1875 16.09 6.59817 16.5007 7.10417 16.5007H8.47917V16.1734C8.34167 16.0139 8.25 15.8113 8.25 15.584Z" fill="#D5DBE1"/>
<path d="M16.5 11.2298C16.5 10.2059 17.1132 9.32865 17.9896 8.93448C17.6742 8.7924 17.3268 8.70898 16.9583 8.70898C15.5659 8.70898 14.4375 9.8374 14.4375 11.2298C14.4375 12.6222 15.5659 13.7507 16.9583 13.7507C17.3268 13.7507 17.6742 13.6672 17.9896 13.5252C17.1132 13.131 16.5 12.2537 16.5 11.2298Z" fill="#FF6600"/>
<path d="M21.0833 25.6667C18.5561 25.6667 16.5 23.6106 16.5 21.0833C16.5 18.5561 18.5561 16.5 21.0833 16.5C23.6106 16.5 25.6667 18.5561 25.6667 21.0833C25.6667 23.6106 23.6106 25.6667 21.0833 25.6667ZM21.0833 17.875C19.3142 17.875 17.875 19.3142 17.875 21.0833C17.875 22.8525 19.3142 24.2917 21.0833 24.2917C22.8525 24.2917 24.2917 22.8525 24.2917 21.0833C24.2917 19.3142 22.8525 17.875 21.0833 17.875Z" fill="black"/>
<path d="M23.0229 23.998L23.9952 23.0258L27.78 26.8105L26.8077 27.7828L23.0229 23.998Z" fill="black"/>
<path d="M10.5417 27.5C9.0255 27.5 7.79167 26.2662 7.79167 24.75V9.625H6.1875C5.808 9.625 5.5 9.317 5.5 8.9375V8.02083C5.5 7.87233 5.54858 7.7275 5.6375 7.60833L7.0125 5.775C7.14267 5.60175 7.34617 5.5 7.5625 5.5H13.75C13.8609 5.5 13.97 5.52658 14.0681 5.57792L19.3389 8.32792C19.6203 8.47458 19.7642 8.79358 19.6891 9.10158C19.613 9.40867 19.338 9.625 19.0208 9.625H13.2917V24.75C13.2917 26.2662 12.0578 27.5 10.5417 27.5ZM6.875 8.25H8.47917C8.85867 8.25 9.16667 8.558 9.16667 8.9375V24.75C9.16667 25.5081 9.78358 26.125 10.5417 26.125C11.2997 26.125 11.9167 25.5081 11.9167 24.75V8.9375C11.9167 8.558 12.2247 8.25 12.6042 8.25H16.2167L13.5813 6.875H7.90625L6.875 8.25Z" fill="black"/>
<path d="M15.1252 17.4167H12.8335C12.454 17.4167 12.146 17.1087 12.146 16.7292C12.146 16.3497 12.454 16.0417 12.8335 16.0417H14.9171L16.2921 15.125H12.8335C12.454 15.125 12.146 14.817 12.146 14.4375C12.146 14.058 12.454 13.75 12.8335 13.75H18.5627C18.8661 13.75 19.1328 13.948 19.2208 14.2386C19.3088 14.5292 19.1961 14.8418 18.944 15.0095L15.5065 17.3012C15.3937 17.3763 15.2608 17.4167 15.1252 17.4167Z" fill="black"/>
<path d="M8.47917 17.4167H7.10417C6.21958 17.4167 5.5 16.6971 5.5 15.8125V15.3542C5.5 14.4696 6.21958 13.75 7.10417 13.75H8.47917C8.85867 13.75 9.16667 14.058 9.16667 14.4375C9.16667 14.817 8.85867 15.125 8.47917 15.125H7.10417C6.97767 15.125 6.875 15.2277 6.875 15.3542V15.8125C6.875 15.939 6.97767 16.0417 7.10417 16.0417H8.47917C8.85867 16.0417 9.16667 16.3497 9.16667 16.7292C9.16667 17.1087 8.85867 17.4167 8.47917 17.4167Z" fill="black"/>
<path d="M16.9583 14.6667C15.1892 14.6667 13.75 13.2275 13.75 11.4583C13.75 9.68917 15.1892 8.25 16.9583 8.25C18.7275 8.25 20.1667 9.68917 20.1667 11.4583C20.1667 13.2275 18.7275 14.6667 16.9583 14.6667ZM16.9583 9.625C15.9473 9.625 15.125 10.4473 15.125 11.4583C15.125 12.4694 15.9473 13.2917 16.9583 13.2917C17.9694 13.2917 18.7917 12.4694 18.7917 11.4583C18.7917 10.4473 17.9694 9.625 16.9583 9.625Z" fill="black"/>
<path d="M16.9582 12.3743C17.4644 12.3743 17.8748 11.9639 17.8748 11.4577C17.8748 10.9514 17.4644 10.541 16.9582 10.541C16.4519 10.541 16.0415 10.9514 16.0415 11.4577C16.0415 11.9639 16.4519 12.3743 16.9582 12.3743Z" fill="black"/>
<path d="M11 21.084H13.0625V22.459H11V21.084Z" fill="black"/>
<path d="M11 18.334H13.0625V19.709H11V18.334Z" fill="black"/>
<path d="M11 15.584H13.0625V16.959H11V15.584Z" fill="black"/>
<path d="M11 12.834H13.0625V14.209H11V12.834Z" fill="black"/>
<path d="M11 10.084H13.0625V11.459H11V10.084Z" fill="black"/>
</svg>
