<svg width="65" height="64" viewBox="0 0 65 64" fill="none" xmlns="http://www.w3.org/2000/svg">
<path d="M21.0035 49.1038C21.5146 48.8764 22.0323 48.6673 22.5549 48.4711C23.1448 48.2494 23.7397 48.0411 24.3423 47.8591C25.0926 47.6331 25.8491 47.4284 26.6159 47.2659C27.6496 47.0464 28.6956 46.8839 29.7496 46.7814C29.1586 48.6399 28.5053 50.4878 27.7973 52.3235C27.8276 52.6793 27.8443 53.037 27.8536 53.3953C29.2788 53.1143 30.7513 52.9638 32.2593 52.9638C33.767 52.9638 35.2395 53.1143 36.6647 53.3953C36.6742 53.0365 36.6902 52.6788 36.7209 52.3235C36.013 50.4878 35.3597 48.6399 34.7687 46.7814C35.823 46.8839 36.8687 47.0459 37.9024 47.2659C38.6687 47.4284 39.4257 47.6331 40.1761 47.8591C40.7791 48.0404 41.3736 48.2494 41.9634 48.4711C42.4861 48.6673 43.0044 48.8769 43.5153 49.1038C47.1413 50.7188 50.447 53.1135 53.1579 56.222C59.9528 50.3538 64.2598 41.6827 64.2598 31.9999C64.2598 14.327 49.9327 0 32.2598 0C14.5868 0 0.259766 14.327 0.259766 31.9999C0.259766 41.6827 4.56608 50.3543 11.3616 56.222C14.0719 53.1135 17.3775 50.7181 21.0035 49.1038Z" fill="#A0DBE8"/>
<path d="M23.1117 54.8934C24.614 54.2291 26.2 53.7214 27.8525 53.3954C27.843 53.0367 27.827 52.6787 27.7962 52.3237C28.504 50.4879 29.1575 48.6397 29.7484 46.7812C28.6942 46.884 27.6485 47.046 26.6147 47.266C25.8483 47.4285 25.0915 47.6332 24.3411 47.8592C23.7385 48.0405 23.1436 48.249 22.5537 48.4712L24.8863 49.0362L23.1117 54.8934Z" fill="#525353"/>
<path d="M17.6192 58.3443C17.6777 57.7478 17.7135 57.1463 17.7135 56.5389C17.7135 56.1734 18.0101 55.8766 18.3756 55.8766H18.9573L21.0093 49.1055C17.3833 50.7202 14.0776 53.1152 11.3662 56.2234C12.8608 57.5141 14.4745 58.6681 16.1913 59.6675C16.6484 59.2061 17.1247 58.7646 17.6192 58.3443Z" fill="#525353"/>
<path d="M43.5161 49.1035L45.5683 55.8747H46.1493C46.5153 55.8747 46.8113 56.1712 46.8113 56.5369C46.8113 57.1449 46.8473 57.7464 46.9058 58.3424C47.4008 58.7624 47.8765 59.2046 48.3335 59.6648C50.0505 58.6654 51.664 57.5114 53.1587 56.2209C50.448 53.1132 47.1423 50.7182 43.5161 49.1035Z" fill="#525353"/>
<path d="M39.6317 49.0362L41.9637 48.471C41.3739 48.2495 40.779 48.041 40.1765 47.8592C39.426 47.633 38.6697 47.4285 37.9027 47.266C36.869 47.0465 35.8233 46.8837 34.769 46.7812C35.36 48.6397 36.0135 50.4877 36.7213 52.3237C36.691 52.6792 36.6745 53.0371 36.665 53.3954C38.318 53.7211 39.904 54.2291 41.4064 54.8934L39.6317 49.0362Z" fill="#525353"/>
<path d="M32.2597 55.8743H36.7688C36.6763 55.0436 36.6433 54.2156 36.6653 53.3946C35.2401 53.1134 33.7676 52.9629 32.2597 52.9629C30.7519 52.9629 29.28 53.1134 27.8542 53.3946C27.8757 54.2156 27.8425 55.0436 27.7505 55.8743H32.2597Z" fill="black"/>
<path d="M16.1846 59.6643C16.5567 59.881 16.9316 60.092 17.3126 60.294C17.446 59.6528 17.548 59.0015 17.6125 58.3418C17.118 58.7618 16.6416 59.2033 16.1846 59.6643Z" fill="black"/>
<path d="M22.8159 55.8762H27.7507C27.8434 55.0455 27.8764 54.2175 27.8544 53.3965C26.202 53.7222 24.6154 54.23 23.1136 54.8945L22.8159 55.8762Z" fill="black"/>
<path d="M46.9033 58.3418C46.9678 59.0015 47.0698 59.6528 47.2033 60.294C47.5843 60.092 47.9596 59.881 48.3313 59.6643C47.8743 59.2033 47.3983 58.7618 46.9033 58.3418Z" fill="black"/>
<path d="M41.7049 55.8757L41.4074 54.8945C39.9049 54.23 38.3187 53.7222 36.666 53.3965C36.6445 54.2175 36.6775 55.0455 36.7697 55.8762L41.7049 55.8757Z" fill="black"/>
<path d="M22.8167 55.8753L23.1144 54.8933L24.8896 49.0357L22.557 48.4707C22.0343 48.667 21.5161 48.8764 21.0056 49.1034L18.9536 55.8748H21.1567L22.8167 55.8753Z" fill="#AA9678"/>
<path d="M41.4031 54.8934L41.7009 55.8748H43.3609H45.5646L43.5126 49.1034C43.0014 48.8759 42.4831 48.667 41.9606 48.4707L39.6284 49.0357L41.4031 54.8934Z" fill="#AA9678"/>
<path d="M19.0161 57.2436C19.0357 57.2293 19.0559 57.2152 19.076 57.2012H19.0188C19.0183 57.2152 19.0167 57.2288 19.0161 57.2436Z" fill="#C0B098"/>
<path d="M32.2581 57.1973H27.5497H22.4126H19.0788C19.0584 57.2115 19.038 57.226 19.0182 57.2403C18.9741 58.4907 18.8065 59.7167 18.5347 60.9097C22.6938 62.8874 27.3457 63.9977 32.2581 63.9977V57.1973Z" fill="#C0B098"/>
<path d="M45.4979 57.1973H45.4409C45.4609 57.2113 45.4812 57.2257 45.5007 57.2397C45.4997 57.2257 45.4979 57.2118 45.4979 57.1973Z" fill="#AA9678"/>
<path d="M45.4383 57.1973H42.1051H36.9674H32.2598V63.9977C37.1719 63.9977 41.8239 62.8879 45.9831 60.9097C45.7113 59.7167 45.5443 58.4912 45.4996 57.2403C45.4791 57.226 45.4588 57.212 45.4383 57.1973Z" fill="#AA9678"/>
<path d="M46.9066 58.3427C46.8481 57.746 46.8124 57.1445 46.8124 56.537C46.8124 56.1715 46.5156 55.875 46.1501 55.875H45.5691H43.3654H41.7055H36.7708H32.2616H27.7517H22.817H21.1569H18.9539H18.3723C18.0062 55.875 17.7101 56.1715 17.7101 56.537C17.7101 57.1452 17.6743 57.7467 17.6158 58.3427C17.5513 59.0025 17.4493 59.6537 17.3159 60.2947C17.7189 60.5082 18.1253 60.7154 18.5376 60.9117C18.8094 59.7187 18.9765 58.4932 19.0211 57.2422C19.0217 57.2277 19.0233 57.2135 19.0239 57.1992H19.0818H22.4156H27.5527H32.2609H36.9685H42.1065H45.4396H45.4974C45.4981 57.2135 45.4996 57.2277 45.5001 57.2422C45.5444 58.4925 45.7119 59.7187 45.9836 60.9117C46.3966 60.7154 46.8029 60.5082 47.2054 60.2947C47.0731 59.6529 46.9711 59.0025 46.9066 58.3427Z" fill="#8B7460"/>
<path d="M53.5638 24.8789C53.5583 24.8716 53.5528 24.8651 53.5478 24.8579C53.282 24.4885 53.0081 24.1516 52.7268 23.8457C52.7241 23.8429 52.7218 23.8396 52.7198 23.8368C52.5918 23.6985 52.4628 23.5656 52.3321 23.4404C52.2826 23.393 52.2318 23.3517 52.1821 23.3065C52.1001 23.232 52.0178 23.1549 51.9346 23.0859V26.0631L53.0743 31.2823C53.0863 31.323 53.1018 31.3605 53.1123 31.403L53.9018 32.288L53.9095 32.279H54.7358C54.737 32.2025 54.7413 32.127 54.7413 32.0503C54.7413 29.5886 54.3368 27.2218 53.604 25.0061C53.5903 24.9644 53.578 24.9214 53.5638 24.8789Z" fill="#BBBCBD"/>
<path d="M53.1902 31.7928C53.1912 31.801 53.1935 31.8088 53.1947 31.8178C53.1952 31.8225 53.1967 31.8275 53.1975 31.8325C53.1975 31.8315 53.1975 31.833 53.1975 31.8325C53.2122 31.955 53.2182 32.0845 53.221 32.2135C53.2217 32.2373 53.2255 32.2593 53.2255 32.283C53.2255 32.2858 53.226 32.2885 53.226 32.2918C53.226 32.295 53.2255 32.2978 53.2255 32.3013C53.2255 32.3265 53.2217 32.3503 53.221 32.3755C53.2182 32.5018 53.2127 32.627 53.198 32.7473C53.198 32.7468 53.198 32.7478 53.198 32.7473C53.1975 32.7535 53.1957 32.7605 53.1947 32.767C53.1935 32.777 53.1907 32.7858 53.1892 32.7953C53.1715 32.9258 53.1482 33.0533 53.1175 33.174C53.118 33.1735 53.1175 33.1745 53.1175 33.174L53.1212 33.1705C53.122 33.1685 53.1225 33.1668 53.123 33.1645L53.9057 32.289L53.1162 31.4043C53.1155 31.4038 53.1162 31.4048 53.1162 31.4043C53.1475 31.5278 53.172 31.6588 53.1902 31.7928Z" fill="#676A6A"/>
<path d="M53.1881 32.7961C53.1903 32.7796 53.1946 32.7646 53.1968 32.7481C53.2118 32.6279 53.2173 32.5029 53.2201 32.3767C53.2206 32.3479 53.2251 32.3214 53.2251 32.2929C53.2251 32.2657 53.2211 32.2409 53.2206 32.2144C53.2178 32.0854 53.2118 31.9582 53.1968 31.8357C53.1953 31.8214 53.1913 31.8082 53.1891 31.7939C53.1711 31.6604 53.1473 31.5309 53.1158 31.4074C53.1048 31.3644 53.0894 31.3264 53.0769 31.2844C53.0011 31.0342 52.8976 30.8124 52.7751 30.6289C52.7586 30.6047 52.7421 30.5804 52.7251 30.5577C52.6914 30.5127 52.6579 30.4684 52.6219 30.4294C52.5689 30.3719 52.5144 30.3192 52.4566 30.2754C52.4344 30.2589 52.4114 30.2474 52.3886 30.2324C52.3391 30.2004 52.2879 30.1724 52.2349 30.1509C52.2124 30.1414 52.1896 30.1327 52.1666 30.1257C52.0921 30.1024 52.0161 30.0859 51.9371 30.0859C51.8584 30.0859 51.7829 30.1024 51.7079 30.1257C51.6846 30.1327 51.6621 30.1414 51.6394 30.1509C51.5866 30.1724 51.5359 30.2004 51.4856 30.2324C51.4636 30.2474 51.4399 30.2584 51.4184 30.2754C51.3604 30.3192 51.3059 30.3719 51.2529 30.4294C51.2171 30.4684 51.1836 30.5127 51.1499 30.5577C51.1329 30.5809 51.1156 30.6052 51.0991 30.6294C50.9769 30.8137 50.8731 31.0347 50.7976 31.2849C50.7944 31.2949 50.7909 31.3049 50.7881 31.3147C50.7551 31.4294 50.7286 31.5507 50.7066 31.6754C50.7001 31.7134 50.6911 31.7497 50.6861 31.7889C50.6664 31.9279 50.6559 32.0729 50.6536 32.2212C50.6531 32.2414 50.6504 32.2614 50.6504 32.2817H50.6554C50.6554 33.5006 51.2321 34.4886 51.9431 34.4886C52.0656 34.4886 52.1836 34.4566 52.2956 34.4016C52.3136 34.3929 52.3314 34.3834 52.3491 34.3729C52.3959 34.3464 52.4411 34.3166 52.4851 34.2819C52.5094 34.2626 52.5321 34.2389 52.5551 34.2169C52.6119 34.1639 52.6661 34.1039 52.7174 34.0371C52.7526 33.9909 52.7879 33.9439 52.8204 33.8916C52.8414 33.8586 52.8601 33.8221 52.8794 33.7869C52.9151 33.7206 52.9494 33.6511 52.9804 33.5774C52.9914 33.5509 53.0034 33.5256 53.0139 33.4979C53.0531 33.3954 53.0878 33.2879 53.1163 33.1744C53.1473 33.0541 53.1703 32.9269 53.1881 32.7961ZM51.9834 31.9984C51.7166 31.9984 51.5006 31.6279 51.5006 31.1709C51.5006 30.7139 51.7166 30.3434 51.9834 30.3434C52.2504 30.3434 52.4664 30.7139 52.4664 31.1709C52.4664 31.6279 52.2504 31.9984 51.9834 31.9984Z" fill="black"/>
<path d="M51.9832 31.9987C52.25 31.9987 52.4662 31.6282 52.4662 31.1712C52.4662 30.7142 52.25 30.3438 51.9832 30.3438C51.7165 30.3438 51.5005 30.7142 51.5005 31.1712C51.5005 31.6282 51.7165 31.9987 51.9832 31.9987Z" fill="#F3F7F9"/>
<path d="M50.7939 31.2839C50.8694 31.0329 50.9732 30.8119 51.0954 30.6284C51.1119 30.6034 51.1292 30.5799 51.1462 30.5566C51.1792 30.5114 51.2134 30.4679 51.2492 30.4281C51.3022 30.3704 51.3574 30.3184 51.4147 30.2744C51.4367 30.2579 51.4599 30.2461 51.4819 30.2314C51.5317 30.1989 51.5829 30.1711 51.6357 30.1496C51.6584 30.1404 51.6809 30.1316 51.7042 30.1244C51.7787 30.1011 51.8547 30.0846 51.9334 30.0846C52.0124 30.0846 52.0884 30.1006 52.1629 30.1244C52.1859 30.1316 52.2087 30.1404 52.2312 30.1496C52.2837 30.1711 52.3349 30.1989 52.3849 30.2314C52.4077 30.2461 52.4307 30.2579 52.4529 30.2744C52.5107 30.3184 52.5654 30.3704 52.6182 30.4281C52.6542 30.4674 52.6882 30.5114 52.7214 30.5566C52.7384 30.5799 52.7549 30.6034 52.7714 30.6276C52.8939 30.8119 52.9969 31.0329 53.0732 31.2834L51.9334 26.0645L50.7939 31.2839Z" fill="#909393"/>
<path d="M36.8377 32.2422C36.836 32.1375 36.8295 32.0337 36.8172 31.9312C36.8172 31.9297 36.8167 31.9285 36.8167 31.927C36.8045 31.8265 36.788 31.7272 36.7665 31.6297C36.766 31.627 36.7655 31.6247 36.765 31.622C36.7435 31.5255 36.7175 31.4312 36.6865 31.3387C36.686 31.3365 36.685 31.3342 36.6845 31.332C36.6535 31.2395 36.6182 31.1485 36.579 31.0603C36.5785 31.0585 36.5775 31.0563 36.5762 31.0548C36.5367 30.966 36.4925 30.8788 36.4445 30.795C36.298 30.5388 36.115 30.3055 35.9027 30.103C35.633 29.8463 35.3155 29.6383 34.966 29.4945C34.9633 29.4933 34.9605 29.4923 34.957 29.4913C34.7845 29.4205 34.6043 29.366 34.4173 29.3285C34.413 29.3275 34.408 29.3275 34.4035 29.3263C34.2168 29.29 34.0233 29.2695 33.8253 29.2695C33.6308 29.2695 33.441 29.2893 33.2568 29.3248C33.2503 29.3258 33.2435 29.3263 33.237 29.3275C33.054 29.3638 32.877 29.4173 32.7078 29.4858C32.7033 29.4873 32.6983 29.489 32.694 29.4905C32.522 29.5605 32.3578 29.646 32.2033 29.7453C32.204 29.7453 32.2028 29.7458 32.2033 29.7453C32.0473 29.8458 31.8996 29.9603 31.7651 30.0865L31.7618 30.097L31.7506 30.0998C31.5356 30.3038 31.3511 30.5393 31.2033 30.7983C31.2016 30.8018 31.1993 30.8045 31.1978 30.8073C31.1526 30.8865 31.1123 30.9693 31.0743 31.053C31.0703 31.0618 31.0653 31.0708 31.0616 31.0795C31.0273 31.1573 30.9981 31.2377 30.9706 31.3187C30.9651 31.3347 30.9583 31.3497 30.9536 31.3657C30.9293 31.4412 30.9098 31.519 30.8918 31.5972C30.8868 31.6192 30.8796 31.6407 30.8746 31.6632C30.8586 31.7405 30.8476 31.8187 30.8371 31.8982C30.8343 31.9225 30.8288 31.9457 30.8261 31.97C30.8151 32.073 30.8096 32.1782 30.8096 32.2842C30.8096 32.4837 30.8301 32.6782 30.8668 32.867C30.8676 32.8707 30.8681 32.8745 30.8686 32.879C30.9066 33.067 30.9618 33.249 31.0333 33.4227C31.0346 33.4247 31.0351 33.4275 31.0361 33.4297C31.1811 33.7815 31.3913 34.0997 31.6503 34.3697C31.8556 34.5832 32.0913 34.7667 32.3505 34.9134C32.3515 34.9139 32.3533 34.9149 32.3543 34.9154C32.4353 34.9607 32.5193 35.0022 32.604 35.0402C32.6113 35.0434 32.6178 35.0474 32.625 35.0502C32.7038 35.0847 32.7855 35.1139 32.8683 35.1422C32.882 35.1472 32.8958 35.1527 32.9095 35.1577C32.9855 35.1819 33.064 35.2012 33.1428 35.2194C33.1643 35.2242 33.1845 35.2309 33.206 35.2354C33.2828 35.2512 33.361 35.2617 33.44 35.2722C33.4635 35.2757 33.4873 35.2804 33.511 35.2832C33.614 35.2937 33.7183 35.2999 33.8243 35.2999C34.2405 35.2999 34.6368 35.2154 34.998 35.0627C35.1783 34.9867 35.3497 34.8929 35.51 34.7849C35.831 34.5682 36.1077 34.2915 36.3245 33.9707C36.4325 33.8102 36.5262 33.6387 36.6022 33.4585C36.755 33.098 36.8392 32.701 36.8392 32.2847C36.8392 32.2775 36.8382 32.271 36.8382 32.2637C36.8387 32.2572 36.8377 32.25 36.8377 32.2422ZM33.8248 31.8887C33.199 31.8887 32.6923 31.3817 32.6923 30.7565C32.6923 30.1308 33.1995 29.624 33.8248 29.624C34.4505 29.624 34.957 30.1313 34.957 30.7565C34.9578 31.3817 34.4505 31.8887 33.8248 31.8887Z" fill="black"/>
<path d="M33.8234 31.8878C34.4489 31.8878 34.9559 31.3808 34.9559 30.7553C34.9559 30.13 34.4489 29.623 33.8234 29.623C33.1979 29.623 32.6909 30.13 32.6909 30.7553C32.6909 31.3808 33.1979 31.8878 33.8234 31.8878Z" fill="#F3F7F9"/>
<path d="M31.7476 30.1025L31.7586 30.0997L31.7621 30.0892L33.8383 23.7392C33.8383 23.7392 33.8383 23.3632 33.8383 22.9877C33.8383 22.8819 33.8383 22.7772 33.8383 22.6796C33.8383 22.6471 33.8383 22.6151 33.8383 22.5848C33.8383 22.5373 33.8383 22.4943 33.8383 22.4541C33.8383 22.426 33.8383 22.3984 33.8383 22.3753C33.8383 22.3438 33.8383 22.3179 33.8383 22.2964C33.8383 22.2788 33.8383 22.2633 33.8383 22.2534C33.8383 22.2424 33.8383 22.2363 33.8383 22.2363C32.6821 21.9992 31.4928 21.8691 30.2756 21.8691C29.8694 21.8691 29.4664 21.8862 29.0661 21.9138C29.0076 21.9177 28.9491 21.9215 28.8906 21.9259C26.8062 22.0842 24.7542 22.6278 22.8538 23.495C21.2241 24.2393 19.7097 25.2196 18.3485 26.3815L18.3463 26.3838C17.9808 26.6943 17.6307 27.0223 17.2883 27.358C17.2244 27.4208 17.1593 27.4825 17.0965 27.546C16.7745 27.8708 16.463 28.206 16.162 28.551C16.0964 28.626 16.0324 28.7028 15.9679 28.7788C15.6658 29.1355 15.3714 29.4987 15.0924 29.8747C15.0693 29.9062 15.0472 29.9392 15.0241 29.9707C14.7578 30.333 14.5047 30.7045 14.2605 31.0827C14.2131 31.1565 14.164 31.2295 14.1172 31.3037C13.9198 31.617 13.7356 31.939 13.5537 32.2615H22.9961H23.0126L31.7476 30.1025Z" fill="#BBBCBD"/>
<path d="M39.735 29.3865C39.7542 29.139 39.7702 28.891 39.783 28.6433C39.8 28.3076 39.8115 27.9718 39.8182 27.6361C39.8232 27.3753 39.8225 27.1146 39.8215 26.8538C39.821 26.7783 39.8232 26.7033 39.822 26.6278C39.8147 25.9558 39.789 25.2826 39.7475 24.6094L39.742 24.6056L39.7392 24.6006C39.7392 24.6006 39.7272 24.5934 39.7185 24.5886C39.71 24.5841 39.7035 24.5796 39.688 24.5714C39.5645 24.5004 39.2607 24.3266 38.9885 24.1717C38.983 24.1684 38.9767 24.1651 38.9712 24.1618C38.9025 24.1226 38.8357 24.0851 38.7755 24.051L38.7722 24.0488C38.7205 24.0195 38.677 23.9953 38.6367 23.9727C38.6285 23.9683 38.6175 23.9616 38.6102 23.9578C38.566 23.933 38.5315 23.9142 38.5115 23.9043C38.0765 23.6788 37.6328 23.4699 37.1818 23.2791C36.106 22.8248 34.6573 22.4268 33.8408 22.2344V22.8061V22.9395V22.9858C33.8408 23.3618 33.8408 23.7373 33.8408 23.7373L35.8988 30.0978L35.901 30.1033C36.1133 30.3055 36.2963 30.5388 36.443 30.7953C36.491 30.8795 36.535 30.966 36.5748 31.0548L36.5775 31.0603C36.6173 31.1485 36.652 31.2395 36.6828 31.3323L36.685 31.3388C36.7153 31.4315 36.7418 31.5258 36.7633 31.6223L36.765 31.63C36.7865 31.727 36.8035 31.8262 36.815 31.927L36.8158 31.9315C36.8278 32.0335 36.8345 32.137 36.836 32.2425L36.8438 32.2595H39.364C39.5342 31.3373 39.6527 30.4028 39.7282 29.4643C39.73 29.4383 39.7327 29.4125 39.735 29.3865Z" fill="#E2DDDB"/>
<path d="M36.8577 41.3229C37.4294 40.7539 37.9692 40.2094 38.4839 39.6751C38.7899 39.3581 39.0889 39.0439 39.3744 38.7339C41.4804 36.4477 43.0268 34.308 43.9568 31.5558C43.9791 31.4903 44.0011 31.4043 44.0221 31.3078C44.0253 31.2928 44.0286 31.2785 44.0318 31.263C44.0541 31.1605 44.0748 31.0465 44.0958 30.9175C44.1041 30.8288 44.1128 30.7428 44.1206 30.6595C43.8868 29.4608 43.4331 28.2966 43.0328 27.1458L43.0373 27.1576L43.0258 27.1463C42.9491 27.0736 42.8686 27.0058 42.7908 26.9341C42.5538 26.7158 42.3129 26.5026 42.0676 26.2958C41.3316 25.6749 40.5586 25.1094 39.7471 24.6094C39.7884 25.2824 39.8144 25.9556 39.8214 26.6276C39.8226 26.7031 39.8204 26.7781 39.8209 26.8536C39.8221 27.1146 39.8226 27.3753 39.8176 27.6361C39.8111 27.9718 39.7994 28.3076 39.7824 28.6433C39.7696 28.8913 39.7536 29.1388 39.7344 29.3865C39.7321 29.4123 39.7294 29.4378 39.7279 29.4635C39.6529 30.4025 39.5336 31.3365 39.3634 32.2588L39.0674 33.6585C38.4494 36.1649 37.1934 38.4384 36.1607 40.7859C35.8867 41.4084 35.6272 42.0381 35.3995 42.6791C35.3785 42.7381 35.3565 42.7998 35.335 42.8606C35.6575 42.5216 35.943 42.2288 36.1602 42.0139C36.3972 41.7794 36.6299 41.5496 36.8577 41.3229Z" fill="#FBB040"/>
<path d="M31.7598 30.0898C31.8943 29.9635 32.0405 29.8493 32.1965 29.749C32.1958 29.749 32.197 29.7485 32.1965 29.749C32.3508 29.6498 32.5168 29.5638 32.6888 29.4938C32.6933 29.492 32.6983 29.4905 32.7025 29.4888C32.8717 29.4205 33.0487 29.367 33.2317 29.3305C33.2385 29.3295 33.245 29.329 33.2517 29.3278C33.4357 29.2925 33.6255 29.2728 33.8202 29.2728C34.018 29.2728 34.211 29.293 34.3985 29.3295C34.4035 29.3305 34.4077 29.3305 34.4122 29.3318C34.5992 29.369 34.7795 29.4243 34.952 29.4943C34.9547 29.4953 34.9575 29.4965 34.9607 29.4975C35.311 29.6415 35.628 29.8493 35.8974 30.1063L35.8952 30.1008L33.8372 23.7402L31.7598 30.0898Z" fill="#909393"/>
<path d="M31.029 33.4243C30.9578 33.2505 30.9023 33.0688 30.8643 32.8808L30.8625 32.8685C30.8255 32.68 30.8053 32.4853 30.8053 32.2858C30.8053 32.1793 30.8108 32.0745 30.8218 31.9715C30.8245 31.9473 30.8295 31.924 30.8328 31.8998C30.8433 31.821 30.8538 31.7423 30.8703 31.665C30.8753 31.6423 30.8818 31.6208 30.8873 31.5988C30.9055 31.5205 30.9248 31.4428 30.949 31.3673C30.954 31.3513 30.9605 31.3365 30.966 31.3205C30.9938 31.2393 31.023 31.1588 31.057 31.081C31.061 31.0723 31.066 31.0635 31.0698 31.0548C31.1078 30.9708 31.148 30.8883 31.1933 30.8088L31.1988 30.8001C31.3465 30.5408 31.5313 30.3056 31.7463 30.1016L23.0107 32.2593H22.9941L31.6465 34.3707C31.3873 34.1007 31.1773 33.7825 31.0323 33.4308L31.029 33.4243Z" fill="#676A6A"/>
<path d="M50.6812 31.7862C50.6867 31.747 50.6949 31.7105 50.7017 31.6725C50.7237 31.5485 50.7494 31.4272 50.7832 31.312C50.7869 31.2992 50.7887 31.2845 50.7919 31.2717L51.9317 26.0526V23.0765C51.0004 22.3074 50.003 21.8867 48.9645 21.8867C47.6527 21.8867 46.4295 22.6112 45.5148 23.5059C44.5135 24.4851 43.7408 25.7173 43.1151 26.9606C43.0863 27.0178 43.0571 27.0723 43.0283 27.1303C43.2213 27.2973 43.4121 27.4666 43.6001 27.6386C44.0263 28.0283 44.443 28.428 44.8538 28.8338C45.0455 29.023 45.233 29.216 45.4215 29.4083C45.6218 29.6118 45.822 29.8153 46.0188 30.022C46.2718 30.2883 46.5233 30.5568 46.7718 30.828C46.8765 30.942 46.9808 31.0567 47.0845 31.1715C47.3838 31.5032 47.682 31.8362 47.9752 32.1742C48.0242 32.2262 48.0597 32.263 48.073 32.2785H50.6432C50.6432 32.2575 50.6474 32.2387 50.6474 32.2177C50.6514 32.07 50.6614 31.925 50.6812 31.7862Z" fill="#E2DDDB"/>
<path d="M43.0322 27.146L43.0296 27.1387L43.0254 27.1469L43.0363 27.1576L43.0322 27.146Z" fill="#E2DDDB"/>
<path d="M12.0014 35.5425C12.0086 35.5232 12.0169 35.5045 12.024 35.4852C12.1894 35.0525 12.3708 34.6252 12.5616 34.2022C12.6145 34.0842 12.6696 33.968 12.7242 33.8505C12.8802 33.5188 13.0451 33.1913 13.216 32.8665C13.2854 32.734 13.3533 32.6018 13.4255 32.471C13.4652 32.399 13.5104 32.33 13.5506 32.2578C13.7331 31.9353 13.9167 31.6133 14.1141 31.3C14.1609 31.2258 14.21 31.153 14.2574 31.079C14.5016 30.7015 14.7552 30.3293 15.021 29.9671C15.0441 29.9356 15.0656 29.9026 15.0893 29.8711C15.3683 29.4958 15.6627 29.1318 15.9648 28.7751C16.0293 28.6991 16.0933 28.6223 16.1589 28.5473C16.4599 28.2023 16.7709 27.8671 17.0934 27.5423C17.1568 27.4791 17.2213 27.4173 17.2852 27.3543C17.6276 27.0186 17.9777 26.6911 18.3432 26.3801C18.3438 26.3796 18.3449 26.3786 18.3454 26.3781C19.7827 21.5617 24.1816 18.0559 29.3866 18.0559C31.482 18.0559 33.565 18.6596 35.3507 19.7518C37.1822 20.872 38.6747 22.5133 39.6444 24.4263C39.6494 24.4357 39.6542 24.4456 39.6587 24.455C39.6829 24.5036 39.7104 24.5499 39.7347 24.5989C39.7354 24.6006 39.7364 24.6021 39.7374 24.6039C39.7392 24.6049 39.7414 24.6066 39.7429 24.6076C40.5539 25.1071 41.3274 25.6734 42.0636 26.2941C42.3089 26.5009 42.5499 26.7144 42.7869 26.9326C42.8646 27.0044 42.9451 27.0721 43.0216 27.1449C43.0234 27.1421 43.0244 27.1389 43.0261 27.1361C43.0271 27.1344 43.0284 27.1321 43.0289 27.1306C43.0554 27.0759 43.0814 27.0209 43.1084 26.9679C43.8416 22.3385 45.8836 19.0036 48.2923 19.0036C50.1078 19.0036 51.716 20.8969 52.7127 23.8105L52.7227 23.842C52.7237 23.8431 52.7242 23.8442 52.7255 23.8453C53.0065 24.1512 53.2812 24.4881 53.5469 24.8574C53.5524 24.8646 53.5567 24.8714 53.5622 24.8784C53.5767 24.9209 53.5887 24.9639 53.6025 25.0064L53.5644 24.8546C50.568 15.9841 42.1781 9.59766 32.2965 9.59766C19.9012 9.59766 9.85352 19.6459 9.85352 32.0405C9.85352 34.484 10.2438 36.8364 10.9688 39.0257C10.9699 39.0214 10.971 39.0174 10.9716 39.0132C11.1144 38.3527 11.2847 37.6964 11.4837 37.0469C11.6409 36.5405 11.8134 36.0387 12.0014 35.5425Z" fill="#525353"/>
<path d="M53.9086 32.29L53.1256 33.1655C53.1251 33.1677 53.1246 33.1695 53.1241 33.1717C53.0944 33.2862 53.0579 33.3945 53.0176 33.498C53.0071 33.5255 52.9956 33.551 52.9841 33.5775C52.9526 33.6507 52.9196 33.7207 52.8831 33.787C52.8639 33.8222 52.8446 33.8585 52.8241 33.8917C52.7916 33.944 52.7569 33.991 52.7211 34.0372C52.6699 34.104 52.6156 34.164 52.5589 34.217C52.5359 34.239 52.5131 34.2627 52.4889 34.282C52.4449 34.3172 52.3991 34.3465 52.3529 34.373C52.3351 34.383 52.3174 34.3927 52.2994 34.4017C52.1874 34.4562 52.0694 34.4887 51.9469 34.4887C51.2359 34.4887 50.6592 33.5007 50.6592 32.2818H50.6542H48.0829H48.0752C48.0747 32.2813 48.0757 32.2823 48.0752 32.2818C48.5549 32.8357 49.0284 33.3992 49.4932 33.966C49.4987 33.9727 49.5042 33.98 49.5102 33.9865C49.9622 34.5385 50.4082 35.0957 50.8487 35.6559C50.8702 35.6834 50.8924 35.7104 50.9139 35.7379C51.3316 36.2712 51.7451 36.8074 52.1549 37.3452C52.1946 37.3974 52.2349 37.4492 52.2744 37.5012C52.7079 38.0712 53.1374 38.6429 53.5629 39.2151C53.5656 39.2189 53.5689 39.2234 53.5716 39.2274C54.3098 37.0424 54.7228 34.7087 54.7488 32.2812H54.7433H53.9169L53.9086 32.29Z" fill="#F3F7F9"/>
<path d="M28.8875 21.925C28.946 21.9206 29.0045 21.9167 29.063 21.9128C29.4633 21.8858 29.8663 21.8682 30.2725 21.8682C31.4892 21.8682 32.6785 21.9988 33.8352 22.2354C33.8352 22.2354 33.8352 22.2414 33.8352 22.2525C33.8352 22.2624 33.8352 22.2778 33.8352 22.2955C33.8352 22.317 33.8352 22.344 33.8352 22.3743C33.8352 22.398 33.8352 22.425 33.8352 22.4531C33.8352 22.4928 33.8352 22.5375 33.8352 22.5838C33.8352 22.6141 33.8352 22.6461 33.8352 22.6786C33.8352 22.72 33.8352 22.763 33.8352 22.8071V22.2354C34.6517 22.4278 36.1004 22.8258 37.1761 23.2801C37.6276 23.4709 38.0714 23.6793 38.5059 23.9053C38.5256 23.9158 38.5604 23.9345 38.6046 23.9588C38.6121 23.9632 38.6231 23.9693 38.6309 23.9737C38.6711 23.9963 38.7154 24.0205 38.7666 24.0497C38.7676 24.0503 38.7694 24.0514 38.7699 24.0519C38.8306 24.0861 38.8961 24.1236 38.9656 24.1627C38.9711 24.1661 38.9771 24.1694 38.9826 24.1727C39.2594 24.3298 39.5654 24.5051 39.6823 24.5724C39.6971 24.5811 39.7043 24.5851 39.7126 24.5894C39.7181 24.5929 39.7318 24.6004 39.7336 24.6016C39.7093 24.5531 39.6819 24.5061 39.6576 24.4577C39.6526 24.4483 39.6481 24.4384 39.6431 24.429C38.6739 22.516 37.1809 20.8747 35.3494 19.7544C33.5639 18.6623 31.4805 18.0586 29.3855 18.0586C24.1804 18.0586 19.7815 21.5644 18.3442 26.3806C19.7054 25.2186 21.2193 24.2383 22.8496 23.494C24.7511 22.6262 26.8036 22.0832 28.8875 21.925Z" fill="black"/>
<path d="M45.5186 23.5079C46.4333 22.6131 47.6565 21.8887 48.9683 21.8887C50.0068 21.8887 51.0042 22.3093 51.9355 23.0784C51.9355 23.0784 51.9355 23.085 51.9355 23.0872C52.0187 23.1556 52.1002 23.2328 52.183 23.3078C52.2325 23.353 52.2837 23.3943 52.333 23.4417C52.4635 23.5669 52.5925 23.6992 52.7205 23.8381C52.7232 23.8409 52.7255 23.8442 52.7277 23.847C52.727 23.8459 52.726 23.8448 52.725 23.8442L52.7145 23.8128C51.7177 20.8991 50.1095 19.0059 48.294 19.0059C45.8853 19.0059 43.8431 22.3408 43.1099 26.9703L43.1176 26.9635C43.7446 25.7193 44.5181 24.487 45.5186 23.5079Z" fill="black"/>
<path d="M24.2639 52.9767C24.469 53.0554 24.6774 53.1267 24.8852 53.1994C27.2069 54.0127 29.6998 54.4607 32.2998 54.4607C35.2643 54.4607 38.0915 53.8807 40.6822 52.8367C40.8194 52.7814 40.9534 52.7209 41.0889 52.6629C41.3089 52.5692 41.5272 52.4727 41.7434 52.3724C41.9369 52.2824 42.1304 52.1932 42.3206 52.0985C42.2749 52.104 42.2284 52.1127 42.1826 52.1182C41.3772 52.2087 40.5784 52.2142 39.7972 52.1022C35.1795 51.4385 34.1563 49.2117 34.3028 46.8928C33.9703 46.701 33.6318 46.4855 33.2878 46.2358C29.7363 43.6593 27.6286 40.9144 27.6286 40.9144C27.6286 40.9144 30.3681 43.0293 34.4605 44.6121C34.5483 44.6463 34.6303 44.6756 34.7168 44.7081C34.9083 44.0471 35.1343 43.4186 35.3332 42.8616C35.3547 42.8011 35.3767 42.7393 35.3977 42.6803C35.6255 42.0391 35.885 41.4101 36.159 40.7871C37.1917 38.4397 38.4469 36.166 39.0657 33.6597L39.3617 32.2598H36.8417H36.8362C36.8362 32.2615 36.8362 32.2633 36.8362 32.2648C36.8362 32.2718 36.8362 32.2793 36.8362 32.2863C36.8362 32.7025 36.7517 33.099 36.599 33.46C36.5225 33.6405 36.4292 33.8117 36.3212 33.9722C36.1045 34.2932 35.8277 34.57 35.507 34.7865C35.3465 34.8952 35.175 34.9882 34.9948 35.0645C34.6343 35.2172 34.2373 35.3015 33.821 35.3015C33.715 35.3015 33.611 35.296 33.5078 35.285C33.4835 35.2822 33.4603 35.2772 33.4368 35.274C33.3578 35.264 33.2795 35.253 33.203 35.237C33.1815 35.2325 33.161 35.226 33.1395 35.221C33.0608 35.2027 32.9823 35.1835 32.9063 35.1592C32.8925 35.1547 32.8788 35.1487 32.865 35.1437C32.7828 35.1162 32.7008 35.0865 32.6218 35.0517C32.6148 35.0485 32.608 35.0452 32.6008 35.0417C32.5155 35.0037 32.4315 34.963 32.351 34.9172C32.35 34.9167 32.3483 34.9155 32.3473 34.915C32.0876 34.769 31.8516 34.5852 31.6471 34.3715L22.9948 32.2598H13.5524C13.5116 32.3315 13.467 32.401 13.4273 32.4733C13.355 32.604 13.2872 32.7368 13.2178 32.8685C13.0469 33.1928 12.8815 33.5202 12.726 33.8527C12.6709 33.9695 12.6163 34.0865 12.5634 34.2045C12.3732 34.6272 12.1918 35.0545 12.0258 35.4872C12.0187 35.5065 12.0104 35.5252 12.0032 35.5447C11.8152 36.0407 11.6427 36.5424 11.4878 37.0487C11.2893 37.6979 11.1184 38.3542 10.9756 39.0147C12.4625 43.5486 15.3541 47.4443 19.135 50.1902C19.2448 50.2702 19.3611 50.3412 19.4725 50.419C20.112 50.8662 20.7724 51.2842 21.4583 51.664C22.358 52.1617 23.2936 52.6039 24.2639 52.9767Z" fill="#F3F7F9"/>
<path d="M39.762 46.0045C39.7278 46.2447 39.704 46.4812 39.6975 46.7095C39.6843 47.1247 39.713 47.519 39.7735 47.8915C39.8138 48.1402 39.8678 48.3789 39.9328 48.6072C40.0305 48.9502 40.1528 49.2704 40.29 49.5664C40.4268 49.8624 40.5785 50.1344 40.734 50.3814C40.7857 50.4634 40.8382 50.5429 40.8905 50.6194C40.9692 50.7342 41.0482 50.8422 41.126 50.9437C41.229 51.0787 41.3287 51.1971 41.4252 51.3086C41.8372 51.7821 42.1612 52.0396 42.1612 52.0396C42.1612 52.0396 42.1635 52.0474 42.168 52.0606C42.1722 52.0739 42.179 52.0936 42.1867 52.1174C42.2325 52.1124 42.2787 52.1036 42.3245 52.0976C43.3252 51.9724 44.3334 51.7011 45.3279 51.3434C45.8352 51.1609 46.3402 50.9629 46.8377 50.7364C46.9891 50.6669 47.1374 50.5902 47.2879 50.5174C52.4291 48.0317 56.7337 43.6348 56.7337 43.6348C50.2733 46.8082 43.9602 46.682 39.762 46.0045Z" fill="#9F2255"/>
<path d="M52.1493 37.3449C51.7398 36.8069 51.3268 36.2704 50.9083 35.7377C50.8868 35.7102 50.8648 35.6832 50.8433 35.6557C50.4028 35.0949 49.9569 34.5382 49.5046 33.9862C49.4991 33.9797 49.4936 33.9725 49.4876 33.966C49.0224 33.3992 48.5509 32.8372 48.0714 32.2832C48.0409 32.248 48.0106 32.2127 47.9799 32.1775C47.6864 31.84 47.3881 31.5065 47.0889 31.1745C46.9847 31.06 46.8809 30.9453 46.7762 30.831C46.5277 30.5598 46.2767 30.2913 46.0232 30.025C45.8257 29.8183 45.6262 29.6148 45.4262 29.4115C45.2374 29.2195 45.0494 29.026 44.8582 28.837C44.4464 28.4318 44.0302 28.0315 43.6045 27.6418C43.416 27.4698 43.2252 27.2998 43.0322 27.1328L43.0295 27.1383C43.4352 28.3038 43.898 29.4843 44.1294 30.6993C44.1894 31.0153 44.2397 31.3235 44.2799 31.624C44.8449 35.8309 43.497 38.5776 41.3557 42.1908C41.2025 42.4501 41.0447 42.7131 40.8837 42.9821C40.3943 43.798 40.0805 44.571 39.8993 45.297C39.8385 45.539 39.7928 45.7755 39.7598 46.0065C43.9579 46.6843 50.2711 46.8105 56.7303 43.6366C56.7303 43.6366 55.4638 41.7746 53.5573 39.2154C53.1313 38.6431 52.7018 38.0714 52.2691 37.5014C52.2293 37.4486 52.1891 37.3966 52.1493 37.3449Z" fill="#E2066F"/>
<path d="M42.1577 52.0411C42.1577 52.0411 41.8337 51.7841 41.4217 51.3101C41.3252 51.1986 41.2262 51.0801 41.1225 50.9451C41.0447 50.8436 40.966 50.7357 40.887 50.6209C40.8347 50.5444 40.7822 50.4649 40.7305 50.3827C40.575 50.1364 40.4235 49.8647 40.2867 49.5679C40.15 49.2719 40.0275 48.9517 39.9295 48.6087C39.8642 48.3799 39.8102 48.1412 39.77 47.8929C39.71 47.5205 39.6812 47.1262 39.694 46.711C39.7012 46.4827 39.7242 46.2462 39.7585 46.006C39.7915 45.775 39.8372 45.5377 39.898 45.2962C40.0795 44.5707 40.393 43.7978 40.8827 42.9813L40.8865 42.9748C41.0465 42.7085 41.2025 42.447 41.3545 42.1908C43.4954 38.5776 44.8431 35.8309 44.2787 31.6237C44.2384 31.3232 44.1884 31.0157 44.1282 30.6992C44.0962 30.9175 44.0632 31.1055 44.0294 31.2637C44.0262 31.2792 44.0229 31.2935 44.0197 31.3085C43.9982 31.4042 43.9767 31.4915 43.9547 31.5565C43.0244 34.3087 41.4779 36.4484 39.372 38.7346C39.0865 39.0443 38.7875 39.3586 38.4817 39.6756C37.9668 40.2093 37.427 40.7546 36.8553 41.3235C36.6275 41.55 36.395 41.7805 36.1583 42.015C35.9413 42.23 35.6555 42.5233 35.333 42.8618C35.1341 43.419 34.9076 44.0475 34.7168 44.708C34.6308 44.6755 34.5486 44.6462 34.4603 44.6122C30.3684 43.0293 27.6284 40.9146 27.6284 40.9146C27.6284 40.9146 29.7361 43.6595 33.2876 46.2357C33.6318 46.4855 33.9703 46.7012 34.3026 46.893C34.1561 49.2117 35.1793 51.4386 39.797 52.1024C40.5777 52.2149 41.3772 52.2094 42.1827 52.1184C42.1744 52.0946 42.1682 52.0749 42.1639 52.0616C42.1599 52.0489 42.1577 52.0411 42.1577 52.0411Z" fill="black"/>
</svg>
