<svg width="81" height="81" viewBox="0 0 81 81" fill="none" xmlns="http://www.w3.org/2000/svg">
<rect x="0.59375" y="0.599609" width="80" height="80" rx="40" fill="white"/>
<path d="M64.5943 23.1059C64.5943 19.628 61.755 16.8086 58.2527 16.8086C55.0546 16.8086 52.411 19.1596 51.9754 22.2158L51.9112 22.1822C46.7249 19.8594 42.3563 23.9736 42.3563 23.9736L30.8008 35.5047L35.3666 39.8711L44.6676 30.7971C49.0108 26.484 51.3757 29.4033 51.3757 29.4033C54.6453 32.1461 51.4883 35.3928 51.4883 35.3928L56.1671 39.8711C59.9878 35.7733 60.2093 32.1971 59.0479 29.3523C62.1748 28.9635 64.5943 26.3162 64.5943 23.1059Z" fill="#F9AE41"/>
<path d="M59.1035 52.0682C59.1252 52.028 59.1374 52.0047 59.1374 52.0047C61.4767 46.8544 57.3334 42.5163 57.3334 42.5163L45.721 31.041L41.3242 35.5754L50.462 44.8112C54.8051 49.1243 51.8654 51.4729 51.8654 51.4729C49.1035 54.7196 45.834 51.5847 45.834 51.5847L41.3242 56.2306C45.4506 60.0246 49.0521 60.2446 51.9168 59.0914C52.3083 62.1964 54.9744 64.5992 58.2072 64.5992C61.7095 64.5992 64.5486 61.7798 64.5486 58.3018C64.5486 55.1261 62.1812 52.5009 59.1035 52.0682Z" fill="#EE4035"/>
<path d="M45.8216 41.3262L36.5208 50.3999C32.1774 54.7132 29.8125 51.7941 29.8125 51.7941C26.5429 49.0511 29.6997 45.8046 29.6997 45.8046L25.0213 41.3262C21.2006 45.4237 20.9789 48.9999 22.1401 51.8448C19.0132 52.2337 16.5938 54.8808 16.5938 58.0913C16.5938 61.5692 19.433 64.3884 22.9355 64.3884C26.1335 64.3886 28.7773 62.0378 29.2128 58.9815C29.2535 59.003 29.2769 59.015 29.2769 59.015C34.4634 61.3384 38.8318 57.2236 38.8318 57.2236L50.3876 45.6923L45.8216 41.3262Z" fill="#4F91CD"/>
<path d="M30.7235 36.3875C26.3802 32.0744 29.3195 29.7259 29.3195 29.7259C32.0819 26.4792 35.3514 29.6141 35.3514 29.6141L39.861 24.9683C35.7347 21.1743 32.1334 20.9543 29.2685 22.1074C28.8771 19.0022 26.2113 16.5996 22.9779 16.5996C19.4761 16.5996 16.6371 19.419 16.6367 22.8969C16.6367 26.0728 19.0041 28.698 22.082 29.1305C22.0603 29.1709 22.0483 29.1945 22.0483 29.1945C19.7086 34.3443 23.8521 38.6822 23.8521 38.6822L35.4646 50.1575L39.8615 45.6235L30.7235 36.3875Z" fill="#7AC043"/>
</svg>
