<svg width="81" height="81" viewBox="0 0 81 81" fill="none" xmlns="http://www.w3.org/2000/svg">
<rect x="0.926758" y="0.599609" width="80" height="80" rx="40" fill="white"/>
<g clip-path="url(#clip0_4543_23806)">
<g clip-path="url(#clip1_4543_23806)">
<g clip-path="url(#clip2_4543_23806)">
<mask id="mask0_4543_23806" style="mask-type:luminance" maskUnits="userSpaceOnUse" x="16" y="17" width="48" height="48">
<path d="M63.9526 17.0898H16.9307V64.1103H63.9526V17.0898Z" fill="white"/>
</mask>
<g mask="url(#mask0_4543_23806)">
<path d="M20.272 40.5987C20.272 48.5818 24.9113 55.4808 31.6388 58.7502L22.0181 32.3906C20.899 34.899 20.272 37.6747 20.272 40.5987Z" fill="#00749A"/>
<path d="M54.0564 39.5816C54.0564 37.0891 53.1611 35.3629 52.3931 34.0193C51.3708 32.358 50.4126 30.9511 50.4126 29.2898C50.4126 27.4358 51.8187 25.71 53.7993 25.71C53.8887 25.71 53.9735 25.7211 54.0607 25.7261C50.4724 22.4387 45.6918 20.4316 40.4411 20.4316C33.3951 20.4316 27.1962 24.0467 23.5898 29.5223C24.063 29.5365 24.509 29.5465 24.8877 29.5465C26.9973 29.5465 30.2628 29.2905 30.2628 29.2905C31.35 29.2265 31.4781 30.8233 30.3922 30.9518C30.3922 30.9518 29.2995 31.0805 28.0838 31.1441L35.4283 52.9901L39.842 39.7529L36.6998 31.1433C35.6137 31.0797 34.5848 30.9511 34.5848 30.9511C33.498 30.8874 33.6254 29.2257 34.7122 29.2898C34.7122 29.2898 38.0429 29.5457 40.0247 29.5457C42.1339 29.5457 45.3997 29.2898 45.3997 29.2898C46.4877 29.2257 46.6156 30.8225 45.5291 30.9511C45.5291 30.9511 44.4342 31.0797 43.2207 31.1433L50.5093 52.824L52.521 46.1015C53.3929 43.3119 54.0564 41.3083 54.0564 39.5816Z" fill="#00749A"/>
<path d="M40.7954 42.3633L34.7441 59.9471C36.5509 60.4783 38.4617 60.7688 40.4415 60.7688C42.7902 60.7688 45.0425 60.3628 47.139 59.6255C47.0849 59.5392 47.0359 59.4475 46.9955 59.3477L40.7954 42.3633Z" fill="#00749A"/>
<path d="M58.1384 30.9238C58.2251 31.5662 58.2743 32.2559 58.2743 32.9977C58.2743 35.0444 57.892 37.3451 56.7407 40.2217L50.5801 58.0335C56.5761 54.5371 60.609 48.041 60.609 40.6005C60.6094 37.0941 59.7138 33.7967 58.1384 30.9238Z" fill="#00749A"/>
<path d="M40.4411 17.0898C27.4777 17.0898 16.9307 27.6361 16.9307 40.5995C16.9307 53.5643 27.4777 64.1103 40.4411 64.1103C53.404 64.1103 63.9526 53.5643 63.9526 40.5995C63.9522 27.6361 53.404 17.0898 40.4411 17.0898ZM40.4411 63.0326C28.0722 63.0326 18.0087 52.9691 18.0087 40.5995C18.0087 28.2306 28.0718 18.1678 40.4411 18.1678C52.8095 18.1678 62.8723 28.2306 62.8723 40.5995C62.8723 52.9691 52.8095 63.0326 40.4411 63.0326Z" fill="#00749A"/>
</g>
</g>
</g>
</g>
<defs>
<clipPath id="clip0_4543_23806">
<rect width="48" height="48" fill="white" transform="translate(16.9268 16.5996)"/>
</clipPath>
<clipPath id="clip1_4543_23806">
<rect width="48" height="48" fill="white" transform="translate(16.9268 16.5996)"/>
</clipPath>
<clipPath id="clip2_4543_23806">
<rect width="48" height="47.0204" fill="white" transform="translate(16.9268 17.0898)"/>
</clipPath>
</defs>
</svg>
