<svg width="80" height="80" viewBox="0 0 80 80" fill="none" xmlns="http://www.w3.org/2000/svg">
<rect width="80" height="80" rx="40" fill="white"/>
<path d="M28.7438 57.1039C29.2548 56.8764 29.7725 56.6674 30.2952 56.4711C30.8851 56.2494 31.4799 56.0411 32.0825 55.8591C32.8329 55.6331 33.5894 55.4284 34.3561 55.2659C35.3898 55.0464 36.4358 54.8839 37.4898 54.7814C36.8988 56.6399 36.2456 58.4878 35.5376 60.3235C35.5678 60.6793 35.5846 61.037 35.5938 61.3953C37.0191 61.1143 38.4915 60.9638 39.9995 60.9638C41.5072 60.9638 42.9797 61.1143 44.4049 61.3953C44.4144 61.0365 44.4304 60.6788 44.4612 60.3235C43.7532 58.4878 43.1 56.6399 42.509 54.7814C43.5632 54.8839 44.6089 55.0459 45.6427 55.2659C46.4089 55.4284 47.1659 55.6331 47.9164 55.8591C48.5194 56.0404 49.1139 56.2494 49.7036 56.4711C50.2263 56.6674 50.7446 56.8769 51.2556 57.1039C54.8815 58.7188 58.1872 61.1135 60.8982 64.222C67.6931 58.3538 72 49.6827 72 39.9999C72 22.327 57.673 8 40 8C22.327 8 8 22.327 8 39.9999C8 49.6827 12.3063 58.3543 19.1018 64.222C21.8121 61.1135 25.1178 58.7181 28.7438 57.1039Z" fill="#A0DBE8"/>
<path d="M30.8516 62.8934C32.354 62.2291 33.94 61.7214 35.5925 61.3954C35.583 61.0367 35.567 60.6787 35.5362 60.3237C36.244 58.4879 36.8974 56.6397 37.4884 54.7812C36.4342 54.884 35.3885 55.046 34.3547 55.266C33.5882 55.4285 32.8315 55.6332 32.0811 55.8592C31.4785 56.0405 30.8836 56.249 30.2937 56.4712L32.6263 57.0362L30.8516 62.8934Z" fill="#525353"/>
<path d="M25.3592 66.3443C25.4177 65.7478 25.4535 65.1463 25.4535 64.5389C25.4535 64.1734 25.7501 63.8766 26.1156 63.8766H26.6973L28.7492 57.1055C25.1233 58.7202 21.8176 61.1152 19.1062 64.2234C20.6008 65.5141 22.2145 66.6681 23.9313 67.6675C24.3884 67.2061 24.8647 66.7646 25.3592 66.3443Z" fill="#525353"/>
<path d="M51.2562 57.1035L53.3084 63.8747H53.8894C54.2554 63.8747 54.5514 64.1712 54.5514 64.5369C54.5514 65.1449 54.5874 65.7464 54.6459 66.3424C55.1409 66.7624 55.6167 67.2046 56.0736 67.6648C57.7906 66.6654 59.4041 65.5114 60.8988 64.2209C58.1881 61.1132 54.8824 58.7182 51.2562 57.1035Z" fill="#525353"/>
<path d="M47.3721 57.0362L49.704 56.471C49.1143 56.2495 48.5193 56.041 47.9168 55.8592C47.1663 55.633 46.4101 55.4285 45.6431 55.266C44.6094 55.0465 43.5636 54.8837 42.5094 54.7812C43.1004 56.6397 43.7539 58.4877 44.4616 60.3237C44.4314 60.6792 44.4149 61.0371 44.4054 61.3954C46.0583 61.7211 47.6443 62.2291 49.1468 62.8934L47.3721 57.0362Z" fill="#525353"/>
<path d="M39.9998 63.8743H44.509C44.4165 63.0436 44.3835 62.2156 44.4055 61.3946C42.9802 61.1134 41.5078 60.9629 39.9998 60.9629C38.4921 60.9629 37.0201 61.1134 35.5943 61.3946C35.6158 62.2156 35.5826 63.0436 35.4906 63.8743H39.9998Z" fill="black"/>
<path d="M23.925 67.6643C24.2972 67.881 24.6721 68.092 25.0531 68.294C25.1865 67.6528 25.2885 67.0015 25.353 66.3418C24.8584 66.7618 24.3821 67.2033 23.925 67.6643Z" fill="black"/>
<path d="M30.5563 63.8762H35.491C35.5838 63.0455 35.6168 62.2175 35.5948 61.3965C33.9423 61.7222 32.3557 62.23 30.854 62.8945L30.5563 63.8762Z" fill="black"/>
<path d="M54.6438 66.3418C54.7083 67.0015 54.8103 67.6528 54.9438 68.294C55.3248 68.092 55.7 67.881 56.0718 67.6643C55.6148 67.2033 55.1388 66.7618 54.6438 66.3418Z" fill="black"/>
<path d="M49.4453 63.8757L49.1478 62.8945C47.6453 62.23 46.0591 61.7222 44.4063 61.3965C44.3848 62.2175 44.4178 63.0455 44.5101 63.8762L49.4453 63.8757Z" fill="black"/>
<path d="M30.5568 63.8753L30.8545 62.8933L32.6298 57.0357L30.2971 56.4707C29.7745 56.667 29.2562 56.8764 28.7457 57.1034L26.6937 63.8748H28.8968L30.5568 63.8753Z" fill="#AA9678"/>
<path d="M49.1435 62.8934L49.4412 63.8748H51.1012H53.3049L51.253 57.1034C50.7417 56.8759 50.2235 56.667 49.701 56.4707L47.3688 57.0357L49.1435 62.8934Z" fill="#AA9678"/>
<path d="M26.7562 65.2436C26.7758 65.2293 26.796 65.2152 26.8161 65.2012H26.7589C26.7584 65.2152 26.7568 65.2288 26.7562 65.2436Z" fill="#C0B098"/>
<path d="M39.9985 65.1973H35.29H30.153H26.8192C26.7988 65.2115 26.7784 65.226 26.7585 65.2403C26.7144 66.4907 26.5468 67.7167 26.275 68.9097C30.4342 70.8874 35.086 71.9977 39.9985 71.9977V65.1973Z" fill="#C0B098"/>
<path d="M53.2383 65.1973H53.1813C53.2013 65.2113 53.2215 65.2257 53.241 65.2397C53.24 65.2257 53.2383 65.2118 53.2383 65.1973Z" fill="#AA9678"/>
<path d="M53.1785 65.1973H49.8453H44.7077H40V71.9977C44.9122 71.9977 49.5641 70.8879 53.7233 68.9097C53.4515 67.7167 53.2845 66.4912 53.2398 65.2403C53.2193 65.226 53.199 65.212 53.1785 65.1973Z" fill="#AA9678"/>
<path d="M54.647 66.3427C54.5885 65.746 54.5527 65.1445 54.5527 64.537C54.5527 64.1715 54.256 63.875 53.8905 63.875H53.3095H51.1058H49.4458H44.5111H40.002H35.492H30.5573H28.8973H26.6942H26.1126C25.7465 63.875 25.4505 64.1715 25.4505 64.537C25.4505 65.1452 25.4146 65.7467 25.3562 66.3427C25.2917 67.0025 25.1897 67.6537 25.0563 68.2947C25.4593 68.5082 25.8656 68.7154 26.278 68.9117C26.5498 67.7187 26.7168 66.4932 26.7615 65.2422C26.762 65.2277 26.7637 65.2135 26.7642 65.1992H26.8221H30.1559H35.293H40.0012H44.7089H49.8468H53.18H53.2378C53.2385 65.2135 53.24 65.2277 53.2405 65.2422C53.2848 66.4925 53.4522 67.7187 53.724 68.9117C54.137 68.7154 54.5432 68.5082 54.9457 68.2947C54.8135 67.6529 54.7115 67.0025 54.647 66.3427Z" fill="#8B7460"/>
<path d="M61.3043 32.8789C61.2988 32.8716 61.2933 32.8651 61.2883 32.8579C61.0225 32.4885 60.7485 32.1516 60.4673 31.8457C60.4645 31.8429 60.4623 31.8396 60.4603 31.8368C60.3323 31.6985 60.2033 31.5656 60.0725 31.4404C60.023 31.393 59.9723 31.3517 59.9225 31.3065C59.8405 31.232 59.7583 31.1549 59.675 31.0859V34.0631L60.8148 39.2823C60.8268 39.323 60.8423 39.3605 60.8528 39.403L61.6423 40.288L61.65 40.279H62.4763C62.4775 40.2025 62.4818 40.127 62.4818 40.0503C62.4818 37.5886 62.0773 35.2218 61.3445 33.0061C61.3308 32.9644 61.3185 32.9214 61.3043 32.8789Z" fill="#BBBCBD"/>
<path d="M60.9302 39.7928C60.9312 39.801 60.9334 39.8088 60.9347 39.8178C60.9352 39.8225 60.9367 39.8275 60.9374 39.8325C60.9374 39.8315 60.9374 39.833 60.9374 39.8325C60.9522 39.955 60.9582 40.0845 60.9609 40.2135C60.9617 40.2373 60.9654 40.2593 60.9654 40.283C60.9654 40.2858 60.9659 40.2885 60.9659 40.2918C60.9659 40.295 60.9654 40.2978 60.9654 40.3013C60.9654 40.3265 60.9617 40.3503 60.9609 40.3755C60.9582 40.5018 60.9527 40.627 60.9379 40.7473C60.9379 40.7468 60.9379 40.7478 60.9379 40.7473C60.9374 40.7535 60.9357 40.7605 60.9347 40.767C60.9334 40.777 60.9307 40.7858 60.9292 40.7953C60.9114 40.9258 60.8882 41.0533 60.8575 41.174C60.858 41.1735 60.8575 41.1745 60.8575 41.174L60.8612 41.1705C60.8619 41.1685 60.8624 41.1668 60.8629 41.1645L61.6457 40.289L60.8562 39.4043C60.8555 39.4038 60.8562 39.4048 60.8562 39.4043C60.8875 39.5278 60.912 39.6588 60.9302 39.7928Z" fill="#676A6A"/>
<path d="M60.9283 40.7961C60.9306 40.7796 60.9348 40.7646 60.9371 40.7481C60.9521 40.6279 60.9576 40.5029 60.9603 40.3767C60.9608 40.3479 60.9653 40.3214 60.9653 40.2929C60.9653 40.2657 60.9613 40.2409 60.9608 40.2144C60.9581 40.0854 60.9521 39.9582 60.9371 39.8357C60.9356 39.8214 60.9316 39.8082 60.9293 39.7939C60.9113 39.6604 60.8876 39.5309 60.8561 39.4074C60.8451 39.3644 60.8296 39.3264 60.8171 39.2844C60.7413 39.0342 60.6378 38.8124 60.5153 38.6289C60.4988 38.6047 60.4823 38.5804 60.4653 38.5577C60.4316 38.5127 60.3981 38.4684 60.3621 38.4294C60.3091 38.3719 60.2546 38.3192 60.1968 38.2754C60.1746 38.2589 60.1516 38.2474 60.1288 38.2324C60.0793 38.2004 60.0281 38.1724 59.9751 38.1509C59.9526 38.1414 59.9298 38.1327 59.9068 38.1257C59.8323 38.1024 59.7564 38.0859 59.6774 38.0859C59.5986 38.0859 59.5231 38.1024 59.4481 38.1257C59.4249 38.1327 59.4024 38.1414 59.3796 38.1509C59.3269 38.1724 59.2761 38.2004 59.2259 38.2324C59.2039 38.2474 59.1801 38.2584 59.1586 38.2754C59.1006 38.3192 59.0461 38.3719 58.9931 38.4294C58.9574 38.4684 58.9239 38.5127 58.8901 38.5577C58.8731 38.5809 58.8559 38.6052 58.8394 38.6294C58.7171 38.8137 58.6134 39.0347 58.5379 39.2849C58.5346 39.2949 58.5311 39.3049 58.5284 39.3147C58.4954 39.4294 58.4689 39.5507 58.4469 39.6754C58.4404 39.7134 58.4314 39.7497 58.4264 39.7889C58.4066 39.9279 58.3961 40.0729 58.3939 40.2212C58.3934 40.2414 58.3906 40.2614 58.3906 40.2817H58.3956C58.3956 41.5006 58.9724 42.4886 59.6834 42.4886C59.8059 42.4886 59.9239 42.4566 60.0358 42.4016C60.0538 42.3929 60.0716 42.3834 60.0893 42.3729C60.1361 42.3464 60.1813 42.3166 60.2253 42.2819C60.2496 42.2626 60.2723 42.2389 60.2953 42.2169C60.3521 42.1639 60.4063 42.1039 60.4576 42.0371C60.4928 41.9909 60.5281 41.9439 60.5606 41.8916C60.5816 41.8586 60.6003 41.8221 60.6196 41.7869C60.6553 41.7206 60.6896 41.6511 60.7206 41.5774C60.7316 41.5509 60.7436 41.5256 60.7541 41.4979C60.7933 41.3954 60.8281 41.2879 60.8566 41.1744C60.8876 41.0541 60.9106 40.9269 60.9283 40.7961ZM59.7236 39.9984C59.4569 39.9984 59.2409 39.6279 59.2409 39.1709C59.2409 38.7139 59.4569 38.3434 59.7236 38.3434C59.9906 38.3434 60.2066 38.7139 60.2066 39.1709C60.2066 39.6279 59.9906 39.9984 59.7236 39.9984Z" fill="black"/>
<path d="M59.7233 39.9987C59.9901 39.9987 60.2063 39.6282 60.2063 39.1712C60.2063 38.7142 59.9901 38.3438 59.7233 38.3438C59.4566 38.3438 59.2406 38.7142 59.2406 39.1712C59.2406 39.6282 59.4566 39.9987 59.7233 39.9987Z" fill="#F3F7F9"/>
<path d="M58.5344 39.2839C58.6099 39.0329 58.7137 38.8119 58.8359 38.6284C58.8524 38.6034 58.8697 38.5799 58.8867 38.5566C58.9197 38.5114 58.9539 38.4679 58.9897 38.4281C59.0427 38.3704 59.0979 38.3184 59.1552 38.2744C59.1772 38.2579 59.2004 38.2461 59.2224 38.2314C59.2722 38.1989 59.3234 38.1711 59.3762 38.1496C59.3989 38.1404 59.4214 38.1316 59.4447 38.1244C59.5192 38.1011 59.5952 38.0846 59.6739 38.0846C59.7529 38.0846 59.8289 38.1006 59.9034 38.1244C59.9264 38.1316 59.9492 38.1404 59.9717 38.1496C60.0242 38.1711 60.0754 38.1989 60.1254 38.2314C60.1481 38.2461 60.1712 38.2579 60.1934 38.2744C60.2511 38.3184 60.3059 38.3704 60.3586 38.4281C60.3946 38.4674 60.4286 38.5114 60.4619 38.5566C60.4789 38.5799 60.4954 38.6034 60.5119 38.6276C60.6344 38.8119 60.7374 39.0329 60.8136 39.2834L59.6739 34.0645L58.5344 39.2839Z" fill="#909393"/>
<path d="M44.5782 40.2422C44.5765 40.1375 44.57 40.0337 44.5577 39.9312C44.5577 39.9297 44.5572 39.9285 44.5572 39.927C44.545 39.8265 44.5285 39.7272 44.507 39.6297C44.5065 39.627 44.506 39.6247 44.5055 39.622C44.484 39.5255 44.458 39.4312 44.427 39.3387C44.4265 39.3365 44.4255 39.3342 44.425 39.332C44.394 39.2395 44.3587 39.1485 44.3195 39.0603C44.319 39.0585 44.318 39.0563 44.3167 39.0548C44.2772 38.966 44.233 38.8788 44.185 38.795C44.0385 38.5388 43.8555 38.3055 43.6432 38.103C43.3735 37.8463 43.056 37.6383 42.7065 37.4945C42.7037 37.4933 42.701 37.4923 42.6975 37.4913C42.525 37.4205 42.3447 37.366 42.1577 37.3285C42.1535 37.3275 42.1485 37.3275 42.144 37.3263C41.9572 37.29 41.7637 37.2695 41.5658 37.2695C41.3713 37.2695 41.1815 37.2893 40.9973 37.3248C40.9908 37.3258 40.984 37.3263 40.9775 37.3275C40.7945 37.3638 40.6175 37.4173 40.4483 37.4858C40.4438 37.4873 40.4388 37.489 40.4345 37.4905C40.2625 37.5605 40.0983 37.646 39.9438 37.7453C39.9445 37.7453 39.9433 37.7458 39.9438 37.7453C39.7878 37.8458 39.64 37.9603 39.5055 38.0865L39.5023 38.097L39.491 38.0998C39.276 38.3038 39.0915 38.5393 38.9438 38.7983C38.942 38.8018 38.9398 38.8045 38.9383 38.8073C38.893 38.8865 38.8528 38.9693 38.8148 39.053C38.8108 39.0618 38.8058 39.0708 38.802 39.0795C38.7678 39.1573 38.7385 39.2377 38.711 39.3187C38.7055 39.3347 38.6988 39.3497 38.694 39.3657C38.6698 39.4412 38.6503 39.519 38.6323 39.5972C38.6273 39.6192 38.62 39.6407 38.615 39.6632C38.599 39.7405 38.588 39.8187 38.5775 39.8982C38.5748 39.9225 38.5693 39.9457 38.5665 39.97C38.5555 40.073 38.55 40.1782 38.55 40.2842C38.55 40.4837 38.5705 40.6782 38.6073 40.867C38.608 40.8707 38.6085 40.8745 38.609 40.879C38.647 41.067 38.7023 41.249 38.7738 41.4227C38.775 41.4247 38.7755 41.4275 38.7765 41.4297C38.9215 41.7815 39.1318 42.0997 39.3908 42.3697C39.596 42.5832 39.8318 42.7667 40.091 42.9134C40.092 42.9139 40.0938 42.9149 40.0948 42.9154C40.1758 42.9607 40.2598 43.0022 40.3445 43.0402C40.3518 43.0434 40.3583 43.0474 40.3655 43.0502C40.4443 43.0847 40.526 43.1139 40.6088 43.1422C40.6225 43.1472 40.6363 43.1527 40.65 43.1577C40.726 43.1819 40.8045 43.2012 40.8833 43.2194C40.9048 43.2242 40.925 43.2309 40.9465 43.2354C41.0233 43.2512 41.1015 43.2617 41.1805 43.2722C41.204 43.2757 41.2278 43.2804 41.2515 43.2832C41.3545 43.2937 41.4588 43.2999 41.5648 43.2999C41.981 43.2999 42.3772 43.2154 42.7385 43.0627C42.9187 42.9867 43.0902 42.8929 43.2505 42.7849C43.5715 42.5682 43.8482 42.2915 44.065 41.9707C44.173 41.8102 44.2667 41.6387 44.3427 41.4585C44.4955 41.098 44.5797 40.701 44.5797 40.2847C44.5797 40.2775 44.5787 40.271 44.5787 40.2637C44.5792 40.2572 44.5782 40.25 44.5782 40.2422ZM41.5653 39.8887C40.9395 39.8887 40.4328 39.3817 40.4328 38.7565C40.4328 38.1308 40.94 37.624 41.5653 37.624C42.191 37.624 42.6975 38.1313 42.6975 38.7565C42.6982 39.3817 42.191 39.8887 41.5653 39.8887Z" fill="black"/>
<path d="M41.5638 39.8878C42.1892 39.8878 42.6962 39.3808 42.6962 38.7553C42.6962 38.13 42.1892 37.623 41.5638 37.623C40.9383 37.623 40.4313 38.13 40.4313 38.7553C40.4313 39.3808 40.9383 39.8878 41.5638 39.8878Z" fill="#F3F7F9"/>
<path d="M39.4876 38.1025L39.4986 38.0997L39.5021 38.0892L41.5783 31.7392C41.5783 31.7392 41.5783 31.3632 41.5783 30.9877C41.5783 30.8819 41.5783 30.7772 41.5783 30.6796C41.5783 30.6471 41.5783 30.6151 41.5783 30.5848C41.5783 30.5373 41.5783 30.4943 41.5783 30.4541C41.5783 30.426 41.5783 30.3984 41.5783 30.3753C41.5783 30.3438 41.5783 30.3179 41.5783 30.2964C41.5783 30.2788 41.5783 30.2633 41.5783 30.2534C41.5783 30.2424 41.5783 30.2363 41.5783 30.2363C40.422 29.9992 39.2328 29.8691 38.0156 29.8691C37.6093 29.8691 37.2063 29.8862 36.8061 29.9138C36.7476 29.9177 36.6891 29.9215 36.6306 29.9259C34.5461 30.0842 32.4942 30.6278 30.5938 31.495C28.9641 32.2393 27.4497 33.2196 26.0885 34.3815L26.0863 34.3838C25.7208 34.6943 25.3707 35.0223 25.0283 35.358C24.9643 35.4208 24.8993 35.4825 24.8364 35.546C24.5145 35.8708 24.203 36.206 23.902 36.551C23.8364 36.626 23.7724 36.7028 23.7079 36.7788C23.4058 37.1355 23.1114 37.4987 22.8324 37.8747C22.8093 37.9062 22.7872 37.9392 22.7641 37.9707C22.4978 38.333 22.2447 38.7045 22.0005 39.0827C21.9531 39.1565 21.904 39.2295 21.8571 39.3037C21.6598 39.617 21.4756 39.939 21.2937 40.2615H30.7361H30.7526L39.4876 38.1025Z" fill="#BBBCBD"/>
<path d="M47.4755 37.3865C47.4947 37.139 47.5107 36.891 47.5235 36.6433C47.5405 36.3076 47.552 35.9718 47.5587 35.6361C47.5637 35.3753 47.563 35.1146 47.562 34.8538C47.5615 34.7783 47.5637 34.7033 47.5625 34.6278C47.5552 33.9558 47.5295 33.2826 47.488 32.6094L47.4825 32.6056L47.4797 32.6006C47.4797 32.6006 47.4677 32.5934 47.459 32.5886C47.4505 32.5841 47.444 32.5796 47.4285 32.5714C47.305 32.5004 47.0012 32.3266 46.729 32.1717C46.7235 32.1684 46.7172 32.1651 46.7117 32.1618C46.643 32.1226 46.5762 32.0851 46.516 32.051L46.5127 32.0488C46.461 32.0195 46.4175 31.9953 46.3772 31.9727C46.369 31.9683 46.358 31.9616 46.3507 31.9578C46.3065 31.933 46.272 31.9142 46.252 31.9043C45.817 31.6788 45.3732 31.4699 44.9222 31.2791C43.8465 30.8248 42.3978 30.4268 41.5813 30.2344V30.8061V30.9395V30.9858C41.5813 31.3618 41.5813 31.7373 41.5813 31.7373L43.6393 38.0978L43.6415 38.1033C43.8538 38.3055 44.0368 38.5388 44.1835 38.7953C44.2315 38.8795 44.2755 38.966 44.3153 39.0548L44.318 39.0603C44.3578 39.1485 44.3925 39.2395 44.4233 39.3323L44.4255 39.3388C44.4558 39.4315 44.4823 39.5258 44.5038 39.6223L44.5055 39.63C44.527 39.727 44.544 39.8262 44.5555 39.927L44.5563 39.9315C44.5683 40.0335 44.575 40.137 44.5765 40.2425L44.5843 40.2595H47.1045C47.2747 39.3373 47.3932 38.4028 47.4687 37.4643C47.4705 37.4383 47.4732 37.4125 47.4755 37.3865Z" fill="#E2DDDB"/>
<path d="M44.5977 49.3229C45.1694 48.7539 45.7092 48.2094 46.2239 47.6751C46.5299 47.3581 46.8289 47.0439 47.1144 46.7339C49.2204 44.4477 50.7668 42.308 51.6968 39.5558C51.7191 39.4903 51.7411 39.4043 51.7621 39.3078C51.7653 39.2928 51.7686 39.2785 51.7718 39.263C51.7941 39.1605 51.8148 39.0465 51.8358 38.9175C51.8441 38.8288 51.8528 38.7428 51.8606 38.6595C51.6268 37.4608 51.1731 36.2966 50.7728 35.1458L50.7773 35.1576L50.7658 35.1463C50.6891 35.0736 50.6086 35.0058 50.5308 34.9341C50.2938 34.7158 50.0528 34.5026 49.8076 34.2958C49.0716 33.6749 48.2986 33.1094 47.4871 32.6094C47.5284 33.2824 47.5544 33.9556 47.5614 34.6276C47.5626 34.7031 47.5604 34.7781 47.5609 34.8536C47.5621 35.1146 47.5626 35.3753 47.5576 35.6361C47.5511 35.9718 47.5394 36.3076 47.5224 36.6433C47.5096 36.8913 47.4936 37.1388 47.4744 37.3865C47.4721 37.4123 47.4694 37.4378 47.4679 37.4635C47.3929 38.4025 47.2736 39.3365 47.1034 40.2588L46.8074 41.6585C46.1894 44.1649 44.9334 46.4384 43.9007 48.7859C43.6267 49.4084 43.3672 50.0381 43.1394 50.6791C43.1184 50.7381 43.0965 50.7998 43.075 50.8606C43.3974 50.5216 43.6829 50.2288 43.9002 50.0139C44.1372 49.7794 44.3699 49.5496 44.5977 49.3229Z" fill="#FBB040"/>
<path d="M39.5 38.0898C39.6345 37.9635 39.7807 37.8493 39.9367 37.749C39.936 37.749 39.9372 37.7485 39.9367 37.749C40.091 37.6498 40.257 37.5638 40.429 37.4938C40.4335 37.492 40.4385 37.4905 40.4427 37.4888C40.612 37.4205 40.789 37.367 40.972 37.3305C40.9787 37.3295 40.9852 37.329 40.992 37.3278C41.176 37.2925 41.3657 37.2728 41.5605 37.2728C41.7582 37.2728 41.9512 37.293 42.1387 37.3295C42.1437 37.3305 42.148 37.3305 42.1525 37.3318C42.3395 37.369 42.5197 37.4243 42.6922 37.4943C42.6949 37.4953 42.6977 37.4965 42.7009 37.4975C43.0512 37.6415 43.3682 37.8493 43.6377 38.1063L43.6354 38.1008L41.5775 31.7402L39.5 38.0898Z" fill="#909393"/>
<path d="M38.7693 41.4243C38.698 41.2505 38.6425 41.0688 38.6045 40.8808L38.6028 40.8685C38.5658 40.68 38.5455 40.4853 38.5455 40.2858C38.5455 40.1793 38.551 40.0745 38.562 39.9715C38.5648 39.9473 38.5698 39.924 38.573 39.8998C38.5835 39.821 38.594 39.7423 38.6105 39.665C38.6155 39.6423 38.622 39.6208 38.6275 39.5988C38.6458 39.5205 38.665 39.4428 38.6893 39.3673C38.6943 39.3513 38.7008 39.3365 38.7063 39.3205C38.734 39.2393 38.7633 39.1588 38.7973 39.081C38.8013 39.0723 38.8063 39.0635 38.81 39.0548C38.848 38.9708 38.8883 38.8883 38.9335 38.8088L38.939 38.8001C39.0868 38.5408 39.2715 38.3056 39.4865 38.1016L30.7509 40.2593H30.7344L39.3868 42.3707C39.1275 42.1007 38.9175 41.7825 38.7725 41.4308L38.7693 41.4243Z" fill="#676A6A"/>
<path d="M58.4217 39.7862C58.4272 39.747 58.4354 39.7105 58.4422 39.6725C58.4642 39.5485 58.4899 39.4272 58.5237 39.312C58.5274 39.2992 58.5292 39.2845 58.5324 39.2717L59.6722 34.0526V31.0765C58.7409 30.3074 57.7434 29.8867 56.705 29.8867C55.3932 29.8867 54.17 30.6112 53.2553 31.5059C52.254 32.4851 51.4813 33.7173 50.8555 34.9606C50.8268 35.0178 50.7975 35.0723 50.7688 35.1303C50.9618 35.2973 51.1525 35.4666 51.3405 35.6386C51.7668 36.0283 52.1835 36.428 52.5943 36.8338C52.786 37.023 52.9735 37.216 53.162 37.4083C53.3623 37.6118 53.5625 37.8153 53.7593 38.022C54.0122 38.2883 54.2637 38.5568 54.5122 38.828C54.617 38.942 54.7212 39.0567 54.825 39.1715C55.1242 39.5032 55.4225 39.8362 55.7157 40.1742C55.7647 40.2262 55.8002 40.263 55.8135 40.2785H58.3837C58.3837 40.2575 58.3879 40.2387 58.3879 40.2177C58.3919 40.07 58.4019 39.925 58.4217 39.7862Z" fill="#E2DDDB"/>
<path d="M50.7725 35.146L50.7699 35.1387L50.7656 35.1469L50.7765 35.1576L50.7725 35.146Z" fill="#E2DDDB"/>
<path d="M19.7417 43.5425C19.7488 43.5232 19.7571 43.5045 19.7643 43.4852C19.9297 43.0525 20.111 42.6252 20.3018 42.2022C20.3547 42.0842 20.4099 41.968 20.4644 41.8505C20.6205 41.5188 20.7853 41.1913 20.9562 40.8665C21.0257 40.734 21.0935 40.6018 21.1657 40.471C21.2054 40.399 21.2506 40.33 21.2909 40.2578C21.4733 39.9353 21.6569 39.6133 21.8543 39.3C21.9012 39.2258 21.9502 39.153 21.9977 39.079C22.2419 38.7015 22.4955 38.3293 22.7612 37.9671C22.7844 37.9356 22.8059 37.9026 22.8296 37.8711C23.1085 37.4958 23.403 37.1318 23.7051 36.7751C23.7696 36.6991 23.8335 36.6223 23.8991 36.5473C24.2001 36.2023 24.5111 35.8671 24.8336 35.5423C24.897 35.4791 24.9615 35.4173 25.0255 35.3543C25.3678 35.0186 25.7179 34.6911 26.0834 34.3801C26.084 34.3796 26.0851 34.3786 26.0856 34.3781C27.5229 29.5617 31.9218 26.0559 37.1268 26.0559C39.2223 26.0559 41.3052 26.6596 43.091 27.7518C44.9224 28.872 46.4149 30.5133 47.3847 32.4263C47.3897 32.4357 47.3944 32.4456 47.3989 32.455C47.4232 32.5036 47.4507 32.5499 47.4749 32.5989C47.4757 32.6006 47.4767 32.6021 47.4777 32.6039C47.4794 32.6049 47.4817 32.6066 47.4832 32.6076C48.2941 33.1071 49.0676 33.6734 49.8039 34.2941C50.0491 34.5009 50.2901 34.7144 50.5271 34.9326C50.6049 35.0044 50.6853 35.0721 50.7618 35.1449C50.7636 35.1421 50.7646 35.1389 50.7663 35.1361C50.7673 35.1344 50.7686 35.1321 50.7691 35.1306C50.7956 35.0759 50.8216 35.0209 50.8486 34.9679C51.5818 30.3385 53.6238 27.0036 56.0325 27.0036C57.848 27.0036 59.4562 28.8969 60.453 31.8105L60.4629 31.842C60.4639 31.8431 60.4645 31.8442 60.4657 31.8453C60.7467 32.1512 61.0214 32.4881 61.2872 32.8574C61.2927 32.8646 61.2969 32.8714 61.3024 32.8784C61.3169 32.9209 61.3289 32.9639 61.3427 33.0064L61.3047 32.8546C58.3082 23.9841 49.9184 17.5977 40.0368 17.5977C27.6414 17.5977 17.5938 27.6459 17.5938 40.0405C17.5938 42.484 17.9841 44.8364 18.7091 47.0257C18.7102 47.0214 18.7113 47.0174 18.7118 47.0132C18.8546 46.3527 19.025 45.6964 19.224 45.0469C19.3811 44.5405 19.5537 44.0387 19.7417 43.5425Z" fill="#525353"/>
<path d="M61.6491 40.29L60.8661 41.1655C60.8656 41.1677 60.8651 41.1695 60.8646 41.1717C60.8348 41.2862 60.7983 41.3945 60.7581 41.498C60.7476 41.5255 60.7361 41.551 60.7246 41.5775C60.6931 41.6507 60.6601 41.7207 60.6236 41.787C60.6043 41.8222 60.5851 41.8585 60.5646 41.8917C60.5321 41.944 60.4974 41.991 60.4616 42.0372C60.4104 42.104 60.3561 42.164 60.2994 42.217C60.2764 42.239 60.2536 42.2627 60.2294 42.282C60.1854 42.3172 60.1396 42.3465 60.0934 42.373C60.0756 42.383 60.0579 42.3927 60.0399 42.4017C59.9279 42.4562 59.8099 42.4887 59.6874 42.4887C58.9764 42.4887 58.3996 41.5007 58.3996 40.2818H58.3946H55.8234H55.8157C55.8152 40.2813 55.8162 40.2823 55.8157 40.2818C56.2954 40.8357 56.7689 41.3992 57.2337 41.966C57.2392 41.9727 57.2446 41.98 57.2506 41.9865C57.7026 42.5385 58.1486 43.0957 58.5891 43.6559C58.6106 43.6834 58.6329 43.7104 58.6544 43.7379C59.0721 44.2712 59.4856 44.8074 59.8954 45.3452C59.9351 45.3974 59.9754 45.4492 60.0149 45.5012C60.4483 46.0712 60.8778 46.6429 61.3033 47.2151C61.3061 47.2189 61.3093 47.2234 61.3121 47.2274C62.0503 45.0424 62.4633 42.7087 62.4893 40.2812H62.4838H61.6573L61.6491 40.29Z" fill="#F3F7F9"/>
<path d="M36.6276 29.925C36.6861 29.9206 36.7446 29.9167 36.8031 29.9128C37.2034 29.8858 37.6064 29.8682 38.0126 29.8682C39.2293 29.8682 40.4186 29.9988 41.5753 30.2354C41.5753 30.2354 41.5753 30.2414 41.5753 30.2525C41.5753 30.2624 41.5753 30.2778 41.5753 30.2955C41.5753 30.317 41.5753 30.344 41.5753 30.3743C41.5753 30.398 41.5753 30.425 41.5753 30.4531C41.5753 30.4928 41.5753 30.5375 41.5753 30.5838C41.5753 30.6141 41.5753 30.6461 41.5753 30.6786C41.5753 30.72 41.5753 30.763 41.5753 30.8071V30.2354C42.3918 30.4278 43.8405 30.8258 44.9163 31.2801C45.3677 31.4709 45.8115 31.6793 46.246 31.9053C46.2657 31.9158 46.3005 31.9345 46.3447 31.9588C46.3522 31.9632 46.3632 31.9693 46.371 31.9737C46.4112 31.9963 46.4555 32.0205 46.5067 32.0497C46.5077 32.0503 46.5095 32.0514 46.51 32.0519C46.5707 32.0861 46.6362 32.1236 46.7057 32.1627C46.7112 32.1661 46.7172 32.1694 46.7227 32.1727C46.9995 32.3298 47.3055 32.5051 47.4225 32.5724C47.4372 32.5811 47.4445 32.5851 47.4527 32.5894C47.4582 32.5929 47.472 32.6004 47.4737 32.6016C47.4495 32.5531 47.422 32.5061 47.3977 32.4577C47.3927 32.4483 47.3882 32.4384 47.3832 32.429C46.414 30.516 44.921 28.8747 43.0895 27.7544C41.3041 26.6623 39.2206 26.0586 37.1256 26.0586C31.9206 26.0586 27.5216 29.5644 26.0844 34.3806C27.4456 33.2186 28.9595 32.2383 30.5897 31.494C32.4912 30.6262 34.5437 30.0832 36.6276 29.925Z" fill="black"/>
<path d="M53.2587 31.5079C54.1734 30.6131 55.3967 29.8887 56.7084 29.8887C57.7469 29.8887 58.7444 30.3093 59.6756 31.0784C59.6756 31.0784 59.6756 31.085 59.6756 31.0872C59.7588 31.1556 59.8403 31.2328 59.9231 31.3078C59.9726 31.353 60.0238 31.3943 60.0731 31.4417C60.2036 31.5669 60.3326 31.6992 60.4606 31.8381C60.4633 31.8409 60.4656 31.8442 60.4678 31.847C60.4671 31.8459 60.4661 31.8448 60.4651 31.8442L60.4546 31.8128C59.4578 28.8991 57.8496 27.0059 56.0341 27.0059C53.6254 27.0059 51.5832 30.3408 50.85 34.9703L50.8577 34.9635C51.4847 33.7193 52.2582 32.487 53.2587 31.5079Z" fill="black"/>
<path d="M32.0039 60.9767C32.209 61.0554 32.4174 61.1267 32.6252 61.1994C34.9469 62.0127 37.4398 62.4607 40.0398 62.4607C43.0042 62.4607 45.8314 61.8807 48.4222 60.8367C48.5594 60.7814 48.6934 60.7209 48.8289 60.6629C49.0489 60.5692 49.2671 60.4727 49.4834 60.3724C49.6769 60.2824 49.8704 60.1932 50.0606 60.0985C50.0149 60.104 49.9684 60.1127 49.9226 60.1182C49.1171 60.2087 48.3184 60.2142 47.5372 60.1022C42.9195 59.4385 41.8963 57.2117 42.0428 54.8928C41.7103 54.701 41.3718 54.4855 41.0278 54.2358C37.4763 51.6593 35.3686 48.9144 35.3686 48.9144C35.3686 48.9144 38.1081 51.0293 42.2005 52.6121C42.2883 52.6463 42.3703 52.6756 42.4568 52.7081C42.6482 52.0471 42.8742 51.4186 43.0732 50.8616C43.0947 50.8011 43.1167 50.7393 43.1377 50.6803C43.3655 50.0391 43.625 49.4101 43.899 48.7871C44.9317 46.4397 46.1869 44.166 46.8057 41.6597L47.1017 40.2598H44.5817H44.5762C44.5762 40.2615 44.5762 40.2633 44.5762 40.2648C44.5762 40.2718 44.5762 40.2793 44.5762 40.2863C44.5762 40.7025 44.4917 41.099 44.339 41.46C44.2625 41.6405 44.1692 41.8117 44.0612 41.9722C43.8445 42.2932 43.5677 42.57 43.247 42.7865C43.0865 42.8952 42.915 42.9882 42.7347 43.0645C42.3743 43.2172 41.9773 43.3015 41.561 43.3015C41.455 43.3015 41.351 43.296 41.2478 43.285C41.2235 43.2822 41.2003 43.2772 41.1768 43.274C41.0978 43.264 41.0195 43.253 40.943 43.237C40.9215 43.2325 40.901 43.226 40.8795 43.221C40.8008 43.2027 40.7223 43.1835 40.6463 43.1592C40.6325 43.1547 40.6188 43.1487 40.605 43.1437C40.5228 43.1162 40.4408 43.0865 40.3618 43.0517C40.3548 43.0485 40.348 43.0452 40.3408 43.0417C40.2555 43.0037 40.1715 42.963 40.091 42.9172C40.09 42.9167 40.0883 42.9155 40.0873 42.915C39.8275 42.769 39.5915 42.5852 39.3871 42.3715L30.7348 40.2598H21.2924C21.2516 40.3315 21.207 40.401 21.1673 40.4733C21.095 40.604 21.0272 40.7368 20.9578 40.8685C20.7869 41.1928 20.6215 41.5202 20.466 41.8527C20.4109 41.9695 20.3563 42.0865 20.3034 42.2045C20.1132 42.6272 19.9318 43.0545 19.7658 43.4872C19.7587 43.5065 19.7504 43.5252 19.7432 43.5447C19.5552 44.0407 19.3827 44.5424 19.2277 45.0487C19.0293 45.6979 18.8583 46.3542 18.7156 47.0147C20.2025 51.5486 23.0941 55.4443 26.875 58.1902C26.9847 58.2702 27.1011 58.3412 27.2124 58.419C27.852 58.8662 28.5124 59.2842 29.1983 59.664C30.098 60.1617 31.0336 60.6039 32.0039 60.9767Z" fill="#F3F7F9"/>
<path d="M47.502 54.0045C47.4678 54.2447 47.444 54.4812 47.4375 54.7095C47.4243 55.1247 47.453 55.519 47.5135 55.8915C47.5538 56.1402 47.6077 56.3789 47.6727 56.6072C47.7705 56.9502 47.8927 57.2704 48.03 57.5664C48.1667 57.8624 48.3185 58.1344 48.474 58.3814C48.5257 58.4634 48.5782 58.5429 48.6305 58.6194C48.7092 58.7342 48.7882 58.8422 48.866 58.9437C48.969 59.0787 49.0687 59.1971 49.1652 59.3086C49.5772 59.7821 49.9012 60.0396 49.9012 60.0396C49.9012 60.0396 49.9035 60.0474 49.908 60.0606C49.9122 60.0739 49.919 60.0936 49.9267 60.1174C49.9725 60.1124 50.0187 60.1036 50.0645 60.0976C51.0652 59.9724 52.0734 59.7011 53.0679 59.3434C53.5752 59.1609 54.0801 58.9629 54.5776 58.7364C54.7291 58.6669 54.8774 58.5902 55.0279 58.5174C60.1691 56.0317 64.4737 51.6348 64.4737 51.6348C58.0133 54.8082 51.7002 54.682 47.502 54.0045Z" fill="#9F2255"/>
<path d="M59.8896 45.3449C59.4801 44.8069 59.0671 44.2704 58.6486 43.7377C58.6271 43.7102 58.6051 43.6832 58.5836 43.6557C58.1431 43.0949 57.6971 42.5382 57.2448 41.9862C57.2393 41.9797 57.2338 41.9725 57.2278 41.966C56.7626 41.3992 56.2911 40.8372 55.8116 40.2832C55.7811 40.248 55.7509 40.2127 55.7201 40.1775C55.4266 39.84 55.1284 39.5065 54.8291 39.1745C54.7249 39.06 54.6211 38.9453 54.5164 38.831C54.2679 38.5598 54.0169 38.2913 53.7634 38.025C53.5659 37.8183 53.3664 37.6148 53.1664 37.4115C52.9777 37.2195 52.7897 37.026 52.5984 36.837C52.1867 36.4318 51.7704 36.0315 51.3447 35.6418C51.1562 35.4698 50.9654 35.2998 50.7724 35.1328L50.7697 35.1383C51.1754 36.3038 51.6382 37.4843 51.8697 38.6993C51.9297 39.0153 51.9799 39.3235 52.0202 39.624C52.5852 43.8309 51.2372 46.5776 49.096 50.1908C48.9427 50.4501 48.785 50.7131 48.624 50.9821C48.1345 51.798 47.8207 52.571 47.6395 53.297C47.5788 53.539 47.533 53.7755 47.5 54.0065C51.6982 54.6843 58.0113 54.8105 64.4705 51.6366C64.4705 51.6366 63.204 49.7746 61.2975 47.2154C60.8715 46.6431 60.442 46.0714 60.0093 45.5014C59.9696 45.4486 59.9293 45.3966 59.8896 45.3449Z" fill="#E2066F"/>
<path d="M49.898 60.0411C49.898 60.0411 49.574 59.7841 49.1621 59.3101C49.0656 59.1986 48.9666 59.0801 48.8628 58.9451C48.7851 58.8436 48.7063 58.7357 48.6273 58.6209C48.5751 58.5444 48.5226 58.4649 48.4708 58.3827C48.3153 58.1364 48.1638 57.8647 48.0271 57.5679C47.8903 57.2719 47.7678 56.9517 47.6698 56.6087C47.6046 56.3799 47.5506 56.1412 47.5103 55.8929C47.4503 55.5205 47.4216 55.1262 47.4343 54.711C47.4416 54.4827 47.4646 54.2462 47.4988 54.006C47.5318 53.775 47.5776 53.5377 47.6383 53.2962C47.8198 52.5707 48.1333 51.7978 48.6231 50.9813L48.6268 50.9748C48.7868 50.7085 48.9428 50.447 49.0948 50.1908C51.2358 46.5776 52.5835 43.8309 52.019 39.6237C51.9788 39.3232 51.9288 39.0157 51.8685 38.6992C51.8365 38.9175 51.8035 39.1055 51.7698 39.2637C51.7665 39.2792 51.7633 39.2935 51.76 39.3085C51.7385 39.4042 51.717 39.4915 51.695 39.5565C50.7648 42.3087 49.2183 44.4484 47.1123 46.7346C46.8268 47.0443 46.5278 47.3586 46.2221 47.6756C45.7071 48.2093 45.1674 48.7546 44.5956 49.3235C44.3679 49.55 44.1354 49.7805 43.8986 50.015C43.6816 50.23 43.3959 50.5233 43.0734 50.8618C42.8744 51.419 42.6479 52.0475 42.4572 52.708C42.3712 52.6755 42.2889 52.6462 42.2007 52.6122C38.1087 51.0293 35.3688 48.9146 35.3688 48.9146C35.3688 48.9146 37.4765 51.6595 41.0279 54.2357C41.3722 54.4855 41.7107 54.7012 42.0429 54.893C41.8964 57.2117 42.9197 59.4386 47.5373 60.1024C48.3181 60.2149 49.1176 60.2094 49.923 60.1184C49.9148 60.0946 49.9085 60.0749 49.9043 60.0616C49.9003 60.0489 49.898 60.0411 49.898 60.0411Z" fill="black"/>
</svg>
