<svg width="81" height="81" viewBox="0 0 81 81" fill="none" xmlns="http://www.w3.org/2000/svg">
<rect x="0.926758" y="0.599609" width="80" height="80" rx="40" fill="white"/>
<g clip-path="url(#clip0_1_7107)">
<g clip-path="url(#clip1_1_7107)">
<g clip-path="url(#clip2_1_7107)">
<path d="M63.9472 33.9219C63.9293 31.9812 60.272 31.1003 50.806 31.1003C28.5931 31.1003 22.9575 30.1699 16.9268 23.9473C19.4643 27.6837 20.852 34.6917 44.3299 34.343C68.8258 33.973 53.8818 40.5364 49.5334 47.9519C57.3749 41.0891 63.9238 36.5658 63.9472 33.95V33.9219ZM32.7338 53.8497C32.7327 55.6536 31.2188 57.1377 29.379 57.1382C27.5213 57.1382 26.0176 55.6647 26.0176 53.8497V53.8472C26.0176 52.0403 27.5337 50.5534 29.378 50.5534C31.2301 50.5534 32.7338 52.0273 32.7338 53.8497ZM48.0307 53.8497C48.0296 55.6536 46.5157 57.1377 44.6759 57.1382C42.8193 57.1382 41.3156 55.6647 41.3156 53.8497V53.8472C41.3156 52.0403 42.8316 50.5534 44.6748 50.5534C46.5269 50.5534 48.0307 52.0273 48.0307 53.8497Z" fill="#39C4EE"/>
</g>
</g>
</g>
<defs>
<clipPath id="clip0_1_7107">
<rect width="48" height="48" fill="white" transform="translate(16.9268 16.5996)"/>
</clipPath>
<clipPath id="clip1_1_7107">
<rect width="48" height="48" fill="white" transform="translate(16.9268 16.5996)"/>
</clipPath>
<clipPath id="clip2_1_7107">
<rect width="48" height="47.0204" fill="white" transform="translate(16.9268 17.0898)"/>
</clipPath>
</defs>
</svg>
