<svg width="81" height="81" viewBox="0 0 81 81" fill="none" xmlns="http://www.w3.org/2000/svg">
<rect x="0.59375" y="0.599609" width="80" height="80" rx="40" fill="white"/>
<g clip-path="url(#clip0_1_7120)">
<g clip-path="url(#clip1_1_7120)">
<g clip-path="url(#clip2_1_7120)">
<path d="M47.1344 27.1056C43.7939 23.7983 40.6067 20.6456 39.6581 17.0898C38.7096 20.6456 35.5219 23.7983 32.1819 27.1056C27.172 32.065 21.4917 37.6856 21.4917 46.1155C21.4917 48.4786 21.9616 50.8186 22.8746 53.0018C23.7875 55.185 25.1257 57.1688 26.8126 58.8398C28.4996 60.5106 30.5024 61.8361 32.7065 62.7405C34.9106 63.6448 37.2729 64.1103 39.6587 64.1103C42.0444 64.1103 44.4068 63.6448 46.6109 62.7405C48.815 61.8361 50.8177 60.5106 52.5047 58.8398C54.1916 57.1688 55.5298 55.185 56.4427 53.0018C57.3557 50.8186 57.8256 48.4786 57.8256 46.1155C57.8256 37.6862 52.1459 32.065 47.1344 27.1056ZM29.2132 50.3086C28.0993 50.2712 23.9883 43.2524 31.6149 35.7792L36.6618 41.2397C36.7051 41.2821 36.7388 41.3331 36.7609 41.3893C36.7828 41.4456 36.7925 41.5058 36.7894 41.566C36.7862 41.6263 36.7702 41.6851 36.7424 41.7388C36.7146 41.7925 36.6757 41.8397 36.6281 41.8773C35.4237 43.1008 30.2907 48.1994 29.6527 49.9624C29.521 50.3263 29.3287 50.3125 29.2132 50.3086ZM39.6587 59.5592C38.8382 59.5592 38.0257 59.3991 37.2676 59.0881C36.5096 58.7771 35.8208 58.3212 35.2406 57.7464C34.6604 57.1718 34.2001 56.4895 33.8862 55.7387C33.5722 54.9878 33.4106 54.183 33.4106 53.3703C33.4337 51.8697 33.9844 50.424 34.9679 49.2824C36.0946 47.9178 39.6578 44.0799 39.6578 44.0799C39.6578 44.0799 43.1666 47.9741 44.3394 49.2693C45.361 50.3942 45.9202 51.8573 45.9068 53.3703C45.9068 55.0117 45.2485 56.5858 44.0768 57.7464C42.905 58.9071 41.3158 59.5592 39.6587 59.5592ZM51.6176 49.5231C51.4829 49.8148 51.1773 50.3017 50.765 50.3166C50.0301 50.3432 49.9516 49.9701 49.4084 49.1738C48.2158 47.4257 37.8082 36.6516 35.8614 34.5679C34.1492 32.7352 35.6204 31.4431 36.3027 30.766C37.1589 29.9165 39.658 27.4426 39.658 27.4426C39.658 27.4426 47.1098 34.4458 50.214 39.2309C53.3181 44.016 52.2483 48.1566 51.6176 49.5231Z" fill="#009CDE"/>
</g>
</g>
</g>
<defs>
<clipPath id="clip0_1_7120">
<rect width="48" height="48" fill="white" transform="translate(16.5938 16.5996)"/>
</clipPath>
<clipPath id="clip1_1_7120">
<rect width="48" height="48" fill="white" transform="translate(16.5938 16.5996)"/>
</clipPath>
<clipPath id="clip2_1_7120">
<rect width="48" height="47.0204" fill="white" transform="translate(16.5938 17.0898)"/>
</clipPath>
</defs>
</svg>
