<svg width="81" height="81" viewBox="0 0 81 81" fill="none" xmlns="http://www.w3.org/2000/svg">
<rect x="0.260254" y="0.599609" width="80" height="80" rx="40" fill="white"/>
<g clip-path="url(#clip0_2_26227)">
<g clip-path="url(#clip1_2_26227)">
<path d="M40.2603 62.5996C52.4106 62.5996 62.2603 52.7499 62.2603 40.5996C62.2603 28.4493 52.4106 18.5996 40.2603 18.5996C28.11 18.5996 18.2603 28.4493 18.2603 40.5996C18.2603 52.7499 28.11 62.5996 40.2603 62.5996Z" fill="url(#paint0_linear_2_26227)"/>
<path d="M40.2598 61.3779C51.7351 61.3779 61.0376 52.0754 61.0376 40.6001C61.0376 29.1248 51.7351 19.8223 40.2598 19.8223C28.7845 19.8223 19.4819 29.1248 19.4819 40.6001C19.4819 52.0754 28.7845 61.3779 40.2598 61.3779Z" fill="url(#paint1_linear_2_26227)"/>
<g filter="url(#filter0_d_2_26227)">
<path d="M43.9327 25.8496C44.315 25.452 44.7078 25.4442 44.711 26.088C44.7084 26.5339 44.7153 27.9196 44.7147 28.4708C45.7059 28.8929 46.6378 29.4411 47.4865 30.1019C47.6071 30.1968 47.6855 30.3349 47.7046 30.4865C47.7236 30.6384 47.682 30.7914 47.5885 30.9128L45.0714 34.1899C44.8666 34.4602 44.4584 34.5616 44.1863 34.2911C43.1655 33.4129 42.1446 32.9733 40.8516 32.9733C39.0144 32.9733 37.9593 33.649 37.9593 34.9667V35.068C37.9593 36.5208 39.2522 37.0613 42.655 37.7032C47.1805 38.5477 49.4266 40.7101 49.4266 44.4602V44.5954C49.4266 49.2916 45.6151 52.2648 40.0348 52.2648C37.1428 52.2648 34.0463 51.0823 31.9366 49.4943C31.8736 49.4458 31.821 49.3852 31.7817 49.3163C31.7424 49.2475 31.7174 49.1715 31.7078 49.0929C31.6984 49.0143 31.7047 48.9349 31.7265 48.8587C31.7481 48.7827 31.785 48.7116 31.8345 48.6497L34.3865 45.3048C34.491 45.1968 34.6316 45.1304 34.7819 45.1178C34.9324 45.1054 35.0821 45.1478 35.2031 45.2372C36.428 46.2846 38.3679 47.0954 40.0352 47.0954C42.7915 47.0954 43.7783 46.0482 43.7783 44.8319V44.6968C43.7783 42.9399 42.145 42.602 38.946 41.8923C36.5303 41.3518 32.413 40.6761 32.413 35.1354V35.0001C32.413 33.1813 33.0638 31.6775 34.0378 30.4217C34.9573 29.2364 37.1642 27.0329 38.6848 25.5923C39.1762 25.0961 39.4978 25.3556 39.5058 25.8286C39.5009 26.3016 39.5052 27.3959 39.5043 27.8078C39.9376 27.7605 41.9671 27.7972 41.9671 27.7972C41.9671 27.7972 43.5407 26.2301 43.9327 25.8496ZM36.0872 53.0289C36.8417 53.2805 37.6176 53.464 38.4052 53.5776C38.8661 53.6402 39.0028 53.8834 38.6201 54.1918C37.9332 54.6483 36.9483 55.3074 36.3728 55.7635C36.056 55.9629 35.891 55.8485 35.8703 55.5024C35.8134 54.8553 35.7246 54.06 35.6706 53.4464C35.6407 53.0468 35.7399 52.9079 36.0872 53.0289ZM42.6444 53.4927C43.621 53.3829 44.5815 53.1611 45.5065 52.8311C45.789 52.7226 46.0259 52.9195 45.7849 53.2485C45.1848 53.9263 44.2229 55.0122 43.6617 55.6459C43.3509 56.0175 43.1231 55.898 42.986 55.6026L42.3487 54.0778C42.1918 53.7185 42.2317 53.5876 42.6444 53.4927Z" fill="black"/>
</g>
<path d="M43.9327 25.8496C44.315 25.452 44.7078 25.4442 44.711 26.088C44.7084 26.5339 44.7153 27.9196 44.7147 28.4708C45.7059 28.8929 46.6378 29.4411 47.4865 30.1019C47.6071 30.1968 47.6855 30.3349 47.7046 30.4865C47.7236 30.6384 47.682 30.7914 47.5885 30.9128L45.0714 34.1899C44.8666 34.4602 44.4584 34.5616 44.1863 34.2911C43.1655 33.4129 42.1446 32.9733 40.8516 32.9733C39.0144 32.9733 37.9593 33.649 37.9593 34.9667V35.068C37.9593 36.5208 39.2522 37.0613 42.655 37.7032C47.1805 38.5477 49.4266 40.7101 49.4266 44.4602V44.5954C49.4266 49.2916 45.6151 52.2648 40.0348 52.2648C37.1428 52.2648 34.0463 51.0823 31.9366 49.4943C31.8736 49.4458 31.821 49.3852 31.7817 49.3163C31.7424 49.2475 31.7174 49.1715 31.7078 49.0929C31.6984 49.0143 31.7047 48.9349 31.7265 48.8587C31.7481 48.7827 31.785 48.7116 31.8345 48.6497L34.3865 45.3048C34.491 45.1968 34.6316 45.1304 34.7819 45.1178C34.9324 45.1054 35.0821 45.1478 35.2031 45.2372C36.428 46.2846 38.3679 47.0954 40.0352 47.0954C42.7915 47.0954 43.7783 46.0482 43.7783 44.8319V44.6968C43.7783 42.9399 42.145 42.602 38.946 41.8923C36.5303 41.3518 32.413 40.6761 32.413 35.1354V35.0001C32.413 33.1813 33.0638 31.6775 34.0378 30.4217C34.9573 29.2364 37.1642 27.0329 38.6848 25.5923C39.1762 25.0961 39.4978 25.3556 39.5058 25.8286C39.5009 26.3016 39.5052 27.3959 39.5043 27.8078C39.9376 27.7605 41.9671 27.7972 41.9671 27.7972C41.9671 27.7972 43.5407 26.2301 43.9327 25.8496ZM36.0872 53.0289C36.8417 53.2805 37.6176 53.464 38.4052 53.5776C38.8661 53.6402 39.0028 53.8834 38.6201 54.1918C37.9332 54.6483 36.9483 55.3074 36.3728 55.7635C36.056 55.9629 35.891 55.8485 35.8703 55.5024C35.8134 54.8553 35.7246 54.06 35.6706 53.4464C35.6407 53.0468 35.7399 52.9079 36.0872 53.0289ZM42.6444 53.4927C43.621 53.3829 44.5815 53.1611 45.5065 52.8311C45.789 52.7226 46.0259 52.9195 45.7849 53.2485C45.1848 53.9263 44.2229 55.0122 43.6617 55.6459C43.3509 56.0175 43.1231 55.898 42.986 55.6026L42.3487 54.0778C42.1918 53.7185 42.2317 53.5876 42.6444 53.4927Z" fill="white"/>
</g>
</g>
<defs>
<filter id="filter0_d_2_26227" x="23.7036" y="17.3242" width="33.7231" height="46.5547" filterUnits="userSpaceOnUse" color-interpolation-filters="sRGB">
<feFlood flood-opacity="0" result="BackgroundImageFix"/>
<feColorMatrix in="SourceAlpha" type="matrix" values="0 0 0 0 0 0 0 0 0 0 0 0 0 0 0 0 0 0 127 0" result="hardAlpha"/>
<feOffset/>
<feGaussianBlur stdDeviation="4"/>
<feColorMatrix type="matrix" values="0 0 0 0 0 0 0 0 0 0 0 0 0 0 0 0 0 0 0.2 0"/>
<feBlend mode="normal" in2="BackgroundImageFix" result="effect1_dropShadow_2_26227"/>
<feBlend mode="normal" in="SourceGraphic" in2="effect1_dropShadow_2_26227" result="shape"/>
</filter>
<linearGradient id="paint0_linear_2_26227" x1="40.2603" y1="18.5996" x2="40.2603" y2="62.5996" gradientUnits="userSpaceOnUse">
<stop stop-color="#7EF2C2"/>
<stop offset="1" stop-color="#00A035"/>
</linearGradient>
<linearGradient id="paint1_linear_2_26227" x1="40.2598" y1="19.8223" x2="40.2598" y2="61.3779" gradientUnits="userSpaceOnUse">
<stop stop-color="#0BED8F"/>
<stop offset="1" stop-color="#00BA3F"/>
</linearGradient>
<clipPath id="clip0_2_26227">
<rect width="48" height="48" fill="white" transform="translate(16.2603 16.5996)"/>
</clipPath>
<clipPath id="clip1_2_26227">
<rect width="48" height="48" fill="white" transform="translate(16.2603 16.5996)"/>
</clipPath>
</defs>
</svg>
