<svg width="33" height="31" viewBox="0 0 33 31" fill="none" xmlns="http://www.w3.org/2000/svg">
<path d="M7.43782 4.10034C5.78324 10.2209 1.47582 13.5668 0.678319 16.5166C-0.119181 19.4664 -0.0980987 26.1187 13.4704 29.7872C27.0389 33.4557 31.2831 25.6613 32.1594 22.4163C36.267 7.22526 10.3684 -6.74016 7.43782 4.10034Z" fill="#F5F8FB"/>
<path d="M28.875 17.3333H29.7917V19.1666H28.875V17.3333Z" fill="#A4AFC1"/>
<path d="M28.875 12.0625H29.7917V13.8958H28.875V12.0625Z" fill="#A4AFC1"/>
<path d="M31.1666 15.2708H33V16.1875H31.1666V15.2708Z" fill="#A4AFC1"/>
<path d="M3.8042 29.5442C3.04612 29.5442 2.4292 28.9273 2.4292 28.1692C2.4292 27.4112 3.04612 26.7943 3.8042 26.7943C4.56228 26.7943 5.1792 27.4112 5.1792 28.1692C5.1792 28.9273 4.56228 29.5442 3.8042 29.5442ZM3.8042 27.7109C3.5512 27.7109 3.34587 27.9172 3.34587 28.1692C3.34587 28.4213 3.5512 28.6276 3.8042 28.6276C4.0572 28.6276 4.26253 28.4213 4.26253 28.1692C4.26253 27.9172 4.0572 27.7109 3.8042 27.7109Z" fill="#A4AFC1"/>
<path d="M24.2917 8.39583C25.1776 8.39583 25.8958 7.67762 25.8958 6.79167C25.8958 5.90571 25.1776 5.1875 24.2917 5.1875C23.4057 5.1875 22.6875 5.90571 22.6875 6.79167C22.6875 7.67762 23.4057 8.39583 24.2917 8.39583Z" fill="#F3F3F1"/>
<path d="M18.5625 9.3125H7.10417C6.59817 9.3125 6.1875 8.90183 6.1875 8.39583V6.10417C6.1875 5.59817 6.59817 5.1875 7.10417 5.1875H18.5625C19.0685 5.1875 19.4792 5.59817 19.4792 6.10417V8.39583C19.4792 8.90183 19.0685 9.3125 18.5625 9.3125Z" fill="#F3F3F1"/>
<path d="M25.8958 25.8125H7.10417C6.59817 25.8125 6.1875 25.4018 6.1875 24.8958V22.6042C6.1875 22.0982 6.59817 21.6875 7.10417 21.6875H25.8958C26.4018 21.6875 26.8125 22.0982 26.8125 22.6042V24.8958C26.8125 25.4018 26.4018 25.8125 25.8958 25.8125Z" fill="#FEB46D"/>
<path d="M25.8958 17.5625H20.8542C20.3482 17.5625 19.9375 17.1518 19.9375 16.6458V14.3542C19.9375 13.8482 20.3482 13.4375 20.8542 13.4375H25.8958C26.4018 13.4375 26.8125 13.8482 26.8125 14.3542V16.6458C26.8125 17.1518 26.4018 17.5625 25.8958 17.5625Z" fill="#FEB46D"/>
<path d="M8.25 8.39583V6.10417C8.25 5.59817 8.66067 5.1875 9.16667 5.1875H7.10417C6.59817 5.1875 6.1875 5.59817 6.1875 6.10417V8.39583C6.1875 8.90183 6.59817 9.3125 7.10417 9.3125H9.16667C8.66067 9.3125 8.25 8.90183 8.25 8.39583Z" fill="#D5DBE1"/>
<path d="M8.25 24.8958V22.6042C8.25 22.0982 8.66067 21.6875 9.16667 21.6875H7.10417C6.59817 21.6875 6.1875 22.0982 6.1875 22.6042V24.8958C6.1875 25.4018 6.59817 25.8125 7.10417 25.8125H9.16667C8.66067 25.8125 8.25 25.4018 8.25 24.8958Z" fill="#FF7F2E"/>
<path d="M22 16.6458V14.3542C22 13.8482 22.4107 13.4375 22.9167 13.4375H20.8542C20.3482 13.4375 19.9375 13.8482 19.9375 14.3542V16.6458C19.9375 17.1518 20.3482 17.5625 20.8542 17.5625H22.9167C22.4107 17.5625 22 17.1518 22 16.6458Z" fill="#FF7F2E"/>
<path d="M24.2917 9.08333C23.0285 9.08333 22 8.05575 22 6.79167C22 5.52758 23.0285 4.5 24.2917 4.5C25.5548 4.5 26.5833 5.52758 26.5833 6.79167C26.5833 8.05575 25.5548 9.08333 24.2917 9.08333ZM24.2917 5.875C23.7866 5.875 23.375 6.28567 23.375 6.79167C23.375 7.29767 23.7866 7.70833 24.2917 7.70833C24.7967 7.70833 25.2083 7.29767 25.2083 6.79167C25.2083 6.28567 24.7967 5.875 24.2917 5.875Z" fill="black"/>
<path d="M25.0876 8.56799L26.0599 7.59572L27.2973 8.8331L26.325 9.80537L25.0876 8.56799Z" fill="black"/>
<path d="M18.5625 10H7.10417C6.21958 10 5.5 9.28042 5.5 8.39583V6.10417C5.5 5.21958 6.21958 4.5 7.10417 4.5H18.5625C19.4471 4.5 20.1667 5.21958 20.1667 6.10417V8.39583C20.1667 9.28042 19.4471 10 18.5625 10ZM7.10417 5.875C6.97767 5.875 6.875 5.97767 6.875 6.10417V8.39583C6.875 8.52233 6.97767 8.625 7.10417 8.625H18.5625C18.689 8.625 18.7917 8.52233 18.7917 8.39583V6.10417C18.7917 5.97767 18.689 5.875 18.5625 5.875H7.10417Z" fill="black"/>
<path d="M25.8958 26.5H7.10417C6.21958 26.5 5.5 25.7804 5.5 24.8958V22.6042C5.5 21.7196 6.21958 21 7.10417 21H25.8958C26.7804 21 27.5 21.7196 27.5 22.6042V24.8958C27.5 25.7804 26.7804 26.5 25.8958 26.5ZM7.10417 22.375C6.97767 22.375 6.875 22.4777 6.875 22.6042V24.8958C6.875 25.0223 6.97767 25.125 7.10417 25.125H25.8958C26.0223 25.125 26.125 25.0223 26.125 24.8958V22.6042C26.125 22.4777 26.0223 22.375 25.8958 22.375H7.10417Z" fill="black"/>
<path d="M25.8958 18.25H20.8542C19.9696 18.25 19.25 17.5304 19.25 16.6458V14.3542C19.25 13.4696 19.9696 12.75 20.8542 12.75H25.8958C26.7804 12.75 27.5 13.4696 27.5 14.3542V16.6458C27.5 17.5304 26.7804 18.25 25.8958 18.25ZM20.8542 14.125C20.7277 14.125 20.625 14.2277 20.625 14.3542V16.6458C20.625 16.7723 20.7277 16.875 20.8542 16.875H25.8958C26.0223 16.875 26.125 16.7723 26.125 16.6458V14.3542C26.125 14.2277 26.0223 14.125 25.8958 14.125H20.8542Z" fill="black"/>
<path d="M6.1875 13.2083H16.7292V14.5833H6.1875V13.2083Z" fill="black"/>
<path d="M6.1875 15.9583H16.7292V17.3333H6.1875V15.9583Z" fill="black"/>
</svg>
