<svg width="29" height="29" viewBox="0 0 29 29" fill="none" xmlns="http://www.w3.org/2000/svg">
<path d="M2.77273 19.2391C7.65521 21.924 9.61754 26.2966 11.9698 27.5903C14.3228 28.884 20.0076 30.2478 25.959 19.4244C31.9105 8.60091 26.1371 3.35755 23.5488 1.93413C11.4317 -4.72781 -5.8741 14.4847 2.77273 19.2391Z" fill="white"/>
<path d="M2.46423 2.91074L3.03385 2.34112L4.17308 3.48035L3.60346 4.04996L2.46423 2.91074Z" fill="#A4AFC1"/>
<path d="M2.32043 6.75549L3.45966 5.61626L4.02927 6.18588L2.89005 7.32511L2.32043 6.75549Z" fill="#A4AFC1"/>
<path d="M5.59668 3.48065L6.73591 2.34143L7.30552 2.91104L6.16629 4.05027L5.59668 3.48065Z" fill="#A4AFC1"/>
<path d="M24.9722 19.4373C24.3061 19.4373 23.7639 18.8951 23.7639 18.2289C23.7639 17.5627 24.3061 17.0206 24.9722 17.0206C25.6384 17.0206 26.1806 17.5627 26.1806 18.2289C26.1806 18.8951 25.6384 19.4373 24.9722 19.4373ZM24.9722 17.8261C24.7499 17.8261 24.5695 18.0074 24.5695 18.2289C24.5695 18.4504 24.7499 18.6317 24.9722 18.6317C25.1946 18.6317 25.375 18.4504 25.375 18.2289C25.375 18.0074 25.1946 17.8261 24.9722 17.8261Z" fill="#A4AFC1"/>
<path d="M8.25694 9.0625H6.24306C5.79839 9.0625 5.4375 8.70161 5.4375 8.25694V6.24306C5.4375 5.79839 5.79839 5.4375 6.24306 5.4375H8.25694C8.70161 5.4375 9.0625 5.79839 9.0625 6.24306V8.25694C9.0625 8.70161 8.70161 9.0625 8.25694 9.0625Z" fill="#FEB46D"/>
<path d="M7.25 8.25694V6.24306C7.25 5.79839 7.61089 5.4375 8.05555 5.4375H6.24305C5.79839 5.4375 5.4375 5.79839 5.4375 6.24306V8.25694C5.4375 8.70161 5.79839 9.0625 6.24305 9.0625H8.05555C7.61089 9.0625 7.25 8.70161 7.25 8.25694Z" fill="#FEB46D"/>
<path d="M15.5069 9.0625H13.4931C13.0484 9.0625 12.6875 8.70161 12.6875 8.25694V6.24306C12.6875 5.79839 13.0484 5.4375 13.4931 5.4375H15.5069C15.9516 5.4375 16.3125 5.79839 16.3125 6.24306V8.25694C16.3125 8.70161 15.9516 9.0625 15.5069 9.0625Z" fill="#FEB46D"/>
<path d="M14.5 8.25694V6.24306C14.5 5.79839 14.8609 5.4375 15.3056 5.4375H13.4931C13.0484 5.4375 12.6875 5.79839 12.6875 6.24306V8.25694C12.6875 8.70161 13.0484 9.0625 13.4931 9.0625H15.3056C14.8609 9.0625 14.5 8.70161 14.5 8.25694Z" fill="#FEB46D"/>
<path d="M22.7569 9.0625H20.7431C20.2984 9.0625 19.9375 8.70161 19.9375 8.25694V6.24306C19.9375 5.79839 20.2984 5.4375 20.7431 5.4375H22.7569C23.2016 5.4375 23.5625 5.79839 23.5625 6.24306V8.25694C23.5625 8.70161 23.2016 9.0625 22.7569 9.0625Z" fill="#FEB46D"/>
<path d="M21.75 8.25694V6.24306C21.75 5.79839 22.1109 5.4375 22.5556 5.4375H20.7431C20.2984 5.4375 19.9375 5.79839 19.9375 6.24306V8.25694C19.9375 8.70161 20.2984 9.0625 20.7431 9.0625H22.5556C22.1109 9.0625 21.75 8.70161 21.75 8.25694Z" fill="#FEB46D"/>
<path d="M8.25694 16.1892H6.24306C5.79839 16.1892 5.4375 15.8284 5.4375 15.3837V13.3698C5.4375 12.9251 5.79839 12.5642 6.24306 12.5642H8.25694C8.70161 12.5642 9.0625 12.9251 9.0625 13.3698V15.3837C9.0625 15.8292 8.70161 16.1892 8.25694 16.1892Z" fill="#FEB46D"/>
<path d="M7.25 15.3837V13.3698C7.25 12.9251 7.61089 12.5642 8.05555 12.5642H6.24305C5.79839 12.5642 5.4375 12.9251 5.4375 13.3698V15.3837C5.4375 15.8284 5.79839 16.1892 6.24305 16.1892H8.05555C7.61089 16.1892 7.25 15.8292 7.25 15.3837Z" fill="#FEB46D"/>
<path d="M15.5069 16.1892H13.4931C13.0484 16.1892 12.6875 15.8284 12.6875 15.3837V13.3698C12.6875 12.9251 13.0484 12.5642 13.4931 12.5642H15.5069C15.9516 12.5642 16.3125 12.9251 16.3125 13.3698V15.3837C16.3125 15.8292 15.9516 16.1892 15.5069 16.1892Z" fill="#FEB46D"/>
<path d="M14.5 15.3837V13.3698C14.5 12.9251 14.8609 12.5642 15.3056 12.5642H13.4931C13.0484 12.5642 12.6875 12.9251 12.6875 13.3698V15.3837C12.6875 15.8284 13.0484 16.1892 13.4931 16.1892H15.3056C14.8609 16.1892 14.5 15.8292 14.5 15.3837Z" fill="#FEB46D"/>
<path d="M22.7569 16.1892H20.7431C20.2984 16.1892 19.9375 15.8284 19.9375 15.3837V13.3698C19.9375 12.9251 20.2984 12.5642 20.7431 12.5642H22.7569C23.2016 12.5642 23.5625 12.9251 23.5625 13.3698V15.3837C23.5625 15.8292 23.2016 16.1892 22.7569 16.1892Z" fill="#FEB46D"/>
<path d="M21.75 15.3837V13.3698C21.75 12.9251 22.1109 12.5642 22.5556 12.5642H20.7431C20.2984 12.5642 19.9375 12.9251 19.9375 13.3698V15.3837C19.9375 15.8284 20.2984 16.1892 20.7431 16.1892H22.5556C22.1109 16.1892 21.75 15.8292 21.75 15.3837Z" fill="#FEB46D"/>
<path d="M8.25694 23.3168H6.24306C5.79839 23.3168 5.4375 22.9559 5.4375 22.5112V20.4974C5.4375 20.0527 5.79839 19.6918 6.24306 19.6918H8.25694C8.70161 19.6918 9.0625 20.0527 9.0625 20.4974V22.5112C9.0625 22.9559 8.70161 23.3168 8.25694 23.3168Z" fill="#FEB46D"/>
<path d="M7.25 22.5112V20.4974C7.25 20.0527 7.61089 19.6918 8.05555 19.6918H6.24305C5.79839 19.6918 5.4375 20.0527 5.4375 20.4974V22.5112C5.4375 22.9559 5.79839 23.3168 6.24305 23.3168H8.05555C7.61089 23.3168 7.25 22.9559 7.25 22.5112Z" fill="#FEB46D"/>
<path d="M15.5069 23.3168H13.4931C13.0484 23.3168 12.6875 22.9559 12.6875 22.5112V20.4974C12.6875 20.0527 13.0484 19.6918 13.4931 19.6918H15.5069C15.9516 19.6918 16.3125 20.0527 16.3125 20.4974V22.5112C16.3125 22.9559 15.9516 23.3168 15.5069 23.3168Z" fill="#FEB46D"/>
<path d="M14.5 22.5112V20.4974C14.5 20.0527 14.8609 19.6918 15.3056 19.6918H13.4931C13.0484 19.6918 12.6875 20.0527 12.6875 20.4974V22.5112C12.6875 22.9559 13.0484 23.3168 13.4931 23.3168H15.3056C14.8609 23.3168 14.5 22.9559 14.5 22.5112Z" fill="#FEB46D"/>
<path d="M22.7569 23.3168H20.7431C20.2984 23.3168 19.9375 22.9559 19.9375 22.5112V20.4974C19.9375 20.0527 20.2984 19.6918 20.7431 19.6918H22.7569C23.2016 19.6918 23.5625 20.0527 23.5625 20.4974V22.5112C23.5625 22.9559 23.2016 23.3168 22.7569 23.3168Z" fill="#FEB46D"/>
<path d="M21.75 22.5112V20.4974C21.75 20.0527 22.1109 19.6918 22.5556 19.6918H20.7431C20.2984 19.6918 19.9375 20.0527 19.9375 20.4974V22.5112C19.9375 22.9559 20.2984 23.3168 20.7431 23.3168H22.5556C22.1109 23.3168 21.75 22.9559 21.75 22.5112Z" fill="#FEB46D"/>
<path d="M8.25699 9.66666H6.2431C5.46574 9.66666 4.83337 9.0343 4.83337 8.25694V6.24305C4.83337 5.46569 5.46574 4.83333 6.2431 4.83333H8.25699C9.03435 4.83333 9.66671 5.46569 9.66671 6.24305V8.25694C9.66671 9.0343 9.03435 9.66666 8.25699 9.66666ZM6.2431 6.04166C6.13193 6.04166 6.04171 6.13188 6.04171 6.24305V8.25694C6.04171 8.3681 6.13193 8.45832 6.2431 8.45832H8.25699C8.36816 8.45832 8.45838 8.3681 8.45838 8.25694V6.24305C8.45838 6.13188 8.36816 6.04166 8.25699 6.04166H6.2431Z" fill="black"/>
<path d="M8.25699 16.9167H6.2431C5.46574 16.9167 4.83337 16.2843 4.83337 15.5069V13.4931C4.83337 12.7157 5.46574 12.0833 6.2431 12.0833H8.25699C9.03435 12.0833 9.66671 12.7157 9.66671 13.4931V15.5069C9.66671 16.2843 9.03435 16.9167 8.25699 16.9167ZM6.2431 13.2917C6.13193 13.2917 6.04171 13.3819 6.04171 13.4931V15.5069C6.04171 15.6181 6.13193 15.7083 6.2431 15.7083H8.25699C8.36816 15.7083 8.45838 15.6181 8.45838 15.5069V13.4931C8.45838 13.3819 8.36816 13.2917 8.25699 13.2917H6.2431Z" fill="black"/>
<path d="M8.25699 24.1667H6.2431C5.46574 24.1667 4.83337 23.5343 4.83337 22.7569V20.743C4.83337 19.9657 5.46574 19.3333 6.2431 19.3333H8.25699C9.03435 19.3333 9.66671 19.9657 9.66671 20.743V22.7569C9.66671 23.5343 9.03435 24.1667 8.25699 24.1667ZM6.2431 20.5417C6.13193 20.5417 6.04171 20.6319 6.04171 20.743V22.7569C6.04171 22.8681 6.13193 22.9583 6.2431 22.9583H8.25699C8.36816 22.9583 8.45838 22.8681 8.45838 22.7569V20.743C8.45838 20.6319 8.36816 20.5417 8.25699 20.5417H6.2431Z" fill="black"/>
<path d="M15.507 9.66666H13.4931C12.7157 9.66666 12.0834 9.0343 12.0834 8.25694V6.24305C12.0834 5.46569 12.7157 4.83333 13.4931 4.83333H15.507C16.2844 4.83333 16.9167 5.46569 16.9167 6.24305V8.25694C16.9167 9.0343 16.2844 9.66666 15.507 9.66666ZM13.4931 6.04166C13.3819 6.04166 13.2917 6.13188 13.2917 6.24305V8.25694C13.2917 8.3681 13.3819 8.45832 13.4931 8.45832H15.507C15.6182 8.45832 15.7084 8.3681 15.7084 8.25694V6.24305C15.7084 6.13188 15.6182 6.04166 15.507 6.04166H13.4931Z" fill="black"/>
<path d="M15.507 16.9167H13.4931C12.7157 16.9167 12.0834 16.2843 12.0834 15.5069V13.4931C12.0834 12.7157 12.7157 12.0833 13.4931 12.0833H15.507C16.2844 12.0833 16.9167 12.7157 16.9167 13.4931V15.5069C16.9167 16.2843 16.2844 16.9167 15.507 16.9167ZM13.4931 13.2917C13.3819 13.2917 13.2917 13.3819 13.2917 13.4931V15.5069C13.2917 15.6181 13.3819 15.7083 13.4931 15.7083H15.507C15.6182 15.7083 15.7084 15.6181 15.7084 15.5069V13.4931C15.7084 13.3819 15.6182 13.2917 15.507 13.2917H13.4931Z" fill="black"/>
<path d="M15.507 24.1667H13.4931C12.7157 24.1667 12.0834 23.5343 12.0834 22.7569V20.743C12.0834 19.9657 12.7157 19.3333 13.4931 19.3333H15.507C16.2844 19.3333 16.9167 19.9657 16.9167 20.743V22.7569C16.9167 23.5343 16.2844 24.1667 15.507 24.1667ZM13.4931 20.5417C13.3819 20.5417 13.2917 20.6319 13.2917 20.743V22.7569C13.2917 22.8681 13.3819 22.9583 13.4931 22.9583H15.507C15.6182 22.9583 15.7084 22.8681 15.7084 22.7569V20.743C15.7084 20.6319 15.6182 20.5417 15.507 20.5417H13.4931Z" fill="black"/>
<path d="M22.757 9.66666H20.7431C19.9657 9.66666 19.3334 9.0343 19.3334 8.25694V6.24305C19.3334 5.46569 19.9657 4.83333 20.7431 4.83333H22.757C23.5343 4.83333 24.1667 5.46569 24.1667 6.24305V8.25694C24.1667 9.0343 23.5343 9.66666 22.757 9.66666ZM20.7431 6.04166C20.6319 6.04166 20.5417 6.13188 20.5417 6.24305V8.25694C20.5417 8.3681 20.6319 8.45832 20.7431 8.45832H22.757C22.8681 8.45832 22.9584 8.3681 22.9584 8.25694V6.24305C22.9584 6.13188 22.8681 6.04166 22.757 6.04166H20.7431Z" fill="black"/>
<path d="M22.757 16.9167H20.7431C19.9657 16.9167 19.3334 16.2843 19.3334 15.5069V13.4931C19.3334 12.7157 19.9657 12.0833 20.7431 12.0833H22.757C23.5343 12.0833 24.1667 12.7157 24.1667 13.4931V15.5069C24.1667 16.2843 23.5343 16.9167 22.757 16.9167ZM20.7431 13.2917C20.6319 13.2917 20.5417 13.3819 20.5417 13.4931V15.5069C20.5417 15.6181 20.6319 15.7083 20.7431 15.7083H22.757C22.8681 15.7083 22.9584 15.6181 22.9584 15.5069V13.4931C22.9584 13.3819 22.8681 13.2917 22.757 13.2917H20.7431Z" fill="black"/>
<path d="M22.757 24.1667H20.7431C19.9657 24.1667 19.3334 23.5343 19.3334 22.7569V20.743C19.3334 19.9657 19.9657 19.3333 20.7431 19.3333H22.757C23.5343 19.3333 24.1667 19.9657 24.1667 20.743V22.7569C24.1667 23.5343 23.5343 24.1667 22.757 24.1667ZM20.7431 20.5417C20.6319 20.5417 20.5417 20.6319 20.5417 20.743V22.7569C20.5417 22.8681 20.6319 22.9583 20.7431 22.9583H22.757C22.8681 22.9583 22.9584 22.8681 22.9584 22.7569V20.743C22.9584 20.6319 22.8681 20.5417 22.757 20.5417H20.7431Z" fill="black"/>
</svg>
