<svg width="31" height="31" viewBox="0 0 31 31" fill="none" xmlns="http://www.w3.org/2000/svg">
<g clip-path="url(#clip0_737_29111)">
<path d="M23.5192 27.0275C17.755 27.0275 13.7967 30.0133 11.0192 30.0133C8.24166 30.0133 2.40833 28.4167 2.40833 15.6392C2.40833 2.86167 10.2558 0.98584 13.3108 0.98584C27.6167 0.98584 33.7275 27.0275 23.5192 27.0275Z" fill="white"/>
<path d="M26.8462 3.41771L28.0247 2.2392L28.614 2.82845L27.4354 4.00697L26.8462 3.41771Z" fill="#A4AFC1"/>
<path d="M27.1427 6.07292L27.732 5.48367L28.9105 6.66218L28.3212 7.25143L27.1427 6.07292Z" fill="#A4AFC1"/>
<path d="M23.7557 2.68375L24.345 2.09449L25.5235 3.273L24.9342 3.86226L23.7557 2.68375Z" fill="#A4AFC1"/>
<path d="M24.875 20.7083V10.2917C24.875 9.37083 24.1292 8.625 23.2083 8.625H7.79167C6.87083 8.625 6.125 9.37083 6.125 10.2917V20.7083C6.125 21.6292 6.87083 22.375 7.79167 22.375H23.2083C24.1292 22.375 24.875 21.6292 24.875 20.7083Z" fill="#F3F3F1"/>
<path d="M6.125 18.2083H11.5417C12.4625 18.2083 13.2083 17.4625 13.2083 16.5417V14.4583C13.2083 13.5375 12.4625 12.7917 11.5417 12.7917H6.125V18.2083Z" fill="#FEB46D"/>
<path d="M20.0833 24.875C22.7297 24.875 24.875 22.7297 24.875 20.0833C24.875 17.437 22.7297 15.2917 20.0833 15.2917C17.4369 15.2917 15.2916 17.437 15.2916 20.0833C15.2916 22.7297 17.4369 24.875 20.0833 24.875Z" fill="#FEB46D"/>
<path d="M8 20.7083V10.2917C8 9.37083 8.74583 8.625 9.66667 8.625H7.79167C6.87083 8.625 6.125 9.37083 6.125 10.2917V20.7083C6.125 21.6292 6.87083 22.375 7.79167 22.375H9.66667C8.74583 22.375 8 21.6292 8 20.7083Z" fill="#D5DBE1"/>
<path d="M6.125 12.7917H8V18.2083H6.125V12.7917Z" fill="#FF7F2E"/>
<path d="M17.1666 20.0833C17.1666 17.7583 18.8233 15.8208 21.0208 15.385C20.7175 15.325 20.4041 15.2917 20.0833 15.2917C17.4366 15.2917 15.2916 17.4367 15.2916 20.0833C15.2916 22.73 17.4366 24.875 20.0833 24.875C20.4041 24.875 20.7175 24.8425 21.0208 24.7817C18.8233 24.3458 17.1666 22.4083 17.1666 20.0833Z" fill="#FF7F2E"/>
<path d="M12.375 23H7.79167C6.5275 23 5.5 21.9725 5.5 20.7083V10.2917C5.5 9.0275 6.5275 8 7.79167 8H23.2083C24.4725 8 25.5 9.0275 25.5 10.2917V14.0417H24.25V10.2917C24.25 9.7175 23.7825 9.25 23.2083 9.25H7.79167C7.2175 9.25 6.75 9.7175 6.75 10.2917V20.7083C6.75 21.2825 7.2175 21.75 7.79167 21.75H12.375V23Z" fill="black"/>
<path d="M11.5417 18.8333H6.125C5.78 18.8333 5.5 18.5533 5.5 18.2083V12.7917C5.5 12.4467 5.78 12.1667 6.125 12.1667H11.5417C12.8058 12.1667 13.8333 13.1942 13.8333 14.4583V16.5417C13.8333 17.8058 12.8058 18.8333 11.5417 18.8333ZM6.75 17.5833H11.5417C12.1158 17.5833 12.5833 17.1158 12.5833 16.5417V14.4583C12.5833 13.8842 12.1158 13.4167 11.5417 13.4167H6.75V17.5833Z" fill="black"/>
<path d="M9.66671 16.3333C10.1269 16.3333 10.5 15.9602 10.5 15.5C10.5 15.0398 10.1269 14.6667 9.66671 14.6667C9.20647 14.6667 8.83337 15.0398 8.83337 15.5C8.83337 15.9602 9.20647 16.3333 9.66671 16.3333Z" fill="black"/>
<path d="M19.4584 21.3925H20.7084V23.4167H19.4584V21.3925Z" fill="black"/>
<path d="M20.2566 22.6425H18.4166V21.3925H20.2566C20.3716 21.3925 20.4999 21.2525 20.4999 21.0508C20.4999 20.8492 20.3716 20.7083 20.2566 20.7083H19.9091C19.0858 20.7083 18.4158 19.9942 18.4158 19.1158C18.4158 18.2375 19.0858 17.5242 19.9091 17.5242H21.7499V18.7742H19.9099C19.7949 18.7742 19.6666 18.9142 19.6666 19.1158C19.6666 19.3175 19.7949 19.4583 19.9099 19.4583H20.2574C21.0808 19.4583 21.7508 20.1725 21.7508 21.0508C21.7508 21.9292 21.0799 22.6425 20.2566 22.6425Z" fill="black"/>
<path d="M19.4584 16.75H20.7084V18.7742H19.4584V16.75Z" fill="black"/>
<path d="M20.0833 25.5C17.0966 25.5 14.6666 23.07 14.6666 20.0833C14.6666 17.0967 17.0966 14.6667 20.0833 14.6667C23.07 14.6667 25.5 17.0967 25.5 20.0833C25.5 23.07 23.07 25.5 20.0833 25.5ZM20.0833 15.9167C17.7858 15.9167 15.9166 17.7858 15.9166 20.0833C15.9166 22.3808 17.7858 24.25 20.0833 24.25C22.3808 24.25 24.25 22.3808 24.25 20.0833C24.25 17.7858 22.3808 15.9167 20.0833 15.9167Z" fill="black"/>
</g>
<defs>
<clipPath id="clip0_737_29111">
<rect width="30" height="30" fill="white" transform="translate(0.5 0.5)"/>
</clipPath>
</defs>
</svg>
