<svg width="33" height="33" viewBox="0 0 33 33" fill="none" xmlns="http://www.w3.org/2000/svg">
<path d="M7.67889 3.81976C14.0195 3.81976 18.3736 0.535339 21.4289 0.535339C24.4841 0.535339 30.9008 2.29167 30.9008 16.3469C30.9008 30.4022 22.2686 32.4647 18.9081 32.4647C3.17165 32.4656 -3.55027 3.81976 7.67889 3.81976Z" fill="#EFEFEF"/>
<path d="M7.06812 6.71057L8.36448 5.41421L9.01266 6.06239L7.7163 7.35875L7.06812 6.71057Z" fill="#A4AFC1"/>
<path d="M3.34094 10.4371L4.6373 9.14077L5.28549 9.78895L3.98912 11.0853L3.34094 10.4371Z" fill="#A4AFC1"/>
<path d="M3.5036 6.06116L4.15178 5.41298L5.44814 6.70934L4.79996 7.35752L3.5036 6.06116Z" fill="#A4AFC1"/>
<path d="M26.8125 22.4583V8.02083C26.8125 7.0125 25.9875 6.1875 24.9791 6.1875H15.3541C14.3458 6.1875 13.5208 7.0125 13.5208 8.02083V22.4583C13.5208 23.4712 14.3412 24.2917 15.3541 24.2917H24.9791C25.9921 24.2917 26.8125 23.4712 26.8125 22.4583Z" fill="#FEB46D"/>
<path d="M6.1875 17.1875V24.9792H8.70833L10.5417 18.2087C10.5417 18.2087 9.20517 17.1875 6.1875 17.1875Z" fill="#FEB46D"/>
<path d="M24.5209 22C23.331 22 21.9496 22.5757 20.625 22.9818V22.5867C20.625 21.7159 20.0109 20.9642 19.1584 20.79L10.3309 18.9842L8.96503 23.9525C10.7159 24.7775 15.2259 26.8125 17.4167 26.8125C20.1667 26.8125 26.8125 23.1459 26.8125 23.1459C26.8125 23.1459 26.3542 22 24.5209 22Z" fill="#F3F3F1"/>
<path d="M11.0275 23.9525L12.2834 19.3839L10.3309 18.9842L8.96503 23.9525C10.7159 24.7775 15.2259 26.8125 17.4167 26.8125C17.7045 26.8125 18.0428 26.7649 18.4039 26.6924C16.0472 26.2497 12.5272 24.6593 11.0275 23.9525Z" fill="#D5DBE1"/>
<path d="M17.4166 6.1875C16.4083 6.1875 15.5833 7.0125 15.5833 8.02083V19.9375L13.5208 19.4792V8.02083C13.5208 7.0125 14.3458 6.1875 15.3541 6.1875H17.4166Z" fill="#FF6600"/>
<path d="M6.1875 17.1875V24.9792H8.25V17.3708C7.67617 17.2636 6.99692 17.1875 6.1875 17.1875Z" fill="#FF6600"/>
<path d="M27.5 20.1667H26.125V8.02083C26.125 7.38925 25.6107 6.875 24.9791 6.875H15.3541C14.7226 6.875 14.2083 7.38925 14.2083 8.02083V17.4167H12.8333V8.02083C12.8333 6.63025 13.9636 5.5 15.3541 5.5H24.9791C26.3697 5.5 27.5 6.63025 27.5 8.02083V20.1667Z" fill="black"/>
<path d="M15.5833 8.25H16.9583V13.75H15.5833V8.25Z" fill="black"/>
<path d="M23.375 8.25H24.75V13.75H23.375V8.25Z" fill="black"/>
<path d="M20.625 13.75H19.7084C18.8238 13.75 18.1042 13.0304 18.1042 12.1458V9.85417C18.1042 8.96958 18.8238 8.25 19.7084 8.25H20.625C21.5096 8.25 22.2292 8.96958 22.2292 9.85417V12.1458C22.2292 13.0304 21.5096 13.75 20.625 13.75ZM19.7084 9.625C19.5819 9.625 19.4792 9.72767 19.4792 9.85417V12.1458C19.4792 12.2723 19.5819 12.375 19.7084 12.375H20.625C20.7515 12.375 20.8542 12.2723 20.8542 12.1458V9.85417C20.8542 9.72767 20.7515 9.625 20.625 9.625H19.7084Z" fill="black"/>
<path d="M15.5833 14.6667H16.9583V17.4167H15.5833V14.6667Z" fill="black"/>
<path d="M23.375 14.6667H24.75V19.25H23.375V14.6667Z" fill="black"/>
<path d="M22.2292 19.25H20.8542V16.2709C20.8542 16.1444 20.7515 16.0417 20.625 16.0417H19.7084C19.5819 16.0417 19.4792 16.1444 19.4792 16.2709V18.3334H18.1042V16.2709C18.1042 15.3863 18.8238 14.6667 19.7084 14.6667H20.625C21.5096 14.6667 22.2292 15.3863 22.2292 16.2709V19.25Z" fill="black"/>
<path d="M8.70833 25.6667H6.1875C5.808 25.6667 5.5 25.3587 5.5 24.9792V17.1875C5.5 16.808 5.808 16.5 6.1875 16.5C9.40042 16.5 10.8973 17.6147 10.9588 17.6623C11.1806 17.8319 11.2787 18.1188 11.2053 18.3883L9.372 25.1588C9.29042 25.4586 9.01908 25.6667 8.70833 25.6667ZM6.875 24.2917H8.18217L9.73867 18.5433C9.25925 18.3168 8.3215 17.9795 6.87408 17.8952V24.2917H6.875Z" fill="black"/>
<path d="M17.4167 27.5C15.2112 27.5 10.9909 25.6667 8.67169 24.5749L9.25836 23.331C13.0277 25.1075 16.0014 26.1259 17.4167 26.1259C19.2757 26.1259 23.496 24.1175 25.707 22.9588C25.4522 22.8131 25.0727 22.6884 24.5209 22.6884C23.716 22.6884 22.7214 23.0202 21.7589 23.3402C20.6929 23.6958 19.5901 24.0634 18.5625 24.0634C16.6302 24.0634 14.0809 23.1449 13.9737 23.1055L14.443 21.813C14.4669 21.8222 16.874 22.6884 18.5625 22.6884C19.3674 22.6884 20.3619 22.3566 21.3244 22.0367C22.3905 21.681 23.4933 21.3134 24.5209 21.3134C26.7933 21.3134 27.4249 22.8268 27.4505 22.8919C27.5798 23.2137 27.4487 23.5813 27.1444 23.749C26.8675 23.9012 20.3106 27.5 17.4167 27.5Z" fill="black"/>
<path d="M21.3125 22.9992H19.9375V22.5867C19.9375 22.0449 19.5525 21.5719 19.0209 21.4638L10.1934 19.6579L10.4693 18.3104L19.2968 20.1163C20.4646 20.3546 21.3134 21.3941 21.3134 22.5867V22.9992H21.3125Z" fill="black"/>
</svg>
