<svg width="33" height="33" viewBox="0 0 33 33" fill="none" xmlns="http://www.w3.org/2000/svg">
<path d="M7.67896 3.81969C14.0195 3.81969 18.3737 0.535278 21.429 0.535278C24.4842 0.535278 30.9009 2.29161 30.9009 16.3469C30.9009 30.4021 22.2686 32.4646 18.9081 32.4646C3.17171 32.4655 -3.55021 3.81969 7.67896 3.81969Z" fill="#F5F8FB"/>
<path d="M5.47388 3.96082L6.77024 2.66445L7.41842 3.31263L6.12206 4.609L5.47388 3.96082Z" fill="#A4AFC1"/>
<path d="M1.7467 7.68738L3.04307 6.39102L3.69125 7.0392L2.39489 8.33556L1.7467 7.68738Z" fill="#A4AFC1"/>
<path d="M1.90942 3.31226L2.55761 2.66407L3.85397 3.96044L3.20579 4.60862L1.90942 3.31226Z" fill="#A4AFC1"/>
<path d="M24.9792 25.8958H8.02083C7.00792 25.8958 6.1875 25.0754 6.1875 24.0625V10.3125H26.8125V24.0625C26.8125 25.0754 25.9921 25.8958 24.9792 25.8958Z" fill="#F3F3F1"/>
<path d="M26.8125 10.3125H6.1875V8.93746C6.1875 7.92454 7.00792 7.10413 8.02083 7.10413H24.9792C25.9921 7.10413 26.8125 7.92454 26.8125 8.93746V10.3125Z" fill="#FEB46D"/>
<path d="M8.47917 24.0625V10.3125H6.1875V24.0625C6.1875 25.0754 7.00792 25.8958 8.02083 25.8958H10.3125C9.29958 25.8958 8.47917 25.0754 8.47917 24.0625Z" fill="#D5DBE1"/>
<path d="M10.0833 7.10413H8.02083C7.00792 7.10413 6.1875 7.92454 6.1875 8.93746V10.3125H8.25V8.93746C8.25 7.92454 9.07042 7.10413 10.0833 7.10413Z" fill="#FF7F2E"/>
<path d="M18.3333 21.0834H16.9583V17.4167C16.9583 17.1646 16.752 16.9584 16.5 16.9584C16.2479 16.9584 16.0416 17.1646 16.0416 17.4167V21.0834H14.6666V17.4167C14.6666 16.4056 15.4889 15.5834 16.5 15.5834C17.511 15.5834 18.3333 16.4056 18.3333 17.4167V21.0834Z" fill="black"/>
<path d="M14.6666 17.875H18.3333V19.25H14.6666V17.875Z" fill="black"/>
<path d="M10.5416 21.0834H9.16663V17.1875C9.16663 16.303 9.88621 15.5834 10.7708 15.5834H12.8333V16.9584H10.7708C10.6443 16.9584 10.5416 17.061 10.5416 17.1875V21.0834Z" fill="black"/>
<path d="M9.16663 17.875H12.8333V19.25H9.16663V17.875Z" fill="black"/>
<path d="M22.2291 21.0834H21.7708C20.8862 21.0834 20.1666 20.3638 20.1666 19.4792V17.1875C20.1666 16.303 20.8862 15.5834 21.7708 15.5834H22.2291C23.1137 15.5834 23.8333 16.303 23.8333 17.1875V19.4792C23.8333 20.3638 23.1137 21.0834 22.2291 21.0834ZM21.7708 16.9584C21.6443 16.9584 21.5416 17.061 21.5416 17.1875V19.4792C21.5416 19.6057 21.6443 19.7084 21.7708 19.7084H22.2291C22.3556 19.7084 22.4583 19.6057 22.4583 19.4792V17.1875C22.4583 17.061 22.3556 16.9584 22.2291 16.9584H21.7708Z" fill="black"/>
<path d="M21.7112 19.9379L22.6835 18.9656L24.114 20.3961L23.1417 21.3684L21.7112 19.9379Z" fill="black"/>
<path d="M24.9792 26.5833H8.02083C6.63025 26.5833 5.5 25.453 5.5 24.0625V8.93746C5.5 7.54688 6.63025 6.41663 8.02083 6.41663H24.9792C26.3698 6.41663 27.5 7.54688 27.5 8.93746V24.0625C27.5 25.453 26.3698 26.5833 24.9792 26.5833ZM8.02083 7.79163C7.38925 7.79163 6.875 8.30588 6.875 8.93746V24.0625C6.875 24.694 7.38925 25.2083 8.02083 25.2083H24.9792C25.6108 25.2083 26.125 24.694 26.125 24.0625V8.93746C26.125 8.30588 25.6108 7.79163 24.9792 7.79163H8.02083Z" fill="black"/>
<path d="M6.1875 9.625H26.8125V11H6.1875V9.625Z" fill="black"/>
<path d="M1.83337 25.2084H31.1667V26.5834H1.83337V25.2084Z" fill="black"/>
</svg>
