<svg width="33" height="32" viewBox="0 0 33 32" fill="none" xmlns="http://www.w3.org/2000/svg">
<path d="M7.21307 3.94358C5.5174 10.2162 1.10301 13.6451 0.285706 16.6682C-0.531599 19.6913 -0.509993 26.5087 13.3955 30.2683C27.3009 34.0279 31.6505 26.0399 32.5486 22.7144C36.7582 7.1461 10.2164 -7.16613 7.21307 3.94358Z" fill="#F5F8FB"/>
<path d="M7.10596 5.05774H17.6746C18.7126 5.05774 19.5534 5.89853 19.5534 6.9366V8.34575V20.0886V21.4978C19.5534 22.5359 18.7126 23.3767 17.6746 23.3767H13.9168H7.10596V5.05774Z" fill="#F3F3F1"/>
<path d="M13.9168 8.11089V25.0207C13.9168 25.6689 13.3907 26.195 12.7425 26.195C12.611 26.195 12.4889 26.1762 12.3667 26.1386L6.73016 24.2597C6.26984 24.1 5.93164 23.6585 5.93164 23.1418V6.23203C5.93164 5.58382 6.45772 5.05774 7.10593 5.05774C7.23745 5.05774 7.35958 5.07653 7.4817 5.11411L13.1183 6.99297C13.5786 7.15267 13.9168 7.5942 13.9168 8.11089Z" fill="#FEB46D"/>
<path d="M8.84388 24.2597C8.38355 24.1 8.04536 23.6585 8.04536 23.1418V6.23203C8.04536 5.91356 8.175 5.62516 8.38168 5.41378L7.4817 5.11411C7.35957 5.07653 7.23745 5.05774 7.10593 5.05774C6.45772 5.05774 5.93164 5.58382 5.93164 6.23203V23.1418C5.93164 23.6585 6.26984 24.1 6.73016 24.2597L12.3667 26.1386C12.4889 26.1762 12.611 26.195 12.7425 26.195C13.0723 26.195 13.3672 26.0578 13.5805 25.8389L8.84388 24.2597Z" fill="#FEB46D"/>
<path d="M5.22714 29.0133C4.45023 29.0133 3.81799 28.381 3.81799 27.6041C3.81799 26.8272 4.45023 26.195 5.22714 26.195C6.00405 26.195 6.63628 26.8272 6.63628 27.6041C6.63628 28.381 6.00405 29.0133 5.22714 29.0133ZM5.22714 27.1344C4.96786 27.1344 4.75742 27.3458 4.75742 27.6041C4.75742 27.8625 4.96786 28.0739 5.22714 28.0739C5.48642 28.0739 5.69685 27.8625 5.69685 27.6041C5.69685 27.3458 5.48642 27.1344 5.22714 27.1344Z" fill="#A4AFC1"/>
<path d="M24.0665 2.81818L24.7308 2.1539L26.0594 3.48245L25.3951 4.14673L24.0665 2.81818Z" fill="#A4AFC1"/>
<path d="M27.8855 6.63788L28.5498 5.9736L29.8783 7.30216L29.2141 7.96643L27.8855 6.63788Z" fill="#A4AFC1"/>
<path d="M23.9005 7.30121L25.2291 5.97265L25.8933 6.63693L24.5648 7.96549L23.9005 7.30121Z" fill="#A4AFC1"/>
<path d="M27.7203 3.48279L29.0489 2.15423L29.7132 2.81851L28.3846 4.14707L27.7203 3.48279Z" fill="#A4AFC1"/>
<path d="M18.1445 13.5126H27.0691V14.9218H18.1445V13.5126Z" fill="black"/>
<path d="M24.0441 18.238L23.0483 17.2422L26.0733 14.2172L23.0483 11.1922L24.0451 10.1955L27.5679 13.7184C27.8432 13.9936 27.8432 14.4398 27.5679 14.7151L24.0441 18.238Z" fill="black"/>
<path d="M12.7426 26.8995C12.5406 26.8995 12.3499 26.8713 12.1592 26.8122L6.50762 24.9286C5.73822 24.6599 5.22717 23.9441 5.22717 23.1418V6.23201C5.22717 5.19582 6.06984 4.35315 7.10604 4.35315C7.30801 4.35315 7.49872 4.38133 7.68942 4.44052L13.341 6.32408C14.1104 6.59276 14.6215 7.3086 14.6215 8.11088V25.0207C14.6215 26.0569 13.7788 26.8995 12.7426 26.8995ZM7.10604 5.7623C6.84675 5.7623 6.63632 5.97367 6.63632 6.23201V23.1418C6.63632 23.3419 6.77066 23.5279 6.9623 23.5946L12.5895 25.4697C12.6299 25.4829 12.6816 25.4904 12.7426 25.4904C13.0019 25.4904 13.2123 25.279 13.2123 25.0207V8.11088C13.2123 7.91078 13.078 7.72477 12.8864 7.65807L7.25916 5.78296C7.21877 5.76981 7.1671 5.7623 7.10604 5.7623Z" fill="black"/>
<path d="M20.258 11.164H18.8489V6.93659C18.8489 6.28932 18.3218 5.7623 17.6746 5.7623H7.10596V4.35315H17.6746C19.0997 4.35315 20.258 5.51147 20.258 6.93659V11.164Z" fill="black"/>
<path d="M17.6747 24.0813H13.917V22.6721H17.6747C18.322 22.6721 18.849 22.1451 18.849 21.4978V17.2704H20.2582V21.4978C20.2582 22.9229 19.0998 24.0813 17.6747 24.0813Z" fill="black"/>
</svg>
