<svg width="33" height="29" viewBox="0 0 33 29" fill="none" xmlns="http://www.w3.org/2000/svg">
<path d="M3.81957 23.3211C3.81957 16.9805 0.535156 12.6264 0.535156 9.5711C0.535156 6.51585 2.29149 0.0991821 16.3467 0.0991821C30.402 0.0991821 32.4645 8.73143 32.4645 12.0919C32.4654 27.8284 3.81957 34.5503 3.81957 23.3211Z" fill="#F5F8FB"/>
<path d="M4.68506 9.08136L5.33324 8.43318L6.6296 9.72954L5.98142 10.3777L4.68506 9.08136Z" fill="#A4AFC1"/>
<path d="M4.52441 13.4518L5.82078 12.1555L6.46896 12.8037L5.17259 14.1L4.52441 13.4518Z" fill="#A4AFC1"/>
<path d="M8.25244 9.72467L9.5488 8.42831L10.197 9.07649L8.90062 10.3729L8.25244 9.72467Z" fill="#A4AFC1"/>
<path d="M24.979 10.7765C24.2209 10.7765 23.604 10.1596 23.604 9.40149C23.604 8.64341 24.2209 8.02649 24.979 8.02649C25.7371 8.02649 26.354 8.64341 26.354 9.40149C26.354 10.1596 25.7371 10.7765 24.979 10.7765ZM24.979 8.94316C24.7269 8.94316 24.5207 9.14849 24.5207 9.40149C24.5207 9.65449 24.7269 9.85982 24.979 9.85982C25.2311 9.85982 25.4373 9.65449 25.4373 9.40149C25.4373 9.14849 25.2311 8.94316 24.979 8.94316Z" fill="#A4AFC1"/>
<path d="M22.6875 12.4375H10.3125C9.5535 12.4375 8.9375 13.0535 8.9375 13.8125V23.4375C8.9375 24.1965 9.5535 24.8125 10.3125 24.8125H22.6875C23.4465 24.8125 24.0625 24.1965 24.0625 23.4375V13.8125C24.0625 13.0535 23.4465 12.4375 22.6875 12.4375Z" fill="#F3F3F1"/>
<path d="M17.8107 22.5208H13.3465C12.9368 22.5208 12.604 22.189 12.604 21.7783V15.4717C12.604 15.0619 12.9358 14.7292 13.3465 14.7292H19.6541C20.0638 14.7292 20.3966 15.061 20.3966 15.4717V19.9368C20.3966 20.1659 20.3049 20.3868 20.1427 20.5491L18.4239 22.2678C18.2607 22.4292 18.0407 22.5208 17.8107 22.5208Z" fill="#FEB46D"/>
<path d="M11 23.4375V13.8125C11 13.0535 11.616 12.4375 12.375 12.4375H10.3125C9.5535 12.4375 8.9375 13.0535 8.9375 13.8125V23.4375C8.9375 24.1965 9.5535 24.8125 10.3125 24.8125H12.375C11.616 24.8125 11 24.1965 11 23.4375Z" fill="#D5DBE1"/>
<path d="M14.6665 21.7784V15.4717C14.6665 15.0619 14.9983 14.7292 15.409 14.7292H13.3465C12.9368 14.7292 12.604 15.061 12.604 15.4717V21.7793C12.604 22.189 12.9358 22.5218 13.3465 22.5218H15.409C14.9983 22.5209 14.6665 22.189 14.6665 21.7784Z" fill="#FEB46D"/>
<path d="M22.9167 25.5H10.0833C9.07225 25.5 8.25 24.6778 8.25 23.6667V13.5833C8.25 12.5722 9.07225 11.75 10.0833 11.75H22.9167C23.9278 11.75 24.75 12.5722 24.75 13.5833V23.6667C24.75 24.6778 23.9278 25.5 22.9167 25.5ZM10.0833 12.6667C9.57733 12.6667 9.16667 13.0783 9.16667 13.5833V23.6667C9.16667 24.1727 9.57733 24.5833 10.0833 24.5833H22.9167C23.4227 24.5833 23.8333 24.1727 23.8333 23.6667V13.5833C23.8333 13.0783 23.4227 12.6667 22.9167 12.6667H10.0833Z" fill="black"/>
<path d="M22 12.2083H21.0833V9C21.0833 6.47275 19.0272 4.41667 16.5 4.41667C13.9727 4.41667 11.9167 6.47275 11.9167 9V12.2083H11V9C11 5.96675 13.4667 3.5 16.5 3.5C19.5332 3.5 22 5.96675 22 9V12.2083Z" fill="black"/>
<path d="M22.6875 25.5H10.3125C9.17583 25.5 8.25 24.5742 8.25 23.4375V13.8125C8.25 12.6749 9.17583 11.75 10.3125 11.75H22.6875C23.8242 11.75 24.75 12.6749 24.75 13.8125V23.4375C24.75 24.5742 23.8242 25.5 22.6875 25.5ZM10.3125 13.125C9.93392 13.125 9.625 13.433 9.625 13.8125V23.4375C9.625 23.8161 9.93392 24.125 10.3125 24.125H22.6875C23.0661 24.125 23.375 23.8161 23.375 23.4375V13.8125C23.375 13.433 23.0661 13.125 22.6875 13.125H10.3125Z" fill="black"/>
<path d="M22 12.4375H20.625V9C20.625 6.72575 18.7742 4.875 16.5 4.875C14.2257 4.875 12.375 6.72575 12.375 9V12.4375H11V9C11 5.96675 13.4667 3.5 16.5 3.5C19.5332 3.5 22 5.96675 22 9V12.4375Z" fill="black"/>
<path d="M17.8116 23.2084H13.3465C12.5582 23.2084 11.9165 22.5676 11.9165 21.7784V15.4717C11.9165 14.6834 12.5573 14.0417 13.3465 14.0417H19.6541C20.4424 14.0417 21.0841 14.6834 21.0841 15.4717V19.9368C21.0841 20.3447 20.9182 20.7453 20.6294 21.034L18.9098 22.7537C18.6192 23.0424 18.2195 23.2084 17.8116 23.2084ZM13.3465 15.4167L13.2915 21.7784L17.8116 21.8334C17.8583 21.8334 17.9042 21.8141 17.9372 21.7811L19.6568 20.0614C19.6898 20.0284 19.7091 19.9826 19.7091 19.9359V15.4717L13.3465 15.4167Z" fill="black"/>
<path d="M15.8072 20.7022C15.6404 20.7288 15.4103 20.6114 15.2801 20.4547L14.1196 19.065L15.1738 18.1841L15.81 18.9458L17.8276 16.5616L18.8771 17.4498L16.3316 20.4583C16.2014 20.6133 16.0098 20.7022 15.8072 20.7022Z" fill="black"/>
</svg>
