<svg width="29" height="25" viewBox="0 0 29 25" fill="none" xmlns="http://www.w3.org/2000/svg">
<path d="M16.874 23.8354C10.8643 26.0207 3.5569 23.1524 1.84961 19.7378C-0.882125 14.2743 1.84961 6.76203 5.9472 3.34745C10.0448 -0.0672038 15.5082 -0.0672035 16.1911 1.98159C16.874 4.03039 19.6058 4.03039 25.0692 5.39624C30.5327 6.76207 27.7146 15.0515 25.7522 15.6403C18.9229 17.689 24.3863 21.1037 16.874 23.8354V23.8354Z" fill="#F5F8FB"/>
<path fill-rule="evenodd" clip-rule="evenodd" d="M26.875 21.4922C27.1281 21.4922 27.3333 21.287 27.3333 21.0339C27.3333 20.7808 27.1281 20.5755 26.875 20.5755C26.6219 20.5755 26.4167 20.7808 26.4167 21.0339C26.4167 21.287 26.6219 21.4922 26.875 21.4922ZM26.875 22.4089C27.6344 22.4089 28.25 21.7932 28.25 21.0339C28.25 20.2745 27.6344 19.6589 26.875 19.6589C26.1156 19.6589 25.5 20.2745 25.5 21.0339C25.5 21.7932 26.1156 22.4089 26.875 22.4089Z" fill="#A4AFC1"/>
<path d="M12.8678 21.4374C12.8168 21.2393 12.8035 21.0308 12.8316 20.8227L13.1538 18.4381C13.2547 17.6922 13.5975 17 14.1297 16.4678L17.0484 13.5492C13.0197 12.6129 8.73359 13.1383 4.99396 15.1256C4.49769 15.3894 4.1875 15.9054 4.1875 16.4675V19.8333C4.1875 20.7192 4.90571 21.4374 5.79167 21.4374H12.8679H12.8678Z" fill="#F3F3F1"/>
<path fill-rule="evenodd" clip-rule="evenodd" d="M13.2679 2.1875C10.6101 2.1875 8.45544 4.34213 8.45544 7C8.45544 9.65788 10.6101 11.8125 13.2679 11.8125C15.9258 11.8125 18.0804 9.65788 18.0804 7C18.0804 4.34213 15.9258 2.1875 13.2679 2.1875Z" fill="#F3F3F1"/>
<path fill-rule="evenodd" clip-rule="evenodd" d="M14.7781 17.116C14.3878 17.5063 14.1363 18.0139 14.0624 18.5609L13.7402 20.9454C13.7114 21.1581 13.7837 21.372 13.9354 21.5237C14.0871 21.6754 14.3009 21.7475 14.5136 21.7188L16.8981 21.3966C17.4451 21.3227 17.9528 21.0713 18.3431 20.681L23.9821 15.0418C24.9666 14.0574 24.9666 12.4613 23.9821 11.4768C22.9977 10.4924 21.4016 10.4924 20.4172 11.4768L14.7781 17.116Z" fill="#FEB46D"/>
<path fill-rule="evenodd" clip-rule="evenodd" d="M14.0624 18.5609C14.1363 18.0138 14.3878 17.5063 14.7781 17.116L20.4172 11.4768C21.1469 10.7472 22.2127 10.5583 23.1164 10.9104C22.8009 11.0333 22.5052 11.2221 22.2506 11.4768L16.6114 17.116C16.2211 17.5063 15.9696 18.0138 15.8958 18.5609L15.5736 20.9454C15.5448 21.1581 15.617 21.372 15.7687 21.5237C15.7763 21.5313 15.7842 21.5388 15.7922 21.546L14.5136 21.7188C14.3009 21.7475 14.0871 21.6754 13.9354 21.5237C13.7837 21.372 13.7114 21.1581 13.7402 20.9454L14.0624 18.5609Z" fill="#FEB46D"/>
<path fill-rule="evenodd" clip-rule="evenodd" d="M8.45043 7C8.45043 4.34213 10.6051 2.1875 13.2629 2.1875C13.6332 2.1875 13.9936 2.2293 14.3397 2.30844C12.2003 2.79749 10.6041 4.71233 10.6041 7C10.6041 9.28763 12.2003 11.2025 14.3397 11.6916C13.9936 11.7707 13.6332 11.8125 13.2629 11.8125C10.6051 11.8125 8.45043 9.65787 8.45043 7ZM14.2708 13.1372C11.0995 12.9273 7.88356 13.59 4.99396 15.1256C4.49769 15.3893 4.1875 15.9054 4.1875 16.4674V19.8332C4.1875 20.7192 4.90571 21.4374 5.79167 21.4374H8.08333C7.19737 21.4374 6.47917 20.7192 6.47917 19.8332V16.4674C6.47917 15.9054 6.78936 15.3893 7.28565 15.1256C9.48006 13.9595 11.8626 13.2967 14.2708 13.1372H14.2708Z" fill="#FEB46D"/>
<path fill-rule="evenodd" clip-rule="evenodd" d="M13.2679 3.5625C11.3694 3.5625 9.83044 5.10152 9.83044 7C9.83044 8.89851 11.3694 10.4375 13.2679 10.4375C15.1665 10.4375 16.7054 8.89851 16.7054 7C16.7054 5.10152 15.1665 3.5625 13.2679 3.5625ZM8.45544 7C8.45544 4.34213 10.6101 2.1875 13.2679 2.1875C15.9258 2.1875 18.0804 4.34213 18.0804 7C18.0804 9.65788 15.9258 11.8125 13.2679 11.8125C10.6101 11.8125 8.45544 9.65788 8.45544 7Z" fill="black"/>
<path fill-rule="evenodd" clip-rule="evenodd" d="M14.4433 14.5289C11.4385 14.2799 8.37951 14.8836 5.63919 16.3398C5.592 16.3648 5.5625 16.414 5.5625 16.4674V19.8332C5.5625 19.9598 5.6651 20.0624 5.79167 20.0624H11.5208V21.4374H5.79167C4.90571 21.4374 4.1875 20.7192 4.1875 19.8332V16.4674C4.1875 15.9054 4.49769 15.3893 4.99396 15.1256C7.97058 13.5438 11.2934 12.8881 14.5567 13.1585L15.2419 13.2153L15.1283 14.5856L14.4432 14.5289H14.4433Z" fill="black"/>
<path fill-rule="evenodd" clip-rule="evenodd" d="M14.0624 18.5608C14.1364 18.0139 14.3878 17.5062 14.7781 17.116L20.4172 11.4768C21.4016 10.4924 22.9977 10.4924 23.9822 11.4768C24.9666 12.4612 24.9666 14.0573 23.9822 15.0418L18.3431 20.681C17.9528 21.0712 17.4451 21.3227 16.8981 21.3965L14.5136 21.7188C14.3009 21.7475 14.0871 21.6754 13.9354 21.5237C13.7837 21.3719 13.7114 21.1581 13.7402 20.9454L14.0624 18.5608ZM15.7504 18.0882C15.5729 18.2657 15.4587 18.4964 15.4251 18.745L15.2237 20.2354L16.714 20.0339C16.9627 20.0004 17.1934 19.8861 17.3708 19.7087L23.0099 14.0695C23.4573 13.6221 23.4573 12.8966 23.0099 12.4491C22.5624 12.0016 21.837 12.0016 21.3894 12.4491L15.7504 18.0882Z" fill="black"/>
</svg>
