<svg width="30" height="29" viewBox="0 0 30 29" fill="none" xmlns="http://www.w3.org/2000/svg">
<g clip-path="url(#clip0_628_26608)">
<path d="M7.03629 4.48212C5.58226 9.86081 1.79696 12.8011 1.09613 15.3934C0.395293 17.9856 0.41382 23.8316 12.3377 27.0554C24.2615 30.2792 27.9912 23.4296 28.7613 20.5779C32.371 7.22826 9.61165 -5.04438 7.03629 4.48212Z" fill="white"/>
<path d="M23.4583 24.7708H24.2638V26.3819H23.4583V24.7708Z" fill="#A4AFC1"/>
<path d="M25.4722 22.9583H27.0833V23.7639H25.4722V22.9583Z" fill="#A4AFC1"/>
<path d="M3.75112 24.2947C3.08492 24.2947 2.54279 23.7526 2.54279 23.0864C2.54279 22.4202 3.08492 21.8781 3.75112 21.8781C4.41731 21.8781 4.95945 22.4202 4.95945 23.0864C4.95945 23.7526 4.41731 24.2947 3.75112 24.2947ZM3.75112 22.6836C3.52959 22.6836 3.34834 22.8641 3.34834 23.0864C3.34834 23.3087 3.52959 23.4892 3.75112 23.4892C3.97265 23.4892 4.1539 23.3087 4.1539 23.0864C4.1539 22.8641 3.97345 22.6836 3.75112 22.6836Z" fill="#A4AFC1"/>
<path d="M11.5763 5.4375V17.9236H5.93738V7.04861C5.93738 6.1625 6.66238 5.4375 7.54849 5.4375H11.5763Z" fill="#FEB46D"/>
<path d="M11.5763 17.9236V23.5625H7.54849C6.66238 23.5625 5.93738 22.8375 5.93738 21.9514V17.9236H11.5763Z" fill="#F3F3F1"/>
<path d="M11.5763 5.4375H18.4235V23.5625H11.5763V5.4375Z" fill="#F3F3F1"/>
<path d="M24.0623 7.04861V21.9514C24.0623 22.8375 23.3373 23.5625 22.4512 23.5625H18.4234V5.4375H22.4512C23.3373 5.4375 24.0623 6.1625 24.0623 7.04861Z" fill="#F3F3F1"/>
<path d="M9.36099 5.4375H7.54849C6.66238 5.4375 5.93738 6.1625 5.93738 7.04861V17.9236H7.74988V7.04861C7.74988 6.1625 8.47488 5.4375 9.36099 5.4375Z" fill="#FEB46D"/>
<path d="M7.74988 21.9514V17.9236H5.93738V21.9514C5.93738 22.8375 6.66238 23.5625 7.54849 23.5625H9.36099C8.47488 23.5625 7.74988 22.8375 7.74988 21.9514Z" fill="#D5DBE1"/>
<path d="M11.5763 5.4375H13.3888V23.5625H11.5763V5.4375Z" fill="#D5DBE1"/>
<path d="M18.4234 5.4375H20.2359V23.5625H18.4234V5.4375Z" fill="#D5DBE1"/>
<path d="M17.8195 5.43752H19.0278V23.5625H17.8195V5.43752Z" fill="black"/>
<path d="M10.9723 5.43752H12.1806V23.5625H10.9723V5.43752Z" fill="black"/>
<path d="M23.257 24.1667H6.7431C5.96574 24.1667 5.33337 23.5343 5.33337 22.757V6.24307C5.33337 5.4657 5.96574 4.83334 6.7431 4.83334H9.4111V6.04168H6.7431C6.63193 6.04168 6.54171 6.1319 6.54171 6.24307V22.757C6.54171 22.8681 6.63193 22.9584 6.7431 22.9584H23.257C23.3682 22.9584 23.4584 22.8681 23.4584 22.757V6.24307C23.4584 6.1319 23.3682 6.04168 23.257 6.04168H10.7709V4.83334H23.257C24.0343 4.83334 24.6667 5.4657 24.6667 6.24307V22.757C24.6667 23.5343 24.0343 24.1667 23.257 24.1667Z" fill="black"/>
<path d="M18.4236 10.4722H24.0625V11.6806H18.4236V10.4722Z" fill="black"/>
<path d="M5.93756 17.3195H24.0626V18.5278H5.93756V17.3195Z" fill="black"/>
</g>
<defs>
<clipPath id="clip0_628_26608">
<rect width="29" height="29" fill="white" transform="translate(0.5)"/>
</clipPath>
</defs>
</svg>
