<svg width="30" height="29" viewBox="0 0 30 29" fill="none" xmlns="http://www.w3.org/2000/svg">
<path d="M9.78994 28.0349C15.1429 26.4891 19.6201 28.2009 22.1995 27.4557C24.7789 26.7106 29.7685 23.6632 26.3417 11.7957C22.9149 -0.0717116 15.1251 0.2924 12.2872 1.11165C-0.998862 4.94851 0.30936 30.773 9.78994 28.0349Z" fill="white"/>
<path d="M6.11523 9.79474L7.25446 8.65551L7.82408 9.22512L6.68485 10.3644L6.11523 9.79474Z" fill="#A4AFC1"/>
<path d="M2.83948 13.069L3.97871 11.9298L4.54832 12.4994L3.40909 13.6386L2.83948 13.069Z" fill="#A4AFC1"/>
<path d="M2.84033 9.08228L3.40995 8.51266L4.54917 9.65189L3.97956 10.2215L2.84033 9.08228Z" fill="#A4AFC1"/>
<path d="M22.7315 7.62699C22.0653 7.62699 21.5232 7.08485 21.5232 6.41866C21.5232 5.75247 22.0653 5.21033 22.7315 5.21033C23.3977 5.21033 23.9399 5.75247 23.9399 6.41866C23.9399 7.08485 23.3977 7.62699 22.7315 7.62699ZM22.7315 6.01588C22.51 6.01588 22.3287 6.19713 22.3287 6.41866C22.3287 6.64019 22.51 6.82144 22.7315 6.82144C22.9531 6.82144 23.1343 6.64019 23.1343 6.41866C23.1343 6.19713 22.9531 6.01588 22.7315 6.01588Z" fill="#A4AFC1"/>
<path d="M9.96497 11.882V16.3125L20.0344 20.3403V7.85419L9.96497 11.882Z" fill="#F3F3F1"/>
<path d="M7.14583 16.3125H9.96528V11.882H7.14583C6.47883 11.882 5.9375 12.4233 5.9375 13.0903V15.3056C5.9375 15.9726 6.47883 16.3125 7.14583 16.3125Z" fill="#FEB46D"/>
<path d="M10.9883 16.7072L8.35413 16.3125L9.15968 21.9514H11.5763L10.9883 16.7072Z" fill="#FEB46D"/>
<path d="M11.7775 16.3125V11.882L20.0344 8.57919V7.85419L9.96497 11.882V16.3125L20.0344 20.3403V19.6153L11.7775 16.3125Z" fill="#D5DBE1"/>
<path d="M7.75 15.3056V13.0903C7.75 12.4233 8.29133 11.882 8.95833 11.882H7.14583C6.47883 11.882 5.9375 12.4233 5.9375 13.0903V15.3056C5.9375 15.9726 6.47883 16.3125 7.14583 16.3125H8.95833C8.29133 16.3125 7.75 15.9726 7.75 15.3056Z" fill="#FF7F2E"/>
<path d="M8.35413 16.3125L9.15968 21.9514H10.9722L10.2061 16.5904L8.35413 16.3125Z" fill="#FF7F2E"/>
<path d="M20.0345 20.9444C19.9587 20.9444 19.883 20.9299 19.8105 20.9009L9.74106 16.8732C9.51148 16.7813 9.36084 16.5598 9.36084 16.3125V11.8819C9.36084 11.6346 9.51148 11.4131 9.74106 11.3213L19.8105 7.29349C19.9958 7.21777 20.2076 7.24193 20.3736 7.35391C20.5395 7.46588 20.6386 7.65357 20.6386 7.85416V20.3403C20.6386 20.5409 20.5395 20.7277 20.3736 20.8405C20.2721 20.909 20.1529 20.9444 20.0345 20.9444ZM10.5692 15.9033L19.4303 19.4477V8.74591L10.5692 12.2904V15.9033Z" fill="black"/>
<path d="M9.96532 16.9167H7.14587C6.07851 16.9167 5.33337 16.2545 5.33337 15.3055V13.0903C5.33337 12.0914 6.14699 11.2778 7.14587 11.2778H9.96532C10.2988 11.2778 10.5695 11.5484 10.5695 11.8819V16.3125C10.5695 16.646 10.2988 16.9167 9.96532 16.9167ZM7.14587 12.4861C6.81318 12.4861 6.54171 12.7576 6.54171 13.0903V15.3055C6.54171 15.6382 6.87037 15.7083 7.14587 15.7083H9.36115V12.4861H7.14587Z" fill="black"/>
<path d="M11.5769 22.5555H9.16024C8.85976 22.5555 8.60521 22.3348 8.56251 22.0367L7.75696 16.3978L8.9524 16.2263L9.68385 21.3472H10.901L10.3879 16.7748L11.5882 16.6395L12.1762 21.8837C12.1956 22.0553 12.1408 22.226 12.0264 22.3541C11.9128 22.4822 11.7493 22.5555 11.5769 22.5555Z" fill="black"/>
<path d="M21.6768 11.4056L23.6907 9.79393L24.4462 10.738L22.4322 12.3496L21.6768 11.4056Z" fill="black"/>
<path d="M21.6802 17.592L22.4357 16.6479L24.4496 18.2596L23.6941 19.2036L21.6802 17.592Z" fill="black"/>
<path d="M22.0483 13.8958H24.0622V15.1041H22.0483V13.8958Z" fill="black"/>
</svg>
