<svg width="28" height="29" viewBox="0 0 28 29" fill="none" xmlns="http://www.w3.org/2000/svg">
<path d="M15.287 28.7141C8.97646 29.8615 3.57425 27.2799 2.37913 25.8457C-1.20639 22.9773 3.09623 18.6746 1.66203 12.9378C0.227825 7.20102 6.68174 7.20102 10.9844 2.18129C15.2869 -2.83843 16.7212 2.18129 23.8922 3.6155C31.0633 5.0497 24.1646 15.0301 22.458 16.5234C16.7212 21.5431 23.1751 27.2799 15.287 28.7141L15.287 28.7141Z" fill="white"/>
<path fill-rule="evenodd" clip-rule="evenodd" d="M23.9094 23.1702L25.595 22.7186L25.8208 23.5613L24.1352 24.013L23.9094 23.1702Z" fill="#90A4AD"/>
<path fill-rule="evenodd" clip-rule="evenodd" d="M23.5187 25.0811L23.9703 26.7666L23.1276 26.9924L22.6759 25.307L23.5187 25.0811Z" fill="#90A4AD"/>
<path d="M16.6853 16.1177C12.8177 15.1898 8.69245 15.681 5.09766 17.5913C4.62531 17.8423 4.33008 18.3335 4.33008 18.8684V22.072C4.33008 22.9152 5.01367 23.5988 5.85692 23.5988H15.7448V18.3221C15.7448 17.4557 16.1057 16.6735 16.6852 16.1177H16.6853Z" fill="#F3F3F1"/>
<path fill-rule="evenodd" clip-rule="evenodd" d="M18.7987 15.9227C17.4736 15.9227 16.3994 16.9969 16.3994 18.322V23.9932C16.3994 24.2131 16.51 24.4183 16.6935 24.5394C16.8772 24.6605 17.1094 24.6813 17.3115 24.5946L20.1074 23.3964L22.9034 24.5946C23.1055 24.6813 23.3377 24.6605 23.5214 24.5394C23.7049 24.4183 23.8155 24.2131 23.8155 23.9932V18.322C23.8155 16.9969 22.7413 15.9227 21.4162 15.9227H18.7987Z" fill="#FEB46D"/>
<path fill-rule="evenodd" clip-rule="evenodd" d="M16.3994 18.322C16.3994 16.9969 17.4736 15.9227 18.7987 15.9227H20.5437C19.2186 15.9227 18.1444 16.9969 18.1444 18.322V23.9932C18.1444 24.0718 18.1585 24.1485 18.185 24.2203L17.3115 24.5946C17.1094 24.6813 16.8772 24.6605 16.6935 24.5394C16.51 24.4183 16.3994 24.2131 16.3994 23.9932V18.322ZM20.9799 23.7702L22.9034 24.5946C23.1055 24.6813 23.3377 24.6605 23.5214 24.5394C23.6393 24.4617 23.7271 24.3491 23.7748 24.2203L21.8524 23.3964L20.9799 23.7702Z" fill="#FEB46D"/>
<path fill-rule="evenodd" clip-rule="evenodd" d="M8.39668 9.85734C8.39668 7.32759 10.4474 5.27682 12.9772 5.27682C13.3279 5.27682 13.6694 5.31624 13.9976 5.39089C11.959 5.85468 10.4374 7.67832 10.4374 9.85734C10.4374 12.0364 11.959 13.86 13.9976 14.3238C13.6694 14.3984 13.3279 14.4378 12.9772 14.4378C10.4474 14.4378 8.39668 12.3871 8.39668 9.85734ZM13.9273 15.6987C10.909 15.4989 7.84806 16.1297 5.09766 17.5912C4.62531 17.8423 4.33008 18.3335 4.33008 18.8684V22.072C4.33008 22.9152 5.01367 23.5988 5.85692 23.5988H8.03807C7.19491 23.5988 6.51128 22.9152 6.51128 22.072V18.8684C6.51128 18.3335 6.8065 17.8423 7.27884 17.5912C9.36747 16.4814 11.6351 15.8505 13.9273 15.6987H13.9273Z" fill="#D6DBE1"/>
<path fill-rule="evenodd" clip-rule="evenodd" d="M13.6688 6.58554C11.8619 6.58554 10.397 8.05035 10.397 9.85734C10.397 11.6643 11.8619 13.1291 13.6688 13.1291C15.4758 13.1291 16.9406 11.6643 16.9406 9.85734C16.9406 8.05035 15.4758 6.58554 13.6688 6.58554ZM9.08826 9.85734C9.08826 7.32759 11.139 5.27682 13.6688 5.27682C16.1985 5.27682 18.2493 7.32759 18.2493 9.85734C18.2493 12.3871 16.1985 14.4378 13.6688 14.4378C11.139 14.4378 9.08826 12.3871 9.08826 9.85734Z" fill="black"/>
<path fill-rule="evenodd" clip-rule="evenodd" d="M14.1245 17.0256C11.2554 16.7825 8.33315 17.3562 5.71618 18.7469C5.67126 18.7708 5.64319 18.8175 5.64319 18.8684V22.072C5.64319 22.1924 5.74084 22.2901 5.86131 22.2901H13.9318V23.5988H5.86131C5.01806 23.5988 4.33447 22.9152 4.33447 22.072V18.8684C4.33447 18.3335 4.6297 17.8423 5.10205 17.5913C7.94463 16.0806 11.119 15.4575 14.2351 15.7216L14.8871 15.7768L14.7766 17.0809L14.1245 17.0256H14.1245Z" fill="black"/>
<path fill-rule="evenodd" clip-rule="evenodd" d="M16.3994 18.322C16.3994 16.9969 17.4736 15.9227 18.7987 15.9227H21.4162C22.7413 15.9227 23.8155 16.9969 23.8155 18.322V23.9932C23.8155 24.2131 23.7049 24.4183 23.5214 24.5394C23.3377 24.6605 23.1055 24.6813 22.9034 24.5946L20.1074 23.3964L17.3115 24.5946C17.1094 24.6813 16.8772 24.6605 16.6935 24.5394C16.51 24.4183 16.3994 24.2131 16.3994 23.9932V18.322ZM18.7987 17.2314C18.1964 17.2314 17.7081 17.7197 17.7081 18.322V23.0008L19.8497 22.083C20.0143 22.0125 20.2006 22.0125 20.3652 22.083L22.5068 23.0008V18.322C22.5068 17.7197 22.0185 17.2314 21.4162 17.2314H18.7987Z" fill="black"/>
</svg>
