<svg width="33" height="33" viewBox="0 0 62 62" fill="none" xmlns="http://www.w3.org/2000/svg">
<path d="M14.4271 7.17658C26.3397 7.17658 34.5202 1.00586 40.2604 1.00586C46.0006 1.00586 58.0561 4.30564 58.0561 30.7125C58.0561 57.1193 41.838 60.9943 35.5243 60.9943C5.9589 60.996 -6.67016 7.17658 14.4271 7.17658Z" fill="#F5F8FB"/>
<path d="M53.3289 14.9443L54.5467 13.7265L56.9822 16.1621L55.7644 17.3799L53.3289 14.9443Z" fill="#A4AFC1"/>
<path d="M46.3275 7.94238L47.5453 6.72459L49.9809 9.16018L48.7631 10.378L46.3275 7.94238Z" fill="#A4AFC1"/>
<path d="M53.3348 9.47363L55.7704 7.03804L56.9882 8.25584L54.5526 10.6914L53.3348 9.47363Z" fill="#A4AFC1"/>
<path d="M15.0694 50.3753C13.175 50.3753 11.625 48.8253 11.625 46.9309V20.2364C11.625 18.342 13.175 16.792 15.0694 16.792H36.5972C38.4917 16.792 40.0417 18.342 40.0417 20.2364V46.9309C40.0417 48.8339 38.5003 50.3753 36.5972 50.3753H15.0694Z" fill="#F3F3F1"/>
<path d="M48.6528 50.3747H32.2917C31.341 50.3747 30.5695 49.6031 30.5695 48.6525V39.1802C30.5695 38.2296 31.341 37.458 32.2917 37.458H48.6528C49.6035 37.458 50.375 38.2296 50.375 39.1802V48.6525C50.375 49.6031 49.6035 50.3747 48.6528 50.3747Z" fill="#FEB46D"/>
<path d="M16.7916 27.125H34.875V33.1528H16.7916V27.125Z" fill="#FEB46D"/>
<path d="M33.1528 15.0694V18.5139C33.1528 19.4646 32.3813 20.2361 31.4306 20.2361H20.2361C19.2855 20.2361 18.5139 19.4646 18.5139 18.5139V15.0694H22.3889C22.3889 13.175 23.9389 11.625 25.8334 11.625C27.7278 11.625 29.2778 13.175 29.2778 15.0694H33.1528Z" fill="#FEB46D"/>
<path d="M34.4445 48.6525V39.1802C34.4445 38.2296 35.216 37.458 36.1667 37.458H32.2917C31.341 37.458 30.5695 38.2296 30.5695 39.1802V48.6525C30.5695 49.6031 31.341 50.3747 32.2917 50.3747H36.1667C35.216 50.3747 34.4445 49.6031 34.4445 48.6525Z" fill="#FF6600"/>
<path d="M16.7916 27.125H20.6666V33.1528H16.7916V27.125Z" fill="#FF6600"/>
<path d="M27.7707 12.2278C27.2179 11.8489 26.5514 11.625 25.8332 11.625C23.9388 11.625 22.3888 13.175 22.3888 15.0694H26.2638C26.2638 13.8932 26.8631 12.8495 27.7707 12.2278Z" fill="#FF6600"/>
<path d="M22.3888 18.5138V15.0693H18.5138V18.5138C18.5138 19.4644 19.2853 20.236 20.236 20.236H24.111C23.1603 20.236 22.3888 19.4644 22.3888 18.5138Z" fill="#FF6600"/>
<path d="M15.5 46.9309V20.2364C15.5 18.342 17.05 16.792 18.9444 16.792H15.0694C13.175 16.792 11.625 18.342 11.625 20.2364V46.9309C11.625 48.8253 13.175 50.3753 15.0694 50.3753H18.9444C17.05 50.3753 15.5 48.8253 15.5 46.9309Z" fill="#D5DBE1"/>
<path d="M48.6528 51.667H32.2917C30.6298 51.667 29.2778 50.315 29.2778 48.6531V39.1809C29.2778 37.5189 30.6298 36.167 32.2917 36.167H48.6528C50.3148 36.167 51.6667 37.5189 51.6667 39.1809V48.6531C51.6667 50.315 50.3148 51.667 48.6528 51.667ZM32.2917 38.7503C32.0541 38.7503 31.8612 38.9432 31.8612 39.1809V48.6531C31.8612 48.8908 32.0541 49.0837 32.2917 49.0837H48.6528C48.8905 49.0837 49.0834 48.8908 49.0834 48.6531V39.1809C49.0834 38.9432 48.8905 38.7503 48.6528 38.7503H32.2917Z" fill="black"/>
<path d="M40.4722 46.0691C40.1932 46.0691 39.916 45.9796 39.6835 45.8005L30.5385 38.7394L32.116 36.6934L40.4722 43.1448L48.8285 36.6934L50.406 38.7394L41.261 45.8005C41.0285 45.9796 40.7512 46.0691 40.4722 46.0691Z" fill="black"/>
<path d="M28.9506 34.4441H16.7917C16.0787 34.4441 15.5 33.8655 15.5 33.1525V27.1247C15.5 26.4117 16.0787 25.833 16.7917 25.833H34.875C35.588 25.833 36.1667 26.4117 36.1667 27.1247V32.2913H33.5833V28.4163H18.0833V31.8608H28.9506V34.4441Z" fill="black"/>
<path d="M15.5 37.0273H26.7461V39.6107H15.5V37.0273Z" fill="black"/>
<path d="M15.5 42.1943H26.6944V44.7777H15.5V42.1943Z" fill="black"/>
<path d="M41.3334 32.2917H38.7501V20.2361C38.7501 19.0495 37.7839 18.0833 36.5973 18.0833H33.3595V15.5H36.5973C39.2099 15.5 41.3334 17.6235 41.3334 20.2361V32.2917Z" fill="black"/>
<path d="M25.6267 51.6667H15.0695C12.4569 51.6667 10.3334 49.5432 10.3334 46.9306V20.2361C10.3334 17.6235 12.4569 15.5 15.0695 15.5H18.3073V18.0833H15.0695C13.8829 18.0833 12.9167 19.0495 12.9167 20.2361V46.9306C12.9167 48.1172 13.8829 49.0833 15.0695 49.0833H25.6267V51.6667Z" fill="black"/>
<path d="M31.4305 21.5275H20.2361C18.5741 21.5275 17.2222 20.1755 17.2222 18.5136V15.0691C17.2222 14.3561 17.8008 13.7775 18.5138 13.7775H21.2763C21.8412 11.7917 23.6702 10.333 25.8333 10.333C27.9964 10.333 29.8254 11.7917 30.3903 13.7775H33.1527C33.8657 13.7775 34.4444 14.3561 34.4444 15.0691V18.5136C34.4444 20.1755 33.0924 21.5275 31.4305 21.5275ZM19.8055 16.3608V18.5136C19.8055 18.7512 19.9984 18.9441 20.2361 18.9441H31.4305C31.6682 18.9441 31.8611 18.7512 31.8611 18.5136V16.3608H29.2777C28.5647 16.3608 27.9861 15.7821 27.9861 15.0691C27.9861 13.8825 27.0199 12.9163 25.8333 12.9163C24.6467 12.9163 23.6805 13.8825 23.6805 15.0691C23.6805 15.7821 23.1018 16.3608 22.3888 16.3608H19.8055Z" fill="black"/>
</svg>
