<svg width="33" height="31" viewBox="0 0 33 31" fill="none" xmlns="http://www.w3.org/2000/svg">
<path d="M7.4377 4.10034C5.78311 10.2209 1.4757 13.5668 0.678197 16.5166C-0.119303 19.4664 -0.0982207 26.1187 13.4703 29.7872C27.0388 33.4557 31.2829 25.6612 32.1593 22.4163C36.2669 7.22525 10.3683 -6.74016 7.4377 4.10034Z" fill="#F5F8FB"/>
<path d="M10.7705 21.2292C10.7705 22.2421 11.5909 23.0625 12.6038 23.0625H14.4372V25.8125L16.958 23.0625H25.208C26.2209 23.0625 27.0414 22.2421 27.0414 21.2292V13.4375C27.0414 12.4246 26.2209 11.6042 25.208 11.6042H12.6038C11.5909 11.6042 10.7705 12.4246 10.7705 13.4375V21.2292Z" fill="#F3F3F1"/>
<path d="M12.6038 21.2292V13.4375C12.6038 12.4246 13.4243 11.6042 14.4372 11.6042H12.6038C11.5909 11.6042 10.7705 12.4246 10.7705 13.4375V21.2292C10.7705 22.2421 11.5909 23.0625 12.6038 23.0625H14.4372C13.4243 23.0625 12.6038 22.2421 12.6038 21.2292Z" fill="#D5DBE1"/>
<path d="M16.2708 23.8123V23.0625H14.4375V25.8125L16.2708 23.8123Z" fill="#D5DBE1"/>
<path d="M22.2292 7.02083V7.25L14.6667 11.5767C14.3825 11.7325 14.0342 11.7325 13.75 11.5767L6.1875 7.25V7.02083C6.1875 6.0125 7.0125 5.1875 8.02083 5.1875H20.3958C21.4042 5.1875 22.2292 6.0125 22.2292 7.02083Z" fill="#FEB46D"/>
<path d="M22.2292 7.25V14.8125C22.2292 15.8208 21.4042 16.6458 20.3958 16.6458H8.02083C7.0125 16.6458 6.1875 15.8208 6.1875 14.8125V7.25L13.75 11.5767C14.0342 11.7325 14.3825 11.7325 14.6667 11.5767L22.2292 7.25Z" fill="#F3F3F1"/>
<path d="M8.25 7.02083V6.79167C8.25 6.09867 8.64508 5.49917 9.21617 5.1875H8.02083C7.0125 5.1875 6.1875 6.0125 6.1875 7.02083V7.25L13.75 11.5767C14.0342 11.7325 14.3825 11.7325 14.6667 11.5767L15.4403 11.1339L8.25 7.02083Z" fill="#FEB46D"/>
<path d="M8.25 14.8125V8.42975L6.1875 7.25V14.8125C6.1875 15.8208 7.0125 16.6458 8.02083 16.6458H10.0833C9.075 16.6458 8.25 15.8208 8.25 14.8125Z" fill="#D5DBE1"/>
<path d="M23.9093 4.92627C23.1512 4.92627 22.5343 4.30935 22.5343 3.55127C22.5343 2.79319 23.1512 2.17627 23.9093 2.17627C24.6674 2.17627 25.2843 2.79319 25.2843 3.55127C25.2843 4.30935 24.6683 4.92627 23.9093 4.92627ZM23.9093 3.09294C23.6563 3.09294 23.451 3.29827 23.451 3.55127C23.451 3.80427 23.6563 4.0096 23.9093 4.0096C24.1623 4.0096 24.3676 3.80427 24.3676 3.55127C24.3676 3.29827 24.1623 3.09294 23.9093 3.09294Z" fill="#A4AFC1"/>
<path d="M2.74133 23.6226L3.38951 22.9744L4.68588 24.2708L4.03769 24.919L2.74133 23.6226Z" fill="#A4AFC1"/>
<path d="M6.4679 27.3498L7.11608 26.7016L8.41244 27.998L7.76426 28.6462L6.4679 27.3498Z" fill="#A4AFC1"/>
<path d="M2.57971 27.9977L3.87607 26.7013L4.52426 27.3495L3.22789 28.6459L2.57971 27.9977Z" fill="#A4AFC1"/>
<path d="M6.30676 24.2711L7.60313 22.9748L8.25131 23.6229L6.95494 24.9193L6.30676 24.2711Z" fill="#A4AFC1"/>
<path d="M14.208 12.3806C13.933 12.3806 13.6571 12.31 13.4124 12.1707L5.84619 7.84676L6.52819 6.65234L14.0944 10.9753C14.164 11.0157 14.252 11.0157 14.3217 10.9753L21.8879 6.65234L22.5699 7.84676L15.0037 12.1698C14.7589 12.3109 14.483 12.3806 14.208 12.3806Z" fill="black"/>
<path d="M20.3958 17.3333H8.02083C6.63025 17.3333 5.5 16.2031 5.5 14.8125V7.02084C5.5 5.63025 6.63025 4.5 8.02083 4.5H20.3958C21.7864 4.5 22.9167 5.63025 22.9167 7.02084V14.8125C22.9167 16.2031 21.7864 17.3333 20.3958 17.3333ZM8.02083 5.875C7.38925 5.875 6.875 6.38925 6.875 7.02084V14.8125C6.875 15.4441 7.38925 15.9583 8.02083 15.9583H20.3958C21.0274 15.9583 21.5417 15.4441 21.5417 14.8125V7.02084C21.5417 6.38925 21.0274 5.875 20.3958 5.875H8.02083Z" fill="black"/>
<path d="M14.4372 26.5C14.3538 26.5 14.2685 26.4844 14.1878 26.4533C13.9238 26.3506 13.7497 26.0958 13.7497 25.8125V23.75H12.6038C11.2133 23.75 10.083 22.6198 10.083 21.2292V18.9375H11.458V21.2292C11.458 21.8608 11.9723 22.375 12.6038 22.375H14.4372C14.8167 22.375 15.1247 22.683 15.1247 23.0625V24.0452L16.4511 22.5978C16.5813 22.4557 16.7655 22.375 16.958 22.375H25.208C25.8396 22.375 26.3539 21.8608 26.3539 21.2292V13.4375C26.3539 12.8059 25.8396 12.2917 25.208 12.2917H24.5205V10.9167H25.208C26.5986 10.9167 27.7289 12.0469 27.7289 13.4375V21.2292C27.7289 22.6198 26.5986 23.75 25.208 23.75H17.2605L14.9441 26.2773C14.8112 26.4221 14.626 26.5 14.4372 26.5Z" fill="black"/>
</svg>
