<svg width="29" height="29" viewBox="0 0 29 29" fill="none" xmlns="http://www.w3.org/2000/svg">
<path d="M3.35676 22.2905C3.35676 16.7185 0.470459 12.8921 0.470459 10.2072C0.470459 7.52228 2.0139 1.88258 14.3655 1.88258C26.7171 1.88258 28.5296 9.4685 28.5296 12.4217C28.5304 26.2506 3.35676 32.1586 3.35676 22.2905Z" fill="#F5F8FB"/>
<path d="M14.8061 19.3333H13.0903V18.125H14.8061C15.0816 18.125 15.3055 17.9011 15.3055 17.6256C15.3055 17.342 15.0816 17.1181 14.8061 17.1181H14.1939C13.2522 17.1181 12.4861 16.352 12.4861 15.4103C12.4861 14.4605 13.2522 13.6945 14.1939 13.6945H15.9097V14.9028H14.1939C13.9184 14.9028 13.6944 15.1267 13.6944 15.4022C13.6944 15.6858 13.9184 15.9097 14.1939 15.9097H14.8061C15.7478 15.9097 16.5139 16.6758 16.5139 17.6175C16.5139 18.5673 15.7478 19.3333 14.8061 19.3333Z" fill="black"/>
<path d="M13.8958 13.0903H15.1041V14.2986H13.8958V13.0903Z" fill="black"/>
<path d="M13.8958 18.7292H15.1041V19.9375H13.8958V18.7292Z" fill="black"/>
<path d="M23.5601 7.85417V9.46528H5.43506V7.85417C5.43506 6.96806 6.16006 6.24306 7.04617 6.24306H21.9489C22.8431 6.24306 23.5601 6.96806 23.5601 7.85417Z" fill="#FEB46D"/>
<path d="M23.5601 9.46529V21.1458C23.5601 22.0319 22.8431 22.7569 21.9489 22.7569H7.04617C6.16006 22.7569 5.43506 22.0319 5.43506 21.1458V9.46529H23.5601Z" fill="#F3F3F1"/>
<path d="M8.85867 6.24306H7.04617C6.16006 6.24306 5.43506 6.96806 5.43506 7.85417V9.46528H7.24756V7.85417C7.24756 6.96806 7.97256 6.24306 8.85867 6.24306Z" fill="#FEB46D"/>
<path d="M7.24756 21.1458V9.46529H5.43506V21.1458C5.43506 22.0319 6.16006 22.7569 7.04617 22.7569H8.85867C7.97256 22.7569 7.24756 22.0319 7.24756 21.1458Z" fill="#D5DBE1"/>
<path d="M24.4705 24.9214L25.0401 24.3518L26.1799 25.4916L25.6103 26.0612L24.4705 24.9214Z" fill="#A4AFC1"/>
<path d="M24.6129 22.2099L25.7527 21.0701L26.3223 21.6397L25.1825 22.7795L24.6129 22.2099Z" fill="#A4AFC1"/>
<path d="M21.3375 25.4847L22.4768 24.3455L23.0464 24.9151L21.9071 26.0543L21.3375 25.4847Z" fill="#A4AFC1"/>
<path d="M14.8062 19.3333H13.0904V18.125H14.8062C15.0817 18.125 15.3057 17.9011 15.3057 17.6256C15.3057 17.342 15.0817 17.1181 14.8062 17.1181H14.194C13.2523 17.1181 12.4862 16.352 12.4862 15.4103C12.4862 14.4605 13.2523 13.6944 14.194 13.6944H15.9098V14.9028H14.194C13.9185 14.9028 13.6945 15.1267 13.6945 15.4022C13.6945 15.6858 13.9185 15.9097 14.194 15.9097H14.8062C15.7479 15.9097 16.514 16.6758 16.514 17.6175C16.514 18.5673 15.7479 19.3333 14.8062 19.3333Z" fill="black"/>
<path d="M13.8959 13.0903H15.1042V14.2986H13.8959V13.0903Z" fill="black"/>
<path d="M13.8959 18.7292H15.1042V19.9375H13.8959V18.7292Z" fill="black"/>
<path d="M21.9514 23.3611H7.04865C5.82662 23.3611 4.83337 22.3679 4.83337 21.1458V7.85416C4.83337 6.63214 5.82662 5.63889 7.04865 5.63889H21.9514C23.1727 5.63889 24.1667 6.63214 24.1667 7.85416V21.1458C24.1667 22.3679 23.1727 23.3611 21.9514 23.3611ZM7.04865 6.84722C6.49282 6.84722 6.04171 7.29914 6.04171 7.85416V21.1458C6.04171 21.7009 6.49362 22.1528 7.04865 22.1528H21.9514C22.5065 22.1528 22.9584 21.7009 22.9584 21.1458V7.85416C22.9584 7.29914 22.5065 6.84722 21.9514 6.84722H7.04865Z" fill="black"/>
<path d="M5.4375 8.86111H23.5625V10.0695H5.4375V8.86111Z" fill="black"/>
</svg>
