<svg width="31" height="31" viewBox="0 0 64 64" fill="none" xmlns="http://www.w3.org/2000/svg">
<path d="M47.968 6.95815C35.6729 7.18748 27.1111 0.975923 21.1858 1.08792C15.2604 1.19992 2.88178 4.83726 3.392 32.0924C3.90223 59.3475 20.7147 63.0328 27.232 62.9119C57.7458 62.3413 69.7405 6.55103 47.968 6.95815Z" fill="white"/>
<path d="M52 48.4446L51.9627 48.377C47.7351 40.7397 39.6942 36.0001 30.9653 36.0001H27.1111V44.889L12 30.2223L27.1111 15.5557V24.4446H28C41.2551 24.4446 52 35.1894 52 48.4446Z" fill="#FEB46D"/>
<path d="M16 30.2223L27.1111 19.4383V15.5557L12 30.2223L27.1111 44.889V41.0063L16 30.2223Z" fill="#FF7F2E"/>
<path d="M10.6667 46.2225C9.19644 46.2225 7.99999 45.0261 7.99999 43.5558C7.99999 42.0856 9.19644 40.8892 10.6667 40.8892C12.1369 40.8892 13.3333 42.0856 13.3333 43.5558C13.3333 45.0261 12.1369 46.2225 10.6667 46.2225ZM10.6667 42.6669C10.1778 42.6669 9.77777 43.0652 9.77777 43.5558C9.77777 44.0465 10.1778 44.4447 10.6667 44.4447C11.1555 44.4447 11.5555 44.0465 11.5555 43.5558C11.5555 43.0652 11.1555 42.6669 10.6667 42.6669Z" fill="#A4AFC1"/>
<path d="M46.6473 8.19434L47.9044 6.93726L50.4186 9.45141L49.1615 10.7085L46.6473 8.19434Z" fill="#A4AFC1"/>
<path d="M53.8721 15.4214L55.1291 14.1643L57.6433 16.6785L56.3862 17.9355L53.8721 15.4214Z" fill="#A4AFC1"/>
<path d="M46.3372 16.6865L48.8513 14.1724L50.1084 15.4294L47.5942 17.9436L46.3372 16.6865Z" fill="#A4AFC1"/>
<path d="M53.5643 9.46045L56.0785 6.94629L57.3356 8.20337L54.8214 10.7175L53.5643 9.46045Z" fill="#A4AFC1"/>
<path d="M52.0001 49.7779C51.5201 49.7779 51.0685 49.5183 50.8303 49.0828L50.7929 49.0152C46.8054 41.8134 39.2072 37.3334 30.9654 37.3334H28.4445V44.889C28.4445 45.4241 28.1227 45.9076 27.6303 46.1174C27.1396 46.3236 26.5654 46.2188 26.1832 45.8454L11.0721 31.1788C10.8125 30.9281 10.6667 30.5832 10.6667 30.2223C10.6667 29.8614 10.8125 29.5165 11.0721 29.2659L26.1832 14.5992C26.5672 14.2241 27.1396 14.121 27.6303 14.3272C28.1227 14.537 28.4445 15.0205 28.4445 15.5556V23.1148C42.2098 23.353 53.3334 34.6241 53.3334 48.4445C53.3334 49.0543 52.921 49.5859 52.3307 49.737C52.2205 49.7654 52.1103 49.7779 52.0001 49.7779ZM27.1112 34.6668H30.9654C38.3894 34.6668 45.3458 37.9183 50.1014 43.3974C47.801 33.3192 38.7645 25.7779 28.0001 25.7779H27.1112C26.3752 25.7779 25.7778 25.1805 25.7778 24.4445V18.7076L13.9147 30.2223L25.7778 41.737V36.0001C25.7778 35.2641 26.3752 34.6668 27.1112 34.6668Z" fill="black"/>
</svg>
