<svg width="30" height="29" viewBox="0 0 30 29" fill="none" xmlns="http://www.w3.org/2000/svg">
<path d="M22.586 3.15295C17.0156 3.25686 13.1352 0.442253 10.4511 0.493003C7.76697 0.543753 2.15709 2.19192 2.38828 14.5419C2.61947 26.8919 10.2376 28.5618 13.1908 28.507C27.0165 28.2484 32.4524 2.96848 22.586 3.15295Z" fill="white"/>
<path d="M3.78833 3.71632L4.35794 3.14671L5.49717 4.28594L4.92756 4.85555L3.78833 3.71632Z" fill="#A4AFC1"/>
<path d="M3.64612 7.56108L4.78535 6.42186L5.35496 6.99147L4.21573 8.13069L3.64612 7.56108Z" fill="#A4AFC1"/>
<path d="M6.92065 4.28624L8.05988 3.14701L8.6295 3.71663L7.49027 4.85585L6.92065 4.28624Z" fill="#A4AFC1"/>
<path d="M15 23.5625C20.0051 23.5625 24.0625 19.5051 24.0625 14.5C24.0625 9.49492 20.0051 5.4375 15 5.4375C9.99492 5.4375 5.9375 9.49492 5.9375 14.5C5.9375 19.5051 9.99492 23.5625 15 23.5625Z" fill="#F3F3F1"/>
<path d="M7.75 14.5C7.75 9.80119 11.3267 5.93775 15.9062 5.48342C15.6082 5.45361 15.3061 5.4375 15 5.4375C9.99508 5.4375 5.9375 9.49508 5.9375 14.5C5.9375 19.5049 9.99508 23.5625 15 23.5625C15.3061 23.5625 15.6082 23.5464 15.9062 23.5166C11.3267 23.0623 7.75 19.1988 7.75 14.5Z" fill="#D5DBE1"/>
<path d="M21.6459 14.5H15.0001V7.85417C11.3332 7.85417 8.35425 10.8331 8.35425 14.5C8.35425 18.1669 11.3332 21.1458 15.0001 21.1458C18.667 21.1458 21.6459 18.1669 21.6459 14.5Z" fill="#FEB46D"/>
<path d="M10.1667 14.5C10.1667 11.4623 12.2137 8.9022 15.0001 8.11114V7.85417C11.3332 7.85417 8.35425 10.8331 8.35425 14.5C8.35425 18.1669 11.3332 21.1458 15.0001 21.1458C15.3086 21.1458 15.6091 21.1176 15.9063 21.0766C12.668 20.6327 10.1667 17.8584 10.1667 14.5Z" fill="#FEB46D"/>
<path d="M15.0002 24.1667C9.6698 24.1667 5.3335 19.8303 5.3335 14.5C5.3335 9.16963 9.6698 4.83333 15.0002 4.83333C20.3305 4.83333 24.6668 9.16963 24.6668 14.5C24.6668 19.8303 20.3305 24.1667 15.0002 24.1667ZM15.0002 6.04166C10.336 6.04166 6.54183 9.83583 6.54183 14.5C6.54183 19.1642 10.336 22.9583 15.0002 22.9583C19.6643 22.9583 23.4585 19.1642 23.4585 14.5C23.4585 9.83583 19.6643 6.04166 15.0002 6.04166Z" fill="black"/>
<path d="M15 21.75C11.0028 21.75 7.75 18.4972 7.75 14.5C7.75 10.5028 11.0028 7.25 15 7.25C15.3335 7.25 15.6042 7.52067 15.6042 7.85417V13.8958H21.6458C21.9793 13.8958 22.25 14.1665 22.25 14.5C22.25 18.498 18.998 21.75 15 21.75ZM14.3958 8.48814C11.3468 8.79264 8.95833 11.3728 8.95833 14.5C8.95833 17.8318 11.6682 20.5417 15 20.5417C18.1272 20.5417 20.7074 18.1532 21.0119 15.1042H15C14.6665 15.1042 14.3958 14.8335 14.3958 14.5V8.48814Z" fill="black"/>
</svg>
