<svg width="38" height="38" viewBox="0 0 38 38" fill="none" xmlns="http://www.w3.org/2000/svg">
<circle cx="19.2744" cy="18.7257" r="18.7257" fill="#F3BA2F"/>
<path fill-rule="evenodd" clip-rule="evenodd" d="M14.7261 16.8571L19.2717 12.3115L23.8197 16.8595L26.4647 14.2145L19.2717 7.02148L12.0811 14.2121L14.7261 16.8571ZM7.5708 18.7257L10.2158 16.0807L12.8608 18.7257L10.2158 21.3707L7.5708 18.7257ZM19.2723 25.1383L14.7267 20.5926L12.0782 23.2341L12.0817 23.2376L19.2723 30.4283L26.4653 23.2341L23.8203 20.5903L19.2723 25.1383ZM25.685 18.7257L28.33 16.0807L30.975 18.7257L28.33 21.3707L25.685 18.7257ZM21.9621 18.7217H21.9598L19.2773 16.0393L17.2936 18.0219L17.0654 18.2501L16.596 18.7206L16.5914 18.7241L16.596 18.7288L19.2773 21.4089L21.9621 18.7241V18.7217Z" fill="white"/>
</svg>
