<svg width="26" height="35" viewBox="0 0 26 35" fill="none" xmlns="http://www.w3.org/2000/svg">
<path fill-rule="evenodd" clip-rule="evenodd" d="M8.61185 8.71272L8.63996 14.5392H16.9201C18.3907 14.5392 19.5825 13.332 19.5751 11.8473L19.5731 11.4047C19.5659 9.91971 18.3626 8.71272 16.8918 8.71272H9.74536H8.61185ZM20.6266 23.3961L20.6243 22.9283C20.6165 21.2722 19.2759 19.9275 17.6357 19.9275H16.9466H8.66668L8.69801 26.3971H17.6668C19.307 26.3971 20.6347 25.0501 20.6266 23.3961ZM23.2546 16.781C24.9023 18.3139 25.9471 20.4985 25.9589 22.9271L25.9612 23.3949C25.9835 28.0186 22.2743 31.7817 17.6928 31.7817H17.49L17.5018 34.2563H12.1673L12.1554 31.7817H9.96898L9.98096 34.2563H4.64653L4.63455 31.7817H3.3893H0.743743L0.717709 26.3959H3.36327L3.33216 19.9263L3.3059 14.5383L3.27779 8.71175H0.632235L0.606201 3.32394H4.49701L4.48249 0.295898H9.81692L9.83143 3.32394H12.0181L12.0033 0.295898H17.338L17.3525 3.34929C21.5405 3.60586 24.8876 7.11446 24.9083 11.4037L24.9104 11.8463C24.9194 13.7051 24.2966 15.4133 23.2546 16.781Z" fill="white"/>
<path fill-rule="evenodd" clip-rule="evenodd" d="M8.61185 8.71272L8.63996 14.5392H16.9201C18.3907 14.5392 19.5825 13.332 19.5751 11.8473L19.5731 11.4047C19.5659 9.91971 18.3626 8.71272 16.8918 8.71272H9.74536H8.61185ZM20.6266 23.3961L20.6243 22.9283C20.6165 21.2722 19.2759 19.9275 17.6357 19.9275H16.9466H8.66668L8.69801 26.3971H17.6668C19.307 26.3971 20.6347 25.0501 20.6266 23.3961ZM23.2546 16.781C24.9023 18.3139 25.9471 20.4985 25.9589 22.9271L25.9612 23.3949C25.9835 28.0186 22.2743 31.7817 17.6928 31.7817H17.49L17.5018 34.2563H12.1673L12.1554 31.7817H9.96898L9.98096 34.2563H4.64653L4.63455 31.7817H3.3893H0.743743L0.717709 26.3959H3.36327L3.33216 19.9263L3.3059 14.5383L3.27779 8.71175H0.632235L0.606201 3.32394H4.49701L4.48249 0.295898H9.81692L9.83143 3.32394H12.0181L12.0033 0.295898H17.338L17.3525 3.34929C21.5405 3.60586 24.8876 7.11446 24.9083 11.4037L24.9104 11.8463C24.9194 13.7051 24.2966 15.4133 23.2546 16.781Z" fill="white"/>
</svg>
