<svg width="35" height="35" viewBox="0 0 35 35" fill="none" xmlns="http://www.w3.org/2000/svg">
<path fill-rule="evenodd" clip-rule="evenodd" d="M17.1429 0C26.6113 0 34.2857 7.67445 34.2857 17.1429C34.2857 26.6113 26.6113 34.2857 17.1429 34.2857C7.67445 34.2857 0 26.6113 0 17.1429C0 7.67445 7.67445 0 17.1429 0Z" fill="#F0B90B"/>
<path d="M9.4216 17.1429L9.43396 21.6758L13.2856 23.9423V26.5962L7.17984 23.0151V15.8173L9.4216 17.1429ZM9.4216 12.6099V15.2514L7.17847 13.9245V11.283L9.4216 9.95605L11.6757 11.283L9.4216 12.6099ZM14.8941 11.283L17.1373 9.95605L19.3914 11.283L17.1373 12.6099L14.8941 11.283Z" fill="white"/>
<path d="M11.0425 20.7363V18.0824L13.2856 19.4094V22.0508L11.0425 20.7363ZM14.8941 24.8929L17.1373 26.2198L19.3914 24.8929V27.5343L17.1373 28.8613L14.8941 27.5343V24.8929ZM22.6084 11.283L24.8515 9.95605L27.1057 11.283V13.9245L24.8515 15.2514V12.6099L22.6084 11.283ZM24.8515 21.6758L24.8639 17.1429L27.107 15.8159V23.0137L21.0013 26.5948V23.9409L24.8515 21.6758Z" fill="white"/>
<path d="M23.2431 20.7362L21 22.0508V19.4093L23.2431 18.0824V20.7362Z" fill="white"/>
<path d="M23.243 13.5494L23.2554 16.2032L19.3928 18.4697V23.0137L17.1496 24.3282L14.9065 23.0137V18.4697L11.0439 16.2032V13.5494L13.2966 12.2225L17.1359 14.4999L20.9985 12.2225L23.2526 13.5494H23.243ZM11.0425 9.01778L17.1373 5.42438L23.243 9.01778L20.9999 10.3447L17.1373 8.06723L13.2856 10.3447L11.0425 9.01778Z" fill="white"/>
</svg>
