<svg width="39" height="38" viewBox="0 0 39 38" fill="none" xmlns="http://www.w3.org/2000/svg">
<path d="M37.8169 23.4865C35.3257 33.5199 25.1761 39.6341 15.1458 37.1436C5.11552 34.6532 -0.998104 24.501 1.48986 14.4667C3.97783 4.43249 14.1255 -1.68492 24.1566 0.802326C28.9875 1.97757 33.1485 5.03543 35.714 9.29562C38.2795 13.5558 39.0366 18.665 37.8169 23.4865Z" fill="#3CCA4A"/>
<path fill-rule="evenodd" clip-rule="evenodd" d="M26.2744 12.6185C25.377 10.493 23.09 10.3553 20.5816 10.9354L19.7797 7.87133L17.634 8.53419L18.4359 11.5983C18.1362 11.6259 17.868 11.7088 17.5998 11.7916C17.3316 11.8745 17.0634 11.9573 16.7636 11.985L15.9617 8.92092L14.0527 9.44572L14.9807 12.7306C14.7439 12.8687 14.5349 12.917 14.3259 12.9654C14.1168 13.0137 13.9078 13.062 13.6711 13.2001L10.926 13.9183L11.4606 15.961C11.889 15.7802 12.3263 15.6234 12.7701 15.4915C13.6063 15.2981 14.095 15.6017 14.221 15.8225L15.1642 19.6871L16.5007 24.7939C16.6268 25.0147 16.516 25.3736 16.0426 25.6498L14.7331 26.1192L14.7942 28.4381L17.4134 27.4991C17.8418 27.3183 18.2791 27.1616 18.7229 27.0296L19.5248 30.0937L21.6705 29.4308L20.8686 26.3668C21.1683 26.3391 21.4366 26.2562 21.7048 26.1734C21.973 26.0905 22.2412 26.0077 22.5409 25.98L23.1061 29.1822L25.2518 28.5193L24.4499 25.4552C27.7792 24.102 29.7835 22.6387 29.3444 19.6573C29.3303 18.699 28.8927 17.8212 28.1423 17.246C27.3918 16.6708 26.4005 16.4534 25.4193 16.649C26.5046 15.5393 26.8417 13.9503 26.2744 12.6185ZM25.2784 20.3158C25.8259 22.9275 21.6632 23.8904 20.2337 24.138L19.0436 19.8494C19.2925 19.8063 19.6239 19.724 20.0048 19.6294L20.0048 19.6294C21.8117 19.1805 24.7351 18.4541 25.2784 20.3158ZM18.9951 17.8311C20.3919 17.4523 23.2236 16.6843 22.6406 14.6864C22.0424 12.636 19.2466 13.5643 17.9407 13.998C17.8103 14.0413 17.6947 14.0796 17.5977 14.1096L18.5373 17.9599C18.6592 17.9222 18.8153 17.8799 18.9951 17.8311Z" fill="white"/>
</svg>
