<svg width="26" height="34" viewBox="0 0 26 34" fill="none" xmlns="http://www.w3.org/2000/svg">
<path fill-rule="evenodd" clip-rule="evenodd" d="M25.0247 14.0478C25.5426 10.5807 22.9028 8.71686 19.2931 7.47349L20.464 2.77684L17.6044 2.06436L16.4644 6.63724C15.7136 6.44996 14.9417 6.27327 14.1747 6.0982L15.3228 1.49519L12.4656 0.782715L11.2938 5.47774C10.6718 5.33606 10.0611 5.196 9.46828 5.04862L9.47153 5.03397L5.52889 4.04953L4.76837 7.103C4.76837 7.103 6.88951 7.58911 6.84473 7.61924C8.00261 7.9083 8.21269 8.67452 8.17686 9.28196L6.8431 14.6325C6.9229 14.6528 7.02631 14.6821 7.14031 14.7277L6.83903 14.6528L4.96868 22.1481C4.82699 22.4998 4.46791 23.0275 3.65853 22.8272C3.68703 22.8687 1.58054 22.3085 1.58054 22.3085L0.161285 25.5818L3.88245 26.5093C4.30251 26.6145 4.71746 26.7228 5.12787 26.8299L5.12824 26.8299C5.39393 26.8993 5.65771 26.9681 5.91973 27.0353L4.73661 31.7865L7.59222 32.499L8.76476 27.799C9.544 28.0108 10.3013 28.2062 11.0422 28.3902L9.87459 33.0681L12.7335 33.7806L13.9166 29.0392C18.7916 29.9617 22.4582 29.5896 23.9996 25.1812C25.2429 21.631 23.9385 19.5832 21.3736 18.247C23.2415 17.8146 24.6485 16.5859 25.0239 14.0478H25.0247ZM18.4938 23.2075C17.6822 26.4659 12.5809 25.1177 10.2489 24.5014L10.2488 24.5013C10.04 24.4461 9.85345 24.3968 9.69413 24.3572L11.264 18.0638C11.4588 18.1124 11.6967 18.1658 11.9663 18.2263C14.3788 18.7677 19.323 19.8771 18.4947 23.2075H18.4938ZM12.4505 15.3057C14.3963 15.8248 18.6377 16.9564 19.3766 13.9964C20.132 10.9682 16.0077 10.0555 13.9934 9.60978C13.767 9.55967 13.5672 9.51546 13.404 9.47481L11.9807 15.1828C12.1154 15.2163 12.2735 15.2585 12.4505 15.3057Z" fill="white"/>
</svg>
