<svg width="39" height="38" viewBox="0 0 39 38" fill="none" xmlns="http://www.w3.org/2000/svg">
<path d="M38.1948 18.7257C38.1948 29.0768 29.8203 37.4513 19.4691 37.4513C15.2559 37.4513 11.1466 36.0209 7.84363 33.3941C6.95937 32.6919 6.15312 31.9376 5.4249 31.0794C-0.816981 24.0313 -0.816981 13.4201 5.3989 6.34591C6.12712 5.51366 6.95937 4.73343 7.81763 4.03122C11.1466 1.43043 15.2559 0 19.4691 0C29.8203 0 38.1948 8.37453 38.1948 18.7257Z" fill="#BBA025"/>
<path d="M34.7623 18.7241C34.7623 5.98025 26.2057 4.05566 23.2148 4.05566H7.84415C6.95989 4.75788 6.15364 5.5121 5.42542 6.37036V11.2858H9.27458V26.2144H5.39941V31.1298C6.12763 31.9621 6.95989 32.7423 7.81815 33.4445H23.1888C26.2317 33.3925 34.7623 31.4679 34.7623 18.7241ZM17.8052 26.1884V11.2598H21.0301C21.8624 11.2598 25.4775 12.9504 25.4775 18.7241C25.4775 24.4978 21.8884 26.1884 21.0301 26.1884H17.8052Z" fill="#F0EFEB"/>
</svg>
