<svg width="39" height="38" viewBox="0 0 39 38" fill="none" xmlns="http://www.w3.org/2000/svg">
<path d="M19.336 0.183594C8.99411 0.183594 0.610352 8.56735 0.610352 18.9092C0.610352 29.2511 8.99411 37.6349 19.336 37.6349C29.6779 37.6349 38.0616 29.2511 38.0616 18.9092C38.0616 8.56735 29.6779 0.183594 19.336 0.183594Z" fill="white"/>
<g clip-path="url(#clip0)">
<path d="M28.5388 11.5458L25.7203 13.088L12.09 20.5619C12.046 20.1823 12.024 19.8026 12.024 19.423C12.024 14.6303 15.6793 10.6917 20.1273 10.6917C21.5145 10.6917 22.8797 11.0713 24.0908 11.8068L25.6983 10.9289L25.9405 10.7866C24.245 9.45789 22.2191 8.74609 20.1273 8.74609C14.6884 8.74609 10.2183 13.5626 10.2183 19.423C10.2183 19.684 10.2183 19.9687 10.2404 20.2297C10.2844 21.0127 9.91007 21.7482 9.27149 22.1041L8.41272 22.5786V24.7615L10.923 23.3853L11.7377 22.9345L12.5304 22.4837L26.8873 14.6065L28.4948 13.7287L31.8198 11.9017V9.71888L28.5388 11.5458ZM31.8198 13.0169L13.3405 23.1718L11.7346 24.0497L8.41272 25.8766V28.0594L11.7126 26.2562L14.5285 24.714L28.1459 17.2402C28.1899 17.6198 28.2119 17.9994 28.2119 18.379C28.2119 23.1718 24.5601 27.1104 20.1163 27.1104C18.7303 27.1104 17.3664 26.7308 16.1564 25.9952L16.0684 26.0427L14.3305 27.0155C15.9804 28.3204 18.0263 29.0322 20.1163 29.0322C25.55 29.0322 30.0159 24.2157 30.0159 18.3553C30.0159 18.0706 30.0159 17.8096 29.9939 17.5249C29.9499 16.7419 30.3238 16.0064 30.9618 15.6505L31.8198 15.176V13.0169Z" fill="#1F1F1F"/>
</g>
<defs>
<clipPath id="clip0">
<rect width="23.4071" height="20.2861" fill="white" transform="translate(8.41272 8.74609)"/>
</clipPath>
</defs>
</svg>
