<svg width="39" height="38" viewBox="0 0 39 38" fill="none" xmlns="http://www.w3.org/2000/svg">
<circle cx="19.6601" cy="18.9087" r="18.7251" fill="white"/>
<path d="M19.6449 0.183594C9.33168 0.183594 0.935059 8.58021 0.935059 18.8935C0.935059 20.9622 1.26971 22.9701 1.87816 24.8258H7.4759V9.06697L19.6449 21.236L31.8139 9.06697V24.8258H37.4421C38.0505 22.9701 38.3852 20.9926 38.3852 18.9239C38.3852 8.58021 29.9886 0.183594 19.6449 0.183594Z" fill="#FF6600"/>
<path d="M16.845 24.0368L11.5514 18.7129V28.6306H3.672C6.95763 34.0154 12.89 37.6357 19.6742 37.6357C26.4585 37.6357 32.3909 34.0458 35.6765 28.6306H27.7666V18.7129L22.4427 24.0368L19.6438 26.8357L16.845 24.0368Z" fill="#4C4C4C"/>
</svg>
