<svg width="18" height="18" viewBox="0 0 18 17" fill="none" xmlns="http://www.w3.org/2000/svg">
<path d="M8.09091 5.37744H6.50049V6.87892H8.09091C8.50487 6.87892 8.84165 6.54214 8.84165 6.12818C8.84165 5.71422 8.50487 5.37744 8.09091 5.37744Z" fill="#9FA8B1"/>
<path d="M8.09091 7.73486H6.50049V9.23634H8.09091C8.50487 9.23634 8.84165 8.89956 8.84165 8.4856C8.84165 8.07164 8.50487 7.73486 8.09091 7.73486Z" fill="#9FA8B1"/>
<path d="M12.4739 2.14016C11.0937 0.760073 9.2588 0 7.30702 0C5.35525 0 3.5203 0.760073 2.14016 2.14016C0.760073 3.5203 0 5.35525 0 7.30702C0 9.2588 0.760073 11.0937 2.14016 12.4739C3.5203 13.854 5.35525 14.614 7.30702 14.614C9.2588 14.614 11.0937 13.854 12.4739 12.4739C13.854 11.0937 14.614 9.2588 14.614 7.30702C14.614 5.35525 13.854 3.5203 12.4739 2.14016ZM7.30702 13.5446C3.86761 13.5446 1.06948 10.7464 1.06948 7.30702C1.06948 3.86761 3.86761 1.06948 7.30702 1.06948C10.7464 1.06948 13.5446 3.86761 13.5446 7.30702C13.5446 10.7464 10.7464 13.5446 7.30702 13.5446Z" fill="#9FA8B1"/>
<path d="M7.30703 1.92578C4.33981 1.92578 1.92578 4.33981 1.92578 7.30703C1.92578 10.2743 4.33981 12.6883 7.30703 12.6883C10.2743 12.6883 12.6883 10.2743 12.6883 7.30703C12.6883 4.33981 10.2743 1.92578 7.30703 1.92578ZM9.69783 8.48592C9.69783 9.19584 9.23495 9.7993 8.59527 10.0114V10.6847H7.73898V10.093H7.21707V10.6847H6.36077V10.093H5.64411V7.73518V6.87889V4.52112H6.36077V3.92939H7.21707V4.52112H7.73898V3.92939H8.59527V4.60269C9.23495 4.8148 9.69783 5.41825 9.69783 6.12815C9.69783 6.5936 9.49871 7.01327 9.18143 7.30703C9.49871 7.6008 9.69783 8.02047 9.69783 8.48592Z" fill="#9FA8B1"/>
<circle cx="13.421" cy="12.8244" r="4.17544" fill="#F5F8FB"/>
<path d="M13.368 15.7316L13.365 15.9027C13.3649 15.9027 13.3649 15.9027 13.3648 15.9027L13.368 15.7316ZM13.4829 9.41587C13.4828 9.41587 13.4828 9.41587 13.4828 9.41587L13.4858 9.2462L13.4829 9.41587ZM10.3427 12.7684L10.5138 12.7715L10.3427 12.7684Z" fill="#9FA8B1" stroke="#9FA8B1"/>
<path d="M13.4682 10.2143C12.0292 10.1889 10.8377 11.3387 10.8124 12.7777C10.7855 14.2152 11.9352 15.4067 13.3743 15.4336C14.8133 15.4589 16.0048 14.3092 16.0302 12.8716C16.0555 11.4326 14.9073 10.2411 13.4682 10.2143V10.2143ZM13.4213 10.9581L14.2505 12.4376L13.4937 12.0164C13.4485 11.9914 13.3938 11.9914 13.3486 12.0164L12.5918 12.4376L13.4213 10.9581ZM13.4213 14.6896L12.5918 13.2102L13.3486 13.6313C13.3712 13.6438 13.3962 13.6501 13.4211 13.6501C13.446 13.6501 13.4711 13.6438 13.4936 13.6313L14.2504 13.2102L13.4213 14.6896ZM13.4213 13.3302L12.511 12.8238L13.4213 12.3174L14.3314 12.8238L13.4213 13.3302Z" fill="#9FA8B1"/>
</svg>
