<?xml version="1.0" encoding="utf-8"?>
<!-- Generator: Adobe Illustrator 24.0.0, SVG Export Plug-In . SVG Version: 6.00 Build 0)  -->
<svg version="1.1" id="Слой_1" xmlns="http://www.w3.org/2000/svg" xmlns:xlink="http://www.w3.org/1999/xlink" x="0px" y="0px"
	 viewBox="0 0 50 50" style="enable-background:new 0 0 50 50;" xml:space="preserve">
<style type="text/css">
	.st0{fill-rule:evenodd;clip-rule:evenodd;fill:#E33E23;}
	.st1{fill-rule:evenodd;clip-rule:evenodd;fill:#FFFFFF;}
</style>
<title>perfect_money</title>
<desc>Created with Sketch.</desc>
<g>
	<circle class="st0" cx="25" cy="25" r="25"/>
	<path class="st1" d="M5.7,25.3c0,0,11.1,2.4,12.7-2.8c1.5-5.1-3.6-6.1-3.6-6.1h-2.2v8.5h-2.4v-8.2H8.1v-0.9c0,0,8,0,8.9,0.1
		c4.5,0.5,6.6,8.5-0.5,10.1C11,27.3,5.7,25.3,5.7,25.3L5.7,25.3z M10.2,27.2v5.1c0,0,0,1.1-1,1.1c-1,0-1.2,0-1.2,0v0.9h6.9v-0.9
		h-1.5c0,0-0.8-0.1-0.8-0.9v-5.3L10.2,27.2L10.2,27.2L10.2,27.2z M19.1,34.2h7v-1.1h-2c0,0-0.6-0.4-0.6-1.1V19.2l7.8,15l7.6-14.7
		l-0.2,12.7c0,0,0.2,1-0.9,1c-1.1,0-1.3,0-1.3,0l0,0.8h7v-1h-1.6c0,0-0.7,0.1-0.7-0.7c0-0.7,0-15.4,0-15.4s0-0.3,0.6-0.3H43v-1h-4.3
		l-7.1,14.7l-7.1-14.6h-3.9v0.9h1.2c0,0,0.4,0,0.4,0.6c0,0.6-0.2,14.9-0.2,14.9s0.1,1.1-1.2,1.1c-1.2,0-1.9,0-1.9,0L19.1,34.2
		L19.1,34.2L19.1,34.2z"/>
</g>
</svg>
