<svg width="35" height="35" viewBox="0 0 35 35" fill="none" xmlns="http://www.w3.org/2000/svg">
<path d="M22.0395 1.70382C19.7353 3.01557 18.3709 5.38437 18.3709 7.88231C18.3709 9.19406 18.9145 10.516 19.595 11.6954C20.1386 12.7489 20.4051 14.5875 18.5079 15.5085C17.1541 16.2935 15.3829 15.7701 14.5728 14.455C13.7626 13.4015 12.8122 12.348 11.5882 11.5629C9.28397 10.2511 6.5658 10.2511 4.26145 11.5629C1.95709 12.8746 0.596252 15.2493 0.596252 17.748C0.596252 20.2466 1.95008 22.6145 4.26092 23.9298C6.5651 25.2416 9.28327 25.2416 11.5876 23.9298C12.8117 23.2706 13.7619 22.2239 14.4355 21.0377C14.9791 20.1168 16.4732 18.9307 18.3706 19.9842C19.7244 20.7692 20.1312 22.4856 19.4577 23.7973C18.7774 24.9833 18.3706 26.2986 18.3706 27.6104C18.3706 30.1117 19.7244 32.477 22.0391 33.7889C24.3433 35.1006 27.0615 35.1006 29.3658 33.7889C31.6702 32.4771 33.0347 30.1083 33.0347 27.6104C33.0347 25.1125 31.6774 22.7438 29.3662 21.4285C28.1421 20.7692 26.7848 20.5076 25.2942 20.5076C24.0701 20.5076 22.4463 19.7226 22.4463 17.748C22.4463 16.1677 23.6703 14.9884 25.2942 14.9884C26.648 14.9884 28.1421 14.7267 29.3662 14.0674C31.6704 12.7557 33.0347 10.3869 33.0347 7.8891C33.0347 5.39134 31.6774 3.02254 29.3662 1.71062C28.279 1.05135 26.9251 0.789676 25.7015 0.789676C24.4845 0.78288 23.1201 1.05135 22.04 1.70382" fill="white"/>
</svg>
