<svg width="30" height="34" viewBox="0 0 30 34" fill="none" xmlns="http://www.w3.org/2000/svg">
<g clip-path="url(#clip0)">
<path fill-rule="evenodd" clip-rule="evenodd" d="M26.3066 16.6723C24.5857 18.7548 22.9099 20.808 22.9099 20.808C22.9099 20.808 24.3832 23.151 23.7825 26.4629C23.1822 29.7741 21.2798 32.016 21.2798 32.016C21.2798 32.016 21.1216 30.0685 20.6906 28.9817C20.2609 27.8945 18.5626 25.7434 18.5626 25.7434C18.5626 25.7434 17.7931 26.6798 16.9025 26.7251C16.5659 26.7417 16.0248 26.4792 15.3933 26.0812C15.3184 26.1939 15.2416 26.3064 15.1624 26.4176C12.6833 29.9202 9.22959 31.7376 7.44879 30.4776C5.66775 29.2164 6.23358 25.3558 8.71336 21.8532C8.8181 21.7044 8.925 21.5606 9.0336 21.4188C8.33823 20.833 7.83307 20.2946 7.79985 19.9168C7.72424 19.0563 8.11647 18.4681 8.11647 18.4681C8.11647 18.4681 6.4563 17.7741 4.79565 17.7284C3.13548 17.6826 1.39899 18.1808 1.39899 18.1808C1.39899 18.1808 2.9992 15.4636 5.61093 14.0146C8.22241 12.5654 11.5283 12.6258 11.5283 12.6258C11.5283 12.6258 13.0375 10.0146 13.7625 8.79189L13.8456 8.65099C14.5981 7.37379 16.0938 4.83527 19.8157 2.82925C23.6797 0.746276 28.299 1.06314 28.299 1.06314C28.299 1.06314 29.5366 4.56478 29.5366 8.18802C29.5366 11.811 28.0274 14.5886 26.3066 16.6723ZM21.3226 7.0243C19.2798 7.0243 17.6237 8.67989 17.6237 10.7227C17.6237 12.7652 19.2798 14.421 21.3226 14.421C23.3646 14.421 25.0207 12.7652 25.0207 10.7227C25.0209 8.67989 23.3649 7.0243 21.3226 7.0243ZM9.21544 27.9288C7.96821 27.008 8.28917 24.4591 9.93104 22.2363C9.93411 22.2319 9.93735 22.2279 9.94059 22.2238C9.94421 22.2193 9.94784 22.2147 9.95126 22.2098C10.3964 22.5427 10.8597 22.874 11.295 23.1852C11.5085 23.338 11.7154 23.4859 11.91 23.6268C12.2252 23.8556 12.5656 24.1109 12.916 24.3738C13.4311 24.7602 13.9681 25.163 14.4793 25.5224C14.474 25.5299 14.4689 25.5373 14.4639 25.5448C14.458 25.5536 14.4521 25.5624 14.4456 25.571C12.803 27.7944 10.462 28.8492 9.21544 27.9288Z" fill="white"/>
</g>
<defs>
<clipPath id="clip0">
<rect width="29.75" height="34" fill="white"/>
</clipPath>
</defs>
</svg>
