<svg width="39" height="38" viewBox="0 0 39 38" fill="none" xmlns="http://www.w3.org/2000/svg">
<path d="M19.4042 0C29.7408 0 38.1299 8.38909 38.1299 18.7257C38.1299 29.0622 29.7408 37.4513 19.4042 37.4513C9.06768 37.4513 0.678589 29.0622 0.678589 18.7257C0.678589 8.38909 9.06768 0 19.4042 0Z" fill="#53AE94"/>
<path fill-rule="evenodd" clip-rule="evenodd" d="M21.7254 13.4833V16.2547C26.8936 16.4794 30.7886 17.5281 30.7886 18.7265C30.7886 19.9249 26.8936 20.9736 21.6505 21.1983V30.1117H17.0814V21.1983C11.9131 20.9736 8.01819 19.9249 8.01819 18.7265C8.01819 17.5281 11.9131 16.4794 17.0814 16.2547V13.4833H10.7147V9.21387H28.0921V13.4833H21.7254ZM21.5182 20.4618C21.6211 20.4551 21.6893 20.4506 21.726 20.4506C26.295 20.2258 29.6656 19.4768 29.6656 18.5031C29.6656 17.5294 26.295 16.7803 21.726 16.5556V19.7015C21.712 19.7015 21.6745 19.7041 21.6136 19.7084C21.348 19.7269 20.6365 19.7764 19.4789 19.7764C18.6799 19.7764 18.0474 19.7431 17.6257 19.721C17.4149 19.7099 17.2568 19.7015 17.1569 19.7015V16.5556C12.5879 16.7803 9.14233 17.5294 9.14233 18.5031C9.14233 19.4768 12.513 20.2258 17.1569 20.4506C17.4565 20.5255 18.2805 20.5255 19.4789 20.5255C20.5534 20.5255 21.2009 20.4828 21.5182 20.4618Z" fill="white"/>
</svg>
