<svg width="39" height="38" viewBox="0 0 39 38" fill="none" xmlns="http://www.w3.org/2000/svg">
<circle cx="19.3393" cy="18.7257" r="18.7257" fill="black"/>
<path fill-rule="evenodd" clip-rule="evenodd" d="M31.6426 13.1816L31.0695 12.781L31.0692 12.7807C30.177 12.1571 29.2469 11.5069 28.3334 10.8609L28.3333 10.8609C28.3088 10.8424 28.2842 10.824 28.2535 10.8056C28.1308 10.7135 27.9895 10.6153 27.8176 10.56L27.8054 10.5539C25.0934 9.89832 22.3406 9.22741 19.6588 8.57382L18.8907 8.38663C17.5645 8.0643 16.2399 7.74196 14.9153 7.41963L14.9152 7.41962L14.9152 7.41961L14.9146 7.41945C13.5902 7.09719 12.2659 6.77493 10.94 6.45267C10.8725 6.43425 10.8049 6.41583 10.7312 6.39741C10.4918 6.32988 10.2155 6.2562 9.92082 6.29304C9.83487 6.30532 9.7612 6.33602 9.69366 6.37899L9.61999 6.44039C9.50333 6.5509 9.44194 6.69211 9.41124 6.77193L9.39282 6.82104V7.10346L9.4051 7.14644C10.6653 10.6778 11.9498 14.2474 13.2143 17.7612C13.6316 18.9208 14.0467 20.0743 14.458 21.2183C14.8351 22.2664 15.2166 23.3257 15.6002 24.3912L15.6048 24.4038L15.6054 24.4054C16.5191 26.943 17.4454 29.5155 18.3566 32.0546C18.4364 32.3002 18.6636 32.4598 18.946 32.4844H19.0074C19.2714 32.4844 19.5047 32.3555 19.6213 32.1467L24.4839 25.0555C25.0758 24.1937 25.6678 23.3303 26.2597 22.4669L26.2613 22.4645L26.2645 22.4599C26.8559 21.5973 27.4473 20.7348 28.0387 19.8737C28.2812 19.5207 28.5237 19.1662 28.7661 18.8117C29.0087 18.4571 29.2512 18.1025 29.4937 17.7495L29.5933 17.6039L29.5935 17.6037L29.5937 17.6033C30.3605 16.4826 31.1486 15.3307 31.9311 14.2069L31.9741 14.1455V14.0719C31.9925 13.857 31.9987 13.4149 31.6426 13.1816ZM24.6563 16.4394L24.6559 16.4396C23.9302 16.8194 23.1975 17.2029 22.4624 17.5839L23.4877 16.4849L24.513 15.3859C25.2559 14.5842 26.0267 13.7593 26.789 12.9435L26.79 12.9424L27.1284 12.5802L27.1469 12.5617C27.2205 12.4635 27.3126 12.3714 27.4109 12.2732C27.4275 12.2565 27.4445 12.2399 27.4618 12.223L27.4619 12.2229C27.5144 12.1715 27.5688 12.1184 27.6196 12.0583C28.0739 12.3714 28.5344 12.6907 28.9764 13.0038C29.2957 13.231 29.6211 13.4581 29.9526 13.6853C28.6019 14.3729 27.2512 15.079 25.9435 15.7666C25.519 15.988 25.091 16.2119 24.6606 16.4372L24.6563 16.4394ZM20.3195 18.3627C21.222 17.3988 22.1307 16.4226 23.0086 15.4709L23.7823 14.6394L23.7825 14.6392C24.6915 13.6618 25.617 12.6668 26.5389 11.6828C24.7585 11.25 22.9765 10.8172 21.1946 10.3844L21.1879 10.3827L21.1775 10.3802C19.4012 9.94876 17.6248 9.51728 15.8499 9.08581C15.2175 8.92618 14.5729 8.77269 13.9528 8.62534C13.2467 8.45957 12.5284 8.28766 11.8162 8.10348C11.8527 8.14769 11.8893 8.1913 11.9256 8.23468L11.9256 8.23469C12.0053 8.32987 12.0841 8.42397 12.16 8.52097C12.2151 8.58788 12.2702 8.65606 12.3256 8.72449L12.3256 8.72455C12.4428 8.86957 12.5609 9.0157 12.6819 9.15334L12.688 9.15948C13.0811 9.63238 13.4757 10.1068 13.8703 10.5813C14.2646 11.0554 14.659 11.5295 15.0518 12.0021C16.7831 14.0834 18.5697 16.2384 20.3195 18.3627ZM19.9782 26.9008L19.9784 26.8998C20.0287 26.4273 20.0796 25.9496 20.1241 25.4783L20.1793 24.9537C20.2162 24.6031 20.253 24.2524 20.2898 23.9127L20.3287 23.5449L20.3287 23.5447C20.4029 22.8433 20.4789 22.125 20.5416 21.42L20.56 21.2727C20.6214 20.7447 20.6828 20.1982 20.7196 19.6518C20.7871 19.615 20.8608 19.5781 20.9406 19.5474C20.9636 19.5367 20.9867 19.5263 21.0097 19.516C21.0788 19.4849 21.1478 19.4538 21.2169 19.4124C22.6351 18.6695 24.0534 17.9266 25.4778 17.1899C26.896 16.4531 28.3511 15.6918 29.7939 14.9366C28.48 16.8399 27.16 18.7616 25.883 20.6341L25.1629 21.6844L25.1628 21.6846C24.2935 22.953 23.4102 24.2415 22.5308 25.5151C22.2808 25.8831 22.025 26.255 21.7711 26.6241L21.7709 26.6243C21.5758 26.908 21.3817 27.19 21.1923 27.4675C20.7012 28.1797 20.1977 28.9103 19.7066 29.6409C19.768 28.9041 19.8416 28.1612 19.9215 27.4368C19.9401 27.2593 19.9591 27.0804 19.9782 26.9008ZM11.2813 9.33049C11.3086 9.40484 11.3359 9.4792 11.3625 9.55288C12.7499 13.4165 14.1374 17.2747 15.5249 21.1329C16.2187 23.0622 16.9125 24.9916 17.6064 26.9217L18.2633 28.7451C18.3493 28.9969 18.4414 29.2547 18.5335 29.5003C18.5453 29.5334 18.558 29.5674 18.5709 29.6019C18.5916 29.6571 18.6128 29.7138 18.6317 29.7704C18.6568 29.5364 18.6806 29.3023 18.7043 29.0694C18.7328 28.7892 18.7611 28.5105 18.7913 28.2356C18.8026 28.1293 18.8139 28.0228 18.8252 27.9161C18.9437 26.8011 19.065 25.6591 19.1658 24.5273L19.172 24.4843C19.172 24.4843 19.2702 23.637 19.3132 23.2625C19.3202 23.2012 19.3274 23.1395 19.3348 23.0776C19.3597 22.8669 19.3849 22.6533 19.3991 22.4398V22.4337C19.4483 21.9978 19.4912 21.568 19.5342 21.1382C19.5614 20.8911 19.5876 20.6401 19.614 20.3871C19.6531 20.0113 19.6928 19.6313 19.7368 19.2534C19.5689 19.0673 19.4111 18.8746 19.2559 18.6851C19.2011 18.6182 19.1466 18.5516 19.0922 18.4859C18.9325 18.2895 18.7668 18.0869 18.601 17.8965C18.0403 17.2171 17.4795 16.5432 16.9188 15.8692C16.6384 15.5322 16.358 15.1952 16.0776 14.8575C14.4507 12.9051 12.7807 10.8913 11.123 8.88981C11.1721 9.03306 11.2267 9.18177 11.2813 9.33049Z" fill="white"/>
</svg>
