<svg width="36" height="36" viewBox="0 0 36 36" fill="none" xmlns="http://www.w3.org/2000/svg">
<path d="M18.0003 35.1428C27.468 35.1428 35.1431 27.4677 35.1431 17.9999C35.1431 8.53217 27.468 0.857056 18.0003 0.857056C8.53254 0.857056 0.857422 8.53217 0.857422 17.9999C0.857422 27.4677 8.53254 35.1428 18.0003 35.1428Z" fill="#c53228"/>
<path d="M29.2636 12.9245C28.2912 12.2444 27.2514 11.5193 26.2341 10.7999C26.2116 10.783 26.1891 10.7661 26.161 10.7493C26.0486 10.665 25.9194 10.575 25.762 10.5245L25.7507 10.5188C23.0304 9.86123 20.265 9.18676 17.5896 8.53476C15.1615 7.9446 12.739 7.35444 10.3109 6.76427C10.2491 6.74741 10.1873 6.73055 10.1198 6.71369C9.90062 6.65186 9.64769 6.58441 9.3779 6.61814C9.29922 6.62938 9.23177 6.65748 9.16994 6.69682L9.10249 6.75303C8.9957 6.8542 8.9395 6.98348 8.91139 7.05654L8.89453 7.10151V7.36006L8.90577 7.3994C10.4402 11.6992 12.014 16.0608 13.5315 20.2818C14.7006 23.5306 15.9147 26.8973 17.1006 30.2022C17.1737 30.427 17.3816 30.5732 17.6402 30.5957H17.6964C17.9381 30.5957 18.1517 30.4776 18.2585 30.2865L22.71 23.7947C23.7948 22.2153 24.8795 20.6303 25.9643 19.0509C26.4083 18.4046 26.8524 17.7526 27.2964 17.1062C28.0271 16.0383 28.7802 14.9366 29.5278 13.8631L29.5671 13.8069V13.7394C29.584 13.5427 29.5896 13.138 29.2636 12.9245ZM24.0477 15.2907C23.0023 15.8359 21.9343 16.398 20.8608 16.9544C21.4847 16.2856 22.1142 15.6111 22.7381 14.9423C23.5194 14.0992 24.3343 13.228 25.1325 12.3736L25.1493 12.3568C25.2168 12.2668 25.3011 12.1825 25.391 12.0926C25.4528 12.0308 25.5203 11.969 25.5821 11.8959C25.998 12.1825 26.4196 12.4748 26.8243 12.7615C27.1165 12.9694 27.4144 13.1774 27.7179 13.3854C26.4814 14.0149 25.2449 14.6612 24.0477 15.2907ZM21.361 15.0209C20.5573 15.8921 19.7254 16.7858 18.8992 17.6683C17.2973 15.7235 15.6617 13.7507 14.0767 11.8453C13.3573 10.9797 12.6322 10.1085 11.9128 9.24296L11.9072 9.23734C11.7442 9.05186 11.5868 8.84952 11.4294 8.65842C11.3283 8.52914 11.2215 8.40549 11.1147 8.27622C11.7667 8.44483 12.4243 8.60221 13.0706 8.75397C13.6383 8.88886 14.2285 9.02938 14.8074 9.17551C18.0674 9.96802 21.3329 10.7605 24.5929 11.553C23.5081 12.7109 22.4177 13.8856 21.361 15.0209ZM18.5339 25.9755C18.5957 25.3854 18.6631 24.7783 18.7194 24.1825C18.7699 23.7048 18.8205 23.2158 18.8711 22.7493C18.9498 22.0017 19.0341 21.2261 19.1016 20.4673L19.1184 20.3324C19.1746 19.8491 19.2308 19.3488 19.2646 18.8486C19.3264 18.8149 19.3938 18.7811 19.4669 18.753C19.5512 18.7137 19.6355 18.68 19.7198 18.6294C21.0182 17.9493 22.3165 17.2692 23.6205 16.5947C24.9189 15.9202 26.251 15.2233 27.5718 14.532C26.369 16.2743 25.1606 18.0336 23.9915 19.7479C22.9854 21.2149 21.9512 22.7268 20.9226 24.2163C20.5179 24.8121 20.0964 25.4191 19.6973 26.0036C19.2477 26.6556 18.7868 27.3245 18.3372 27.9933C18.3934 27.3188 18.4608 26.6387 18.5339 25.9755ZM10.6987 9.60268C10.6257 9.40034 10.547 9.19238 10.4795 8.99565C11.9971 10.828 13.5259 12.6715 15.0154 14.4589C15.7854 15.3863 16.5554 16.3081 17.3254 17.2411C17.4772 17.4153 17.629 17.6008 17.7751 17.7807C17.9662 18.0111 18.1573 18.2528 18.3653 18.4832C18.2978 19.0622 18.2416 19.6467 18.1798 20.2088C18.1404 20.6022 18.1011 20.9957 18.0561 21.3947V21.4003C18.0393 21.6533 18.0055 21.9062 17.9774 22.1535C17.9381 22.4964 17.8482 23.272 17.8482 23.272L17.8425 23.3113C17.7414 24.4467 17.6177 25.5933 17.4997 26.7062C17.4491 27.1671 17.4041 27.6392 17.3535 28.1113C17.3254 28.027 17.2917 27.9427 17.2636 27.864C17.1793 27.6392 17.095 27.4032 17.0163 27.1727L16.4149 25.5034C14.5095 20.2031 12.6041 14.9085 10.6987 9.60268Z" fill="white"/>
</svg>
