<svg width="39" height="38" viewBox="0 0 39 38" fill="none" xmlns="http://www.w3.org/2000/svg">
<path d="M18.6519 0.951172C8.7237 0.951172 0.675293 8.99958 0.675293 18.9278C0.675293 28.856 8.7237 36.9044 18.6519 36.9044C28.5801 36.9044 36.6285 28.856 36.6285 18.9278C36.6285 8.99958 28.5801 0.951172 18.6519 0.951172Z" fill="white"/>
<g clip-path="url(#clip0)">
<path d="M19.3973 37.6248C16.869 37.6248 14.4167 37.1257 12.1162 36.1491C9.88092 35.205 7.88432 33.8595 6.16985 32.1342C4.45538 30.4197 3.09899 28.4122 2.15495 26.1878C1.17835 23.8765 0.679199 21.4242 0.679199 18.8958C0.679199 16.3675 1.17835 13.9152 2.15495 11.6148C3.09899 9.37945 4.44453 7.38286 6.16985 5.66839C7.88432 3.95391 9.89177 2.59753 12.1162 1.65349C14.4275 0.676888 16.8799 0.177734 19.3973 0.177734C21.9148 0.177734 24.378 0.666033 26.6892 1.64263C28.9246 2.58667 30.9212 3.93221 32.6356 5.65753C34.3501 7.372 35.7065 9.37946 36.6505 11.6039C37.6271 13.9152 38.1263 16.3675 38.1263 18.885C38.1263 21.4133 37.6271 23.8656 36.6505 26.1661C35.7065 28.4014 34.361 30.398 32.6356 32.1125C30.9212 33.8269 28.9137 35.1833 26.6892 36.1274C24.3671 37.1257 21.9256 37.6248 19.3973 37.6248ZM19.3973 4.34455C15.5126 4.34455 11.8558 5.8637 9.09964 8.60903C6.34347 11.3652 4.83517 15.022 4.83517 18.9067C4.83517 22.7914 6.35432 26.4482 9.09964 29.2044C11.8558 31.9497 15.5126 33.4689 19.3973 33.4689C23.282 33.4689 26.9388 31.9497 29.695 29.2044C32.4403 26.4482 33.9595 22.7914 33.9595 18.9067C33.9595 15.022 32.4403 11.3652 29.695 8.60903C26.9388 5.85285 23.282 4.34455 19.3973 4.34455Z" fill="black"/>
<path d="M18.2686 23.5616H26.3744V27.6416H21.3829C21.4588 28.8027 21.5131 29.8878 21.589 31.0488H17.3897V27.685H12.3982C12.3982 26.3503 12.2354 25.0265 12.4741 23.7786C12.6043 23.1167 13.3531 22.5307 13.8088 21.9448C15.3931 20.0675 16.9665 18.2445 18.5941 16.3673C19.2235 15.662 19.842 14.9892 20.5473 14.208H12.7671V10.1279H17.3788V6.7207H21.4154V10.052H26.4503C26.4503 11.4301 26.6131 12.7539 26.3744 14.0018C26.2442 14.6637 25.4954 15.2497 24.9963 15.8356C23.412 17.7129 21.8386 19.5358 20.2109 21.4131C19.6033 22.1509 18.9848 22.8129 18.2686 23.5616Z" fill="black"/>
</g>
<defs>
<clipPath id="clip0">
<rect width="37.4513" height="37.4513" fill="white" transform="translate(0.675293 0.183594)"/>
</clipPath>
</defs>
</svg>
